G04 #@! TF.FileFunction,Copper,L2,Bot,Signal*
%FSLAX46Y46*%
G04 Gerber Fmt 4.6, Leading zero omitted, Abs format (unit mm)*
G04 Created by KiCad (PCBNEW 4.0.6) date 12/03/17 11:24:10*
%MOMM*%
%LPD*%
G01*
G04 APERTURE LIST*
%ADD10C,0.100000*%
%ADD11R,0.850000X0.850000*%
%ADD12C,4.064000*%
%ADD13R,1.270000X1.270000*%
%ADD14C,2.000000*%
%ADD15R,1.700000X1.700000*%
%ADD16O,1.700000X1.700000*%
%ADD17C,0.600000*%
%ADD18C,0.508000*%
%ADD19C,0.381000*%
%ADD20C,0.762000*%
%ADD21C,0.254000*%
G04 APERTURE END LIST*
D10*
D11*
X127238760Y-65095120D03*
X125968760Y-65095120D03*
X124698760Y-65095120D03*
X123428760Y-65095120D03*
X122158760Y-65095120D03*
X127238760Y-63825120D03*
X125968760Y-63825120D03*
X124698760Y-63825120D03*
X123428760Y-63825120D03*
D12*
X84805520Y-102290880D03*
X174797720Y-122834400D03*
D13*
X106847640Y-65008760D03*
X108117640Y-65008760D03*
X105577640Y-65008760D03*
X105577640Y-63738760D03*
X106847640Y-63738760D03*
X108117640Y-63738760D03*
X108143040Y-57642760D03*
X106873040Y-57642760D03*
X105603040Y-57642760D03*
X105603040Y-58912760D03*
X108143040Y-58912760D03*
X106873040Y-58912760D03*
X146739640Y-88305760D03*
X145469640Y-88305760D03*
X148009640Y-88305760D03*
X148009640Y-89575760D03*
X146739640Y-89575760D03*
X145469640Y-89575760D03*
X145444240Y-95671760D03*
X146714240Y-95671760D03*
X147984240Y-95671760D03*
X147984240Y-94401760D03*
X145444240Y-94401760D03*
X146714240Y-94401760D03*
X147416520Y-71099680D03*
X148686520Y-71099680D03*
X146146520Y-71099680D03*
X146146520Y-69829680D03*
X147416520Y-69829680D03*
X148686520Y-69829680D03*
X148711920Y-63733680D03*
X147441920Y-63733680D03*
X146171920Y-63733680D03*
X146171920Y-65003680D03*
X148711920Y-65003680D03*
X147441920Y-65003680D03*
X151455120Y-95539560D03*
X150185120Y-95539560D03*
X152725120Y-95539560D03*
X152725120Y-96809560D03*
X151455120Y-96809560D03*
X150185120Y-96809560D03*
X150159720Y-102905560D03*
X151429720Y-102905560D03*
X152699720Y-102905560D03*
X152699720Y-101635560D03*
X150159720Y-101635560D03*
X151429720Y-101635560D03*
X118310028Y-104134794D03*
X118310028Y-102864794D03*
X118310028Y-105404794D03*
X117040028Y-105404794D03*
X117040028Y-104134794D03*
X117040028Y-102864794D03*
X110944028Y-102839394D03*
X110944028Y-104109394D03*
X110944028Y-105379394D03*
X112214028Y-105379394D03*
X112214028Y-102839394D03*
X112214028Y-104109394D03*
D12*
X174828200Y-56934100D03*
D14*
X93658840Y-91399360D03*
X86658840Y-91399360D03*
D15*
X83962240Y-69390260D03*
D16*
X86502240Y-69390260D03*
X83962240Y-71930260D03*
X86502240Y-71930260D03*
X83962240Y-74470260D03*
X86502240Y-74470260D03*
X83962240Y-77010260D03*
X86502240Y-77010260D03*
X83962240Y-79550260D03*
X86502240Y-79550260D03*
X83962240Y-82090260D03*
X86502240Y-82090260D03*
D13*
X123336259Y-108863115D03*
X123336259Y-110133115D03*
X123336259Y-107593115D03*
X124606259Y-107593115D03*
X124606259Y-108863115D03*
X124606259Y-110133115D03*
X130702259Y-110158515D03*
X130702259Y-108888515D03*
X130702259Y-107618515D03*
X129432259Y-107618515D03*
X129432259Y-110158515D03*
X129432259Y-108888515D03*
X83840320Y-119239960D03*
X83840320Y-124421560D03*
X82138520Y-120357560D03*
X82138520Y-123278560D03*
D10*
G36*
X166658786Y-68720332D02*
X167556812Y-67822306D01*
X168454838Y-68720332D01*
X167556812Y-69618358D01*
X166658786Y-68720332D01*
X166658786Y-68720332D01*
G37*
G36*
X162994842Y-65056388D02*
X163892868Y-64158362D01*
X164790894Y-65056388D01*
X163892868Y-65954414D01*
X162994842Y-65056388D01*
X162994842Y-65056388D01*
G37*
G36*
X167071878Y-66726715D02*
X167969904Y-65828689D01*
X168867930Y-66726715D01*
X167969904Y-67624741D01*
X167071878Y-66726715D01*
X167071878Y-66726715D01*
G37*
G36*
X165006419Y-64661256D02*
X165904445Y-63763230D01*
X166802471Y-64661256D01*
X165904445Y-65559282D01*
X165006419Y-64661256D01*
X165006419Y-64661256D01*
G37*
D13*
X122595640Y-58506360D03*
X117414040Y-58506360D03*
X121478040Y-56804560D03*
X118557040Y-56804560D03*
X152503800Y-132831840D03*
X157685400Y-132831840D03*
X153621400Y-134533640D03*
X156542400Y-134533640D03*
D11*
X122158760Y-63825120D03*
D15*
X116027200Y-76911200D03*
D16*
X113487200Y-76911200D03*
X110947200Y-76911200D03*
X108407200Y-76911200D03*
D17*
X136702800Y-81254600D03*
X108889800Y-84607400D03*
X160477200Y-72440800D03*
X109778800Y-91922600D03*
X105156000Y-80518000D03*
X104952800Y-81991200D03*
X114350800Y-81889600D03*
X123698000Y-76708000D03*
X128270000Y-80518000D03*
X129286000Y-76073000D03*
X123317000Y-83439000D03*
X129413000Y-82296000D03*
X133004560Y-88394660D03*
X132974080Y-89664660D03*
X131668520Y-89664660D03*
X131693920Y-88394660D03*
X99512120Y-69855080D03*
X114574320Y-69834760D03*
X115498880Y-68818760D03*
X114630200Y-67894200D03*
X90698320Y-74320400D03*
X134317140Y-89664660D03*
X134306340Y-88383860D03*
X130496340Y-88383860D03*
X130507140Y-89664660D03*
X107889040Y-101594920D03*
X106934000Y-102331520D03*
X106045000Y-101544120D03*
X143911320Y-107736640D03*
X143972280Y-105816400D03*
X143088360Y-106776520D03*
X123774200Y-115620800D03*
X122438160Y-117459760D03*
X123799600Y-119400320D03*
X123784360Y-120243600D03*
X123799600Y-123926600D03*
X122453400Y-122133360D03*
X146354800Y-117378480D03*
X141061440Y-117993160D03*
X135564880Y-110840520D03*
X134609840Y-110022640D03*
X133659880Y-110891320D03*
X144607986Y-83354848D03*
X145405546Y-84320048D03*
X144607986Y-85249688D03*
X154975560Y-74096880D03*
X154965400Y-75991720D03*
X155783280Y-75051920D03*
X84455000Y-63566040D03*
X102186740Y-73974960D03*
X91683840Y-83017360D03*
X87746840Y-95082360D03*
X82793840Y-92796360D03*
X94731840Y-70063360D03*
X90566240Y-80388460D03*
X133479540Y-68894960D03*
X90439240Y-60944760D03*
X91785440Y-61274960D03*
X90388440Y-62417960D03*
X93324800Y-59648060D03*
X87622500Y-61870560D03*
X91473140Y-58886060D03*
X90162500Y-65032860D03*
X92448500Y-65744060D03*
X106680000Y-75184000D03*
X104521000Y-74422000D03*
X102336600Y-91287600D03*
X102387400Y-88849200D03*
X82570320Y-85013800D03*
X86649560Y-84734400D03*
D18*
X89598500Y-84556600D02*
X89535000Y-84556600D01*
X89611200Y-84569300D02*
X89598500Y-84556600D01*
D19*
X105707264Y-75184000D02*
X106680000Y-75184000D01*
X104521000Y-74422000D02*
X104945264Y-74422000D01*
X104945264Y-74422000D02*
X105707264Y-75184000D01*
D20*
X102387400Y-88849200D02*
X102387400Y-91236800D01*
X102387400Y-91236800D02*
X102336600Y-91287600D01*
X85945896Y-85013800D02*
X82570320Y-85013800D01*
X86649560Y-84734400D02*
X86225296Y-84734400D01*
X86225296Y-84734400D02*
X85945896Y-85013800D01*
D21*
G36*
X179125200Y-151220400D02*
X80545200Y-151220400D01*
X80545200Y-134755890D01*
X152605400Y-134755890D01*
X152605400Y-135244425D01*
X152663404Y-135384459D01*
X152770580Y-135491636D01*
X152910614Y-135549640D01*
X153399150Y-135549640D01*
X153494400Y-135454390D01*
X153494400Y-134660640D01*
X153748400Y-134660640D01*
X153748400Y-135454390D01*
X153843650Y-135549640D01*
X154332186Y-135549640D01*
X154472220Y-135491636D01*
X154579396Y-135384459D01*
X154637400Y-135244425D01*
X154637400Y-134755890D01*
X155526400Y-134755890D01*
X155526400Y-135244425D01*
X155584404Y-135384459D01*
X155691580Y-135491636D01*
X155831614Y-135549640D01*
X156320150Y-135549640D01*
X156415400Y-135454390D01*
X156415400Y-134660640D01*
X156669400Y-134660640D01*
X156669400Y-135454390D01*
X156764650Y-135549640D01*
X157253186Y-135549640D01*
X157393220Y-135491636D01*
X157500396Y-135384459D01*
X157558400Y-135244425D01*
X157558400Y-134755890D01*
X157463150Y-134660640D01*
X156669400Y-134660640D01*
X156415400Y-134660640D01*
X155621650Y-134660640D01*
X155526400Y-134755890D01*
X154637400Y-134755890D01*
X154542150Y-134660640D01*
X153748400Y-134660640D01*
X153494400Y-134660640D01*
X152700650Y-134660640D01*
X152605400Y-134755890D01*
X80545200Y-134755890D01*
X80545200Y-133054090D01*
X151487800Y-133054090D01*
X151487800Y-133542625D01*
X151545804Y-133682659D01*
X151652980Y-133789836D01*
X151793014Y-133847840D01*
X152281550Y-133847840D01*
X152306535Y-133822855D01*
X152605400Y-133822855D01*
X152605400Y-134311390D01*
X152700650Y-134406640D01*
X153494400Y-134406640D01*
X153494400Y-133612890D01*
X153748400Y-133612890D01*
X153748400Y-134406640D01*
X154542150Y-134406640D01*
X154637400Y-134311390D01*
X154637400Y-133822855D01*
X155526400Y-133822855D01*
X155526400Y-134311390D01*
X155621650Y-134406640D01*
X156415400Y-134406640D01*
X156415400Y-133612890D01*
X156320150Y-133517640D01*
X155831614Y-133517640D01*
X155691580Y-133575644D01*
X155584404Y-133682821D01*
X155526400Y-133822855D01*
X154637400Y-133822855D01*
X154579396Y-133682821D01*
X154472220Y-133575644D01*
X154332186Y-133517640D01*
X153843650Y-133517640D01*
X153748400Y-133612890D01*
X153494400Y-133612890D01*
X153491780Y-133610270D01*
X153519800Y-133542625D01*
X153519800Y-133054090D01*
X156669400Y-133054090D01*
X156669400Y-133542625D01*
X156689980Y-133592310D01*
X156669400Y-133612890D01*
X156669400Y-134406640D01*
X157463150Y-134406640D01*
X157558400Y-134311390D01*
X157558400Y-133822855D01*
X157537820Y-133773170D01*
X157558400Y-133752590D01*
X157558400Y-132958840D01*
X157812400Y-132958840D01*
X157812400Y-133752590D01*
X157907650Y-133847840D01*
X158396186Y-133847840D01*
X158536220Y-133789836D01*
X158643396Y-133682659D01*
X158701400Y-133542625D01*
X158701400Y-133054090D01*
X158606150Y-132958840D01*
X157812400Y-132958840D01*
X157558400Y-132958840D01*
X156764650Y-132958840D01*
X156669400Y-133054090D01*
X153519800Y-133054090D01*
X153424550Y-132958840D01*
X152630800Y-132958840D01*
X152630800Y-133752590D01*
X152633420Y-133755210D01*
X152605400Y-133822855D01*
X152306535Y-133822855D01*
X152376800Y-133752590D01*
X152376800Y-132958840D01*
X151583050Y-132958840D01*
X151487800Y-133054090D01*
X80545200Y-133054090D01*
X80545200Y-132121055D01*
X151487800Y-132121055D01*
X151487800Y-132609590D01*
X151583050Y-132704840D01*
X152376800Y-132704840D01*
X152376800Y-131911090D01*
X152630800Y-131911090D01*
X152630800Y-132704840D01*
X153424550Y-132704840D01*
X153519800Y-132609590D01*
X153519800Y-132121055D01*
X156669400Y-132121055D01*
X156669400Y-132609590D01*
X156764650Y-132704840D01*
X157558400Y-132704840D01*
X157558400Y-131911090D01*
X157812400Y-131911090D01*
X157812400Y-132704840D01*
X158606150Y-132704840D01*
X158701400Y-132609590D01*
X158701400Y-132121055D01*
X158643396Y-131981021D01*
X158536220Y-131873844D01*
X158396186Y-131815840D01*
X157907650Y-131815840D01*
X157812400Y-131911090D01*
X157558400Y-131911090D01*
X157463150Y-131815840D01*
X156974614Y-131815840D01*
X156834580Y-131873844D01*
X156727404Y-131981021D01*
X156669400Y-132121055D01*
X153519800Y-132121055D01*
X153461796Y-131981021D01*
X153354620Y-131873844D01*
X153214586Y-131815840D01*
X152726050Y-131815840D01*
X152630800Y-131911090D01*
X152376800Y-131911090D01*
X152281550Y-131815840D01*
X151793014Y-131815840D01*
X151652980Y-131873844D01*
X151545804Y-131981021D01*
X151487800Y-132121055D01*
X80545200Y-132121055D01*
X80545200Y-124643810D01*
X82824320Y-124643810D01*
X82824320Y-125132346D01*
X82882324Y-125272380D01*
X82989501Y-125379556D01*
X83129535Y-125437560D01*
X83618070Y-125437560D01*
X83713320Y-125342310D01*
X83713320Y-124548560D01*
X83967320Y-124548560D01*
X83967320Y-125342310D01*
X84062570Y-125437560D01*
X84551105Y-125437560D01*
X84691139Y-125379556D01*
X84798316Y-125272380D01*
X84856320Y-125132346D01*
X84856320Y-124643810D01*
X84761070Y-124548560D01*
X83967320Y-124548560D01*
X83713320Y-124548560D01*
X82919570Y-124548560D01*
X82824320Y-124643810D01*
X80545200Y-124643810D01*
X80545200Y-123500810D01*
X81122520Y-123500810D01*
X81122520Y-123989346D01*
X81180524Y-124129380D01*
X81287701Y-124236556D01*
X81427735Y-124294560D01*
X81916270Y-124294560D01*
X82011520Y-124199310D01*
X82011520Y-123405560D01*
X82265520Y-123405560D01*
X82265520Y-124199310D01*
X82360770Y-124294560D01*
X82849305Y-124294560D01*
X82898990Y-124273980D01*
X82919570Y-124294560D01*
X83713320Y-124294560D01*
X83713320Y-123500810D01*
X83967320Y-123500810D01*
X83967320Y-124294560D01*
X84761070Y-124294560D01*
X84856320Y-124199310D01*
X84856320Y-123710774D01*
X84798316Y-123570740D01*
X84691139Y-123463564D01*
X84551105Y-123405560D01*
X84062570Y-123405560D01*
X83967320Y-123500810D01*
X83713320Y-123500810D01*
X83618070Y-123405560D01*
X83129535Y-123405560D01*
X83079850Y-123426140D01*
X83059270Y-123405560D01*
X82265520Y-123405560D01*
X82011520Y-123405560D01*
X81217770Y-123405560D01*
X81122520Y-123500810D01*
X80545200Y-123500810D01*
X80545200Y-123362572D01*
X172130258Y-123362572D01*
X172535429Y-124343161D01*
X173285013Y-125094055D01*
X174264893Y-125500936D01*
X175325892Y-125501862D01*
X176306481Y-125096691D01*
X177057375Y-124347107D01*
X177464256Y-123367227D01*
X177465182Y-122306228D01*
X177060011Y-121325639D01*
X176310427Y-120574745D01*
X175330547Y-120167864D01*
X174269548Y-120166938D01*
X173288959Y-120572109D01*
X172538065Y-121321693D01*
X172131184Y-122301573D01*
X172130258Y-123362572D01*
X80545200Y-123362572D01*
X80545200Y-122567774D01*
X81122520Y-122567774D01*
X81122520Y-123056310D01*
X81217770Y-123151560D01*
X82011520Y-123151560D01*
X82011520Y-122357810D01*
X82265520Y-122357810D01*
X82265520Y-123151560D01*
X83059270Y-123151560D01*
X83154520Y-123056310D01*
X83154520Y-122567774D01*
X83096516Y-122427740D01*
X82989339Y-122320564D01*
X82849305Y-122262560D01*
X82360770Y-122262560D01*
X82265520Y-122357810D01*
X82011520Y-122357810D01*
X81916270Y-122262560D01*
X81427735Y-122262560D01*
X81287701Y-122320564D01*
X81180524Y-122427740D01*
X81122520Y-122567774D01*
X80545200Y-122567774D01*
X80545200Y-120579810D01*
X81122520Y-120579810D01*
X81122520Y-121068346D01*
X81180524Y-121208380D01*
X81287701Y-121315556D01*
X81427735Y-121373560D01*
X81916270Y-121373560D01*
X82011520Y-121278310D01*
X82011520Y-120484560D01*
X82265520Y-120484560D01*
X82265520Y-121278310D01*
X82360770Y-121373560D01*
X82849305Y-121373560D01*
X82989339Y-121315556D01*
X83096516Y-121208380D01*
X83154520Y-121068346D01*
X83154520Y-120579810D01*
X83059270Y-120484560D01*
X82265520Y-120484560D01*
X82011520Y-120484560D01*
X81217770Y-120484560D01*
X81122520Y-120579810D01*
X80545200Y-120579810D01*
X80545200Y-119646774D01*
X81122520Y-119646774D01*
X81122520Y-120135310D01*
X81217770Y-120230560D01*
X82011520Y-120230560D01*
X82011520Y-119436810D01*
X82265520Y-119436810D01*
X82265520Y-120230560D01*
X83059270Y-120230560D01*
X83061890Y-120227940D01*
X83129535Y-120255960D01*
X83618070Y-120255960D01*
X83713320Y-120160710D01*
X83713320Y-119366960D01*
X83967320Y-119366960D01*
X83967320Y-120160710D01*
X84062570Y-120255960D01*
X84551105Y-120255960D01*
X84691139Y-120197956D01*
X84798316Y-120090780D01*
X84856320Y-119950746D01*
X84856320Y-119462210D01*
X84761070Y-119366960D01*
X83967320Y-119366960D01*
X83713320Y-119366960D01*
X82919570Y-119366960D01*
X82916950Y-119369580D01*
X82849305Y-119341560D01*
X82360770Y-119341560D01*
X82265520Y-119436810D01*
X82011520Y-119436810D01*
X81916270Y-119341560D01*
X81427735Y-119341560D01*
X81287701Y-119399564D01*
X81180524Y-119506740D01*
X81122520Y-119646774D01*
X80545200Y-119646774D01*
X80545200Y-118529174D01*
X82824320Y-118529174D01*
X82824320Y-119017710D01*
X82919570Y-119112960D01*
X83713320Y-119112960D01*
X83713320Y-118319210D01*
X83967320Y-118319210D01*
X83967320Y-119112960D01*
X84761070Y-119112960D01*
X84856320Y-119017710D01*
X84856320Y-118529174D01*
X84798316Y-118389140D01*
X84691139Y-118281964D01*
X84551105Y-118223960D01*
X84062570Y-118223960D01*
X83967320Y-118319210D01*
X83713320Y-118319210D01*
X83618070Y-118223960D01*
X83129535Y-118223960D01*
X82989501Y-118281964D01*
X82882324Y-118389140D01*
X82824320Y-118529174D01*
X80545200Y-118529174D01*
X80545200Y-110355365D01*
X122320259Y-110355365D01*
X122320259Y-110843901D01*
X122378263Y-110983935D01*
X122485440Y-111091111D01*
X122625474Y-111149115D01*
X123114009Y-111149115D01*
X123209259Y-111053865D01*
X123209259Y-110260115D01*
X123463259Y-110260115D01*
X123463259Y-111053865D01*
X123558509Y-111149115D01*
X124384009Y-111149115D01*
X124479259Y-111053865D01*
X124479259Y-110260115D01*
X124733259Y-110260115D01*
X124733259Y-111053865D01*
X124828509Y-111149115D01*
X125317044Y-111149115D01*
X125457078Y-111091111D01*
X125564255Y-110983935D01*
X125622259Y-110843901D01*
X125622259Y-110380765D01*
X128416259Y-110380765D01*
X128416259Y-110869301D01*
X128474263Y-111009335D01*
X128581440Y-111116511D01*
X128721474Y-111174515D01*
X129210009Y-111174515D01*
X129305259Y-111079265D01*
X129305259Y-110285515D01*
X129559259Y-110285515D01*
X129559259Y-111079265D01*
X129654509Y-111174515D01*
X130480009Y-111174515D01*
X130575259Y-111079265D01*
X130575259Y-110285515D01*
X130829259Y-110285515D01*
X130829259Y-111079265D01*
X130924509Y-111174515D01*
X131413044Y-111174515D01*
X131553078Y-111116511D01*
X131660255Y-111009335D01*
X131718259Y-110869301D01*
X131718259Y-110380765D01*
X131623009Y-110285515D01*
X130829259Y-110285515D01*
X130575259Y-110285515D01*
X129559259Y-110285515D01*
X129305259Y-110285515D01*
X128511509Y-110285515D01*
X128416259Y-110380765D01*
X125622259Y-110380765D01*
X125622259Y-110355365D01*
X125527009Y-110260115D01*
X124733259Y-110260115D01*
X124479259Y-110260115D01*
X123463259Y-110260115D01*
X123209259Y-110260115D01*
X122415509Y-110260115D01*
X122320259Y-110355365D01*
X80545200Y-110355365D01*
X80545200Y-109085365D01*
X122320259Y-109085365D01*
X122320259Y-109910865D01*
X122415509Y-110006115D01*
X123209259Y-110006115D01*
X123209259Y-108990115D01*
X123463259Y-108990115D01*
X123463259Y-110006115D01*
X124479259Y-110006115D01*
X124479259Y-108990115D01*
X124733259Y-108990115D01*
X124733259Y-110006115D01*
X125527009Y-110006115D01*
X125622259Y-109910865D01*
X125622259Y-109110765D01*
X128416259Y-109110765D01*
X128416259Y-109936265D01*
X128511509Y-110031515D01*
X129305259Y-110031515D01*
X129305259Y-109015515D01*
X129559259Y-109015515D01*
X129559259Y-110031515D01*
X130575259Y-110031515D01*
X130575259Y-109015515D01*
X130829259Y-109015515D01*
X130829259Y-110031515D01*
X131623009Y-110031515D01*
X131718259Y-109936265D01*
X131718259Y-109110765D01*
X131623009Y-109015515D01*
X130829259Y-109015515D01*
X130575259Y-109015515D01*
X129559259Y-109015515D01*
X129305259Y-109015515D01*
X128511509Y-109015515D01*
X128416259Y-109110765D01*
X125622259Y-109110765D01*
X125622259Y-109085365D01*
X125527009Y-108990115D01*
X124733259Y-108990115D01*
X124479259Y-108990115D01*
X123463259Y-108990115D01*
X123209259Y-108990115D01*
X122415509Y-108990115D01*
X122320259Y-109085365D01*
X80545200Y-109085365D01*
X80545200Y-107815365D01*
X122320259Y-107815365D01*
X122320259Y-108640865D01*
X122415509Y-108736115D01*
X123209259Y-108736115D01*
X123209259Y-107720115D01*
X123463259Y-107720115D01*
X123463259Y-108736115D01*
X124479259Y-108736115D01*
X124479259Y-107720115D01*
X124733259Y-107720115D01*
X124733259Y-108736115D01*
X125527009Y-108736115D01*
X125622259Y-108640865D01*
X125622259Y-107840765D01*
X128416259Y-107840765D01*
X128416259Y-108666265D01*
X128511509Y-108761515D01*
X129305259Y-108761515D01*
X129305259Y-107745515D01*
X129559259Y-107745515D01*
X129559259Y-108761515D01*
X130575259Y-108761515D01*
X130575259Y-107745515D01*
X130829259Y-107745515D01*
X130829259Y-108761515D01*
X131623009Y-108761515D01*
X131718259Y-108666265D01*
X131718259Y-107840765D01*
X131623009Y-107745515D01*
X130829259Y-107745515D01*
X130575259Y-107745515D01*
X129559259Y-107745515D01*
X129305259Y-107745515D01*
X128511509Y-107745515D01*
X128416259Y-107840765D01*
X125622259Y-107840765D01*
X125622259Y-107815365D01*
X125527009Y-107720115D01*
X124733259Y-107720115D01*
X124479259Y-107720115D01*
X123463259Y-107720115D01*
X123209259Y-107720115D01*
X122415509Y-107720115D01*
X122320259Y-107815365D01*
X80545200Y-107815365D01*
X80545200Y-106882329D01*
X122320259Y-106882329D01*
X122320259Y-107370865D01*
X122415509Y-107466115D01*
X123209259Y-107466115D01*
X123209259Y-106672365D01*
X123463259Y-106672365D01*
X123463259Y-107466115D01*
X124479259Y-107466115D01*
X124479259Y-106672365D01*
X124733259Y-106672365D01*
X124733259Y-107466115D01*
X125527009Y-107466115D01*
X125622259Y-107370865D01*
X125622259Y-106907729D01*
X128416259Y-106907729D01*
X128416259Y-107396265D01*
X128511509Y-107491515D01*
X129305259Y-107491515D01*
X129305259Y-106697765D01*
X129559259Y-106697765D01*
X129559259Y-107491515D01*
X130575259Y-107491515D01*
X130575259Y-106697765D01*
X130829259Y-106697765D01*
X130829259Y-107491515D01*
X131623009Y-107491515D01*
X131718259Y-107396265D01*
X131718259Y-106907729D01*
X131660255Y-106767695D01*
X131553078Y-106660519D01*
X131413044Y-106602515D01*
X130924509Y-106602515D01*
X130829259Y-106697765D01*
X130575259Y-106697765D01*
X130480009Y-106602515D01*
X129654509Y-106602515D01*
X129559259Y-106697765D01*
X129305259Y-106697765D01*
X129210009Y-106602515D01*
X128721474Y-106602515D01*
X128581440Y-106660519D01*
X128474263Y-106767695D01*
X128416259Y-106907729D01*
X125622259Y-106907729D01*
X125622259Y-106882329D01*
X125564255Y-106742295D01*
X125457078Y-106635119D01*
X125317044Y-106577115D01*
X124828509Y-106577115D01*
X124733259Y-106672365D01*
X124479259Y-106672365D01*
X124384009Y-106577115D01*
X123558509Y-106577115D01*
X123463259Y-106672365D01*
X123209259Y-106672365D01*
X123114009Y-106577115D01*
X122625474Y-106577115D01*
X122485440Y-106635119D01*
X122378263Y-106742295D01*
X122320259Y-106882329D01*
X80545200Y-106882329D01*
X80545200Y-105601644D01*
X109928028Y-105601644D01*
X109928028Y-106090180D01*
X109986032Y-106230214D01*
X110093209Y-106337390D01*
X110233243Y-106395394D01*
X110721778Y-106395394D01*
X110817028Y-106300144D01*
X110817028Y-105506394D01*
X111071028Y-105506394D01*
X111071028Y-106300144D01*
X111166278Y-106395394D01*
X111991778Y-106395394D01*
X112087028Y-106300144D01*
X112087028Y-105506394D01*
X112341028Y-105506394D01*
X112341028Y-106300144D01*
X112436278Y-106395394D01*
X112924813Y-106395394D01*
X113064847Y-106337390D01*
X113172024Y-106230214D01*
X113230028Y-106090180D01*
X113230028Y-105627044D01*
X116024028Y-105627044D01*
X116024028Y-106115580D01*
X116082032Y-106255614D01*
X116189209Y-106362790D01*
X116329243Y-106420794D01*
X116817778Y-106420794D01*
X116913028Y-106325544D01*
X116913028Y-105531794D01*
X117167028Y-105531794D01*
X117167028Y-106325544D01*
X117262278Y-106420794D01*
X118087778Y-106420794D01*
X118183028Y-106325544D01*
X118183028Y-105531794D01*
X118437028Y-105531794D01*
X118437028Y-106325544D01*
X118532278Y-106420794D01*
X119020813Y-106420794D01*
X119160847Y-106362790D01*
X119268024Y-106255614D01*
X119326028Y-106115580D01*
X119326028Y-105627044D01*
X119230778Y-105531794D01*
X118437028Y-105531794D01*
X118183028Y-105531794D01*
X117167028Y-105531794D01*
X116913028Y-105531794D01*
X116119278Y-105531794D01*
X116024028Y-105627044D01*
X113230028Y-105627044D01*
X113230028Y-105601644D01*
X113134778Y-105506394D01*
X112341028Y-105506394D01*
X112087028Y-105506394D01*
X111071028Y-105506394D01*
X110817028Y-105506394D01*
X110023278Y-105506394D01*
X109928028Y-105601644D01*
X80545200Y-105601644D01*
X80545200Y-102819052D01*
X82138058Y-102819052D01*
X82543229Y-103799641D01*
X83292813Y-104550535D01*
X84272693Y-104957416D01*
X85333692Y-104958342D01*
X86314281Y-104553171D01*
X86536195Y-104331644D01*
X109928028Y-104331644D01*
X109928028Y-105157144D01*
X110023278Y-105252394D01*
X110817028Y-105252394D01*
X110817028Y-104236394D01*
X111071028Y-104236394D01*
X111071028Y-105252394D01*
X112087028Y-105252394D01*
X112087028Y-104236394D01*
X112341028Y-104236394D01*
X112341028Y-105252394D01*
X113134778Y-105252394D01*
X113230028Y-105157144D01*
X113230028Y-104357044D01*
X116024028Y-104357044D01*
X116024028Y-105182544D01*
X116119278Y-105277794D01*
X116913028Y-105277794D01*
X116913028Y-104261794D01*
X117167028Y-104261794D01*
X117167028Y-105277794D01*
X118183028Y-105277794D01*
X118183028Y-104261794D01*
X118437028Y-104261794D01*
X118437028Y-105277794D01*
X119230778Y-105277794D01*
X119326028Y-105182544D01*
X119326028Y-104357044D01*
X119230778Y-104261794D01*
X118437028Y-104261794D01*
X118183028Y-104261794D01*
X117167028Y-104261794D01*
X116913028Y-104261794D01*
X116119278Y-104261794D01*
X116024028Y-104357044D01*
X113230028Y-104357044D01*
X113230028Y-104331644D01*
X113134778Y-104236394D01*
X112341028Y-104236394D01*
X112087028Y-104236394D01*
X111071028Y-104236394D01*
X110817028Y-104236394D01*
X110023278Y-104236394D01*
X109928028Y-104331644D01*
X86536195Y-104331644D01*
X87065175Y-103803587D01*
X87373256Y-103061644D01*
X109928028Y-103061644D01*
X109928028Y-103887144D01*
X110023278Y-103982394D01*
X110817028Y-103982394D01*
X110817028Y-102966394D01*
X111071028Y-102966394D01*
X111071028Y-103982394D01*
X112087028Y-103982394D01*
X112087028Y-102966394D01*
X112341028Y-102966394D01*
X112341028Y-103982394D01*
X113134778Y-103982394D01*
X113230028Y-103887144D01*
X113230028Y-103087044D01*
X116024028Y-103087044D01*
X116024028Y-103912544D01*
X116119278Y-104007794D01*
X116913028Y-104007794D01*
X116913028Y-102991794D01*
X117167028Y-102991794D01*
X117167028Y-104007794D01*
X118183028Y-104007794D01*
X118183028Y-102991794D01*
X118437028Y-102991794D01*
X118437028Y-104007794D01*
X119230778Y-104007794D01*
X119326028Y-103912544D01*
X119326028Y-103127810D01*
X149143720Y-103127810D01*
X149143720Y-103616345D01*
X149201724Y-103756379D01*
X149308900Y-103863556D01*
X149448934Y-103921560D01*
X149937470Y-103921560D01*
X150032720Y-103826310D01*
X150032720Y-103032560D01*
X150286720Y-103032560D01*
X150286720Y-103826310D01*
X150381970Y-103921560D01*
X151207470Y-103921560D01*
X151302720Y-103826310D01*
X151302720Y-103032560D01*
X151556720Y-103032560D01*
X151556720Y-103826310D01*
X151651970Y-103921560D01*
X152477470Y-103921560D01*
X152572720Y-103826310D01*
X152572720Y-103032560D01*
X152826720Y-103032560D01*
X152826720Y-103826310D01*
X152921970Y-103921560D01*
X153410506Y-103921560D01*
X153550540Y-103863556D01*
X153657716Y-103756379D01*
X153715720Y-103616345D01*
X153715720Y-103127810D01*
X153620470Y-103032560D01*
X152826720Y-103032560D01*
X152572720Y-103032560D01*
X151556720Y-103032560D01*
X151302720Y-103032560D01*
X150286720Y-103032560D01*
X150032720Y-103032560D01*
X149238970Y-103032560D01*
X149143720Y-103127810D01*
X119326028Y-103127810D01*
X119326028Y-103087044D01*
X119230778Y-102991794D01*
X118437028Y-102991794D01*
X118183028Y-102991794D01*
X117167028Y-102991794D01*
X116913028Y-102991794D01*
X116119278Y-102991794D01*
X116024028Y-103087044D01*
X113230028Y-103087044D01*
X113230028Y-103061644D01*
X113134778Y-102966394D01*
X112341028Y-102966394D01*
X112087028Y-102966394D01*
X111071028Y-102966394D01*
X110817028Y-102966394D01*
X110023278Y-102966394D01*
X109928028Y-103061644D01*
X87373256Y-103061644D01*
X87472056Y-102823707D01*
X87472662Y-102128608D01*
X109928028Y-102128608D01*
X109928028Y-102617144D01*
X110023278Y-102712394D01*
X110817028Y-102712394D01*
X110817028Y-101918644D01*
X111071028Y-101918644D01*
X111071028Y-102712394D01*
X112087028Y-102712394D01*
X112087028Y-101918644D01*
X112341028Y-101918644D01*
X112341028Y-102712394D01*
X113134778Y-102712394D01*
X113230028Y-102617144D01*
X113230028Y-102154008D01*
X116024028Y-102154008D01*
X116024028Y-102642544D01*
X116119278Y-102737794D01*
X116913028Y-102737794D01*
X116913028Y-101944044D01*
X117167028Y-101944044D01*
X117167028Y-102737794D01*
X118183028Y-102737794D01*
X118183028Y-101944044D01*
X118437028Y-101944044D01*
X118437028Y-102737794D01*
X119230778Y-102737794D01*
X119326028Y-102642544D01*
X119326028Y-102154008D01*
X119268024Y-102013974D01*
X119160847Y-101906798D01*
X119042580Y-101857810D01*
X149143720Y-101857810D01*
X149143720Y-102683310D01*
X149238970Y-102778560D01*
X150032720Y-102778560D01*
X150032720Y-101762560D01*
X150286720Y-101762560D01*
X150286720Y-102778560D01*
X151302720Y-102778560D01*
X151302720Y-101762560D01*
X151556720Y-101762560D01*
X151556720Y-102778560D01*
X152572720Y-102778560D01*
X152572720Y-101762560D01*
X152826720Y-101762560D01*
X152826720Y-102778560D01*
X153620470Y-102778560D01*
X153715720Y-102683310D01*
X153715720Y-101857810D01*
X153620470Y-101762560D01*
X152826720Y-101762560D01*
X152572720Y-101762560D01*
X151556720Y-101762560D01*
X151302720Y-101762560D01*
X150286720Y-101762560D01*
X150032720Y-101762560D01*
X149238970Y-101762560D01*
X149143720Y-101857810D01*
X119042580Y-101857810D01*
X119020813Y-101848794D01*
X118532278Y-101848794D01*
X118437028Y-101944044D01*
X118183028Y-101944044D01*
X118087778Y-101848794D01*
X117262278Y-101848794D01*
X117167028Y-101944044D01*
X116913028Y-101944044D01*
X116817778Y-101848794D01*
X116329243Y-101848794D01*
X116189209Y-101906798D01*
X116082032Y-102013974D01*
X116024028Y-102154008D01*
X113230028Y-102154008D01*
X113230028Y-102128608D01*
X113172024Y-101988574D01*
X113064847Y-101881398D01*
X112924813Y-101823394D01*
X112436278Y-101823394D01*
X112341028Y-101918644D01*
X112087028Y-101918644D01*
X111991778Y-101823394D01*
X111166278Y-101823394D01*
X111071028Y-101918644D01*
X110817028Y-101918644D01*
X110721778Y-101823394D01*
X110233243Y-101823394D01*
X110093209Y-101881398D01*
X109986032Y-101988574D01*
X109928028Y-102128608D01*
X87472662Y-102128608D01*
X87472982Y-101762708D01*
X87126756Y-100924775D01*
X149143720Y-100924775D01*
X149143720Y-101413310D01*
X149238970Y-101508560D01*
X150032720Y-101508560D01*
X150032720Y-100714810D01*
X150286720Y-100714810D01*
X150286720Y-101508560D01*
X151302720Y-101508560D01*
X151302720Y-100714810D01*
X151556720Y-100714810D01*
X151556720Y-101508560D01*
X152572720Y-101508560D01*
X152572720Y-100714810D01*
X152826720Y-100714810D01*
X152826720Y-101508560D01*
X153620470Y-101508560D01*
X153715720Y-101413310D01*
X153715720Y-100924775D01*
X153657716Y-100784741D01*
X153550540Y-100677564D01*
X153410506Y-100619560D01*
X152921970Y-100619560D01*
X152826720Y-100714810D01*
X152572720Y-100714810D01*
X152477470Y-100619560D01*
X151651970Y-100619560D01*
X151556720Y-100714810D01*
X151302720Y-100714810D01*
X151207470Y-100619560D01*
X150381970Y-100619560D01*
X150286720Y-100714810D01*
X150032720Y-100714810D01*
X149937470Y-100619560D01*
X149448934Y-100619560D01*
X149308900Y-100677564D01*
X149201724Y-100784741D01*
X149143720Y-100924775D01*
X87126756Y-100924775D01*
X87067811Y-100782119D01*
X86318227Y-100031225D01*
X85338347Y-99624344D01*
X84277348Y-99623418D01*
X83296759Y-100028589D01*
X82545865Y-100778173D01*
X82138984Y-101758053D01*
X82138058Y-102819052D01*
X80545200Y-102819052D01*
X80545200Y-97031810D01*
X149169120Y-97031810D01*
X149169120Y-97520345D01*
X149227124Y-97660379D01*
X149334300Y-97767556D01*
X149474334Y-97825560D01*
X149962870Y-97825560D01*
X150058120Y-97730310D01*
X150058120Y-96936560D01*
X150312120Y-96936560D01*
X150312120Y-97730310D01*
X150407370Y-97825560D01*
X151232870Y-97825560D01*
X151328120Y-97730310D01*
X151328120Y-96936560D01*
X151582120Y-96936560D01*
X151582120Y-97730310D01*
X151677370Y-97825560D01*
X152502870Y-97825560D01*
X152598120Y-97730310D01*
X152598120Y-96936560D01*
X152852120Y-96936560D01*
X152852120Y-97730310D01*
X152947370Y-97825560D01*
X153435906Y-97825560D01*
X153575940Y-97767556D01*
X153683116Y-97660379D01*
X153741120Y-97520345D01*
X153741120Y-97031810D01*
X153645870Y-96936560D01*
X152852120Y-96936560D01*
X152598120Y-96936560D01*
X151582120Y-96936560D01*
X151328120Y-96936560D01*
X150312120Y-96936560D01*
X150058120Y-96936560D01*
X149264370Y-96936560D01*
X149169120Y-97031810D01*
X80545200Y-97031810D01*
X80545200Y-95894010D01*
X144428240Y-95894010D01*
X144428240Y-96382545D01*
X144486244Y-96522579D01*
X144593420Y-96629756D01*
X144733454Y-96687760D01*
X145221990Y-96687760D01*
X145317240Y-96592510D01*
X145317240Y-95798760D01*
X145571240Y-95798760D01*
X145571240Y-96592510D01*
X145666490Y-96687760D01*
X146491990Y-96687760D01*
X146587240Y-96592510D01*
X146587240Y-95798760D01*
X146841240Y-95798760D01*
X146841240Y-96592510D01*
X146936490Y-96687760D01*
X147761990Y-96687760D01*
X147857240Y-96592510D01*
X147857240Y-95798760D01*
X148111240Y-95798760D01*
X148111240Y-96592510D01*
X148206490Y-96687760D01*
X148695026Y-96687760D01*
X148835060Y-96629756D01*
X148942236Y-96522579D01*
X149000240Y-96382545D01*
X149000240Y-95894010D01*
X148904990Y-95798760D01*
X148111240Y-95798760D01*
X147857240Y-95798760D01*
X146841240Y-95798760D01*
X146587240Y-95798760D01*
X145571240Y-95798760D01*
X145317240Y-95798760D01*
X144523490Y-95798760D01*
X144428240Y-95894010D01*
X80545200Y-95894010D01*
X80545200Y-95761810D01*
X149169120Y-95761810D01*
X149169120Y-96587310D01*
X149264370Y-96682560D01*
X150058120Y-96682560D01*
X150058120Y-95666560D01*
X150312120Y-95666560D01*
X150312120Y-96682560D01*
X151328120Y-96682560D01*
X151328120Y-95666560D01*
X151582120Y-95666560D01*
X151582120Y-96682560D01*
X152598120Y-96682560D01*
X152598120Y-95666560D01*
X152852120Y-95666560D01*
X152852120Y-96682560D01*
X153645870Y-96682560D01*
X153741120Y-96587310D01*
X153741120Y-95761810D01*
X153645870Y-95666560D01*
X152852120Y-95666560D01*
X152598120Y-95666560D01*
X151582120Y-95666560D01*
X151328120Y-95666560D01*
X150312120Y-95666560D01*
X150058120Y-95666560D01*
X149264370Y-95666560D01*
X149169120Y-95761810D01*
X80545200Y-95761810D01*
X80545200Y-94624010D01*
X144428240Y-94624010D01*
X144428240Y-95449510D01*
X144523490Y-95544760D01*
X145317240Y-95544760D01*
X145317240Y-94528760D01*
X145571240Y-94528760D01*
X145571240Y-95544760D01*
X146587240Y-95544760D01*
X146587240Y-94528760D01*
X146841240Y-94528760D01*
X146841240Y-95544760D01*
X147857240Y-95544760D01*
X147857240Y-94528760D01*
X148111240Y-94528760D01*
X148111240Y-95544760D01*
X148904990Y-95544760D01*
X149000240Y-95449510D01*
X149000240Y-94828775D01*
X149169120Y-94828775D01*
X149169120Y-95317310D01*
X149264370Y-95412560D01*
X150058120Y-95412560D01*
X150058120Y-94618810D01*
X150312120Y-94618810D01*
X150312120Y-95412560D01*
X151328120Y-95412560D01*
X151328120Y-94618810D01*
X151582120Y-94618810D01*
X151582120Y-95412560D01*
X152598120Y-95412560D01*
X152598120Y-94618810D01*
X152852120Y-94618810D01*
X152852120Y-95412560D01*
X153645870Y-95412560D01*
X153741120Y-95317310D01*
X153741120Y-94828775D01*
X153683116Y-94688741D01*
X153575940Y-94581564D01*
X153435906Y-94523560D01*
X152947370Y-94523560D01*
X152852120Y-94618810D01*
X152598120Y-94618810D01*
X152502870Y-94523560D01*
X151677370Y-94523560D01*
X151582120Y-94618810D01*
X151328120Y-94618810D01*
X151232870Y-94523560D01*
X150407370Y-94523560D01*
X150312120Y-94618810D01*
X150058120Y-94618810D01*
X149962870Y-94523560D01*
X149474334Y-94523560D01*
X149334300Y-94581564D01*
X149227124Y-94688741D01*
X149169120Y-94828775D01*
X149000240Y-94828775D01*
X149000240Y-94624010D01*
X148904990Y-94528760D01*
X148111240Y-94528760D01*
X147857240Y-94528760D01*
X146841240Y-94528760D01*
X146587240Y-94528760D01*
X145571240Y-94528760D01*
X145317240Y-94528760D01*
X144523490Y-94528760D01*
X144428240Y-94624010D01*
X80545200Y-94624010D01*
X80545200Y-93690975D01*
X144428240Y-93690975D01*
X144428240Y-94179510D01*
X144523490Y-94274760D01*
X145317240Y-94274760D01*
X145317240Y-93481010D01*
X145571240Y-93481010D01*
X145571240Y-94274760D01*
X146587240Y-94274760D01*
X146587240Y-93481010D01*
X146841240Y-93481010D01*
X146841240Y-94274760D01*
X147857240Y-94274760D01*
X147857240Y-93481010D01*
X148111240Y-93481010D01*
X148111240Y-94274760D01*
X148904990Y-94274760D01*
X149000240Y-94179510D01*
X149000240Y-93690975D01*
X148942236Y-93550941D01*
X148835060Y-93443764D01*
X148695026Y-93385760D01*
X148206490Y-93385760D01*
X148111240Y-93481010D01*
X147857240Y-93481010D01*
X147761990Y-93385760D01*
X146936490Y-93385760D01*
X146841240Y-93481010D01*
X146587240Y-93481010D01*
X146491990Y-93385760D01*
X145666490Y-93385760D01*
X145571240Y-93481010D01*
X145317240Y-93481010D01*
X145221990Y-93385760D01*
X144733454Y-93385760D01*
X144593420Y-93443764D01*
X144486244Y-93550941D01*
X144428240Y-93690975D01*
X80545200Y-93690975D01*
X80545200Y-91723155D01*
X85023556Y-91723155D01*
X85271946Y-92324303D01*
X85731477Y-92784638D01*
X86332192Y-93034076D01*
X86982635Y-93034644D01*
X87583783Y-92786254D01*
X88044118Y-92326723D01*
X88293556Y-91726008D01*
X88293558Y-91723155D01*
X92023556Y-91723155D01*
X92271946Y-92324303D01*
X92731477Y-92784638D01*
X93332192Y-93034076D01*
X93982635Y-93034644D01*
X94583783Y-92786254D01*
X95044118Y-92326723D01*
X95293556Y-91726008D01*
X95293938Y-91287600D01*
X101320601Y-91287600D01*
X101397938Y-91676407D01*
X101618180Y-92006020D01*
X101947793Y-92226262D01*
X102336600Y-92303599D01*
X102725407Y-92226262D01*
X103055020Y-92006020D01*
X103105820Y-91955221D01*
X103326062Y-91625607D01*
X103356463Y-91472767D01*
X103403400Y-91236800D01*
X103403400Y-89798010D01*
X144453640Y-89798010D01*
X144453640Y-90286545D01*
X144511644Y-90426579D01*
X144618820Y-90533756D01*
X144758854Y-90591760D01*
X145247390Y-90591760D01*
X145342640Y-90496510D01*
X145342640Y-89702760D01*
X145596640Y-89702760D01*
X145596640Y-90496510D01*
X145691890Y-90591760D01*
X146517390Y-90591760D01*
X146612640Y-90496510D01*
X146612640Y-89702760D01*
X146866640Y-89702760D01*
X146866640Y-90496510D01*
X146961890Y-90591760D01*
X147787390Y-90591760D01*
X147882640Y-90496510D01*
X147882640Y-89702760D01*
X148136640Y-89702760D01*
X148136640Y-90496510D01*
X148231890Y-90591760D01*
X148720426Y-90591760D01*
X148860460Y-90533756D01*
X148967636Y-90426579D01*
X149025640Y-90286545D01*
X149025640Y-89798010D01*
X148930390Y-89702760D01*
X148136640Y-89702760D01*
X147882640Y-89702760D01*
X146866640Y-89702760D01*
X146612640Y-89702760D01*
X145596640Y-89702760D01*
X145342640Y-89702760D01*
X144548890Y-89702760D01*
X144453640Y-89798010D01*
X103403400Y-89798010D01*
X103403400Y-88849200D01*
X103339512Y-88528010D01*
X144453640Y-88528010D01*
X144453640Y-89353510D01*
X144548890Y-89448760D01*
X145342640Y-89448760D01*
X145342640Y-88432760D01*
X145596640Y-88432760D01*
X145596640Y-89448760D01*
X146612640Y-89448760D01*
X146612640Y-88432760D01*
X146866640Y-88432760D01*
X146866640Y-89448760D01*
X147882640Y-89448760D01*
X147882640Y-88432760D01*
X148136640Y-88432760D01*
X148136640Y-89448760D01*
X148930390Y-89448760D01*
X149025640Y-89353510D01*
X149025640Y-88528010D01*
X148930390Y-88432760D01*
X148136640Y-88432760D01*
X147882640Y-88432760D01*
X146866640Y-88432760D01*
X146612640Y-88432760D01*
X145596640Y-88432760D01*
X145342640Y-88432760D01*
X144548890Y-88432760D01*
X144453640Y-88528010D01*
X103339512Y-88528010D01*
X103326062Y-88460394D01*
X103105820Y-88130780D01*
X102776206Y-87910538D01*
X102387400Y-87833200D01*
X101998594Y-87910538D01*
X101668980Y-88130780D01*
X101448738Y-88460394D01*
X101371400Y-88849200D01*
X101371400Y-91032211D01*
X101320601Y-91287600D01*
X95293938Y-91287600D01*
X95294124Y-91075565D01*
X95045734Y-90474417D01*
X94586203Y-90014082D01*
X93985488Y-89764644D01*
X93335045Y-89764076D01*
X92733897Y-90012466D01*
X92273562Y-90471997D01*
X92024124Y-91072712D01*
X92023556Y-91723155D01*
X88293558Y-91723155D01*
X88294124Y-91075565D01*
X88045734Y-90474417D01*
X87586203Y-90014082D01*
X86985488Y-89764644D01*
X86335045Y-89764076D01*
X85733897Y-90012466D01*
X85273562Y-90471997D01*
X85024124Y-91072712D01*
X85023556Y-91723155D01*
X80545200Y-91723155D01*
X80545200Y-87594975D01*
X144453640Y-87594975D01*
X144453640Y-88083510D01*
X144548890Y-88178760D01*
X145342640Y-88178760D01*
X145342640Y-87385010D01*
X145596640Y-87385010D01*
X145596640Y-88178760D01*
X146612640Y-88178760D01*
X146612640Y-87385010D01*
X146866640Y-87385010D01*
X146866640Y-88178760D01*
X147882640Y-88178760D01*
X147882640Y-87385010D01*
X148136640Y-87385010D01*
X148136640Y-88178760D01*
X148930390Y-88178760D01*
X149025640Y-88083510D01*
X149025640Y-87594975D01*
X148967636Y-87454941D01*
X148860460Y-87347764D01*
X148720426Y-87289760D01*
X148231890Y-87289760D01*
X148136640Y-87385010D01*
X147882640Y-87385010D01*
X147787390Y-87289760D01*
X146961890Y-87289760D01*
X146866640Y-87385010D01*
X146612640Y-87385010D01*
X146517390Y-87289760D01*
X145691890Y-87289760D01*
X145596640Y-87385010D01*
X145342640Y-87385010D01*
X145247390Y-87289760D01*
X144758854Y-87289760D01*
X144618820Y-87347764D01*
X144511644Y-87454941D01*
X144453640Y-87594975D01*
X80545200Y-87594975D01*
X80545200Y-85013800D01*
X81554320Y-85013800D01*
X81631658Y-85402606D01*
X81851900Y-85732220D01*
X82181514Y-85952462D01*
X82570320Y-86029800D01*
X85945896Y-86029800D01*
X86270196Y-85965293D01*
X86334703Y-85952462D01*
X86637108Y-85750400D01*
X86649560Y-85750400D01*
X87038366Y-85673062D01*
X87367980Y-85452820D01*
X87588222Y-85123206D01*
X87665560Y-84734400D01*
X87630194Y-84556600D01*
X88646000Y-84556600D01*
X88713671Y-84896806D01*
X88906382Y-85185218D01*
X89194794Y-85377929D01*
X89535000Y-85445600D01*
X89547352Y-85445600D01*
X89611200Y-85458300D01*
X89951406Y-85390630D01*
X90239818Y-85197918D01*
X90432530Y-84909506D01*
X90500200Y-84569300D01*
X90432530Y-84229095D01*
X90239818Y-83940682D01*
X90227118Y-83927982D01*
X89938706Y-83735271D01*
X89598500Y-83667600D01*
X89535000Y-83667600D01*
X89194794Y-83735271D01*
X88906382Y-83927982D01*
X88713671Y-84216394D01*
X88646000Y-84556600D01*
X87630194Y-84556600D01*
X87588222Y-84345594D01*
X87367980Y-84015980D01*
X87038366Y-83795738D01*
X86649560Y-83718400D01*
X86225296Y-83718400D01*
X85836490Y-83795738D01*
X85836488Y-83795739D01*
X85836489Y-83795739D01*
X85534083Y-83997800D01*
X82570320Y-83997800D01*
X82181514Y-84075138D01*
X81851900Y-84295380D01*
X81631658Y-84624994D01*
X81554320Y-85013800D01*
X80545200Y-85013800D01*
X80545200Y-82407240D01*
X82772751Y-82407240D01*
X82896995Y-82707224D01*
X83214184Y-83067912D01*
X83645258Y-83279761D01*
X83835240Y-83219453D01*
X83835240Y-82217260D01*
X82833613Y-82217260D01*
X82772751Y-82407240D01*
X80545200Y-82407240D01*
X80545200Y-81773280D01*
X82772751Y-81773280D01*
X82833613Y-81963260D01*
X83835240Y-81963260D01*
X83835240Y-80961067D01*
X83645258Y-80900759D01*
X83214184Y-81112608D01*
X82896995Y-81473296D01*
X82772751Y-81773280D01*
X80545200Y-81773280D01*
X80545200Y-79867240D01*
X82772751Y-79867240D01*
X82896995Y-80167224D01*
X83214184Y-80527912D01*
X83645258Y-80739761D01*
X83835240Y-80679453D01*
X83835240Y-79677260D01*
X82833613Y-79677260D01*
X82772751Y-79867240D01*
X80545200Y-79867240D01*
X80545200Y-79233280D01*
X82772751Y-79233280D01*
X82833613Y-79423260D01*
X83835240Y-79423260D01*
X83835240Y-78421067D01*
X83645258Y-78360759D01*
X83214184Y-78572608D01*
X82896995Y-78933296D01*
X82772751Y-79233280D01*
X80545200Y-79233280D01*
X80545200Y-77327240D01*
X82772751Y-77327240D01*
X82896995Y-77627224D01*
X83214184Y-77987912D01*
X83645258Y-78199761D01*
X83835240Y-78139453D01*
X83835240Y-77137260D01*
X82833613Y-77137260D01*
X82772751Y-77327240D01*
X80545200Y-77327240D01*
X80545200Y-76693280D01*
X82772751Y-76693280D01*
X82833613Y-76883260D01*
X83835240Y-76883260D01*
X83835240Y-75881067D01*
X83645258Y-75820759D01*
X83214184Y-76032608D01*
X82896995Y-76393296D01*
X82772751Y-76693280D01*
X80545200Y-76693280D01*
X80545200Y-74787240D01*
X82772751Y-74787240D01*
X82896995Y-75087224D01*
X83214184Y-75447912D01*
X83645258Y-75659761D01*
X83835240Y-75599453D01*
X83835240Y-74597260D01*
X82833613Y-74597260D01*
X82772751Y-74787240D01*
X80545200Y-74787240D01*
X80545200Y-74153280D01*
X82772751Y-74153280D01*
X82833613Y-74343260D01*
X83835240Y-74343260D01*
X83835240Y-73341067D01*
X83645258Y-73280759D01*
X83214184Y-73492608D01*
X82896995Y-73853296D01*
X82772751Y-74153280D01*
X80545200Y-74153280D01*
X80545200Y-72247240D01*
X82772751Y-72247240D01*
X82896995Y-72547224D01*
X83214184Y-72907912D01*
X83645258Y-73119761D01*
X83835240Y-73059453D01*
X83835240Y-72057260D01*
X82833613Y-72057260D01*
X82772751Y-72247240D01*
X80545200Y-72247240D01*
X80545200Y-71613280D01*
X82772751Y-71613280D01*
X82833613Y-71803260D01*
X83835240Y-71803260D01*
X83835240Y-70801067D01*
X83645258Y-70740759D01*
X83214184Y-70952608D01*
X82896995Y-71313296D01*
X82772751Y-71613280D01*
X80545200Y-71613280D01*
X80545200Y-69612510D01*
X82731240Y-69612510D01*
X82731240Y-70316045D01*
X82789244Y-70456079D01*
X82896420Y-70563256D01*
X83036454Y-70621260D01*
X83739990Y-70621260D01*
X83835240Y-70526010D01*
X83835240Y-69517260D01*
X82826490Y-69517260D01*
X82731240Y-69612510D01*
X80545200Y-69612510D01*
X80545200Y-68464475D01*
X82731240Y-68464475D01*
X82731240Y-69168010D01*
X82826490Y-69263260D01*
X83835240Y-69263260D01*
X83835240Y-68254510D01*
X84089240Y-68254510D01*
X84089240Y-69263260D01*
X84109240Y-69263260D01*
X84109240Y-69517260D01*
X84089240Y-69517260D01*
X84089240Y-70526010D01*
X84184490Y-70621260D01*
X84888026Y-70621260D01*
X85028060Y-70563256D01*
X85135236Y-70456079D01*
X85193240Y-70316045D01*
X85193240Y-70096314D01*
X85423093Y-70440314D01*
X85752266Y-70660260D01*
X85423093Y-70880206D01*
X85101186Y-71361975D01*
X85083815Y-71449304D01*
X85027485Y-71313296D01*
X84710296Y-70952608D01*
X84279222Y-70740759D01*
X84089240Y-70801067D01*
X84089240Y-71803260D01*
X84109240Y-71803260D01*
X84109240Y-72057260D01*
X84089240Y-72057260D01*
X84089240Y-73059453D01*
X84279222Y-73119761D01*
X84710296Y-72907912D01*
X85027485Y-72547224D01*
X85083815Y-72411216D01*
X85101186Y-72498545D01*
X85423093Y-72980314D01*
X85752266Y-73200260D01*
X85423093Y-73420206D01*
X85101186Y-73901975D01*
X85083815Y-73989304D01*
X85027485Y-73853296D01*
X84710296Y-73492608D01*
X84279222Y-73280759D01*
X84089240Y-73341067D01*
X84089240Y-74343260D01*
X84109240Y-74343260D01*
X84109240Y-74597260D01*
X84089240Y-74597260D01*
X84089240Y-75599453D01*
X84279222Y-75659761D01*
X84710296Y-75447912D01*
X85027485Y-75087224D01*
X85083815Y-74951216D01*
X85101186Y-75038545D01*
X85423093Y-75520314D01*
X85752266Y-75740260D01*
X85423093Y-75960206D01*
X85101186Y-76441975D01*
X85083815Y-76529304D01*
X85027485Y-76393296D01*
X84710296Y-76032608D01*
X84279222Y-75820759D01*
X84089240Y-75881067D01*
X84089240Y-76883260D01*
X84109240Y-76883260D01*
X84109240Y-77137260D01*
X84089240Y-77137260D01*
X84089240Y-78139453D01*
X84279222Y-78199761D01*
X84710296Y-77987912D01*
X85027485Y-77627224D01*
X85083815Y-77491216D01*
X85101186Y-77578545D01*
X85423093Y-78060314D01*
X85752266Y-78280260D01*
X85423093Y-78500206D01*
X85101186Y-78981975D01*
X85083815Y-79069304D01*
X85027485Y-78933296D01*
X84710296Y-78572608D01*
X84279222Y-78360759D01*
X84089240Y-78421067D01*
X84089240Y-79423260D01*
X84109240Y-79423260D01*
X84109240Y-79677260D01*
X84089240Y-79677260D01*
X84089240Y-80679453D01*
X84279222Y-80739761D01*
X84710296Y-80527912D01*
X85027485Y-80167224D01*
X85083815Y-80031216D01*
X85101186Y-80118545D01*
X85423093Y-80600314D01*
X85752266Y-80820260D01*
X85423093Y-81040206D01*
X85101186Y-81521975D01*
X85083815Y-81609304D01*
X85027485Y-81473296D01*
X84710296Y-81112608D01*
X84279222Y-80900759D01*
X84089240Y-80961067D01*
X84089240Y-81963260D01*
X84109240Y-81963260D01*
X84109240Y-82217260D01*
X84089240Y-82217260D01*
X84089240Y-83219453D01*
X84279222Y-83279761D01*
X84710296Y-83067912D01*
X85027485Y-82707224D01*
X85083815Y-82571216D01*
X85101186Y-82658545D01*
X85423093Y-83140314D01*
X85904862Y-83462221D01*
X86473147Y-83575260D01*
X86531333Y-83575260D01*
X87099618Y-83462221D01*
X87581387Y-83140314D01*
X87903294Y-82658545D01*
X88016333Y-82090260D01*
X87903294Y-81521975D01*
X87581387Y-81040206D01*
X87252214Y-80820260D01*
X87581387Y-80600314D01*
X87903294Y-80118545D01*
X88016333Y-79550260D01*
X87903294Y-78981975D01*
X87581387Y-78500206D01*
X87252214Y-78280260D01*
X87581387Y-78060314D01*
X87903294Y-77578545D01*
X87972985Y-77228182D01*
X107217699Y-77228182D01*
X107429548Y-77659256D01*
X107790236Y-77976445D01*
X108090220Y-78100689D01*
X108280200Y-78039827D01*
X108280200Y-77038200D01*
X107278007Y-77038200D01*
X107217699Y-77228182D01*
X87972985Y-77228182D01*
X88016333Y-77010260D01*
X87933578Y-76594218D01*
X107217699Y-76594218D01*
X107278007Y-76784200D01*
X108280200Y-76784200D01*
X108280200Y-75782573D01*
X108534200Y-75782573D01*
X108534200Y-76784200D01*
X108554200Y-76784200D01*
X108554200Y-77038200D01*
X108534200Y-77038200D01*
X108534200Y-78039827D01*
X108724180Y-78100689D01*
X109024164Y-77976445D01*
X109384852Y-77659256D01*
X109541719Y-77340061D01*
X109575239Y-77508578D01*
X109897146Y-77990347D01*
X110378915Y-78312254D01*
X110947200Y-78425293D01*
X111515485Y-78312254D01*
X111997254Y-77990347D01*
X112217200Y-77661174D01*
X112437146Y-77990347D01*
X112918915Y-78312254D01*
X113487200Y-78425293D01*
X114055485Y-78312254D01*
X114537254Y-77990347D01*
X114565050Y-77948748D01*
X114574038Y-77996517D01*
X114713110Y-78212641D01*
X114925310Y-78357631D01*
X115177200Y-78408640D01*
X116877200Y-78408640D01*
X117112517Y-78364362D01*
X117328641Y-78225290D01*
X117473631Y-78013090D01*
X117524640Y-77761200D01*
X117524640Y-76061200D01*
X117480362Y-75825883D01*
X117341290Y-75609759D01*
X117129090Y-75464769D01*
X116877200Y-75413760D01*
X115177200Y-75413760D01*
X114941883Y-75458038D01*
X114725759Y-75597110D01*
X114580769Y-75809310D01*
X114567114Y-75876741D01*
X114537254Y-75832053D01*
X114055485Y-75510146D01*
X113487200Y-75397107D01*
X112918915Y-75510146D01*
X112437146Y-75832053D01*
X112217200Y-76161226D01*
X111997254Y-75832053D01*
X111515485Y-75510146D01*
X110947200Y-75397107D01*
X110378915Y-75510146D01*
X109897146Y-75832053D01*
X109575239Y-76313822D01*
X109541719Y-76482339D01*
X109384852Y-76163144D01*
X109024164Y-75845955D01*
X108724180Y-75721711D01*
X108534200Y-75782573D01*
X108280200Y-75782573D01*
X108090220Y-75721711D01*
X107790236Y-75845955D01*
X107429548Y-76163144D01*
X107217699Y-76594218D01*
X87933578Y-76594218D01*
X87903294Y-76441975D01*
X87581387Y-75960206D01*
X87252214Y-75740260D01*
X87581387Y-75520314D01*
X87903294Y-75038545D01*
X87989100Y-74607167D01*
X103585838Y-74607167D01*
X103727883Y-74950943D01*
X103990673Y-75214192D01*
X104334201Y-75356838D01*
X104706167Y-75357162D01*
X104710997Y-75355166D01*
X105123545Y-75767714D01*
X105123547Y-75767717D01*
X105240639Y-75845955D01*
X105391359Y-75946663D01*
X105707264Y-76009501D01*
X105707269Y-76009500D01*
X106229887Y-76009500D01*
X106493201Y-76118838D01*
X106865167Y-76119162D01*
X107208943Y-75977117D01*
X107472192Y-75714327D01*
X107614838Y-75370799D01*
X107615162Y-74998833D01*
X107473117Y-74655057D01*
X107210327Y-74391808D01*
X106866799Y-74249162D01*
X106494833Y-74248838D01*
X106229430Y-74358500D01*
X106049197Y-74358500D01*
X105528981Y-73838283D01*
X105261170Y-73659337D01*
X104994880Y-73606369D01*
X104707799Y-73487162D01*
X104335833Y-73486838D01*
X103992057Y-73628883D01*
X103728808Y-73891673D01*
X103586162Y-74235201D01*
X103585838Y-74607167D01*
X87989100Y-74607167D01*
X88016333Y-74470260D01*
X87903294Y-73901975D01*
X87581387Y-73420206D01*
X87252214Y-73200260D01*
X87581387Y-72980314D01*
X87903294Y-72498545D01*
X88016333Y-71930260D01*
X87903294Y-71361975D01*
X87876537Y-71321930D01*
X145130520Y-71321930D01*
X145130520Y-71810465D01*
X145188524Y-71950499D01*
X145295700Y-72057676D01*
X145435734Y-72115680D01*
X145924270Y-72115680D01*
X146019520Y-72020430D01*
X146019520Y-71226680D01*
X146273520Y-71226680D01*
X146273520Y-72020430D01*
X146368770Y-72115680D01*
X147194270Y-72115680D01*
X147289520Y-72020430D01*
X147289520Y-71226680D01*
X147543520Y-71226680D01*
X147543520Y-72020430D01*
X147638770Y-72115680D01*
X148464270Y-72115680D01*
X148559520Y-72020430D01*
X148559520Y-71226680D01*
X148813520Y-71226680D01*
X148813520Y-72020430D01*
X148908770Y-72115680D01*
X149397306Y-72115680D01*
X149537340Y-72057676D01*
X149644516Y-71950499D01*
X149702520Y-71810465D01*
X149702520Y-71321930D01*
X149607270Y-71226680D01*
X148813520Y-71226680D01*
X148559520Y-71226680D01*
X147543520Y-71226680D01*
X147289520Y-71226680D01*
X146273520Y-71226680D01*
X146019520Y-71226680D01*
X145225770Y-71226680D01*
X145130520Y-71321930D01*
X87876537Y-71321930D01*
X87581387Y-70880206D01*
X87252214Y-70660260D01*
X87581387Y-70440314D01*
X87840896Y-70051930D01*
X145130520Y-70051930D01*
X145130520Y-70877430D01*
X145225770Y-70972680D01*
X146019520Y-70972680D01*
X146019520Y-69956680D01*
X146273520Y-69956680D01*
X146273520Y-70972680D01*
X147289520Y-70972680D01*
X147289520Y-69956680D01*
X147543520Y-69956680D01*
X147543520Y-70972680D01*
X148559520Y-70972680D01*
X148559520Y-69956680D01*
X148813520Y-69956680D01*
X148813520Y-70972680D01*
X149607270Y-70972680D01*
X149702520Y-70877430D01*
X149702520Y-70051930D01*
X149607270Y-69956680D01*
X148813520Y-69956680D01*
X148559520Y-69956680D01*
X147543520Y-69956680D01*
X147289520Y-69956680D01*
X146273520Y-69956680D01*
X146019520Y-69956680D01*
X145225770Y-69956680D01*
X145130520Y-70051930D01*
X87840896Y-70051930D01*
X87903294Y-69958545D01*
X88016333Y-69390260D01*
X87962356Y-69118895D01*
X145130520Y-69118895D01*
X145130520Y-69607430D01*
X145225770Y-69702680D01*
X146019520Y-69702680D01*
X146019520Y-68908930D01*
X146273520Y-68908930D01*
X146273520Y-69702680D01*
X147289520Y-69702680D01*
X147289520Y-68908930D01*
X147543520Y-68908930D01*
X147543520Y-69702680D01*
X148559520Y-69702680D01*
X148559520Y-68908930D01*
X148813520Y-68908930D01*
X148813520Y-69702680D01*
X149607270Y-69702680D01*
X149702520Y-69607430D01*
X149702520Y-69461203D01*
X166995546Y-69461203D01*
X166995546Y-69595907D01*
X167340993Y-69941354D01*
X167481027Y-69999358D01*
X167632598Y-69999357D01*
X167772632Y-69941353D01*
X168118078Y-69595907D01*
X168118078Y-69461203D01*
X167556812Y-68899937D01*
X166995546Y-69461203D01*
X149702520Y-69461203D01*
X149702520Y-69118895D01*
X149644516Y-68978861D01*
X149537340Y-68871684D01*
X149397306Y-68813680D01*
X148908770Y-68813680D01*
X148813520Y-68908930D01*
X148559520Y-68908930D01*
X148464270Y-68813680D01*
X147638770Y-68813680D01*
X147543520Y-68908930D01*
X147289520Y-68908930D01*
X147194270Y-68813680D01*
X146368770Y-68813680D01*
X146273520Y-68908930D01*
X146019520Y-68908930D01*
X145924270Y-68813680D01*
X145435734Y-68813680D01*
X145295700Y-68871684D01*
X145188524Y-68978861D01*
X145130520Y-69118895D01*
X87962356Y-69118895D01*
X87903294Y-68821975D01*
X87886017Y-68796117D01*
X166277786Y-68796117D01*
X166335790Y-68936151D01*
X166681237Y-69281598D01*
X166815941Y-69281598D01*
X167377207Y-68720332D01*
X167736417Y-68720332D01*
X168297683Y-69281598D01*
X168432387Y-69281598D01*
X168777833Y-68936152D01*
X168835837Y-68796118D01*
X168835838Y-68644547D01*
X168777834Y-68504513D01*
X168432387Y-68159066D01*
X168297683Y-68159066D01*
X167736417Y-68720332D01*
X167377207Y-68720332D01*
X166815941Y-68159066D01*
X166681237Y-68159066D01*
X166335791Y-68504512D01*
X166277787Y-68644546D01*
X166277786Y-68796117D01*
X87886017Y-68796117D01*
X87581387Y-68340206D01*
X87099618Y-68018299D01*
X86531333Y-67905260D01*
X86473147Y-67905260D01*
X85904862Y-68018299D01*
X85423093Y-68340206D01*
X85193240Y-68684206D01*
X85193240Y-68464475D01*
X85135236Y-68324441D01*
X85028060Y-68217264D01*
X84888026Y-68159260D01*
X84184490Y-68159260D01*
X84089240Y-68254510D01*
X83835240Y-68254510D01*
X83739990Y-68159260D01*
X83036454Y-68159260D01*
X82896420Y-68217264D01*
X82789244Y-68324441D01*
X82731240Y-68464475D01*
X80545200Y-68464475D01*
X80545200Y-67844757D01*
X166995546Y-67844757D01*
X166995546Y-67979461D01*
X167556812Y-68540727D01*
X168118078Y-67979461D01*
X168118078Y-67975756D01*
X168185724Y-67947736D01*
X168531170Y-67602290D01*
X168531170Y-67467586D01*
X167969904Y-66906320D01*
X167408638Y-67467586D01*
X167408638Y-67471291D01*
X167340992Y-67499311D01*
X166995546Y-67844757D01*
X80545200Y-67844757D01*
X80545200Y-66802500D01*
X166690878Y-66802500D01*
X166748882Y-66942534D01*
X167094329Y-67287981D01*
X167229033Y-67287981D01*
X167790299Y-66726715D01*
X168149509Y-66726715D01*
X168710775Y-67287981D01*
X168845479Y-67287981D01*
X169190925Y-66942535D01*
X169248929Y-66802501D01*
X169248930Y-66650930D01*
X169190926Y-66510896D01*
X168845479Y-66165449D01*
X168710775Y-66165449D01*
X168149509Y-66726715D01*
X167790299Y-66726715D01*
X167229033Y-66165449D01*
X167094329Y-66165449D01*
X166748883Y-66510895D01*
X166690879Y-66650929D01*
X166690878Y-66802500D01*
X80545200Y-66802500D01*
X80545200Y-65231010D01*
X104561640Y-65231010D01*
X104561640Y-65719545D01*
X104619644Y-65859579D01*
X104726820Y-65966756D01*
X104866854Y-66024760D01*
X105355390Y-66024760D01*
X105450640Y-65929510D01*
X105450640Y-65135760D01*
X105704640Y-65135760D01*
X105704640Y-65929510D01*
X105799890Y-66024760D01*
X106625390Y-66024760D01*
X106720640Y-65929510D01*
X106720640Y-65135760D01*
X106974640Y-65135760D01*
X106974640Y-65929510D01*
X107069890Y-66024760D01*
X107895390Y-66024760D01*
X107990640Y-65929510D01*
X107990640Y-65135760D01*
X108244640Y-65135760D01*
X108244640Y-65929510D01*
X108339890Y-66024760D01*
X108828426Y-66024760D01*
X108968460Y-65966756D01*
X109075636Y-65859579D01*
X109133640Y-65719545D01*
X109133640Y-65317370D01*
X121352760Y-65317370D01*
X121352760Y-65595905D01*
X121410764Y-65735939D01*
X121517940Y-65843116D01*
X121657974Y-65901120D01*
X121936510Y-65901120D01*
X122031760Y-65805870D01*
X122031760Y-65222120D01*
X122285760Y-65222120D01*
X122285760Y-65805870D01*
X122381010Y-65901120D01*
X122659546Y-65901120D01*
X122793760Y-65845527D01*
X122927974Y-65901120D01*
X123206510Y-65901120D01*
X123301760Y-65805870D01*
X123301760Y-65222120D01*
X123555760Y-65222120D01*
X123555760Y-65805870D01*
X123651010Y-65901120D01*
X123929546Y-65901120D01*
X124063760Y-65845527D01*
X124197974Y-65901120D01*
X124476510Y-65901120D01*
X124571760Y-65805870D01*
X124571760Y-65222120D01*
X124825760Y-65222120D01*
X124825760Y-65805870D01*
X124921010Y-65901120D01*
X125199546Y-65901120D01*
X125333760Y-65845527D01*
X125467974Y-65901120D01*
X125746510Y-65901120D01*
X125841760Y-65805870D01*
X125841760Y-65222120D01*
X126095760Y-65222120D01*
X126095760Y-65805870D01*
X126191010Y-65901120D01*
X126469546Y-65901120D01*
X126603760Y-65845527D01*
X126737974Y-65901120D01*
X127016510Y-65901120D01*
X127111760Y-65805870D01*
X127111760Y-65222120D01*
X127365760Y-65222120D01*
X127365760Y-65805870D01*
X127461010Y-65901120D01*
X127739546Y-65901120D01*
X127879580Y-65843116D01*
X127986756Y-65735939D01*
X128044760Y-65595905D01*
X128044760Y-65317370D01*
X127953320Y-65225930D01*
X145155920Y-65225930D01*
X145155920Y-65714465D01*
X145213924Y-65854499D01*
X145321100Y-65961676D01*
X145461134Y-66019680D01*
X145949670Y-66019680D01*
X146044920Y-65924430D01*
X146044920Y-65130680D01*
X146298920Y-65130680D01*
X146298920Y-65924430D01*
X146394170Y-66019680D01*
X147219670Y-66019680D01*
X147314920Y-65924430D01*
X147314920Y-65130680D01*
X147568920Y-65130680D01*
X147568920Y-65924430D01*
X147664170Y-66019680D01*
X148489670Y-66019680D01*
X148584920Y-65924430D01*
X148584920Y-65130680D01*
X148838920Y-65130680D01*
X148838920Y-65924430D01*
X148934170Y-66019680D01*
X149422706Y-66019680D01*
X149562740Y-65961676D01*
X149669916Y-65854499D01*
X149693625Y-65797259D01*
X163331602Y-65797259D01*
X163331602Y-65931963D01*
X163677049Y-66277410D01*
X163817083Y-66335414D01*
X163968654Y-66335413D01*
X164108688Y-66277409D01*
X164454134Y-65931963D01*
X164454134Y-65797259D01*
X163892868Y-65235993D01*
X163331602Y-65797259D01*
X149693625Y-65797259D01*
X149727920Y-65714465D01*
X149727920Y-65225930D01*
X149634163Y-65132173D01*
X162613842Y-65132173D01*
X162671846Y-65272207D01*
X163017293Y-65617654D01*
X163151997Y-65617654D01*
X163713263Y-65056388D01*
X164072473Y-65056388D01*
X164633739Y-65617654D01*
X164768443Y-65617654D01*
X164983970Y-65402127D01*
X165343179Y-65402127D01*
X165343179Y-65536831D01*
X165688626Y-65882278D01*
X165828660Y-65940282D01*
X165980231Y-65940281D01*
X166120265Y-65882277D01*
X166151402Y-65851140D01*
X167408638Y-65851140D01*
X167408638Y-65985844D01*
X167969904Y-66547110D01*
X168531170Y-65985844D01*
X168531170Y-65851140D01*
X168185723Y-65505693D01*
X168045689Y-65447689D01*
X167894118Y-65447690D01*
X167754084Y-65505694D01*
X167408638Y-65851140D01*
X166151402Y-65851140D01*
X166465711Y-65536831D01*
X166465711Y-65402127D01*
X165904445Y-64840861D01*
X165343179Y-65402127D01*
X164983970Y-65402127D01*
X165113889Y-65272208D01*
X165134470Y-65222522D01*
X165163574Y-65222522D01*
X165724840Y-64661256D01*
X166084050Y-64661256D01*
X166645316Y-65222522D01*
X166780020Y-65222522D01*
X167125466Y-64877076D01*
X167183470Y-64737042D01*
X167183471Y-64585471D01*
X167125467Y-64445437D01*
X166780020Y-64099990D01*
X166645316Y-64099990D01*
X166084050Y-64661256D01*
X165724840Y-64661256D01*
X165163574Y-64099990D01*
X165028870Y-64099990D01*
X164683424Y-64445436D01*
X164662843Y-64495122D01*
X164633739Y-64495122D01*
X164072473Y-65056388D01*
X163713263Y-65056388D01*
X163151997Y-64495122D01*
X163017293Y-64495122D01*
X162671847Y-64840568D01*
X162613843Y-64980602D01*
X162613842Y-65132173D01*
X149634163Y-65132173D01*
X149632670Y-65130680D01*
X148838920Y-65130680D01*
X148584920Y-65130680D01*
X147568920Y-65130680D01*
X147314920Y-65130680D01*
X146298920Y-65130680D01*
X146044920Y-65130680D01*
X145251170Y-65130680D01*
X145155920Y-65225930D01*
X127953320Y-65225930D01*
X127949510Y-65222120D01*
X127365760Y-65222120D01*
X127111760Y-65222120D01*
X126095760Y-65222120D01*
X125841760Y-65222120D01*
X124825760Y-65222120D01*
X124571760Y-65222120D01*
X123555760Y-65222120D01*
X123301760Y-65222120D01*
X122285760Y-65222120D01*
X122031760Y-65222120D01*
X121448010Y-65222120D01*
X121352760Y-65317370D01*
X109133640Y-65317370D01*
X109133640Y-65231010D01*
X109038390Y-65135760D01*
X108244640Y-65135760D01*
X107990640Y-65135760D01*
X106974640Y-65135760D01*
X106720640Y-65135760D01*
X105704640Y-65135760D01*
X105450640Y-65135760D01*
X104656890Y-65135760D01*
X104561640Y-65231010D01*
X80545200Y-65231010D01*
X80545200Y-63961010D01*
X104561640Y-63961010D01*
X104561640Y-64786510D01*
X104656890Y-64881760D01*
X105450640Y-64881760D01*
X105450640Y-63865760D01*
X105704640Y-63865760D01*
X105704640Y-64881760D01*
X106720640Y-64881760D01*
X106720640Y-63865760D01*
X106974640Y-63865760D01*
X106974640Y-64881760D01*
X107990640Y-64881760D01*
X107990640Y-63865760D01*
X108244640Y-63865760D01*
X108244640Y-64881760D01*
X109038390Y-64881760D01*
X109133640Y-64786510D01*
X109133640Y-64047370D01*
X121352760Y-64047370D01*
X121352760Y-64325905D01*
X121408354Y-64460120D01*
X121352760Y-64594335D01*
X121352760Y-64872870D01*
X121448010Y-64968120D01*
X122031760Y-64968120D01*
X122031760Y-63952120D01*
X122285760Y-63952120D01*
X122285760Y-64968120D01*
X123301760Y-64968120D01*
X123301760Y-63952120D01*
X123555760Y-63952120D01*
X123555760Y-64968120D01*
X124571760Y-64968120D01*
X124571760Y-63952120D01*
X124825760Y-63952120D01*
X124825760Y-64968120D01*
X125841760Y-64968120D01*
X125841760Y-63952120D01*
X126095760Y-63952120D01*
X126095760Y-64968120D01*
X127111760Y-64968120D01*
X127111760Y-63952120D01*
X127365760Y-63952120D01*
X127365760Y-64968120D01*
X127949510Y-64968120D01*
X128044760Y-64872870D01*
X128044760Y-64594335D01*
X127989166Y-64460120D01*
X128044760Y-64325905D01*
X128044760Y-64047370D01*
X127953320Y-63955930D01*
X145155920Y-63955930D01*
X145155920Y-64781430D01*
X145251170Y-64876680D01*
X146044920Y-64876680D01*
X146044920Y-63860680D01*
X146298920Y-63860680D01*
X146298920Y-64876680D01*
X147314920Y-64876680D01*
X147314920Y-63860680D01*
X147568920Y-63860680D01*
X147568920Y-64876680D01*
X148584920Y-64876680D01*
X148584920Y-63860680D01*
X148838920Y-63860680D01*
X148838920Y-64876680D01*
X149632670Y-64876680D01*
X149727920Y-64781430D01*
X149727920Y-64180813D01*
X163331602Y-64180813D01*
X163331602Y-64315517D01*
X163892868Y-64876783D01*
X164454134Y-64315517D01*
X164454134Y-64180813D01*
X164108687Y-63835366D01*
X163988737Y-63785681D01*
X165343179Y-63785681D01*
X165343179Y-63920385D01*
X165904445Y-64481651D01*
X166465711Y-63920385D01*
X166465711Y-63785681D01*
X166120264Y-63440234D01*
X165980230Y-63382230D01*
X165828659Y-63382231D01*
X165688625Y-63440235D01*
X165343179Y-63785681D01*
X163988737Y-63785681D01*
X163968653Y-63777362D01*
X163817082Y-63777363D01*
X163677048Y-63835367D01*
X163331602Y-64180813D01*
X149727920Y-64180813D01*
X149727920Y-63955930D01*
X149632670Y-63860680D01*
X148838920Y-63860680D01*
X148584920Y-63860680D01*
X147568920Y-63860680D01*
X147314920Y-63860680D01*
X146298920Y-63860680D01*
X146044920Y-63860680D01*
X145251170Y-63860680D01*
X145155920Y-63955930D01*
X127953320Y-63955930D01*
X127949510Y-63952120D01*
X127365760Y-63952120D01*
X127111760Y-63952120D01*
X126095760Y-63952120D01*
X125841760Y-63952120D01*
X124825760Y-63952120D01*
X124571760Y-63952120D01*
X123555760Y-63952120D01*
X123301760Y-63952120D01*
X122285760Y-63952120D01*
X122031760Y-63952120D01*
X121448010Y-63952120D01*
X121352760Y-64047370D01*
X109133640Y-64047370D01*
X109133640Y-63961010D01*
X109038390Y-63865760D01*
X108244640Y-63865760D01*
X107990640Y-63865760D01*
X106974640Y-63865760D01*
X106720640Y-63865760D01*
X105704640Y-63865760D01*
X105450640Y-63865760D01*
X104656890Y-63865760D01*
X104561640Y-63961010D01*
X80545200Y-63961010D01*
X80545200Y-63027975D01*
X104561640Y-63027975D01*
X104561640Y-63516510D01*
X104656890Y-63611760D01*
X105450640Y-63611760D01*
X105450640Y-62818010D01*
X105704640Y-62818010D01*
X105704640Y-63611760D01*
X106720640Y-63611760D01*
X106720640Y-62818010D01*
X106974640Y-62818010D01*
X106974640Y-63611760D01*
X107990640Y-63611760D01*
X107990640Y-62818010D01*
X108244640Y-62818010D01*
X108244640Y-63611760D01*
X109038390Y-63611760D01*
X109133640Y-63516510D01*
X109133640Y-63324335D01*
X121352760Y-63324335D01*
X121352760Y-63602870D01*
X121448010Y-63698120D01*
X122031760Y-63698120D01*
X122031760Y-63114370D01*
X122285760Y-63114370D01*
X122285760Y-63698120D01*
X123301760Y-63698120D01*
X123301760Y-63114370D01*
X123555760Y-63114370D01*
X123555760Y-63698120D01*
X124571760Y-63698120D01*
X124571760Y-63114370D01*
X124825760Y-63114370D01*
X124825760Y-63698120D01*
X125841760Y-63698120D01*
X125841760Y-63114370D01*
X126095760Y-63114370D01*
X126095760Y-63698120D01*
X127111760Y-63698120D01*
X127111760Y-63114370D01*
X127365760Y-63114370D01*
X127365760Y-63698120D01*
X127949510Y-63698120D01*
X128044760Y-63602870D01*
X128044760Y-63324335D01*
X127986756Y-63184301D01*
X127879580Y-63077124D01*
X127748660Y-63022895D01*
X145155920Y-63022895D01*
X145155920Y-63511430D01*
X145251170Y-63606680D01*
X146044920Y-63606680D01*
X146044920Y-62812930D01*
X146298920Y-62812930D01*
X146298920Y-63606680D01*
X147314920Y-63606680D01*
X147314920Y-62812930D01*
X147568920Y-62812930D01*
X147568920Y-63606680D01*
X148584920Y-63606680D01*
X148584920Y-62812930D01*
X148838920Y-62812930D01*
X148838920Y-63606680D01*
X149632670Y-63606680D01*
X149727920Y-63511430D01*
X149727920Y-63022895D01*
X149669916Y-62882861D01*
X149562740Y-62775684D01*
X149422706Y-62717680D01*
X148934170Y-62717680D01*
X148838920Y-62812930D01*
X148584920Y-62812930D01*
X148489670Y-62717680D01*
X147664170Y-62717680D01*
X147568920Y-62812930D01*
X147314920Y-62812930D01*
X147219670Y-62717680D01*
X146394170Y-62717680D01*
X146298920Y-62812930D01*
X146044920Y-62812930D01*
X145949670Y-62717680D01*
X145461134Y-62717680D01*
X145321100Y-62775684D01*
X145213924Y-62882861D01*
X145155920Y-63022895D01*
X127748660Y-63022895D01*
X127739546Y-63019120D01*
X127461010Y-63019120D01*
X127365760Y-63114370D01*
X127111760Y-63114370D01*
X127016510Y-63019120D01*
X126737974Y-63019120D01*
X126603760Y-63074713D01*
X126469546Y-63019120D01*
X126191010Y-63019120D01*
X126095760Y-63114370D01*
X125841760Y-63114370D01*
X125746510Y-63019120D01*
X125467974Y-63019120D01*
X125333760Y-63074713D01*
X125199546Y-63019120D01*
X124921010Y-63019120D01*
X124825760Y-63114370D01*
X124571760Y-63114370D01*
X124476510Y-63019120D01*
X124197974Y-63019120D01*
X124063760Y-63074713D01*
X123929546Y-63019120D01*
X123651010Y-63019120D01*
X123555760Y-63114370D01*
X123301760Y-63114370D01*
X123206510Y-63019120D01*
X122927974Y-63019120D01*
X122793760Y-63074713D01*
X122659546Y-63019120D01*
X122381010Y-63019120D01*
X122285760Y-63114370D01*
X122031760Y-63114370D01*
X121936510Y-63019120D01*
X121657974Y-63019120D01*
X121517940Y-63077124D01*
X121410764Y-63184301D01*
X121352760Y-63324335D01*
X109133640Y-63324335D01*
X109133640Y-63027975D01*
X109075636Y-62887941D01*
X108968460Y-62780764D01*
X108828426Y-62722760D01*
X108339890Y-62722760D01*
X108244640Y-62818010D01*
X107990640Y-62818010D01*
X107895390Y-62722760D01*
X107069890Y-62722760D01*
X106974640Y-62818010D01*
X106720640Y-62818010D01*
X106625390Y-62722760D01*
X105799890Y-62722760D01*
X105704640Y-62818010D01*
X105450640Y-62818010D01*
X105355390Y-62722760D01*
X104866854Y-62722760D01*
X104726820Y-62780764D01*
X104619644Y-62887941D01*
X104561640Y-63027975D01*
X80545200Y-63027975D01*
X80545200Y-59135010D01*
X104587040Y-59135010D01*
X104587040Y-59623545D01*
X104645044Y-59763579D01*
X104752220Y-59870756D01*
X104892254Y-59928760D01*
X105380790Y-59928760D01*
X105476040Y-59833510D01*
X105476040Y-59039760D01*
X105730040Y-59039760D01*
X105730040Y-59833510D01*
X105825290Y-59928760D01*
X106650790Y-59928760D01*
X106746040Y-59833510D01*
X106746040Y-59039760D01*
X107000040Y-59039760D01*
X107000040Y-59833510D01*
X107095290Y-59928760D01*
X107920790Y-59928760D01*
X108016040Y-59833510D01*
X108016040Y-59039760D01*
X108270040Y-59039760D01*
X108270040Y-59833510D01*
X108365290Y-59928760D01*
X108853826Y-59928760D01*
X108993860Y-59870756D01*
X109101036Y-59763579D01*
X109159040Y-59623545D01*
X109159040Y-59135010D01*
X109063790Y-59039760D01*
X108270040Y-59039760D01*
X108016040Y-59039760D01*
X107000040Y-59039760D01*
X106746040Y-59039760D01*
X105730040Y-59039760D01*
X105476040Y-59039760D01*
X104682290Y-59039760D01*
X104587040Y-59135010D01*
X80545200Y-59135010D01*
X80545200Y-57865010D01*
X104587040Y-57865010D01*
X104587040Y-58690510D01*
X104682290Y-58785760D01*
X105476040Y-58785760D01*
X105476040Y-57769760D01*
X105730040Y-57769760D01*
X105730040Y-58785760D01*
X106746040Y-58785760D01*
X106746040Y-57769760D01*
X107000040Y-57769760D01*
X107000040Y-58785760D01*
X108016040Y-58785760D01*
X108016040Y-57769760D01*
X108270040Y-57769760D01*
X108270040Y-58785760D01*
X109063790Y-58785760D01*
X109120940Y-58728610D01*
X116398040Y-58728610D01*
X116398040Y-59217145D01*
X116456044Y-59357179D01*
X116563220Y-59464356D01*
X116703254Y-59522360D01*
X117191790Y-59522360D01*
X117287040Y-59427110D01*
X117287040Y-58633360D01*
X117541040Y-58633360D01*
X117541040Y-59427110D01*
X117636290Y-59522360D01*
X118124826Y-59522360D01*
X118264860Y-59464356D01*
X118372036Y-59357179D01*
X118430040Y-59217145D01*
X118430040Y-58728610D01*
X121579640Y-58728610D01*
X121579640Y-59217145D01*
X121637644Y-59357179D01*
X121744820Y-59464356D01*
X121884854Y-59522360D01*
X122373390Y-59522360D01*
X122468640Y-59427110D01*
X122468640Y-58633360D01*
X122722640Y-58633360D01*
X122722640Y-59427110D01*
X122817890Y-59522360D01*
X123306426Y-59522360D01*
X123446460Y-59464356D01*
X123553636Y-59357179D01*
X123611640Y-59217145D01*
X123611640Y-58728610D01*
X123516390Y-58633360D01*
X122722640Y-58633360D01*
X122468640Y-58633360D01*
X121674890Y-58633360D01*
X121579640Y-58728610D01*
X118430040Y-58728610D01*
X118334790Y-58633360D01*
X117541040Y-58633360D01*
X117287040Y-58633360D01*
X116493290Y-58633360D01*
X116398040Y-58728610D01*
X109120940Y-58728610D01*
X109159040Y-58690510D01*
X109159040Y-57865010D01*
X109089605Y-57795575D01*
X116398040Y-57795575D01*
X116398040Y-58284110D01*
X116493290Y-58379360D01*
X117287040Y-58379360D01*
X117287040Y-57585610D01*
X117191790Y-57490360D01*
X116703254Y-57490360D01*
X116563220Y-57548364D01*
X116456044Y-57655541D01*
X116398040Y-57795575D01*
X109089605Y-57795575D01*
X109063790Y-57769760D01*
X108270040Y-57769760D01*
X108016040Y-57769760D01*
X107000040Y-57769760D01*
X106746040Y-57769760D01*
X105730040Y-57769760D01*
X105476040Y-57769760D01*
X104682290Y-57769760D01*
X104587040Y-57865010D01*
X80545200Y-57865010D01*
X80545200Y-56931975D01*
X104587040Y-56931975D01*
X104587040Y-57420510D01*
X104682290Y-57515760D01*
X105476040Y-57515760D01*
X105476040Y-56722010D01*
X105730040Y-56722010D01*
X105730040Y-57515760D01*
X106746040Y-57515760D01*
X106746040Y-56722010D01*
X107000040Y-56722010D01*
X107000040Y-57515760D01*
X108016040Y-57515760D01*
X108016040Y-56722010D01*
X108270040Y-56722010D01*
X108270040Y-57515760D01*
X109063790Y-57515760D01*
X109159040Y-57420510D01*
X109159040Y-57026810D01*
X117541040Y-57026810D01*
X117541040Y-57515345D01*
X117561620Y-57565030D01*
X117541040Y-57585610D01*
X117541040Y-58379360D01*
X118334790Y-58379360D01*
X118430040Y-58284110D01*
X118430040Y-57795575D01*
X118409460Y-57745890D01*
X118430040Y-57725310D01*
X118430040Y-56931560D01*
X118684040Y-56931560D01*
X118684040Y-57725310D01*
X118779290Y-57820560D01*
X119267826Y-57820560D01*
X119407860Y-57762556D01*
X119515036Y-57655379D01*
X119573040Y-57515345D01*
X119573040Y-57026810D01*
X120462040Y-57026810D01*
X120462040Y-57515345D01*
X120520044Y-57655379D01*
X120627220Y-57762556D01*
X120767254Y-57820560D01*
X121255790Y-57820560D01*
X121280775Y-57795575D01*
X121579640Y-57795575D01*
X121579640Y-58284110D01*
X121674890Y-58379360D01*
X122468640Y-58379360D01*
X122468640Y-57585610D01*
X122722640Y-57585610D01*
X122722640Y-58379360D01*
X123516390Y-58379360D01*
X123611640Y-58284110D01*
X123611640Y-57795575D01*
X123553636Y-57655541D01*
X123446460Y-57548364D01*
X123306426Y-57490360D01*
X122817890Y-57490360D01*
X122722640Y-57585610D01*
X122468640Y-57585610D01*
X122466020Y-57582990D01*
X122494040Y-57515345D01*
X122494040Y-57462272D01*
X172160738Y-57462272D01*
X172565909Y-58442861D01*
X173315493Y-59193755D01*
X174295373Y-59600636D01*
X175356372Y-59601562D01*
X176336961Y-59196391D01*
X177087855Y-58446807D01*
X177494736Y-57466927D01*
X177495662Y-56405928D01*
X177090491Y-55425339D01*
X176340907Y-54674445D01*
X175361027Y-54267564D01*
X174300028Y-54266638D01*
X173319439Y-54671809D01*
X172568545Y-55421393D01*
X172161664Y-56401273D01*
X172160738Y-57462272D01*
X122494040Y-57462272D01*
X122494040Y-57026810D01*
X122398790Y-56931560D01*
X121605040Y-56931560D01*
X121605040Y-57725310D01*
X121607660Y-57727930D01*
X121579640Y-57795575D01*
X121280775Y-57795575D01*
X121351040Y-57725310D01*
X121351040Y-56931560D01*
X120557290Y-56931560D01*
X120462040Y-57026810D01*
X119573040Y-57026810D01*
X119477790Y-56931560D01*
X118684040Y-56931560D01*
X118430040Y-56931560D01*
X117636290Y-56931560D01*
X117541040Y-57026810D01*
X109159040Y-57026810D01*
X109159040Y-56931975D01*
X109101036Y-56791941D01*
X108993860Y-56684764D01*
X108853826Y-56626760D01*
X108365290Y-56626760D01*
X108270040Y-56722010D01*
X108016040Y-56722010D01*
X107920790Y-56626760D01*
X107095290Y-56626760D01*
X107000040Y-56722010D01*
X106746040Y-56722010D01*
X106650790Y-56626760D01*
X105825290Y-56626760D01*
X105730040Y-56722010D01*
X105476040Y-56722010D01*
X105380790Y-56626760D01*
X104892254Y-56626760D01*
X104752220Y-56684764D01*
X104645044Y-56791941D01*
X104587040Y-56931975D01*
X80545200Y-56931975D01*
X80545200Y-56093775D01*
X117541040Y-56093775D01*
X117541040Y-56582310D01*
X117636290Y-56677560D01*
X118430040Y-56677560D01*
X118430040Y-55883810D01*
X118684040Y-55883810D01*
X118684040Y-56677560D01*
X119477790Y-56677560D01*
X119573040Y-56582310D01*
X119573040Y-56093775D01*
X120462040Y-56093775D01*
X120462040Y-56582310D01*
X120557290Y-56677560D01*
X121351040Y-56677560D01*
X121351040Y-55883810D01*
X121605040Y-55883810D01*
X121605040Y-56677560D01*
X122398790Y-56677560D01*
X122494040Y-56582310D01*
X122494040Y-56093775D01*
X122436036Y-55953741D01*
X122328860Y-55846564D01*
X122188826Y-55788560D01*
X121700290Y-55788560D01*
X121605040Y-55883810D01*
X121351040Y-55883810D01*
X121255790Y-55788560D01*
X120767254Y-55788560D01*
X120627220Y-55846564D01*
X120520044Y-55953741D01*
X120462040Y-56093775D01*
X119573040Y-56093775D01*
X119515036Y-55953741D01*
X119407860Y-55846564D01*
X119267826Y-55788560D01*
X118779290Y-55788560D01*
X118684040Y-55883810D01*
X118430040Y-55883810D01*
X118334790Y-55788560D01*
X117846254Y-55788560D01*
X117706220Y-55846564D01*
X117599044Y-55953741D01*
X117541040Y-56093775D01*
X80545200Y-56093775D01*
X80545200Y-52640400D01*
X179125200Y-52640400D01*
X179125200Y-151220400D01*
X179125200Y-151220400D01*
G37*
X179125200Y-151220400D02*
X80545200Y-151220400D01*
X80545200Y-134755890D01*
X152605400Y-134755890D01*
X152605400Y-135244425D01*
X152663404Y-135384459D01*
X152770580Y-135491636D01*
X152910614Y-135549640D01*
X153399150Y-135549640D01*
X153494400Y-135454390D01*
X153494400Y-134660640D01*
X153748400Y-134660640D01*
X153748400Y-135454390D01*
X153843650Y-135549640D01*
X154332186Y-135549640D01*
X154472220Y-135491636D01*
X154579396Y-135384459D01*
X154637400Y-135244425D01*
X154637400Y-134755890D01*
X155526400Y-134755890D01*
X155526400Y-135244425D01*
X155584404Y-135384459D01*
X155691580Y-135491636D01*
X155831614Y-135549640D01*
X156320150Y-135549640D01*
X156415400Y-135454390D01*
X156415400Y-134660640D01*
X156669400Y-134660640D01*
X156669400Y-135454390D01*
X156764650Y-135549640D01*
X157253186Y-135549640D01*
X157393220Y-135491636D01*
X157500396Y-135384459D01*
X157558400Y-135244425D01*
X157558400Y-134755890D01*
X157463150Y-134660640D01*
X156669400Y-134660640D01*
X156415400Y-134660640D01*
X155621650Y-134660640D01*
X155526400Y-134755890D01*
X154637400Y-134755890D01*
X154542150Y-134660640D01*
X153748400Y-134660640D01*
X153494400Y-134660640D01*
X152700650Y-134660640D01*
X152605400Y-134755890D01*
X80545200Y-134755890D01*
X80545200Y-133054090D01*
X151487800Y-133054090D01*
X151487800Y-133542625D01*
X151545804Y-133682659D01*
X151652980Y-133789836D01*
X151793014Y-133847840D01*
X152281550Y-133847840D01*
X152306535Y-133822855D01*
X152605400Y-133822855D01*
X152605400Y-134311390D01*
X152700650Y-134406640D01*
X153494400Y-134406640D01*
X153494400Y-133612890D01*
X153748400Y-133612890D01*
X153748400Y-134406640D01*
X154542150Y-134406640D01*
X154637400Y-134311390D01*
X154637400Y-133822855D01*
X155526400Y-133822855D01*
X155526400Y-134311390D01*
X155621650Y-134406640D01*
X156415400Y-134406640D01*
X156415400Y-133612890D01*
X156320150Y-133517640D01*
X155831614Y-133517640D01*
X155691580Y-133575644D01*
X155584404Y-133682821D01*
X155526400Y-133822855D01*
X154637400Y-133822855D01*
X154579396Y-133682821D01*
X154472220Y-133575644D01*
X154332186Y-133517640D01*
X153843650Y-133517640D01*
X153748400Y-133612890D01*
X153494400Y-133612890D01*
X153491780Y-133610270D01*
X153519800Y-133542625D01*
X153519800Y-133054090D01*
X156669400Y-133054090D01*
X156669400Y-133542625D01*
X156689980Y-133592310D01*
X156669400Y-133612890D01*
X156669400Y-134406640D01*
X157463150Y-134406640D01*
X157558400Y-134311390D01*
X157558400Y-133822855D01*
X157537820Y-133773170D01*
X157558400Y-133752590D01*
X157558400Y-132958840D01*
X157812400Y-132958840D01*
X157812400Y-133752590D01*
X157907650Y-133847840D01*
X158396186Y-133847840D01*
X158536220Y-133789836D01*
X158643396Y-133682659D01*
X158701400Y-133542625D01*
X158701400Y-133054090D01*
X158606150Y-132958840D01*
X157812400Y-132958840D01*
X157558400Y-132958840D01*
X156764650Y-132958840D01*
X156669400Y-133054090D01*
X153519800Y-133054090D01*
X153424550Y-132958840D01*
X152630800Y-132958840D01*
X152630800Y-133752590D01*
X152633420Y-133755210D01*
X152605400Y-133822855D01*
X152306535Y-133822855D01*
X152376800Y-133752590D01*
X152376800Y-132958840D01*
X151583050Y-132958840D01*
X151487800Y-133054090D01*
X80545200Y-133054090D01*
X80545200Y-132121055D01*
X151487800Y-132121055D01*
X151487800Y-132609590D01*
X151583050Y-132704840D01*
X152376800Y-132704840D01*
X152376800Y-131911090D01*
X152630800Y-131911090D01*
X152630800Y-132704840D01*
X153424550Y-132704840D01*
X153519800Y-132609590D01*
X153519800Y-132121055D01*
X156669400Y-132121055D01*
X156669400Y-132609590D01*
X156764650Y-132704840D01*
X157558400Y-132704840D01*
X157558400Y-131911090D01*
X157812400Y-131911090D01*
X157812400Y-132704840D01*
X158606150Y-132704840D01*
X158701400Y-132609590D01*
X158701400Y-132121055D01*
X158643396Y-131981021D01*
X158536220Y-131873844D01*
X158396186Y-131815840D01*
X157907650Y-131815840D01*
X157812400Y-131911090D01*
X157558400Y-131911090D01*
X157463150Y-131815840D01*
X156974614Y-131815840D01*
X156834580Y-131873844D01*
X156727404Y-131981021D01*
X156669400Y-132121055D01*
X153519800Y-132121055D01*
X153461796Y-131981021D01*
X153354620Y-131873844D01*
X153214586Y-131815840D01*
X152726050Y-131815840D01*
X152630800Y-131911090D01*
X152376800Y-131911090D01*
X152281550Y-131815840D01*
X151793014Y-131815840D01*
X151652980Y-131873844D01*
X151545804Y-131981021D01*
X151487800Y-132121055D01*
X80545200Y-132121055D01*
X80545200Y-124643810D01*
X82824320Y-124643810D01*
X82824320Y-125132346D01*
X82882324Y-125272380D01*
X82989501Y-125379556D01*
X83129535Y-125437560D01*
X83618070Y-125437560D01*
X83713320Y-125342310D01*
X83713320Y-124548560D01*
X83967320Y-124548560D01*
X83967320Y-125342310D01*
X84062570Y-125437560D01*
X84551105Y-125437560D01*
X84691139Y-125379556D01*
X84798316Y-125272380D01*
X84856320Y-125132346D01*
X84856320Y-124643810D01*
X84761070Y-124548560D01*
X83967320Y-124548560D01*
X83713320Y-124548560D01*
X82919570Y-124548560D01*
X82824320Y-124643810D01*
X80545200Y-124643810D01*
X80545200Y-123500810D01*
X81122520Y-123500810D01*
X81122520Y-123989346D01*
X81180524Y-124129380D01*
X81287701Y-124236556D01*
X81427735Y-124294560D01*
X81916270Y-124294560D01*
X82011520Y-124199310D01*
X82011520Y-123405560D01*
X82265520Y-123405560D01*
X82265520Y-124199310D01*
X82360770Y-124294560D01*
X82849305Y-124294560D01*
X82898990Y-124273980D01*
X82919570Y-124294560D01*
X83713320Y-124294560D01*
X83713320Y-123500810D01*
X83967320Y-123500810D01*
X83967320Y-124294560D01*
X84761070Y-124294560D01*
X84856320Y-124199310D01*
X84856320Y-123710774D01*
X84798316Y-123570740D01*
X84691139Y-123463564D01*
X84551105Y-123405560D01*
X84062570Y-123405560D01*
X83967320Y-123500810D01*
X83713320Y-123500810D01*
X83618070Y-123405560D01*
X83129535Y-123405560D01*
X83079850Y-123426140D01*
X83059270Y-123405560D01*
X82265520Y-123405560D01*
X82011520Y-123405560D01*
X81217770Y-123405560D01*
X81122520Y-123500810D01*
X80545200Y-123500810D01*
X80545200Y-123362572D01*
X172130258Y-123362572D01*
X172535429Y-124343161D01*
X173285013Y-125094055D01*
X174264893Y-125500936D01*
X175325892Y-125501862D01*
X176306481Y-125096691D01*
X177057375Y-124347107D01*
X177464256Y-123367227D01*
X177465182Y-122306228D01*
X177060011Y-121325639D01*
X176310427Y-120574745D01*
X175330547Y-120167864D01*
X174269548Y-120166938D01*
X173288959Y-120572109D01*
X172538065Y-121321693D01*
X172131184Y-122301573D01*
X172130258Y-123362572D01*
X80545200Y-123362572D01*
X80545200Y-122567774D01*
X81122520Y-122567774D01*
X81122520Y-123056310D01*
X81217770Y-123151560D01*
X82011520Y-123151560D01*
X82011520Y-122357810D01*
X82265520Y-122357810D01*
X82265520Y-123151560D01*
X83059270Y-123151560D01*
X83154520Y-123056310D01*
X83154520Y-122567774D01*
X83096516Y-122427740D01*
X82989339Y-122320564D01*
X82849305Y-122262560D01*
X82360770Y-122262560D01*
X82265520Y-122357810D01*
X82011520Y-122357810D01*
X81916270Y-122262560D01*
X81427735Y-122262560D01*
X81287701Y-122320564D01*
X81180524Y-122427740D01*
X81122520Y-122567774D01*
X80545200Y-122567774D01*
X80545200Y-120579810D01*
X81122520Y-120579810D01*
X81122520Y-121068346D01*
X81180524Y-121208380D01*
X81287701Y-121315556D01*
X81427735Y-121373560D01*
X81916270Y-121373560D01*
X82011520Y-121278310D01*
X82011520Y-120484560D01*
X82265520Y-120484560D01*
X82265520Y-121278310D01*
X82360770Y-121373560D01*
X82849305Y-121373560D01*
X82989339Y-121315556D01*
X83096516Y-121208380D01*
X83154520Y-121068346D01*
X83154520Y-120579810D01*
X83059270Y-120484560D01*
X82265520Y-120484560D01*
X82011520Y-120484560D01*
X81217770Y-120484560D01*
X81122520Y-120579810D01*
X80545200Y-120579810D01*
X80545200Y-119646774D01*
X81122520Y-119646774D01*
X81122520Y-120135310D01*
X81217770Y-120230560D01*
X82011520Y-120230560D01*
X82011520Y-119436810D01*
X82265520Y-119436810D01*
X82265520Y-120230560D01*
X83059270Y-120230560D01*
X83061890Y-120227940D01*
X83129535Y-120255960D01*
X83618070Y-120255960D01*
X83713320Y-120160710D01*
X83713320Y-119366960D01*
X83967320Y-119366960D01*
X83967320Y-120160710D01*
X84062570Y-120255960D01*
X84551105Y-120255960D01*
X84691139Y-120197956D01*
X84798316Y-120090780D01*
X84856320Y-119950746D01*
X84856320Y-119462210D01*
X84761070Y-119366960D01*
X83967320Y-119366960D01*
X83713320Y-119366960D01*
X82919570Y-119366960D01*
X82916950Y-119369580D01*
X82849305Y-119341560D01*
X82360770Y-119341560D01*
X82265520Y-119436810D01*
X82011520Y-119436810D01*
X81916270Y-119341560D01*
X81427735Y-119341560D01*
X81287701Y-119399564D01*
X81180524Y-119506740D01*
X81122520Y-119646774D01*
X80545200Y-119646774D01*
X80545200Y-118529174D01*
X82824320Y-118529174D01*
X82824320Y-119017710D01*
X82919570Y-119112960D01*
X83713320Y-119112960D01*
X83713320Y-118319210D01*
X83967320Y-118319210D01*
X83967320Y-119112960D01*
X84761070Y-119112960D01*
X84856320Y-119017710D01*
X84856320Y-118529174D01*
X84798316Y-118389140D01*
X84691139Y-118281964D01*
X84551105Y-118223960D01*
X84062570Y-118223960D01*
X83967320Y-118319210D01*
X83713320Y-118319210D01*
X83618070Y-118223960D01*
X83129535Y-118223960D01*
X82989501Y-118281964D01*
X82882324Y-118389140D01*
X82824320Y-118529174D01*
X80545200Y-118529174D01*
X80545200Y-110355365D01*
X122320259Y-110355365D01*
X122320259Y-110843901D01*
X122378263Y-110983935D01*
X122485440Y-111091111D01*
X122625474Y-111149115D01*
X123114009Y-111149115D01*
X123209259Y-111053865D01*
X123209259Y-110260115D01*
X123463259Y-110260115D01*
X123463259Y-111053865D01*
X123558509Y-111149115D01*
X124384009Y-111149115D01*
X124479259Y-111053865D01*
X124479259Y-110260115D01*
X124733259Y-110260115D01*
X124733259Y-111053865D01*
X124828509Y-111149115D01*
X125317044Y-111149115D01*
X125457078Y-111091111D01*
X125564255Y-110983935D01*
X125622259Y-110843901D01*
X125622259Y-110380765D01*
X128416259Y-110380765D01*
X128416259Y-110869301D01*
X128474263Y-111009335D01*
X128581440Y-111116511D01*
X128721474Y-111174515D01*
X129210009Y-111174515D01*
X129305259Y-111079265D01*
X129305259Y-110285515D01*
X129559259Y-110285515D01*
X129559259Y-111079265D01*
X129654509Y-111174515D01*
X130480009Y-111174515D01*
X130575259Y-111079265D01*
X130575259Y-110285515D01*
X130829259Y-110285515D01*
X130829259Y-111079265D01*
X130924509Y-111174515D01*
X131413044Y-111174515D01*
X131553078Y-111116511D01*
X131660255Y-111009335D01*
X131718259Y-110869301D01*
X131718259Y-110380765D01*
X131623009Y-110285515D01*
X130829259Y-110285515D01*
X130575259Y-110285515D01*
X129559259Y-110285515D01*
X129305259Y-110285515D01*
X128511509Y-110285515D01*
X128416259Y-110380765D01*
X125622259Y-110380765D01*
X125622259Y-110355365D01*
X125527009Y-110260115D01*
X124733259Y-110260115D01*
X124479259Y-110260115D01*
X123463259Y-110260115D01*
X123209259Y-110260115D01*
X122415509Y-110260115D01*
X122320259Y-110355365D01*
X80545200Y-110355365D01*
X80545200Y-109085365D01*
X122320259Y-109085365D01*
X122320259Y-109910865D01*
X122415509Y-110006115D01*
X123209259Y-110006115D01*
X123209259Y-108990115D01*
X123463259Y-108990115D01*
X123463259Y-110006115D01*
X124479259Y-110006115D01*
X124479259Y-108990115D01*
X124733259Y-108990115D01*
X124733259Y-110006115D01*
X125527009Y-110006115D01*
X125622259Y-109910865D01*
X125622259Y-109110765D01*
X128416259Y-109110765D01*
X128416259Y-109936265D01*
X128511509Y-110031515D01*
X129305259Y-110031515D01*
X129305259Y-109015515D01*
X129559259Y-109015515D01*
X129559259Y-110031515D01*
X130575259Y-110031515D01*
X130575259Y-109015515D01*
X130829259Y-109015515D01*
X130829259Y-110031515D01*
X131623009Y-110031515D01*
X131718259Y-109936265D01*
X131718259Y-109110765D01*
X131623009Y-109015515D01*
X130829259Y-109015515D01*
X130575259Y-109015515D01*
X129559259Y-109015515D01*
X129305259Y-109015515D01*
X128511509Y-109015515D01*
X128416259Y-109110765D01*
X125622259Y-109110765D01*
X125622259Y-109085365D01*
X125527009Y-108990115D01*
X124733259Y-108990115D01*
X124479259Y-108990115D01*
X123463259Y-108990115D01*
X123209259Y-108990115D01*
X122415509Y-108990115D01*
X122320259Y-109085365D01*
X80545200Y-109085365D01*
X80545200Y-107815365D01*
X122320259Y-107815365D01*
X122320259Y-108640865D01*
X122415509Y-108736115D01*
X123209259Y-108736115D01*
X123209259Y-107720115D01*
X123463259Y-107720115D01*
X123463259Y-108736115D01*
X124479259Y-108736115D01*
X124479259Y-107720115D01*
X124733259Y-107720115D01*
X124733259Y-108736115D01*
X125527009Y-108736115D01*
X125622259Y-108640865D01*
X125622259Y-107840765D01*
X128416259Y-107840765D01*
X128416259Y-108666265D01*
X128511509Y-108761515D01*
X129305259Y-108761515D01*
X129305259Y-107745515D01*
X129559259Y-107745515D01*
X129559259Y-108761515D01*
X130575259Y-108761515D01*
X130575259Y-107745515D01*
X130829259Y-107745515D01*
X130829259Y-108761515D01*
X131623009Y-108761515D01*
X131718259Y-108666265D01*
X131718259Y-107840765D01*
X131623009Y-107745515D01*
X130829259Y-107745515D01*
X130575259Y-107745515D01*
X129559259Y-107745515D01*
X129305259Y-107745515D01*
X128511509Y-107745515D01*
X128416259Y-107840765D01*
X125622259Y-107840765D01*
X125622259Y-107815365D01*
X125527009Y-107720115D01*
X124733259Y-107720115D01*
X124479259Y-107720115D01*
X123463259Y-107720115D01*
X123209259Y-107720115D01*
X122415509Y-107720115D01*
X122320259Y-107815365D01*
X80545200Y-107815365D01*
X80545200Y-106882329D01*
X122320259Y-106882329D01*
X122320259Y-107370865D01*
X122415509Y-107466115D01*
X123209259Y-107466115D01*
X123209259Y-106672365D01*
X123463259Y-106672365D01*
X123463259Y-107466115D01*
X124479259Y-107466115D01*
X124479259Y-106672365D01*
X124733259Y-106672365D01*
X124733259Y-107466115D01*
X125527009Y-107466115D01*
X125622259Y-107370865D01*
X125622259Y-106907729D01*
X128416259Y-106907729D01*
X128416259Y-107396265D01*
X128511509Y-107491515D01*
X129305259Y-107491515D01*
X129305259Y-106697765D01*
X129559259Y-106697765D01*
X129559259Y-107491515D01*
X130575259Y-107491515D01*
X130575259Y-106697765D01*
X130829259Y-106697765D01*
X130829259Y-107491515D01*
X131623009Y-107491515D01*
X131718259Y-107396265D01*
X131718259Y-106907729D01*
X131660255Y-106767695D01*
X131553078Y-106660519D01*
X131413044Y-106602515D01*
X130924509Y-106602515D01*
X130829259Y-106697765D01*
X130575259Y-106697765D01*
X130480009Y-106602515D01*
X129654509Y-106602515D01*
X129559259Y-106697765D01*
X129305259Y-106697765D01*
X129210009Y-106602515D01*
X128721474Y-106602515D01*
X128581440Y-106660519D01*
X128474263Y-106767695D01*
X128416259Y-106907729D01*
X125622259Y-106907729D01*
X125622259Y-106882329D01*
X125564255Y-106742295D01*
X125457078Y-106635119D01*
X125317044Y-106577115D01*
X124828509Y-106577115D01*
X124733259Y-106672365D01*
X124479259Y-106672365D01*
X124384009Y-106577115D01*
X123558509Y-106577115D01*
X123463259Y-106672365D01*
X123209259Y-106672365D01*
X123114009Y-106577115D01*
X122625474Y-106577115D01*
X122485440Y-106635119D01*
X122378263Y-106742295D01*
X122320259Y-106882329D01*
X80545200Y-106882329D01*
X80545200Y-105601644D01*
X109928028Y-105601644D01*
X109928028Y-106090180D01*
X109986032Y-106230214D01*
X110093209Y-106337390D01*
X110233243Y-106395394D01*
X110721778Y-106395394D01*
X110817028Y-106300144D01*
X110817028Y-105506394D01*
X111071028Y-105506394D01*
X111071028Y-106300144D01*
X111166278Y-106395394D01*
X111991778Y-106395394D01*
X112087028Y-106300144D01*
X112087028Y-105506394D01*
X112341028Y-105506394D01*
X112341028Y-106300144D01*
X112436278Y-106395394D01*
X112924813Y-106395394D01*
X113064847Y-106337390D01*
X113172024Y-106230214D01*
X113230028Y-106090180D01*
X113230028Y-105627044D01*
X116024028Y-105627044D01*
X116024028Y-106115580D01*
X116082032Y-106255614D01*
X116189209Y-106362790D01*
X116329243Y-106420794D01*
X116817778Y-106420794D01*
X116913028Y-106325544D01*
X116913028Y-105531794D01*
X117167028Y-105531794D01*
X117167028Y-106325544D01*
X117262278Y-106420794D01*
X118087778Y-106420794D01*
X118183028Y-106325544D01*
X118183028Y-105531794D01*
X118437028Y-105531794D01*
X118437028Y-106325544D01*
X118532278Y-106420794D01*
X119020813Y-106420794D01*
X119160847Y-106362790D01*
X119268024Y-106255614D01*
X119326028Y-106115580D01*
X119326028Y-105627044D01*
X119230778Y-105531794D01*
X118437028Y-105531794D01*
X118183028Y-105531794D01*
X117167028Y-105531794D01*
X116913028Y-105531794D01*
X116119278Y-105531794D01*
X116024028Y-105627044D01*
X113230028Y-105627044D01*
X113230028Y-105601644D01*
X113134778Y-105506394D01*
X112341028Y-105506394D01*
X112087028Y-105506394D01*
X111071028Y-105506394D01*
X110817028Y-105506394D01*
X110023278Y-105506394D01*
X109928028Y-105601644D01*
X80545200Y-105601644D01*
X80545200Y-102819052D01*
X82138058Y-102819052D01*
X82543229Y-103799641D01*
X83292813Y-104550535D01*
X84272693Y-104957416D01*
X85333692Y-104958342D01*
X86314281Y-104553171D01*
X86536195Y-104331644D01*
X109928028Y-104331644D01*
X109928028Y-105157144D01*
X110023278Y-105252394D01*
X110817028Y-105252394D01*
X110817028Y-104236394D01*
X111071028Y-104236394D01*
X111071028Y-105252394D01*
X112087028Y-105252394D01*
X112087028Y-104236394D01*
X112341028Y-104236394D01*
X112341028Y-105252394D01*
X113134778Y-105252394D01*
X113230028Y-105157144D01*
X113230028Y-104357044D01*
X116024028Y-104357044D01*
X116024028Y-105182544D01*
X116119278Y-105277794D01*
X116913028Y-105277794D01*
X116913028Y-104261794D01*
X117167028Y-104261794D01*
X117167028Y-105277794D01*
X118183028Y-105277794D01*
X118183028Y-104261794D01*
X118437028Y-104261794D01*
X118437028Y-105277794D01*
X119230778Y-105277794D01*
X119326028Y-105182544D01*
X119326028Y-104357044D01*
X119230778Y-104261794D01*
X118437028Y-104261794D01*
X118183028Y-104261794D01*
X117167028Y-104261794D01*
X116913028Y-104261794D01*
X116119278Y-104261794D01*
X116024028Y-104357044D01*
X113230028Y-104357044D01*
X113230028Y-104331644D01*
X113134778Y-104236394D01*
X112341028Y-104236394D01*
X112087028Y-104236394D01*
X111071028Y-104236394D01*
X110817028Y-104236394D01*
X110023278Y-104236394D01*
X109928028Y-104331644D01*
X86536195Y-104331644D01*
X87065175Y-103803587D01*
X87373256Y-103061644D01*
X109928028Y-103061644D01*
X109928028Y-103887144D01*
X110023278Y-103982394D01*
X110817028Y-103982394D01*
X110817028Y-102966394D01*
X111071028Y-102966394D01*
X111071028Y-103982394D01*
X112087028Y-103982394D01*
X112087028Y-102966394D01*
X112341028Y-102966394D01*
X112341028Y-103982394D01*
X113134778Y-103982394D01*
X113230028Y-103887144D01*
X113230028Y-103087044D01*
X116024028Y-103087044D01*
X116024028Y-103912544D01*
X116119278Y-104007794D01*
X116913028Y-104007794D01*
X116913028Y-102991794D01*
X117167028Y-102991794D01*
X117167028Y-104007794D01*
X118183028Y-104007794D01*
X118183028Y-102991794D01*
X118437028Y-102991794D01*
X118437028Y-104007794D01*
X119230778Y-104007794D01*
X119326028Y-103912544D01*
X119326028Y-103127810D01*
X149143720Y-103127810D01*
X149143720Y-103616345D01*
X149201724Y-103756379D01*
X149308900Y-103863556D01*
X149448934Y-103921560D01*
X149937470Y-103921560D01*
X150032720Y-103826310D01*
X150032720Y-103032560D01*
X150286720Y-103032560D01*
X150286720Y-103826310D01*
X150381970Y-103921560D01*
X151207470Y-103921560D01*
X151302720Y-103826310D01*
X151302720Y-103032560D01*
X151556720Y-103032560D01*
X151556720Y-103826310D01*
X151651970Y-103921560D01*
X152477470Y-103921560D01*
X152572720Y-103826310D01*
X152572720Y-103032560D01*
X152826720Y-103032560D01*
X152826720Y-103826310D01*
X152921970Y-103921560D01*
X153410506Y-103921560D01*
X153550540Y-103863556D01*
X153657716Y-103756379D01*
X153715720Y-103616345D01*
X153715720Y-103127810D01*
X153620470Y-103032560D01*
X152826720Y-103032560D01*
X152572720Y-103032560D01*
X151556720Y-103032560D01*
X151302720Y-103032560D01*
X150286720Y-103032560D01*
X150032720Y-103032560D01*
X149238970Y-103032560D01*
X149143720Y-103127810D01*
X119326028Y-103127810D01*
X119326028Y-103087044D01*
X119230778Y-102991794D01*
X118437028Y-102991794D01*
X118183028Y-102991794D01*
X117167028Y-102991794D01*
X116913028Y-102991794D01*
X116119278Y-102991794D01*
X116024028Y-103087044D01*
X113230028Y-103087044D01*
X113230028Y-103061644D01*
X113134778Y-102966394D01*
X112341028Y-102966394D01*
X112087028Y-102966394D01*
X111071028Y-102966394D01*
X110817028Y-102966394D01*
X110023278Y-102966394D01*
X109928028Y-103061644D01*
X87373256Y-103061644D01*
X87472056Y-102823707D01*
X87472662Y-102128608D01*
X109928028Y-102128608D01*
X109928028Y-102617144D01*
X110023278Y-102712394D01*
X110817028Y-102712394D01*
X110817028Y-101918644D01*
X111071028Y-101918644D01*
X111071028Y-102712394D01*
X112087028Y-102712394D01*
X112087028Y-101918644D01*
X112341028Y-101918644D01*
X112341028Y-102712394D01*
X113134778Y-102712394D01*
X113230028Y-102617144D01*
X113230028Y-102154008D01*
X116024028Y-102154008D01*
X116024028Y-102642544D01*
X116119278Y-102737794D01*
X116913028Y-102737794D01*
X116913028Y-101944044D01*
X117167028Y-101944044D01*
X117167028Y-102737794D01*
X118183028Y-102737794D01*
X118183028Y-101944044D01*
X118437028Y-101944044D01*
X118437028Y-102737794D01*
X119230778Y-102737794D01*
X119326028Y-102642544D01*
X119326028Y-102154008D01*
X119268024Y-102013974D01*
X119160847Y-101906798D01*
X119042580Y-101857810D01*
X149143720Y-101857810D01*
X149143720Y-102683310D01*
X149238970Y-102778560D01*
X150032720Y-102778560D01*
X150032720Y-101762560D01*
X150286720Y-101762560D01*
X150286720Y-102778560D01*
X151302720Y-102778560D01*
X151302720Y-101762560D01*
X151556720Y-101762560D01*
X151556720Y-102778560D01*
X152572720Y-102778560D01*
X152572720Y-101762560D01*
X152826720Y-101762560D01*
X152826720Y-102778560D01*
X153620470Y-102778560D01*
X153715720Y-102683310D01*
X153715720Y-101857810D01*
X153620470Y-101762560D01*
X152826720Y-101762560D01*
X152572720Y-101762560D01*
X151556720Y-101762560D01*
X151302720Y-101762560D01*
X150286720Y-101762560D01*
X150032720Y-101762560D01*
X149238970Y-101762560D01*
X149143720Y-101857810D01*
X119042580Y-101857810D01*
X119020813Y-101848794D01*
X118532278Y-101848794D01*
X118437028Y-101944044D01*
X118183028Y-101944044D01*
X118087778Y-101848794D01*
X117262278Y-101848794D01*
X117167028Y-101944044D01*
X116913028Y-101944044D01*
X116817778Y-101848794D01*
X116329243Y-101848794D01*
X116189209Y-101906798D01*
X116082032Y-102013974D01*
X116024028Y-102154008D01*
X113230028Y-102154008D01*
X113230028Y-102128608D01*
X113172024Y-101988574D01*
X113064847Y-101881398D01*
X112924813Y-101823394D01*
X112436278Y-101823394D01*
X112341028Y-101918644D01*
X112087028Y-101918644D01*
X111991778Y-101823394D01*
X111166278Y-101823394D01*
X111071028Y-101918644D01*
X110817028Y-101918644D01*
X110721778Y-101823394D01*
X110233243Y-101823394D01*
X110093209Y-101881398D01*
X109986032Y-101988574D01*
X109928028Y-102128608D01*
X87472662Y-102128608D01*
X87472982Y-101762708D01*
X87126756Y-100924775D01*
X149143720Y-100924775D01*
X149143720Y-101413310D01*
X149238970Y-101508560D01*
X150032720Y-101508560D01*
X150032720Y-100714810D01*
X150286720Y-100714810D01*
X150286720Y-101508560D01*
X151302720Y-101508560D01*
X151302720Y-100714810D01*
X151556720Y-100714810D01*
X151556720Y-101508560D01*
X152572720Y-101508560D01*
X152572720Y-100714810D01*
X152826720Y-100714810D01*
X152826720Y-101508560D01*
X153620470Y-101508560D01*
X153715720Y-101413310D01*
X153715720Y-100924775D01*
X153657716Y-100784741D01*
X153550540Y-100677564D01*
X153410506Y-100619560D01*
X152921970Y-100619560D01*
X152826720Y-100714810D01*
X152572720Y-100714810D01*
X152477470Y-100619560D01*
X151651970Y-100619560D01*
X151556720Y-100714810D01*
X151302720Y-100714810D01*
X151207470Y-100619560D01*
X150381970Y-100619560D01*
X150286720Y-100714810D01*
X150032720Y-100714810D01*
X149937470Y-100619560D01*
X149448934Y-100619560D01*
X149308900Y-100677564D01*
X149201724Y-100784741D01*
X149143720Y-100924775D01*
X87126756Y-100924775D01*
X87067811Y-100782119D01*
X86318227Y-100031225D01*
X85338347Y-99624344D01*
X84277348Y-99623418D01*
X83296759Y-100028589D01*
X82545865Y-100778173D01*
X82138984Y-101758053D01*
X82138058Y-102819052D01*
X80545200Y-102819052D01*
X80545200Y-97031810D01*
X149169120Y-97031810D01*
X149169120Y-97520345D01*
X149227124Y-97660379D01*
X149334300Y-97767556D01*
X149474334Y-97825560D01*
X149962870Y-97825560D01*
X150058120Y-97730310D01*
X150058120Y-96936560D01*
X150312120Y-96936560D01*
X150312120Y-97730310D01*
X150407370Y-97825560D01*
X151232870Y-97825560D01*
X151328120Y-97730310D01*
X151328120Y-96936560D01*
X151582120Y-96936560D01*
X151582120Y-97730310D01*
X151677370Y-97825560D01*
X152502870Y-97825560D01*
X152598120Y-97730310D01*
X152598120Y-96936560D01*
X152852120Y-96936560D01*
X152852120Y-97730310D01*
X152947370Y-97825560D01*
X153435906Y-97825560D01*
X153575940Y-97767556D01*
X153683116Y-97660379D01*
X153741120Y-97520345D01*
X153741120Y-97031810D01*
X153645870Y-96936560D01*
X152852120Y-96936560D01*
X152598120Y-96936560D01*
X151582120Y-96936560D01*
X151328120Y-96936560D01*
X150312120Y-96936560D01*
X150058120Y-96936560D01*
X149264370Y-96936560D01*
X149169120Y-97031810D01*
X80545200Y-97031810D01*
X80545200Y-95894010D01*
X144428240Y-95894010D01*
X144428240Y-96382545D01*
X144486244Y-96522579D01*
X144593420Y-96629756D01*
X144733454Y-96687760D01*
X145221990Y-96687760D01*
X145317240Y-96592510D01*
X145317240Y-95798760D01*
X145571240Y-95798760D01*
X145571240Y-96592510D01*
X145666490Y-96687760D01*
X146491990Y-96687760D01*
X146587240Y-96592510D01*
X146587240Y-95798760D01*
X146841240Y-95798760D01*
X146841240Y-96592510D01*
X146936490Y-96687760D01*
X147761990Y-96687760D01*
X147857240Y-96592510D01*
X147857240Y-95798760D01*
X148111240Y-95798760D01*
X148111240Y-96592510D01*
X148206490Y-96687760D01*
X148695026Y-96687760D01*
X148835060Y-96629756D01*
X148942236Y-96522579D01*
X149000240Y-96382545D01*
X149000240Y-95894010D01*
X148904990Y-95798760D01*
X148111240Y-95798760D01*
X147857240Y-95798760D01*
X146841240Y-95798760D01*
X146587240Y-95798760D01*
X145571240Y-95798760D01*
X145317240Y-95798760D01*
X144523490Y-95798760D01*
X144428240Y-95894010D01*
X80545200Y-95894010D01*
X80545200Y-95761810D01*
X149169120Y-95761810D01*
X149169120Y-96587310D01*
X149264370Y-96682560D01*
X150058120Y-96682560D01*
X150058120Y-95666560D01*
X150312120Y-95666560D01*
X150312120Y-96682560D01*
X151328120Y-96682560D01*
X151328120Y-95666560D01*
X151582120Y-95666560D01*
X151582120Y-96682560D01*
X152598120Y-96682560D01*
X152598120Y-95666560D01*
X152852120Y-95666560D01*
X152852120Y-96682560D01*
X153645870Y-96682560D01*
X153741120Y-96587310D01*
X153741120Y-95761810D01*
X153645870Y-95666560D01*
X152852120Y-95666560D01*
X152598120Y-95666560D01*
X151582120Y-95666560D01*
X151328120Y-95666560D01*
X150312120Y-95666560D01*
X150058120Y-95666560D01*
X149264370Y-95666560D01*
X149169120Y-95761810D01*
X80545200Y-95761810D01*
X80545200Y-94624010D01*
X144428240Y-94624010D01*
X144428240Y-95449510D01*
X144523490Y-95544760D01*
X145317240Y-95544760D01*
X145317240Y-94528760D01*
X145571240Y-94528760D01*
X145571240Y-95544760D01*
X146587240Y-95544760D01*
X146587240Y-94528760D01*
X146841240Y-94528760D01*
X146841240Y-95544760D01*
X147857240Y-95544760D01*
X147857240Y-94528760D01*
X148111240Y-94528760D01*
X148111240Y-95544760D01*
X148904990Y-95544760D01*
X149000240Y-95449510D01*
X149000240Y-94828775D01*
X149169120Y-94828775D01*
X149169120Y-95317310D01*
X149264370Y-95412560D01*
X150058120Y-95412560D01*
X150058120Y-94618810D01*
X150312120Y-94618810D01*
X150312120Y-95412560D01*
X151328120Y-95412560D01*
X151328120Y-94618810D01*
X151582120Y-94618810D01*
X151582120Y-95412560D01*
X152598120Y-95412560D01*
X152598120Y-94618810D01*
X152852120Y-94618810D01*
X152852120Y-95412560D01*
X153645870Y-95412560D01*
X153741120Y-95317310D01*
X153741120Y-94828775D01*
X153683116Y-94688741D01*
X153575940Y-94581564D01*
X153435906Y-94523560D01*
X152947370Y-94523560D01*
X152852120Y-94618810D01*
X152598120Y-94618810D01*
X152502870Y-94523560D01*
X151677370Y-94523560D01*
X151582120Y-94618810D01*
X151328120Y-94618810D01*
X151232870Y-94523560D01*
X150407370Y-94523560D01*
X150312120Y-94618810D01*
X150058120Y-94618810D01*
X149962870Y-94523560D01*
X149474334Y-94523560D01*
X149334300Y-94581564D01*
X149227124Y-94688741D01*
X149169120Y-94828775D01*
X149000240Y-94828775D01*
X149000240Y-94624010D01*
X148904990Y-94528760D01*
X148111240Y-94528760D01*
X147857240Y-94528760D01*
X146841240Y-94528760D01*
X146587240Y-94528760D01*
X145571240Y-94528760D01*
X145317240Y-94528760D01*
X144523490Y-94528760D01*
X144428240Y-94624010D01*
X80545200Y-94624010D01*
X80545200Y-93690975D01*
X144428240Y-93690975D01*
X144428240Y-94179510D01*
X144523490Y-94274760D01*
X145317240Y-94274760D01*
X145317240Y-93481010D01*
X145571240Y-93481010D01*
X145571240Y-94274760D01*
X146587240Y-94274760D01*
X146587240Y-93481010D01*
X146841240Y-93481010D01*
X146841240Y-94274760D01*
X147857240Y-94274760D01*
X147857240Y-93481010D01*
X148111240Y-93481010D01*
X148111240Y-94274760D01*
X148904990Y-94274760D01*
X149000240Y-94179510D01*
X149000240Y-93690975D01*
X148942236Y-93550941D01*
X148835060Y-93443764D01*
X148695026Y-93385760D01*
X148206490Y-93385760D01*
X148111240Y-93481010D01*
X147857240Y-93481010D01*
X147761990Y-93385760D01*
X146936490Y-93385760D01*
X146841240Y-93481010D01*
X146587240Y-93481010D01*
X146491990Y-93385760D01*
X145666490Y-93385760D01*
X145571240Y-93481010D01*
X145317240Y-93481010D01*
X145221990Y-93385760D01*
X144733454Y-93385760D01*
X144593420Y-93443764D01*
X144486244Y-93550941D01*
X144428240Y-93690975D01*
X80545200Y-93690975D01*
X80545200Y-91723155D01*
X85023556Y-91723155D01*
X85271946Y-92324303D01*
X85731477Y-92784638D01*
X86332192Y-93034076D01*
X86982635Y-93034644D01*
X87583783Y-92786254D01*
X88044118Y-92326723D01*
X88293556Y-91726008D01*
X88293558Y-91723155D01*
X92023556Y-91723155D01*
X92271946Y-92324303D01*
X92731477Y-92784638D01*
X93332192Y-93034076D01*
X93982635Y-93034644D01*
X94583783Y-92786254D01*
X95044118Y-92326723D01*
X95293556Y-91726008D01*
X95293938Y-91287600D01*
X101320601Y-91287600D01*
X101397938Y-91676407D01*
X101618180Y-92006020D01*
X101947793Y-92226262D01*
X102336600Y-92303599D01*
X102725407Y-92226262D01*
X103055020Y-92006020D01*
X103105820Y-91955221D01*
X103326062Y-91625607D01*
X103356463Y-91472767D01*
X103403400Y-91236800D01*
X103403400Y-89798010D01*
X144453640Y-89798010D01*
X144453640Y-90286545D01*
X144511644Y-90426579D01*
X144618820Y-90533756D01*
X144758854Y-90591760D01*
X145247390Y-90591760D01*
X145342640Y-90496510D01*
X145342640Y-89702760D01*
X145596640Y-89702760D01*
X145596640Y-90496510D01*
X145691890Y-90591760D01*
X146517390Y-90591760D01*
X146612640Y-90496510D01*
X146612640Y-89702760D01*
X146866640Y-89702760D01*
X146866640Y-90496510D01*
X146961890Y-90591760D01*
X147787390Y-90591760D01*
X147882640Y-90496510D01*
X147882640Y-89702760D01*
X148136640Y-89702760D01*
X148136640Y-90496510D01*
X148231890Y-90591760D01*
X148720426Y-90591760D01*
X148860460Y-90533756D01*
X148967636Y-90426579D01*
X149025640Y-90286545D01*
X149025640Y-89798010D01*
X148930390Y-89702760D01*
X148136640Y-89702760D01*
X147882640Y-89702760D01*
X146866640Y-89702760D01*
X146612640Y-89702760D01*
X145596640Y-89702760D01*
X145342640Y-89702760D01*
X144548890Y-89702760D01*
X144453640Y-89798010D01*
X103403400Y-89798010D01*
X103403400Y-88849200D01*
X103339512Y-88528010D01*
X144453640Y-88528010D01*
X144453640Y-89353510D01*
X144548890Y-89448760D01*
X145342640Y-89448760D01*
X145342640Y-88432760D01*
X145596640Y-88432760D01*
X145596640Y-89448760D01*
X146612640Y-89448760D01*
X146612640Y-88432760D01*
X146866640Y-88432760D01*
X146866640Y-89448760D01*
X147882640Y-89448760D01*
X147882640Y-88432760D01*
X148136640Y-88432760D01*
X148136640Y-89448760D01*
X148930390Y-89448760D01*
X149025640Y-89353510D01*
X149025640Y-88528010D01*
X148930390Y-88432760D01*
X148136640Y-88432760D01*
X147882640Y-88432760D01*
X146866640Y-88432760D01*
X146612640Y-88432760D01*
X145596640Y-88432760D01*
X145342640Y-88432760D01*
X144548890Y-88432760D01*
X144453640Y-88528010D01*
X103339512Y-88528010D01*
X103326062Y-88460394D01*
X103105820Y-88130780D01*
X102776206Y-87910538D01*
X102387400Y-87833200D01*
X101998594Y-87910538D01*
X101668980Y-88130780D01*
X101448738Y-88460394D01*
X101371400Y-88849200D01*
X101371400Y-91032211D01*
X101320601Y-91287600D01*
X95293938Y-91287600D01*
X95294124Y-91075565D01*
X95045734Y-90474417D01*
X94586203Y-90014082D01*
X93985488Y-89764644D01*
X93335045Y-89764076D01*
X92733897Y-90012466D01*
X92273562Y-90471997D01*
X92024124Y-91072712D01*
X92023556Y-91723155D01*
X88293558Y-91723155D01*
X88294124Y-91075565D01*
X88045734Y-90474417D01*
X87586203Y-90014082D01*
X86985488Y-89764644D01*
X86335045Y-89764076D01*
X85733897Y-90012466D01*
X85273562Y-90471997D01*
X85024124Y-91072712D01*
X85023556Y-91723155D01*
X80545200Y-91723155D01*
X80545200Y-87594975D01*
X144453640Y-87594975D01*
X144453640Y-88083510D01*
X144548890Y-88178760D01*
X145342640Y-88178760D01*
X145342640Y-87385010D01*
X145596640Y-87385010D01*
X145596640Y-88178760D01*
X146612640Y-88178760D01*
X146612640Y-87385010D01*
X146866640Y-87385010D01*
X146866640Y-88178760D01*
X147882640Y-88178760D01*
X147882640Y-87385010D01*
X148136640Y-87385010D01*
X148136640Y-88178760D01*
X148930390Y-88178760D01*
X149025640Y-88083510D01*
X149025640Y-87594975D01*
X148967636Y-87454941D01*
X148860460Y-87347764D01*
X148720426Y-87289760D01*
X148231890Y-87289760D01*
X148136640Y-87385010D01*
X147882640Y-87385010D01*
X147787390Y-87289760D01*
X146961890Y-87289760D01*
X146866640Y-87385010D01*
X146612640Y-87385010D01*
X146517390Y-87289760D01*
X145691890Y-87289760D01*
X145596640Y-87385010D01*
X145342640Y-87385010D01*
X145247390Y-87289760D01*
X144758854Y-87289760D01*
X144618820Y-87347764D01*
X144511644Y-87454941D01*
X144453640Y-87594975D01*
X80545200Y-87594975D01*
X80545200Y-85013800D01*
X81554320Y-85013800D01*
X81631658Y-85402606D01*
X81851900Y-85732220D01*
X82181514Y-85952462D01*
X82570320Y-86029800D01*
X85945896Y-86029800D01*
X86270196Y-85965293D01*
X86334703Y-85952462D01*
X86637108Y-85750400D01*
X86649560Y-85750400D01*
X87038366Y-85673062D01*
X87367980Y-85452820D01*
X87588222Y-85123206D01*
X87665560Y-84734400D01*
X87630194Y-84556600D01*
X88646000Y-84556600D01*
X88713671Y-84896806D01*
X88906382Y-85185218D01*
X89194794Y-85377929D01*
X89535000Y-85445600D01*
X89547352Y-85445600D01*
X89611200Y-85458300D01*
X89951406Y-85390630D01*
X90239818Y-85197918D01*
X90432530Y-84909506D01*
X90500200Y-84569300D01*
X90432530Y-84229095D01*
X90239818Y-83940682D01*
X90227118Y-83927982D01*
X89938706Y-83735271D01*
X89598500Y-83667600D01*
X89535000Y-83667600D01*
X89194794Y-83735271D01*
X88906382Y-83927982D01*
X88713671Y-84216394D01*
X88646000Y-84556600D01*
X87630194Y-84556600D01*
X87588222Y-84345594D01*
X87367980Y-84015980D01*
X87038366Y-83795738D01*
X86649560Y-83718400D01*
X86225296Y-83718400D01*
X85836490Y-83795738D01*
X85836488Y-83795739D01*
X85836489Y-83795739D01*
X85534083Y-83997800D01*
X82570320Y-83997800D01*
X82181514Y-84075138D01*
X81851900Y-84295380D01*
X81631658Y-84624994D01*
X81554320Y-85013800D01*
X80545200Y-85013800D01*
X80545200Y-82407240D01*
X82772751Y-82407240D01*
X82896995Y-82707224D01*
X83214184Y-83067912D01*
X83645258Y-83279761D01*
X83835240Y-83219453D01*
X83835240Y-82217260D01*
X82833613Y-82217260D01*
X82772751Y-82407240D01*
X80545200Y-82407240D01*
X80545200Y-81773280D01*
X82772751Y-81773280D01*
X82833613Y-81963260D01*
X83835240Y-81963260D01*
X83835240Y-80961067D01*
X83645258Y-80900759D01*
X83214184Y-81112608D01*
X82896995Y-81473296D01*
X82772751Y-81773280D01*
X80545200Y-81773280D01*
X80545200Y-79867240D01*
X82772751Y-79867240D01*
X82896995Y-80167224D01*
X83214184Y-80527912D01*
X83645258Y-80739761D01*
X83835240Y-80679453D01*
X83835240Y-79677260D01*
X82833613Y-79677260D01*
X82772751Y-79867240D01*
X80545200Y-79867240D01*
X80545200Y-79233280D01*
X82772751Y-79233280D01*
X82833613Y-79423260D01*
X83835240Y-79423260D01*
X83835240Y-78421067D01*
X83645258Y-78360759D01*
X83214184Y-78572608D01*
X82896995Y-78933296D01*
X82772751Y-79233280D01*
X80545200Y-79233280D01*
X80545200Y-77327240D01*
X82772751Y-77327240D01*
X82896995Y-77627224D01*
X83214184Y-77987912D01*
X83645258Y-78199761D01*
X83835240Y-78139453D01*
X83835240Y-77137260D01*
X82833613Y-77137260D01*
X82772751Y-77327240D01*
X80545200Y-77327240D01*
X80545200Y-76693280D01*
X82772751Y-76693280D01*
X82833613Y-76883260D01*
X83835240Y-76883260D01*
X83835240Y-75881067D01*
X83645258Y-75820759D01*
X83214184Y-76032608D01*
X82896995Y-76393296D01*
X82772751Y-76693280D01*
X80545200Y-76693280D01*
X80545200Y-74787240D01*
X82772751Y-74787240D01*
X82896995Y-75087224D01*
X83214184Y-75447912D01*
X83645258Y-75659761D01*
X83835240Y-75599453D01*
X83835240Y-74597260D01*
X82833613Y-74597260D01*
X82772751Y-74787240D01*
X80545200Y-74787240D01*
X80545200Y-74153280D01*
X82772751Y-74153280D01*
X82833613Y-74343260D01*
X83835240Y-74343260D01*
X83835240Y-73341067D01*
X83645258Y-73280759D01*
X83214184Y-73492608D01*
X82896995Y-73853296D01*
X82772751Y-74153280D01*
X80545200Y-74153280D01*
X80545200Y-72247240D01*
X82772751Y-72247240D01*
X82896995Y-72547224D01*
X83214184Y-72907912D01*
X83645258Y-73119761D01*
X83835240Y-73059453D01*
X83835240Y-72057260D01*
X82833613Y-72057260D01*
X82772751Y-72247240D01*
X80545200Y-72247240D01*
X80545200Y-71613280D01*
X82772751Y-71613280D01*
X82833613Y-71803260D01*
X83835240Y-71803260D01*
X83835240Y-70801067D01*
X83645258Y-70740759D01*
X83214184Y-70952608D01*
X82896995Y-71313296D01*
X82772751Y-71613280D01*
X80545200Y-71613280D01*
X80545200Y-69612510D01*
X82731240Y-69612510D01*
X82731240Y-70316045D01*
X82789244Y-70456079D01*
X82896420Y-70563256D01*
X83036454Y-70621260D01*
X83739990Y-70621260D01*
X83835240Y-70526010D01*
X83835240Y-69517260D01*
X82826490Y-69517260D01*
X82731240Y-69612510D01*
X80545200Y-69612510D01*
X80545200Y-68464475D01*
X82731240Y-68464475D01*
X82731240Y-69168010D01*
X82826490Y-69263260D01*
X83835240Y-69263260D01*
X83835240Y-68254510D01*
X84089240Y-68254510D01*
X84089240Y-69263260D01*
X84109240Y-69263260D01*
X84109240Y-69517260D01*
X84089240Y-69517260D01*
X84089240Y-70526010D01*
X84184490Y-70621260D01*
X84888026Y-70621260D01*
X85028060Y-70563256D01*
X85135236Y-70456079D01*
X85193240Y-70316045D01*
X85193240Y-70096314D01*
X85423093Y-70440314D01*
X85752266Y-70660260D01*
X85423093Y-70880206D01*
X85101186Y-71361975D01*
X85083815Y-71449304D01*
X85027485Y-71313296D01*
X84710296Y-70952608D01*
X84279222Y-70740759D01*
X84089240Y-70801067D01*
X84089240Y-71803260D01*
X84109240Y-71803260D01*
X84109240Y-72057260D01*
X84089240Y-72057260D01*
X84089240Y-73059453D01*
X84279222Y-73119761D01*
X84710296Y-72907912D01*
X85027485Y-72547224D01*
X85083815Y-72411216D01*
X85101186Y-72498545D01*
X85423093Y-72980314D01*
X85752266Y-73200260D01*
X85423093Y-73420206D01*
X85101186Y-73901975D01*
X85083815Y-73989304D01*
X85027485Y-73853296D01*
X84710296Y-73492608D01*
X84279222Y-73280759D01*
X84089240Y-73341067D01*
X84089240Y-74343260D01*
X84109240Y-74343260D01*
X84109240Y-74597260D01*
X84089240Y-74597260D01*
X84089240Y-75599453D01*
X84279222Y-75659761D01*
X84710296Y-75447912D01*
X85027485Y-75087224D01*
X85083815Y-74951216D01*
X85101186Y-75038545D01*
X85423093Y-75520314D01*
X85752266Y-75740260D01*
X85423093Y-75960206D01*
X85101186Y-76441975D01*
X85083815Y-76529304D01*
X85027485Y-76393296D01*
X84710296Y-76032608D01*
X84279222Y-75820759D01*
X84089240Y-75881067D01*
X84089240Y-76883260D01*
X84109240Y-76883260D01*
X84109240Y-77137260D01*
X84089240Y-77137260D01*
X84089240Y-78139453D01*
X84279222Y-78199761D01*
X84710296Y-77987912D01*
X85027485Y-77627224D01*
X85083815Y-77491216D01*
X85101186Y-77578545D01*
X85423093Y-78060314D01*
X85752266Y-78280260D01*
X85423093Y-78500206D01*
X85101186Y-78981975D01*
X85083815Y-79069304D01*
X85027485Y-78933296D01*
X84710296Y-78572608D01*
X84279222Y-78360759D01*
X84089240Y-78421067D01*
X84089240Y-79423260D01*
X84109240Y-79423260D01*
X84109240Y-79677260D01*
X84089240Y-79677260D01*
X84089240Y-80679453D01*
X84279222Y-80739761D01*
X84710296Y-80527912D01*
X85027485Y-80167224D01*
X85083815Y-80031216D01*
X85101186Y-80118545D01*
X85423093Y-80600314D01*
X85752266Y-80820260D01*
X85423093Y-81040206D01*
X85101186Y-81521975D01*
X85083815Y-81609304D01*
X85027485Y-81473296D01*
X84710296Y-81112608D01*
X84279222Y-80900759D01*
X84089240Y-80961067D01*
X84089240Y-81963260D01*
X84109240Y-81963260D01*
X84109240Y-82217260D01*
X84089240Y-82217260D01*
X84089240Y-83219453D01*
X84279222Y-83279761D01*
X84710296Y-83067912D01*
X85027485Y-82707224D01*
X85083815Y-82571216D01*
X85101186Y-82658545D01*
X85423093Y-83140314D01*
X85904862Y-83462221D01*
X86473147Y-83575260D01*
X86531333Y-83575260D01*
X87099618Y-83462221D01*
X87581387Y-83140314D01*
X87903294Y-82658545D01*
X88016333Y-82090260D01*
X87903294Y-81521975D01*
X87581387Y-81040206D01*
X87252214Y-80820260D01*
X87581387Y-80600314D01*
X87903294Y-80118545D01*
X88016333Y-79550260D01*
X87903294Y-78981975D01*
X87581387Y-78500206D01*
X87252214Y-78280260D01*
X87581387Y-78060314D01*
X87903294Y-77578545D01*
X87972985Y-77228182D01*
X107217699Y-77228182D01*
X107429548Y-77659256D01*
X107790236Y-77976445D01*
X108090220Y-78100689D01*
X108280200Y-78039827D01*
X108280200Y-77038200D01*
X107278007Y-77038200D01*
X107217699Y-77228182D01*
X87972985Y-77228182D01*
X88016333Y-77010260D01*
X87933578Y-76594218D01*
X107217699Y-76594218D01*
X107278007Y-76784200D01*
X108280200Y-76784200D01*
X108280200Y-75782573D01*
X108534200Y-75782573D01*
X108534200Y-76784200D01*
X108554200Y-76784200D01*
X108554200Y-77038200D01*
X108534200Y-77038200D01*
X108534200Y-78039827D01*
X108724180Y-78100689D01*
X109024164Y-77976445D01*
X109384852Y-77659256D01*
X109541719Y-77340061D01*
X109575239Y-77508578D01*
X109897146Y-77990347D01*
X110378915Y-78312254D01*
X110947200Y-78425293D01*
X111515485Y-78312254D01*
X111997254Y-77990347D01*
X112217200Y-77661174D01*
X112437146Y-77990347D01*
X112918915Y-78312254D01*
X113487200Y-78425293D01*
X114055485Y-78312254D01*
X114537254Y-77990347D01*
X114565050Y-77948748D01*
X114574038Y-77996517D01*
X114713110Y-78212641D01*
X114925310Y-78357631D01*
X115177200Y-78408640D01*
X116877200Y-78408640D01*
X117112517Y-78364362D01*
X117328641Y-78225290D01*
X117473631Y-78013090D01*
X117524640Y-77761200D01*
X117524640Y-76061200D01*
X117480362Y-75825883D01*
X117341290Y-75609759D01*
X117129090Y-75464769D01*
X116877200Y-75413760D01*
X115177200Y-75413760D01*
X114941883Y-75458038D01*
X114725759Y-75597110D01*
X114580769Y-75809310D01*
X114567114Y-75876741D01*
X114537254Y-75832053D01*
X114055485Y-75510146D01*
X113487200Y-75397107D01*
X112918915Y-75510146D01*
X112437146Y-75832053D01*
X112217200Y-76161226D01*
X111997254Y-75832053D01*
X111515485Y-75510146D01*
X110947200Y-75397107D01*
X110378915Y-75510146D01*
X109897146Y-75832053D01*
X109575239Y-76313822D01*
X109541719Y-76482339D01*
X109384852Y-76163144D01*
X109024164Y-75845955D01*
X108724180Y-75721711D01*
X108534200Y-75782573D01*
X108280200Y-75782573D01*
X108090220Y-75721711D01*
X107790236Y-75845955D01*
X107429548Y-76163144D01*
X107217699Y-76594218D01*
X87933578Y-76594218D01*
X87903294Y-76441975D01*
X87581387Y-75960206D01*
X87252214Y-75740260D01*
X87581387Y-75520314D01*
X87903294Y-75038545D01*
X87989100Y-74607167D01*
X103585838Y-74607167D01*
X103727883Y-74950943D01*
X103990673Y-75214192D01*
X104334201Y-75356838D01*
X104706167Y-75357162D01*
X104710997Y-75355166D01*
X105123545Y-75767714D01*
X105123547Y-75767717D01*
X105240639Y-75845955D01*
X105391359Y-75946663D01*
X105707264Y-76009501D01*
X105707269Y-76009500D01*
X106229887Y-76009500D01*
X106493201Y-76118838D01*
X106865167Y-76119162D01*
X107208943Y-75977117D01*
X107472192Y-75714327D01*
X107614838Y-75370799D01*
X107615162Y-74998833D01*
X107473117Y-74655057D01*
X107210327Y-74391808D01*
X106866799Y-74249162D01*
X106494833Y-74248838D01*
X106229430Y-74358500D01*
X106049197Y-74358500D01*
X105528981Y-73838283D01*
X105261170Y-73659337D01*
X104994880Y-73606369D01*
X104707799Y-73487162D01*
X104335833Y-73486838D01*
X103992057Y-73628883D01*
X103728808Y-73891673D01*
X103586162Y-74235201D01*
X103585838Y-74607167D01*
X87989100Y-74607167D01*
X88016333Y-74470260D01*
X87903294Y-73901975D01*
X87581387Y-73420206D01*
X87252214Y-73200260D01*
X87581387Y-72980314D01*
X87903294Y-72498545D01*
X88016333Y-71930260D01*
X87903294Y-71361975D01*
X87876537Y-71321930D01*
X145130520Y-71321930D01*
X145130520Y-71810465D01*
X145188524Y-71950499D01*
X145295700Y-72057676D01*
X145435734Y-72115680D01*
X145924270Y-72115680D01*
X146019520Y-72020430D01*
X146019520Y-71226680D01*
X146273520Y-71226680D01*
X146273520Y-72020430D01*
X146368770Y-72115680D01*
X147194270Y-72115680D01*
X147289520Y-72020430D01*
X147289520Y-71226680D01*
X147543520Y-71226680D01*
X147543520Y-72020430D01*
X147638770Y-72115680D01*
X148464270Y-72115680D01*
X148559520Y-72020430D01*
X148559520Y-71226680D01*
X148813520Y-71226680D01*
X148813520Y-72020430D01*
X148908770Y-72115680D01*
X149397306Y-72115680D01*
X149537340Y-72057676D01*
X149644516Y-71950499D01*
X149702520Y-71810465D01*
X149702520Y-71321930D01*
X149607270Y-71226680D01*
X148813520Y-71226680D01*
X148559520Y-71226680D01*
X147543520Y-71226680D01*
X147289520Y-71226680D01*
X146273520Y-71226680D01*
X146019520Y-71226680D01*
X145225770Y-71226680D01*
X145130520Y-71321930D01*
X87876537Y-71321930D01*
X87581387Y-70880206D01*
X87252214Y-70660260D01*
X87581387Y-70440314D01*
X87840896Y-70051930D01*
X145130520Y-70051930D01*
X145130520Y-70877430D01*
X145225770Y-70972680D01*
X146019520Y-70972680D01*
X146019520Y-69956680D01*
X146273520Y-69956680D01*
X146273520Y-70972680D01*
X147289520Y-70972680D01*
X147289520Y-69956680D01*
X147543520Y-69956680D01*
X147543520Y-70972680D01*
X148559520Y-70972680D01*
X148559520Y-69956680D01*
X148813520Y-69956680D01*
X148813520Y-70972680D01*
X149607270Y-70972680D01*
X149702520Y-70877430D01*
X149702520Y-70051930D01*
X149607270Y-69956680D01*
X148813520Y-69956680D01*
X148559520Y-69956680D01*
X147543520Y-69956680D01*
X147289520Y-69956680D01*
X146273520Y-69956680D01*
X146019520Y-69956680D01*
X145225770Y-69956680D01*
X145130520Y-70051930D01*
X87840896Y-70051930D01*
X87903294Y-69958545D01*
X88016333Y-69390260D01*
X87962356Y-69118895D01*
X145130520Y-69118895D01*
X145130520Y-69607430D01*
X145225770Y-69702680D01*
X146019520Y-69702680D01*
X146019520Y-68908930D01*
X146273520Y-68908930D01*
X146273520Y-69702680D01*
X147289520Y-69702680D01*
X147289520Y-68908930D01*
X147543520Y-68908930D01*
X147543520Y-69702680D01*
X148559520Y-69702680D01*
X148559520Y-68908930D01*
X148813520Y-68908930D01*
X148813520Y-69702680D01*
X149607270Y-69702680D01*
X149702520Y-69607430D01*
X149702520Y-69461203D01*
X166995546Y-69461203D01*
X166995546Y-69595907D01*
X167340993Y-69941354D01*
X167481027Y-69999358D01*
X167632598Y-69999357D01*
X167772632Y-69941353D01*
X168118078Y-69595907D01*
X168118078Y-69461203D01*
X167556812Y-68899937D01*
X166995546Y-69461203D01*
X149702520Y-69461203D01*
X149702520Y-69118895D01*
X149644516Y-68978861D01*
X149537340Y-68871684D01*
X149397306Y-68813680D01*
X148908770Y-68813680D01*
X148813520Y-68908930D01*
X148559520Y-68908930D01*
X148464270Y-68813680D01*
X147638770Y-68813680D01*
X147543520Y-68908930D01*
X147289520Y-68908930D01*
X147194270Y-68813680D01*
X146368770Y-68813680D01*
X146273520Y-68908930D01*
X146019520Y-68908930D01*
X145924270Y-68813680D01*
X145435734Y-68813680D01*
X145295700Y-68871684D01*
X145188524Y-68978861D01*
X145130520Y-69118895D01*
X87962356Y-69118895D01*
X87903294Y-68821975D01*
X87886017Y-68796117D01*
X166277786Y-68796117D01*
X166335790Y-68936151D01*
X166681237Y-69281598D01*
X166815941Y-69281598D01*
X167377207Y-68720332D01*
X167736417Y-68720332D01*
X168297683Y-69281598D01*
X168432387Y-69281598D01*
X168777833Y-68936152D01*
X168835837Y-68796118D01*
X168835838Y-68644547D01*
X168777834Y-68504513D01*
X168432387Y-68159066D01*
X168297683Y-68159066D01*
X167736417Y-68720332D01*
X167377207Y-68720332D01*
X166815941Y-68159066D01*
X166681237Y-68159066D01*
X166335791Y-68504512D01*
X166277787Y-68644546D01*
X166277786Y-68796117D01*
X87886017Y-68796117D01*
X87581387Y-68340206D01*
X87099618Y-68018299D01*
X86531333Y-67905260D01*
X86473147Y-67905260D01*
X85904862Y-68018299D01*
X85423093Y-68340206D01*
X85193240Y-68684206D01*
X85193240Y-68464475D01*
X85135236Y-68324441D01*
X85028060Y-68217264D01*
X84888026Y-68159260D01*
X84184490Y-68159260D01*
X84089240Y-68254510D01*
X83835240Y-68254510D01*
X83739990Y-68159260D01*
X83036454Y-68159260D01*
X82896420Y-68217264D01*
X82789244Y-68324441D01*
X82731240Y-68464475D01*
X80545200Y-68464475D01*
X80545200Y-67844757D01*
X166995546Y-67844757D01*
X166995546Y-67979461D01*
X167556812Y-68540727D01*
X168118078Y-67979461D01*
X168118078Y-67975756D01*
X168185724Y-67947736D01*
X168531170Y-67602290D01*
X168531170Y-67467586D01*
X167969904Y-66906320D01*
X167408638Y-67467586D01*
X167408638Y-67471291D01*
X167340992Y-67499311D01*
X166995546Y-67844757D01*
X80545200Y-67844757D01*
X80545200Y-66802500D01*
X166690878Y-66802500D01*
X166748882Y-66942534D01*
X167094329Y-67287981D01*
X167229033Y-67287981D01*
X167790299Y-66726715D01*
X168149509Y-66726715D01*
X168710775Y-67287981D01*
X168845479Y-67287981D01*
X169190925Y-66942535D01*
X169248929Y-66802501D01*
X169248930Y-66650930D01*
X169190926Y-66510896D01*
X168845479Y-66165449D01*
X168710775Y-66165449D01*
X168149509Y-66726715D01*
X167790299Y-66726715D01*
X167229033Y-66165449D01*
X167094329Y-66165449D01*
X166748883Y-66510895D01*
X166690879Y-66650929D01*
X166690878Y-66802500D01*
X80545200Y-66802500D01*
X80545200Y-65231010D01*
X104561640Y-65231010D01*
X104561640Y-65719545D01*
X104619644Y-65859579D01*
X104726820Y-65966756D01*
X104866854Y-66024760D01*
X105355390Y-66024760D01*
X105450640Y-65929510D01*
X105450640Y-65135760D01*
X105704640Y-65135760D01*
X105704640Y-65929510D01*
X105799890Y-66024760D01*
X106625390Y-66024760D01*
X106720640Y-65929510D01*
X106720640Y-65135760D01*
X106974640Y-65135760D01*
X106974640Y-65929510D01*
X107069890Y-66024760D01*
X107895390Y-66024760D01*
X107990640Y-65929510D01*
X107990640Y-65135760D01*
X108244640Y-65135760D01*
X108244640Y-65929510D01*
X108339890Y-66024760D01*
X108828426Y-66024760D01*
X108968460Y-65966756D01*
X109075636Y-65859579D01*
X109133640Y-65719545D01*
X109133640Y-65317370D01*
X121352760Y-65317370D01*
X121352760Y-65595905D01*
X121410764Y-65735939D01*
X121517940Y-65843116D01*
X121657974Y-65901120D01*
X121936510Y-65901120D01*
X122031760Y-65805870D01*
X122031760Y-65222120D01*
X122285760Y-65222120D01*
X122285760Y-65805870D01*
X122381010Y-65901120D01*
X122659546Y-65901120D01*
X122793760Y-65845527D01*
X122927974Y-65901120D01*
X123206510Y-65901120D01*
X123301760Y-65805870D01*
X123301760Y-65222120D01*
X123555760Y-65222120D01*
X123555760Y-65805870D01*
X123651010Y-65901120D01*
X123929546Y-65901120D01*
X124063760Y-65845527D01*
X124197974Y-65901120D01*
X124476510Y-65901120D01*
X124571760Y-65805870D01*
X124571760Y-65222120D01*
X124825760Y-65222120D01*
X124825760Y-65805870D01*
X124921010Y-65901120D01*
X125199546Y-65901120D01*
X125333760Y-65845527D01*
X125467974Y-65901120D01*
X125746510Y-65901120D01*
X125841760Y-65805870D01*
X125841760Y-65222120D01*
X126095760Y-65222120D01*
X126095760Y-65805870D01*
X126191010Y-65901120D01*
X126469546Y-65901120D01*
X126603760Y-65845527D01*
X126737974Y-65901120D01*
X127016510Y-65901120D01*
X127111760Y-65805870D01*
X127111760Y-65222120D01*
X127365760Y-65222120D01*
X127365760Y-65805870D01*
X127461010Y-65901120D01*
X127739546Y-65901120D01*
X127879580Y-65843116D01*
X127986756Y-65735939D01*
X128044760Y-65595905D01*
X128044760Y-65317370D01*
X127953320Y-65225930D01*
X145155920Y-65225930D01*
X145155920Y-65714465D01*
X145213924Y-65854499D01*
X145321100Y-65961676D01*
X145461134Y-66019680D01*
X145949670Y-66019680D01*
X146044920Y-65924430D01*
X146044920Y-65130680D01*
X146298920Y-65130680D01*
X146298920Y-65924430D01*
X146394170Y-66019680D01*
X147219670Y-66019680D01*
X147314920Y-65924430D01*
X147314920Y-65130680D01*
X147568920Y-65130680D01*
X147568920Y-65924430D01*
X147664170Y-66019680D01*
X148489670Y-66019680D01*
X148584920Y-65924430D01*
X148584920Y-65130680D01*
X148838920Y-65130680D01*
X148838920Y-65924430D01*
X148934170Y-66019680D01*
X149422706Y-66019680D01*
X149562740Y-65961676D01*
X149669916Y-65854499D01*
X149693625Y-65797259D01*
X163331602Y-65797259D01*
X163331602Y-65931963D01*
X163677049Y-66277410D01*
X163817083Y-66335414D01*
X163968654Y-66335413D01*
X164108688Y-66277409D01*
X164454134Y-65931963D01*
X164454134Y-65797259D01*
X163892868Y-65235993D01*
X163331602Y-65797259D01*
X149693625Y-65797259D01*
X149727920Y-65714465D01*
X149727920Y-65225930D01*
X149634163Y-65132173D01*
X162613842Y-65132173D01*
X162671846Y-65272207D01*
X163017293Y-65617654D01*
X163151997Y-65617654D01*
X163713263Y-65056388D01*
X164072473Y-65056388D01*
X164633739Y-65617654D01*
X164768443Y-65617654D01*
X164983970Y-65402127D01*
X165343179Y-65402127D01*
X165343179Y-65536831D01*
X165688626Y-65882278D01*
X165828660Y-65940282D01*
X165980231Y-65940281D01*
X166120265Y-65882277D01*
X166151402Y-65851140D01*
X167408638Y-65851140D01*
X167408638Y-65985844D01*
X167969904Y-66547110D01*
X168531170Y-65985844D01*
X168531170Y-65851140D01*
X168185723Y-65505693D01*
X168045689Y-65447689D01*
X167894118Y-65447690D01*
X167754084Y-65505694D01*
X167408638Y-65851140D01*
X166151402Y-65851140D01*
X166465711Y-65536831D01*
X166465711Y-65402127D01*
X165904445Y-64840861D01*
X165343179Y-65402127D01*
X164983970Y-65402127D01*
X165113889Y-65272208D01*
X165134470Y-65222522D01*
X165163574Y-65222522D01*
X165724840Y-64661256D01*
X166084050Y-64661256D01*
X166645316Y-65222522D01*
X166780020Y-65222522D01*
X167125466Y-64877076D01*
X167183470Y-64737042D01*
X167183471Y-64585471D01*
X167125467Y-64445437D01*
X166780020Y-64099990D01*
X166645316Y-64099990D01*
X166084050Y-64661256D01*
X165724840Y-64661256D01*
X165163574Y-64099990D01*
X165028870Y-64099990D01*
X164683424Y-64445436D01*
X164662843Y-64495122D01*
X164633739Y-64495122D01*
X164072473Y-65056388D01*
X163713263Y-65056388D01*
X163151997Y-64495122D01*
X163017293Y-64495122D01*
X162671847Y-64840568D01*
X162613843Y-64980602D01*
X162613842Y-65132173D01*
X149634163Y-65132173D01*
X149632670Y-65130680D01*
X148838920Y-65130680D01*
X148584920Y-65130680D01*
X147568920Y-65130680D01*
X147314920Y-65130680D01*
X146298920Y-65130680D01*
X146044920Y-65130680D01*
X145251170Y-65130680D01*
X145155920Y-65225930D01*
X127953320Y-65225930D01*
X127949510Y-65222120D01*
X127365760Y-65222120D01*
X127111760Y-65222120D01*
X126095760Y-65222120D01*
X125841760Y-65222120D01*
X124825760Y-65222120D01*
X124571760Y-65222120D01*
X123555760Y-65222120D01*
X123301760Y-65222120D01*
X122285760Y-65222120D01*
X122031760Y-65222120D01*
X121448010Y-65222120D01*
X121352760Y-65317370D01*
X109133640Y-65317370D01*
X109133640Y-65231010D01*
X109038390Y-65135760D01*
X108244640Y-65135760D01*
X107990640Y-65135760D01*
X106974640Y-65135760D01*
X106720640Y-65135760D01*
X105704640Y-65135760D01*
X105450640Y-65135760D01*
X104656890Y-65135760D01*
X104561640Y-65231010D01*
X80545200Y-65231010D01*
X80545200Y-63961010D01*
X104561640Y-63961010D01*
X104561640Y-64786510D01*
X104656890Y-64881760D01*
X105450640Y-64881760D01*
X105450640Y-63865760D01*
X105704640Y-63865760D01*
X105704640Y-64881760D01*
X106720640Y-64881760D01*
X106720640Y-63865760D01*
X106974640Y-63865760D01*
X106974640Y-64881760D01*
X107990640Y-64881760D01*
X107990640Y-63865760D01*
X108244640Y-63865760D01*
X108244640Y-64881760D01*
X109038390Y-64881760D01*
X109133640Y-64786510D01*
X109133640Y-64047370D01*
X121352760Y-64047370D01*
X121352760Y-64325905D01*
X121408354Y-64460120D01*
X121352760Y-64594335D01*
X121352760Y-64872870D01*
X121448010Y-64968120D01*
X122031760Y-64968120D01*
X122031760Y-63952120D01*
X122285760Y-63952120D01*
X122285760Y-64968120D01*
X123301760Y-64968120D01*
X123301760Y-63952120D01*
X123555760Y-63952120D01*
X123555760Y-64968120D01*
X124571760Y-64968120D01*
X124571760Y-63952120D01*
X124825760Y-63952120D01*
X124825760Y-64968120D01*
X125841760Y-64968120D01*
X125841760Y-63952120D01*
X126095760Y-63952120D01*
X126095760Y-64968120D01*
X127111760Y-64968120D01*
X127111760Y-63952120D01*
X127365760Y-63952120D01*
X127365760Y-64968120D01*
X127949510Y-64968120D01*
X128044760Y-64872870D01*
X128044760Y-64594335D01*
X127989166Y-64460120D01*
X128044760Y-64325905D01*
X128044760Y-64047370D01*
X127953320Y-63955930D01*
X145155920Y-63955930D01*
X145155920Y-64781430D01*
X145251170Y-64876680D01*
X146044920Y-64876680D01*
X146044920Y-63860680D01*
X146298920Y-63860680D01*
X146298920Y-64876680D01*
X147314920Y-64876680D01*
X147314920Y-63860680D01*
X147568920Y-63860680D01*
X147568920Y-64876680D01*
X148584920Y-64876680D01*
X148584920Y-63860680D01*
X148838920Y-63860680D01*
X148838920Y-64876680D01*
X149632670Y-64876680D01*
X149727920Y-64781430D01*
X149727920Y-64180813D01*
X163331602Y-64180813D01*
X163331602Y-64315517D01*
X163892868Y-64876783D01*
X164454134Y-64315517D01*
X164454134Y-64180813D01*
X164108687Y-63835366D01*
X163988737Y-63785681D01*
X165343179Y-63785681D01*
X165343179Y-63920385D01*
X165904445Y-64481651D01*
X166465711Y-63920385D01*
X166465711Y-63785681D01*
X166120264Y-63440234D01*
X165980230Y-63382230D01*
X165828659Y-63382231D01*
X165688625Y-63440235D01*
X165343179Y-63785681D01*
X163988737Y-63785681D01*
X163968653Y-63777362D01*
X163817082Y-63777363D01*
X163677048Y-63835367D01*
X163331602Y-64180813D01*
X149727920Y-64180813D01*
X149727920Y-63955930D01*
X149632670Y-63860680D01*
X148838920Y-63860680D01*
X148584920Y-63860680D01*
X147568920Y-63860680D01*
X147314920Y-63860680D01*
X146298920Y-63860680D01*
X146044920Y-63860680D01*
X145251170Y-63860680D01*
X145155920Y-63955930D01*
X127953320Y-63955930D01*
X127949510Y-63952120D01*
X127365760Y-63952120D01*
X127111760Y-63952120D01*
X126095760Y-63952120D01*
X125841760Y-63952120D01*
X124825760Y-63952120D01*
X124571760Y-63952120D01*
X123555760Y-63952120D01*
X123301760Y-63952120D01*
X122285760Y-63952120D01*
X122031760Y-63952120D01*
X121448010Y-63952120D01*
X121352760Y-64047370D01*
X109133640Y-64047370D01*
X109133640Y-63961010D01*
X109038390Y-63865760D01*
X108244640Y-63865760D01*
X107990640Y-63865760D01*
X106974640Y-63865760D01*
X106720640Y-63865760D01*
X105704640Y-63865760D01*
X105450640Y-63865760D01*
X104656890Y-63865760D01*
X104561640Y-63961010D01*
X80545200Y-63961010D01*
X80545200Y-63027975D01*
X104561640Y-63027975D01*
X104561640Y-63516510D01*
X104656890Y-63611760D01*
X105450640Y-63611760D01*
X105450640Y-62818010D01*
X105704640Y-62818010D01*
X105704640Y-63611760D01*
X106720640Y-63611760D01*
X106720640Y-62818010D01*
X106974640Y-62818010D01*
X106974640Y-63611760D01*
X107990640Y-63611760D01*
X107990640Y-62818010D01*
X108244640Y-62818010D01*
X108244640Y-63611760D01*
X109038390Y-63611760D01*
X109133640Y-63516510D01*
X109133640Y-63324335D01*
X121352760Y-63324335D01*
X121352760Y-63602870D01*
X121448010Y-63698120D01*
X122031760Y-63698120D01*
X122031760Y-63114370D01*
X122285760Y-63114370D01*
X122285760Y-63698120D01*
X123301760Y-63698120D01*
X123301760Y-63114370D01*
X123555760Y-63114370D01*
X123555760Y-63698120D01*
X124571760Y-63698120D01*
X124571760Y-63114370D01*
X124825760Y-63114370D01*
X124825760Y-63698120D01*
X125841760Y-63698120D01*
X125841760Y-63114370D01*
X126095760Y-63114370D01*
X126095760Y-63698120D01*
X127111760Y-63698120D01*
X127111760Y-63114370D01*
X127365760Y-63114370D01*
X127365760Y-63698120D01*
X127949510Y-63698120D01*
X128044760Y-63602870D01*
X128044760Y-63324335D01*
X127986756Y-63184301D01*
X127879580Y-63077124D01*
X127748660Y-63022895D01*
X145155920Y-63022895D01*
X145155920Y-63511430D01*
X145251170Y-63606680D01*
X146044920Y-63606680D01*
X146044920Y-62812930D01*
X146298920Y-62812930D01*
X146298920Y-63606680D01*
X147314920Y-63606680D01*
X147314920Y-62812930D01*
X147568920Y-62812930D01*
X147568920Y-63606680D01*
X148584920Y-63606680D01*
X148584920Y-62812930D01*
X148838920Y-62812930D01*
X148838920Y-63606680D01*
X149632670Y-63606680D01*
X149727920Y-63511430D01*
X149727920Y-63022895D01*
X149669916Y-62882861D01*
X149562740Y-62775684D01*
X149422706Y-62717680D01*
X148934170Y-62717680D01*
X148838920Y-62812930D01*
X148584920Y-62812930D01*
X148489670Y-62717680D01*
X147664170Y-62717680D01*
X147568920Y-62812930D01*
X147314920Y-62812930D01*
X147219670Y-62717680D01*
X146394170Y-62717680D01*
X146298920Y-62812930D01*
X146044920Y-62812930D01*
X145949670Y-62717680D01*
X145461134Y-62717680D01*
X145321100Y-62775684D01*
X145213924Y-62882861D01*
X145155920Y-63022895D01*
X127748660Y-63022895D01*
X127739546Y-63019120D01*
X127461010Y-63019120D01*
X127365760Y-63114370D01*
X127111760Y-63114370D01*
X127016510Y-63019120D01*
X126737974Y-63019120D01*
X126603760Y-63074713D01*
X126469546Y-63019120D01*
X126191010Y-63019120D01*
X126095760Y-63114370D01*
X125841760Y-63114370D01*
X125746510Y-63019120D01*
X125467974Y-63019120D01*
X125333760Y-63074713D01*
X125199546Y-63019120D01*
X124921010Y-63019120D01*
X124825760Y-63114370D01*
X124571760Y-63114370D01*
X124476510Y-63019120D01*
X124197974Y-63019120D01*
X124063760Y-63074713D01*
X123929546Y-63019120D01*
X123651010Y-63019120D01*
X123555760Y-63114370D01*
X123301760Y-63114370D01*
X123206510Y-63019120D01*
X122927974Y-63019120D01*
X122793760Y-63074713D01*
X122659546Y-63019120D01*
X122381010Y-63019120D01*
X122285760Y-63114370D01*
X122031760Y-63114370D01*
X121936510Y-63019120D01*
X121657974Y-63019120D01*
X121517940Y-63077124D01*
X121410764Y-63184301D01*
X121352760Y-63324335D01*
X109133640Y-63324335D01*
X109133640Y-63027975D01*
X109075636Y-62887941D01*
X108968460Y-62780764D01*
X108828426Y-62722760D01*
X108339890Y-62722760D01*
X108244640Y-62818010D01*
X107990640Y-62818010D01*
X107895390Y-62722760D01*
X107069890Y-62722760D01*
X106974640Y-62818010D01*
X106720640Y-62818010D01*
X106625390Y-62722760D01*
X105799890Y-62722760D01*
X105704640Y-62818010D01*
X105450640Y-62818010D01*
X105355390Y-62722760D01*
X104866854Y-62722760D01*
X104726820Y-62780764D01*
X104619644Y-62887941D01*
X104561640Y-63027975D01*
X80545200Y-63027975D01*
X80545200Y-59135010D01*
X104587040Y-59135010D01*
X104587040Y-59623545D01*
X104645044Y-59763579D01*
X104752220Y-59870756D01*
X104892254Y-59928760D01*
X105380790Y-59928760D01*
X105476040Y-59833510D01*
X105476040Y-59039760D01*
X105730040Y-59039760D01*
X105730040Y-59833510D01*
X105825290Y-59928760D01*
X106650790Y-59928760D01*
X106746040Y-59833510D01*
X106746040Y-59039760D01*
X107000040Y-59039760D01*
X107000040Y-59833510D01*
X107095290Y-59928760D01*
X107920790Y-59928760D01*
X108016040Y-59833510D01*
X108016040Y-59039760D01*
X108270040Y-59039760D01*
X108270040Y-59833510D01*
X108365290Y-59928760D01*
X108853826Y-59928760D01*
X108993860Y-59870756D01*
X109101036Y-59763579D01*
X109159040Y-59623545D01*
X109159040Y-59135010D01*
X109063790Y-59039760D01*
X108270040Y-59039760D01*
X108016040Y-59039760D01*
X107000040Y-59039760D01*
X106746040Y-59039760D01*
X105730040Y-59039760D01*
X105476040Y-59039760D01*
X104682290Y-59039760D01*
X104587040Y-59135010D01*
X80545200Y-59135010D01*
X80545200Y-57865010D01*
X104587040Y-57865010D01*
X104587040Y-58690510D01*
X104682290Y-58785760D01*
X105476040Y-58785760D01*
X105476040Y-57769760D01*
X105730040Y-57769760D01*
X105730040Y-58785760D01*
X106746040Y-58785760D01*
X106746040Y-57769760D01*
X107000040Y-57769760D01*
X107000040Y-58785760D01*
X108016040Y-58785760D01*
X108016040Y-57769760D01*
X108270040Y-57769760D01*
X108270040Y-58785760D01*
X109063790Y-58785760D01*
X109120940Y-58728610D01*
X116398040Y-58728610D01*
X116398040Y-59217145D01*
X116456044Y-59357179D01*
X116563220Y-59464356D01*
X116703254Y-59522360D01*
X117191790Y-59522360D01*
X117287040Y-59427110D01*
X117287040Y-58633360D01*
X117541040Y-58633360D01*
X117541040Y-59427110D01*
X117636290Y-59522360D01*
X118124826Y-59522360D01*
X118264860Y-59464356D01*
X118372036Y-59357179D01*
X118430040Y-59217145D01*
X118430040Y-58728610D01*
X121579640Y-58728610D01*
X121579640Y-59217145D01*
X121637644Y-59357179D01*
X121744820Y-59464356D01*
X121884854Y-59522360D01*
X122373390Y-59522360D01*
X122468640Y-59427110D01*
X122468640Y-58633360D01*
X122722640Y-58633360D01*
X122722640Y-59427110D01*
X122817890Y-59522360D01*
X123306426Y-59522360D01*
X123446460Y-59464356D01*
X123553636Y-59357179D01*
X123611640Y-59217145D01*
X123611640Y-58728610D01*
X123516390Y-58633360D01*
X122722640Y-58633360D01*
X122468640Y-58633360D01*
X121674890Y-58633360D01*
X121579640Y-58728610D01*
X118430040Y-58728610D01*
X118334790Y-58633360D01*
X117541040Y-58633360D01*
X117287040Y-58633360D01*
X116493290Y-58633360D01*
X116398040Y-58728610D01*
X109120940Y-58728610D01*
X109159040Y-58690510D01*
X109159040Y-57865010D01*
X109089605Y-57795575D01*
X116398040Y-57795575D01*
X116398040Y-58284110D01*
X116493290Y-58379360D01*
X117287040Y-58379360D01*
X117287040Y-57585610D01*
X117191790Y-57490360D01*
X116703254Y-57490360D01*
X116563220Y-57548364D01*
X116456044Y-57655541D01*
X116398040Y-57795575D01*
X109089605Y-57795575D01*
X109063790Y-57769760D01*
X108270040Y-57769760D01*
X108016040Y-57769760D01*
X107000040Y-57769760D01*
X106746040Y-57769760D01*
X105730040Y-57769760D01*
X105476040Y-57769760D01*
X104682290Y-57769760D01*
X104587040Y-57865010D01*
X80545200Y-57865010D01*
X80545200Y-56931975D01*
X104587040Y-56931975D01*
X104587040Y-57420510D01*
X104682290Y-57515760D01*
X105476040Y-57515760D01*
X105476040Y-56722010D01*
X105730040Y-56722010D01*
X105730040Y-57515760D01*
X106746040Y-57515760D01*
X106746040Y-56722010D01*
X107000040Y-56722010D01*
X107000040Y-57515760D01*
X108016040Y-57515760D01*
X108016040Y-56722010D01*
X108270040Y-56722010D01*
X108270040Y-57515760D01*
X109063790Y-57515760D01*
X109159040Y-57420510D01*
X109159040Y-57026810D01*
X117541040Y-57026810D01*
X117541040Y-57515345D01*
X117561620Y-57565030D01*
X117541040Y-57585610D01*
X117541040Y-58379360D01*
X118334790Y-58379360D01*
X118430040Y-58284110D01*
X118430040Y-57795575D01*
X118409460Y-57745890D01*
X118430040Y-57725310D01*
X118430040Y-56931560D01*
X118684040Y-56931560D01*
X118684040Y-57725310D01*
X118779290Y-57820560D01*
X119267826Y-57820560D01*
X119407860Y-57762556D01*
X119515036Y-57655379D01*
X119573040Y-57515345D01*
X119573040Y-57026810D01*
X120462040Y-57026810D01*
X120462040Y-57515345D01*
X120520044Y-57655379D01*
X120627220Y-57762556D01*
X120767254Y-57820560D01*
X121255790Y-57820560D01*
X121280775Y-57795575D01*
X121579640Y-57795575D01*
X121579640Y-58284110D01*
X121674890Y-58379360D01*
X122468640Y-58379360D01*
X122468640Y-57585610D01*
X122722640Y-57585610D01*
X122722640Y-58379360D01*
X123516390Y-58379360D01*
X123611640Y-58284110D01*
X123611640Y-57795575D01*
X123553636Y-57655541D01*
X123446460Y-57548364D01*
X123306426Y-57490360D01*
X122817890Y-57490360D01*
X122722640Y-57585610D01*
X122468640Y-57585610D01*
X122466020Y-57582990D01*
X122494040Y-57515345D01*
X122494040Y-57462272D01*
X172160738Y-57462272D01*
X172565909Y-58442861D01*
X173315493Y-59193755D01*
X174295373Y-59600636D01*
X175356372Y-59601562D01*
X176336961Y-59196391D01*
X177087855Y-58446807D01*
X177494736Y-57466927D01*
X177495662Y-56405928D01*
X177090491Y-55425339D01*
X176340907Y-54674445D01*
X175361027Y-54267564D01*
X174300028Y-54266638D01*
X173319439Y-54671809D01*
X172568545Y-55421393D01*
X172161664Y-56401273D01*
X172160738Y-57462272D01*
X122494040Y-57462272D01*
X122494040Y-57026810D01*
X122398790Y-56931560D01*
X121605040Y-56931560D01*
X121605040Y-57725310D01*
X121607660Y-57727930D01*
X121579640Y-57795575D01*
X121280775Y-57795575D01*
X121351040Y-57725310D01*
X121351040Y-56931560D01*
X120557290Y-56931560D01*
X120462040Y-57026810D01*
X119573040Y-57026810D01*
X119477790Y-56931560D01*
X118684040Y-56931560D01*
X118430040Y-56931560D01*
X117636290Y-56931560D01*
X117541040Y-57026810D01*
X109159040Y-57026810D01*
X109159040Y-56931975D01*
X109101036Y-56791941D01*
X108993860Y-56684764D01*
X108853826Y-56626760D01*
X108365290Y-56626760D01*
X108270040Y-56722010D01*
X108016040Y-56722010D01*
X107920790Y-56626760D01*
X107095290Y-56626760D01*
X107000040Y-56722010D01*
X106746040Y-56722010D01*
X106650790Y-56626760D01*
X105825290Y-56626760D01*
X105730040Y-56722010D01*
X105476040Y-56722010D01*
X105380790Y-56626760D01*
X104892254Y-56626760D01*
X104752220Y-56684764D01*
X104645044Y-56791941D01*
X104587040Y-56931975D01*
X80545200Y-56931975D01*
X80545200Y-56093775D01*
X117541040Y-56093775D01*
X117541040Y-56582310D01*
X117636290Y-56677560D01*
X118430040Y-56677560D01*
X118430040Y-55883810D01*
X118684040Y-55883810D01*
X118684040Y-56677560D01*
X119477790Y-56677560D01*
X119573040Y-56582310D01*
X119573040Y-56093775D01*
X120462040Y-56093775D01*
X120462040Y-56582310D01*
X120557290Y-56677560D01*
X121351040Y-56677560D01*
X121351040Y-55883810D01*
X121605040Y-55883810D01*
X121605040Y-56677560D01*
X122398790Y-56677560D01*
X122494040Y-56582310D01*
X122494040Y-56093775D01*
X122436036Y-55953741D01*
X122328860Y-55846564D01*
X122188826Y-55788560D01*
X121700290Y-55788560D01*
X121605040Y-55883810D01*
X121351040Y-55883810D01*
X121255790Y-55788560D01*
X120767254Y-55788560D01*
X120627220Y-55846564D01*
X120520044Y-55953741D01*
X120462040Y-56093775D01*
X119573040Y-56093775D01*
X119515036Y-55953741D01*
X119407860Y-55846564D01*
X119267826Y-55788560D01*
X118779290Y-55788560D01*
X118684040Y-55883810D01*
X118430040Y-55883810D01*
X118334790Y-55788560D01*
X117846254Y-55788560D01*
X117706220Y-55846564D01*
X117599044Y-55953741D01*
X117541040Y-56093775D01*
X80545200Y-56093775D01*
X80545200Y-52640400D01*
X179125200Y-52640400D01*
X179125200Y-151220400D01*
M02*
