G04 #@! TF.FileFunction,Legend,Top*
%FSLAX46Y46*%
G04 Gerber Fmt 4.6, Leading zero omitted, Abs format (unit mm)*
G04 Created by KiCad (PCBNEW 4.0.7) date 11/10/17 13:59:16*
%MOMM*%
%LPD*%
G01*
G04 APERTURE LIST*
%ADD10C,0.100000*%
%ADD11C,0.300000*%
%ADD12C,0.150000*%
%ADD13C,0.120000*%
%ADD14C,0.010000*%
%ADD15C,0.127000*%
G04 APERTURE END LIST*
D10*
D11*
X119624700Y-111137400D02*
X119481843Y-111065971D01*
X119267557Y-111065971D01*
X119053272Y-111137400D01*
X118910414Y-111280257D01*
X118838986Y-111423114D01*
X118767557Y-111708829D01*
X118767557Y-111923114D01*
X118838986Y-112208829D01*
X118910414Y-112351686D01*
X119053272Y-112494543D01*
X119267557Y-112565971D01*
X119410414Y-112565971D01*
X119624700Y-112494543D01*
X119696129Y-112423114D01*
X119696129Y-111923114D01*
X119410414Y-111923114D01*
X120910414Y-112494543D02*
X120767557Y-112565971D01*
X120481843Y-112565971D01*
X120338986Y-112494543D01*
X120267557Y-112351686D01*
X120267557Y-111780257D01*
X120338986Y-111637400D01*
X120481843Y-111565971D01*
X120767557Y-111565971D01*
X120910414Y-111637400D01*
X120981843Y-111780257D01*
X120981843Y-111923114D01*
X120267557Y-112065971D01*
X121624700Y-111565971D02*
X121624700Y-112565971D01*
X121624700Y-111708829D02*
X121696128Y-111637400D01*
X121838986Y-111565971D01*
X122053271Y-111565971D01*
X122196128Y-111637400D01*
X122267557Y-111780257D01*
X122267557Y-112565971D01*
X123553271Y-112494543D02*
X123410414Y-112565971D01*
X123124700Y-112565971D01*
X122981843Y-112494543D01*
X122910414Y-112351686D01*
X122910414Y-111780257D01*
X122981843Y-111637400D01*
X123124700Y-111565971D01*
X123410414Y-111565971D01*
X123553271Y-111637400D01*
X123624700Y-111780257D01*
X123624700Y-111923114D01*
X122910414Y-112065971D01*
X124267557Y-112565971D02*
X124267557Y-111565971D01*
X124267557Y-111851686D02*
X124338985Y-111708829D01*
X124410414Y-111637400D01*
X124553271Y-111565971D01*
X124696128Y-111565971D01*
X125196128Y-112565971D02*
X125196128Y-111565971D01*
X125196128Y-111065971D02*
X125124699Y-111137400D01*
X125196128Y-111208829D01*
X125267556Y-111137400D01*
X125196128Y-111065971D01*
X125196128Y-111208829D01*
X126553271Y-112494543D02*
X126410414Y-112565971D01*
X126124700Y-112565971D01*
X125981842Y-112494543D01*
X125910414Y-112423114D01*
X125838985Y-112280257D01*
X125838985Y-111851686D01*
X125910414Y-111708829D01*
X125981842Y-111637400D01*
X126124700Y-111565971D01*
X126410414Y-111565971D01*
X126553271Y-111637400D01*
X129196128Y-112565971D02*
X128696128Y-111851686D01*
X128338985Y-112565971D02*
X128338985Y-111065971D01*
X128910413Y-111065971D01*
X129053271Y-111137400D01*
X129124699Y-111208829D01*
X129196128Y-111351686D01*
X129196128Y-111565971D01*
X129124699Y-111708829D01*
X129053271Y-111780257D01*
X128910413Y-111851686D01*
X128338985Y-111851686D01*
X130481842Y-112565971D02*
X130481842Y-111780257D01*
X130410413Y-111637400D01*
X130267556Y-111565971D01*
X129981842Y-111565971D01*
X129838985Y-111637400D01*
X130481842Y-112494543D02*
X130338985Y-112565971D01*
X129981842Y-112565971D01*
X129838985Y-112494543D01*
X129767556Y-112351686D01*
X129767556Y-112208829D01*
X129838985Y-112065971D01*
X129981842Y-111994543D01*
X130338985Y-111994543D01*
X130481842Y-111923114D01*
X131838985Y-112565971D02*
X131838985Y-111065971D01*
X131838985Y-112494543D02*
X131696128Y-112565971D01*
X131410414Y-112565971D01*
X131267556Y-112494543D01*
X131196128Y-112423114D01*
X131124699Y-112280257D01*
X131124699Y-111851686D01*
X131196128Y-111708829D01*
X131267556Y-111637400D01*
X131410414Y-111565971D01*
X131696128Y-111565971D01*
X131838985Y-111637400D01*
X133196128Y-112565971D02*
X133196128Y-111780257D01*
X133124699Y-111637400D01*
X132981842Y-111565971D01*
X132696128Y-111565971D01*
X132553271Y-111637400D01*
X133196128Y-112494543D02*
X133053271Y-112565971D01*
X132696128Y-112565971D01*
X132553271Y-112494543D01*
X132481842Y-112351686D01*
X132481842Y-112208829D01*
X132553271Y-112065971D01*
X132696128Y-111994543D01*
X133053271Y-111994543D01*
X133196128Y-111923114D01*
X133910414Y-112565971D02*
X133910414Y-111565971D01*
X133910414Y-111851686D02*
X133981842Y-111708829D01*
X134053271Y-111637400D01*
X134196128Y-111565971D01*
X134338985Y-111565971D01*
X136267556Y-111065971D02*
X136553270Y-111065971D01*
X136696128Y-111137400D01*
X136838985Y-111280257D01*
X136910413Y-111565971D01*
X136910413Y-112065971D01*
X136838985Y-112351686D01*
X136696128Y-112494543D01*
X136553270Y-112565971D01*
X136267556Y-112565971D01*
X136124699Y-112494543D01*
X135981842Y-112351686D01*
X135910413Y-112065971D01*
X135910413Y-111565971D01*
X135981842Y-111280257D01*
X136124699Y-111137400D01*
X136267556Y-111065971D01*
X137553271Y-112565971D02*
X137553271Y-111565971D01*
X137553271Y-111851686D02*
X137624699Y-111708829D01*
X137696128Y-111637400D01*
X137838985Y-111565971D01*
X137981842Y-111565971D01*
X139124699Y-111565971D02*
X139124699Y-112780257D01*
X139053270Y-112923114D01*
X138981842Y-112994543D01*
X138838985Y-113065971D01*
X138624699Y-113065971D01*
X138481842Y-112994543D01*
X139124699Y-112494543D02*
X138981842Y-112565971D01*
X138696128Y-112565971D01*
X138553270Y-112494543D01*
X138481842Y-112423114D01*
X138410413Y-112280257D01*
X138410413Y-111851686D01*
X138481842Y-111708829D01*
X138553270Y-111637400D01*
X138696128Y-111565971D01*
X138981842Y-111565971D01*
X139124699Y-111637400D01*
X140481842Y-112565971D02*
X140481842Y-111780257D01*
X140410413Y-111637400D01*
X140267556Y-111565971D01*
X139981842Y-111565971D01*
X139838985Y-111637400D01*
X140481842Y-112494543D02*
X140338985Y-112565971D01*
X139981842Y-112565971D01*
X139838985Y-112494543D01*
X139767556Y-112351686D01*
X139767556Y-112208829D01*
X139838985Y-112065971D01*
X139981842Y-111994543D01*
X140338985Y-111994543D01*
X140481842Y-111923114D01*
X141196128Y-111565971D02*
X141196128Y-112565971D01*
X141196128Y-111708829D02*
X141267556Y-111637400D01*
X141410414Y-111565971D01*
X141624699Y-111565971D01*
X141767556Y-111637400D01*
X141838985Y-111780257D01*
X141838985Y-112565971D01*
X142553271Y-112565971D02*
X142553271Y-111565971D01*
X142553271Y-111065971D02*
X142481842Y-111137400D01*
X142553271Y-111208829D01*
X142624699Y-111137400D01*
X142553271Y-111065971D01*
X142553271Y-111208829D01*
X143124700Y-111565971D02*
X143910414Y-111565971D01*
X143124700Y-112565971D01*
X143910414Y-112565971D01*
X145124700Y-112565971D02*
X145124700Y-111780257D01*
X145053271Y-111637400D01*
X144910414Y-111565971D01*
X144624700Y-111565971D01*
X144481843Y-111637400D01*
X145124700Y-112494543D02*
X144981843Y-112565971D01*
X144624700Y-112565971D01*
X144481843Y-112494543D01*
X144410414Y-112351686D01*
X144410414Y-112208829D01*
X144481843Y-112065971D01*
X144624700Y-111994543D01*
X144981843Y-111994543D01*
X145124700Y-111923114D01*
X145624700Y-111565971D02*
X146196129Y-111565971D01*
X145838986Y-111065971D02*
X145838986Y-112351686D01*
X145910414Y-112494543D01*
X146053272Y-112565971D01*
X146196129Y-112565971D01*
X146696129Y-112565971D02*
X146696129Y-111565971D01*
X146696129Y-111065971D02*
X146624700Y-111137400D01*
X146696129Y-111208829D01*
X146767557Y-111137400D01*
X146696129Y-111065971D01*
X146696129Y-111208829D01*
X147624701Y-112565971D02*
X147481843Y-112494543D01*
X147410415Y-112423114D01*
X147338986Y-112280257D01*
X147338986Y-111851686D01*
X147410415Y-111708829D01*
X147481843Y-111637400D01*
X147624701Y-111565971D01*
X147838986Y-111565971D01*
X147981843Y-111637400D01*
X148053272Y-111708829D01*
X148124701Y-111851686D01*
X148124701Y-112280257D01*
X148053272Y-112423114D01*
X147981843Y-112494543D01*
X147838986Y-112565971D01*
X147624701Y-112565971D01*
X148767558Y-111565971D02*
X148767558Y-112565971D01*
X148767558Y-111708829D02*
X148838986Y-111637400D01*
X148981844Y-111565971D01*
X149196129Y-111565971D01*
X149338986Y-111637400D01*
X149410415Y-111780257D01*
X149410415Y-112565971D01*
X125196129Y-117665971D02*
X125196129Y-116165971D01*
X126053272Y-117665971D02*
X125410415Y-116808829D01*
X126053272Y-116165971D02*
X125196129Y-117023114D01*
X127338986Y-117665971D02*
X127338986Y-116880257D01*
X127267557Y-116737400D01*
X127124700Y-116665971D01*
X126838986Y-116665971D01*
X126696129Y-116737400D01*
X127338986Y-117594543D02*
X127196129Y-117665971D01*
X126838986Y-117665971D01*
X126696129Y-117594543D01*
X126624700Y-117451686D01*
X126624700Y-117308829D01*
X126696129Y-117165971D01*
X126838986Y-117094543D01*
X127196129Y-117094543D01*
X127338986Y-117023114D01*
X127838986Y-116665971D02*
X128410415Y-116665971D01*
X128053272Y-116165971D02*
X128053272Y-117451686D01*
X128124700Y-117594543D01*
X128267558Y-117665971D01*
X128410415Y-117665971D01*
X128910415Y-117665971D02*
X128910415Y-116665971D01*
X128910415Y-116165971D02*
X128838986Y-116237400D01*
X128910415Y-116308829D01*
X128981843Y-116237400D01*
X128910415Y-116165971D01*
X128910415Y-116308829D01*
X130196129Y-117594543D02*
X130053272Y-117665971D01*
X129767558Y-117665971D01*
X129624701Y-117594543D01*
X129553272Y-117451686D01*
X129553272Y-116880257D01*
X129624701Y-116737400D01*
X129767558Y-116665971D01*
X130053272Y-116665971D01*
X130196129Y-116737400D01*
X130267558Y-116880257D01*
X130267558Y-117023114D01*
X129553272Y-117165971D01*
X132053272Y-117665971D02*
X132053272Y-116165971D01*
X132410415Y-116165971D01*
X132624700Y-116237400D01*
X132767558Y-116380257D01*
X132838986Y-116523114D01*
X132910415Y-116808829D01*
X132910415Y-117023114D01*
X132838986Y-117308829D01*
X132767558Y-117451686D01*
X132624700Y-117594543D01*
X132410415Y-117665971D01*
X132053272Y-117665971D01*
X133553272Y-117665971D02*
X133553272Y-116165971D01*
X134196129Y-117665971D02*
X134196129Y-116880257D01*
X134124700Y-116737400D01*
X133981843Y-116665971D01*
X133767558Y-116665971D01*
X133624700Y-116737400D01*
X133553272Y-116808829D01*
X135553272Y-116665971D02*
X135553272Y-117665971D01*
X134910415Y-116665971D02*
X134910415Y-117451686D01*
X134981843Y-117594543D01*
X135124701Y-117665971D01*
X135338986Y-117665971D01*
X135481843Y-117594543D01*
X135553272Y-117523114D01*
X136124701Y-116665971D02*
X136481844Y-117665971D01*
X136838986Y-116665971D02*
X136481844Y-117665971D01*
X136338986Y-118023114D01*
X136267558Y-118094543D01*
X136124701Y-118165971D01*
X137267558Y-116665971D02*
X137624701Y-117665971D01*
X137981843Y-116665971D01*
X139124700Y-117594543D02*
X138981843Y-117665971D01*
X138696129Y-117665971D01*
X138553272Y-117594543D01*
X138481843Y-117451686D01*
X138481843Y-116880257D01*
X138553272Y-116737400D01*
X138696129Y-116665971D01*
X138981843Y-116665971D01*
X139124700Y-116737400D01*
X139196129Y-116880257D01*
X139196129Y-117023114D01*
X138481843Y-117165971D01*
X139624700Y-116665971D02*
X140196129Y-116665971D01*
X139838986Y-116165971D02*
X139838986Y-117451686D01*
X139910414Y-117594543D01*
X140053272Y-117665971D01*
X140196129Y-117665971D01*
X140481843Y-116665971D02*
X141053272Y-116665971D01*
X140696129Y-116165971D02*
X140696129Y-117451686D01*
X140767557Y-117594543D01*
X140910415Y-117665971D01*
X141053272Y-117665971D01*
X142124700Y-117594543D02*
X141981843Y-117665971D01*
X141696129Y-117665971D01*
X141553272Y-117594543D01*
X141481843Y-117451686D01*
X141481843Y-116880257D01*
X141553272Y-116737400D01*
X141696129Y-116665971D01*
X141981843Y-116665971D01*
X142124700Y-116737400D01*
X142196129Y-116880257D01*
X142196129Y-117023114D01*
X141481843Y-117165971D01*
X142838986Y-117665971D02*
X142838986Y-116665971D01*
X142838986Y-116951686D02*
X142910414Y-116808829D01*
X142981843Y-116737400D01*
X143124700Y-116665971D01*
X143267557Y-116665971D01*
X125231843Y-118715971D02*
X126088986Y-118715971D01*
X125660415Y-120215971D02*
X125660415Y-118715971D01*
X126588986Y-120215971D02*
X126588986Y-118715971D01*
X127231843Y-120215971D02*
X127231843Y-119430257D01*
X127160414Y-119287400D01*
X127017557Y-119215971D01*
X126803272Y-119215971D01*
X126660414Y-119287400D01*
X126588986Y-119358829D01*
X128160415Y-120215971D02*
X128017557Y-120144543D01*
X127946129Y-120073114D01*
X127874700Y-119930257D01*
X127874700Y-119501686D01*
X127946129Y-119358829D01*
X128017557Y-119287400D01*
X128160415Y-119215971D01*
X128374700Y-119215971D01*
X128517557Y-119287400D01*
X128588986Y-119358829D01*
X128660415Y-119501686D01*
X128660415Y-119930257D01*
X128588986Y-120073114D01*
X128517557Y-120144543D01*
X128374700Y-120215971D01*
X128160415Y-120215971D01*
X129303272Y-120215971D02*
X129303272Y-119215971D01*
X129303272Y-119358829D02*
X129374700Y-119287400D01*
X129517558Y-119215971D01*
X129731843Y-119215971D01*
X129874700Y-119287400D01*
X129946129Y-119430257D01*
X129946129Y-120215971D01*
X129946129Y-119430257D02*
X130017558Y-119287400D01*
X130160415Y-119215971D01*
X130374700Y-119215971D01*
X130517558Y-119287400D01*
X130588986Y-119430257D01*
X130588986Y-120215971D01*
X131946129Y-120215971D02*
X131946129Y-119430257D01*
X131874700Y-119287400D01*
X131731843Y-119215971D01*
X131446129Y-119215971D01*
X131303272Y-119287400D01*
X131946129Y-120144543D02*
X131803272Y-120215971D01*
X131446129Y-120215971D01*
X131303272Y-120144543D01*
X131231843Y-120001686D01*
X131231843Y-119858829D01*
X131303272Y-119715971D01*
X131446129Y-119644543D01*
X131803272Y-119644543D01*
X131946129Y-119573114D01*
X132588986Y-120144543D02*
X132731843Y-120215971D01*
X133017558Y-120215971D01*
X133160415Y-120144543D01*
X133231843Y-120001686D01*
X133231843Y-119930257D01*
X133160415Y-119787400D01*
X133017558Y-119715971D01*
X132803272Y-119715971D01*
X132660415Y-119644543D01*
X132588986Y-119501686D01*
X132588986Y-119430257D01*
X132660415Y-119287400D01*
X132803272Y-119215971D01*
X133017558Y-119215971D01*
X133160415Y-119287400D01*
X135803272Y-118787400D02*
X135660415Y-118715971D01*
X135446129Y-118715971D01*
X135231844Y-118787400D01*
X135088986Y-118930257D01*
X135017558Y-119073114D01*
X134946129Y-119358829D01*
X134946129Y-119573114D01*
X135017558Y-119858829D01*
X135088986Y-120001686D01*
X135231844Y-120144543D01*
X135446129Y-120215971D01*
X135588986Y-120215971D01*
X135803272Y-120144543D01*
X135874701Y-120073114D01*
X135874701Y-119573114D01*
X135588986Y-119573114D01*
X136731844Y-120215971D02*
X136588986Y-120144543D01*
X136517558Y-120073114D01*
X136446129Y-119930257D01*
X136446129Y-119501686D01*
X136517558Y-119358829D01*
X136588986Y-119287400D01*
X136731844Y-119215971D01*
X136946129Y-119215971D01*
X137088986Y-119287400D01*
X137160415Y-119358829D01*
X137231844Y-119501686D01*
X137231844Y-119930257D01*
X137160415Y-120073114D01*
X137088986Y-120144543D01*
X136946129Y-120215971D01*
X136731844Y-120215971D01*
X137874701Y-120215971D02*
X137874701Y-119215971D01*
X137874701Y-119501686D02*
X137946129Y-119358829D01*
X138017558Y-119287400D01*
X138160415Y-119215971D01*
X138303272Y-119215971D01*
X138803272Y-120215971D02*
X138803272Y-118715971D01*
X139446129Y-120215971D02*
X139446129Y-119430257D01*
X139374700Y-119287400D01*
X139231843Y-119215971D01*
X139017558Y-119215971D01*
X138874700Y-119287400D01*
X138803272Y-119358829D01*
X140803272Y-120215971D02*
X140803272Y-119430257D01*
X140731843Y-119287400D01*
X140588986Y-119215971D01*
X140303272Y-119215971D01*
X140160415Y-119287400D01*
X140803272Y-120144543D02*
X140660415Y-120215971D01*
X140303272Y-120215971D01*
X140160415Y-120144543D01*
X140088986Y-120001686D01*
X140088986Y-119858829D01*
X140160415Y-119715971D01*
X140303272Y-119644543D01*
X140660415Y-119644543D01*
X140803272Y-119573114D01*
X141517558Y-120215971D02*
X141517558Y-119215971D01*
X141517558Y-119358829D02*
X141588986Y-119287400D01*
X141731844Y-119215971D01*
X141946129Y-119215971D01*
X142088986Y-119287400D01*
X142160415Y-119430257D01*
X142160415Y-120215971D01*
X142160415Y-119430257D02*
X142231844Y-119287400D01*
X142374701Y-119215971D01*
X142588986Y-119215971D01*
X142731844Y-119287400D01*
X142803272Y-119430257D01*
X142803272Y-120215971D01*
X126803271Y-122765971D02*
X126803271Y-121265971D01*
X127660414Y-122765971D01*
X127660414Y-121265971D01*
X129017557Y-122765971D02*
X129017557Y-121980257D01*
X128946128Y-121837400D01*
X128803271Y-121765971D01*
X128517557Y-121765971D01*
X128374700Y-121837400D01*
X129017557Y-122694543D02*
X128874700Y-122765971D01*
X128517557Y-122765971D01*
X128374700Y-122694543D01*
X128303271Y-122551686D01*
X128303271Y-122408829D01*
X128374700Y-122265971D01*
X128517557Y-122194543D01*
X128874700Y-122194543D01*
X129017557Y-122123114D01*
X129517557Y-121765971D02*
X130088986Y-121765971D01*
X129731843Y-121265971D02*
X129731843Y-122551686D01*
X129803271Y-122694543D01*
X129946129Y-122765971D01*
X130088986Y-122765971D01*
X130588986Y-122765971D02*
X130588986Y-121265971D01*
X131231843Y-122765971D02*
X131231843Y-121980257D01*
X131160414Y-121837400D01*
X131017557Y-121765971D01*
X130803272Y-121765971D01*
X130660414Y-121837400D01*
X130588986Y-121908829D01*
X132588986Y-122765971D02*
X132588986Y-121980257D01*
X132517557Y-121837400D01*
X132374700Y-121765971D01*
X132088986Y-121765971D01*
X131946129Y-121837400D01*
X132588986Y-122694543D02*
X132446129Y-122765971D01*
X132088986Y-122765971D01*
X131946129Y-122694543D01*
X131874700Y-122551686D01*
X131874700Y-122408829D01*
X131946129Y-122265971D01*
X132088986Y-122194543D01*
X132446129Y-122194543D01*
X132588986Y-122123114D01*
X133303272Y-121765971D02*
X133303272Y-122765971D01*
X133303272Y-121908829D02*
X133374700Y-121837400D01*
X133517558Y-121765971D01*
X133731843Y-121765971D01*
X133874700Y-121837400D01*
X133946129Y-121980257D01*
X133946129Y-122765971D01*
X136231843Y-121265971D02*
X136231843Y-122337400D01*
X136160415Y-122551686D01*
X136017558Y-122694543D01*
X135803272Y-122765971D01*
X135660415Y-122765971D01*
X137160415Y-122765971D02*
X137017557Y-122694543D01*
X136946129Y-122623114D01*
X136874700Y-122480257D01*
X136874700Y-122051686D01*
X136946129Y-121908829D01*
X137017557Y-121837400D01*
X137160415Y-121765971D01*
X137374700Y-121765971D01*
X137517557Y-121837400D01*
X137588986Y-121908829D01*
X137660415Y-122051686D01*
X137660415Y-122480257D01*
X137588986Y-122623114D01*
X137517557Y-122694543D01*
X137374700Y-122765971D01*
X137160415Y-122765971D01*
X138303272Y-121765971D02*
X138303272Y-122765971D01*
X138303272Y-121908829D02*
X138374700Y-121837400D01*
X138517558Y-121765971D01*
X138731843Y-121765971D01*
X138874700Y-121837400D01*
X138946129Y-121980257D01*
X138946129Y-122765971D01*
X140231843Y-122694543D02*
X140088986Y-122765971D01*
X139803272Y-122765971D01*
X139660415Y-122694543D01*
X139588986Y-122551686D01*
X139588986Y-121980257D01*
X139660415Y-121837400D01*
X139803272Y-121765971D01*
X140088986Y-121765971D01*
X140231843Y-121837400D01*
X140303272Y-121980257D01*
X140303272Y-122123114D01*
X139588986Y-122265971D01*
X140874700Y-122694543D02*
X141017557Y-122765971D01*
X141303272Y-122765971D01*
X141446129Y-122694543D01*
X141517557Y-122551686D01*
X141517557Y-122480257D01*
X141446129Y-122337400D01*
X141303272Y-122265971D01*
X141088986Y-122265971D01*
X140946129Y-122194543D01*
X140874700Y-122051686D01*
X140874700Y-121980257D01*
X140946129Y-121837400D01*
X141088986Y-121765971D01*
X141303272Y-121765971D01*
X141446129Y-121837400D01*
X127231843Y-125315971D02*
X127231843Y-123815971D01*
X127588986Y-123815971D01*
X127803271Y-123887400D01*
X127946129Y-124030257D01*
X128017557Y-124173114D01*
X128088986Y-124458829D01*
X128088986Y-124673114D01*
X128017557Y-124958829D01*
X127946129Y-125101686D01*
X127803271Y-125244543D01*
X127588986Y-125315971D01*
X127231843Y-125315971D01*
X129374700Y-125315971D02*
X129374700Y-124530257D01*
X129303271Y-124387400D01*
X129160414Y-124315971D01*
X128874700Y-124315971D01*
X128731843Y-124387400D01*
X129374700Y-125244543D02*
X129231843Y-125315971D01*
X128874700Y-125315971D01*
X128731843Y-125244543D01*
X128660414Y-125101686D01*
X128660414Y-124958829D01*
X128731843Y-124815971D01*
X128874700Y-124744543D01*
X129231843Y-124744543D01*
X129374700Y-124673114D01*
X130088986Y-125315971D02*
X130088986Y-124315971D01*
X130088986Y-124458829D02*
X130160414Y-124387400D01*
X130303272Y-124315971D01*
X130517557Y-124315971D01*
X130660414Y-124387400D01*
X130731843Y-124530257D01*
X130731843Y-125315971D01*
X130731843Y-124530257D02*
X130803272Y-124387400D01*
X130946129Y-124315971D01*
X131160414Y-124315971D01*
X131303272Y-124387400D01*
X131374700Y-124530257D01*
X131374700Y-125315971D01*
X132088986Y-125315971D02*
X132088986Y-124315971D01*
X132088986Y-123815971D02*
X132017557Y-123887400D01*
X132088986Y-123958829D01*
X132160414Y-123887400D01*
X132088986Y-123815971D01*
X132088986Y-123958829D01*
X133446129Y-125315971D02*
X133446129Y-124530257D01*
X133374700Y-124387400D01*
X133231843Y-124315971D01*
X132946129Y-124315971D01*
X132803272Y-124387400D01*
X133446129Y-125244543D02*
X133303272Y-125315971D01*
X132946129Y-125315971D01*
X132803272Y-125244543D01*
X132731843Y-125101686D01*
X132731843Y-124958829D01*
X132803272Y-124815971D01*
X132946129Y-124744543D01*
X133303272Y-124744543D01*
X133446129Y-124673114D01*
X134160415Y-124315971D02*
X134160415Y-125315971D01*
X134160415Y-124458829D02*
X134231843Y-124387400D01*
X134374701Y-124315971D01*
X134588986Y-124315971D01*
X134731843Y-124387400D01*
X134803272Y-124530257D01*
X134803272Y-125315971D01*
X137374701Y-125315971D02*
X136660415Y-125315971D01*
X136660415Y-123815971D01*
X138088987Y-125315971D02*
X137946129Y-125244543D01*
X137874701Y-125173114D01*
X137803272Y-125030257D01*
X137803272Y-124601686D01*
X137874701Y-124458829D01*
X137946129Y-124387400D01*
X138088987Y-124315971D01*
X138303272Y-124315971D01*
X138446129Y-124387400D01*
X138517558Y-124458829D01*
X138588987Y-124601686D01*
X138588987Y-125030257D01*
X138517558Y-125173114D01*
X138446129Y-125244543D01*
X138303272Y-125315971D01*
X138088987Y-125315971D01*
X139088987Y-124315971D02*
X139446130Y-125315971D01*
X139803272Y-124315971D02*
X139446130Y-125315971D01*
X139303272Y-125673114D01*
X139231844Y-125744543D01*
X139088987Y-125815971D01*
X141017558Y-125315971D02*
X141017558Y-124530257D01*
X140946129Y-124387400D01*
X140803272Y-124315971D01*
X140517558Y-124315971D01*
X140374701Y-124387400D01*
X141017558Y-125244543D02*
X140874701Y-125315971D01*
X140517558Y-125315971D01*
X140374701Y-125244543D01*
X140303272Y-125101686D01*
X140303272Y-124958829D01*
X140374701Y-124815971D01*
X140517558Y-124744543D01*
X140874701Y-124744543D01*
X141017558Y-124673114D01*
D12*
X89649785Y-68135500D02*
G75*
G03X89649785Y-68135500I-227185J0D01*
G01*
X89906600Y-67229100D02*
X87156600Y-67229100D01*
X87156600Y-67229100D02*
X87156600Y-70979100D01*
X87156600Y-70979100D02*
X89906600Y-70979100D01*
X89906600Y-70979100D02*
X89906600Y-67229100D01*
X127649600Y-74955400D02*
G75*
G03X127649600Y-74955400I-254000J0D01*
G01*
X126379600Y-74193400D02*
X133491600Y-74193400D01*
X133491600Y-74193400D02*
X133491600Y-79019400D01*
X133491600Y-79019400D02*
X126379600Y-79019400D01*
X126379600Y-79019400D02*
X126379600Y-74193400D01*
X142484352Y-97624900D02*
G75*
G03X142484352Y-97624900I-280552J0D01*
G01*
X143524600Y-101841300D02*
X139714600Y-101841300D01*
X135904600Y-98666300D02*
X135904600Y-95491300D01*
X135904600Y-95491300D02*
X139714600Y-95491300D01*
X139714600Y-95491300D02*
X143524600Y-95491300D01*
X143524600Y-95491300D02*
X143524600Y-101841300D01*
X143524600Y-101841300D02*
X139714600Y-101841300D01*
X139714600Y-101841300D02*
X135904600Y-101841300D01*
X135904600Y-101841300D02*
X135904600Y-98666300D01*
D13*
X119121000Y-93895800D02*
X119121000Y-92895800D01*
X120481000Y-92895800D02*
X120481000Y-93895800D01*
X128810000Y-92272400D02*
X127810000Y-92272400D01*
X127810000Y-90912400D02*
X128810000Y-90912400D01*
X123335943Y-93485200D02*
X124335943Y-93485200D01*
X124335943Y-94845200D02*
X123335943Y-94845200D01*
X90676800Y-68028300D02*
X90676800Y-67328300D01*
X91876800Y-67328300D02*
X91876800Y-68028300D01*
X84830800Y-70659700D02*
X85530800Y-70659700D01*
X85530800Y-71859700D02*
X84830800Y-71859700D01*
X86746000Y-68522100D02*
X86746000Y-69222100D01*
X85546000Y-69222100D02*
X85546000Y-68522100D01*
X116316600Y-93776276D02*
X116316600Y-93076276D01*
X117516600Y-93076276D02*
X117516600Y-93776276D01*
X132922124Y-92249800D02*
X132222124Y-92249800D01*
X132222124Y-91049800D02*
X132922124Y-91049800D01*
X123516124Y-87015800D02*
X124216124Y-87015800D01*
X124216124Y-88215800D02*
X123516124Y-88215800D01*
X119533743Y-92309800D02*
X118533743Y-92309800D01*
X118533743Y-90949800D02*
X119533743Y-90949800D01*
X98840540Y-92919180D02*
X97840540Y-92919180D01*
X97840540Y-94619180D02*
X98840540Y-94619180D01*
X92888800Y-94624780D02*
X92888800Y-93624780D01*
X91188800Y-93624780D02*
X91188800Y-94624780D01*
X86891800Y-84650600D02*
X86891800Y-83848130D01*
X86891800Y-83233070D02*
X86891800Y-82430600D01*
X85686800Y-84650600D02*
X86891800Y-84650600D01*
X85686800Y-82430600D02*
X86891800Y-82430600D01*
X85686800Y-84650600D02*
X85686800Y-84104071D01*
X85686800Y-82977129D02*
X85686800Y-82430600D01*
X84926800Y-84650600D02*
X84166800Y-84650600D01*
X84166800Y-84650600D02*
X84166800Y-83540600D01*
X86891800Y-94048600D02*
X86891800Y-93246130D01*
X86891800Y-92631070D02*
X86891800Y-91828600D01*
X85686800Y-94048600D02*
X86891800Y-94048600D01*
X85686800Y-91828600D02*
X86891800Y-91828600D01*
X85686800Y-94048600D02*
X85686800Y-93502071D01*
X85686800Y-92375129D02*
X85686800Y-91828600D01*
X84926800Y-94048600D02*
X84166800Y-94048600D01*
X84166800Y-94048600D02*
X84166800Y-92938600D01*
X86891800Y-87825600D02*
X86891800Y-87023130D01*
X86891800Y-86408070D02*
X86891800Y-85605600D01*
X85686800Y-87825600D02*
X86891800Y-87825600D01*
X85686800Y-85605600D02*
X86891800Y-85605600D01*
X85686800Y-87825600D02*
X85686800Y-87279071D01*
X85686800Y-86152129D02*
X85686800Y-85605600D01*
X84926800Y-87825600D02*
X84166800Y-87825600D01*
X84166800Y-87825600D02*
X84166800Y-86715600D01*
X86891800Y-91000600D02*
X86891800Y-90198130D01*
X86891800Y-89583070D02*
X86891800Y-88780600D01*
X85686800Y-91000600D02*
X86891800Y-91000600D01*
X85686800Y-88780600D02*
X86891800Y-88780600D01*
X85686800Y-91000600D02*
X85686800Y-90454071D01*
X85686800Y-89327129D02*
X85686800Y-88780600D01*
X84926800Y-91000600D02*
X84166800Y-91000600D01*
X84166800Y-91000600D02*
X84166800Y-89890600D01*
X87586900Y-96202120D02*
X87586900Y-95202120D01*
X88946900Y-95202120D02*
X88946900Y-96202120D01*
X90478520Y-92880560D02*
X90478520Y-93880560D01*
X89118520Y-93880560D02*
X89118520Y-92880560D01*
X112845520Y-90568800D02*
X112845520Y-89766330D01*
X112845520Y-89151270D02*
X112845520Y-88348800D01*
X111640520Y-90568800D02*
X112845520Y-90568800D01*
X111640520Y-88348800D02*
X112845520Y-88348800D01*
X111640520Y-90568800D02*
X111640520Y-90022271D01*
X111640520Y-88895329D02*
X111640520Y-88348800D01*
X110880520Y-90568800D02*
X110120520Y-90568800D01*
X110120520Y-90568800D02*
X110120520Y-89458800D01*
X86907040Y-81506080D02*
X86907040Y-80703610D01*
X86907040Y-80088550D02*
X86907040Y-79286080D01*
X85702040Y-81506080D02*
X86907040Y-81506080D01*
X85702040Y-79286080D02*
X86907040Y-79286080D01*
X85702040Y-81506080D02*
X85702040Y-80959551D01*
X85702040Y-79832609D02*
X85702040Y-79286080D01*
X84942040Y-81506080D02*
X84182040Y-81506080D01*
X84182040Y-81506080D02*
X84182040Y-80396080D01*
X90025600Y-79920200D02*
X91025600Y-79920200D01*
X91025600Y-78220200D02*
X90025600Y-78220200D01*
X99623500Y-79198100D02*
X98623500Y-79198100D01*
X98623500Y-80898100D02*
X99623500Y-80898100D01*
X141384400Y-91826800D02*
X142384400Y-91826800D01*
X142384400Y-93186800D02*
X141384400Y-93186800D01*
X87777700Y-61677000D02*
X88777700Y-61677000D01*
X88777700Y-63037000D02*
X87777700Y-63037000D01*
X90544100Y-63619000D02*
X90544100Y-62619000D01*
X91904100Y-62619000D02*
X91904100Y-63619000D01*
D14*
G36*
X142424753Y-127564594D02*
X142474184Y-127661622D01*
X142511579Y-127827882D01*
X142538581Y-128075359D01*
X142556837Y-128416038D01*
X142567993Y-128861902D01*
X142573694Y-129424937D01*
X142575587Y-130117126D01*
X142575316Y-130950454D01*
X142574527Y-131936905D01*
X142574433Y-132322703D01*
X142574433Y-137116240D01*
X142764933Y-137070226D01*
X142941980Y-137028125D01*
X143223135Y-136961954D01*
X143547583Y-136886025D01*
X143548100Y-136885905D01*
X143868792Y-136806451D01*
X144142029Y-136730580D01*
X144309145Y-136674592D01*
X144310100Y-136674180D01*
X144455599Y-136625578D01*
X144726888Y-136547391D01*
X145085302Y-136450377D01*
X145492172Y-136345291D01*
X145495433Y-136344468D01*
X145918284Y-136236678D01*
X146308592Y-136135168D01*
X146621712Y-136051673D01*
X146807208Y-135999670D01*
X147053957Y-135931737D01*
X147180130Y-135923843D01*
X147225719Y-135982253D01*
X147231100Y-136066090D01*
X147194377Y-136160210D01*
X147063766Y-136239042D01*
X146808599Y-136318056D01*
X146659600Y-136354390D01*
X146275957Y-136447333D01*
X145875740Y-136549553D01*
X145622433Y-136617751D01*
X145295755Y-136707586D01*
X144894399Y-136816078D01*
X144521767Y-136915362D01*
X144092280Y-137028817D01*
X143787386Y-137109800D01*
X143567945Y-137169032D01*
X143394818Y-137217233D01*
X143228864Y-137265121D01*
X143030943Y-137323418D01*
X143018933Y-137326968D01*
X142574433Y-137458347D01*
X142574433Y-139021677D01*
X142891933Y-139074157D01*
X143066048Y-139089148D01*
X143381080Y-139102550D01*
X143808615Y-139113713D01*
X144320240Y-139121984D01*
X144887542Y-139126711D01*
X145220267Y-139127568D01*
X145853723Y-139128285D01*
X146337897Y-139130945D01*
X146692840Y-139137300D01*
X146938604Y-139149106D01*
X147095239Y-139168117D01*
X147182797Y-139196087D01*
X147221329Y-139234771D01*
X147230885Y-139285923D01*
X147231100Y-139303504D01*
X147226655Y-139360658D01*
X147199355Y-139403090D01*
X147128255Y-139432220D01*
X146992408Y-139449463D01*
X146770868Y-139456239D01*
X146442688Y-139453964D01*
X145986923Y-139444056D01*
X145389600Y-139428123D01*
X144813524Y-139410929D01*
X144263507Y-139391882D01*
X143773187Y-139372348D01*
X143376203Y-139353692D01*
X143106193Y-139337282D01*
X143061267Y-139333581D01*
X142574433Y-139289425D01*
X142574433Y-140181016D01*
X142571614Y-140578897D01*
X142581057Y-140841792D01*
X142629616Y-141003419D01*
X142744142Y-141097496D01*
X142951487Y-141157740D01*
X143278503Y-141217871D01*
X143421100Y-141244162D01*
X143759312Y-141310403D01*
X144164438Y-141392831D01*
X144479433Y-141458900D01*
X144864416Y-141537653D01*
X145322367Y-141626331D01*
X145759267Y-141706764D01*
X145791767Y-141712523D01*
X146328568Y-141811569D01*
X146718494Y-141895437D01*
X146982546Y-141971132D01*
X147141723Y-142045655D01*
X147217025Y-142126010D01*
X147231100Y-142192500D01*
X147199856Y-142304790D01*
X147154804Y-142308673D01*
X147080907Y-142280078D01*
X146925833Y-142238753D01*
X146677694Y-142182279D01*
X146324597Y-142108240D01*
X145854653Y-142014217D01*
X145255972Y-141897793D01*
X144516663Y-141756549D01*
X143624835Y-141588069D01*
X143439914Y-141553296D01*
X143108487Y-141487024D01*
X142839766Y-141425910D01*
X142678517Y-141380391D01*
X142656748Y-141370713D01*
X142609244Y-141416810D01*
X142580141Y-141606222D01*
X142573294Y-141811670D01*
X142572155Y-142303500D01*
X141551827Y-142684500D01*
X141111340Y-142848784D01*
X140678074Y-143010033D01*
X140303463Y-143149124D01*
X140050132Y-143242813D01*
X139553399Y-143428246D01*
X139189141Y-143570237D01*
X138929466Y-143679716D01*
X138891433Y-143696926D01*
X138671066Y-143781886D01*
X138510433Y-143831596D01*
X138275740Y-143909810D01*
X138044767Y-144004289D01*
X137861544Y-144081518D01*
X137564633Y-144199979D01*
X137199071Y-144341911D01*
X136901767Y-144455029D01*
X136174822Y-144729252D01*
X135590640Y-144950105D01*
X135133417Y-145123636D01*
X134787350Y-145255894D01*
X134536634Y-145352928D01*
X134365468Y-145420787D01*
X134258046Y-145465519D01*
X134234767Y-145475841D01*
X133927206Y-145583325D01*
X133666820Y-145581285D01*
X133388100Y-145477817D01*
X133155035Y-145376837D01*
X132974555Y-145317943D01*
X132935229Y-145312039D01*
X132783886Y-145276379D01*
X132570751Y-145193625D01*
X132554229Y-145186096D01*
X132356168Y-145101301D01*
X132033969Y-144970675D01*
X131622143Y-144807584D01*
X131155204Y-144625393D01*
X130667662Y-144437466D01*
X130194030Y-144257169D01*
X129768819Y-144097866D01*
X129426541Y-143972923D01*
X129366433Y-143951598D01*
X129077497Y-143843960D01*
X128850641Y-143748670D01*
X128735667Y-143686800D01*
X128581512Y-143620018D01*
X128536795Y-143615833D01*
X128382321Y-143582114D01*
X128167600Y-143500212D01*
X128151562Y-143492918D01*
X127927585Y-143397720D01*
X127545337Y-143245535D01*
X127005857Y-143036764D01*
X126310187Y-142771811D01*
X125514100Y-142471636D01*
X125006100Y-142280797D01*
X124980509Y-141847649D01*
X124970449Y-141706363D01*
X125302433Y-141706363D01*
X125302433Y-142079667D01*
X125789267Y-142255561D01*
X126075827Y-142364057D01*
X126313322Y-142462697D01*
X126423118Y-142515644D01*
X126591029Y-142586700D01*
X126664322Y-142599833D01*
X126801669Y-142631258D01*
X127008201Y-142707638D01*
X127025304Y-142714935D01*
X127428305Y-142885922D01*
X127777235Y-143025644D01*
X128157577Y-143167700D01*
X128392767Y-143252437D01*
X128725135Y-143374434D01*
X129028704Y-143491235D01*
X129238198Y-143577720D01*
X129239433Y-143578273D01*
X129486445Y-143682277D01*
X129835146Y-143820600D01*
X130238422Y-143975496D01*
X130649162Y-144129216D01*
X131020252Y-144264012D01*
X131304579Y-144362137D01*
X131398433Y-144391594D01*
X131617824Y-144469552D01*
X131765003Y-144546403D01*
X131775200Y-144555035D01*
X131929781Y-144627849D01*
X131970345Y-144631833D01*
X132113825Y-144663869D01*
X132340102Y-144744524D01*
X132440245Y-144786186D01*
X132796334Y-144939769D01*
X133027147Y-145035165D01*
X133162120Y-145083026D01*
X133230684Y-145094004D01*
X133258648Y-145082374D01*
X133242488Y-145010257D01*
X133215833Y-144987063D01*
X133119928Y-144888234D01*
X132969290Y-144703349D01*
X132883063Y-144589500D01*
X132718067Y-144373864D01*
X132582946Y-144210707D01*
X132540547Y-144166167D01*
X132483298Y-144107333D01*
X132391773Y-144000876D01*
X132249621Y-143826673D01*
X132040490Y-143564599D01*
X131748029Y-143194532D01*
X131652581Y-143073392D01*
X131519201Y-142909044D01*
X131336177Y-142689218D01*
X131267363Y-142607726D01*
X131092072Y-142395195D01*
X130857693Y-142103268D01*
X130608227Y-141786886D01*
X130548991Y-141710833D01*
X130308111Y-141407844D01*
X130075392Y-141127227D01*
X129891993Y-140918295D01*
X129854561Y-140878820D01*
X129704647Y-140705163D01*
X129624577Y-140572662D01*
X129620433Y-140552057D01*
X129597979Y-140511991D01*
X129514691Y-140498393D01*
X129346684Y-140513976D01*
X129070069Y-140561456D01*
X128660959Y-140643544D01*
X128477433Y-140681926D01*
X128133776Y-140751732D01*
X127692075Y-140837904D01*
X127221007Y-140927165D01*
X126953433Y-140976572D01*
X126565617Y-141048965D01*
X126232296Y-141114226D01*
X125993207Y-141164388D01*
X125895100Y-141188748D01*
X125718020Y-141238480D01*
X125535267Y-141282041D01*
X125389567Y-141331592D01*
X125321811Y-141430390D01*
X125302926Y-141631419D01*
X125302433Y-141706363D01*
X124970449Y-141706363D01*
X124963116Y-141603386D01*
X124946292Y-141447091D01*
X124938175Y-141416193D01*
X124831809Y-141433771D01*
X124595589Y-141476081D01*
X124266039Y-141536362D01*
X123879685Y-141607852D01*
X123473051Y-141683790D01*
X123082662Y-141757415D01*
X122745042Y-141821966D01*
X122720100Y-141826788D01*
X122255845Y-141916208D01*
X121754680Y-142012043D01*
X121303031Y-142097787D01*
X121172581Y-142122371D01*
X120841154Y-142188643D01*
X120572433Y-142249756D01*
X120411184Y-142295275D01*
X120389414Y-142304954D01*
X120323357Y-142279154D01*
X120307100Y-142191371D01*
X120316549Y-142111579D01*
X120361250Y-142048126D01*
X120465735Y-141992523D01*
X120654535Y-141936280D01*
X120952181Y-141870907D01*
X121383205Y-141787914D01*
X121577100Y-141751838D01*
X122041985Y-141664484D01*
X122535663Y-141569779D01*
X122978689Y-141483030D01*
X123143433Y-141450045D01*
X123559089Y-141367604D01*
X123999302Y-141282889D01*
X124369187Y-141214157D01*
X124371100Y-141213812D01*
X124921433Y-141114626D01*
X124924489Y-140998840D01*
X125302433Y-140998840D01*
X125577600Y-140950643D01*
X125830616Y-140904513D01*
X126147047Y-140844516D01*
X126276100Y-140819441D01*
X126572770Y-140761029D01*
X126956355Y-140685177D01*
X127347703Y-140607541D01*
X127376767Y-140601763D01*
X127797865Y-140519054D01*
X128248395Y-140432144D01*
X128627340Y-140360499D01*
X128919266Y-140302028D01*
X129138359Y-140250294D01*
X129238159Y-140216292D01*
X129238688Y-140215801D01*
X129212947Y-140133447D01*
X129108226Y-139955984D01*
X128961782Y-139742439D01*
X128646767Y-139307186D01*
X126974600Y-139302509D01*
X125302433Y-139297833D01*
X125302433Y-140998840D01*
X124924489Y-140998840D01*
X124945498Y-140202929D01*
X124969562Y-139291232D01*
X124564498Y-139334058D01*
X124361493Y-139348762D01*
X124020088Y-139365941D01*
X123571175Y-139384370D01*
X123045648Y-139402823D01*
X122474397Y-139420075D01*
X122233267Y-139426539D01*
X121615100Y-139442070D01*
X121145725Y-139451725D01*
X120804659Y-139454183D01*
X120571422Y-139448123D01*
X120425533Y-139432225D01*
X120346511Y-139405168D01*
X120313874Y-139365632D01*
X120307142Y-139312296D01*
X120307100Y-139302346D01*
X120312165Y-139247576D01*
X120340728Y-139205701D01*
X120412836Y-139174979D01*
X120548537Y-139153668D01*
X120767881Y-139140024D01*
X121090916Y-139132305D01*
X121537691Y-139128769D01*
X122128254Y-139127673D01*
X122317933Y-139127568D01*
X122904058Y-139125119D01*
X123450481Y-139118760D01*
X123928788Y-139109143D01*
X124310565Y-139096920D01*
X124567399Y-139082742D01*
X124646267Y-139074157D01*
X124963767Y-139021677D01*
X124963767Y-138271958D01*
X125302433Y-138271958D01*
X125302433Y-139043833D01*
X126009093Y-139043833D01*
X126447107Y-139036947D01*
X126954024Y-139018760D01*
X127430077Y-138992980D01*
X127492126Y-138988725D01*
X128268500Y-138933616D01*
X128125227Y-138714954D01*
X127852202Y-138362048D01*
X127570555Y-138142654D01*
X127292100Y-138036072D01*
X126919166Y-137941088D01*
X126513575Y-137835674D01*
X126120069Y-137731693D01*
X125783388Y-137641008D01*
X125548277Y-137575482D01*
X125492933Y-137559048D01*
X125403246Y-137537843D01*
X125347330Y-137561749D01*
X125317209Y-137660615D01*
X125304906Y-137864290D01*
X125302446Y-138202624D01*
X125302433Y-138271958D01*
X124963767Y-138271958D01*
X124963767Y-138238694D01*
X124960624Y-137850975D01*
X124932191Y-137595394D01*
X124849955Y-137434782D01*
X124685406Y-137331974D01*
X124410035Y-137249803D01*
X124159433Y-137190165D01*
X123951584Y-137138685D01*
X123622241Y-137054165D01*
X123213439Y-136947507D01*
X122767215Y-136829619D01*
X122677767Y-136805809D01*
X122195175Y-136678935D01*
X121708561Y-136554018D01*
X121272319Y-136444841D01*
X120940844Y-136365188D01*
X120920933Y-136360608D01*
X120595604Y-136278052D01*
X120406232Y-136204985D01*
X120321296Y-136125914D01*
X120307100Y-136058882D01*
X120332657Y-135952986D01*
X120440689Y-135930111D01*
X120582267Y-135952066D01*
X120849835Y-136016388D01*
X121069100Y-136084425D01*
X121261922Y-136145395D01*
X121551993Y-136226032D01*
X121831100Y-136297531D01*
X122200693Y-136389689D01*
X122579020Y-136486246D01*
X122804767Y-136545290D01*
X123162045Y-136639742D01*
X123558535Y-136743561D01*
X123960285Y-136847985D01*
X124333343Y-136944252D01*
X124643756Y-137023600D01*
X124857572Y-137077267D01*
X124940658Y-137096500D01*
X124944921Y-137014347D01*
X124948929Y-136777940D01*
X124952610Y-136402361D01*
X124954073Y-136179402D01*
X125302433Y-136179402D01*
X125304039Y-136622059D01*
X125323081Y-136927149D01*
X125380901Y-137126393D01*
X125498837Y-137251513D01*
X125698230Y-137334230D01*
X126000419Y-137406265D01*
X126149100Y-137437962D01*
X126486789Y-137518159D01*
X126818795Y-137609399D01*
X126953433Y-137651664D01*
X127196864Y-137732588D01*
X127307818Y-137758576D01*
X127314863Y-137727027D01*
X127246565Y-137635340D01*
X127238967Y-137625667D01*
X127127916Y-137489076D01*
X127079951Y-137435167D01*
X127008593Y-137347348D01*
X126874671Y-137170963D01*
X126788094Y-137054167D01*
X126632422Y-136849323D01*
X126514911Y-136706961D01*
X126481075Y-136673167D01*
X126407710Y-136592770D01*
X126254546Y-136408378D01*
X126045834Y-136149588D01*
X125862766Y-135918542D01*
X125302433Y-135206251D01*
X125302433Y-136179402D01*
X124954073Y-136179402D01*
X124955890Y-135902689D01*
X124958697Y-135294005D01*
X124960116Y-134852833D01*
X125384242Y-134852833D01*
X125727177Y-135276167D01*
X125956499Y-135558724D01*
X126185154Y-135839629D01*
X126312729Y-135995833D01*
X126490449Y-136214375D01*
X126723512Y-136502904D01*
X126961577Y-136799098D01*
X126962434Y-136800167D01*
X127162858Y-137047887D01*
X127322767Y-137241122D01*
X127412517Y-137344149D01*
X127419100Y-137350500D01*
X127492090Y-137433172D01*
X127639891Y-137613184D01*
X127832992Y-137854492D01*
X127869636Y-137900833D01*
X128085652Y-138173230D01*
X128278617Y-138414322D01*
X128409404Y-138575242D01*
X128416347Y-138583594D01*
X128558064Y-138757931D01*
X128742889Y-138990649D01*
X128816100Y-139084094D01*
X129029326Y-139352903D01*
X129271758Y-139652097D01*
X129366433Y-139767026D01*
X129596141Y-140046360D01*
X129831643Y-140336414D01*
X129916767Y-140442482D01*
X130085551Y-140651564D01*
X130219090Y-140812806D01*
X130255433Y-140854790D01*
X130353540Y-140975649D01*
X130506339Y-141175537D01*
X130589624Y-141287500D01*
X130744248Y-141492104D01*
X130858999Y-141634455D01*
X130891044Y-141668500D01*
X130960828Y-141747359D01*
X131114061Y-141932262D01*
X131328954Y-142196591D01*
X131583718Y-142513728D01*
X131615186Y-142553132D01*
X131887192Y-142892066D01*
X132135620Y-143198215D01*
X132333588Y-143438671D01*
X132454211Y-143580524D01*
X132456767Y-143583370D01*
X132578508Y-143728763D01*
X132771977Y-143971207D01*
X133006982Y-144272525D01*
X133176433Y-144493314D01*
X133405255Y-144788371D01*
X133597056Y-145026078D01*
X133728732Y-145178395D01*
X133775041Y-145219909D01*
X133851269Y-145162239D01*
X133898860Y-145110236D01*
X134338781Y-145110236D01*
X134349655Y-145139833D01*
X134472473Y-145078309D01*
X134484741Y-145061680D01*
X134594771Y-144989829D01*
X134791558Y-144926748D01*
X134791774Y-144926701D01*
X135065385Y-144842912D01*
X135277636Y-144751375D01*
X135489735Y-144664479D01*
X135647936Y-144632355D01*
X135796842Y-144593942D01*
X135836255Y-144558781D01*
X135938664Y-144494272D01*
X136146446Y-144414442D01*
X136266767Y-144377833D01*
X136504221Y-144299494D01*
X136664803Y-144224498D01*
X136697278Y-144196886D01*
X136811920Y-144131070D01*
X136872801Y-144123833D01*
X137036519Y-144090021D01*
X137256106Y-144008005D01*
X137269971Y-144001739D01*
X137449732Y-143926316D01*
X137748686Y-143808192D01*
X138126998Y-143662839D01*
X138544833Y-143505728D01*
X138595100Y-143487056D01*
X139014952Y-143329720D01*
X139400009Y-143182535D01*
X139710442Y-143060917D01*
X139906426Y-142980281D01*
X139920229Y-142974151D01*
X140127881Y-142892013D01*
X140273985Y-142854126D01*
X140281211Y-142853833D01*
X140430261Y-142815898D01*
X140522415Y-142773268D01*
X140787439Y-142646417D01*
X141138748Y-142501909D01*
X141500409Y-142370652D01*
X141558433Y-142351565D01*
X141914840Y-142230272D01*
X142138719Y-142128254D01*
X142260590Y-142019083D01*
X142310977Y-141876333D01*
X142320433Y-141691778D01*
X142308392Y-141461396D01*
X142251740Y-141345897D01*
X142119685Y-141291395D01*
X142087600Y-141284336D01*
X141847643Y-141232151D01*
X141560638Y-141167249D01*
X141516100Y-141156947D01*
X141270980Y-141103533D01*
X140925165Y-141032545D01*
X140544430Y-140957420D01*
X140457767Y-140940764D01*
X140027709Y-140858026D01*
X139568702Y-140768838D01*
X139174248Y-140691378D01*
X139145433Y-140685667D01*
X138806789Y-140618532D01*
X138499351Y-140557665D01*
X138298767Y-140518039D01*
X138127369Y-140505659D01*
X137989649Y-140570284D01*
X137829157Y-140742167D01*
X137790767Y-140790290D01*
X137611326Y-141012140D01*
X137455462Y-141195179D01*
X137409767Y-141245172D01*
X137283508Y-141391381D01*
X137110708Y-141608195D01*
X137030196Y-141713626D01*
X136726004Y-142110000D01*
X136497443Y-142388546D01*
X136433136Y-142461115D01*
X136344384Y-142566745D01*
X136178835Y-142770330D01*
X135964727Y-143037002D01*
X135840815Y-143192500D01*
X135615949Y-143471965D01*
X135427415Y-143699882D01*
X135301895Y-143844313D01*
X135269180Y-143876745D01*
X135179249Y-143973165D01*
X135043250Y-144147836D01*
X135014834Y-144186918D01*
X134845376Y-144413375D01*
X134634724Y-144682714D01*
X134545152Y-144793840D01*
X134404017Y-144984572D01*
X134338781Y-145110236D01*
X133898860Y-145110236D01*
X133990003Y-145010644D01*
X134071374Y-144911329D01*
X134356659Y-144552770D01*
X134655192Y-144180261D01*
X134939359Y-143827999D01*
X135181548Y-143530179D01*
X135354144Y-143320997D01*
X135387112Y-143281943D01*
X135554187Y-143076891D01*
X135745975Y-142829459D01*
X135787644Y-142773943D01*
X135933459Y-142581566D01*
X136035940Y-142452693D01*
X136055782Y-142430500D01*
X136127570Y-142348038D01*
X136274805Y-142171179D01*
X136466470Y-141937205D01*
X136478433Y-141922500D01*
X136671742Y-141686333D01*
X136822440Y-141505094D01*
X136899510Y-141416065D01*
X136901084Y-141414500D01*
X136973249Y-141326759D01*
X137107972Y-141150525D01*
X137195137Y-141033500D01*
X137360133Y-140817864D01*
X137495254Y-140654707D01*
X137537653Y-140610167D01*
X137636410Y-140501829D01*
X137800204Y-140305298D01*
X137864998Y-140224292D01*
X138271373Y-140224292D01*
X138273291Y-140229181D01*
X138362203Y-140244561D01*
X138576251Y-140285453D01*
X138874556Y-140344004D01*
X138976100Y-140364184D01*
X139411776Y-140450944D01*
X139890437Y-140546159D01*
X140288433Y-140625240D01*
X140700422Y-140707206D01*
X141141526Y-140795232D01*
X141473767Y-140861744D01*
X141853973Y-140939239D01*
X142099765Y-140971843D01*
X142240225Y-140934918D01*
X142304436Y-140803829D01*
X142321480Y-140553938D01*
X142320440Y-140160608D01*
X142320433Y-140144500D01*
X142320433Y-139297833D01*
X140669433Y-139297833D01*
X140093639Y-139299252D01*
X139663234Y-139304845D01*
X139354286Y-139316623D01*
X139142865Y-139336591D01*
X139005040Y-139366759D01*
X138916880Y-139409134D01*
X138870267Y-139448793D01*
X138746789Y-139587434D01*
X138592793Y-139776617D01*
X138440646Y-139974029D01*
X138322717Y-140137358D01*
X138271373Y-140224292D01*
X137864998Y-140224292D01*
X137962684Y-140102167D01*
X138155151Y-139861009D01*
X138318361Y-139663198D01*
X138402852Y-139566952D01*
X138494742Y-139442616D01*
X138510433Y-139395321D01*
X138562371Y-139300468D01*
X138692029Y-139136546D01*
X138743267Y-139078510D01*
X138911634Y-138885515D01*
X139357100Y-138885515D01*
X139424258Y-138926104D01*
X139630498Y-138959820D01*
X139982970Y-138987180D01*
X140488824Y-139008700D01*
X141155210Y-139024899D01*
X141325600Y-139027824D01*
X142320433Y-139043833D01*
X142320433Y-138281833D01*
X142316177Y-137946253D01*
X142304776Y-137686079D01*
X142288282Y-137539092D01*
X142279045Y-137519833D01*
X142183365Y-137539992D01*
X141966053Y-137593525D01*
X141669048Y-137670018D01*
X141580545Y-137693281D01*
X141022891Y-137841665D01*
X140603684Y-137958356D01*
X140297369Y-138053803D01*
X140078387Y-138138460D01*
X139921182Y-138222777D01*
X139800197Y-138317206D01*
X139689874Y-138432200D01*
X139643861Y-138485297D01*
X139481311Y-138686765D01*
X139377386Y-138837790D01*
X139357100Y-138885515D01*
X138911634Y-138885515D01*
X139063131Y-138711858D01*
X139434538Y-138264791D01*
X139810403Y-137794542D01*
X139931848Y-137637672D01*
X140373100Y-137637672D01*
X140375118Y-137668145D01*
X140401833Y-137681112D01*
X140484232Y-137671713D01*
X140653303Y-137635087D01*
X140940035Y-137566374D01*
X141144635Y-137516662D01*
X141501667Y-137425870D01*
X141821510Y-137337379D01*
X142048171Y-137266881D01*
X142087600Y-137252391D01*
X142320433Y-137160623D01*
X142320433Y-136197228D01*
X142317984Y-135816069D01*
X142311330Y-135506140D01*
X142301513Y-135301045D01*
X142290590Y-135233833D01*
X142228798Y-135295962D01*
X142091470Y-135460826D01*
X141905267Y-135696144D01*
X141853586Y-135763000D01*
X141648301Y-136025349D01*
X141474495Y-136239459D01*
X141364398Y-136365800D01*
X141353107Y-136376833D01*
X141248054Y-136490704D01*
X141083595Y-136688330D01*
X140888439Y-136932775D01*
X140691297Y-137187102D01*
X140520878Y-137414374D01*
X140405891Y-137577655D01*
X140373100Y-137637672D01*
X139931848Y-137637672D01*
X139983643Y-137570769D01*
X140163186Y-137340645D01*
X140304278Y-137168421D01*
X140371002Y-137096500D01*
X140445088Y-137015567D01*
X140597746Y-136832427D01*
X140803257Y-136578277D01*
X140940114Y-136406100D01*
X141184226Y-136100954D01*
X141410066Y-135825424D01*
X141583232Y-135621200D01*
X141638768Y-135559433D01*
X141825868Y-135331425D01*
X141964201Y-135128000D01*
X142085444Y-134965572D01*
X142187562Y-134893428D01*
X142190521Y-134893239D01*
X142184764Y-134862122D01*
X142057420Y-134788061D01*
X142024100Y-134772023D01*
X141682178Y-134614807D01*
X141363937Y-134474347D01*
X141107334Y-134366837D01*
X140950326Y-134308468D01*
X140923433Y-134302500D01*
X140818582Y-134270082D01*
X140575441Y-134171232D01*
X140188260Y-134003554D01*
X139907433Y-133879167D01*
X139443882Y-133674888D01*
X139124354Y-133539310D01*
X138939818Y-133468686D01*
X138887707Y-133455833D01*
X138779982Y-133423951D01*
X138590350Y-133346077D01*
X138565562Y-133334952D01*
X138057182Y-133107320D01*
X137700877Y-132954005D01*
X137496582Y-132874981D01*
X137448374Y-132863166D01*
X137340879Y-132830876D01*
X137151609Y-132751978D01*
X137126229Y-132740413D01*
X136892864Y-132637246D01*
X136562000Y-132496578D01*
X136162012Y-132329893D01*
X135721279Y-132148674D01*
X135268177Y-131964402D01*
X134831082Y-131788562D01*
X134438373Y-131632636D01*
X134118425Y-131508107D01*
X133899616Y-131426457D01*
X133811433Y-131399065D01*
X133714022Y-131429748D01*
X133488707Y-131514141D01*
X133163865Y-131640762D01*
X132767874Y-131798127D01*
X132329109Y-131974753D01*
X131875949Y-132159159D01*
X131436771Y-132339861D01*
X131039950Y-132505375D01*
X130713864Y-132644220D01*
X130496638Y-132740413D01*
X130301005Y-132823257D01*
X130177346Y-132862645D01*
X130170767Y-132863167D01*
X130060311Y-132895128D01*
X129869148Y-132973167D01*
X129844895Y-132984047D01*
X129350336Y-133205592D01*
X128996176Y-133358550D01*
X128786989Y-133440982D01*
X128731433Y-133455833D01*
X128626582Y-133488251D01*
X128383441Y-133587101D01*
X127996260Y-133754779D01*
X127715433Y-133879167D01*
X127245368Y-134086297D01*
X126922552Y-134223263D01*
X126741235Y-134292459D01*
X126699433Y-134302500D01*
X126642362Y-134316644D01*
X126514352Y-134365251D01*
X126293046Y-134457583D01*
X125956084Y-134602902D01*
X125618504Y-134750270D01*
X125384242Y-134852833D01*
X124960116Y-134852833D01*
X124960958Y-134591388D01*
X124962601Y-133809919D01*
X124963551Y-132964678D01*
X124963767Y-132312833D01*
X124963767Y-131211605D01*
X125302433Y-131211605D01*
X125302796Y-132051776D01*
X125304341Y-132737815D01*
X125307754Y-133284920D01*
X125313719Y-133708291D01*
X125322923Y-134023129D01*
X125336049Y-134244632D01*
X125353784Y-134388000D01*
X125376813Y-134468434D01*
X125405820Y-134501131D01*
X125441491Y-134501293D01*
X125450600Y-134498366D01*
X125623781Y-134420652D01*
X125683433Y-134384386D01*
X125825547Y-134314483D01*
X125979767Y-134260440D01*
X126209756Y-134179401D01*
X126539666Y-134047067D01*
X126916606Y-133885107D01*
X127122767Y-133792188D01*
X127249962Y-133737927D01*
X127508015Y-133630998D01*
X127870765Y-133482128D01*
X128312052Y-133302043D01*
X128805714Y-133101469D01*
X128943100Y-133045796D01*
X129517154Y-132813290D01*
X130112636Y-132572084D01*
X130684588Y-132340390D01*
X131188056Y-132136419D01*
X131567767Y-131982562D01*
X131958177Y-131823306D01*
X132303489Y-131680528D01*
X132566500Y-131569736D01*
X132710007Y-131506439D01*
X132710767Y-131506072D01*
X132899362Y-131424878D01*
X133154812Y-131326199D01*
X133218767Y-131302961D01*
X133394829Y-131229286D01*
X133395084Y-131229076D01*
X134079612Y-131229076D01*
X134326523Y-131290650D01*
X134591205Y-131374096D01*
X134827433Y-131469105D01*
X135021476Y-131553838D01*
X135319615Y-131678873D01*
X135668585Y-131821977D01*
X135801100Y-131875527D01*
X136168146Y-132024500D01*
X136660282Y-132226137D01*
X137246467Y-132467558D01*
X137895658Y-132735879D01*
X138576813Y-133018218D01*
X139258890Y-133301692D01*
X139910847Y-133573420D01*
X140501643Y-133820517D01*
X141000235Y-134030103D01*
X141346767Y-134176987D01*
X141696731Y-134324766D01*
X141988653Y-134445102D01*
X142187764Y-134523847D01*
X142256933Y-134547398D01*
X142270845Y-134467776D01*
X142283703Y-134236768D01*
X142295168Y-133872321D01*
X142304899Y-133392379D01*
X142312554Y-132814890D01*
X142317794Y-132157798D01*
X142320276Y-131439050D01*
X142320433Y-131203108D01*
X142319401Y-130330424D01*
X142316033Y-129614307D01*
X142309921Y-129042001D01*
X142300657Y-128600751D01*
X142287835Y-128277802D01*
X142271045Y-128060398D01*
X142249882Y-127935785D01*
X142223936Y-127891206D01*
X142214600Y-127891743D01*
X141982496Y-127985204D01*
X141646161Y-128122314D01*
X141236116Y-128290458D01*
X140782883Y-128477024D01*
X140316983Y-128669400D01*
X139868937Y-128854972D01*
X139469265Y-129021127D01*
X139148490Y-129155253D01*
X138937131Y-129244736D01*
X138878638Y-129270328D01*
X138682840Y-129352392D01*
X138559224Y-129391334D01*
X138552767Y-129391833D01*
X138442311Y-129423794D01*
X138251148Y-129501834D01*
X138226895Y-129512714D01*
X137718515Y-129740346D01*
X137362210Y-129893661D01*
X137157915Y-129972685D01*
X137109707Y-129984500D01*
X137002216Y-130016797D01*
X136812953Y-130095716D01*
X136787562Y-130107288D01*
X136599340Y-130188610D01*
X136298657Y-130312649D01*
X135930917Y-130460861D01*
X135631767Y-130579342D01*
X135234144Y-130737356D01*
X134859807Y-130889284D01*
X134557992Y-131014976D01*
X134411189Y-131078841D01*
X134079612Y-131229076D01*
X133395084Y-131229076D01*
X133452975Y-131181452D01*
X133430433Y-131172926D01*
X133278993Y-131132232D01*
X133051532Y-131040809D01*
X132964767Y-131000500D01*
X132744174Y-130900211D01*
X132588451Y-130840755D01*
X132557955Y-130834039D01*
X132457719Y-130805400D01*
X132241524Y-130719750D01*
X131896037Y-130571584D01*
X131525433Y-130407833D01*
X131061882Y-130203555D01*
X130742354Y-130067977D01*
X130557818Y-129997352D01*
X130505707Y-129984500D01*
X130397982Y-129952617D01*
X130208350Y-129874744D01*
X130183562Y-129863619D01*
X129675182Y-129635987D01*
X129318877Y-129482672D01*
X129114582Y-129403648D01*
X129066374Y-129391833D01*
X128958805Y-129359673D01*
X128769419Y-129281101D01*
X128744229Y-129269679D01*
X128571324Y-129195095D01*
X128276915Y-129072895D01*
X127896937Y-128917809D01*
X127467324Y-128744564D01*
X127292100Y-128674467D01*
X126863183Y-128502464D01*
X126479737Y-128347160D01*
X126174328Y-128221861D01*
X125979525Y-128139872D01*
X125937433Y-128121035D01*
X125726807Y-128030279D01*
X125535267Y-127956343D01*
X125302433Y-127872024D01*
X125302433Y-131211605D01*
X124963767Y-131211605D01*
X124963767Y-127529167D01*
X125154267Y-127532039D01*
X125349026Y-127570224D01*
X125603418Y-127662082D01*
X125683433Y-127698500D01*
X125904025Y-127798789D01*
X126059749Y-127858245D01*
X126090245Y-127864960D01*
X126204709Y-127899231D01*
X126452822Y-127999744D01*
X126841397Y-128169359D01*
X127220229Y-128339619D01*
X127416109Y-128421292D01*
X127539703Y-128460011D01*
X127546100Y-128460500D01*
X127656561Y-128492452D01*
X127847732Y-128570467D01*
X127871971Y-128581337D01*
X128010865Y-128641127D01*
X128286580Y-128757135D01*
X128679344Y-128921139D01*
X129169387Y-129124916D01*
X129736936Y-129360243D01*
X130362221Y-129618896D01*
X130951112Y-129861991D01*
X133763458Y-131021808D01*
X134464779Y-130744936D01*
X134894268Y-130574405D01*
X135231686Y-130437306D01*
X135542960Y-130306163D01*
X135894021Y-130153502D01*
X136071621Y-130075286D01*
X136307596Y-129975230D01*
X136475263Y-129911700D01*
X136520767Y-129899833D01*
X136609838Y-129873500D01*
X136815745Y-129790901D01*
X137151449Y-129646639D01*
X137536767Y-129476728D01*
X137682225Y-129416200D01*
X137945524Y-129310287D01*
X138286680Y-129174966D01*
X138595100Y-129053806D01*
X138983625Y-128900202D01*
X139339886Y-128756434D01*
X139618438Y-128641001D01*
X139750895Y-128583288D01*
X139945317Y-128500510D01*
X140066640Y-128461045D01*
X140073041Y-128460500D01*
X140191613Y-128423372D01*
X140462159Y-128311969D01*
X140884743Y-128126264D01*
X141190229Y-127988714D01*
X141390398Y-127905945D01*
X141522085Y-127865604D01*
X141528895Y-127864960D01*
X141643484Y-127829032D01*
X141846929Y-127742036D01*
X141939433Y-127698500D01*
X142073738Y-127629127D01*
X142187776Y-127569066D01*
X142283194Y-127530301D01*
X142361638Y-127524816D01*
X142424753Y-127564594D01*
X142424753Y-127564594D01*
G37*
X142424753Y-127564594D02*
X142474184Y-127661622D01*
X142511579Y-127827882D01*
X142538581Y-128075359D01*
X142556837Y-128416038D01*
X142567993Y-128861902D01*
X142573694Y-129424937D01*
X142575587Y-130117126D01*
X142575316Y-130950454D01*
X142574527Y-131936905D01*
X142574433Y-132322703D01*
X142574433Y-137116240D01*
X142764933Y-137070226D01*
X142941980Y-137028125D01*
X143223135Y-136961954D01*
X143547583Y-136886025D01*
X143548100Y-136885905D01*
X143868792Y-136806451D01*
X144142029Y-136730580D01*
X144309145Y-136674592D01*
X144310100Y-136674180D01*
X144455599Y-136625578D01*
X144726888Y-136547391D01*
X145085302Y-136450377D01*
X145492172Y-136345291D01*
X145495433Y-136344468D01*
X145918284Y-136236678D01*
X146308592Y-136135168D01*
X146621712Y-136051673D01*
X146807208Y-135999670D01*
X147053957Y-135931737D01*
X147180130Y-135923843D01*
X147225719Y-135982253D01*
X147231100Y-136066090D01*
X147194377Y-136160210D01*
X147063766Y-136239042D01*
X146808599Y-136318056D01*
X146659600Y-136354390D01*
X146275957Y-136447333D01*
X145875740Y-136549553D01*
X145622433Y-136617751D01*
X145295755Y-136707586D01*
X144894399Y-136816078D01*
X144521767Y-136915362D01*
X144092280Y-137028817D01*
X143787386Y-137109800D01*
X143567945Y-137169032D01*
X143394818Y-137217233D01*
X143228864Y-137265121D01*
X143030943Y-137323418D01*
X143018933Y-137326968D01*
X142574433Y-137458347D01*
X142574433Y-139021677D01*
X142891933Y-139074157D01*
X143066048Y-139089148D01*
X143381080Y-139102550D01*
X143808615Y-139113713D01*
X144320240Y-139121984D01*
X144887542Y-139126711D01*
X145220267Y-139127568D01*
X145853723Y-139128285D01*
X146337897Y-139130945D01*
X146692840Y-139137300D01*
X146938604Y-139149106D01*
X147095239Y-139168117D01*
X147182797Y-139196087D01*
X147221329Y-139234771D01*
X147230885Y-139285923D01*
X147231100Y-139303504D01*
X147226655Y-139360658D01*
X147199355Y-139403090D01*
X147128255Y-139432220D01*
X146992408Y-139449463D01*
X146770868Y-139456239D01*
X146442688Y-139453964D01*
X145986923Y-139444056D01*
X145389600Y-139428123D01*
X144813524Y-139410929D01*
X144263507Y-139391882D01*
X143773187Y-139372348D01*
X143376203Y-139353692D01*
X143106193Y-139337282D01*
X143061267Y-139333581D01*
X142574433Y-139289425D01*
X142574433Y-140181016D01*
X142571614Y-140578897D01*
X142581057Y-140841792D01*
X142629616Y-141003419D01*
X142744142Y-141097496D01*
X142951487Y-141157740D01*
X143278503Y-141217871D01*
X143421100Y-141244162D01*
X143759312Y-141310403D01*
X144164438Y-141392831D01*
X144479433Y-141458900D01*
X144864416Y-141537653D01*
X145322367Y-141626331D01*
X145759267Y-141706764D01*
X145791767Y-141712523D01*
X146328568Y-141811569D01*
X146718494Y-141895437D01*
X146982546Y-141971132D01*
X147141723Y-142045655D01*
X147217025Y-142126010D01*
X147231100Y-142192500D01*
X147199856Y-142304790D01*
X147154804Y-142308673D01*
X147080907Y-142280078D01*
X146925833Y-142238753D01*
X146677694Y-142182279D01*
X146324597Y-142108240D01*
X145854653Y-142014217D01*
X145255972Y-141897793D01*
X144516663Y-141756549D01*
X143624835Y-141588069D01*
X143439914Y-141553296D01*
X143108487Y-141487024D01*
X142839766Y-141425910D01*
X142678517Y-141380391D01*
X142656748Y-141370713D01*
X142609244Y-141416810D01*
X142580141Y-141606222D01*
X142573294Y-141811670D01*
X142572155Y-142303500D01*
X141551827Y-142684500D01*
X141111340Y-142848784D01*
X140678074Y-143010033D01*
X140303463Y-143149124D01*
X140050132Y-143242813D01*
X139553399Y-143428246D01*
X139189141Y-143570237D01*
X138929466Y-143679716D01*
X138891433Y-143696926D01*
X138671066Y-143781886D01*
X138510433Y-143831596D01*
X138275740Y-143909810D01*
X138044767Y-144004289D01*
X137861544Y-144081518D01*
X137564633Y-144199979D01*
X137199071Y-144341911D01*
X136901767Y-144455029D01*
X136174822Y-144729252D01*
X135590640Y-144950105D01*
X135133417Y-145123636D01*
X134787350Y-145255894D01*
X134536634Y-145352928D01*
X134365468Y-145420787D01*
X134258046Y-145465519D01*
X134234767Y-145475841D01*
X133927206Y-145583325D01*
X133666820Y-145581285D01*
X133388100Y-145477817D01*
X133155035Y-145376837D01*
X132974555Y-145317943D01*
X132935229Y-145312039D01*
X132783886Y-145276379D01*
X132570751Y-145193625D01*
X132554229Y-145186096D01*
X132356168Y-145101301D01*
X132033969Y-144970675D01*
X131622143Y-144807584D01*
X131155204Y-144625393D01*
X130667662Y-144437466D01*
X130194030Y-144257169D01*
X129768819Y-144097866D01*
X129426541Y-143972923D01*
X129366433Y-143951598D01*
X129077497Y-143843960D01*
X128850641Y-143748670D01*
X128735667Y-143686800D01*
X128581512Y-143620018D01*
X128536795Y-143615833D01*
X128382321Y-143582114D01*
X128167600Y-143500212D01*
X128151562Y-143492918D01*
X127927585Y-143397720D01*
X127545337Y-143245535D01*
X127005857Y-143036764D01*
X126310187Y-142771811D01*
X125514100Y-142471636D01*
X125006100Y-142280797D01*
X124980509Y-141847649D01*
X124970449Y-141706363D01*
X125302433Y-141706363D01*
X125302433Y-142079667D01*
X125789267Y-142255561D01*
X126075827Y-142364057D01*
X126313322Y-142462697D01*
X126423118Y-142515644D01*
X126591029Y-142586700D01*
X126664322Y-142599833D01*
X126801669Y-142631258D01*
X127008201Y-142707638D01*
X127025304Y-142714935D01*
X127428305Y-142885922D01*
X127777235Y-143025644D01*
X128157577Y-143167700D01*
X128392767Y-143252437D01*
X128725135Y-143374434D01*
X129028704Y-143491235D01*
X129238198Y-143577720D01*
X129239433Y-143578273D01*
X129486445Y-143682277D01*
X129835146Y-143820600D01*
X130238422Y-143975496D01*
X130649162Y-144129216D01*
X131020252Y-144264012D01*
X131304579Y-144362137D01*
X131398433Y-144391594D01*
X131617824Y-144469552D01*
X131765003Y-144546403D01*
X131775200Y-144555035D01*
X131929781Y-144627849D01*
X131970345Y-144631833D01*
X132113825Y-144663869D01*
X132340102Y-144744524D01*
X132440245Y-144786186D01*
X132796334Y-144939769D01*
X133027147Y-145035165D01*
X133162120Y-145083026D01*
X133230684Y-145094004D01*
X133258648Y-145082374D01*
X133242488Y-145010257D01*
X133215833Y-144987063D01*
X133119928Y-144888234D01*
X132969290Y-144703349D01*
X132883063Y-144589500D01*
X132718067Y-144373864D01*
X132582946Y-144210707D01*
X132540547Y-144166167D01*
X132483298Y-144107333D01*
X132391773Y-144000876D01*
X132249621Y-143826673D01*
X132040490Y-143564599D01*
X131748029Y-143194532D01*
X131652581Y-143073392D01*
X131519201Y-142909044D01*
X131336177Y-142689218D01*
X131267363Y-142607726D01*
X131092072Y-142395195D01*
X130857693Y-142103268D01*
X130608227Y-141786886D01*
X130548991Y-141710833D01*
X130308111Y-141407844D01*
X130075392Y-141127227D01*
X129891993Y-140918295D01*
X129854561Y-140878820D01*
X129704647Y-140705163D01*
X129624577Y-140572662D01*
X129620433Y-140552057D01*
X129597979Y-140511991D01*
X129514691Y-140498393D01*
X129346684Y-140513976D01*
X129070069Y-140561456D01*
X128660959Y-140643544D01*
X128477433Y-140681926D01*
X128133776Y-140751732D01*
X127692075Y-140837904D01*
X127221007Y-140927165D01*
X126953433Y-140976572D01*
X126565617Y-141048965D01*
X126232296Y-141114226D01*
X125993207Y-141164388D01*
X125895100Y-141188748D01*
X125718020Y-141238480D01*
X125535267Y-141282041D01*
X125389567Y-141331592D01*
X125321811Y-141430390D01*
X125302926Y-141631419D01*
X125302433Y-141706363D01*
X124970449Y-141706363D01*
X124963116Y-141603386D01*
X124946292Y-141447091D01*
X124938175Y-141416193D01*
X124831809Y-141433771D01*
X124595589Y-141476081D01*
X124266039Y-141536362D01*
X123879685Y-141607852D01*
X123473051Y-141683790D01*
X123082662Y-141757415D01*
X122745042Y-141821966D01*
X122720100Y-141826788D01*
X122255845Y-141916208D01*
X121754680Y-142012043D01*
X121303031Y-142097787D01*
X121172581Y-142122371D01*
X120841154Y-142188643D01*
X120572433Y-142249756D01*
X120411184Y-142295275D01*
X120389414Y-142304954D01*
X120323357Y-142279154D01*
X120307100Y-142191371D01*
X120316549Y-142111579D01*
X120361250Y-142048126D01*
X120465735Y-141992523D01*
X120654535Y-141936280D01*
X120952181Y-141870907D01*
X121383205Y-141787914D01*
X121577100Y-141751838D01*
X122041985Y-141664484D01*
X122535663Y-141569779D01*
X122978689Y-141483030D01*
X123143433Y-141450045D01*
X123559089Y-141367604D01*
X123999302Y-141282889D01*
X124369187Y-141214157D01*
X124371100Y-141213812D01*
X124921433Y-141114626D01*
X124924489Y-140998840D01*
X125302433Y-140998840D01*
X125577600Y-140950643D01*
X125830616Y-140904513D01*
X126147047Y-140844516D01*
X126276100Y-140819441D01*
X126572770Y-140761029D01*
X126956355Y-140685177D01*
X127347703Y-140607541D01*
X127376767Y-140601763D01*
X127797865Y-140519054D01*
X128248395Y-140432144D01*
X128627340Y-140360499D01*
X128919266Y-140302028D01*
X129138359Y-140250294D01*
X129238159Y-140216292D01*
X129238688Y-140215801D01*
X129212947Y-140133447D01*
X129108226Y-139955984D01*
X128961782Y-139742439D01*
X128646767Y-139307186D01*
X126974600Y-139302509D01*
X125302433Y-139297833D01*
X125302433Y-140998840D01*
X124924489Y-140998840D01*
X124945498Y-140202929D01*
X124969562Y-139291232D01*
X124564498Y-139334058D01*
X124361493Y-139348762D01*
X124020088Y-139365941D01*
X123571175Y-139384370D01*
X123045648Y-139402823D01*
X122474397Y-139420075D01*
X122233267Y-139426539D01*
X121615100Y-139442070D01*
X121145725Y-139451725D01*
X120804659Y-139454183D01*
X120571422Y-139448123D01*
X120425533Y-139432225D01*
X120346511Y-139405168D01*
X120313874Y-139365632D01*
X120307142Y-139312296D01*
X120307100Y-139302346D01*
X120312165Y-139247576D01*
X120340728Y-139205701D01*
X120412836Y-139174979D01*
X120548537Y-139153668D01*
X120767881Y-139140024D01*
X121090916Y-139132305D01*
X121537691Y-139128769D01*
X122128254Y-139127673D01*
X122317933Y-139127568D01*
X122904058Y-139125119D01*
X123450481Y-139118760D01*
X123928788Y-139109143D01*
X124310565Y-139096920D01*
X124567399Y-139082742D01*
X124646267Y-139074157D01*
X124963767Y-139021677D01*
X124963767Y-138271958D01*
X125302433Y-138271958D01*
X125302433Y-139043833D01*
X126009093Y-139043833D01*
X126447107Y-139036947D01*
X126954024Y-139018760D01*
X127430077Y-138992980D01*
X127492126Y-138988725D01*
X128268500Y-138933616D01*
X128125227Y-138714954D01*
X127852202Y-138362048D01*
X127570555Y-138142654D01*
X127292100Y-138036072D01*
X126919166Y-137941088D01*
X126513575Y-137835674D01*
X126120069Y-137731693D01*
X125783388Y-137641008D01*
X125548277Y-137575482D01*
X125492933Y-137559048D01*
X125403246Y-137537843D01*
X125347330Y-137561749D01*
X125317209Y-137660615D01*
X125304906Y-137864290D01*
X125302446Y-138202624D01*
X125302433Y-138271958D01*
X124963767Y-138271958D01*
X124963767Y-138238694D01*
X124960624Y-137850975D01*
X124932191Y-137595394D01*
X124849955Y-137434782D01*
X124685406Y-137331974D01*
X124410035Y-137249803D01*
X124159433Y-137190165D01*
X123951584Y-137138685D01*
X123622241Y-137054165D01*
X123213439Y-136947507D01*
X122767215Y-136829619D01*
X122677767Y-136805809D01*
X122195175Y-136678935D01*
X121708561Y-136554018D01*
X121272319Y-136444841D01*
X120940844Y-136365188D01*
X120920933Y-136360608D01*
X120595604Y-136278052D01*
X120406232Y-136204985D01*
X120321296Y-136125914D01*
X120307100Y-136058882D01*
X120332657Y-135952986D01*
X120440689Y-135930111D01*
X120582267Y-135952066D01*
X120849835Y-136016388D01*
X121069100Y-136084425D01*
X121261922Y-136145395D01*
X121551993Y-136226032D01*
X121831100Y-136297531D01*
X122200693Y-136389689D01*
X122579020Y-136486246D01*
X122804767Y-136545290D01*
X123162045Y-136639742D01*
X123558535Y-136743561D01*
X123960285Y-136847985D01*
X124333343Y-136944252D01*
X124643756Y-137023600D01*
X124857572Y-137077267D01*
X124940658Y-137096500D01*
X124944921Y-137014347D01*
X124948929Y-136777940D01*
X124952610Y-136402361D01*
X124954073Y-136179402D01*
X125302433Y-136179402D01*
X125304039Y-136622059D01*
X125323081Y-136927149D01*
X125380901Y-137126393D01*
X125498837Y-137251513D01*
X125698230Y-137334230D01*
X126000419Y-137406265D01*
X126149100Y-137437962D01*
X126486789Y-137518159D01*
X126818795Y-137609399D01*
X126953433Y-137651664D01*
X127196864Y-137732588D01*
X127307818Y-137758576D01*
X127314863Y-137727027D01*
X127246565Y-137635340D01*
X127238967Y-137625667D01*
X127127916Y-137489076D01*
X127079951Y-137435167D01*
X127008593Y-137347348D01*
X126874671Y-137170963D01*
X126788094Y-137054167D01*
X126632422Y-136849323D01*
X126514911Y-136706961D01*
X126481075Y-136673167D01*
X126407710Y-136592770D01*
X126254546Y-136408378D01*
X126045834Y-136149588D01*
X125862766Y-135918542D01*
X125302433Y-135206251D01*
X125302433Y-136179402D01*
X124954073Y-136179402D01*
X124955890Y-135902689D01*
X124958697Y-135294005D01*
X124960116Y-134852833D01*
X125384242Y-134852833D01*
X125727177Y-135276167D01*
X125956499Y-135558724D01*
X126185154Y-135839629D01*
X126312729Y-135995833D01*
X126490449Y-136214375D01*
X126723512Y-136502904D01*
X126961577Y-136799098D01*
X126962434Y-136800167D01*
X127162858Y-137047887D01*
X127322767Y-137241122D01*
X127412517Y-137344149D01*
X127419100Y-137350500D01*
X127492090Y-137433172D01*
X127639891Y-137613184D01*
X127832992Y-137854492D01*
X127869636Y-137900833D01*
X128085652Y-138173230D01*
X128278617Y-138414322D01*
X128409404Y-138575242D01*
X128416347Y-138583594D01*
X128558064Y-138757931D01*
X128742889Y-138990649D01*
X128816100Y-139084094D01*
X129029326Y-139352903D01*
X129271758Y-139652097D01*
X129366433Y-139767026D01*
X129596141Y-140046360D01*
X129831643Y-140336414D01*
X129916767Y-140442482D01*
X130085551Y-140651564D01*
X130219090Y-140812806D01*
X130255433Y-140854790D01*
X130353540Y-140975649D01*
X130506339Y-141175537D01*
X130589624Y-141287500D01*
X130744248Y-141492104D01*
X130858999Y-141634455D01*
X130891044Y-141668500D01*
X130960828Y-141747359D01*
X131114061Y-141932262D01*
X131328954Y-142196591D01*
X131583718Y-142513728D01*
X131615186Y-142553132D01*
X131887192Y-142892066D01*
X132135620Y-143198215D01*
X132333588Y-143438671D01*
X132454211Y-143580524D01*
X132456767Y-143583370D01*
X132578508Y-143728763D01*
X132771977Y-143971207D01*
X133006982Y-144272525D01*
X133176433Y-144493314D01*
X133405255Y-144788371D01*
X133597056Y-145026078D01*
X133728732Y-145178395D01*
X133775041Y-145219909D01*
X133851269Y-145162239D01*
X133898860Y-145110236D01*
X134338781Y-145110236D01*
X134349655Y-145139833D01*
X134472473Y-145078309D01*
X134484741Y-145061680D01*
X134594771Y-144989829D01*
X134791558Y-144926748D01*
X134791774Y-144926701D01*
X135065385Y-144842912D01*
X135277636Y-144751375D01*
X135489735Y-144664479D01*
X135647936Y-144632355D01*
X135796842Y-144593942D01*
X135836255Y-144558781D01*
X135938664Y-144494272D01*
X136146446Y-144414442D01*
X136266767Y-144377833D01*
X136504221Y-144299494D01*
X136664803Y-144224498D01*
X136697278Y-144196886D01*
X136811920Y-144131070D01*
X136872801Y-144123833D01*
X137036519Y-144090021D01*
X137256106Y-144008005D01*
X137269971Y-144001739D01*
X137449732Y-143926316D01*
X137748686Y-143808192D01*
X138126998Y-143662839D01*
X138544833Y-143505728D01*
X138595100Y-143487056D01*
X139014952Y-143329720D01*
X139400009Y-143182535D01*
X139710442Y-143060917D01*
X139906426Y-142980281D01*
X139920229Y-142974151D01*
X140127881Y-142892013D01*
X140273985Y-142854126D01*
X140281211Y-142853833D01*
X140430261Y-142815898D01*
X140522415Y-142773268D01*
X140787439Y-142646417D01*
X141138748Y-142501909D01*
X141500409Y-142370652D01*
X141558433Y-142351565D01*
X141914840Y-142230272D01*
X142138719Y-142128254D01*
X142260590Y-142019083D01*
X142310977Y-141876333D01*
X142320433Y-141691778D01*
X142308392Y-141461396D01*
X142251740Y-141345897D01*
X142119685Y-141291395D01*
X142087600Y-141284336D01*
X141847643Y-141232151D01*
X141560638Y-141167249D01*
X141516100Y-141156947D01*
X141270980Y-141103533D01*
X140925165Y-141032545D01*
X140544430Y-140957420D01*
X140457767Y-140940764D01*
X140027709Y-140858026D01*
X139568702Y-140768838D01*
X139174248Y-140691378D01*
X139145433Y-140685667D01*
X138806789Y-140618532D01*
X138499351Y-140557665D01*
X138298767Y-140518039D01*
X138127369Y-140505659D01*
X137989649Y-140570284D01*
X137829157Y-140742167D01*
X137790767Y-140790290D01*
X137611326Y-141012140D01*
X137455462Y-141195179D01*
X137409767Y-141245172D01*
X137283508Y-141391381D01*
X137110708Y-141608195D01*
X137030196Y-141713626D01*
X136726004Y-142110000D01*
X136497443Y-142388546D01*
X136433136Y-142461115D01*
X136344384Y-142566745D01*
X136178835Y-142770330D01*
X135964727Y-143037002D01*
X135840815Y-143192500D01*
X135615949Y-143471965D01*
X135427415Y-143699882D01*
X135301895Y-143844313D01*
X135269180Y-143876745D01*
X135179249Y-143973165D01*
X135043250Y-144147836D01*
X135014834Y-144186918D01*
X134845376Y-144413375D01*
X134634724Y-144682714D01*
X134545152Y-144793840D01*
X134404017Y-144984572D01*
X134338781Y-145110236D01*
X133898860Y-145110236D01*
X133990003Y-145010644D01*
X134071374Y-144911329D01*
X134356659Y-144552770D01*
X134655192Y-144180261D01*
X134939359Y-143827999D01*
X135181548Y-143530179D01*
X135354144Y-143320997D01*
X135387112Y-143281943D01*
X135554187Y-143076891D01*
X135745975Y-142829459D01*
X135787644Y-142773943D01*
X135933459Y-142581566D01*
X136035940Y-142452693D01*
X136055782Y-142430500D01*
X136127570Y-142348038D01*
X136274805Y-142171179D01*
X136466470Y-141937205D01*
X136478433Y-141922500D01*
X136671742Y-141686333D01*
X136822440Y-141505094D01*
X136899510Y-141416065D01*
X136901084Y-141414500D01*
X136973249Y-141326759D01*
X137107972Y-141150525D01*
X137195137Y-141033500D01*
X137360133Y-140817864D01*
X137495254Y-140654707D01*
X137537653Y-140610167D01*
X137636410Y-140501829D01*
X137800204Y-140305298D01*
X137864998Y-140224292D01*
X138271373Y-140224292D01*
X138273291Y-140229181D01*
X138362203Y-140244561D01*
X138576251Y-140285453D01*
X138874556Y-140344004D01*
X138976100Y-140364184D01*
X139411776Y-140450944D01*
X139890437Y-140546159D01*
X140288433Y-140625240D01*
X140700422Y-140707206D01*
X141141526Y-140795232D01*
X141473767Y-140861744D01*
X141853973Y-140939239D01*
X142099765Y-140971843D01*
X142240225Y-140934918D01*
X142304436Y-140803829D01*
X142321480Y-140553938D01*
X142320440Y-140160608D01*
X142320433Y-140144500D01*
X142320433Y-139297833D01*
X140669433Y-139297833D01*
X140093639Y-139299252D01*
X139663234Y-139304845D01*
X139354286Y-139316623D01*
X139142865Y-139336591D01*
X139005040Y-139366759D01*
X138916880Y-139409134D01*
X138870267Y-139448793D01*
X138746789Y-139587434D01*
X138592793Y-139776617D01*
X138440646Y-139974029D01*
X138322717Y-140137358D01*
X138271373Y-140224292D01*
X137864998Y-140224292D01*
X137962684Y-140102167D01*
X138155151Y-139861009D01*
X138318361Y-139663198D01*
X138402852Y-139566952D01*
X138494742Y-139442616D01*
X138510433Y-139395321D01*
X138562371Y-139300468D01*
X138692029Y-139136546D01*
X138743267Y-139078510D01*
X138911634Y-138885515D01*
X139357100Y-138885515D01*
X139424258Y-138926104D01*
X139630498Y-138959820D01*
X139982970Y-138987180D01*
X140488824Y-139008700D01*
X141155210Y-139024899D01*
X141325600Y-139027824D01*
X142320433Y-139043833D01*
X142320433Y-138281833D01*
X142316177Y-137946253D01*
X142304776Y-137686079D01*
X142288282Y-137539092D01*
X142279045Y-137519833D01*
X142183365Y-137539992D01*
X141966053Y-137593525D01*
X141669048Y-137670018D01*
X141580545Y-137693281D01*
X141022891Y-137841665D01*
X140603684Y-137958356D01*
X140297369Y-138053803D01*
X140078387Y-138138460D01*
X139921182Y-138222777D01*
X139800197Y-138317206D01*
X139689874Y-138432200D01*
X139643861Y-138485297D01*
X139481311Y-138686765D01*
X139377386Y-138837790D01*
X139357100Y-138885515D01*
X138911634Y-138885515D01*
X139063131Y-138711858D01*
X139434538Y-138264791D01*
X139810403Y-137794542D01*
X139931848Y-137637672D01*
X140373100Y-137637672D01*
X140375118Y-137668145D01*
X140401833Y-137681112D01*
X140484232Y-137671713D01*
X140653303Y-137635087D01*
X140940035Y-137566374D01*
X141144635Y-137516662D01*
X141501667Y-137425870D01*
X141821510Y-137337379D01*
X142048171Y-137266881D01*
X142087600Y-137252391D01*
X142320433Y-137160623D01*
X142320433Y-136197228D01*
X142317984Y-135816069D01*
X142311330Y-135506140D01*
X142301513Y-135301045D01*
X142290590Y-135233833D01*
X142228798Y-135295962D01*
X142091470Y-135460826D01*
X141905267Y-135696144D01*
X141853586Y-135763000D01*
X141648301Y-136025349D01*
X141474495Y-136239459D01*
X141364398Y-136365800D01*
X141353107Y-136376833D01*
X141248054Y-136490704D01*
X141083595Y-136688330D01*
X140888439Y-136932775D01*
X140691297Y-137187102D01*
X140520878Y-137414374D01*
X140405891Y-137577655D01*
X140373100Y-137637672D01*
X139931848Y-137637672D01*
X139983643Y-137570769D01*
X140163186Y-137340645D01*
X140304278Y-137168421D01*
X140371002Y-137096500D01*
X140445088Y-137015567D01*
X140597746Y-136832427D01*
X140803257Y-136578277D01*
X140940114Y-136406100D01*
X141184226Y-136100954D01*
X141410066Y-135825424D01*
X141583232Y-135621200D01*
X141638768Y-135559433D01*
X141825868Y-135331425D01*
X141964201Y-135128000D01*
X142085444Y-134965572D01*
X142187562Y-134893428D01*
X142190521Y-134893239D01*
X142184764Y-134862122D01*
X142057420Y-134788061D01*
X142024100Y-134772023D01*
X141682178Y-134614807D01*
X141363937Y-134474347D01*
X141107334Y-134366837D01*
X140950326Y-134308468D01*
X140923433Y-134302500D01*
X140818582Y-134270082D01*
X140575441Y-134171232D01*
X140188260Y-134003554D01*
X139907433Y-133879167D01*
X139443882Y-133674888D01*
X139124354Y-133539310D01*
X138939818Y-133468686D01*
X138887707Y-133455833D01*
X138779982Y-133423951D01*
X138590350Y-133346077D01*
X138565562Y-133334952D01*
X138057182Y-133107320D01*
X137700877Y-132954005D01*
X137496582Y-132874981D01*
X137448374Y-132863166D01*
X137340879Y-132830876D01*
X137151609Y-132751978D01*
X137126229Y-132740413D01*
X136892864Y-132637246D01*
X136562000Y-132496578D01*
X136162012Y-132329893D01*
X135721279Y-132148674D01*
X135268177Y-131964402D01*
X134831082Y-131788562D01*
X134438373Y-131632636D01*
X134118425Y-131508107D01*
X133899616Y-131426457D01*
X133811433Y-131399065D01*
X133714022Y-131429748D01*
X133488707Y-131514141D01*
X133163865Y-131640762D01*
X132767874Y-131798127D01*
X132329109Y-131974753D01*
X131875949Y-132159159D01*
X131436771Y-132339861D01*
X131039950Y-132505375D01*
X130713864Y-132644220D01*
X130496638Y-132740413D01*
X130301005Y-132823257D01*
X130177346Y-132862645D01*
X130170767Y-132863167D01*
X130060311Y-132895128D01*
X129869148Y-132973167D01*
X129844895Y-132984047D01*
X129350336Y-133205592D01*
X128996176Y-133358550D01*
X128786989Y-133440982D01*
X128731433Y-133455833D01*
X128626582Y-133488251D01*
X128383441Y-133587101D01*
X127996260Y-133754779D01*
X127715433Y-133879167D01*
X127245368Y-134086297D01*
X126922552Y-134223263D01*
X126741235Y-134292459D01*
X126699433Y-134302500D01*
X126642362Y-134316644D01*
X126514352Y-134365251D01*
X126293046Y-134457583D01*
X125956084Y-134602902D01*
X125618504Y-134750270D01*
X125384242Y-134852833D01*
X124960116Y-134852833D01*
X124960958Y-134591388D01*
X124962601Y-133809919D01*
X124963551Y-132964678D01*
X124963767Y-132312833D01*
X124963767Y-131211605D01*
X125302433Y-131211605D01*
X125302796Y-132051776D01*
X125304341Y-132737815D01*
X125307754Y-133284920D01*
X125313719Y-133708291D01*
X125322923Y-134023129D01*
X125336049Y-134244632D01*
X125353784Y-134388000D01*
X125376813Y-134468434D01*
X125405820Y-134501131D01*
X125441491Y-134501293D01*
X125450600Y-134498366D01*
X125623781Y-134420652D01*
X125683433Y-134384386D01*
X125825547Y-134314483D01*
X125979767Y-134260440D01*
X126209756Y-134179401D01*
X126539666Y-134047067D01*
X126916606Y-133885107D01*
X127122767Y-133792188D01*
X127249962Y-133737927D01*
X127508015Y-133630998D01*
X127870765Y-133482128D01*
X128312052Y-133302043D01*
X128805714Y-133101469D01*
X128943100Y-133045796D01*
X129517154Y-132813290D01*
X130112636Y-132572084D01*
X130684588Y-132340390D01*
X131188056Y-132136419D01*
X131567767Y-131982562D01*
X131958177Y-131823306D01*
X132303489Y-131680528D01*
X132566500Y-131569736D01*
X132710007Y-131506439D01*
X132710767Y-131506072D01*
X132899362Y-131424878D01*
X133154812Y-131326199D01*
X133218767Y-131302961D01*
X133394829Y-131229286D01*
X133395084Y-131229076D01*
X134079612Y-131229076D01*
X134326523Y-131290650D01*
X134591205Y-131374096D01*
X134827433Y-131469105D01*
X135021476Y-131553838D01*
X135319615Y-131678873D01*
X135668585Y-131821977D01*
X135801100Y-131875527D01*
X136168146Y-132024500D01*
X136660282Y-132226137D01*
X137246467Y-132467558D01*
X137895658Y-132735879D01*
X138576813Y-133018218D01*
X139258890Y-133301692D01*
X139910847Y-133573420D01*
X140501643Y-133820517D01*
X141000235Y-134030103D01*
X141346767Y-134176987D01*
X141696731Y-134324766D01*
X141988653Y-134445102D01*
X142187764Y-134523847D01*
X142256933Y-134547398D01*
X142270845Y-134467776D01*
X142283703Y-134236768D01*
X142295168Y-133872321D01*
X142304899Y-133392379D01*
X142312554Y-132814890D01*
X142317794Y-132157798D01*
X142320276Y-131439050D01*
X142320433Y-131203108D01*
X142319401Y-130330424D01*
X142316033Y-129614307D01*
X142309921Y-129042001D01*
X142300657Y-128600751D01*
X142287835Y-128277802D01*
X142271045Y-128060398D01*
X142249882Y-127935785D01*
X142223936Y-127891206D01*
X142214600Y-127891743D01*
X141982496Y-127985204D01*
X141646161Y-128122314D01*
X141236116Y-128290458D01*
X140782883Y-128477024D01*
X140316983Y-128669400D01*
X139868937Y-128854972D01*
X139469265Y-129021127D01*
X139148490Y-129155253D01*
X138937131Y-129244736D01*
X138878638Y-129270328D01*
X138682840Y-129352392D01*
X138559224Y-129391334D01*
X138552767Y-129391833D01*
X138442311Y-129423794D01*
X138251148Y-129501834D01*
X138226895Y-129512714D01*
X137718515Y-129740346D01*
X137362210Y-129893661D01*
X137157915Y-129972685D01*
X137109707Y-129984500D01*
X137002216Y-130016797D01*
X136812953Y-130095716D01*
X136787562Y-130107288D01*
X136599340Y-130188610D01*
X136298657Y-130312649D01*
X135930917Y-130460861D01*
X135631767Y-130579342D01*
X135234144Y-130737356D01*
X134859807Y-130889284D01*
X134557992Y-131014976D01*
X134411189Y-131078841D01*
X134079612Y-131229076D01*
X133395084Y-131229076D01*
X133452975Y-131181452D01*
X133430433Y-131172926D01*
X133278993Y-131132232D01*
X133051532Y-131040809D01*
X132964767Y-131000500D01*
X132744174Y-130900211D01*
X132588451Y-130840755D01*
X132557955Y-130834039D01*
X132457719Y-130805400D01*
X132241524Y-130719750D01*
X131896037Y-130571584D01*
X131525433Y-130407833D01*
X131061882Y-130203555D01*
X130742354Y-130067977D01*
X130557818Y-129997352D01*
X130505707Y-129984500D01*
X130397982Y-129952617D01*
X130208350Y-129874744D01*
X130183562Y-129863619D01*
X129675182Y-129635987D01*
X129318877Y-129482672D01*
X129114582Y-129403648D01*
X129066374Y-129391833D01*
X128958805Y-129359673D01*
X128769419Y-129281101D01*
X128744229Y-129269679D01*
X128571324Y-129195095D01*
X128276915Y-129072895D01*
X127896937Y-128917809D01*
X127467324Y-128744564D01*
X127292100Y-128674467D01*
X126863183Y-128502464D01*
X126479737Y-128347160D01*
X126174328Y-128221861D01*
X125979525Y-128139872D01*
X125937433Y-128121035D01*
X125726807Y-128030279D01*
X125535267Y-127956343D01*
X125302433Y-127872024D01*
X125302433Y-131211605D01*
X124963767Y-131211605D01*
X124963767Y-127529167D01*
X125154267Y-127532039D01*
X125349026Y-127570224D01*
X125603418Y-127662082D01*
X125683433Y-127698500D01*
X125904025Y-127798789D01*
X126059749Y-127858245D01*
X126090245Y-127864960D01*
X126204709Y-127899231D01*
X126452822Y-127999744D01*
X126841397Y-128169359D01*
X127220229Y-128339619D01*
X127416109Y-128421292D01*
X127539703Y-128460011D01*
X127546100Y-128460500D01*
X127656561Y-128492452D01*
X127847732Y-128570467D01*
X127871971Y-128581337D01*
X128010865Y-128641127D01*
X128286580Y-128757135D01*
X128679344Y-128921139D01*
X129169387Y-129124916D01*
X129736936Y-129360243D01*
X130362221Y-129618896D01*
X130951112Y-129861991D01*
X133763458Y-131021808D01*
X134464779Y-130744936D01*
X134894268Y-130574405D01*
X135231686Y-130437306D01*
X135542960Y-130306163D01*
X135894021Y-130153502D01*
X136071621Y-130075286D01*
X136307596Y-129975230D01*
X136475263Y-129911700D01*
X136520767Y-129899833D01*
X136609838Y-129873500D01*
X136815745Y-129790901D01*
X137151449Y-129646639D01*
X137536767Y-129476728D01*
X137682225Y-129416200D01*
X137945524Y-129310287D01*
X138286680Y-129174966D01*
X138595100Y-129053806D01*
X138983625Y-128900202D01*
X139339886Y-128756434D01*
X139618438Y-128641001D01*
X139750895Y-128583288D01*
X139945317Y-128500510D01*
X140066640Y-128461045D01*
X140073041Y-128460500D01*
X140191613Y-128423372D01*
X140462159Y-128311969D01*
X140884743Y-128126264D01*
X141190229Y-127988714D01*
X141390398Y-127905945D01*
X141522085Y-127865604D01*
X141528895Y-127864960D01*
X141643484Y-127829032D01*
X141846929Y-127742036D01*
X141939433Y-127698500D01*
X142073738Y-127629127D01*
X142187776Y-127569066D01*
X142283194Y-127530301D01*
X142361638Y-127524816D01*
X142424753Y-127564594D01*
D12*
X90865867Y-70204081D02*
X91199200Y-71204081D01*
X91532534Y-70204081D01*
X92437296Y-71108843D02*
X92389677Y-71156462D01*
X92246820Y-71204081D01*
X92151582Y-71204081D01*
X92008724Y-71156462D01*
X91913486Y-71061224D01*
X91865867Y-70965986D01*
X91818248Y-70775510D01*
X91818248Y-70632652D01*
X91865867Y-70442176D01*
X91913486Y-70346938D01*
X92008724Y-70251700D01*
X92151582Y-70204081D01*
X92246820Y-70204081D01*
X92389677Y-70251700D01*
X92437296Y-70299319D01*
X93056343Y-70204081D02*
X93246820Y-70204081D01*
X93342058Y-70251700D01*
X93437296Y-70346938D01*
X93484915Y-70537414D01*
X93484915Y-70870748D01*
X93437296Y-71061224D01*
X93342058Y-71156462D01*
X93246820Y-71204081D01*
X93056343Y-71204081D01*
X92961105Y-71156462D01*
X92865867Y-71061224D01*
X92818248Y-70870748D01*
X92818248Y-70537414D01*
X92865867Y-70346938D01*
X92961105Y-70251700D01*
X93056343Y-70204081D01*
X94437296Y-71204081D02*
X93865867Y-71204081D01*
X94151581Y-71204081D02*
X94151581Y-70204081D01*
X94056343Y-70346938D01*
X93961105Y-70442176D01*
X93865867Y-70489795D01*
X130011895Y-71385181D02*
X130011895Y-72194705D01*
X130059514Y-72289943D01*
X130107133Y-72337562D01*
X130202371Y-72385181D01*
X130392848Y-72385181D01*
X130488086Y-72337562D01*
X130535705Y-72289943D01*
X130583324Y-72194705D01*
X130583324Y-71385181D01*
X130964276Y-71385181D02*
X131630943Y-71385181D01*
X131202371Y-72385181D01*
X144032695Y-104468681D02*
X144032695Y-105278205D01*
X144080314Y-105373443D01*
X144127933Y-105421062D01*
X144223171Y-105468681D01*
X144413648Y-105468681D01*
X144508886Y-105421062D01*
X144556505Y-105373443D01*
X144604124Y-105278205D01*
X144604124Y-104468681D01*
X145032695Y-104563919D02*
X145080314Y-104516300D01*
X145175552Y-104468681D01*
X145413648Y-104468681D01*
X145508886Y-104516300D01*
X145556505Y-104563919D01*
X145604124Y-104659157D01*
X145604124Y-104754395D01*
X145556505Y-104897252D01*
X144985076Y-105468681D01*
X145604124Y-105468681D01*
X121367943Y-57919881D02*
X121034609Y-57443690D01*
X120796514Y-57919881D02*
X120796514Y-56919881D01*
X121177467Y-56919881D01*
X121272705Y-56967500D01*
X121320324Y-57015119D01*
X121367943Y-57110357D01*
X121367943Y-57253214D01*
X121320324Y-57348452D01*
X121272705Y-57396071D01*
X121177467Y-57443690D01*
X120796514Y-57443690D01*
X122320324Y-57919881D02*
X121748895Y-57919881D01*
X122034609Y-57919881D02*
X122034609Y-56919881D01*
X121939371Y-57062738D01*
X121844133Y-57157976D01*
X121748895Y-57205595D01*
X123272705Y-57919881D02*
X122701276Y-57919881D01*
X122986990Y-57919881D02*
X122986990Y-56919881D01*
X122891752Y-57062738D01*
X122796514Y-57157976D01*
X122701276Y-57205595D01*
X107924934Y-77846181D02*
X107591600Y-77369990D01*
X107353505Y-77846181D02*
X107353505Y-76846181D01*
X107734458Y-76846181D01*
X107829696Y-76893800D01*
X107877315Y-76941419D01*
X107924934Y-77036657D01*
X107924934Y-77179514D01*
X107877315Y-77274752D01*
X107829696Y-77322371D01*
X107734458Y-77369990D01*
X107353505Y-77369990D01*
X108258267Y-76846181D02*
X108924934Y-76846181D01*
X108496362Y-77846181D01*
X97804695Y-67575181D02*
X97804695Y-68384705D01*
X97852314Y-68479943D01*
X97899933Y-68527562D01*
X97995171Y-68575181D01*
X98185648Y-68575181D01*
X98280886Y-68527562D01*
X98328505Y-68479943D01*
X98376124Y-68384705D01*
X98376124Y-67575181D01*
X99280886Y-67575181D02*
X99090409Y-67575181D01*
X98995171Y-67622800D01*
X98947552Y-67670419D01*
X98852314Y-67813276D01*
X98804695Y-68003752D01*
X98804695Y-68384705D01*
X98852314Y-68479943D01*
X98899933Y-68527562D01*
X98995171Y-68575181D01*
X99185648Y-68575181D01*
X99280886Y-68527562D01*
X99328505Y-68479943D01*
X99376124Y-68384705D01*
X99376124Y-68146610D01*
X99328505Y-68051371D01*
X99280886Y-68003752D01*
X99185648Y-67956133D01*
X98995171Y-67956133D01*
X98899933Y-68003752D01*
X98852314Y-68051371D01*
X98804695Y-68146610D01*
X160656995Y-105611681D02*
X160656995Y-106421205D01*
X160704614Y-106516443D01*
X160752233Y-106564062D01*
X160847471Y-106611681D01*
X161037948Y-106611681D01*
X161133186Y-106564062D01*
X161180805Y-106516443D01*
X161228424Y-106421205D01*
X161228424Y-105611681D01*
X162228424Y-106611681D02*
X161656995Y-106611681D01*
X161942709Y-106611681D02*
X161942709Y-105611681D01*
X161847471Y-105754538D01*
X161752233Y-105849776D01*
X161656995Y-105897395D01*
X144464495Y-74356981D02*
X144464495Y-75166505D01*
X144512114Y-75261743D01*
X144559733Y-75309362D01*
X144654971Y-75356981D01*
X144845448Y-75356981D01*
X144940686Y-75309362D01*
X144988305Y-75261743D01*
X145035924Y-75166505D01*
X145035924Y-74356981D01*
X145654971Y-74785552D02*
X145559733Y-74737933D01*
X145512114Y-74690314D01*
X145464495Y-74595076D01*
X145464495Y-74547457D01*
X145512114Y-74452219D01*
X145559733Y-74404600D01*
X145654971Y-74356981D01*
X145845448Y-74356981D01*
X145940686Y-74404600D01*
X145988305Y-74452219D01*
X146035924Y-74547457D01*
X146035924Y-74595076D01*
X145988305Y-74690314D01*
X145940686Y-74737933D01*
X145845448Y-74785552D01*
X145654971Y-74785552D01*
X145559733Y-74833171D01*
X145512114Y-74880790D01*
X145464495Y-74976029D01*
X145464495Y-75166505D01*
X145512114Y-75261743D01*
X145559733Y-75309362D01*
X145654971Y-75356981D01*
X145845448Y-75356981D01*
X145940686Y-75309362D01*
X145988305Y-75261743D01*
X146035924Y-75166505D01*
X146035924Y-74976029D01*
X145988305Y-74880790D01*
X145940686Y-74833171D01*
X145845448Y-74785552D01*
X177683541Y-102548535D02*
X178493065Y-102548535D01*
X178588303Y-102500916D01*
X178635922Y-102453297D01*
X178683541Y-102358059D01*
X178683541Y-102167582D01*
X178635922Y-102072344D01*
X178588303Y-102024725D01*
X178493065Y-101977106D01*
X177683541Y-101977106D01*
X178683541Y-100977106D02*
X178683541Y-101548535D01*
X178683541Y-101262821D02*
X177683541Y-101262821D01*
X177826398Y-101358059D01*
X177921636Y-101453297D01*
X177969255Y-101548535D01*
X177683541Y-100358059D02*
X177683541Y-100262820D01*
X177731160Y-100167582D01*
X177778779Y-100119963D01*
X177874017Y-100072344D01*
X178064493Y-100024725D01*
X178302589Y-100024725D01*
X178493065Y-100072344D01*
X178588303Y-100119963D01*
X178635922Y-100167582D01*
X178683541Y-100262820D01*
X178683541Y-100358059D01*
X178635922Y-100453297D01*
X178588303Y-100500916D01*
X178493065Y-100548535D01*
X178302589Y-100596154D01*
X178064493Y-100596154D01*
X177874017Y-100548535D01*
X177778779Y-100500916D01*
X177731160Y-100453297D01*
X177683541Y-100358059D01*
X104000681Y-118744905D02*
X104810205Y-118744905D01*
X104905443Y-118697286D01*
X104953062Y-118649667D01*
X105000681Y-118554429D01*
X105000681Y-118363952D01*
X104953062Y-118268714D01*
X104905443Y-118221095D01*
X104810205Y-118173476D01*
X104000681Y-118173476D01*
X105000681Y-117649667D02*
X105000681Y-117459191D01*
X104953062Y-117363952D01*
X104905443Y-117316333D01*
X104762586Y-117221095D01*
X104572110Y-117173476D01*
X104191157Y-117173476D01*
X104095919Y-117221095D01*
X104048300Y-117268714D01*
X104000681Y-117363952D01*
X104000681Y-117554429D01*
X104048300Y-117649667D01*
X104095919Y-117697286D01*
X104191157Y-117744905D01*
X104429252Y-117744905D01*
X104524490Y-117697286D01*
X104572110Y-117649667D01*
X104619729Y-117554429D01*
X104619729Y-117363952D01*
X104572110Y-117268714D01*
X104524490Y-117221095D01*
X104429252Y-117173476D01*
X126771781Y-95135605D02*
X127581305Y-95135605D01*
X127676543Y-95087986D01*
X127724162Y-95040367D01*
X127771781Y-94945129D01*
X127771781Y-94754652D01*
X127724162Y-94659414D01*
X127676543Y-94611795D01*
X127581305Y-94564176D01*
X126771781Y-94564176D01*
X127105114Y-93659414D02*
X127771781Y-93659414D01*
X126724162Y-93897510D02*
X127438448Y-94135605D01*
X127438448Y-93516557D01*
X163078067Y-82322943D02*
X163125686Y-82370562D01*
X163078067Y-82418181D01*
X163030448Y-82370562D01*
X163078067Y-82322943D01*
X163078067Y-82418181D01*
X164078067Y-82418181D02*
X163506638Y-82418181D01*
X163792352Y-82418181D02*
X163792352Y-81418181D01*
X163697114Y-81561038D01*
X163601876Y-81656276D01*
X163506638Y-81703895D01*
X164935210Y-81751514D02*
X164935210Y-82418181D01*
X164506638Y-81751514D02*
X164506638Y-82275324D01*
X164554257Y-82370562D01*
X164649495Y-82418181D01*
X164792353Y-82418181D01*
X164887591Y-82370562D01*
X164935210Y-82322943D01*
X165744734Y-81894371D02*
X165411400Y-81894371D01*
X165411400Y-82418181D02*
X165411400Y-81418181D01*
X165887591Y-81418181D01*
X166697115Y-81751514D02*
X166697115Y-82418181D01*
X166459019Y-81370562D02*
X166220924Y-82084848D01*
X166839972Y-82084848D01*
X160363234Y-99467943D02*
X160315615Y-99515562D01*
X160172758Y-99563181D01*
X160077520Y-99563181D01*
X159934662Y-99515562D01*
X159839424Y-99420324D01*
X159791805Y-99325086D01*
X159744186Y-99134610D01*
X159744186Y-98991752D01*
X159791805Y-98801276D01*
X159839424Y-98706038D01*
X159934662Y-98610800D01*
X160077520Y-98563181D01*
X160172758Y-98563181D01*
X160315615Y-98610800D01*
X160363234Y-98658419D01*
X161315615Y-99563181D02*
X160744186Y-99563181D01*
X161029900Y-99563181D02*
X161029900Y-98563181D01*
X160934662Y-98706038D01*
X160839424Y-98801276D01*
X160744186Y-98848895D01*
X144373934Y-99455243D02*
X144326315Y-99502862D01*
X144183458Y-99550481D01*
X144088220Y-99550481D01*
X143945362Y-99502862D01*
X143850124Y-99407624D01*
X143802505Y-99312386D01*
X143754886Y-99121910D01*
X143754886Y-98979052D01*
X143802505Y-98788576D01*
X143850124Y-98693338D01*
X143945362Y-98598100D01*
X144088220Y-98550481D01*
X144183458Y-98550481D01*
X144326315Y-98598100D01*
X144373934Y-98645719D01*
X144707267Y-98550481D02*
X145326315Y-98550481D01*
X144992981Y-98931433D01*
X145135839Y-98931433D01*
X145231077Y-98979052D01*
X145278696Y-99026671D01*
X145326315Y-99121910D01*
X145326315Y-99360005D01*
X145278696Y-99455243D01*
X145231077Y-99502862D01*
X145135839Y-99550481D01*
X144850124Y-99550481D01*
X144754886Y-99502862D01*
X144707267Y-99455243D01*
X107140643Y-105621057D02*
X107188262Y-105668676D01*
X107235881Y-105811533D01*
X107235881Y-105906771D01*
X107188262Y-106049629D01*
X107093024Y-106144867D01*
X106997786Y-106192486D01*
X106807310Y-106240105D01*
X106664452Y-106240105D01*
X106473976Y-106192486D01*
X106378738Y-106144867D01*
X106283500Y-106049629D01*
X106235881Y-105906771D01*
X106235881Y-105811533D01*
X106283500Y-105668676D01*
X106331119Y-105621057D01*
X107235881Y-104668676D02*
X107235881Y-105240105D01*
X107235881Y-104954391D02*
X106235881Y-104954391D01*
X106378738Y-105049629D01*
X106473976Y-105144867D01*
X106521595Y-105240105D01*
X106235881Y-104049629D02*
X106235881Y-103954390D01*
X106283500Y-103859152D01*
X106331119Y-103811533D01*
X106426357Y-103763914D01*
X106616833Y-103716295D01*
X106854929Y-103716295D01*
X107045405Y-103763914D01*
X107140643Y-103811533D01*
X107188262Y-103859152D01*
X107235881Y-103954390D01*
X107235881Y-104049629D01*
X107188262Y-104144867D01*
X107140643Y-104192486D01*
X107045405Y-104240105D01*
X106854929Y-104287724D01*
X106616833Y-104287724D01*
X106426357Y-104240105D01*
X106331119Y-104192486D01*
X106283500Y-104144867D01*
X106235881Y-104049629D01*
X171527103Y-104871757D02*
X171574722Y-104919376D01*
X171622341Y-105062233D01*
X171622341Y-105157471D01*
X171574722Y-105300329D01*
X171479484Y-105395567D01*
X171384246Y-105443186D01*
X171193770Y-105490805D01*
X171050912Y-105490805D01*
X170860436Y-105443186D01*
X170765198Y-105395567D01*
X170669960Y-105300329D01*
X170622341Y-105157471D01*
X170622341Y-105062233D01*
X170669960Y-104919376D01*
X170717579Y-104871757D01*
X171622341Y-103919376D02*
X171622341Y-104490805D01*
X171622341Y-104205091D02*
X170622341Y-104205091D01*
X170765198Y-104300329D01*
X170860436Y-104395567D01*
X170908055Y-104490805D01*
X171622341Y-102966995D02*
X171622341Y-103538424D01*
X171622341Y-103252710D02*
X170622341Y-103252710D01*
X170765198Y-103347948D01*
X170860436Y-103443186D01*
X170908055Y-103538424D01*
X171516943Y-121709417D02*
X171564562Y-121757036D01*
X171612181Y-121899893D01*
X171612181Y-121995131D01*
X171564562Y-122137989D01*
X171469324Y-122233227D01*
X171374086Y-122280846D01*
X171183610Y-122328465D01*
X171040752Y-122328465D01*
X170850276Y-122280846D01*
X170755038Y-122233227D01*
X170659800Y-122137989D01*
X170612181Y-121995131D01*
X170612181Y-121899893D01*
X170659800Y-121757036D01*
X170707419Y-121709417D01*
X171612181Y-120757036D02*
X171612181Y-121328465D01*
X171612181Y-121042751D02*
X170612181Y-121042751D01*
X170755038Y-121137989D01*
X170850276Y-121233227D01*
X170897895Y-121328465D01*
X170945514Y-119899893D02*
X171612181Y-119899893D01*
X170564562Y-120137989D02*
X171278848Y-120376084D01*
X171278848Y-119757036D01*
X119405734Y-76449181D02*
X119072400Y-75972990D01*
X118834305Y-76449181D02*
X118834305Y-75449181D01*
X119215258Y-75449181D01*
X119310496Y-75496800D01*
X119358115Y-75544419D01*
X119405734Y-75639657D01*
X119405734Y-75782514D01*
X119358115Y-75877752D01*
X119310496Y-75925371D01*
X119215258Y-75972990D01*
X118834305Y-75972990D01*
X119881924Y-76449181D02*
X120072400Y-76449181D01*
X120167639Y-76401562D01*
X120215258Y-76353943D01*
X120310496Y-76211086D01*
X120358115Y-76020610D01*
X120358115Y-75639657D01*
X120310496Y-75544419D01*
X120262877Y-75496800D01*
X120167639Y-75449181D01*
X119977162Y-75449181D01*
X119881924Y-75496800D01*
X119834305Y-75544419D01*
X119786686Y-75639657D01*
X119786686Y-75877752D01*
X119834305Y-75972990D01*
X119881924Y-76020610D01*
X119977162Y-76068229D01*
X120167639Y-76068229D01*
X120262877Y-76020610D01*
X120310496Y-75972990D01*
X120358115Y-75877752D01*
X118894481Y-69718157D02*
X118418290Y-70051491D01*
X118894481Y-70289586D02*
X117894481Y-70289586D01*
X117894481Y-69908633D01*
X117942100Y-69813395D01*
X117989719Y-69765776D01*
X118084957Y-69718157D01*
X118227814Y-69718157D01*
X118323052Y-69765776D01*
X118370671Y-69813395D01*
X118418290Y-69908633D01*
X118418290Y-70289586D01*
X118894481Y-68765776D02*
X118894481Y-69337205D01*
X118894481Y-69051491D02*
X117894481Y-69051491D01*
X118037338Y-69146729D01*
X118132576Y-69241967D01*
X118180195Y-69337205D01*
X117894481Y-68146729D02*
X117894481Y-68051490D01*
X117942100Y-67956252D01*
X117989719Y-67908633D01*
X118084957Y-67861014D01*
X118275433Y-67813395D01*
X118513529Y-67813395D01*
X118704005Y-67861014D01*
X118799243Y-67908633D01*
X118846862Y-67956252D01*
X118894481Y-68051490D01*
X118894481Y-68146729D01*
X118846862Y-68241967D01*
X118799243Y-68289586D01*
X118704005Y-68337205D01*
X118513529Y-68384824D01*
X118275433Y-68384824D01*
X118084957Y-68337205D01*
X117989719Y-68289586D01*
X117942100Y-68241967D01*
X117894481Y-68146729D01*
X121799743Y-76639681D02*
X121466409Y-76163490D01*
X121228314Y-76639681D02*
X121228314Y-75639681D01*
X121609267Y-75639681D01*
X121704505Y-75687300D01*
X121752124Y-75734919D01*
X121799743Y-75830157D01*
X121799743Y-75973014D01*
X121752124Y-76068252D01*
X121704505Y-76115871D01*
X121609267Y-76163490D01*
X121228314Y-76163490D01*
X122752124Y-76639681D02*
X122180695Y-76639681D01*
X122466409Y-76639681D02*
X122466409Y-75639681D01*
X122371171Y-75782538D01*
X122275933Y-75877776D01*
X122180695Y-75925395D01*
X123133076Y-75734919D02*
X123180695Y-75687300D01*
X123275933Y-75639681D01*
X123514029Y-75639681D01*
X123609267Y-75687300D01*
X123656886Y-75734919D01*
X123704505Y-75830157D01*
X123704505Y-75925395D01*
X123656886Y-76068252D01*
X123085457Y-76639681D01*
X123704505Y-76639681D01*
X159890081Y-78468457D02*
X159413890Y-78801791D01*
X159890081Y-79039886D02*
X158890081Y-79039886D01*
X158890081Y-78658933D01*
X158937700Y-78563695D01*
X158985319Y-78516076D01*
X159080557Y-78468457D01*
X159223414Y-78468457D01*
X159318652Y-78516076D01*
X159366271Y-78563695D01*
X159413890Y-78658933D01*
X159413890Y-79039886D01*
X159890081Y-77516076D02*
X159890081Y-78087505D01*
X159890081Y-77801791D02*
X158890081Y-77801791D01*
X159032938Y-77897029D01*
X159128176Y-77992267D01*
X159175795Y-78087505D01*
X158890081Y-77182743D02*
X158890081Y-76563695D01*
X159271033Y-76897029D01*
X159271033Y-76754171D01*
X159318652Y-76658933D01*
X159366271Y-76611314D01*
X159461510Y-76563695D01*
X159699605Y-76563695D01*
X159794843Y-76611314D01*
X159842462Y-76658933D01*
X159890081Y-76754171D01*
X159890081Y-77039886D01*
X159842462Y-77135124D01*
X159794843Y-77182743D01*
X110280843Y-109062781D02*
X109947509Y-108586590D01*
X109709414Y-109062781D02*
X109709414Y-108062781D01*
X110090367Y-108062781D01*
X110185605Y-108110400D01*
X110233224Y-108158019D01*
X110280843Y-108253257D01*
X110280843Y-108396114D01*
X110233224Y-108491352D01*
X110185605Y-108538971D01*
X110090367Y-108586590D01*
X109709414Y-108586590D01*
X111233224Y-109062781D02*
X110661795Y-109062781D01*
X110947509Y-109062781D02*
X110947509Y-108062781D01*
X110852271Y-108205638D01*
X110757033Y-108300876D01*
X110661795Y-108348495D01*
X112090367Y-108062781D02*
X111899890Y-108062781D01*
X111804652Y-108110400D01*
X111757033Y-108158019D01*
X111661795Y-108300876D01*
X111614176Y-108491352D01*
X111614176Y-108872305D01*
X111661795Y-108967543D01*
X111709414Y-109015162D01*
X111804652Y-109062781D01*
X111995129Y-109062781D01*
X112090367Y-109015162D01*
X112137986Y-108967543D01*
X112185605Y-108872305D01*
X112185605Y-108634210D01*
X112137986Y-108538971D01*
X112090367Y-108491352D01*
X111995129Y-108443733D01*
X111804652Y-108443733D01*
X111709414Y-108491352D01*
X111661795Y-108538971D01*
X111614176Y-108634210D01*
X121703381Y-93562466D02*
X121227190Y-93895800D01*
X121703381Y-94133895D02*
X120703381Y-94133895D01*
X120703381Y-93752942D01*
X120751000Y-93657704D01*
X120798619Y-93610085D01*
X120893857Y-93562466D01*
X121036714Y-93562466D01*
X121131952Y-93610085D01*
X121179571Y-93657704D01*
X121227190Y-93752942D01*
X121227190Y-94133895D01*
X121036714Y-92705323D02*
X121703381Y-92705323D01*
X120655762Y-92943419D02*
X121370048Y-93181514D01*
X121370048Y-92562466D01*
X128143334Y-90594781D02*
X127810000Y-90118590D01*
X127571905Y-90594781D02*
X127571905Y-89594781D01*
X127952858Y-89594781D01*
X128048096Y-89642400D01*
X128095715Y-89690019D01*
X128143334Y-89785257D01*
X128143334Y-89928114D01*
X128095715Y-90023352D01*
X128048096Y-90070971D01*
X127952858Y-90118590D01*
X127571905Y-90118590D01*
X129048096Y-89594781D02*
X128571905Y-89594781D01*
X128524286Y-90070971D01*
X128571905Y-90023352D01*
X128667143Y-89975733D01*
X128905239Y-89975733D01*
X129000477Y-90023352D01*
X129048096Y-90070971D01*
X129095715Y-90166210D01*
X129095715Y-90404305D01*
X129048096Y-90499543D01*
X129000477Y-90547162D01*
X128905239Y-90594781D01*
X128667143Y-90594781D01*
X128571905Y-90547162D01*
X128524286Y-90499543D01*
X123669277Y-96067581D02*
X123335943Y-95591390D01*
X123097848Y-96067581D02*
X123097848Y-95067581D01*
X123478801Y-95067581D01*
X123574039Y-95115200D01*
X123621658Y-95162819D01*
X123669277Y-95258057D01*
X123669277Y-95400914D01*
X123621658Y-95496152D01*
X123574039Y-95543771D01*
X123478801Y-95591390D01*
X123097848Y-95591390D01*
X124526420Y-95067581D02*
X124335943Y-95067581D01*
X124240705Y-95115200D01*
X124193086Y-95162819D01*
X124097848Y-95305676D01*
X124050229Y-95496152D01*
X124050229Y-95877105D01*
X124097848Y-95972343D01*
X124145467Y-96019962D01*
X124240705Y-96067581D01*
X124431182Y-96067581D01*
X124526420Y-96019962D01*
X124574039Y-95972343D01*
X124621658Y-95877105D01*
X124621658Y-95639010D01*
X124574039Y-95543771D01*
X124526420Y-95496152D01*
X124431182Y-95448533D01*
X124240705Y-95448533D01*
X124145467Y-95496152D01*
X124097848Y-95543771D01*
X124050229Y-95639010D01*
X93040534Y-68060843D02*
X92992915Y-68108462D01*
X92850058Y-68156081D01*
X92754820Y-68156081D01*
X92611962Y-68108462D01*
X92516724Y-68013224D01*
X92469105Y-67917986D01*
X92421486Y-67727510D01*
X92421486Y-67584652D01*
X92469105Y-67394176D01*
X92516724Y-67298938D01*
X92611962Y-67203700D01*
X92754820Y-67156081D01*
X92850058Y-67156081D01*
X92992915Y-67203700D01*
X93040534Y-67251319D01*
X93945296Y-67156081D02*
X93469105Y-67156081D01*
X93421486Y-67632271D01*
X93469105Y-67584652D01*
X93564343Y-67537033D01*
X93802439Y-67537033D01*
X93897677Y-67584652D01*
X93945296Y-67632271D01*
X93992915Y-67727510D01*
X93992915Y-67965605D01*
X93945296Y-68060843D01*
X93897677Y-68108462D01*
X93802439Y-68156081D01*
X93564343Y-68156081D01*
X93469105Y-68108462D01*
X93421486Y-68060843D01*
X85014134Y-73116843D02*
X84966515Y-73164462D01*
X84823658Y-73212081D01*
X84728420Y-73212081D01*
X84585562Y-73164462D01*
X84490324Y-73069224D01*
X84442705Y-72973986D01*
X84395086Y-72783510D01*
X84395086Y-72640652D01*
X84442705Y-72450176D01*
X84490324Y-72354938D01*
X84585562Y-72259700D01*
X84728420Y-72212081D01*
X84823658Y-72212081D01*
X84966515Y-72259700D01*
X85014134Y-72307319D01*
X85871277Y-72212081D02*
X85680800Y-72212081D01*
X85585562Y-72259700D01*
X85537943Y-72307319D01*
X85442705Y-72450176D01*
X85395086Y-72640652D01*
X85395086Y-73021605D01*
X85442705Y-73116843D01*
X85490324Y-73164462D01*
X85585562Y-73212081D01*
X85776039Y-73212081D01*
X85871277Y-73164462D01*
X85918896Y-73116843D01*
X85966515Y-73021605D01*
X85966515Y-72783510D01*
X85918896Y-72688271D01*
X85871277Y-72640652D01*
X85776039Y-72593033D01*
X85585562Y-72593033D01*
X85490324Y-72640652D01*
X85442705Y-72688271D01*
X85395086Y-72783510D01*
X85166534Y-67044843D02*
X85118915Y-67092462D01*
X84976058Y-67140081D01*
X84880820Y-67140081D01*
X84737962Y-67092462D01*
X84642724Y-66997224D01*
X84595105Y-66901986D01*
X84547486Y-66711510D01*
X84547486Y-66568652D01*
X84595105Y-66378176D01*
X84642724Y-66282938D01*
X84737962Y-66187700D01*
X84880820Y-66140081D01*
X84976058Y-66140081D01*
X85118915Y-66187700D01*
X85166534Y-66235319D01*
X85499867Y-66140081D02*
X86166534Y-66140081D01*
X85737962Y-67140081D01*
X118773743Y-93592942D02*
X118821362Y-93640561D01*
X118868981Y-93783418D01*
X118868981Y-93878656D01*
X118821362Y-94021514D01*
X118726124Y-94116752D01*
X118630886Y-94164371D01*
X118440410Y-94211990D01*
X118297552Y-94211990D01*
X118107076Y-94164371D01*
X118011838Y-94116752D01*
X117916600Y-94021514D01*
X117868981Y-93878656D01*
X117868981Y-93783418D01*
X117916600Y-93640561D01*
X117964219Y-93592942D01*
X118202314Y-92735799D02*
X118868981Y-92735799D01*
X117821362Y-92973895D02*
X118535648Y-93211990D01*
X118535648Y-92592942D01*
X131929267Y-90506943D02*
X131881648Y-90554562D01*
X131738791Y-90602181D01*
X131643553Y-90602181D01*
X131500695Y-90554562D01*
X131405457Y-90459324D01*
X131357838Y-90364086D01*
X131310219Y-90173610D01*
X131310219Y-90030752D01*
X131357838Y-89840276D01*
X131405457Y-89745038D01*
X131500695Y-89649800D01*
X131643553Y-89602181D01*
X131738791Y-89602181D01*
X131881648Y-89649800D01*
X131929267Y-89697419D01*
X132881648Y-90602181D02*
X132310219Y-90602181D01*
X132595933Y-90602181D02*
X132595933Y-89602181D01*
X132500695Y-89745038D01*
X132405457Y-89840276D01*
X132310219Y-89887895D01*
X133786410Y-89602181D02*
X133310219Y-89602181D01*
X133262600Y-90078371D01*
X133310219Y-90030752D01*
X133405457Y-89983133D01*
X133643553Y-89983133D01*
X133738791Y-90030752D01*
X133786410Y-90078371D01*
X133834029Y-90173610D01*
X133834029Y-90411705D01*
X133786410Y-90506943D01*
X133738791Y-90554562D01*
X133643553Y-90602181D01*
X133405457Y-90602181D01*
X133310219Y-90554562D01*
X133262600Y-90506943D01*
X123223267Y-89472943D02*
X123175648Y-89520562D01*
X123032791Y-89568181D01*
X122937553Y-89568181D01*
X122794695Y-89520562D01*
X122699457Y-89425324D01*
X122651838Y-89330086D01*
X122604219Y-89139610D01*
X122604219Y-88996752D01*
X122651838Y-88806276D01*
X122699457Y-88711038D01*
X122794695Y-88615800D01*
X122937553Y-88568181D01*
X123032791Y-88568181D01*
X123175648Y-88615800D01*
X123223267Y-88663419D01*
X124175648Y-89568181D02*
X123604219Y-89568181D01*
X123889933Y-89568181D02*
X123889933Y-88568181D01*
X123794695Y-88711038D01*
X123699457Y-88806276D01*
X123604219Y-88853895D01*
X125032791Y-88568181D02*
X124842314Y-88568181D01*
X124747076Y-88615800D01*
X124699457Y-88663419D01*
X124604219Y-88806276D01*
X124556600Y-88996752D01*
X124556600Y-89377705D01*
X124604219Y-89472943D01*
X124651838Y-89520562D01*
X124747076Y-89568181D01*
X124937553Y-89568181D01*
X125032791Y-89520562D01*
X125080410Y-89472943D01*
X125128029Y-89377705D01*
X125128029Y-89139610D01*
X125080410Y-89044371D01*
X125032791Y-88996752D01*
X124937553Y-88949133D01*
X124747076Y-88949133D01*
X124651838Y-88996752D01*
X124604219Y-89044371D01*
X124556600Y-89139610D01*
X118867077Y-90632181D02*
X118533743Y-90155990D01*
X118295648Y-90632181D02*
X118295648Y-89632181D01*
X118676601Y-89632181D01*
X118771839Y-89679800D01*
X118819458Y-89727419D01*
X118867077Y-89822657D01*
X118867077Y-89965514D01*
X118819458Y-90060752D01*
X118771839Y-90108371D01*
X118676601Y-90155990D01*
X118295648Y-90155990D01*
X119200410Y-89632181D02*
X119819458Y-89632181D01*
X119486124Y-90013133D01*
X119628982Y-90013133D01*
X119724220Y-90060752D01*
X119771839Y-90108371D01*
X119819458Y-90203610D01*
X119819458Y-90441705D01*
X119771839Y-90536943D01*
X119724220Y-90584562D01*
X119628982Y-90632181D01*
X119343267Y-90632181D01*
X119248029Y-90584562D01*
X119200410Y-90536943D01*
X97697683Y-92626323D02*
X97650064Y-92673942D01*
X97507207Y-92721561D01*
X97411969Y-92721561D01*
X97269111Y-92673942D01*
X97173873Y-92578704D01*
X97126254Y-92483466D01*
X97078635Y-92292990D01*
X97078635Y-92150132D01*
X97126254Y-91959656D01*
X97173873Y-91864418D01*
X97269111Y-91769180D01*
X97411969Y-91721561D01*
X97507207Y-91721561D01*
X97650064Y-91769180D01*
X97697683Y-91816799D01*
X98650064Y-92721561D02*
X98078635Y-92721561D01*
X98364349Y-92721561D02*
X98364349Y-91721561D01*
X98269111Y-91864418D01*
X98173873Y-91959656D01*
X98078635Y-92007275D01*
X98983397Y-91721561D02*
X99650064Y-91721561D01*
X99221492Y-92721561D01*
X91954743Y-75998343D02*
X91907124Y-76045962D01*
X91764267Y-76093581D01*
X91669029Y-76093581D01*
X91526171Y-76045962D01*
X91430933Y-75950724D01*
X91383314Y-75855486D01*
X91335695Y-75665010D01*
X91335695Y-75522152D01*
X91383314Y-75331676D01*
X91430933Y-75236438D01*
X91526171Y-75141200D01*
X91669029Y-75093581D01*
X91764267Y-75093581D01*
X91907124Y-75141200D01*
X91954743Y-75188819D01*
X92907124Y-76093581D02*
X92335695Y-76093581D01*
X92621409Y-76093581D02*
X92621409Y-75093581D01*
X92526171Y-75236438D01*
X92430933Y-75331676D01*
X92335695Y-75379295D01*
X93478552Y-75522152D02*
X93383314Y-75474533D01*
X93335695Y-75426914D01*
X93288076Y-75331676D01*
X93288076Y-75284057D01*
X93335695Y-75188819D01*
X93383314Y-75141200D01*
X93478552Y-75093581D01*
X93669029Y-75093581D01*
X93764267Y-75141200D01*
X93811886Y-75188819D01*
X93859505Y-75284057D01*
X93859505Y-75331676D01*
X93811886Y-75426914D01*
X93764267Y-75474533D01*
X93669029Y-75522152D01*
X93478552Y-75522152D01*
X93383314Y-75569771D01*
X93335695Y-75617390D01*
X93288076Y-75712629D01*
X93288076Y-75903105D01*
X93335695Y-75998343D01*
X93383314Y-76045962D01*
X93478552Y-76093581D01*
X93669029Y-76093581D01*
X93764267Y-76045962D01*
X93811886Y-75998343D01*
X93859505Y-75903105D01*
X93859505Y-75712629D01*
X93811886Y-75617390D01*
X93764267Y-75569771D01*
X93669029Y-75522152D01*
X93895943Y-94767637D02*
X93943562Y-94815256D01*
X93991181Y-94958113D01*
X93991181Y-95053351D01*
X93943562Y-95196209D01*
X93848324Y-95291447D01*
X93753086Y-95339066D01*
X93562610Y-95386685D01*
X93419752Y-95386685D01*
X93229276Y-95339066D01*
X93134038Y-95291447D01*
X93038800Y-95196209D01*
X92991181Y-95053351D01*
X92991181Y-94958113D01*
X93038800Y-94815256D01*
X93086419Y-94767637D01*
X93991181Y-93815256D02*
X93991181Y-94386685D01*
X93991181Y-94100971D02*
X92991181Y-94100971D01*
X93134038Y-94196209D01*
X93229276Y-94291447D01*
X93276895Y-94386685D01*
X93991181Y-93339066D02*
X93991181Y-93148590D01*
X93943562Y-93053351D01*
X93895943Y-93005732D01*
X93753086Y-92910494D01*
X93562610Y-92862875D01*
X93181657Y-92862875D01*
X93086419Y-92910494D01*
X93038800Y-92958113D01*
X92991181Y-93053351D01*
X92991181Y-93243828D01*
X93038800Y-93339066D01*
X93086419Y-93386685D01*
X93181657Y-93434304D01*
X93419752Y-93434304D01*
X93514990Y-93386685D01*
X93562610Y-93339066D01*
X93610229Y-93243828D01*
X93610229Y-93053351D01*
X93562610Y-92958113D01*
X93514990Y-92910494D01*
X93419752Y-92862875D01*
X108464743Y-75998343D02*
X108417124Y-76045962D01*
X108274267Y-76093581D01*
X108179029Y-76093581D01*
X108036171Y-76045962D01*
X107940933Y-75950724D01*
X107893314Y-75855486D01*
X107845695Y-75665010D01*
X107845695Y-75522152D01*
X107893314Y-75331676D01*
X107940933Y-75236438D01*
X108036171Y-75141200D01*
X108179029Y-75093581D01*
X108274267Y-75093581D01*
X108417124Y-75141200D01*
X108464743Y-75188819D01*
X108845695Y-75188819D02*
X108893314Y-75141200D01*
X108988552Y-75093581D01*
X109226648Y-75093581D01*
X109321886Y-75141200D01*
X109369505Y-75188819D01*
X109417124Y-75284057D01*
X109417124Y-75379295D01*
X109369505Y-75522152D01*
X108798076Y-76093581D01*
X109417124Y-76093581D01*
X110036171Y-75093581D02*
X110131410Y-75093581D01*
X110226648Y-75141200D01*
X110274267Y-75188819D01*
X110321886Y-75284057D01*
X110369505Y-75474533D01*
X110369505Y-75712629D01*
X110321886Y-75903105D01*
X110274267Y-75998343D01*
X110226648Y-76045962D01*
X110131410Y-76093581D01*
X110036171Y-76093581D01*
X109940933Y-76045962D01*
X109893314Y-75998343D01*
X109845695Y-75903105D01*
X109798076Y-75712629D01*
X109798076Y-75474533D01*
X109845695Y-75284057D01*
X109893314Y-75188819D01*
X109940933Y-75141200D01*
X110036171Y-75093581D01*
X143643743Y-81967343D02*
X143596124Y-82014962D01*
X143453267Y-82062581D01*
X143358029Y-82062581D01*
X143215171Y-82014962D01*
X143119933Y-81919724D01*
X143072314Y-81824486D01*
X143024695Y-81634010D01*
X143024695Y-81491152D01*
X143072314Y-81300676D01*
X143119933Y-81205438D01*
X143215171Y-81110200D01*
X143358029Y-81062581D01*
X143453267Y-81062581D01*
X143596124Y-81110200D01*
X143643743Y-81157819D01*
X144024695Y-81157819D02*
X144072314Y-81110200D01*
X144167552Y-81062581D01*
X144405648Y-81062581D01*
X144500886Y-81110200D01*
X144548505Y-81157819D01*
X144596124Y-81253057D01*
X144596124Y-81348295D01*
X144548505Y-81491152D01*
X143977076Y-82062581D01*
X144596124Y-82062581D01*
X145548505Y-82062581D02*
X144977076Y-82062581D01*
X145262790Y-82062581D02*
X145262790Y-81062581D01*
X145167552Y-81205438D01*
X145072314Y-81300676D01*
X144977076Y-81348295D01*
X82684181Y-83873933D02*
X83398467Y-83873933D01*
X83541324Y-83921553D01*
X83636562Y-84016791D01*
X83684181Y-84159648D01*
X83684181Y-84254886D01*
X83684181Y-82873933D02*
X83684181Y-83445362D01*
X83684181Y-83159648D02*
X82684181Y-83159648D01*
X82827038Y-83254886D01*
X82922276Y-83350124D01*
X82969895Y-83445362D01*
X82684181Y-93271933D02*
X83398467Y-93271933D01*
X83541324Y-93319553D01*
X83636562Y-93414791D01*
X83684181Y-93557648D01*
X83684181Y-93652886D01*
X82779419Y-92843362D02*
X82731800Y-92795743D01*
X82684181Y-92700505D01*
X82684181Y-92462409D01*
X82731800Y-92367171D01*
X82779419Y-92319552D01*
X82874657Y-92271933D01*
X82969895Y-92271933D01*
X83112752Y-92319552D01*
X83684181Y-92890981D01*
X83684181Y-92271933D01*
X82684181Y-87048933D02*
X83398467Y-87048933D01*
X83541324Y-87096553D01*
X83636562Y-87191791D01*
X83684181Y-87334648D01*
X83684181Y-87429886D01*
X82684181Y-86667981D02*
X82684181Y-86048933D01*
X83065133Y-86382267D01*
X83065133Y-86239409D01*
X83112752Y-86144171D01*
X83160371Y-86096552D01*
X83255610Y-86048933D01*
X83493705Y-86048933D01*
X83588943Y-86096552D01*
X83636562Y-86144171D01*
X83684181Y-86239409D01*
X83684181Y-86525124D01*
X83636562Y-86620362D01*
X83588943Y-86667981D01*
X82684181Y-90223933D02*
X83398467Y-90223933D01*
X83541324Y-90271553D01*
X83636562Y-90366791D01*
X83684181Y-90509648D01*
X83684181Y-90604886D01*
X82684181Y-89271552D02*
X82684181Y-89747743D01*
X83160371Y-89795362D01*
X83112752Y-89747743D01*
X83065133Y-89652505D01*
X83065133Y-89414409D01*
X83112752Y-89319171D01*
X83160371Y-89271552D01*
X83255610Y-89223933D01*
X83493705Y-89223933D01*
X83588943Y-89271552D01*
X83636562Y-89319171D01*
X83684181Y-89414409D01*
X83684181Y-89652505D01*
X83636562Y-89747743D01*
X83588943Y-89795362D01*
X90169281Y-96344977D02*
X89693090Y-96678311D01*
X90169281Y-96916406D02*
X89169281Y-96916406D01*
X89169281Y-96535453D01*
X89216900Y-96440215D01*
X89264519Y-96392596D01*
X89359757Y-96344977D01*
X89502614Y-96344977D01*
X89597852Y-96392596D01*
X89645471Y-96440215D01*
X89693090Y-96535453D01*
X89693090Y-96916406D01*
X90169281Y-95392596D02*
X90169281Y-95964025D01*
X90169281Y-95678311D02*
X89169281Y-95678311D01*
X89312138Y-95773549D01*
X89407376Y-95868787D01*
X89454995Y-95964025D01*
X89169281Y-94487834D02*
X89169281Y-94964025D01*
X89645471Y-95011644D01*
X89597852Y-94964025D01*
X89550233Y-94868787D01*
X89550233Y-94630691D01*
X89597852Y-94535453D01*
X89645471Y-94487834D01*
X89740710Y-94440215D01*
X89978805Y-94440215D01*
X90074043Y-94487834D01*
X90121662Y-94535453D01*
X90169281Y-94630691D01*
X90169281Y-94868787D01*
X90121662Y-94964025D01*
X90074043Y-95011644D01*
X88800901Y-94023417D02*
X88324710Y-94356751D01*
X88800901Y-94594846D02*
X87800901Y-94594846D01*
X87800901Y-94213893D01*
X87848520Y-94118655D01*
X87896139Y-94071036D01*
X87991377Y-94023417D01*
X88134234Y-94023417D01*
X88229472Y-94071036D01*
X88277091Y-94118655D01*
X88324710Y-94213893D01*
X88324710Y-94594846D01*
X87896139Y-93642465D02*
X87848520Y-93594846D01*
X87800901Y-93499608D01*
X87800901Y-93261512D01*
X87848520Y-93166274D01*
X87896139Y-93118655D01*
X87991377Y-93071036D01*
X88086615Y-93071036D01*
X88229472Y-93118655D01*
X88800901Y-93690084D01*
X88800901Y-93071036D01*
X87800901Y-92451989D02*
X87800901Y-92356750D01*
X87848520Y-92261512D01*
X87896139Y-92213893D01*
X87991377Y-92166274D01*
X88181853Y-92118655D01*
X88419949Y-92118655D01*
X88610425Y-92166274D01*
X88705663Y-92213893D01*
X88753282Y-92261512D01*
X88800901Y-92356750D01*
X88800901Y-92451989D01*
X88753282Y-92547227D01*
X88705663Y-92594846D01*
X88610425Y-92642465D01*
X88419949Y-92690084D01*
X88181853Y-92690084D01*
X87991377Y-92642465D01*
X87896139Y-92594846D01*
X87848520Y-92547227D01*
X87800901Y-92451989D01*
X86786281Y-138680195D02*
X87595805Y-138680195D01*
X87691043Y-138632576D01*
X87738662Y-138584957D01*
X87786281Y-138489719D01*
X87786281Y-138299242D01*
X87738662Y-138204004D01*
X87691043Y-138156385D01*
X87595805Y-138108766D01*
X86786281Y-138108766D01*
X87786281Y-137108766D02*
X87786281Y-137680195D01*
X87786281Y-137394481D02*
X86786281Y-137394481D01*
X86929138Y-137489719D01*
X87024376Y-137584957D01*
X87071995Y-137680195D01*
X86881519Y-136727814D02*
X86833900Y-136680195D01*
X86786281Y-136584957D01*
X86786281Y-136346861D01*
X86833900Y-136251623D01*
X86881519Y-136204004D01*
X86976757Y-136156385D01*
X87071995Y-136156385D01*
X87214852Y-136204004D01*
X87786281Y-136775433D01*
X87786281Y-136156385D01*
X156676921Y-138896095D02*
X157486445Y-138896095D01*
X157581683Y-138848476D01*
X157629302Y-138800857D01*
X157676921Y-138705619D01*
X157676921Y-138515142D01*
X157629302Y-138419904D01*
X157581683Y-138372285D01*
X157486445Y-138324666D01*
X156676921Y-138324666D01*
X157676921Y-137324666D02*
X157676921Y-137896095D01*
X157676921Y-137610381D02*
X156676921Y-137610381D01*
X156819778Y-137705619D01*
X156915016Y-137800857D01*
X156962635Y-137896095D01*
X156676921Y-136419904D02*
X156676921Y-136896095D01*
X157153111Y-136943714D01*
X157105492Y-136896095D01*
X157057873Y-136800857D01*
X157057873Y-136562761D01*
X157105492Y-136467523D01*
X157153111Y-136419904D01*
X157248350Y-136372285D01*
X157486445Y-136372285D01*
X157581683Y-136419904D01*
X157629302Y-136467523D01*
X157676921Y-136562761D01*
X157676921Y-136800857D01*
X157629302Y-136896095D01*
X157581683Y-136943714D01*
X88355895Y-81148941D02*
X88355895Y-81958465D01*
X88403514Y-82053703D01*
X88451133Y-82101322D01*
X88546371Y-82148941D01*
X88736848Y-82148941D01*
X88832086Y-82101322D01*
X88879705Y-82053703D01*
X88927324Y-81958465D01*
X88927324Y-81148941D01*
X89879705Y-81148941D02*
X89403514Y-81148941D01*
X89355895Y-81625131D01*
X89403514Y-81577512D01*
X89498752Y-81529893D01*
X89736848Y-81529893D01*
X89832086Y-81577512D01*
X89879705Y-81625131D01*
X89927324Y-81720370D01*
X89927324Y-81958465D01*
X89879705Y-82053703D01*
X89832086Y-82101322D01*
X89736848Y-82148941D01*
X89498752Y-82148941D01*
X89403514Y-82101322D01*
X89355895Y-82053703D01*
X151663734Y-97466423D02*
X151616115Y-97514042D01*
X151473258Y-97561661D01*
X151378020Y-97561661D01*
X151235162Y-97514042D01*
X151139924Y-97418804D01*
X151092305Y-97323566D01*
X151044686Y-97133090D01*
X151044686Y-96990232D01*
X151092305Y-96799756D01*
X151139924Y-96704518D01*
X151235162Y-96609280D01*
X151378020Y-96561661D01*
X151473258Y-96561661D01*
X151616115Y-96609280D01*
X151663734Y-96656899D01*
X152044686Y-96656899D02*
X152092305Y-96609280D01*
X152187543Y-96561661D01*
X152425639Y-96561661D01*
X152520877Y-96609280D01*
X152568496Y-96656899D01*
X152616115Y-96752137D01*
X152616115Y-96847375D01*
X152568496Y-96990232D01*
X151997067Y-97561661D01*
X152616115Y-97561661D01*
X103530734Y-77623943D02*
X103483115Y-77671562D01*
X103340258Y-77719181D01*
X103245020Y-77719181D01*
X103102162Y-77671562D01*
X103006924Y-77576324D01*
X102959305Y-77481086D01*
X102911686Y-77290610D01*
X102911686Y-77147752D01*
X102959305Y-76957276D01*
X103006924Y-76862038D01*
X103102162Y-76766800D01*
X103245020Y-76719181D01*
X103340258Y-76719181D01*
X103483115Y-76766800D01*
X103530734Y-76814419D01*
X104102162Y-77147752D02*
X104006924Y-77100133D01*
X103959305Y-77052514D01*
X103911686Y-76957276D01*
X103911686Y-76909657D01*
X103959305Y-76814419D01*
X104006924Y-76766800D01*
X104102162Y-76719181D01*
X104292639Y-76719181D01*
X104387877Y-76766800D01*
X104435496Y-76814419D01*
X104483115Y-76909657D01*
X104483115Y-76957276D01*
X104435496Y-77052514D01*
X104387877Y-77100133D01*
X104292639Y-77147752D01*
X104102162Y-77147752D01*
X104006924Y-77195371D01*
X103959305Y-77242990D01*
X103911686Y-77338229D01*
X103911686Y-77528705D01*
X103959305Y-77623943D01*
X104006924Y-77671562D01*
X104102162Y-77719181D01*
X104292639Y-77719181D01*
X104387877Y-77671562D01*
X104435496Y-77623943D01*
X104483115Y-77528705D01*
X104483115Y-77338229D01*
X104435496Y-77242990D01*
X104387877Y-77195371D01*
X104292639Y-77147752D01*
X155130834Y-83516743D02*
X155083215Y-83564362D01*
X154940358Y-83611981D01*
X154845120Y-83611981D01*
X154702262Y-83564362D01*
X154607024Y-83469124D01*
X154559405Y-83373886D01*
X154511786Y-83183410D01*
X154511786Y-83040552D01*
X154559405Y-82850076D01*
X154607024Y-82754838D01*
X154702262Y-82659600D01*
X154845120Y-82611981D01*
X154940358Y-82611981D01*
X155083215Y-82659600D01*
X155130834Y-82707219D01*
X155607024Y-83611981D02*
X155797500Y-83611981D01*
X155892739Y-83564362D01*
X155940358Y-83516743D01*
X156035596Y-83373886D01*
X156083215Y-83183410D01*
X156083215Y-82802457D01*
X156035596Y-82707219D01*
X155987977Y-82659600D01*
X155892739Y-82611981D01*
X155702262Y-82611981D01*
X155607024Y-82659600D01*
X155559405Y-82707219D01*
X155511786Y-82802457D01*
X155511786Y-83040552D01*
X155559405Y-83135790D01*
X155607024Y-83183410D01*
X155702262Y-83231029D01*
X155892739Y-83231029D01*
X155987977Y-83183410D01*
X156035596Y-83135790D01*
X156083215Y-83040552D01*
X104308543Y-105113057D02*
X104356162Y-105160676D01*
X104403781Y-105303533D01*
X104403781Y-105398771D01*
X104356162Y-105541629D01*
X104260924Y-105636867D01*
X104165686Y-105684486D01*
X103975210Y-105732105D01*
X103832352Y-105732105D01*
X103641876Y-105684486D01*
X103546638Y-105636867D01*
X103451400Y-105541629D01*
X103403781Y-105398771D01*
X103403781Y-105303533D01*
X103451400Y-105160676D01*
X103499019Y-105113057D01*
X104403781Y-104160676D02*
X104403781Y-104732105D01*
X104403781Y-104446391D02*
X103403781Y-104446391D01*
X103546638Y-104541629D01*
X103641876Y-104636867D01*
X103689495Y-104732105D01*
X103499019Y-103779724D02*
X103451400Y-103732105D01*
X103403781Y-103636867D01*
X103403781Y-103398771D01*
X103451400Y-103303533D01*
X103499019Y-103255914D01*
X103594257Y-103208295D01*
X103689495Y-103208295D01*
X103832352Y-103255914D01*
X104403781Y-103827343D01*
X104403781Y-103208295D01*
X163735143Y-116022381D02*
X163401809Y-115546190D01*
X163163714Y-116022381D02*
X163163714Y-115022381D01*
X163544667Y-115022381D01*
X163639905Y-115070000D01*
X163687524Y-115117619D01*
X163735143Y-115212857D01*
X163735143Y-115355714D01*
X163687524Y-115450952D01*
X163639905Y-115498571D01*
X163544667Y-115546190D01*
X163163714Y-115546190D01*
X164687524Y-116022381D02*
X164116095Y-116022381D01*
X164401809Y-116022381D02*
X164401809Y-115022381D01*
X164306571Y-115165238D01*
X164211333Y-115260476D01*
X164116095Y-115308095D01*
X165163714Y-116022381D02*
X165354190Y-116022381D01*
X165449429Y-115974762D01*
X165497048Y-115927143D01*
X165592286Y-115784286D01*
X165639905Y-115593810D01*
X165639905Y-115212857D01*
X165592286Y-115117619D01*
X165544667Y-115070000D01*
X165449429Y-115022381D01*
X165258952Y-115022381D01*
X165163714Y-115070000D01*
X165116095Y-115117619D01*
X165068476Y-115212857D01*
X165068476Y-115450952D01*
X165116095Y-115546190D01*
X165163714Y-115593810D01*
X165258952Y-115641429D01*
X165449429Y-115641429D01*
X165544667Y-115593810D01*
X165592286Y-115546190D01*
X165639905Y-115450952D01*
X113886181Y-68268333D02*
X114600467Y-68268333D01*
X114743324Y-68315953D01*
X114838562Y-68411191D01*
X114886181Y-68554048D01*
X114886181Y-68649286D01*
X114219514Y-67363571D02*
X114886181Y-67363571D01*
X113838562Y-67601667D02*
X114552848Y-67839762D01*
X114552848Y-67220714D01*
X108637901Y-89792133D02*
X109352187Y-89792133D01*
X109495044Y-89839753D01*
X109590282Y-89934991D01*
X109637901Y-90077848D01*
X109637901Y-90173086D01*
X108637901Y-88887371D02*
X108637901Y-89077848D01*
X108685520Y-89173086D01*
X108733139Y-89220705D01*
X108875996Y-89315943D01*
X109066472Y-89363562D01*
X109447425Y-89363562D01*
X109542663Y-89315943D01*
X109590282Y-89268324D01*
X109637901Y-89173086D01*
X109637901Y-88982609D01*
X109590282Y-88887371D01*
X109542663Y-88839752D01*
X109447425Y-88792133D01*
X109209330Y-88792133D01*
X109114091Y-88839752D01*
X109066472Y-88887371D01*
X109018853Y-88982609D01*
X109018853Y-89173086D01*
X109066472Y-89268324D01*
X109114091Y-89315943D01*
X109209330Y-89363562D01*
X168494343Y-112072657D02*
X168541962Y-112120276D01*
X168589581Y-112263133D01*
X168589581Y-112358371D01*
X168541962Y-112501229D01*
X168446724Y-112596467D01*
X168351486Y-112644086D01*
X168161010Y-112691705D01*
X168018152Y-112691705D01*
X167827676Y-112644086D01*
X167732438Y-112596467D01*
X167637200Y-112501229D01*
X167589581Y-112358371D01*
X167589581Y-112263133D01*
X167637200Y-112120276D01*
X167684819Y-112072657D01*
X168589581Y-111120276D02*
X168589581Y-111691705D01*
X168589581Y-111405991D02*
X167589581Y-111405991D01*
X167732438Y-111501229D01*
X167827676Y-111596467D01*
X167875295Y-111691705D01*
X167589581Y-110786943D02*
X167589581Y-110167895D01*
X167970533Y-110501229D01*
X167970533Y-110358371D01*
X168018152Y-110263133D01*
X168065771Y-110215514D01*
X168161010Y-110167895D01*
X168399105Y-110167895D01*
X168494343Y-110215514D01*
X168541962Y-110263133D01*
X168589581Y-110358371D01*
X168589581Y-110644086D01*
X168541962Y-110739324D01*
X168494343Y-110786943D01*
X151628174Y-94000581D02*
X151294840Y-93524390D01*
X151056745Y-94000581D02*
X151056745Y-93000581D01*
X151437698Y-93000581D01*
X151532936Y-93048200D01*
X151580555Y-93095819D01*
X151628174Y-93191057D01*
X151628174Y-93333914D01*
X151580555Y-93429152D01*
X151532936Y-93476771D01*
X151437698Y-93524390D01*
X151056745Y-93524390D01*
X152009126Y-93095819D02*
X152056745Y-93048200D01*
X152151983Y-93000581D01*
X152390079Y-93000581D01*
X152485317Y-93048200D01*
X152532936Y-93095819D01*
X152580555Y-93191057D01*
X152580555Y-93286295D01*
X152532936Y-93429152D01*
X151961507Y-94000581D01*
X152580555Y-94000581D01*
X108300141Y-81116466D02*
X107823950Y-81449800D01*
X108300141Y-81687895D02*
X107300141Y-81687895D01*
X107300141Y-81306942D01*
X107347760Y-81211704D01*
X107395379Y-81164085D01*
X107490617Y-81116466D01*
X107633474Y-81116466D01*
X107728712Y-81164085D01*
X107776331Y-81211704D01*
X107823950Y-81306942D01*
X107823950Y-81687895D01*
X107728712Y-80545038D02*
X107681093Y-80640276D01*
X107633474Y-80687895D01*
X107538236Y-80735514D01*
X107490617Y-80735514D01*
X107395379Y-80687895D01*
X107347760Y-80640276D01*
X107300141Y-80545038D01*
X107300141Y-80354561D01*
X107347760Y-80259323D01*
X107395379Y-80211704D01*
X107490617Y-80164085D01*
X107538236Y-80164085D01*
X107633474Y-80211704D01*
X107681093Y-80259323D01*
X107728712Y-80354561D01*
X107728712Y-80545038D01*
X107776331Y-80640276D01*
X107823950Y-80687895D01*
X107919189Y-80735514D01*
X108109665Y-80735514D01*
X108204903Y-80687895D01*
X108252522Y-80640276D01*
X108300141Y-80545038D01*
X108300141Y-80354561D01*
X108252522Y-80259323D01*
X108204903Y-80211704D01*
X108109665Y-80164085D01*
X107919189Y-80164085D01*
X107823950Y-80211704D01*
X107776331Y-80259323D01*
X107728712Y-80354561D01*
X152618061Y-100892906D02*
X152141870Y-101226240D01*
X152618061Y-101464335D02*
X151618061Y-101464335D01*
X151618061Y-101083382D01*
X151665680Y-100988144D01*
X151713299Y-100940525D01*
X151808537Y-100892906D01*
X151951394Y-100892906D01*
X152046632Y-100940525D01*
X152094251Y-100988144D01*
X152141870Y-101083382D01*
X152141870Y-101464335D01*
X152618061Y-99940525D02*
X152618061Y-100511954D01*
X152618061Y-100226240D02*
X151618061Y-100226240D01*
X151760918Y-100321478D01*
X151856156Y-100416716D01*
X151903775Y-100511954D01*
X159912941Y-87724217D02*
X159436750Y-88057551D01*
X159912941Y-88295646D02*
X158912941Y-88295646D01*
X158912941Y-87914693D01*
X158960560Y-87819455D01*
X159008179Y-87771836D01*
X159103417Y-87724217D01*
X159246274Y-87724217D01*
X159341512Y-87771836D01*
X159389131Y-87819455D01*
X159436750Y-87914693D01*
X159436750Y-88295646D01*
X159912941Y-86771836D02*
X159912941Y-87343265D01*
X159912941Y-87057551D02*
X158912941Y-87057551D01*
X159055798Y-87152789D01*
X159151036Y-87248027D01*
X159198655Y-87343265D01*
X159246274Y-85914693D02*
X159912941Y-85914693D01*
X158865322Y-86152789D02*
X159579608Y-86390884D01*
X159579608Y-85771836D01*
X98972763Y-109062781D02*
X98639429Y-108586590D01*
X98401334Y-109062781D02*
X98401334Y-108062781D01*
X98782287Y-108062781D01*
X98877525Y-108110400D01*
X98925144Y-108158019D01*
X98972763Y-108253257D01*
X98972763Y-108396114D01*
X98925144Y-108491352D01*
X98877525Y-108538971D01*
X98782287Y-108586590D01*
X98401334Y-108586590D01*
X99925144Y-109062781D02*
X99353715Y-109062781D01*
X99639429Y-109062781D02*
X99639429Y-108062781D01*
X99544191Y-108205638D01*
X99448953Y-108300876D01*
X99353715Y-108348495D01*
X100258477Y-108062781D02*
X100925144Y-108062781D01*
X100496572Y-109062781D01*
X172142543Y-111546901D02*
X171809209Y-111070710D01*
X171571114Y-111546901D02*
X171571114Y-110546901D01*
X171952067Y-110546901D01*
X172047305Y-110594520D01*
X172094924Y-110642139D01*
X172142543Y-110737377D01*
X172142543Y-110880234D01*
X172094924Y-110975472D01*
X172047305Y-111023091D01*
X171952067Y-111070710D01*
X171571114Y-111070710D01*
X173094924Y-111546901D02*
X172523495Y-111546901D01*
X172809209Y-111546901D02*
X172809209Y-110546901D01*
X172713971Y-110689758D01*
X172618733Y-110784996D01*
X172523495Y-110832615D01*
X173666352Y-110975472D02*
X173571114Y-110927853D01*
X173523495Y-110880234D01*
X173475876Y-110784996D01*
X173475876Y-110737377D01*
X173523495Y-110642139D01*
X173571114Y-110594520D01*
X173666352Y-110546901D01*
X173856829Y-110546901D01*
X173952067Y-110594520D01*
X173999686Y-110642139D01*
X174047305Y-110737377D01*
X174047305Y-110784996D01*
X173999686Y-110880234D01*
X173952067Y-110927853D01*
X173856829Y-110975472D01*
X173666352Y-110975472D01*
X173571114Y-111023091D01*
X173523495Y-111070710D01*
X173475876Y-111165949D01*
X173475876Y-111356425D01*
X173523495Y-111451663D01*
X173571114Y-111499282D01*
X173666352Y-111546901D01*
X173856829Y-111546901D01*
X173952067Y-111499282D01*
X173999686Y-111451663D01*
X174047305Y-111356425D01*
X174047305Y-111165949D01*
X173999686Y-111070710D01*
X173952067Y-111023091D01*
X173856829Y-110975472D01*
X82699421Y-80729413D02*
X83413707Y-80729413D01*
X83556564Y-80777033D01*
X83651802Y-80872271D01*
X83699421Y-81015128D01*
X83699421Y-81110366D01*
X82699421Y-80348461D02*
X82699421Y-79681794D01*
X83699421Y-80110366D01*
D15*
X135060266Y-85015010D02*
X134890933Y-84773105D01*
X134769980Y-85015010D02*
X134769980Y-84507010D01*
X134963504Y-84507010D01*
X135011885Y-84531200D01*
X135036076Y-84555390D01*
X135060266Y-84603771D01*
X135060266Y-84676343D01*
X135036076Y-84724724D01*
X135011885Y-84748914D01*
X134963504Y-84773105D01*
X134769980Y-84773105D01*
X135277980Y-84748914D02*
X135447314Y-84748914D01*
X135519885Y-85015010D02*
X135277980Y-85015010D01*
X135277980Y-84507010D01*
X135519885Y-84507010D01*
X135906933Y-84748914D02*
X135737599Y-84748914D01*
X135737599Y-85015010D02*
X135737599Y-84507010D01*
X135979504Y-84507010D01*
X136245600Y-84507010D02*
X136245600Y-84627962D01*
X136124647Y-84579581D02*
X136245600Y-84627962D01*
X136366552Y-84579581D01*
X136173028Y-84724724D02*
X136245600Y-84627962D01*
X136318171Y-84724724D01*
X136632648Y-84507010D02*
X136632648Y-84627962D01*
X136511695Y-84579581D02*
X136632648Y-84627962D01*
X136753600Y-84579581D01*
X136560076Y-84724724D02*
X136632648Y-84627962D01*
X136705219Y-84724724D01*
D12*
X89882743Y-80927343D02*
X89835124Y-80974962D01*
X89692267Y-81022581D01*
X89597029Y-81022581D01*
X89454171Y-80974962D01*
X89358933Y-80879724D01*
X89311314Y-80784486D01*
X89263695Y-80594010D01*
X89263695Y-80451152D01*
X89311314Y-80260676D01*
X89358933Y-80165438D01*
X89454171Y-80070200D01*
X89597029Y-80022581D01*
X89692267Y-80022581D01*
X89835124Y-80070200D01*
X89882743Y-80117819D01*
X90263695Y-80117819D02*
X90311314Y-80070200D01*
X90406552Y-80022581D01*
X90644648Y-80022581D01*
X90739886Y-80070200D01*
X90787505Y-80117819D01*
X90835124Y-80213057D01*
X90835124Y-80308295D01*
X90787505Y-80451152D01*
X90216076Y-81022581D01*
X90835124Y-81022581D01*
X91216076Y-80117819D02*
X91263695Y-80070200D01*
X91358933Y-80022581D01*
X91597029Y-80022581D01*
X91692267Y-80070200D01*
X91739886Y-80117819D01*
X91787505Y-80213057D01*
X91787505Y-80308295D01*
X91739886Y-80451152D01*
X91168457Y-81022581D01*
X91787505Y-81022581D01*
X98480643Y-78905243D02*
X98433024Y-78952862D01*
X98290167Y-79000481D01*
X98194929Y-79000481D01*
X98052071Y-78952862D01*
X97956833Y-78857624D01*
X97909214Y-78762386D01*
X97861595Y-78571910D01*
X97861595Y-78429052D01*
X97909214Y-78238576D01*
X97956833Y-78143338D01*
X98052071Y-78048100D01*
X98194929Y-78000481D01*
X98290167Y-78000481D01*
X98433024Y-78048100D01*
X98480643Y-78095719D01*
X98861595Y-78095719D02*
X98909214Y-78048100D01*
X99004452Y-78000481D01*
X99242548Y-78000481D01*
X99337786Y-78048100D01*
X99385405Y-78095719D01*
X99433024Y-78190957D01*
X99433024Y-78286195D01*
X99385405Y-78429052D01*
X98813976Y-79000481D01*
X99433024Y-79000481D01*
X99766357Y-78000481D02*
X100385405Y-78000481D01*
X100052071Y-78381433D01*
X100194929Y-78381433D01*
X100290167Y-78429052D01*
X100337786Y-78476671D01*
X100385405Y-78571910D01*
X100385405Y-78810005D01*
X100337786Y-78905243D01*
X100290167Y-78952862D01*
X100194929Y-79000481D01*
X99909214Y-79000481D01*
X99813976Y-78952862D01*
X99766357Y-78905243D01*
X97161505Y-75842881D02*
X97161505Y-76652405D01*
X97209124Y-76747643D01*
X97256743Y-76795262D01*
X97351981Y-76842881D01*
X97542458Y-76842881D01*
X97637696Y-76795262D01*
X97685315Y-76747643D01*
X97732934Y-76652405D01*
X97732934Y-75842881D01*
X98732934Y-76842881D02*
X98161505Y-76842881D01*
X98447219Y-76842881D02*
X98447219Y-75842881D01*
X98351981Y-75985738D01*
X98256743Y-76080976D01*
X98161505Y-76128595D01*
X99590077Y-75842881D02*
X99399600Y-75842881D01*
X99304362Y-75890500D01*
X99256743Y-75938119D01*
X99161505Y-76080976D01*
X99113886Y-76271452D01*
X99113886Y-76652405D01*
X99161505Y-76747643D01*
X99209124Y-76795262D01*
X99304362Y-76842881D01*
X99494839Y-76842881D01*
X99590077Y-76795262D01*
X99637696Y-76747643D01*
X99685315Y-76652405D01*
X99685315Y-76414310D01*
X99637696Y-76319071D01*
X99590077Y-76271452D01*
X99494839Y-76223833D01*
X99304362Y-76223833D01*
X99209124Y-76271452D01*
X99161505Y-76319071D01*
X99113886Y-76414310D01*
X141241543Y-94409181D02*
X140908209Y-93932990D01*
X140670114Y-94409181D02*
X140670114Y-93409181D01*
X141051067Y-93409181D01*
X141146305Y-93456800D01*
X141193924Y-93504419D01*
X141241543Y-93599657D01*
X141241543Y-93742514D01*
X141193924Y-93837752D01*
X141146305Y-93885371D01*
X141051067Y-93932990D01*
X140670114Y-93932990D01*
X141622495Y-93504419D02*
X141670114Y-93456800D01*
X141765352Y-93409181D01*
X142003448Y-93409181D01*
X142098686Y-93456800D01*
X142146305Y-93504419D01*
X142193924Y-93599657D01*
X142193924Y-93694895D01*
X142146305Y-93837752D01*
X141574876Y-94409181D01*
X142193924Y-94409181D01*
X143146305Y-94409181D02*
X142574876Y-94409181D01*
X142860590Y-94409181D02*
X142860590Y-93409181D01*
X142765352Y-93552038D01*
X142670114Y-93647276D01*
X142574876Y-93694895D01*
X87634843Y-64259381D02*
X87301509Y-63783190D01*
X87063414Y-64259381D02*
X87063414Y-63259381D01*
X87444367Y-63259381D01*
X87539605Y-63307000D01*
X87587224Y-63354619D01*
X87634843Y-63449857D01*
X87634843Y-63592714D01*
X87587224Y-63687952D01*
X87539605Y-63735571D01*
X87444367Y-63783190D01*
X87063414Y-63783190D01*
X88015795Y-63354619D02*
X88063414Y-63307000D01*
X88158652Y-63259381D01*
X88396748Y-63259381D01*
X88491986Y-63307000D01*
X88539605Y-63354619D01*
X88587224Y-63449857D01*
X88587224Y-63545095D01*
X88539605Y-63687952D01*
X87968176Y-64259381D01*
X88587224Y-64259381D01*
X88968176Y-63354619D02*
X89015795Y-63307000D01*
X89111033Y-63259381D01*
X89349129Y-63259381D01*
X89444367Y-63307000D01*
X89491986Y-63354619D01*
X89539605Y-63449857D01*
X89539605Y-63545095D01*
X89491986Y-63687952D01*
X88920557Y-64259381D01*
X89539605Y-64259381D01*
X93126481Y-63761857D02*
X92650290Y-64095191D01*
X93126481Y-64333286D02*
X92126481Y-64333286D01*
X92126481Y-63952333D01*
X92174100Y-63857095D01*
X92221719Y-63809476D01*
X92316957Y-63761857D01*
X92459814Y-63761857D01*
X92555052Y-63809476D01*
X92602671Y-63857095D01*
X92650290Y-63952333D01*
X92650290Y-64333286D01*
X92221719Y-63380905D02*
X92174100Y-63333286D01*
X92126481Y-63238048D01*
X92126481Y-62999952D01*
X92174100Y-62904714D01*
X92221719Y-62857095D01*
X92316957Y-62809476D01*
X92412195Y-62809476D01*
X92555052Y-62857095D01*
X93126481Y-63428524D01*
X93126481Y-62809476D01*
X92126481Y-62476143D02*
X92126481Y-61857095D01*
X92507433Y-62190429D01*
X92507433Y-62047571D01*
X92555052Y-61952333D01*
X92602671Y-61904714D01*
X92697910Y-61857095D01*
X92936005Y-61857095D01*
X93031243Y-61904714D01*
X93078862Y-61952333D01*
X93126481Y-62047571D01*
X93126481Y-62333286D01*
X93078862Y-62428524D01*
X93031243Y-62476143D01*
M02*
