M48
;DRILL file {KiCad 4.0.7} date 11/09/17 22:03:37
;FORMAT={-:-/ absolute / inch / decimal}
FMAT,2
INCH,TZ
T1C0.015
T2C0.016
T3C0.026
%
G90
G05
M72
T1
X4.4086Y-3.816
X4.4086Y-3.866
X4.4096Y-3.576
X4.4096Y-3.626
X4.4586Y-3.816
X4.4586Y-3.866
X4.4596Y-3.576
X4.4596Y-3.626
X4.5086Y-3.816
X4.5086Y-3.866
X4.5096Y-3.576
X4.5096Y-3.626
X4.6661Y-5.153
X4.6661Y-5.203
X4.6661Y-5.253
X4.7161Y-5.153
X4.7161Y-5.203
X4.7161Y-5.253
X4.9061Y-5.154
X4.9061Y-5.204
X4.9061Y-5.254
X4.9561Y-5.154
X4.9561Y-5.204
X4.9561Y-5.254
X6.4446Y-4.051
X6.4446Y-4.101
X6.4456Y-3.811
X6.4456Y-3.861
X6.4946Y-4.051
X6.4946Y-4.101
X6.4956Y-3.811
X6.4956Y-3.861
X6.5446Y-4.051
X6.5446Y-4.101
X6.5456Y-3.811
X6.5456Y-3.861
X6.5511Y-4.9155
X6.5511Y-4.9655
X6.5521Y-4.6755
X6.5521Y-4.7255
X6.6011Y-4.9155
X6.6011Y-4.9655
X6.6021Y-4.6755
X6.6021Y-4.7255
X6.6511Y-4.9155
X6.6511Y-4.9655
X6.6521Y-4.6755
X6.6521Y-4.7255
X7.201Y-5.0276
X7.201Y-5.0776
X7.201Y-5.1276
X7.251Y-5.0276
X7.251Y-5.0776
X7.251Y-5.1276
X7.441Y-5.0286
X7.441Y-5.0786
X7.441Y-5.1286
X7.491Y-5.0286
X7.491Y-5.0786
X7.491Y-5.1286
T2
X3.8346Y-3.5949
X3.8626Y-3.5049
X3.9871Y-3.4049
X4.0215Y-6.1405
X4.022Y-6.0355
X4.0345Y-4.6235
X4.07Y-6.07
X4.0746Y-3.6294
X4.091Y-6.098
X4.1046Y-3.5565
X4.133Y-4.6235
X4.411Y-5.1275
X4.477Y-4.514
X4.507Y-5.206
X4.597Y-5.111
X4.79Y-3.877
X4.793Y-4.039
X4.85Y-3.962
X5.1126Y-4.576
X5.118Y-3.336
X5.1275Y-3.379
X5.1415Y-3.2945
X5.2726Y-4.396
X5.3126Y-4.276
X5.3936Y-3.191
X5.456Y-3.959
X5.531Y-3.891
X5.532Y-4.025
X5.564Y-3.832
X5.623Y-3.65
X5.628Y-4.017
X5.684Y-3.835
X5.728Y-3.649
X5.814Y-3.723
X5.939Y-4.6995
X5.9526Y-4.021
X5.988Y-4.7125
X6.0375Y-4.7125
X6.099Y-4.7125
X6.221Y-4.552
X6.293Y-4.641
X6.764Y-6.036
X6.7755Y-6.151
X6.7785Y-6.0805
X6.8005Y-6.108
X6.819Y-4.273
X6.82Y-4.119
X6.843Y-6.1005
X6.883Y-4.191
X6.9435Y-5.406
X6.96Y-4.907
X6.961Y-4.733
X7.0325Y-5.4655
X7.126Y-5.407
T3
X3.8556Y-4.113
X3.8556Y-4.238
X3.8556Y-4.363
X3.8556Y-4.483
X3.8562Y-3.9892
X3.9056Y-4.113
X3.9056Y-4.238
X3.9056Y-4.363
X3.9056Y-4.483
X3.9062Y-3.9892
X4.8774Y-4.346
X4.9274Y-4.346
T0
M30
