G04 #@! TF.FileFunction,Copper,L2,Bot,Signal*
%FSLAX46Y46*%
G04 Gerber Fmt 4.6, Leading zero omitted, Abs format (unit mm)*
G04 Created by KiCad (PCBNEW 4.0.7) date 11/09/17 22:03:18*
%MOMM*%
%LPD*%
G01*
G04 APERTURE LIST*
%ADD10C,0.100000*%
%ADD11R,1.270000X1.270000*%
%ADD12R,1.000000X1.000000*%
%ADD13O,1.000000X1.000000*%
%ADD14C,0.600000*%
%ADD15C,0.508000*%
%ADD16C,0.250000*%
%ADD17C,0.254000*%
G04 APERTURE END LIST*
D10*
D11*
X113247800Y-98196400D03*
X114517800Y-98196400D03*
X111977800Y-98196400D03*
X111977800Y-96926400D03*
X113247800Y-96926400D03*
X114517800Y-96926400D03*
X114543200Y-90830400D03*
X113273200Y-90830400D03*
X112003200Y-90830400D03*
X112003200Y-92100400D03*
X114543200Y-92100400D03*
X113273200Y-92100400D03*
X167692700Y-118757700D03*
X166422700Y-118757700D03*
X168962700Y-118757700D03*
X168962700Y-120027700D03*
X167692700Y-120027700D03*
X166422700Y-120027700D03*
X166397300Y-126123700D03*
X167667300Y-126123700D03*
X168937300Y-126123700D03*
X168937300Y-124853700D03*
X166397300Y-124853700D03*
X167667300Y-124853700D03*
X164962200Y-104165400D03*
X166232200Y-104165400D03*
X163692200Y-104165400D03*
X163692200Y-102895400D03*
X164962200Y-102895400D03*
X166232200Y-102895400D03*
X166257600Y-96799400D03*
X164987600Y-96799400D03*
X163717600Y-96799400D03*
X163717600Y-98069400D03*
X166257600Y-98069400D03*
X164987600Y-98069400D03*
X182904760Y-128971040D03*
X182904760Y-130241040D03*
X182904760Y-127701040D03*
X184174760Y-127701040D03*
X184174760Y-128971040D03*
X184174760Y-130241040D03*
X190270760Y-130266440D03*
X190270760Y-128996440D03*
X190270760Y-127726440D03*
X189000760Y-127726440D03*
X189000760Y-130266440D03*
X189000760Y-128996440D03*
X125884300Y-132181600D03*
X125884300Y-130911600D03*
X125884300Y-133451600D03*
X124614300Y-133451600D03*
X124614300Y-132181600D03*
X124614300Y-130911600D03*
X118518300Y-130886200D03*
X118518300Y-132156200D03*
X118518300Y-133426200D03*
X119788300Y-133426200D03*
X119788300Y-130886200D03*
X119788300Y-132156200D03*
D12*
X97931600Y-104470200D03*
D13*
X99201600Y-104470200D03*
D12*
X97931600Y-113868200D03*
D13*
X99201600Y-113868200D03*
D12*
X97931600Y-107645200D03*
D13*
X99201600Y-107645200D03*
D12*
X97931600Y-110820200D03*
D13*
X99201600Y-110820200D03*
D12*
X123885320Y-110388400D03*
D13*
X125155320Y-110388400D03*
D12*
X97946840Y-101325680D03*
D13*
X99216840Y-101325680D03*
D14*
X113715800Y-114655600D03*
X104978200Y-117436900D03*
X102476300Y-117436900D03*
X130594100Y-83680300D03*
X130238500Y-85826600D03*
X129997200Y-84734400D03*
X136996800Y-81051400D03*
X102158800Y-153301700D03*
X103378000Y-154178000D03*
X103911400Y-154889200D03*
X102146100Y-155968700D03*
X116763800Y-129819400D03*
X114477800Y-132232400D03*
X112039400Y-130238500D03*
X159842200Y-117881400D03*
X158013400Y-115620800D03*
X154914600Y-119697500D03*
X152095200Y-119697500D03*
X153352500Y-119697500D03*
X150850600Y-119367300D03*
X172732700Y-155143200D03*
X172173900Y-154444700D03*
X171805600Y-153314400D03*
X172097700Y-156235400D03*
X173812200Y-154952700D03*
X176364900Y-137312400D03*
X178625500Y-138823700D03*
X181000400Y-137337800D03*
X173202600Y-108534200D03*
X174828200Y-106451400D03*
X173228000Y-104622600D03*
X147675600Y-94564200D03*
X145491200Y-92684600D03*
X142824200Y-92710000D03*
X140487400Y-98831400D03*
X138582400Y-100558600D03*
X140512800Y-102235000D03*
X141325600Y-97332800D03*
X144373600Y-97409000D03*
X142951200Y-102031800D03*
X121742200Y-102590600D03*
X121666000Y-98475800D03*
X123190000Y-100634800D03*
X103494200Y-92186760D03*
X129859400Y-116230400D03*
X133923400Y-111658400D03*
X134939400Y-108610400D03*
X151195400Y-102133400D03*
X101271700Y-86484460D03*
X104256200Y-90335100D03*
X98109400Y-89024460D03*
X97398200Y-91310460D03*
X176784000Y-124637800D03*
X176809400Y-120218200D03*
D15*
X130175000Y-85852000D02*
X130213100Y-85852000D01*
X130213100Y-85852000D02*
X130238500Y-85826600D01*
X137096500Y-80975200D02*
X137071100Y-80975200D01*
X136994900Y-81051400D02*
X137071100Y-80975200D01*
X136994900Y-81051400D02*
X136996800Y-81051400D01*
X102120700Y-153339800D02*
X102120700Y-153352500D01*
X102158800Y-153301700D02*
X102120700Y-153339800D01*
X103378000Y-154178000D02*
X103403400Y-154152600D01*
X103403400Y-154152600D02*
X103492300Y-154152600D01*
X103949500Y-154927300D02*
X103962200Y-154927300D01*
X103911400Y-154889200D02*
X103949500Y-154927300D01*
X116903500Y-129959100D02*
X116903500Y-130009900D01*
X116763800Y-129819400D02*
X116903500Y-129959100D01*
X114439700Y-132270500D02*
X114427000Y-132270500D01*
X114477800Y-132232400D02*
X114439700Y-132270500D01*
X159854900Y-117894100D02*
X159880300Y-117894100D01*
X159842200Y-117881400D02*
X159854900Y-117894100D01*
X158013400Y-115620800D02*
X158013400Y-115608100D01*
X154927300Y-119710200D02*
X154927300Y-119735600D01*
X154914600Y-119697500D02*
X154927300Y-119710200D01*
X152095200Y-119697500D02*
X152107900Y-119697500D01*
X153365200Y-119608600D02*
X153365200Y-119684800D01*
X153365200Y-119684800D02*
X153352500Y-119697500D01*
X172072300Y-156210000D02*
X172034200Y-156210000D01*
X172097700Y-156235400D02*
X172072300Y-156210000D01*
X176364900Y-137312400D02*
X176364900Y-137299700D01*
X178663600Y-138861800D02*
X178790600Y-138861800D01*
X178625500Y-138823700D02*
X178663600Y-138861800D01*
X141325600Y-97332800D02*
X141401800Y-97332800D01*
X144373600Y-97409000D02*
X144424400Y-97409000D01*
D16*
X121742200Y-100685600D02*
X121742200Y-102590600D01*
X123190000Y-100634800D02*
X123215400Y-100660200D01*
D15*
X176784000Y-120243600D02*
X176784000Y-124637800D01*
X176809400Y-120218200D02*
X176784000Y-120243600D01*
D17*
G36*
X193680000Y-175650000D02*
X95100000Y-175650000D01*
X95100000Y-133711950D01*
X117248300Y-133711950D01*
X117248300Y-134187509D01*
X117344973Y-134420898D01*
X117523601Y-134599527D01*
X117756990Y-134696200D01*
X118232550Y-134696200D01*
X118391300Y-134537450D01*
X118391300Y-133711950D01*
X118518300Y-133711950D01*
X118518300Y-134187509D01*
X118614973Y-134420898D01*
X118645300Y-134451225D01*
X118645300Y-134537450D01*
X118804050Y-134696200D01*
X119502550Y-134696200D01*
X119661300Y-134537450D01*
X119661300Y-134451225D01*
X119691627Y-134420898D01*
X119788300Y-134187509D01*
X119788300Y-133711950D01*
X119661300Y-133584950D01*
X119661300Y-133553200D01*
X119915300Y-133553200D01*
X119915300Y-134537450D01*
X120074050Y-134696200D01*
X120549610Y-134696200D01*
X120782999Y-134599527D01*
X120961627Y-134420898D01*
X121058300Y-134187509D01*
X121058300Y-133737350D01*
X123344300Y-133737350D01*
X123344300Y-134212909D01*
X123440973Y-134446298D01*
X123619601Y-134624927D01*
X123852990Y-134721600D01*
X124328550Y-134721600D01*
X124487300Y-134562850D01*
X124487300Y-133737350D01*
X124614300Y-133737350D01*
X124614300Y-134212909D01*
X124710973Y-134446298D01*
X124741300Y-134476625D01*
X124741300Y-134562850D01*
X124900050Y-134721600D01*
X125598550Y-134721600D01*
X125757300Y-134562850D01*
X125757300Y-134476625D01*
X125787627Y-134446298D01*
X125884300Y-134212909D01*
X125884300Y-133737350D01*
X125757300Y-133610350D01*
X125757300Y-133578600D01*
X126011300Y-133578600D01*
X126011300Y-134562850D01*
X126170050Y-134721600D01*
X126645610Y-134721600D01*
X126878999Y-134624927D01*
X127057627Y-134446298D01*
X127154300Y-134212909D01*
X127154300Y-133737350D01*
X126995550Y-133578600D01*
X126011300Y-133578600D01*
X125757300Y-133578600D01*
X124741300Y-133578600D01*
X124741300Y-133610350D01*
X124614300Y-133737350D01*
X124487300Y-133737350D01*
X124487300Y-133578600D01*
X123503050Y-133578600D01*
X123344300Y-133737350D01*
X121058300Y-133737350D01*
X121058300Y-133711950D01*
X120899550Y-133553200D01*
X119915300Y-133553200D01*
X119661300Y-133553200D01*
X118645300Y-133553200D01*
X118645300Y-133584950D01*
X118518300Y-133711950D01*
X118391300Y-133711950D01*
X118391300Y-133553200D01*
X117407050Y-133553200D01*
X117248300Y-133711950D01*
X95100000Y-133711950D01*
X95100000Y-131171950D01*
X117248300Y-131171950D01*
X117248300Y-131870450D01*
X117407050Y-132029200D01*
X117493274Y-132029200D01*
X117523601Y-132059527D01*
X117756990Y-132156200D01*
X117523601Y-132252873D01*
X117493274Y-132283200D01*
X117407050Y-132283200D01*
X117248300Y-132441950D01*
X117248300Y-133140450D01*
X117407050Y-133299200D01*
X117493274Y-133299200D01*
X117523601Y-133329527D01*
X117756990Y-133426200D01*
X118232550Y-133426200D01*
X118359550Y-133299200D01*
X118391300Y-133299200D01*
X118391300Y-132283200D01*
X118359550Y-132283200D01*
X118232550Y-132156200D01*
X118359550Y-132029200D01*
X118391300Y-132029200D01*
X118391300Y-131171950D01*
X118518300Y-131171950D01*
X118518300Y-131870450D01*
X118645300Y-131997450D01*
X118645300Y-132029200D01*
X118677050Y-132029200D01*
X118804050Y-132156200D01*
X118677050Y-132283200D01*
X118645300Y-132283200D01*
X118645300Y-132314950D01*
X118518300Y-132441950D01*
X118518300Y-133140450D01*
X118645300Y-133267450D01*
X118645300Y-133299200D01*
X118677050Y-133299200D01*
X118804050Y-133426200D01*
X119502550Y-133426200D01*
X119629550Y-133299200D01*
X119661300Y-133299200D01*
X119661300Y-133267450D01*
X119788300Y-133140450D01*
X119788300Y-132441950D01*
X119661300Y-132314950D01*
X119661300Y-132283200D01*
X119629550Y-132283200D01*
X119502550Y-132156200D01*
X119629550Y-132029200D01*
X119661300Y-132029200D01*
X119661300Y-131997450D01*
X119788300Y-131870450D01*
X119788300Y-131171950D01*
X119661300Y-131044950D01*
X119661300Y-131013200D01*
X119915300Y-131013200D01*
X119915300Y-132029200D01*
X119947050Y-132029200D01*
X120074050Y-132156200D01*
X119947050Y-132283200D01*
X119915300Y-132283200D01*
X119915300Y-133299200D01*
X119947050Y-133299200D01*
X120074050Y-133426200D01*
X120549610Y-133426200D01*
X120782999Y-133329527D01*
X120813326Y-133299200D01*
X120899550Y-133299200D01*
X121058300Y-133140450D01*
X121058300Y-132441950D01*
X120899550Y-132283200D01*
X120813326Y-132283200D01*
X120782999Y-132252873D01*
X120549610Y-132156200D01*
X120782999Y-132059527D01*
X120813326Y-132029200D01*
X120899550Y-132029200D01*
X121058300Y-131870450D01*
X121058300Y-131197350D01*
X123344300Y-131197350D01*
X123344300Y-131895850D01*
X123503050Y-132054600D01*
X123589274Y-132054600D01*
X123619601Y-132084927D01*
X123852990Y-132181600D01*
X123619601Y-132278273D01*
X123589274Y-132308600D01*
X123503050Y-132308600D01*
X123344300Y-132467350D01*
X123344300Y-133165850D01*
X123503050Y-133324600D01*
X123589274Y-133324600D01*
X123619601Y-133354927D01*
X123852990Y-133451600D01*
X124328550Y-133451600D01*
X124455550Y-133324600D01*
X124487300Y-133324600D01*
X124487300Y-132308600D01*
X124455550Y-132308600D01*
X124328550Y-132181600D01*
X124455550Y-132054600D01*
X124487300Y-132054600D01*
X124487300Y-131197350D01*
X124614300Y-131197350D01*
X124614300Y-131895850D01*
X124741300Y-132022850D01*
X124741300Y-132054600D01*
X124773050Y-132054600D01*
X124900050Y-132181600D01*
X124773050Y-132308600D01*
X124741300Y-132308600D01*
X124741300Y-132340350D01*
X124614300Y-132467350D01*
X124614300Y-133165850D01*
X124741300Y-133292850D01*
X124741300Y-133324600D01*
X124773050Y-133324600D01*
X124900050Y-133451600D01*
X125598550Y-133451600D01*
X125725550Y-133324600D01*
X125757300Y-133324600D01*
X125757300Y-133292850D01*
X125884300Y-133165850D01*
X125884300Y-132467350D01*
X125757300Y-132340350D01*
X125757300Y-132308600D01*
X125725550Y-132308600D01*
X125598550Y-132181600D01*
X125725550Y-132054600D01*
X125757300Y-132054600D01*
X125757300Y-132022850D01*
X125884300Y-131895850D01*
X125884300Y-131197350D01*
X125757300Y-131070350D01*
X125757300Y-131038600D01*
X126011300Y-131038600D01*
X126011300Y-132054600D01*
X126043050Y-132054600D01*
X126170050Y-132181600D01*
X126043050Y-132308600D01*
X126011300Y-132308600D01*
X126011300Y-133324600D01*
X126043050Y-133324600D01*
X126170050Y-133451600D01*
X126645610Y-133451600D01*
X126878999Y-133354927D01*
X126909326Y-133324600D01*
X126995550Y-133324600D01*
X127154300Y-133165850D01*
X127154300Y-132467350D01*
X126995550Y-132308600D01*
X126909326Y-132308600D01*
X126878999Y-132278273D01*
X126645610Y-132181600D01*
X126878999Y-132084927D01*
X126909326Y-132054600D01*
X126995550Y-132054600D01*
X127154300Y-131895850D01*
X127154300Y-131197350D01*
X126995550Y-131038600D01*
X126909326Y-131038600D01*
X126878999Y-131008273D01*
X126645610Y-130911600D01*
X126170050Y-130911600D01*
X126043050Y-131038600D01*
X126011300Y-131038600D01*
X125757300Y-131038600D01*
X125725550Y-131038600D01*
X125598550Y-130911600D01*
X124900050Y-130911600D01*
X124773050Y-131038600D01*
X124741300Y-131038600D01*
X124741300Y-131070350D01*
X124614300Y-131197350D01*
X124487300Y-131197350D01*
X124487300Y-131038600D01*
X124455550Y-131038600D01*
X124328550Y-130911600D01*
X123852990Y-130911600D01*
X123619601Y-131008273D01*
X123589274Y-131038600D01*
X123503050Y-131038600D01*
X123344300Y-131197350D01*
X121058300Y-131197350D01*
X121058300Y-131171950D01*
X120899550Y-131013200D01*
X120813326Y-131013200D01*
X120782999Y-130982873D01*
X120549610Y-130886200D01*
X120074050Y-130886200D01*
X119947050Y-131013200D01*
X119915300Y-131013200D01*
X119661300Y-131013200D01*
X119629550Y-131013200D01*
X119502550Y-130886200D01*
X118804050Y-130886200D01*
X118677050Y-131013200D01*
X118645300Y-131013200D01*
X118645300Y-131044950D01*
X118518300Y-131171950D01*
X118391300Y-131171950D01*
X118391300Y-131013200D01*
X118359550Y-131013200D01*
X118232550Y-130886200D01*
X117756990Y-130886200D01*
X117523601Y-130982873D01*
X117493274Y-131013200D01*
X117407050Y-131013200D01*
X117248300Y-131171950D01*
X95100000Y-131171950D01*
X95100000Y-130124891D01*
X117248300Y-130124891D01*
X117248300Y-130600450D01*
X117407050Y-130759200D01*
X118391300Y-130759200D01*
X118391300Y-130124891D01*
X118518300Y-130124891D01*
X118518300Y-130600450D01*
X118645300Y-130727450D01*
X118645300Y-130759200D01*
X119661300Y-130759200D01*
X119661300Y-130727450D01*
X119788300Y-130600450D01*
X119788300Y-130124891D01*
X119691627Y-129891502D01*
X119661300Y-129861175D01*
X119661300Y-129774950D01*
X119915300Y-129774950D01*
X119915300Y-130759200D01*
X120899550Y-130759200D01*
X121058300Y-130600450D01*
X121058300Y-130150291D01*
X123344300Y-130150291D01*
X123344300Y-130625850D01*
X123503050Y-130784600D01*
X124487300Y-130784600D01*
X124487300Y-130150291D01*
X124614300Y-130150291D01*
X124614300Y-130625850D01*
X124741300Y-130752850D01*
X124741300Y-130784600D01*
X125757300Y-130784600D01*
X125757300Y-130752850D01*
X125884300Y-130625850D01*
X125884300Y-130150291D01*
X125787627Y-129916902D01*
X125757300Y-129886575D01*
X125757300Y-129800350D01*
X126011300Y-129800350D01*
X126011300Y-130784600D01*
X126995550Y-130784600D01*
X127154300Y-130625850D01*
X127154300Y-130526790D01*
X181634760Y-130526790D01*
X181634760Y-131002349D01*
X181731433Y-131235738D01*
X181910061Y-131414367D01*
X182143450Y-131511040D01*
X182619010Y-131511040D01*
X182777760Y-131352290D01*
X182777760Y-130526790D01*
X182904760Y-130526790D01*
X182904760Y-131002349D01*
X183001433Y-131235738D01*
X183031760Y-131266065D01*
X183031760Y-131352290D01*
X183190510Y-131511040D01*
X183889010Y-131511040D01*
X184047760Y-131352290D01*
X184047760Y-131266065D01*
X184078087Y-131235738D01*
X184174760Y-131002349D01*
X184174760Y-130526790D01*
X184047760Y-130399790D01*
X184047760Y-130368040D01*
X184301760Y-130368040D01*
X184301760Y-131352290D01*
X184460510Y-131511040D01*
X184936070Y-131511040D01*
X185169459Y-131414367D01*
X185348087Y-131235738D01*
X185444760Y-131002349D01*
X185444760Y-130552190D01*
X187730760Y-130552190D01*
X187730760Y-131027749D01*
X187827433Y-131261138D01*
X188006061Y-131439767D01*
X188239450Y-131536440D01*
X188715010Y-131536440D01*
X188873760Y-131377690D01*
X188873760Y-130552190D01*
X189000760Y-130552190D01*
X189000760Y-131027749D01*
X189097433Y-131261138D01*
X189127760Y-131291465D01*
X189127760Y-131377690D01*
X189286510Y-131536440D01*
X189985010Y-131536440D01*
X190143760Y-131377690D01*
X190143760Y-131291465D01*
X190174087Y-131261138D01*
X190270760Y-131027749D01*
X190270760Y-130552190D01*
X190143760Y-130425190D01*
X190143760Y-130393440D01*
X190397760Y-130393440D01*
X190397760Y-131377690D01*
X190556510Y-131536440D01*
X191032070Y-131536440D01*
X191265459Y-131439767D01*
X191444087Y-131261138D01*
X191540760Y-131027749D01*
X191540760Y-130552190D01*
X191382010Y-130393440D01*
X190397760Y-130393440D01*
X190143760Y-130393440D01*
X189127760Y-130393440D01*
X189127760Y-130425190D01*
X189000760Y-130552190D01*
X188873760Y-130552190D01*
X188873760Y-130393440D01*
X187889510Y-130393440D01*
X187730760Y-130552190D01*
X185444760Y-130552190D01*
X185444760Y-130526790D01*
X185286010Y-130368040D01*
X184301760Y-130368040D01*
X184047760Y-130368040D01*
X183031760Y-130368040D01*
X183031760Y-130399790D01*
X182904760Y-130526790D01*
X182777760Y-130526790D01*
X182777760Y-130368040D01*
X181793510Y-130368040D01*
X181634760Y-130526790D01*
X127154300Y-130526790D01*
X127154300Y-130150291D01*
X127057627Y-129916902D01*
X126878999Y-129738273D01*
X126645610Y-129641600D01*
X126170050Y-129641600D01*
X126011300Y-129800350D01*
X125757300Y-129800350D01*
X125598550Y-129641600D01*
X124900050Y-129641600D01*
X124741300Y-129800350D01*
X124741300Y-129886575D01*
X124710973Y-129916902D01*
X124614300Y-130150291D01*
X124487300Y-130150291D01*
X124487300Y-129800350D01*
X124328550Y-129641600D01*
X123852990Y-129641600D01*
X123619601Y-129738273D01*
X123440973Y-129916902D01*
X123344300Y-130150291D01*
X121058300Y-130150291D01*
X121058300Y-130124891D01*
X120961627Y-129891502D01*
X120782999Y-129712873D01*
X120549610Y-129616200D01*
X120074050Y-129616200D01*
X119915300Y-129774950D01*
X119661300Y-129774950D01*
X119502550Y-129616200D01*
X118804050Y-129616200D01*
X118645300Y-129774950D01*
X118645300Y-129861175D01*
X118614973Y-129891502D01*
X118518300Y-130124891D01*
X118391300Y-130124891D01*
X118391300Y-129774950D01*
X118232550Y-129616200D01*
X117756990Y-129616200D01*
X117523601Y-129712873D01*
X117344973Y-129891502D01*
X117248300Y-130124891D01*
X95100000Y-130124891D01*
X95100000Y-127986790D01*
X181634760Y-127986790D01*
X181634760Y-128685290D01*
X181793510Y-128844040D01*
X181879734Y-128844040D01*
X181910061Y-128874367D01*
X182143450Y-128971040D01*
X181910061Y-129067713D01*
X181879734Y-129098040D01*
X181793510Y-129098040D01*
X181634760Y-129256790D01*
X181634760Y-129955290D01*
X181793510Y-130114040D01*
X181879734Y-130114040D01*
X181910061Y-130144367D01*
X182143450Y-130241040D01*
X182619010Y-130241040D01*
X182746010Y-130114040D01*
X182777760Y-130114040D01*
X182777760Y-129098040D01*
X182746010Y-129098040D01*
X182619010Y-128971040D01*
X182746010Y-128844040D01*
X182777760Y-128844040D01*
X182777760Y-127986790D01*
X182904760Y-127986790D01*
X182904760Y-128685290D01*
X183031760Y-128812290D01*
X183031760Y-128844040D01*
X183063510Y-128844040D01*
X183190510Y-128971040D01*
X183063510Y-129098040D01*
X183031760Y-129098040D01*
X183031760Y-129129790D01*
X182904760Y-129256790D01*
X182904760Y-129955290D01*
X183031760Y-130082290D01*
X183031760Y-130114040D01*
X183063510Y-130114040D01*
X183190510Y-130241040D01*
X183889010Y-130241040D01*
X184016010Y-130114040D01*
X184047760Y-130114040D01*
X184047760Y-130082290D01*
X184174760Y-129955290D01*
X184174760Y-129256790D01*
X184047760Y-129129790D01*
X184047760Y-129098040D01*
X184016010Y-129098040D01*
X183889010Y-128971040D01*
X184016010Y-128844040D01*
X184047760Y-128844040D01*
X184047760Y-128812290D01*
X184174760Y-128685290D01*
X184174760Y-127986790D01*
X184047760Y-127859790D01*
X184047760Y-127828040D01*
X184301760Y-127828040D01*
X184301760Y-128844040D01*
X184333510Y-128844040D01*
X184460510Y-128971040D01*
X184333510Y-129098040D01*
X184301760Y-129098040D01*
X184301760Y-130114040D01*
X184333510Y-130114040D01*
X184460510Y-130241040D01*
X184936070Y-130241040D01*
X185169459Y-130144367D01*
X185199786Y-130114040D01*
X185286010Y-130114040D01*
X185444760Y-129955290D01*
X185444760Y-129256790D01*
X185286010Y-129098040D01*
X185199786Y-129098040D01*
X185169459Y-129067713D01*
X184936070Y-128971040D01*
X185169459Y-128874367D01*
X185199786Y-128844040D01*
X185286010Y-128844040D01*
X185444760Y-128685290D01*
X185444760Y-128012190D01*
X187730760Y-128012190D01*
X187730760Y-128710690D01*
X187889510Y-128869440D01*
X187975734Y-128869440D01*
X188006061Y-128899767D01*
X188239450Y-128996440D01*
X188006061Y-129093113D01*
X187975734Y-129123440D01*
X187889510Y-129123440D01*
X187730760Y-129282190D01*
X187730760Y-129980690D01*
X187889510Y-130139440D01*
X187975734Y-130139440D01*
X188006061Y-130169767D01*
X188239450Y-130266440D01*
X188715010Y-130266440D01*
X188842010Y-130139440D01*
X188873760Y-130139440D01*
X188873760Y-129123440D01*
X188842010Y-129123440D01*
X188715010Y-128996440D01*
X188842010Y-128869440D01*
X188873760Y-128869440D01*
X188873760Y-128012190D01*
X189000760Y-128012190D01*
X189000760Y-128710690D01*
X189127760Y-128837690D01*
X189127760Y-128869440D01*
X189159510Y-128869440D01*
X189286510Y-128996440D01*
X189159510Y-129123440D01*
X189127760Y-129123440D01*
X189127760Y-129155190D01*
X189000760Y-129282190D01*
X189000760Y-129980690D01*
X189127760Y-130107690D01*
X189127760Y-130139440D01*
X189159510Y-130139440D01*
X189286510Y-130266440D01*
X189985010Y-130266440D01*
X190112010Y-130139440D01*
X190143760Y-130139440D01*
X190143760Y-130107690D01*
X190270760Y-129980690D01*
X190270760Y-129282190D01*
X190143760Y-129155190D01*
X190143760Y-129123440D01*
X190112010Y-129123440D01*
X189985010Y-128996440D01*
X190112010Y-128869440D01*
X190143760Y-128869440D01*
X190143760Y-128837690D01*
X190270760Y-128710690D01*
X190270760Y-128012190D01*
X190143760Y-127885190D01*
X190143760Y-127853440D01*
X190397760Y-127853440D01*
X190397760Y-128869440D01*
X190429510Y-128869440D01*
X190556510Y-128996440D01*
X190429510Y-129123440D01*
X190397760Y-129123440D01*
X190397760Y-130139440D01*
X190429510Y-130139440D01*
X190556510Y-130266440D01*
X191032070Y-130266440D01*
X191265459Y-130169767D01*
X191295786Y-130139440D01*
X191382010Y-130139440D01*
X191540760Y-129980690D01*
X191540760Y-129282190D01*
X191382010Y-129123440D01*
X191295786Y-129123440D01*
X191265459Y-129093113D01*
X191032070Y-128996440D01*
X191265459Y-128899767D01*
X191295786Y-128869440D01*
X191382010Y-128869440D01*
X191540760Y-128710690D01*
X191540760Y-128012190D01*
X191382010Y-127853440D01*
X191295786Y-127853440D01*
X191265459Y-127823113D01*
X191032070Y-127726440D01*
X190556510Y-127726440D01*
X190429510Y-127853440D01*
X190397760Y-127853440D01*
X190143760Y-127853440D01*
X190112010Y-127853440D01*
X189985010Y-127726440D01*
X189286510Y-127726440D01*
X189159510Y-127853440D01*
X189127760Y-127853440D01*
X189127760Y-127885190D01*
X189000760Y-128012190D01*
X188873760Y-128012190D01*
X188873760Y-127853440D01*
X188842010Y-127853440D01*
X188715010Y-127726440D01*
X188239450Y-127726440D01*
X188006061Y-127823113D01*
X187975734Y-127853440D01*
X187889510Y-127853440D01*
X187730760Y-128012190D01*
X185444760Y-128012190D01*
X185444760Y-127986790D01*
X185286010Y-127828040D01*
X185199786Y-127828040D01*
X185169459Y-127797713D01*
X184936070Y-127701040D01*
X184460510Y-127701040D01*
X184333510Y-127828040D01*
X184301760Y-127828040D01*
X184047760Y-127828040D01*
X184016010Y-127828040D01*
X183889010Y-127701040D01*
X183190510Y-127701040D01*
X183063510Y-127828040D01*
X183031760Y-127828040D01*
X183031760Y-127859790D01*
X182904760Y-127986790D01*
X182777760Y-127986790D01*
X182777760Y-127828040D01*
X182746010Y-127828040D01*
X182619010Y-127701040D01*
X182143450Y-127701040D01*
X181910061Y-127797713D01*
X181879734Y-127828040D01*
X181793510Y-127828040D01*
X181634760Y-127986790D01*
X95100000Y-127986790D01*
X95100000Y-126409450D01*
X165127300Y-126409450D01*
X165127300Y-126885010D01*
X165223973Y-127118399D01*
X165402602Y-127297027D01*
X165635991Y-127393700D01*
X166111550Y-127393700D01*
X166270300Y-127234950D01*
X166270300Y-126409450D01*
X166397300Y-126409450D01*
X166397300Y-126885010D01*
X166493973Y-127118399D01*
X166524300Y-127148726D01*
X166524300Y-127234950D01*
X166683050Y-127393700D01*
X167381550Y-127393700D01*
X167540300Y-127234950D01*
X167540300Y-127148726D01*
X167570627Y-127118399D01*
X167667300Y-126885010D01*
X167763973Y-127118399D01*
X167794300Y-127148726D01*
X167794300Y-127234950D01*
X167953050Y-127393700D01*
X168651550Y-127393700D01*
X168810300Y-127234950D01*
X168810300Y-127148726D01*
X168840627Y-127118399D01*
X168937300Y-126885010D01*
X168937300Y-126409450D01*
X168810300Y-126282450D01*
X168810300Y-126250700D01*
X169064300Y-126250700D01*
X169064300Y-127234950D01*
X169223050Y-127393700D01*
X169698609Y-127393700D01*
X169931998Y-127297027D01*
X170110627Y-127118399D01*
X170184633Y-126939731D01*
X181634760Y-126939731D01*
X181634760Y-127415290D01*
X181793510Y-127574040D01*
X182777760Y-127574040D01*
X182777760Y-126939731D01*
X182904760Y-126939731D01*
X182904760Y-127415290D01*
X183031760Y-127542290D01*
X183031760Y-127574040D01*
X184047760Y-127574040D01*
X184047760Y-127542290D01*
X184174760Y-127415290D01*
X184174760Y-126939731D01*
X184078087Y-126706342D01*
X184047760Y-126676015D01*
X184047760Y-126589790D01*
X184301760Y-126589790D01*
X184301760Y-127574040D01*
X185286010Y-127574040D01*
X185444760Y-127415290D01*
X185444760Y-126965131D01*
X187730760Y-126965131D01*
X187730760Y-127440690D01*
X187889510Y-127599440D01*
X188873760Y-127599440D01*
X188873760Y-126965131D01*
X189000760Y-126965131D01*
X189000760Y-127440690D01*
X189127760Y-127567690D01*
X189127760Y-127599440D01*
X190143760Y-127599440D01*
X190143760Y-127567690D01*
X190270760Y-127440690D01*
X190270760Y-126965131D01*
X190174087Y-126731742D01*
X190143760Y-126701415D01*
X190143760Y-126615190D01*
X190397760Y-126615190D01*
X190397760Y-127599440D01*
X191382010Y-127599440D01*
X191540760Y-127440690D01*
X191540760Y-126965131D01*
X191444087Y-126731742D01*
X191265459Y-126553113D01*
X191032070Y-126456440D01*
X190556510Y-126456440D01*
X190397760Y-126615190D01*
X190143760Y-126615190D01*
X189985010Y-126456440D01*
X189286510Y-126456440D01*
X189127760Y-126615190D01*
X189127760Y-126701415D01*
X189097433Y-126731742D01*
X189000760Y-126965131D01*
X188873760Y-126965131D01*
X188873760Y-126615190D01*
X188715010Y-126456440D01*
X188239450Y-126456440D01*
X188006061Y-126553113D01*
X187827433Y-126731742D01*
X187730760Y-126965131D01*
X185444760Y-126965131D01*
X185444760Y-126939731D01*
X185348087Y-126706342D01*
X185169459Y-126527713D01*
X184936070Y-126431040D01*
X184460510Y-126431040D01*
X184301760Y-126589790D01*
X184047760Y-126589790D01*
X183889010Y-126431040D01*
X183190510Y-126431040D01*
X183031760Y-126589790D01*
X183031760Y-126676015D01*
X183001433Y-126706342D01*
X182904760Y-126939731D01*
X182777760Y-126939731D01*
X182777760Y-126589790D01*
X182619010Y-126431040D01*
X182143450Y-126431040D01*
X181910061Y-126527713D01*
X181731433Y-126706342D01*
X181634760Y-126939731D01*
X170184633Y-126939731D01*
X170207300Y-126885010D01*
X170207300Y-126409450D01*
X170048550Y-126250700D01*
X169064300Y-126250700D01*
X168810300Y-126250700D01*
X167794300Y-126250700D01*
X167794300Y-126282450D01*
X167667300Y-126409450D01*
X167540300Y-126282450D01*
X167540300Y-126250700D01*
X166524300Y-126250700D01*
X166524300Y-126282450D01*
X166397300Y-126409450D01*
X166270300Y-126409450D01*
X166270300Y-126250700D01*
X165286050Y-126250700D01*
X165127300Y-126409450D01*
X95100000Y-126409450D01*
X95100000Y-125139450D01*
X165127300Y-125139450D01*
X165127300Y-125837950D01*
X165286050Y-125996700D01*
X165372275Y-125996700D01*
X165402602Y-126027027D01*
X165635991Y-126123700D01*
X166111550Y-126123700D01*
X166238550Y-125996700D01*
X166270300Y-125996700D01*
X166270300Y-125139450D01*
X166397300Y-125139450D01*
X166397300Y-125837950D01*
X166524300Y-125964950D01*
X166524300Y-125996700D01*
X166556050Y-125996700D01*
X166683050Y-126123700D01*
X167381550Y-126123700D01*
X167508550Y-125996700D01*
X167540300Y-125996700D01*
X167540300Y-125964950D01*
X167667300Y-125837950D01*
X167794300Y-125964950D01*
X167794300Y-125996700D01*
X167826050Y-125996700D01*
X167953050Y-126123700D01*
X168651550Y-126123700D01*
X168778550Y-125996700D01*
X168810300Y-125996700D01*
X168810300Y-125964950D01*
X168937300Y-125837950D01*
X168937300Y-125139450D01*
X168810300Y-125012450D01*
X168810300Y-124980700D01*
X169064300Y-124980700D01*
X169064300Y-125996700D01*
X169096050Y-125996700D01*
X169223050Y-126123700D01*
X169698609Y-126123700D01*
X169931998Y-126027027D01*
X169962325Y-125996700D01*
X170048550Y-125996700D01*
X170207300Y-125837950D01*
X170207300Y-125139450D01*
X170048550Y-124980700D01*
X169962325Y-124980700D01*
X169931998Y-124950373D01*
X169698609Y-124853700D01*
X169223050Y-124853700D01*
X169096050Y-124980700D01*
X169064300Y-124980700D01*
X168810300Y-124980700D01*
X168778550Y-124980700D01*
X168651550Y-124853700D01*
X167953050Y-124853700D01*
X167826050Y-124980700D01*
X167794300Y-124980700D01*
X167794300Y-125012450D01*
X167667300Y-125139450D01*
X167540300Y-125012450D01*
X167540300Y-124980700D01*
X167508550Y-124980700D01*
X167381550Y-124853700D01*
X166683050Y-124853700D01*
X166556050Y-124980700D01*
X166524300Y-124980700D01*
X166524300Y-125012450D01*
X166397300Y-125139450D01*
X166270300Y-125139450D01*
X166270300Y-124980700D01*
X166238550Y-124980700D01*
X166111550Y-124853700D01*
X165635991Y-124853700D01*
X165402602Y-124950373D01*
X165372275Y-124980700D01*
X165286050Y-124980700D01*
X165127300Y-125139450D01*
X95100000Y-125139450D01*
X95100000Y-124822967D01*
X175848838Y-124822967D01*
X175990883Y-125166743D01*
X176253673Y-125429992D01*
X176597201Y-125572638D01*
X176969167Y-125572962D01*
X177312943Y-125430917D01*
X177576192Y-125168127D01*
X177718838Y-124824599D01*
X177719162Y-124452633D01*
X177673000Y-124340912D01*
X177673000Y-120576558D01*
X177744238Y-120404999D01*
X177744562Y-120033033D01*
X177602517Y-119689257D01*
X177339727Y-119426008D01*
X176996199Y-119283362D01*
X176624233Y-119283038D01*
X176280457Y-119425083D01*
X176017208Y-119687873D01*
X175874562Y-120031401D01*
X175874238Y-120403367D01*
X175895000Y-120453615D01*
X175895000Y-124340611D01*
X175849162Y-124451001D01*
X175848838Y-124822967D01*
X95100000Y-124822967D01*
X95100000Y-124092390D01*
X165127300Y-124092390D01*
X165127300Y-124567950D01*
X165286050Y-124726700D01*
X166270300Y-124726700D01*
X166270300Y-124092390D01*
X166397300Y-124092390D01*
X166397300Y-124567950D01*
X166524300Y-124694950D01*
X166524300Y-124726700D01*
X167540300Y-124726700D01*
X167540300Y-124694950D01*
X167667300Y-124567950D01*
X167794300Y-124694950D01*
X167794300Y-124726700D01*
X168810300Y-124726700D01*
X168810300Y-124694950D01*
X168937300Y-124567950D01*
X168937300Y-124092390D01*
X168840627Y-123859001D01*
X168810300Y-123828674D01*
X168810300Y-123742450D01*
X169064300Y-123742450D01*
X169064300Y-124726700D01*
X170048550Y-124726700D01*
X170207300Y-124567950D01*
X170207300Y-124092390D01*
X170110627Y-123859001D01*
X169931998Y-123680373D01*
X169698609Y-123583700D01*
X169223050Y-123583700D01*
X169064300Y-123742450D01*
X168810300Y-123742450D01*
X168651550Y-123583700D01*
X167953050Y-123583700D01*
X167794300Y-123742450D01*
X167794300Y-123828674D01*
X167763973Y-123859001D01*
X167667300Y-124092390D01*
X167570627Y-123859001D01*
X167540300Y-123828674D01*
X167540300Y-123742450D01*
X167381550Y-123583700D01*
X166683050Y-123583700D01*
X166524300Y-123742450D01*
X166524300Y-123828674D01*
X166493973Y-123859001D01*
X166397300Y-124092390D01*
X166270300Y-124092390D01*
X166270300Y-123742450D01*
X166111550Y-123583700D01*
X165635991Y-123583700D01*
X165402602Y-123680373D01*
X165223973Y-123859001D01*
X165127300Y-124092390D01*
X95100000Y-124092390D01*
X95100000Y-120313450D01*
X165152700Y-120313450D01*
X165152700Y-120789010D01*
X165249373Y-121022399D01*
X165428002Y-121201027D01*
X165661391Y-121297700D01*
X166136950Y-121297700D01*
X166295700Y-121138950D01*
X166295700Y-120313450D01*
X166422700Y-120313450D01*
X166422700Y-120789010D01*
X166519373Y-121022399D01*
X166549700Y-121052726D01*
X166549700Y-121138950D01*
X166708450Y-121297700D01*
X167406950Y-121297700D01*
X167565700Y-121138950D01*
X167565700Y-121052726D01*
X167596027Y-121022399D01*
X167692700Y-120789010D01*
X167789373Y-121022399D01*
X167819700Y-121052726D01*
X167819700Y-121138950D01*
X167978450Y-121297700D01*
X168676950Y-121297700D01*
X168835700Y-121138950D01*
X168835700Y-121052726D01*
X168866027Y-121022399D01*
X168962700Y-120789010D01*
X168962700Y-120313450D01*
X168835700Y-120186450D01*
X168835700Y-120154700D01*
X169089700Y-120154700D01*
X169089700Y-121138950D01*
X169248450Y-121297700D01*
X169724009Y-121297700D01*
X169957398Y-121201027D01*
X170136027Y-121022399D01*
X170232700Y-120789010D01*
X170232700Y-120313450D01*
X170073950Y-120154700D01*
X169089700Y-120154700D01*
X168835700Y-120154700D01*
X167819700Y-120154700D01*
X167819700Y-120186450D01*
X167692700Y-120313450D01*
X167565700Y-120186450D01*
X167565700Y-120154700D01*
X166549700Y-120154700D01*
X166549700Y-120186450D01*
X166422700Y-120313450D01*
X166295700Y-120313450D01*
X166295700Y-120154700D01*
X165311450Y-120154700D01*
X165152700Y-120313450D01*
X95100000Y-120313450D01*
X95100000Y-119043450D01*
X165152700Y-119043450D01*
X165152700Y-119741950D01*
X165311450Y-119900700D01*
X165397675Y-119900700D01*
X165428002Y-119931027D01*
X165661391Y-120027700D01*
X166136950Y-120027700D01*
X166263950Y-119900700D01*
X166295700Y-119900700D01*
X166295700Y-119043450D01*
X166422700Y-119043450D01*
X166422700Y-119741950D01*
X166549700Y-119868950D01*
X166549700Y-119900700D01*
X166581450Y-119900700D01*
X166708450Y-120027700D01*
X167406950Y-120027700D01*
X167533950Y-119900700D01*
X167565700Y-119900700D01*
X167565700Y-119868950D01*
X167692700Y-119741950D01*
X167819700Y-119868950D01*
X167819700Y-119900700D01*
X167851450Y-119900700D01*
X167978450Y-120027700D01*
X168676950Y-120027700D01*
X168803950Y-119900700D01*
X168835700Y-119900700D01*
X168835700Y-119868950D01*
X168962700Y-119741950D01*
X168962700Y-119043450D01*
X168835700Y-118916450D01*
X168835700Y-118884700D01*
X169089700Y-118884700D01*
X169089700Y-119900700D01*
X169121450Y-119900700D01*
X169248450Y-120027700D01*
X169724009Y-120027700D01*
X169957398Y-119931027D01*
X169987725Y-119900700D01*
X170073950Y-119900700D01*
X170232700Y-119741950D01*
X170232700Y-119043450D01*
X170073950Y-118884700D01*
X169987725Y-118884700D01*
X169957398Y-118854373D01*
X169724009Y-118757700D01*
X169248450Y-118757700D01*
X169121450Y-118884700D01*
X169089700Y-118884700D01*
X168835700Y-118884700D01*
X168803950Y-118884700D01*
X168676950Y-118757700D01*
X167978450Y-118757700D01*
X167851450Y-118884700D01*
X167819700Y-118884700D01*
X167819700Y-118916450D01*
X167692700Y-119043450D01*
X167565700Y-118916450D01*
X167565700Y-118884700D01*
X167533950Y-118884700D01*
X167406950Y-118757700D01*
X166708450Y-118757700D01*
X166581450Y-118884700D01*
X166549700Y-118884700D01*
X166549700Y-118916450D01*
X166422700Y-119043450D01*
X166295700Y-119043450D01*
X166295700Y-118884700D01*
X166263950Y-118884700D01*
X166136950Y-118757700D01*
X165661391Y-118757700D01*
X165428002Y-118854373D01*
X165397675Y-118884700D01*
X165311450Y-118884700D01*
X165152700Y-119043450D01*
X95100000Y-119043450D01*
X95100000Y-117996390D01*
X165152700Y-117996390D01*
X165152700Y-118471950D01*
X165311450Y-118630700D01*
X166295700Y-118630700D01*
X166295700Y-117996390D01*
X166422700Y-117996390D01*
X166422700Y-118471950D01*
X166549700Y-118598950D01*
X166549700Y-118630700D01*
X167565700Y-118630700D01*
X167565700Y-118598950D01*
X167692700Y-118471950D01*
X167819700Y-118598950D01*
X167819700Y-118630700D01*
X168835700Y-118630700D01*
X168835700Y-118598950D01*
X168962700Y-118471950D01*
X168962700Y-117996390D01*
X168866027Y-117763001D01*
X168835700Y-117732674D01*
X168835700Y-117646450D01*
X169089700Y-117646450D01*
X169089700Y-118630700D01*
X170073950Y-118630700D01*
X170232700Y-118471950D01*
X170232700Y-117996390D01*
X170136027Y-117763001D01*
X169957398Y-117584373D01*
X169724009Y-117487700D01*
X169248450Y-117487700D01*
X169089700Y-117646450D01*
X168835700Y-117646450D01*
X168676950Y-117487700D01*
X167978450Y-117487700D01*
X167819700Y-117646450D01*
X167819700Y-117732674D01*
X167789373Y-117763001D01*
X167692700Y-117996390D01*
X167596027Y-117763001D01*
X167565700Y-117732674D01*
X167565700Y-117646450D01*
X167406950Y-117487700D01*
X166708450Y-117487700D01*
X166549700Y-117646450D01*
X166549700Y-117732674D01*
X166519373Y-117763001D01*
X166422700Y-117996390D01*
X166295700Y-117996390D01*
X166295700Y-117646450D01*
X166136950Y-117487700D01*
X165661391Y-117487700D01*
X165428002Y-117584373D01*
X165249373Y-117763001D01*
X165152700Y-117996390D01*
X95100000Y-117996390D01*
X95100000Y-114153950D01*
X96796600Y-114153950D01*
X96796600Y-114494509D01*
X96893273Y-114727898D01*
X97071901Y-114906527D01*
X97305290Y-115003200D01*
X97645850Y-115003200D01*
X97804600Y-114844450D01*
X97804600Y-113995200D01*
X96955350Y-113995200D01*
X96796600Y-114153950D01*
X95100000Y-114153950D01*
X95100000Y-113241891D01*
X96796600Y-113241891D01*
X96796600Y-113582450D01*
X96955350Y-113741200D01*
X97804600Y-113741200D01*
X97804600Y-112891950D01*
X98058600Y-112891950D01*
X98058600Y-113741200D01*
X98078600Y-113741200D01*
X98078600Y-113785636D01*
X98066600Y-113845964D01*
X98066600Y-113890436D01*
X98078600Y-113950764D01*
X98078600Y-113995200D01*
X98058600Y-113995200D01*
X98058600Y-114844450D01*
X98217350Y-115003200D01*
X98557910Y-115003200D01*
X98746418Y-114925117D01*
X98767254Y-114939039D01*
X99201600Y-115025436D01*
X99635946Y-114939039D01*
X100004166Y-114693002D01*
X100250203Y-114324782D01*
X100336600Y-113890436D01*
X100336600Y-113845964D01*
X100250203Y-113411618D01*
X100004166Y-113043398D01*
X99635946Y-112797361D01*
X99201600Y-112710964D01*
X98767254Y-112797361D01*
X98746418Y-112811283D01*
X98557910Y-112733200D01*
X98217350Y-112733200D01*
X98058600Y-112891950D01*
X97804600Y-112891950D01*
X97645850Y-112733200D01*
X97305290Y-112733200D01*
X97071901Y-112829873D01*
X96893273Y-113008502D01*
X96796600Y-113241891D01*
X95100000Y-113241891D01*
X95100000Y-111105950D01*
X96796600Y-111105950D01*
X96796600Y-111446509D01*
X96893273Y-111679898D01*
X97071901Y-111858527D01*
X97305290Y-111955200D01*
X97645850Y-111955200D01*
X97804600Y-111796450D01*
X97804600Y-110947200D01*
X96955350Y-110947200D01*
X96796600Y-111105950D01*
X95100000Y-111105950D01*
X95100000Y-110193891D01*
X96796600Y-110193891D01*
X96796600Y-110534450D01*
X96955350Y-110693200D01*
X97804600Y-110693200D01*
X97804600Y-109843950D01*
X98058600Y-109843950D01*
X98058600Y-110693200D01*
X98078600Y-110693200D01*
X98078600Y-110737636D01*
X98066600Y-110797964D01*
X98066600Y-110842436D01*
X98078600Y-110902764D01*
X98078600Y-110947200D01*
X98058600Y-110947200D01*
X98058600Y-111796450D01*
X98217350Y-111955200D01*
X98557910Y-111955200D01*
X98746418Y-111877117D01*
X98767254Y-111891039D01*
X99201600Y-111977436D01*
X99635946Y-111891039D01*
X100004166Y-111645002D01*
X100250203Y-111276782D01*
X100336600Y-110842436D01*
X100336600Y-110797964D01*
X100311972Y-110674150D01*
X122750320Y-110674150D01*
X122750320Y-111014709D01*
X122846993Y-111248098D01*
X123025621Y-111426727D01*
X123259010Y-111523400D01*
X123599570Y-111523400D01*
X123758320Y-111364650D01*
X123758320Y-110515400D01*
X122909070Y-110515400D01*
X122750320Y-110674150D01*
X100311972Y-110674150D01*
X100250203Y-110363618D01*
X100004166Y-109995398D01*
X99654998Y-109762091D01*
X122750320Y-109762091D01*
X122750320Y-110102650D01*
X122909070Y-110261400D01*
X123758320Y-110261400D01*
X123758320Y-109412150D01*
X124012320Y-109412150D01*
X124012320Y-110261400D01*
X124032320Y-110261400D01*
X124032320Y-110305836D01*
X124020320Y-110366164D01*
X124020320Y-110410636D01*
X124032320Y-110470964D01*
X124032320Y-110515400D01*
X124012320Y-110515400D01*
X124012320Y-111364650D01*
X124171070Y-111523400D01*
X124511630Y-111523400D01*
X124700138Y-111445317D01*
X124720974Y-111459239D01*
X125155320Y-111545636D01*
X125589666Y-111459239D01*
X125957886Y-111213202D01*
X126203923Y-110844982D01*
X126290320Y-110410636D01*
X126290320Y-110366164D01*
X126203923Y-109931818D01*
X125957886Y-109563598D01*
X125589666Y-109317561D01*
X125155320Y-109231164D01*
X124720974Y-109317561D01*
X124700138Y-109331483D01*
X124511630Y-109253400D01*
X124171070Y-109253400D01*
X124012320Y-109412150D01*
X123758320Y-109412150D01*
X123599570Y-109253400D01*
X123259010Y-109253400D01*
X123025621Y-109350073D01*
X122846993Y-109528702D01*
X122750320Y-109762091D01*
X99654998Y-109762091D01*
X99635946Y-109749361D01*
X99201600Y-109662964D01*
X98767254Y-109749361D01*
X98746418Y-109763283D01*
X98557910Y-109685200D01*
X98217350Y-109685200D01*
X98058600Y-109843950D01*
X97804600Y-109843950D01*
X97645850Y-109685200D01*
X97305290Y-109685200D01*
X97071901Y-109781873D01*
X96893273Y-109960502D01*
X96796600Y-110193891D01*
X95100000Y-110193891D01*
X95100000Y-107930950D01*
X96796600Y-107930950D01*
X96796600Y-108271509D01*
X96893273Y-108504898D01*
X97071901Y-108683527D01*
X97305290Y-108780200D01*
X97645850Y-108780200D01*
X97804600Y-108621450D01*
X97804600Y-107772200D01*
X96955350Y-107772200D01*
X96796600Y-107930950D01*
X95100000Y-107930950D01*
X95100000Y-107018891D01*
X96796600Y-107018891D01*
X96796600Y-107359450D01*
X96955350Y-107518200D01*
X97804600Y-107518200D01*
X97804600Y-106668950D01*
X98058600Y-106668950D01*
X98058600Y-107518200D01*
X98078600Y-107518200D01*
X98078600Y-107562636D01*
X98066600Y-107622964D01*
X98066600Y-107667436D01*
X98078600Y-107727764D01*
X98078600Y-107772200D01*
X98058600Y-107772200D01*
X98058600Y-108621450D01*
X98217350Y-108780200D01*
X98557910Y-108780200D01*
X98746418Y-108702117D01*
X98767254Y-108716039D01*
X99201600Y-108802436D01*
X99635946Y-108716039D01*
X100004166Y-108470002D01*
X100250203Y-108101782D01*
X100336600Y-107667436D01*
X100336600Y-107622964D01*
X100250203Y-107188618D01*
X100004166Y-106820398D01*
X99635946Y-106574361D01*
X99201600Y-106487964D01*
X98767254Y-106574361D01*
X98746418Y-106588283D01*
X98557910Y-106510200D01*
X98217350Y-106510200D01*
X98058600Y-106668950D01*
X97804600Y-106668950D01*
X97645850Y-106510200D01*
X97305290Y-106510200D01*
X97071901Y-106606873D01*
X96893273Y-106785502D01*
X96796600Y-107018891D01*
X95100000Y-107018891D01*
X95100000Y-104755950D01*
X96796600Y-104755950D01*
X96796600Y-105096509D01*
X96893273Y-105329898D01*
X97071901Y-105508527D01*
X97305290Y-105605200D01*
X97645850Y-105605200D01*
X97804600Y-105446450D01*
X97804600Y-104597200D01*
X96955350Y-104597200D01*
X96796600Y-104755950D01*
X95100000Y-104755950D01*
X95100000Y-103843891D01*
X96796600Y-103843891D01*
X96796600Y-104184450D01*
X96955350Y-104343200D01*
X97804600Y-104343200D01*
X97804600Y-103493950D01*
X98058600Y-103493950D01*
X98058600Y-104343200D01*
X98078600Y-104343200D01*
X98078600Y-104387636D01*
X98066600Y-104447964D01*
X98066600Y-104492436D01*
X98078600Y-104552764D01*
X98078600Y-104597200D01*
X98058600Y-104597200D01*
X98058600Y-105446450D01*
X98217350Y-105605200D01*
X98557910Y-105605200D01*
X98746418Y-105527117D01*
X98767254Y-105541039D01*
X99201600Y-105627436D01*
X99635946Y-105541039D01*
X100004166Y-105295002D01*
X100250203Y-104926782D01*
X100336600Y-104492436D01*
X100336600Y-104451150D01*
X162422200Y-104451150D01*
X162422200Y-104926710D01*
X162518873Y-105160099D01*
X162697502Y-105338727D01*
X162930891Y-105435400D01*
X163406450Y-105435400D01*
X163565200Y-105276650D01*
X163565200Y-104451150D01*
X163692200Y-104451150D01*
X163692200Y-104926710D01*
X163788873Y-105160099D01*
X163819200Y-105190426D01*
X163819200Y-105276650D01*
X163977950Y-105435400D01*
X164676450Y-105435400D01*
X164835200Y-105276650D01*
X164835200Y-105190426D01*
X164865527Y-105160099D01*
X164962200Y-104926710D01*
X165058873Y-105160099D01*
X165089200Y-105190426D01*
X165089200Y-105276650D01*
X165247950Y-105435400D01*
X165946450Y-105435400D01*
X166105200Y-105276650D01*
X166105200Y-105190426D01*
X166135527Y-105160099D01*
X166232200Y-104926710D01*
X166232200Y-104451150D01*
X166105200Y-104324150D01*
X166105200Y-104292400D01*
X166359200Y-104292400D01*
X166359200Y-105276650D01*
X166517950Y-105435400D01*
X166993509Y-105435400D01*
X167226898Y-105338727D01*
X167405527Y-105160099D01*
X167502200Y-104926710D01*
X167502200Y-104451150D01*
X167343450Y-104292400D01*
X166359200Y-104292400D01*
X166105200Y-104292400D01*
X165089200Y-104292400D01*
X165089200Y-104324150D01*
X164962200Y-104451150D01*
X164835200Y-104324150D01*
X164835200Y-104292400D01*
X163819200Y-104292400D01*
X163819200Y-104324150D01*
X163692200Y-104451150D01*
X163565200Y-104451150D01*
X163565200Y-104292400D01*
X162580950Y-104292400D01*
X162422200Y-104451150D01*
X100336600Y-104451150D01*
X100336600Y-104447964D01*
X100250203Y-104013618D01*
X100004166Y-103645398D01*
X99635946Y-103399361D01*
X99201600Y-103312964D01*
X98767254Y-103399361D01*
X98746418Y-103413283D01*
X98557910Y-103335200D01*
X98217350Y-103335200D01*
X98058600Y-103493950D01*
X97804600Y-103493950D01*
X97645850Y-103335200D01*
X97305290Y-103335200D01*
X97071901Y-103431873D01*
X96893273Y-103610502D01*
X96796600Y-103843891D01*
X95100000Y-103843891D01*
X95100000Y-103181150D01*
X162422200Y-103181150D01*
X162422200Y-103879650D01*
X162580950Y-104038400D01*
X162667175Y-104038400D01*
X162697502Y-104068727D01*
X162930891Y-104165400D01*
X163406450Y-104165400D01*
X163533450Y-104038400D01*
X163565200Y-104038400D01*
X163565200Y-103181150D01*
X163692200Y-103181150D01*
X163692200Y-103879650D01*
X163819200Y-104006650D01*
X163819200Y-104038400D01*
X163850950Y-104038400D01*
X163977950Y-104165400D01*
X164676450Y-104165400D01*
X164803450Y-104038400D01*
X164835200Y-104038400D01*
X164835200Y-104006650D01*
X164962200Y-103879650D01*
X165089200Y-104006650D01*
X165089200Y-104038400D01*
X165120950Y-104038400D01*
X165247950Y-104165400D01*
X165946450Y-104165400D01*
X166073450Y-104038400D01*
X166105200Y-104038400D01*
X166105200Y-104006650D01*
X166232200Y-103879650D01*
X166232200Y-103181150D01*
X166105200Y-103054150D01*
X166105200Y-103022400D01*
X166359200Y-103022400D01*
X166359200Y-104038400D01*
X166390950Y-104038400D01*
X166517950Y-104165400D01*
X166993509Y-104165400D01*
X167226898Y-104068727D01*
X167257225Y-104038400D01*
X167343450Y-104038400D01*
X167502200Y-103879650D01*
X167502200Y-103181150D01*
X167343450Y-103022400D01*
X167257225Y-103022400D01*
X167226898Y-102992073D01*
X166993509Y-102895400D01*
X166517950Y-102895400D01*
X166390950Y-103022400D01*
X166359200Y-103022400D01*
X166105200Y-103022400D01*
X166073450Y-103022400D01*
X165946450Y-102895400D01*
X165247950Y-102895400D01*
X165120950Y-103022400D01*
X165089200Y-103022400D01*
X165089200Y-103054150D01*
X164962200Y-103181150D01*
X164835200Y-103054150D01*
X164835200Y-103022400D01*
X164803450Y-103022400D01*
X164676450Y-102895400D01*
X163977950Y-102895400D01*
X163850950Y-103022400D01*
X163819200Y-103022400D01*
X163819200Y-103054150D01*
X163692200Y-103181150D01*
X163565200Y-103181150D01*
X163565200Y-103022400D01*
X163533450Y-103022400D01*
X163406450Y-102895400D01*
X162930891Y-102895400D01*
X162697502Y-102992073D01*
X162667175Y-103022400D01*
X162580950Y-103022400D01*
X162422200Y-103181150D01*
X95100000Y-103181150D01*
X95100000Y-101611430D01*
X96811840Y-101611430D01*
X96811840Y-101951989D01*
X96908513Y-102185378D01*
X97087141Y-102364007D01*
X97320530Y-102460680D01*
X97661090Y-102460680D01*
X97819840Y-102301930D01*
X97819840Y-101452680D01*
X96970590Y-101452680D01*
X96811840Y-101611430D01*
X95100000Y-101611430D01*
X95100000Y-100699371D01*
X96811840Y-100699371D01*
X96811840Y-101039930D01*
X96970590Y-101198680D01*
X97819840Y-101198680D01*
X97819840Y-100349430D01*
X98073840Y-100349430D01*
X98073840Y-101198680D01*
X98093840Y-101198680D01*
X98093840Y-101243116D01*
X98081840Y-101303444D01*
X98081840Y-101347916D01*
X98093840Y-101408244D01*
X98093840Y-101452680D01*
X98073840Y-101452680D01*
X98073840Y-102301930D01*
X98232590Y-102460680D01*
X98573150Y-102460680D01*
X98761658Y-102382597D01*
X98782494Y-102396519D01*
X99216840Y-102482916D01*
X99651186Y-102396519D01*
X100019406Y-102150482D01*
X100030358Y-102134090D01*
X162422200Y-102134090D01*
X162422200Y-102609650D01*
X162580950Y-102768400D01*
X163565200Y-102768400D01*
X163565200Y-102134090D01*
X163692200Y-102134090D01*
X163692200Y-102609650D01*
X163819200Y-102736650D01*
X163819200Y-102768400D01*
X164835200Y-102768400D01*
X164835200Y-102736650D01*
X164962200Y-102609650D01*
X165089200Y-102736650D01*
X165089200Y-102768400D01*
X166105200Y-102768400D01*
X166105200Y-102736650D01*
X166232200Y-102609650D01*
X166232200Y-102134090D01*
X166135527Y-101900701D01*
X166105200Y-101870374D01*
X166105200Y-101784150D01*
X166359200Y-101784150D01*
X166359200Y-102768400D01*
X167343450Y-102768400D01*
X167502200Y-102609650D01*
X167502200Y-102134090D01*
X167405527Y-101900701D01*
X167226898Y-101722073D01*
X166993509Y-101625400D01*
X166517950Y-101625400D01*
X166359200Y-101784150D01*
X166105200Y-101784150D01*
X165946450Y-101625400D01*
X165247950Y-101625400D01*
X165089200Y-101784150D01*
X165089200Y-101870374D01*
X165058873Y-101900701D01*
X164962200Y-102134090D01*
X164865527Y-101900701D01*
X164835200Y-101870374D01*
X164835200Y-101784150D01*
X164676450Y-101625400D01*
X163977950Y-101625400D01*
X163819200Y-101784150D01*
X163819200Y-101870374D01*
X163788873Y-101900701D01*
X163692200Y-102134090D01*
X163565200Y-102134090D01*
X163565200Y-101784150D01*
X163406450Y-101625400D01*
X162930891Y-101625400D01*
X162697502Y-101722073D01*
X162518873Y-101900701D01*
X162422200Y-102134090D01*
X100030358Y-102134090D01*
X100265443Y-101782262D01*
X100351840Y-101347916D01*
X100351840Y-101303444D01*
X100265443Y-100869098D01*
X100019406Y-100500878D01*
X99651186Y-100254841D01*
X99216840Y-100168444D01*
X98782494Y-100254841D01*
X98761658Y-100268763D01*
X98573150Y-100190680D01*
X98232590Y-100190680D01*
X98073840Y-100349430D01*
X97819840Y-100349430D01*
X97661090Y-100190680D01*
X97320530Y-100190680D01*
X97087141Y-100287353D01*
X96908513Y-100465982D01*
X96811840Y-100699371D01*
X95100000Y-100699371D01*
X95100000Y-98482150D01*
X110707800Y-98482150D01*
X110707800Y-98957710D01*
X110804473Y-99191099D01*
X110983102Y-99369727D01*
X111216491Y-99466400D01*
X111692050Y-99466400D01*
X111850800Y-99307650D01*
X111850800Y-98482150D01*
X111977800Y-98482150D01*
X111977800Y-98957710D01*
X112074473Y-99191099D01*
X112104800Y-99221426D01*
X112104800Y-99307650D01*
X112263550Y-99466400D01*
X112962050Y-99466400D01*
X113120800Y-99307650D01*
X113120800Y-99221426D01*
X113151127Y-99191099D01*
X113247800Y-98957710D01*
X113344473Y-99191099D01*
X113374800Y-99221426D01*
X113374800Y-99307650D01*
X113533550Y-99466400D01*
X114232050Y-99466400D01*
X114390800Y-99307650D01*
X114390800Y-99221426D01*
X114421127Y-99191099D01*
X114517800Y-98957710D01*
X114517800Y-98482150D01*
X114390800Y-98355150D01*
X114390800Y-98323400D01*
X114644800Y-98323400D01*
X114644800Y-99307650D01*
X114803550Y-99466400D01*
X115279109Y-99466400D01*
X115512498Y-99369727D01*
X115691127Y-99191099D01*
X115787800Y-98957710D01*
X115787800Y-98482150D01*
X115660800Y-98355150D01*
X162447600Y-98355150D01*
X162447600Y-98830710D01*
X162544273Y-99064099D01*
X162722902Y-99242727D01*
X162956291Y-99339400D01*
X163431850Y-99339400D01*
X163590600Y-99180650D01*
X163590600Y-98355150D01*
X163717600Y-98355150D01*
X163717600Y-98830710D01*
X163814273Y-99064099D01*
X163844600Y-99094426D01*
X163844600Y-99180650D01*
X164003350Y-99339400D01*
X164701850Y-99339400D01*
X164860600Y-99180650D01*
X164860600Y-99094426D01*
X164890927Y-99064099D01*
X164987600Y-98830710D01*
X165084273Y-99064099D01*
X165114600Y-99094426D01*
X165114600Y-99180650D01*
X165273350Y-99339400D01*
X165971850Y-99339400D01*
X166130600Y-99180650D01*
X166130600Y-99094426D01*
X166160927Y-99064099D01*
X166257600Y-98830710D01*
X166257600Y-98355150D01*
X166130600Y-98228150D01*
X166130600Y-98196400D01*
X166384600Y-98196400D01*
X166384600Y-99180650D01*
X166543350Y-99339400D01*
X167018909Y-99339400D01*
X167252298Y-99242727D01*
X167430927Y-99064099D01*
X167527600Y-98830710D01*
X167527600Y-98355150D01*
X167368850Y-98196400D01*
X166384600Y-98196400D01*
X166130600Y-98196400D01*
X165114600Y-98196400D01*
X165114600Y-98228150D01*
X164987600Y-98355150D01*
X164860600Y-98228150D01*
X164860600Y-98196400D01*
X163844600Y-98196400D01*
X163844600Y-98228150D01*
X163717600Y-98355150D01*
X163590600Y-98355150D01*
X163590600Y-98196400D01*
X162606350Y-98196400D01*
X162447600Y-98355150D01*
X115660800Y-98355150D01*
X115629050Y-98323400D01*
X114644800Y-98323400D01*
X114390800Y-98323400D01*
X113374800Y-98323400D01*
X113374800Y-98355150D01*
X113247800Y-98482150D01*
X113120800Y-98355150D01*
X113120800Y-98323400D01*
X112104800Y-98323400D01*
X112104800Y-98355150D01*
X111977800Y-98482150D01*
X111850800Y-98482150D01*
X111850800Y-98323400D01*
X110866550Y-98323400D01*
X110707800Y-98482150D01*
X95100000Y-98482150D01*
X95100000Y-97212150D01*
X110707800Y-97212150D01*
X110707800Y-97910650D01*
X110866550Y-98069400D01*
X110952775Y-98069400D01*
X110983102Y-98099727D01*
X111216491Y-98196400D01*
X111692050Y-98196400D01*
X111819050Y-98069400D01*
X111850800Y-98069400D01*
X111850800Y-97212150D01*
X111977800Y-97212150D01*
X111977800Y-97910650D01*
X112104800Y-98037650D01*
X112104800Y-98069400D01*
X112136550Y-98069400D01*
X112263550Y-98196400D01*
X112962050Y-98196400D01*
X113089050Y-98069400D01*
X113120800Y-98069400D01*
X113120800Y-98037650D01*
X113247800Y-97910650D01*
X113374800Y-98037650D01*
X113374800Y-98069400D01*
X113406550Y-98069400D01*
X113533550Y-98196400D01*
X114232050Y-98196400D01*
X114359050Y-98069400D01*
X114390800Y-98069400D01*
X114390800Y-98037650D01*
X114517800Y-97910650D01*
X114517800Y-97212150D01*
X114390800Y-97085150D01*
X114390800Y-97053400D01*
X114644800Y-97053400D01*
X114644800Y-98069400D01*
X114676550Y-98069400D01*
X114803550Y-98196400D01*
X115279109Y-98196400D01*
X115512498Y-98099727D01*
X115542825Y-98069400D01*
X115629050Y-98069400D01*
X115787800Y-97910650D01*
X115787800Y-97212150D01*
X115660800Y-97085150D01*
X162447600Y-97085150D01*
X162447600Y-97783650D01*
X162606350Y-97942400D01*
X162692575Y-97942400D01*
X162722902Y-97972727D01*
X162956291Y-98069400D01*
X163431850Y-98069400D01*
X163558850Y-97942400D01*
X163590600Y-97942400D01*
X163590600Y-97085150D01*
X163717600Y-97085150D01*
X163717600Y-97783650D01*
X163844600Y-97910650D01*
X163844600Y-97942400D01*
X163876350Y-97942400D01*
X164003350Y-98069400D01*
X164701850Y-98069400D01*
X164828850Y-97942400D01*
X164860600Y-97942400D01*
X164860600Y-97910650D01*
X164987600Y-97783650D01*
X165114600Y-97910650D01*
X165114600Y-97942400D01*
X165146350Y-97942400D01*
X165273350Y-98069400D01*
X165971850Y-98069400D01*
X166098850Y-97942400D01*
X166130600Y-97942400D01*
X166130600Y-97910650D01*
X166257600Y-97783650D01*
X166257600Y-97085150D01*
X166130600Y-96958150D01*
X166130600Y-96926400D01*
X166384600Y-96926400D01*
X166384600Y-97942400D01*
X166416350Y-97942400D01*
X166543350Y-98069400D01*
X167018909Y-98069400D01*
X167252298Y-97972727D01*
X167282625Y-97942400D01*
X167368850Y-97942400D01*
X167527600Y-97783650D01*
X167527600Y-97085150D01*
X167368850Y-96926400D01*
X167282625Y-96926400D01*
X167252298Y-96896073D01*
X167018909Y-96799400D01*
X166543350Y-96799400D01*
X166416350Y-96926400D01*
X166384600Y-96926400D01*
X166130600Y-96926400D01*
X166098850Y-96926400D01*
X165971850Y-96799400D01*
X165273350Y-96799400D01*
X165146350Y-96926400D01*
X165114600Y-96926400D01*
X165114600Y-96958150D01*
X164987600Y-97085150D01*
X164860600Y-96958150D01*
X164860600Y-96926400D01*
X164828850Y-96926400D01*
X164701850Y-96799400D01*
X164003350Y-96799400D01*
X163876350Y-96926400D01*
X163844600Y-96926400D01*
X163844600Y-96958150D01*
X163717600Y-97085150D01*
X163590600Y-97085150D01*
X163590600Y-96926400D01*
X163558850Y-96926400D01*
X163431850Y-96799400D01*
X162956291Y-96799400D01*
X162722902Y-96896073D01*
X162692575Y-96926400D01*
X162606350Y-96926400D01*
X162447600Y-97085150D01*
X115660800Y-97085150D01*
X115629050Y-97053400D01*
X115542825Y-97053400D01*
X115512498Y-97023073D01*
X115279109Y-96926400D01*
X114803550Y-96926400D01*
X114676550Y-97053400D01*
X114644800Y-97053400D01*
X114390800Y-97053400D01*
X114359050Y-97053400D01*
X114232050Y-96926400D01*
X113533550Y-96926400D01*
X113406550Y-97053400D01*
X113374800Y-97053400D01*
X113374800Y-97085150D01*
X113247800Y-97212150D01*
X113120800Y-97085150D01*
X113120800Y-97053400D01*
X113089050Y-97053400D01*
X112962050Y-96926400D01*
X112263550Y-96926400D01*
X112136550Y-97053400D01*
X112104800Y-97053400D01*
X112104800Y-97085150D01*
X111977800Y-97212150D01*
X111850800Y-97212150D01*
X111850800Y-97053400D01*
X111819050Y-97053400D01*
X111692050Y-96926400D01*
X111216491Y-96926400D01*
X110983102Y-97023073D01*
X110952775Y-97053400D01*
X110866550Y-97053400D01*
X110707800Y-97212150D01*
X95100000Y-97212150D01*
X95100000Y-96165090D01*
X110707800Y-96165090D01*
X110707800Y-96640650D01*
X110866550Y-96799400D01*
X111850800Y-96799400D01*
X111850800Y-96165090D01*
X111977800Y-96165090D01*
X111977800Y-96640650D01*
X112104800Y-96767650D01*
X112104800Y-96799400D01*
X113120800Y-96799400D01*
X113120800Y-96767650D01*
X113247800Y-96640650D01*
X113374800Y-96767650D01*
X113374800Y-96799400D01*
X114390800Y-96799400D01*
X114390800Y-96767650D01*
X114517800Y-96640650D01*
X114517800Y-96165090D01*
X114421127Y-95931701D01*
X114390800Y-95901374D01*
X114390800Y-95815150D01*
X114644800Y-95815150D01*
X114644800Y-96799400D01*
X115629050Y-96799400D01*
X115787800Y-96640650D01*
X115787800Y-96165090D01*
X115735195Y-96038090D01*
X162447600Y-96038090D01*
X162447600Y-96513650D01*
X162606350Y-96672400D01*
X163590600Y-96672400D01*
X163590600Y-96038090D01*
X163717600Y-96038090D01*
X163717600Y-96513650D01*
X163844600Y-96640650D01*
X163844600Y-96672400D01*
X164860600Y-96672400D01*
X164860600Y-96640650D01*
X164987600Y-96513650D01*
X165114600Y-96640650D01*
X165114600Y-96672400D01*
X166130600Y-96672400D01*
X166130600Y-96640650D01*
X166257600Y-96513650D01*
X166257600Y-96038090D01*
X166160927Y-95804701D01*
X166130600Y-95774374D01*
X166130600Y-95688150D01*
X166384600Y-95688150D01*
X166384600Y-96672400D01*
X167368850Y-96672400D01*
X167527600Y-96513650D01*
X167527600Y-96038090D01*
X167430927Y-95804701D01*
X167252298Y-95626073D01*
X167018909Y-95529400D01*
X166543350Y-95529400D01*
X166384600Y-95688150D01*
X166130600Y-95688150D01*
X165971850Y-95529400D01*
X165273350Y-95529400D01*
X165114600Y-95688150D01*
X165114600Y-95774374D01*
X165084273Y-95804701D01*
X164987600Y-96038090D01*
X164890927Y-95804701D01*
X164860600Y-95774374D01*
X164860600Y-95688150D01*
X164701850Y-95529400D01*
X164003350Y-95529400D01*
X163844600Y-95688150D01*
X163844600Y-95774374D01*
X163814273Y-95804701D01*
X163717600Y-96038090D01*
X163590600Y-96038090D01*
X163590600Y-95688150D01*
X163431850Y-95529400D01*
X162956291Y-95529400D01*
X162722902Y-95626073D01*
X162544273Y-95804701D01*
X162447600Y-96038090D01*
X115735195Y-96038090D01*
X115691127Y-95931701D01*
X115512498Y-95753073D01*
X115279109Y-95656400D01*
X114803550Y-95656400D01*
X114644800Y-95815150D01*
X114390800Y-95815150D01*
X114232050Y-95656400D01*
X113533550Y-95656400D01*
X113374800Y-95815150D01*
X113374800Y-95901374D01*
X113344473Y-95931701D01*
X113247800Y-96165090D01*
X113151127Y-95931701D01*
X113120800Y-95901374D01*
X113120800Y-95815150D01*
X112962050Y-95656400D01*
X112263550Y-95656400D01*
X112104800Y-95815150D01*
X112104800Y-95901374D01*
X112074473Y-95931701D01*
X111977800Y-96165090D01*
X111850800Y-96165090D01*
X111850800Y-95815150D01*
X111692050Y-95656400D01*
X111216491Y-95656400D01*
X110983102Y-95753073D01*
X110804473Y-95931701D01*
X110707800Y-96165090D01*
X95100000Y-96165090D01*
X95100000Y-92386150D01*
X110733200Y-92386150D01*
X110733200Y-92861710D01*
X110829873Y-93095099D01*
X111008502Y-93273727D01*
X111241891Y-93370400D01*
X111717450Y-93370400D01*
X111876200Y-93211650D01*
X111876200Y-92386150D01*
X112003200Y-92386150D01*
X112003200Y-92861710D01*
X112099873Y-93095099D01*
X112130200Y-93125426D01*
X112130200Y-93211650D01*
X112288950Y-93370400D01*
X112987450Y-93370400D01*
X113146200Y-93211650D01*
X113146200Y-93125426D01*
X113176527Y-93095099D01*
X113273200Y-92861710D01*
X113369873Y-93095099D01*
X113400200Y-93125426D01*
X113400200Y-93211650D01*
X113558950Y-93370400D01*
X114257450Y-93370400D01*
X114416200Y-93211650D01*
X114416200Y-93125426D01*
X114446527Y-93095099D01*
X114543200Y-92861710D01*
X114543200Y-92386150D01*
X114416200Y-92259150D01*
X114416200Y-92227400D01*
X114670200Y-92227400D01*
X114670200Y-93211650D01*
X114828950Y-93370400D01*
X115304509Y-93370400D01*
X115537898Y-93273727D01*
X115716527Y-93095099D01*
X115813200Y-92861710D01*
X115813200Y-92386150D01*
X115654450Y-92227400D01*
X114670200Y-92227400D01*
X114416200Y-92227400D01*
X113400200Y-92227400D01*
X113400200Y-92259150D01*
X113273200Y-92386150D01*
X113146200Y-92259150D01*
X113146200Y-92227400D01*
X112130200Y-92227400D01*
X112130200Y-92259150D01*
X112003200Y-92386150D01*
X111876200Y-92386150D01*
X111876200Y-92227400D01*
X110891950Y-92227400D01*
X110733200Y-92386150D01*
X95100000Y-92386150D01*
X95100000Y-91116150D01*
X110733200Y-91116150D01*
X110733200Y-91814650D01*
X110891950Y-91973400D01*
X110978175Y-91973400D01*
X111008502Y-92003727D01*
X111241891Y-92100400D01*
X111717450Y-92100400D01*
X111844450Y-91973400D01*
X111876200Y-91973400D01*
X111876200Y-91116150D01*
X112003200Y-91116150D01*
X112003200Y-91814650D01*
X112130200Y-91941650D01*
X112130200Y-91973400D01*
X112161950Y-91973400D01*
X112288950Y-92100400D01*
X112987450Y-92100400D01*
X113114450Y-91973400D01*
X113146200Y-91973400D01*
X113146200Y-91941650D01*
X113273200Y-91814650D01*
X113400200Y-91941650D01*
X113400200Y-91973400D01*
X113431950Y-91973400D01*
X113558950Y-92100400D01*
X114257450Y-92100400D01*
X114384450Y-91973400D01*
X114416200Y-91973400D01*
X114416200Y-91941650D01*
X114543200Y-91814650D01*
X114543200Y-91116150D01*
X114416200Y-90989150D01*
X114416200Y-90957400D01*
X114670200Y-90957400D01*
X114670200Y-91973400D01*
X114701950Y-91973400D01*
X114828950Y-92100400D01*
X115304509Y-92100400D01*
X115537898Y-92003727D01*
X115568225Y-91973400D01*
X115654450Y-91973400D01*
X115813200Y-91814650D01*
X115813200Y-91116150D01*
X115654450Y-90957400D01*
X115568225Y-90957400D01*
X115537898Y-90927073D01*
X115304509Y-90830400D01*
X114828950Y-90830400D01*
X114701950Y-90957400D01*
X114670200Y-90957400D01*
X114416200Y-90957400D01*
X114384450Y-90957400D01*
X114257450Y-90830400D01*
X113558950Y-90830400D01*
X113431950Y-90957400D01*
X113400200Y-90957400D01*
X113400200Y-90989150D01*
X113273200Y-91116150D01*
X113146200Y-90989150D01*
X113146200Y-90957400D01*
X113114450Y-90957400D01*
X112987450Y-90830400D01*
X112288950Y-90830400D01*
X112161950Y-90957400D01*
X112130200Y-90957400D01*
X112130200Y-90989150D01*
X112003200Y-91116150D01*
X111876200Y-91116150D01*
X111876200Y-90957400D01*
X111844450Y-90957400D01*
X111717450Y-90830400D01*
X111241891Y-90830400D01*
X111008502Y-90927073D01*
X110978175Y-90957400D01*
X110891950Y-90957400D01*
X110733200Y-91116150D01*
X95100000Y-91116150D01*
X95100000Y-90069090D01*
X110733200Y-90069090D01*
X110733200Y-90544650D01*
X110891950Y-90703400D01*
X111876200Y-90703400D01*
X111876200Y-90069090D01*
X112003200Y-90069090D01*
X112003200Y-90544650D01*
X112130200Y-90671650D01*
X112130200Y-90703400D01*
X113146200Y-90703400D01*
X113146200Y-90671650D01*
X113273200Y-90544650D01*
X113400200Y-90671650D01*
X113400200Y-90703400D01*
X114416200Y-90703400D01*
X114416200Y-90671650D01*
X114543200Y-90544650D01*
X114543200Y-90069090D01*
X114446527Y-89835701D01*
X114416200Y-89805374D01*
X114416200Y-89719150D01*
X114670200Y-89719150D01*
X114670200Y-90703400D01*
X115654450Y-90703400D01*
X115813200Y-90544650D01*
X115813200Y-90069090D01*
X115716527Y-89835701D01*
X115537898Y-89657073D01*
X115304509Y-89560400D01*
X114828950Y-89560400D01*
X114670200Y-89719150D01*
X114416200Y-89719150D01*
X114257450Y-89560400D01*
X113558950Y-89560400D01*
X113400200Y-89719150D01*
X113400200Y-89805374D01*
X113369873Y-89835701D01*
X113273200Y-90069090D01*
X113176527Y-89835701D01*
X113146200Y-89805374D01*
X113146200Y-89719150D01*
X112987450Y-89560400D01*
X112288950Y-89560400D01*
X112130200Y-89719150D01*
X112130200Y-89805374D01*
X112099873Y-89835701D01*
X112003200Y-90069090D01*
X111876200Y-90069090D01*
X111876200Y-89719150D01*
X111717450Y-89560400D01*
X111241891Y-89560400D01*
X111008502Y-89657073D01*
X110829873Y-89835701D01*
X110733200Y-90069090D01*
X95100000Y-90069090D01*
X95100000Y-77070000D01*
X193680000Y-77070000D01*
X193680000Y-175650000D01*
X193680000Y-175650000D01*
G37*
X193680000Y-175650000D02*
X95100000Y-175650000D01*
X95100000Y-133711950D01*
X117248300Y-133711950D01*
X117248300Y-134187509D01*
X117344973Y-134420898D01*
X117523601Y-134599527D01*
X117756990Y-134696200D01*
X118232550Y-134696200D01*
X118391300Y-134537450D01*
X118391300Y-133711950D01*
X118518300Y-133711950D01*
X118518300Y-134187509D01*
X118614973Y-134420898D01*
X118645300Y-134451225D01*
X118645300Y-134537450D01*
X118804050Y-134696200D01*
X119502550Y-134696200D01*
X119661300Y-134537450D01*
X119661300Y-134451225D01*
X119691627Y-134420898D01*
X119788300Y-134187509D01*
X119788300Y-133711950D01*
X119661300Y-133584950D01*
X119661300Y-133553200D01*
X119915300Y-133553200D01*
X119915300Y-134537450D01*
X120074050Y-134696200D01*
X120549610Y-134696200D01*
X120782999Y-134599527D01*
X120961627Y-134420898D01*
X121058300Y-134187509D01*
X121058300Y-133737350D01*
X123344300Y-133737350D01*
X123344300Y-134212909D01*
X123440973Y-134446298D01*
X123619601Y-134624927D01*
X123852990Y-134721600D01*
X124328550Y-134721600D01*
X124487300Y-134562850D01*
X124487300Y-133737350D01*
X124614300Y-133737350D01*
X124614300Y-134212909D01*
X124710973Y-134446298D01*
X124741300Y-134476625D01*
X124741300Y-134562850D01*
X124900050Y-134721600D01*
X125598550Y-134721600D01*
X125757300Y-134562850D01*
X125757300Y-134476625D01*
X125787627Y-134446298D01*
X125884300Y-134212909D01*
X125884300Y-133737350D01*
X125757300Y-133610350D01*
X125757300Y-133578600D01*
X126011300Y-133578600D01*
X126011300Y-134562850D01*
X126170050Y-134721600D01*
X126645610Y-134721600D01*
X126878999Y-134624927D01*
X127057627Y-134446298D01*
X127154300Y-134212909D01*
X127154300Y-133737350D01*
X126995550Y-133578600D01*
X126011300Y-133578600D01*
X125757300Y-133578600D01*
X124741300Y-133578600D01*
X124741300Y-133610350D01*
X124614300Y-133737350D01*
X124487300Y-133737350D01*
X124487300Y-133578600D01*
X123503050Y-133578600D01*
X123344300Y-133737350D01*
X121058300Y-133737350D01*
X121058300Y-133711950D01*
X120899550Y-133553200D01*
X119915300Y-133553200D01*
X119661300Y-133553200D01*
X118645300Y-133553200D01*
X118645300Y-133584950D01*
X118518300Y-133711950D01*
X118391300Y-133711950D01*
X118391300Y-133553200D01*
X117407050Y-133553200D01*
X117248300Y-133711950D01*
X95100000Y-133711950D01*
X95100000Y-131171950D01*
X117248300Y-131171950D01*
X117248300Y-131870450D01*
X117407050Y-132029200D01*
X117493274Y-132029200D01*
X117523601Y-132059527D01*
X117756990Y-132156200D01*
X117523601Y-132252873D01*
X117493274Y-132283200D01*
X117407050Y-132283200D01*
X117248300Y-132441950D01*
X117248300Y-133140450D01*
X117407050Y-133299200D01*
X117493274Y-133299200D01*
X117523601Y-133329527D01*
X117756990Y-133426200D01*
X118232550Y-133426200D01*
X118359550Y-133299200D01*
X118391300Y-133299200D01*
X118391300Y-132283200D01*
X118359550Y-132283200D01*
X118232550Y-132156200D01*
X118359550Y-132029200D01*
X118391300Y-132029200D01*
X118391300Y-131171950D01*
X118518300Y-131171950D01*
X118518300Y-131870450D01*
X118645300Y-131997450D01*
X118645300Y-132029200D01*
X118677050Y-132029200D01*
X118804050Y-132156200D01*
X118677050Y-132283200D01*
X118645300Y-132283200D01*
X118645300Y-132314950D01*
X118518300Y-132441950D01*
X118518300Y-133140450D01*
X118645300Y-133267450D01*
X118645300Y-133299200D01*
X118677050Y-133299200D01*
X118804050Y-133426200D01*
X119502550Y-133426200D01*
X119629550Y-133299200D01*
X119661300Y-133299200D01*
X119661300Y-133267450D01*
X119788300Y-133140450D01*
X119788300Y-132441950D01*
X119661300Y-132314950D01*
X119661300Y-132283200D01*
X119629550Y-132283200D01*
X119502550Y-132156200D01*
X119629550Y-132029200D01*
X119661300Y-132029200D01*
X119661300Y-131997450D01*
X119788300Y-131870450D01*
X119788300Y-131171950D01*
X119661300Y-131044950D01*
X119661300Y-131013200D01*
X119915300Y-131013200D01*
X119915300Y-132029200D01*
X119947050Y-132029200D01*
X120074050Y-132156200D01*
X119947050Y-132283200D01*
X119915300Y-132283200D01*
X119915300Y-133299200D01*
X119947050Y-133299200D01*
X120074050Y-133426200D01*
X120549610Y-133426200D01*
X120782999Y-133329527D01*
X120813326Y-133299200D01*
X120899550Y-133299200D01*
X121058300Y-133140450D01*
X121058300Y-132441950D01*
X120899550Y-132283200D01*
X120813326Y-132283200D01*
X120782999Y-132252873D01*
X120549610Y-132156200D01*
X120782999Y-132059527D01*
X120813326Y-132029200D01*
X120899550Y-132029200D01*
X121058300Y-131870450D01*
X121058300Y-131197350D01*
X123344300Y-131197350D01*
X123344300Y-131895850D01*
X123503050Y-132054600D01*
X123589274Y-132054600D01*
X123619601Y-132084927D01*
X123852990Y-132181600D01*
X123619601Y-132278273D01*
X123589274Y-132308600D01*
X123503050Y-132308600D01*
X123344300Y-132467350D01*
X123344300Y-133165850D01*
X123503050Y-133324600D01*
X123589274Y-133324600D01*
X123619601Y-133354927D01*
X123852990Y-133451600D01*
X124328550Y-133451600D01*
X124455550Y-133324600D01*
X124487300Y-133324600D01*
X124487300Y-132308600D01*
X124455550Y-132308600D01*
X124328550Y-132181600D01*
X124455550Y-132054600D01*
X124487300Y-132054600D01*
X124487300Y-131197350D01*
X124614300Y-131197350D01*
X124614300Y-131895850D01*
X124741300Y-132022850D01*
X124741300Y-132054600D01*
X124773050Y-132054600D01*
X124900050Y-132181600D01*
X124773050Y-132308600D01*
X124741300Y-132308600D01*
X124741300Y-132340350D01*
X124614300Y-132467350D01*
X124614300Y-133165850D01*
X124741300Y-133292850D01*
X124741300Y-133324600D01*
X124773050Y-133324600D01*
X124900050Y-133451600D01*
X125598550Y-133451600D01*
X125725550Y-133324600D01*
X125757300Y-133324600D01*
X125757300Y-133292850D01*
X125884300Y-133165850D01*
X125884300Y-132467350D01*
X125757300Y-132340350D01*
X125757300Y-132308600D01*
X125725550Y-132308600D01*
X125598550Y-132181600D01*
X125725550Y-132054600D01*
X125757300Y-132054600D01*
X125757300Y-132022850D01*
X125884300Y-131895850D01*
X125884300Y-131197350D01*
X125757300Y-131070350D01*
X125757300Y-131038600D01*
X126011300Y-131038600D01*
X126011300Y-132054600D01*
X126043050Y-132054600D01*
X126170050Y-132181600D01*
X126043050Y-132308600D01*
X126011300Y-132308600D01*
X126011300Y-133324600D01*
X126043050Y-133324600D01*
X126170050Y-133451600D01*
X126645610Y-133451600D01*
X126878999Y-133354927D01*
X126909326Y-133324600D01*
X126995550Y-133324600D01*
X127154300Y-133165850D01*
X127154300Y-132467350D01*
X126995550Y-132308600D01*
X126909326Y-132308600D01*
X126878999Y-132278273D01*
X126645610Y-132181600D01*
X126878999Y-132084927D01*
X126909326Y-132054600D01*
X126995550Y-132054600D01*
X127154300Y-131895850D01*
X127154300Y-131197350D01*
X126995550Y-131038600D01*
X126909326Y-131038600D01*
X126878999Y-131008273D01*
X126645610Y-130911600D01*
X126170050Y-130911600D01*
X126043050Y-131038600D01*
X126011300Y-131038600D01*
X125757300Y-131038600D01*
X125725550Y-131038600D01*
X125598550Y-130911600D01*
X124900050Y-130911600D01*
X124773050Y-131038600D01*
X124741300Y-131038600D01*
X124741300Y-131070350D01*
X124614300Y-131197350D01*
X124487300Y-131197350D01*
X124487300Y-131038600D01*
X124455550Y-131038600D01*
X124328550Y-130911600D01*
X123852990Y-130911600D01*
X123619601Y-131008273D01*
X123589274Y-131038600D01*
X123503050Y-131038600D01*
X123344300Y-131197350D01*
X121058300Y-131197350D01*
X121058300Y-131171950D01*
X120899550Y-131013200D01*
X120813326Y-131013200D01*
X120782999Y-130982873D01*
X120549610Y-130886200D01*
X120074050Y-130886200D01*
X119947050Y-131013200D01*
X119915300Y-131013200D01*
X119661300Y-131013200D01*
X119629550Y-131013200D01*
X119502550Y-130886200D01*
X118804050Y-130886200D01*
X118677050Y-131013200D01*
X118645300Y-131013200D01*
X118645300Y-131044950D01*
X118518300Y-131171950D01*
X118391300Y-131171950D01*
X118391300Y-131013200D01*
X118359550Y-131013200D01*
X118232550Y-130886200D01*
X117756990Y-130886200D01*
X117523601Y-130982873D01*
X117493274Y-131013200D01*
X117407050Y-131013200D01*
X117248300Y-131171950D01*
X95100000Y-131171950D01*
X95100000Y-130124891D01*
X117248300Y-130124891D01*
X117248300Y-130600450D01*
X117407050Y-130759200D01*
X118391300Y-130759200D01*
X118391300Y-130124891D01*
X118518300Y-130124891D01*
X118518300Y-130600450D01*
X118645300Y-130727450D01*
X118645300Y-130759200D01*
X119661300Y-130759200D01*
X119661300Y-130727450D01*
X119788300Y-130600450D01*
X119788300Y-130124891D01*
X119691627Y-129891502D01*
X119661300Y-129861175D01*
X119661300Y-129774950D01*
X119915300Y-129774950D01*
X119915300Y-130759200D01*
X120899550Y-130759200D01*
X121058300Y-130600450D01*
X121058300Y-130150291D01*
X123344300Y-130150291D01*
X123344300Y-130625850D01*
X123503050Y-130784600D01*
X124487300Y-130784600D01*
X124487300Y-130150291D01*
X124614300Y-130150291D01*
X124614300Y-130625850D01*
X124741300Y-130752850D01*
X124741300Y-130784600D01*
X125757300Y-130784600D01*
X125757300Y-130752850D01*
X125884300Y-130625850D01*
X125884300Y-130150291D01*
X125787627Y-129916902D01*
X125757300Y-129886575D01*
X125757300Y-129800350D01*
X126011300Y-129800350D01*
X126011300Y-130784600D01*
X126995550Y-130784600D01*
X127154300Y-130625850D01*
X127154300Y-130526790D01*
X181634760Y-130526790D01*
X181634760Y-131002349D01*
X181731433Y-131235738D01*
X181910061Y-131414367D01*
X182143450Y-131511040D01*
X182619010Y-131511040D01*
X182777760Y-131352290D01*
X182777760Y-130526790D01*
X182904760Y-130526790D01*
X182904760Y-131002349D01*
X183001433Y-131235738D01*
X183031760Y-131266065D01*
X183031760Y-131352290D01*
X183190510Y-131511040D01*
X183889010Y-131511040D01*
X184047760Y-131352290D01*
X184047760Y-131266065D01*
X184078087Y-131235738D01*
X184174760Y-131002349D01*
X184174760Y-130526790D01*
X184047760Y-130399790D01*
X184047760Y-130368040D01*
X184301760Y-130368040D01*
X184301760Y-131352290D01*
X184460510Y-131511040D01*
X184936070Y-131511040D01*
X185169459Y-131414367D01*
X185348087Y-131235738D01*
X185444760Y-131002349D01*
X185444760Y-130552190D01*
X187730760Y-130552190D01*
X187730760Y-131027749D01*
X187827433Y-131261138D01*
X188006061Y-131439767D01*
X188239450Y-131536440D01*
X188715010Y-131536440D01*
X188873760Y-131377690D01*
X188873760Y-130552190D01*
X189000760Y-130552190D01*
X189000760Y-131027749D01*
X189097433Y-131261138D01*
X189127760Y-131291465D01*
X189127760Y-131377690D01*
X189286510Y-131536440D01*
X189985010Y-131536440D01*
X190143760Y-131377690D01*
X190143760Y-131291465D01*
X190174087Y-131261138D01*
X190270760Y-131027749D01*
X190270760Y-130552190D01*
X190143760Y-130425190D01*
X190143760Y-130393440D01*
X190397760Y-130393440D01*
X190397760Y-131377690D01*
X190556510Y-131536440D01*
X191032070Y-131536440D01*
X191265459Y-131439767D01*
X191444087Y-131261138D01*
X191540760Y-131027749D01*
X191540760Y-130552190D01*
X191382010Y-130393440D01*
X190397760Y-130393440D01*
X190143760Y-130393440D01*
X189127760Y-130393440D01*
X189127760Y-130425190D01*
X189000760Y-130552190D01*
X188873760Y-130552190D01*
X188873760Y-130393440D01*
X187889510Y-130393440D01*
X187730760Y-130552190D01*
X185444760Y-130552190D01*
X185444760Y-130526790D01*
X185286010Y-130368040D01*
X184301760Y-130368040D01*
X184047760Y-130368040D01*
X183031760Y-130368040D01*
X183031760Y-130399790D01*
X182904760Y-130526790D01*
X182777760Y-130526790D01*
X182777760Y-130368040D01*
X181793510Y-130368040D01*
X181634760Y-130526790D01*
X127154300Y-130526790D01*
X127154300Y-130150291D01*
X127057627Y-129916902D01*
X126878999Y-129738273D01*
X126645610Y-129641600D01*
X126170050Y-129641600D01*
X126011300Y-129800350D01*
X125757300Y-129800350D01*
X125598550Y-129641600D01*
X124900050Y-129641600D01*
X124741300Y-129800350D01*
X124741300Y-129886575D01*
X124710973Y-129916902D01*
X124614300Y-130150291D01*
X124487300Y-130150291D01*
X124487300Y-129800350D01*
X124328550Y-129641600D01*
X123852990Y-129641600D01*
X123619601Y-129738273D01*
X123440973Y-129916902D01*
X123344300Y-130150291D01*
X121058300Y-130150291D01*
X121058300Y-130124891D01*
X120961627Y-129891502D01*
X120782999Y-129712873D01*
X120549610Y-129616200D01*
X120074050Y-129616200D01*
X119915300Y-129774950D01*
X119661300Y-129774950D01*
X119502550Y-129616200D01*
X118804050Y-129616200D01*
X118645300Y-129774950D01*
X118645300Y-129861175D01*
X118614973Y-129891502D01*
X118518300Y-130124891D01*
X118391300Y-130124891D01*
X118391300Y-129774950D01*
X118232550Y-129616200D01*
X117756990Y-129616200D01*
X117523601Y-129712873D01*
X117344973Y-129891502D01*
X117248300Y-130124891D01*
X95100000Y-130124891D01*
X95100000Y-127986790D01*
X181634760Y-127986790D01*
X181634760Y-128685290D01*
X181793510Y-128844040D01*
X181879734Y-128844040D01*
X181910061Y-128874367D01*
X182143450Y-128971040D01*
X181910061Y-129067713D01*
X181879734Y-129098040D01*
X181793510Y-129098040D01*
X181634760Y-129256790D01*
X181634760Y-129955290D01*
X181793510Y-130114040D01*
X181879734Y-130114040D01*
X181910061Y-130144367D01*
X182143450Y-130241040D01*
X182619010Y-130241040D01*
X182746010Y-130114040D01*
X182777760Y-130114040D01*
X182777760Y-129098040D01*
X182746010Y-129098040D01*
X182619010Y-128971040D01*
X182746010Y-128844040D01*
X182777760Y-128844040D01*
X182777760Y-127986790D01*
X182904760Y-127986790D01*
X182904760Y-128685290D01*
X183031760Y-128812290D01*
X183031760Y-128844040D01*
X183063510Y-128844040D01*
X183190510Y-128971040D01*
X183063510Y-129098040D01*
X183031760Y-129098040D01*
X183031760Y-129129790D01*
X182904760Y-129256790D01*
X182904760Y-129955290D01*
X183031760Y-130082290D01*
X183031760Y-130114040D01*
X183063510Y-130114040D01*
X183190510Y-130241040D01*
X183889010Y-130241040D01*
X184016010Y-130114040D01*
X184047760Y-130114040D01*
X184047760Y-130082290D01*
X184174760Y-129955290D01*
X184174760Y-129256790D01*
X184047760Y-129129790D01*
X184047760Y-129098040D01*
X184016010Y-129098040D01*
X183889010Y-128971040D01*
X184016010Y-128844040D01*
X184047760Y-128844040D01*
X184047760Y-128812290D01*
X184174760Y-128685290D01*
X184174760Y-127986790D01*
X184047760Y-127859790D01*
X184047760Y-127828040D01*
X184301760Y-127828040D01*
X184301760Y-128844040D01*
X184333510Y-128844040D01*
X184460510Y-128971040D01*
X184333510Y-129098040D01*
X184301760Y-129098040D01*
X184301760Y-130114040D01*
X184333510Y-130114040D01*
X184460510Y-130241040D01*
X184936070Y-130241040D01*
X185169459Y-130144367D01*
X185199786Y-130114040D01*
X185286010Y-130114040D01*
X185444760Y-129955290D01*
X185444760Y-129256790D01*
X185286010Y-129098040D01*
X185199786Y-129098040D01*
X185169459Y-129067713D01*
X184936070Y-128971040D01*
X185169459Y-128874367D01*
X185199786Y-128844040D01*
X185286010Y-128844040D01*
X185444760Y-128685290D01*
X185444760Y-128012190D01*
X187730760Y-128012190D01*
X187730760Y-128710690D01*
X187889510Y-128869440D01*
X187975734Y-128869440D01*
X188006061Y-128899767D01*
X188239450Y-128996440D01*
X188006061Y-129093113D01*
X187975734Y-129123440D01*
X187889510Y-129123440D01*
X187730760Y-129282190D01*
X187730760Y-129980690D01*
X187889510Y-130139440D01*
X187975734Y-130139440D01*
X188006061Y-130169767D01*
X188239450Y-130266440D01*
X188715010Y-130266440D01*
X188842010Y-130139440D01*
X188873760Y-130139440D01*
X188873760Y-129123440D01*
X188842010Y-129123440D01*
X188715010Y-128996440D01*
X188842010Y-128869440D01*
X188873760Y-128869440D01*
X188873760Y-128012190D01*
X189000760Y-128012190D01*
X189000760Y-128710690D01*
X189127760Y-128837690D01*
X189127760Y-128869440D01*
X189159510Y-128869440D01*
X189286510Y-128996440D01*
X189159510Y-129123440D01*
X189127760Y-129123440D01*
X189127760Y-129155190D01*
X189000760Y-129282190D01*
X189000760Y-129980690D01*
X189127760Y-130107690D01*
X189127760Y-130139440D01*
X189159510Y-130139440D01*
X189286510Y-130266440D01*
X189985010Y-130266440D01*
X190112010Y-130139440D01*
X190143760Y-130139440D01*
X190143760Y-130107690D01*
X190270760Y-129980690D01*
X190270760Y-129282190D01*
X190143760Y-129155190D01*
X190143760Y-129123440D01*
X190112010Y-129123440D01*
X189985010Y-128996440D01*
X190112010Y-128869440D01*
X190143760Y-128869440D01*
X190143760Y-128837690D01*
X190270760Y-128710690D01*
X190270760Y-128012190D01*
X190143760Y-127885190D01*
X190143760Y-127853440D01*
X190397760Y-127853440D01*
X190397760Y-128869440D01*
X190429510Y-128869440D01*
X190556510Y-128996440D01*
X190429510Y-129123440D01*
X190397760Y-129123440D01*
X190397760Y-130139440D01*
X190429510Y-130139440D01*
X190556510Y-130266440D01*
X191032070Y-130266440D01*
X191265459Y-130169767D01*
X191295786Y-130139440D01*
X191382010Y-130139440D01*
X191540760Y-129980690D01*
X191540760Y-129282190D01*
X191382010Y-129123440D01*
X191295786Y-129123440D01*
X191265459Y-129093113D01*
X191032070Y-128996440D01*
X191265459Y-128899767D01*
X191295786Y-128869440D01*
X191382010Y-128869440D01*
X191540760Y-128710690D01*
X191540760Y-128012190D01*
X191382010Y-127853440D01*
X191295786Y-127853440D01*
X191265459Y-127823113D01*
X191032070Y-127726440D01*
X190556510Y-127726440D01*
X190429510Y-127853440D01*
X190397760Y-127853440D01*
X190143760Y-127853440D01*
X190112010Y-127853440D01*
X189985010Y-127726440D01*
X189286510Y-127726440D01*
X189159510Y-127853440D01*
X189127760Y-127853440D01*
X189127760Y-127885190D01*
X189000760Y-128012190D01*
X188873760Y-128012190D01*
X188873760Y-127853440D01*
X188842010Y-127853440D01*
X188715010Y-127726440D01*
X188239450Y-127726440D01*
X188006061Y-127823113D01*
X187975734Y-127853440D01*
X187889510Y-127853440D01*
X187730760Y-128012190D01*
X185444760Y-128012190D01*
X185444760Y-127986790D01*
X185286010Y-127828040D01*
X185199786Y-127828040D01*
X185169459Y-127797713D01*
X184936070Y-127701040D01*
X184460510Y-127701040D01*
X184333510Y-127828040D01*
X184301760Y-127828040D01*
X184047760Y-127828040D01*
X184016010Y-127828040D01*
X183889010Y-127701040D01*
X183190510Y-127701040D01*
X183063510Y-127828040D01*
X183031760Y-127828040D01*
X183031760Y-127859790D01*
X182904760Y-127986790D01*
X182777760Y-127986790D01*
X182777760Y-127828040D01*
X182746010Y-127828040D01*
X182619010Y-127701040D01*
X182143450Y-127701040D01*
X181910061Y-127797713D01*
X181879734Y-127828040D01*
X181793510Y-127828040D01*
X181634760Y-127986790D01*
X95100000Y-127986790D01*
X95100000Y-126409450D01*
X165127300Y-126409450D01*
X165127300Y-126885010D01*
X165223973Y-127118399D01*
X165402602Y-127297027D01*
X165635991Y-127393700D01*
X166111550Y-127393700D01*
X166270300Y-127234950D01*
X166270300Y-126409450D01*
X166397300Y-126409450D01*
X166397300Y-126885010D01*
X166493973Y-127118399D01*
X166524300Y-127148726D01*
X166524300Y-127234950D01*
X166683050Y-127393700D01*
X167381550Y-127393700D01*
X167540300Y-127234950D01*
X167540300Y-127148726D01*
X167570627Y-127118399D01*
X167667300Y-126885010D01*
X167763973Y-127118399D01*
X167794300Y-127148726D01*
X167794300Y-127234950D01*
X167953050Y-127393700D01*
X168651550Y-127393700D01*
X168810300Y-127234950D01*
X168810300Y-127148726D01*
X168840627Y-127118399D01*
X168937300Y-126885010D01*
X168937300Y-126409450D01*
X168810300Y-126282450D01*
X168810300Y-126250700D01*
X169064300Y-126250700D01*
X169064300Y-127234950D01*
X169223050Y-127393700D01*
X169698609Y-127393700D01*
X169931998Y-127297027D01*
X170110627Y-127118399D01*
X170184633Y-126939731D01*
X181634760Y-126939731D01*
X181634760Y-127415290D01*
X181793510Y-127574040D01*
X182777760Y-127574040D01*
X182777760Y-126939731D01*
X182904760Y-126939731D01*
X182904760Y-127415290D01*
X183031760Y-127542290D01*
X183031760Y-127574040D01*
X184047760Y-127574040D01*
X184047760Y-127542290D01*
X184174760Y-127415290D01*
X184174760Y-126939731D01*
X184078087Y-126706342D01*
X184047760Y-126676015D01*
X184047760Y-126589790D01*
X184301760Y-126589790D01*
X184301760Y-127574040D01*
X185286010Y-127574040D01*
X185444760Y-127415290D01*
X185444760Y-126965131D01*
X187730760Y-126965131D01*
X187730760Y-127440690D01*
X187889510Y-127599440D01*
X188873760Y-127599440D01*
X188873760Y-126965131D01*
X189000760Y-126965131D01*
X189000760Y-127440690D01*
X189127760Y-127567690D01*
X189127760Y-127599440D01*
X190143760Y-127599440D01*
X190143760Y-127567690D01*
X190270760Y-127440690D01*
X190270760Y-126965131D01*
X190174087Y-126731742D01*
X190143760Y-126701415D01*
X190143760Y-126615190D01*
X190397760Y-126615190D01*
X190397760Y-127599440D01*
X191382010Y-127599440D01*
X191540760Y-127440690D01*
X191540760Y-126965131D01*
X191444087Y-126731742D01*
X191265459Y-126553113D01*
X191032070Y-126456440D01*
X190556510Y-126456440D01*
X190397760Y-126615190D01*
X190143760Y-126615190D01*
X189985010Y-126456440D01*
X189286510Y-126456440D01*
X189127760Y-126615190D01*
X189127760Y-126701415D01*
X189097433Y-126731742D01*
X189000760Y-126965131D01*
X188873760Y-126965131D01*
X188873760Y-126615190D01*
X188715010Y-126456440D01*
X188239450Y-126456440D01*
X188006061Y-126553113D01*
X187827433Y-126731742D01*
X187730760Y-126965131D01*
X185444760Y-126965131D01*
X185444760Y-126939731D01*
X185348087Y-126706342D01*
X185169459Y-126527713D01*
X184936070Y-126431040D01*
X184460510Y-126431040D01*
X184301760Y-126589790D01*
X184047760Y-126589790D01*
X183889010Y-126431040D01*
X183190510Y-126431040D01*
X183031760Y-126589790D01*
X183031760Y-126676015D01*
X183001433Y-126706342D01*
X182904760Y-126939731D01*
X182777760Y-126939731D01*
X182777760Y-126589790D01*
X182619010Y-126431040D01*
X182143450Y-126431040D01*
X181910061Y-126527713D01*
X181731433Y-126706342D01*
X181634760Y-126939731D01*
X170184633Y-126939731D01*
X170207300Y-126885010D01*
X170207300Y-126409450D01*
X170048550Y-126250700D01*
X169064300Y-126250700D01*
X168810300Y-126250700D01*
X167794300Y-126250700D01*
X167794300Y-126282450D01*
X167667300Y-126409450D01*
X167540300Y-126282450D01*
X167540300Y-126250700D01*
X166524300Y-126250700D01*
X166524300Y-126282450D01*
X166397300Y-126409450D01*
X166270300Y-126409450D01*
X166270300Y-126250700D01*
X165286050Y-126250700D01*
X165127300Y-126409450D01*
X95100000Y-126409450D01*
X95100000Y-125139450D01*
X165127300Y-125139450D01*
X165127300Y-125837950D01*
X165286050Y-125996700D01*
X165372275Y-125996700D01*
X165402602Y-126027027D01*
X165635991Y-126123700D01*
X166111550Y-126123700D01*
X166238550Y-125996700D01*
X166270300Y-125996700D01*
X166270300Y-125139450D01*
X166397300Y-125139450D01*
X166397300Y-125837950D01*
X166524300Y-125964950D01*
X166524300Y-125996700D01*
X166556050Y-125996700D01*
X166683050Y-126123700D01*
X167381550Y-126123700D01*
X167508550Y-125996700D01*
X167540300Y-125996700D01*
X167540300Y-125964950D01*
X167667300Y-125837950D01*
X167794300Y-125964950D01*
X167794300Y-125996700D01*
X167826050Y-125996700D01*
X167953050Y-126123700D01*
X168651550Y-126123700D01*
X168778550Y-125996700D01*
X168810300Y-125996700D01*
X168810300Y-125964950D01*
X168937300Y-125837950D01*
X168937300Y-125139450D01*
X168810300Y-125012450D01*
X168810300Y-124980700D01*
X169064300Y-124980700D01*
X169064300Y-125996700D01*
X169096050Y-125996700D01*
X169223050Y-126123700D01*
X169698609Y-126123700D01*
X169931998Y-126027027D01*
X169962325Y-125996700D01*
X170048550Y-125996700D01*
X170207300Y-125837950D01*
X170207300Y-125139450D01*
X170048550Y-124980700D01*
X169962325Y-124980700D01*
X169931998Y-124950373D01*
X169698609Y-124853700D01*
X169223050Y-124853700D01*
X169096050Y-124980700D01*
X169064300Y-124980700D01*
X168810300Y-124980700D01*
X168778550Y-124980700D01*
X168651550Y-124853700D01*
X167953050Y-124853700D01*
X167826050Y-124980700D01*
X167794300Y-124980700D01*
X167794300Y-125012450D01*
X167667300Y-125139450D01*
X167540300Y-125012450D01*
X167540300Y-124980700D01*
X167508550Y-124980700D01*
X167381550Y-124853700D01*
X166683050Y-124853700D01*
X166556050Y-124980700D01*
X166524300Y-124980700D01*
X166524300Y-125012450D01*
X166397300Y-125139450D01*
X166270300Y-125139450D01*
X166270300Y-124980700D01*
X166238550Y-124980700D01*
X166111550Y-124853700D01*
X165635991Y-124853700D01*
X165402602Y-124950373D01*
X165372275Y-124980700D01*
X165286050Y-124980700D01*
X165127300Y-125139450D01*
X95100000Y-125139450D01*
X95100000Y-124822967D01*
X175848838Y-124822967D01*
X175990883Y-125166743D01*
X176253673Y-125429992D01*
X176597201Y-125572638D01*
X176969167Y-125572962D01*
X177312943Y-125430917D01*
X177576192Y-125168127D01*
X177718838Y-124824599D01*
X177719162Y-124452633D01*
X177673000Y-124340912D01*
X177673000Y-120576558D01*
X177744238Y-120404999D01*
X177744562Y-120033033D01*
X177602517Y-119689257D01*
X177339727Y-119426008D01*
X176996199Y-119283362D01*
X176624233Y-119283038D01*
X176280457Y-119425083D01*
X176017208Y-119687873D01*
X175874562Y-120031401D01*
X175874238Y-120403367D01*
X175895000Y-120453615D01*
X175895000Y-124340611D01*
X175849162Y-124451001D01*
X175848838Y-124822967D01*
X95100000Y-124822967D01*
X95100000Y-124092390D01*
X165127300Y-124092390D01*
X165127300Y-124567950D01*
X165286050Y-124726700D01*
X166270300Y-124726700D01*
X166270300Y-124092390D01*
X166397300Y-124092390D01*
X166397300Y-124567950D01*
X166524300Y-124694950D01*
X166524300Y-124726700D01*
X167540300Y-124726700D01*
X167540300Y-124694950D01*
X167667300Y-124567950D01*
X167794300Y-124694950D01*
X167794300Y-124726700D01*
X168810300Y-124726700D01*
X168810300Y-124694950D01*
X168937300Y-124567950D01*
X168937300Y-124092390D01*
X168840627Y-123859001D01*
X168810300Y-123828674D01*
X168810300Y-123742450D01*
X169064300Y-123742450D01*
X169064300Y-124726700D01*
X170048550Y-124726700D01*
X170207300Y-124567950D01*
X170207300Y-124092390D01*
X170110627Y-123859001D01*
X169931998Y-123680373D01*
X169698609Y-123583700D01*
X169223050Y-123583700D01*
X169064300Y-123742450D01*
X168810300Y-123742450D01*
X168651550Y-123583700D01*
X167953050Y-123583700D01*
X167794300Y-123742450D01*
X167794300Y-123828674D01*
X167763973Y-123859001D01*
X167667300Y-124092390D01*
X167570627Y-123859001D01*
X167540300Y-123828674D01*
X167540300Y-123742450D01*
X167381550Y-123583700D01*
X166683050Y-123583700D01*
X166524300Y-123742450D01*
X166524300Y-123828674D01*
X166493973Y-123859001D01*
X166397300Y-124092390D01*
X166270300Y-124092390D01*
X166270300Y-123742450D01*
X166111550Y-123583700D01*
X165635991Y-123583700D01*
X165402602Y-123680373D01*
X165223973Y-123859001D01*
X165127300Y-124092390D01*
X95100000Y-124092390D01*
X95100000Y-120313450D01*
X165152700Y-120313450D01*
X165152700Y-120789010D01*
X165249373Y-121022399D01*
X165428002Y-121201027D01*
X165661391Y-121297700D01*
X166136950Y-121297700D01*
X166295700Y-121138950D01*
X166295700Y-120313450D01*
X166422700Y-120313450D01*
X166422700Y-120789010D01*
X166519373Y-121022399D01*
X166549700Y-121052726D01*
X166549700Y-121138950D01*
X166708450Y-121297700D01*
X167406950Y-121297700D01*
X167565700Y-121138950D01*
X167565700Y-121052726D01*
X167596027Y-121022399D01*
X167692700Y-120789010D01*
X167789373Y-121022399D01*
X167819700Y-121052726D01*
X167819700Y-121138950D01*
X167978450Y-121297700D01*
X168676950Y-121297700D01*
X168835700Y-121138950D01*
X168835700Y-121052726D01*
X168866027Y-121022399D01*
X168962700Y-120789010D01*
X168962700Y-120313450D01*
X168835700Y-120186450D01*
X168835700Y-120154700D01*
X169089700Y-120154700D01*
X169089700Y-121138950D01*
X169248450Y-121297700D01*
X169724009Y-121297700D01*
X169957398Y-121201027D01*
X170136027Y-121022399D01*
X170232700Y-120789010D01*
X170232700Y-120313450D01*
X170073950Y-120154700D01*
X169089700Y-120154700D01*
X168835700Y-120154700D01*
X167819700Y-120154700D01*
X167819700Y-120186450D01*
X167692700Y-120313450D01*
X167565700Y-120186450D01*
X167565700Y-120154700D01*
X166549700Y-120154700D01*
X166549700Y-120186450D01*
X166422700Y-120313450D01*
X166295700Y-120313450D01*
X166295700Y-120154700D01*
X165311450Y-120154700D01*
X165152700Y-120313450D01*
X95100000Y-120313450D01*
X95100000Y-119043450D01*
X165152700Y-119043450D01*
X165152700Y-119741950D01*
X165311450Y-119900700D01*
X165397675Y-119900700D01*
X165428002Y-119931027D01*
X165661391Y-120027700D01*
X166136950Y-120027700D01*
X166263950Y-119900700D01*
X166295700Y-119900700D01*
X166295700Y-119043450D01*
X166422700Y-119043450D01*
X166422700Y-119741950D01*
X166549700Y-119868950D01*
X166549700Y-119900700D01*
X166581450Y-119900700D01*
X166708450Y-120027700D01*
X167406950Y-120027700D01*
X167533950Y-119900700D01*
X167565700Y-119900700D01*
X167565700Y-119868950D01*
X167692700Y-119741950D01*
X167819700Y-119868950D01*
X167819700Y-119900700D01*
X167851450Y-119900700D01*
X167978450Y-120027700D01*
X168676950Y-120027700D01*
X168803950Y-119900700D01*
X168835700Y-119900700D01*
X168835700Y-119868950D01*
X168962700Y-119741950D01*
X168962700Y-119043450D01*
X168835700Y-118916450D01*
X168835700Y-118884700D01*
X169089700Y-118884700D01*
X169089700Y-119900700D01*
X169121450Y-119900700D01*
X169248450Y-120027700D01*
X169724009Y-120027700D01*
X169957398Y-119931027D01*
X169987725Y-119900700D01*
X170073950Y-119900700D01*
X170232700Y-119741950D01*
X170232700Y-119043450D01*
X170073950Y-118884700D01*
X169987725Y-118884700D01*
X169957398Y-118854373D01*
X169724009Y-118757700D01*
X169248450Y-118757700D01*
X169121450Y-118884700D01*
X169089700Y-118884700D01*
X168835700Y-118884700D01*
X168803950Y-118884700D01*
X168676950Y-118757700D01*
X167978450Y-118757700D01*
X167851450Y-118884700D01*
X167819700Y-118884700D01*
X167819700Y-118916450D01*
X167692700Y-119043450D01*
X167565700Y-118916450D01*
X167565700Y-118884700D01*
X167533950Y-118884700D01*
X167406950Y-118757700D01*
X166708450Y-118757700D01*
X166581450Y-118884700D01*
X166549700Y-118884700D01*
X166549700Y-118916450D01*
X166422700Y-119043450D01*
X166295700Y-119043450D01*
X166295700Y-118884700D01*
X166263950Y-118884700D01*
X166136950Y-118757700D01*
X165661391Y-118757700D01*
X165428002Y-118854373D01*
X165397675Y-118884700D01*
X165311450Y-118884700D01*
X165152700Y-119043450D01*
X95100000Y-119043450D01*
X95100000Y-117996390D01*
X165152700Y-117996390D01*
X165152700Y-118471950D01*
X165311450Y-118630700D01*
X166295700Y-118630700D01*
X166295700Y-117996390D01*
X166422700Y-117996390D01*
X166422700Y-118471950D01*
X166549700Y-118598950D01*
X166549700Y-118630700D01*
X167565700Y-118630700D01*
X167565700Y-118598950D01*
X167692700Y-118471950D01*
X167819700Y-118598950D01*
X167819700Y-118630700D01*
X168835700Y-118630700D01*
X168835700Y-118598950D01*
X168962700Y-118471950D01*
X168962700Y-117996390D01*
X168866027Y-117763001D01*
X168835700Y-117732674D01*
X168835700Y-117646450D01*
X169089700Y-117646450D01*
X169089700Y-118630700D01*
X170073950Y-118630700D01*
X170232700Y-118471950D01*
X170232700Y-117996390D01*
X170136027Y-117763001D01*
X169957398Y-117584373D01*
X169724009Y-117487700D01*
X169248450Y-117487700D01*
X169089700Y-117646450D01*
X168835700Y-117646450D01*
X168676950Y-117487700D01*
X167978450Y-117487700D01*
X167819700Y-117646450D01*
X167819700Y-117732674D01*
X167789373Y-117763001D01*
X167692700Y-117996390D01*
X167596027Y-117763001D01*
X167565700Y-117732674D01*
X167565700Y-117646450D01*
X167406950Y-117487700D01*
X166708450Y-117487700D01*
X166549700Y-117646450D01*
X166549700Y-117732674D01*
X166519373Y-117763001D01*
X166422700Y-117996390D01*
X166295700Y-117996390D01*
X166295700Y-117646450D01*
X166136950Y-117487700D01*
X165661391Y-117487700D01*
X165428002Y-117584373D01*
X165249373Y-117763001D01*
X165152700Y-117996390D01*
X95100000Y-117996390D01*
X95100000Y-114153950D01*
X96796600Y-114153950D01*
X96796600Y-114494509D01*
X96893273Y-114727898D01*
X97071901Y-114906527D01*
X97305290Y-115003200D01*
X97645850Y-115003200D01*
X97804600Y-114844450D01*
X97804600Y-113995200D01*
X96955350Y-113995200D01*
X96796600Y-114153950D01*
X95100000Y-114153950D01*
X95100000Y-113241891D01*
X96796600Y-113241891D01*
X96796600Y-113582450D01*
X96955350Y-113741200D01*
X97804600Y-113741200D01*
X97804600Y-112891950D01*
X98058600Y-112891950D01*
X98058600Y-113741200D01*
X98078600Y-113741200D01*
X98078600Y-113785636D01*
X98066600Y-113845964D01*
X98066600Y-113890436D01*
X98078600Y-113950764D01*
X98078600Y-113995200D01*
X98058600Y-113995200D01*
X98058600Y-114844450D01*
X98217350Y-115003200D01*
X98557910Y-115003200D01*
X98746418Y-114925117D01*
X98767254Y-114939039D01*
X99201600Y-115025436D01*
X99635946Y-114939039D01*
X100004166Y-114693002D01*
X100250203Y-114324782D01*
X100336600Y-113890436D01*
X100336600Y-113845964D01*
X100250203Y-113411618D01*
X100004166Y-113043398D01*
X99635946Y-112797361D01*
X99201600Y-112710964D01*
X98767254Y-112797361D01*
X98746418Y-112811283D01*
X98557910Y-112733200D01*
X98217350Y-112733200D01*
X98058600Y-112891950D01*
X97804600Y-112891950D01*
X97645850Y-112733200D01*
X97305290Y-112733200D01*
X97071901Y-112829873D01*
X96893273Y-113008502D01*
X96796600Y-113241891D01*
X95100000Y-113241891D01*
X95100000Y-111105950D01*
X96796600Y-111105950D01*
X96796600Y-111446509D01*
X96893273Y-111679898D01*
X97071901Y-111858527D01*
X97305290Y-111955200D01*
X97645850Y-111955200D01*
X97804600Y-111796450D01*
X97804600Y-110947200D01*
X96955350Y-110947200D01*
X96796600Y-111105950D01*
X95100000Y-111105950D01*
X95100000Y-110193891D01*
X96796600Y-110193891D01*
X96796600Y-110534450D01*
X96955350Y-110693200D01*
X97804600Y-110693200D01*
X97804600Y-109843950D01*
X98058600Y-109843950D01*
X98058600Y-110693200D01*
X98078600Y-110693200D01*
X98078600Y-110737636D01*
X98066600Y-110797964D01*
X98066600Y-110842436D01*
X98078600Y-110902764D01*
X98078600Y-110947200D01*
X98058600Y-110947200D01*
X98058600Y-111796450D01*
X98217350Y-111955200D01*
X98557910Y-111955200D01*
X98746418Y-111877117D01*
X98767254Y-111891039D01*
X99201600Y-111977436D01*
X99635946Y-111891039D01*
X100004166Y-111645002D01*
X100250203Y-111276782D01*
X100336600Y-110842436D01*
X100336600Y-110797964D01*
X100311972Y-110674150D01*
X122750320Y-110674150D01*
X122750320Y-111014709D01*
X122846993Y-111248098D01*
X123025621Y-111426727D01*
X123259010Y-111523400D01*
X123599570Y-111523400D01*
X123758320Y-111364650D01*
X123758320Y-110515400D01*
X122909070Y-110515400D01*
X122750320Y-110674150D01*
X100311972Y-110674150D01*
X100250203Y-110363618D01*
X100004166Y-109995398D01*
X99654998Y-109762091D01*
X122750320Y-109762091D01*
X122750320Y-110102650D01*
X122909070Y-110261400D01*
X123758320Y-110261400D01*
X123758320Y-109412150D01*
X124012320Y-109412150D01*
X124012320Y-110261400D01*
X124032320Y-110261400D01*
X124032320Y-110305836D01*
X124020320Y-110366164D01*
X124020320Y-110410636D01*
X124032320Y-110470964D01*
X124032320Y-110515400D01*
X124012320Y-110515400D01*
X124012320Y-111364650D01*
X124171070Y-111523400D01*
X124511630Y-111523400D01*
X124700138Y-111445317D01*
X124720974Y-111459239D01*
X125155320Y-111545636D01*
X125589666Y-111459239D01*
X125957886Y-111213202D01*
X126203923Y-110844982D01*
X126290320Y-110410636D01*
X126290320Y-110366164D01*
X126203923Y-109931818D01*
X125957886Y-109563598D01*
X125589666Y-109317561D01*
X125155320Y-109231164D01*
X124720974Y-109317561D01*
X124700138Y-109331483D01*
X124511630Y-109253400D01*
X124171070Y-109253400D01*
X124012320Y-109412150D01*
X123758320Y-109412150D01*
X123599570Y-109253400D01*
X123259010Y-109253400D01*
X123025621Y-109350073D01*
X122846993Y-109528702D01*
X122750320Y-109762091D01*
X99654998Y-109762091D01*
X99635946Y-109749361D01*
X99201600Y-109662964D01*
X98767254Y-109749361D01*
X98746418Y-109763283D01*
X98557910Y-109685200D01*
X98217350Y-109685200D01*
X98058600Y-109843950D01*
X97804600Y-109843950D01*
X97645850Y-109685200D01*
X97305290Y-109685200D01*
X97071901Y-109781873D01*
X96893273Y-109960502D01*
X96796600Y-110193891D01*
X95100000Y-110193891D01*
X95100000Y-107930950D01*
X96796600Y-107930950D01*
X96796600Y-108271509D01*
X96893273Y-108504898D01*
X97071901Y-108683527D01*
X97305290Y-108780200D01*
X97645850Y-108780200D01*
X97804600Y-108621450D01*
X97804600Y-107772200D01*
X96955350Y-107772200D01*
X96796600Y-107930950D01*
X95100000Y-107930950D01*
X95100000Y-107018891D01*
X96796600Y-107018891D01*
X96796600Y-107359450D01*
X96955350Y-107518200D01*
X97804600Y-107518200D01*
X97804600Y-106668950D01*
X98058600Y-106668950D01*
X98058600Y-107518200D01*
X98078600Y-107518200D01*
X98078600Y-107562636D01*
X98066600Y-107622964D01*
X98066600Y-107667436D01*
X98078600Y-107727764D01*
X98078600Y-107772200D01*
X98058600Y-107772200D01*
X98058600Y-108621450D01*
X98217350Y-108780200D01*
X98557910Y-108780200D01*
X98746418Y-108702117D01*
X98767254Y-108716039D01*
X99201600Y-108802436D01*
X99635946Y-108716039D01*
X100004166Y-108470002D01*
X100250203Y-108101782D01*
X100336600Y-107667436D01*
X100336600Y-107622964D01*
X100250203Y-107188618D01*
X100004166Y-106820398D01*
X99635946Y-106574361D01*
X99201600Y-106487964D01*
X98767254Y-106574361D01*
X98746418Y-106588283D01*
X98557910Y-106510200D01*
X98217350Y-106510200D01*
X98058600Y-106668950D01*
X97804600Y-106668950D01*
X97645850Y-106510200D01*
X97305290Y-106510200D01*
X97071901Y-106606873D01*
X96893273Y-106785502D01*
X96796600Y-107018891D01*
X95100000Y-107018891D01*
X95100000Y-104755950D01*
X96796600Y-104755950D01*
X96796600Y-105096509D01*
X96893273Y-105329898D01*
X97071901Y-105508527D01*
X97305290Y-105605200D01*
X97645850Y-105605200D01*
X97804600Y-105446450D01*
X97804600Y-104597200D01*
X96955350Y-104597200D01*
X96796600Y-104755950D01*
X95100000Y-104755950D01*
X95100000Y-103843891D01*
X96796600Y-103843891D01*
X96796600Y-104184450D01*
X96955350Y-104343200D01*
X97804600Y-104343200D01*
X97804600Y-103493950D01*
X98058600Y-103493950D01*
X98058600Y-104343200D01*
X98078600Y-104343200D01*
X98078600Y-104387636D01*
X98066600Y-104447964D01*
X98066600Y-104492436D01*
X98078600Y-104552764D01*
X98078600Y-104597200D01*
X98058600Y-104597200D01*
X98058600Y-105446450D01*
X98217350Y-105605200D01*
X98557910Y-105605200D01*
X98746418Y-105527117D01*
X98767254Y-105541039D01*
X99201600Y-105627436D01*
X99635946Y-105541039D01*
X100004166Y-105295002D01*
X100250203Y-104926782D01*
X100336600Y-104492436D01*
X100336600Y-104451150D01*
X162422200Y-104451150D01*
X162422200Y-104926710D01*
X162518873Y-105160099D01*
X162697502Y-105338727D01*
X162930891Y-105435400D01*
X163406450Y-105435400D01*
X163565200Y-105276650D01*
X163565200Y-104451150D01*
X163692200Y-104451150D01*
X163692200Y-104926710D01*
X163788873Y-105160099D01*
X163819200Y-105190426D01*
X163819200Y-105276650D01*
X163977950Y-105435400D01*
X164676450Y-105435400D01*
X164835200Y-105276650D01*
X164835200Y-105190426D01*
X164865527Y-105160099D01*
X164962200Y-104926710D01*
X165058873Y-105160099D01*
X165089200Y-105190426D01*
X165089200Y-105276650D01*
X165247950Y-105435400D01*
X165946450Y-105435400D01*
X166105200Y-105276650D01*
X166105200Y-105190426D01*
X166135527Y-105160099D01*
X166232200Y-104926710D01*
X166232200Y-104451150D01*
X166105200Y-104324150D01*
X166105200Y-104292400D01*
X166359200Y-104292400D01*
X166359200Y-105276650D01*
X166517950Y-105435400D01*
X166993509Y-105435400D01*
X167226898Y-105338727D01*
X167405527Y-105160099D01*
X167502200Y-104926710D01*
X167502200Y-104451150D01*
X167343450Y-104292400D01*
X166359200Y-104292400D01*
X166105200Y-104292400D01*
X165089200Y-104292400D01*
X165089200Y-104324150D01*
X164962200Y-104451150D01*
X164835200Y-104324150D01*
X164835200Y-104292400D01*
X163819200Y-104292400D01*
X163819200Y-104324150D01*
X163692200Y-104451150D01*
X163565200Y-104451150D01*
X163565200Y-104292400D01*
X162580950Y-104292400D01*
X162422200Y-104451150D01*
X100336600Y-104451150D01*
X100336600Y-104447964D01*
X100250203Y-104013618D01*
X100004166Y-103645398D01*
X99635946Y-103399361D01*
X99201600Y-103312964D01*
X98767254Y-103399361D01*
X98746418Y-103413283D01*
X98557910Y-103335200D01*
X98217350Y-103335200D01*
X98058600Y-103493950D01*
X97804600Y-103493950D01*
X97645850Y-103335200D01*
X97305290Y-103335200D01*
X97071901Y-103431873D01*
X96893273Y-103610502D01*
X96796600Y-103843891D01*
X95100000Y-103843891D01*
X95100000Y-103181150D01*
X162422200Y-103181150D01*
X162422200Y-103879650D01*
X162580950Y-104038400D01*
X162667175Y-104038400D01*
X162697502Y-104068727D01*
X162930891Y-104165400D01*
X163406450Y-104165400D01*
X163533450Y-104038400D01*
X163565200Y-104038400D01*
X163565200Y-103181150D01*
X163692200Y-103181150D01*
X163692200Y-103879650D01*
X163819200Y-104006650D01*
X163819200Y-104038400D01*
X163850950Y-104038400D01*
X163977950Y-104165400D01*
X164676450Y-104165400D01*
X164803450Y-104038400D01*
X164835200Y-104038400D01*
X164835200Y-104006650D01*
X164962200Y-103879650D01*
X165089200Y-104006650D01*
X165089200Y-104038400D01*
X165120950Y-104038400D01*
X165247950Y-104165400D01*
X165946450Y-104165400D01*
X166073450Y-104038400D01*
X166105200Y-104038400D01*
X166105200Y-104006650D01*
X166232200Y-103879650D01*
X166232200Y-103181150D01*
X166105200Y-103054150D01*
X166105200Y-103022400D01*
X166359200Y-103022400D01*
X166359200Y-104038400D01*
X166390950Y-104038400D01*
X166517950Y-104165400D01*
X166993509Y-104165400D01*
X167226898Y-104068727D01*
X167257225Y-104038400D01*
X167343450Y-104038400D01*
X167502200Y-103879650D01*
X167502200Y-103181150D01*
X167343450Y-103022400D01*
X167257225Y-103022400D01*
X167226898Y-102992073D01*
X166993509Y-102895400D01*
X166517950Y-102895400D01*
X166390950Y-103022400D01*
X166359200Y-103022400D01*
X166105200Y-103022400D01*
X166073450Y-103022400D01*
X165946450Y-102895400D01*
X165247950Y-102895400D01*
X165120950Y-103022400D01*
X165089200Y-103022400D01*
X165089200Y-103054150D01*
X164962200Y-103181150D01*
X164835200Y-103054150D01*
X164835200Y-103022400D01*
X164803450Y-103022400D01*
X164676450Y-102895400D01*
X163977950Y-102895400D01*
X163850950Y-103022400D01*
X163819200Y-103022400D01*
X163819200Y-103054150D01*
X163692200Y-103181150D01*
X163565200Y-103181150D01*
X163565200Y-103022400D01*
X163533450Y-103022400D01*
X163406450Y-102895400D01*
X162930891Y-102895400D01*
X162697502Y-102992073D01*
X162667175Y-103022400D01*
X162580950Y-103022400D01*
X162422200Y-103181150D01*
X95100000Y-103181150D01*
X95100000Y-101611430D01*
X96811840Y-101611430D01*
X96811840Y-101951989D01*
X96908513Y-102185378D01*
X97087141Y-102364007D01*
X97320530Y-102460680D01*
X97661090Y-102460680D01*
X97819840Y-102301930D01*
X97819840Y-101452680D01*
X96970590Y-101452680D01*
X96811840Y-101611430D01*
X95100000Y-101611430D01*
X95100000Y-100699371D01*
X96811840Y-100699371D01*
X96811840Y-101039930D01*
X96970590Y-101198680D01*
X97819840Y-101198680D01*
X97819840Y-100349430D01*
X98073840Y-100349430D01*
X98073840Y-101198680D01*
X98093840Y-101198680D01*
X98093840Y-101243116D01*
X98081840Y-101303444D01*
X98081840Y-101347916D01*
X98093840Y-101408244D01*
X98093840Y-101452680D01*
X98073840Y-101452680D01*
X98073840Y-102301930D01*
X98232590Y-102460680D01*
X98573150Y-102460680D01*
X98761658Y-102382597D01*
X98782494Y-102396519D01*
X99216840Y-102482916D01*
X99651186Y-102396519D01*
X100019406Y-102150482D01*
X100030358Y-102134090D01*
X162422200Y-102134090D01*
X162422200Y-102609650D01*
X162580950Y-102768400D01*
X163565200Y-102768400D01*
X163565200Y-102134090D01*
X163692200Y-102134090D01*
X163692200Y-102609650D01*
X163819200Y-102736650D01*
X163819200Y-102768400D01*
X164835200Y-102768400D01*
X164835200Y-102736650D01*
X164962200Y-102609650D01*
X165089200Y-102736650D01*
X165089200Y-102768400D01*
X166105200Y-102768400D01*
X166105200Y-102736650D01*
X166232200Y-102609650D01*
X166232200Y-102134090D01*
X166135527Y-101900701D01*
X166105200Y-101870374D01*
X166105200Y-101784150D01*
X166359200Y-101784150D01*
X166359200Y-102768400D01*
X167343450Y-102768400D01*
X167502200Y-102609650D01*
X167502200Y-102134090D01*
X167405527Y-101900701D01*
X167226898Y-101722073D01*
X166993509Y-101625400D01*
X166517950Y-101625400D01*
X166359200Y-101784150D01*
X166105200Y-101784150D01*
X165946450Y-101625400D01*
X165247950Y-101625400D01*
X165089200Y-101784150D01*
X165089200Y-101870374D01*
X165058873Y-101900701D01*
X164962200Y-102134090D01*
X164865527Y-101900701D01*
X164835200Y-101870374D01*
X164835200Y-101784150D01*
X164676450Y-101625400D01*
X163977950Y-101625400D01*
X163819200Y-101784150D01*
X163819200Y-101870374D01*
X163788873Y-101900701D01*
X163692200Y-102134090D01*
X163565200Y-102134090D01*
X163565200Y-101784150D01*
X163406450Y-101625400D01*
X162930891Y-101625400D01*
X162697502Y-101722073D01*
X162518873Y-101900701D01*
X162422200Y-102134090D01*
X100030358Y-102134090D01*
X100265443Y-101782262D01*
X100351840Y-101347916D01*
X100351840Y-101303444D01*
X100265443Y-100869098D01*
X100019406Y-100500878D01*
X99651186Y-100254841D01*
X99216840Y-100168444D01*
X98782494Y-100254841D01*
X98761658Y-100268763D01*
X98573150Y-100190680D01*
X98232590Y-100190680D01*
X98073840Y-100349430D01*
X97819840Y-100349430D01*
X97661090Y-100190680D01*
X97320530Y-100190680D01*
X97087141Y-100287353D01*
X96908513Y-100465982D01*
X96811840Y-100699371D01*
X95100000Y-100699371D01*
X95100000Y-98482150D01*
X110707800Y-98482150D01*
X110707800Y-98957710D01*
X110804473Y-99191099D01*
X110983102Y-99369727D01*
X111216491Y-99466400D01*
X111692050Y-99466400D01*
X111850800Y-99307650D01*
X111850800Y-98482150D01*
X111977800Y-98482150D01*
X111977800Y-98957710D01*
X112074473Y-99191099D01*
X112104800Y-99221426D01*
X112104800Y-99307650D01*
X112263550Y-99466400D01*
X112962050Y-99466400D01*
X113120800Y-99307650D01*
X113120800Y-99221426D01*
X113151127Y-99191099D01*
X113247800Y-98957710D01*
X113344473Y-99191099D01*
X113374800Y-99221426D01*
X113374800Y-99307650D01*
X113533550Y-99466400D01*
X114232050Y-99466400D01*
X114390800Y-99307650D01*
X114390800Y-99221426D01*
X114421127Y-99191099D01*
X114517800Y-98957710D01*
X114517800Y-98482150D01*
X114390800Y-98355150D01*
X114390800Y-98323400D01*
X114644800Y-98323400D01*
X114644800Y-99307650D01*
X114803550Y-99466400D01*
X115279109Y-99466400D01*
X115512498Y-99369727D01*
X115691127Y-99191099D01*
X115787800Y-98957710D01*
X115787800Y-98482150D01*
X115660800Y-98355150D01*
X162447600Y-98355150D01*
X162447600Y-98830710D01*
X162544273Y-99064099D01*
X162722902Y-99242727D01*
X162956291Y-99339400D01*
X163431850Y-99339400D01*
X163590600Y-99180650D01*
X163590600Y-98355150D01*
X163717600Y-98355150D01*
X163717600Y-98830710D01*
X163814273Y-99064099D01*
X163844600Y-99094426D01*
X163844600Y-99180650D01*
X164003350Y-99339400D01*
X164701850Y-99339400D01*
X164860600Y-99180650D01*
X164860600Y-99094426D01*
X164890927Y-99064099D01*
X164987600Y-98830710D01*
X165084273Y-99064099D01*
X165114600Y-99094426D01*
X165114600Y-99180650D01*
X165273350Y-99339400D01*
X165971850Y-99339400D01*
X166130600Y-99180650D01*
X166130600Y-99094426D01*
X166160927Y-99064099D01*
X166257600Y-98830710D01*
X166257600Y-98355150D01*
X166130600Y-98228150D01*
X166130600Y-98196400D01*
X166384600Y-98196400D01*
X166384600Y-99180650D01*
X166543350Y-99339400D01*
X167018909Y-99339400D01*
X167252298Y-99242727D01*
X167430927Y-99064099D01*
X167527600Y-98830710D01*
X167527600Y-98355150D01*
X167368850Y-98196400D01*
X166384600Y-98196400D01*
X166130600Y-98196400D01*
X165114600Y-98196400D01*
X165114600Y-98228150D01*
X164987600Y-98355150D01*
X164860600Y-98228150D01*
X164860600Y-98196400D01*
X163844600Y-98196400D01*
X163844600Y-98228150D01*
X163717600Y-98355150D01*
X163590600Y-98355150D01*
X163590600Y-98196400D01*
X162606350Y-98196400D01*
X162447600Y-98355150D01*
X115660800Y-98355150D01*
X115629050Y-98323400D01*
X114644800Y-98323400D01*
X114390800Y-98323400D01*
X113374800Y-98323400D01*
X113374800Y-98355150D01*
X113247800Y-98482150D01*
X113120800Y-98355150D01*
X113120800Y-98323400D01*
X112104800Y-98323400D01*
X112104800Y-98355150D01*
X111977800Y-98482150D01*
X111850800Y-98482150D01*
X111850800Y-98323400D01*
X110866550Y-98323400D01*
X110707800Y-98482150D01*
X95100000Y-98482150D01*
X95100000Y-97212150D01*
X110707800Y-97212150D01*
X110707800Y-97910650D01*
X110866550Y-98069400D01*
X110952775Y-98069400D01*
X110983102Y-98099727D01*
X111216491Y-98196400D01*
X111692050Y-98196400D01*
X111819050Y-98069400D01*
X111850800Y-98069400D01*
X111850800Y-97212150D01*
X111977800Y-97212150D01*
X111977800Y-97910650D01*
X112104800Y-98037650D01*
X112104800Y-98069400D01*
X112136550Y-98069400D01*
X112263550Y-98196400D01*
X112962050Y-98196400D01*
X113089050Y-98069400D01*
X113120800Y-98069400D01*
X113120800Y-98037650D01*
X113247800Y-97910650D01*
X113374800Y-98037650D01*
X113374800Y-98069400D01*
X113406550Y-98069400D01*
X113533550Y-98196400D01*
X114232050Y-98196400D01*
X114359050Y-98069400D01*
X114390800Y-98069400D01*
X114390800Y-98037650D01*
X114517800Y-97910650D01*
X114517800Y-97212150D01*
X114390800Y-97085150D01*
X114390800Y-97053400D01*
X114644800Y-97053400D01*
X114644800Y-98069400D01*
X114676550Y-98069400D01*
X114803550Y-98196400D01*
X115279109Y-98196400D01*
X115512498Y-98099727D01*
X115542825Y-98069400D01*
X115629050Y-98069400D01*
X115787800Y-97910650D01*
X115787800Y-97212150D01*
X115660800Y-97085150D01*
X162447600Y-97085150D01*
X162447600Y-97783650D01*
X162606350Y-97942400D01*
X162692575Y-97942400D01*
X162722902Y-97972727D01*
X162956291Y-98069400D01*
X163431850Y-98069400D01*
X163558850Y-97942400D01*
X163590600Y-97942400D01*
X163590600Y-97085150D01*
X163717600Y-97085150D01*
X163717600Y-97783650D01*
X163844600Y-97910650D01*
X163844600Y-97942400D01*
X163876350Y-97942400D01*
X164003350Y-98069400D01*
X164701850Y-98069400D01*
X164828850Y-97942400D01*
X164860600Y-97942400D01*
X164860600Y-97910650D01*
X164987600Y-97783650D01*
X165114600Y-97910650D01*
X165114600Y-97942400D01*
X165146350Y-97942400D01*
X165273350Y-98069400D01*
X165971850Y-98069400D01*
X166098850Y-97942400D01*
X166130600Y-97942400D01*
X166130600Y-97910650D01*
X166257600Y-97783650D01*
X166257600Y-97085150D01*
X166130600Y-96958150D01*
X166130600Y-96926400D01*
X166384600Y-96926400D01*
X166384600Y-97942400D01*
X166416350Y-97942400D01*
X166543350Y-98069400D01*
X167018909Y-98069400D01*
X167252298Y-97972727D01*
X167282625Y-97942400D01*
X167368850Y-97942400D01*
X167527600Y-97783650D01*
X167527600Y-97085150D01*
X167368850Y-96926400D01*
X167282625Y-96926400D01*
X167252298Y-96896073D01*
X167018909Y-96799400D01*
X166543350Y-96799400D01*
X166416350Y-96926400D01*
X166384600Y-96926400D01*
X166130600Y-96926400D01*
X166098850Y-96926400D01*
X165971850Y-96799400D01*
X165273350Y-96799400D01*
X165146350Y-96926400D01*
X165114600Y-96926400D01*
X165114600Y-96958150D01*
X164987600Y-97085150D01*
X164860600Y-96958150D01*
X164860600Y-96926400D01*
X164828850Y-96926400D01*
X164701850Y-96799400D01*
X164003350Y-96799400D01*
X163876350Y-96926400D01*
X163844600Y-96926400D01*
X163844600Y-96958150D01*
X163717600Y-97085150D01*
X163590600Y-97085150D01*
X163590600Y-96926400D01*
X163558850Y-96926400D01*
X163431850Y-96799400D01*
X162956291Y-96799400D01*
X162722902Y-96896073D01*
X162692575Y-96926400D01*
X162606350Y-96926400D01*
X162447600Y-97085150D01*
X115660800Y-97085150D01*
X115629050Y-97053400D01*
X115542825Y-97053400D01*
X115512498Y-97023073D01*
X115279109Y-96926400D01*
X114803550Y-96926400D01*
X114676550Y-97053400D01*
X114644800Y-97053400D01*
X114390800Y-97053400D01*
X114359050Y-97053400D01*
X114232050Y-96926400D01*
X113533550Y-96926400D01*
X113406550Y-97053400D01*
X113374800Y-97053400D01*
X113374800Y-97085150D01*
X113247800Y-97212150D01*
X113120800Y-97085150D01*
X113120800Y-97053400D01*
X113089050Y-97053400D01*
X112962050Y-96926400D01*
X112263550Y-96926400D01*
X112136550Y-97053400D01*
X112104800Y-97053400D01*
X112104800Y-97085150D01*
X111977800Y-97212150D01*
X111850800Y-97212150D01*
X111850800Y-97053400D01*
X111819050Y-97053400D01*
X111692050Y-96926400D01*
X111216491Y-96926400D01*
X110983102Y-97023073D01*
X110952775Y-97053400D01*
X110866550Y-97053400D01*
X110707800Y-97212150D01*
X95100000Y-97212150D01*
X95100000Y-96165090D01*
X110707800Y-96165090D01*
X110707800Y-96640650D01*
X110866550Y-96799400D01*
X111850800Y-96799400D01*
X111850800Y-96165090D01*
X111977800Y-96165090D01*
X111977800Y-96640650D01*
X112104800Y-96767650D01*
X112104800Y-96799400D01*
X113120800Y-96799400D01*
X113120800Y-96767650D01*
X113247800Y-96640650D01*
X113374800Y-96767650D01*
X113374800Y-96799400D01*
X114390800Y-96799400D01*
X114390800Y-96767650D01*
X114517800Y-96640650D01*
X114517800Y-96165090D01*
X114421127Y-95931701D01*
X114390800Y-95901374D01*
X114390800Y-95815150D01*
X114644800Y-95815150D01*
X114644800Y-96799400D01*
X115629050Y-96799400D01*
X115787800Y-96640650D01*
X115787800Y-96165090D01*
X115735195Y-96038090D01*
X162447600Y-96038090D01*
X162447600Y-96513650D01*
X162606350Y-96672400D01*
X163590600Y-96672400D01*
X163590600Y-96038090D01*
X163717600Y-96038090D01*
X163717600Y-96513650D01*
X163844600Y-96640650D01*
X163844600Y-96672400D01*
X164860600Y-96672400D01*
X164860600Y-96640650D01*
X164987600Y-96513650D01*
X165114600Y-96640650D01*
X165114600Y-96672400D01*
X166130600Y-96672400D01*
X166130600Y-96640650D01*
X166257600Y-96513650D01*
X166257600Y-96038090D01*
X166160927Y-95804701D01*
X166130600Y-95774374D01*
X166130600Y-95688150D01*
X166384600Y-95688150D01*
X166384600Y-96672400D01*
X167368850Y-96672400D01*
X167527600Y-96513650D01*
X167527600Y-96038090D01*
X167430927Y-95804701D01*
X167252298Y-95626073D01*
X167018909Y-95529400D01*
X166543350Y-95529400D01*
X166384600Y-95688150D01*
X166130600Y-95688150D01*
X165971850Y-95529400D01*
X165273350Y-95529400D01*
X165114600Y-95688150D01*
X165114600Y-95774374D01*
X165084273Y-95804701D01*
X164987600Y-96038090D01*
X164890927Y-95804701D01*
X164860600Y-95774374D01*
X164860600Y-95688150D01*
X164701850Y-95529400D01*
X164003350Y-95529400D01*
X163844600Y-95688150D01*
X163844600Y-95774374D01*
X163814273Y-95804701D01*
X163717600Y-96038090D01*
X163590600Y-96038090D01*
X163590600Y-95688150D01*
X163431850Y-95529400D01*
X162956291Y-95529400D01*
X162722902Y-95626073D01*
X162544273Y-95804701D01*
X162447600Y-96038090D01*
X115735195Y-96038090D01*
X115691127Y-95931701D01*
X115512498Y-95753073D01*
X115279109Y-95656400D01*
X114803550Y-95656400D01*
X114644800Y-95815150D01*
X114390800Y-95815150D01*
X114232050Y-95656400D01*
X113533550Y-95656400D01*
X113374800Y-95815150D01*
X113374800Y-95901374D01*
X113344473Y-95931701D01*
X113247800Y-96165090D01*
X113151127Y-95931701D01*
X113120800Y-95901374D01*
X113120800Y-95815150D01*
X112962050Y-95656400D01*
X112263550Y-95656400D01*
X112104800Y-95815150D01*
X112104800Y-95901374D01*
X112074473Y-95931701D01*
X111977800Y-96165090D01*
X111850800Y-96165090D01*
X111850800Y-95815150D01*
X111692050Y-95656400D01*
X111216491Y-95656400D01*
X110983102Y-95753073D01*
X110804473Y-95931701D01*
X110707800Y-96165090D01*
X95100000Y-96165090D01*
X95100000Y-92386150D01*
X110733200Y-92386150D01*
X110733200Y-92861710D01*
X110829873Y-93095099D01*
X111008502Y-93273727D01*
X111241891Y-93370400D01*
X111717450Y-93370400D01*
X111876200Y-93211650D01*
X111876200Y-92386150D01*
X112003200Y-92386150D01*
X112003200Y-92861710D01*
X112099873Y-93095099D01*
X112130200Y-93125426D01*
X112130200Y-93211650D01*
X112288950Y-93370400D01*
X112987450Y-93370400D01*
X113146200Y-93211650D01*
X113146200Y-93125426D01*
X113176527Y-93095099D01*
X113273200Y-92861710D01*
X113369873Y-93095099D01*
X113400200Y-93125426D01*
X113400200Y-93211650D01*
X113558950Y-93370400D01*
X114257450Y-93370400D01*
X114416200Y-93211650D01*
X114416200Y-93125426D01*
X114446527Y-93095099D01*
X114543200Y-92861710D01*
X114543200Y-92386150D01*
X114416200Y-92259150D01*
X114416200Y-92227400D01*
X114670200Y-92227400D01*
X114670200Y-93211650D01*
X114828950Y-93370400D01*
X115304509Y-93370400D01*
X115537898Y-93273727D01*
X115716527Y-93095099D01*
X115813200Y-92861710D01*
X115813200Y-92386150D01*
X115654450Y-92227400D01*
X114670200Y-92227400D01*
X114416200Y-92227400D01*
X113400200Y-92227400D01*
X113400200Y-92259150D01*
X113273200Y-92386150D01*
X113146200Y-92259150D01*
X113146200Y-92227400D01*
X112130200Y-92227400D01*
X112130200Y-92259150D01*
X112003200Y-92386150D01*
X111876200Y-92386150D01*
X111876200Y-92227400D01*
X110891950Y-92227400D01*
X110733200Y-92386150D01*
X95100000Y-92386150D01*
X95100000Y-91116150D01*
X110733200Y-91116150D01*
X110733200Y-91814650D01*
X110891950Y-91973400D01*
X110978175Y-91973400D01*
X111008502Y-92003727D01*
X111241891Y-92100400D01*
X111717450Y-92100400D01*
X111844450Y-91973400D01*
X111876200Y-91973400D01*
X111876200Y-91116150D01*
X112003200Y-91116150D01*
X112003200Y-91814650D01*
X112130200Y-91941650D01*
X112130200Y-91973400D01*
X112161950Y-91973400D01*
X112288950Y-92100400D01*
X112987450Y-92100400D01*
X113114450Y-91973400D01*
X113146200Y-91973400D01*
X113146200Y-91941650D01*
X113273200Y-91814650D01*
X113400200Y-91941650D01*
X113400200Y-91973400D01*
X113431950Y-91973400D01*
X113558950Y-92100400D01*
X114257450Y-92100400D01*
X114384450Y-91973400D01*
X114416200Y-91973400D01*
X114416200Y-91941650D01*
X114543200Y-91814650D01*
X114543200Y-91116150D01*
X114416200Y-90989150D01*
X114416200Y-90957400D01*
X114670200Y-90957400D01*
X114670200Y-91973400D01*
X114701950Y-91973400D01*
X114828950Y-92100400D01*
X115304509Y-92100400D01*
X115537898Y-92003727D01*
X115568225Y-91973400D01*
X115654450Y-91973400D01*
X115813200Y-91814650D01*
X115813200Y-91116150D01*
X115654450Y-90957400D01*
X115568225Y-90957400D01*
X115537898Y-90927073D01*
X115304509Y-90830400D01*
X114828950Y-90830400D01*
X114701950Y-90957400D01*
X114670200Y-90957400D01*
X114416200Y-90957400D01*
X114384450Y-90957400D01*
X114257450Y-90830400D01*
X113558950Y-90830400D01*
X113431950Y-90957400D01*
X113400200Y-90957400D01*
X113400200Y-90989150D01*
X113273200Y-91116150D01*
X113146200Y-90989150D01*
X113146200Y-90957400D01*
X113114450Y-90957400D01*
X112987450Y-90830400D01*
X112288950Y-90830400D01*
X112161950Y-90957400D01*
X112130200Y-90957400D01*
X112130200Y-90989150D01*
X112003200Y-91116150D01*
X111876200Y-91116150D01*
X111876200Y-90957400D01*
X111844450Y-90957400D01*
X111717450Y-90830400D01*
X111241891Y-90830400D01*
X111008502Y-90927073D01*
X110978175Y-90957400D01*
X110891950Y-90957400D01*
X110733200Y-91116150D01*
X95100000Y-91116150D01*
X95100000Y-90069090D01*
X110733200Y-90069090D01*
X110733200Y-90544650D01*
X110891950Y-90703400D01*
X111876200Y-90703400D01*
X111876200Y-90069090D01*
X112003200Y-90069090D01*
X112003200Y-90544650D01*
X112130200Y-90671650D01*
X112130200Y-90703400D01*
X113146200Y-90703400D01*
X113146200Y-90671650D01*
X113273200Y-90544650D01*
X113400200Y-90671650D01*
X113400200Y-90703400D01*
X114416200Y-90703400D01*
X114416200Y-90671650D01*
X114543200Y-90544650D01*
X114543200Y-90069090D01*
X114446527Y-89835701D01*
X114416200Y-89805374D01*
X114416200Y-89719150D01*
X114670200Y-89719150D01*
X114670200Y-90703400D01*
X115654450Y-90703400D01*
X115813200Y-90544650D01*
X115813200Y-90069090D01*
X115716527Y-89835701D01*
X115537898Y-89657073D01*
X115304509Y-89560400D01*
X114828950Y-89560400D01*
X114670200Y-89719150D01*
X114416200Y-89719150D01*
X114257450Y-89560400D01*
X113558950Y-89560400D01*
X113400200Y-89719150D01*
X113400200Y-89805374D01*
X113369873Y-89835701D01*
X113273200Y-90069090D01*
X113176527Y-89835701D01*
X113146200Y-89805374D01*
X113146200Y-89719150D01*
X112987450Y-89560400D01*
X112288950Y-89560400D01*
X112130200Y-89719150D01*
X112130200Y-89805374D01*
X112099873Y-89835701D01*
X112003200Y-90069090D01*
X111876200Y-90069090D01*
X111876200Y-89719150D01*
X111717450Y-89560400D01*
X111241891Y-89560400D01*
X111008502Y-89657073D01*
X110829873Y-89835701D01*
X110733200Y-90069090D01*
X95100000Y-90069090D01*
X95100000Y-77070000D01*
X193680000Y-77070000D01*
X193680000Y-175650000D01*
M02*
