G04 #@! TF.FileFunction,Paste,Top*
%FSLAX46Y46*%
G04 Gerber Fmt 4.6, Leading zero omitted, Abs format (unit mm)*
G04 Created by KiCad (PCBNEW 4.0.6) date 12/03/17 11:24:10*
%MOMM*%
%LPD*%
G01*
G04 APERTURE LIST*
%ADD10C,0.100000*%
%ADD11R,2.000000X2.500000*%
%ADD12R,3.300000X1.600000*%
%ADD13R,1.200000X1.600000*%
%ADD14R,0.900000X0.500000*%
%ADD15R,1.350000X0.400000*%
%ADD16R,2.540000X2.540000*%
%ADD17R,1.524000X1.651000*%
%ADD18R,0.762000X2.159000*%
%ADD19R,0.635000X3.556000*%
%ADD20R,3.556000X0.635000*%
%ADD21R,0.990600X0.685800*%
%ADD22R,0.500000X0.900000*%
%ADD23R,0.800000X0.750000*%
%ADD24R,0.750000X0.800000*%
%ADD25R,2.514600X2.514600*%
%ADD26R,1.000000X1.250000*%
%ADD27R,2.540000X1.524000*%
%ADD28R,1.524000X1.524000*%
%ADD29R,1.524000X2.540000*%
%ADD30R,0.685800X0.990600*%
%ADD31R,2.200000X2.800000*%
%ADD32R,2.800000X2.800000*%
%ADD33R,0.609600X0.889000*%
%ADD34R,0.889000X0.609600*%
%ADD35R,2.500000X2.000000*%
%ADD36R,2.200000X1.050000*%
%ADD37R,1.050000X1.000000*%
%ADD38R,1.050000X2.200000*%
%ADD39R,1.000000X1.050000*%
%ADD40R,1.100000X0.450000*%
G04 APERTURE END LIST*
D10*
D11*
X97786440Y-73987660D03*
X101786440Y-73987660D03*
D12*
X94274640Y-73988460D03*
D13*
X92024640Y-80388460D03*
X94274640Y-80388460D03*
X96624640Y-80388460D03*
D14*
X86070440Y-61210760D03*
X86070440Y-62710760D03*
D15*
X89009340Y-60562460D03*
X89009340Y-61212460D03*
X89009340Y-61862460D03*
X89009340Y-62512460D03*
X93309340Y-60562460D03*
X93309340Y-61212460D03*
X93309340Y-61862460D03*
X93309340Y-62512460D03*
D10*
G36*
X94432240Y-60587860D02*
X94432240Y-61857860D01*
X93797240Y-61349860D01*
X93797240Y-61095860D01*
X94432240Y-60587860D01*
X94432240Y-60587860D01*
G37*
D16*
X95638740Y-61324460D03*
X127803940Y-67414260D03*
D17*
X124781340Y-61394460D03*
X127321340Y-61394460D03*
X122241340Y-67363460D03*
X124781340Y-67363460D03*
D16*
X121758740Y-61369060D03*
D18*
X131766340Y-86476960D03*
D16*
X128337340Y-86299160D03*
D18*
X130496340Y-86476960D03*
X133036340Y-86476960D03*
X134306340Y-86476960D03*
X129226340Y-91810960D03*
X130496340Y-91810960D03*
X131766340Y-91810960D03*
X133036340Y-91810960D03*
D16*
X135195340Y-91988760D03*
X112170240Y-64518660D03*
X112170240Y-61318260D03*
X108955840Y-61325760D03*
X104790240Y-61325760D03*
D19*
X106873040Y-61325760D03*
D16*
X144631440Y-91988760D03*
X148797040Y-91988760D03*
D19*
X146714240Y-91988760D03*
D16*
X149524720Y-67416680D03*
X145359120Y-67416680D03*
D19*
X147441920Y-67416680D03*
D16*
X149346920Y-99222560D03*
X153512520Y-99222560D03*
D19*
X151429720Y-99222560D03*
D16*
X114627028Y-102026594D03*
X114627028Y-106192194D03*
D20*
X114627028Y-104109394D03*
D21*
X129382520Y-78557120D03*
X129382520Y-80462120D03*
X126791721Y-78557120D03*
X126791721Y-79509620D03*
X126791721Y-80462120D03*
D16*
X155468320Y-67406520D03*
X158668720Y-67406520D03*
X157509240Y-92001460D03*
X154308840Y-92001460D03*
X141519940Y-91988760D03*
X138319540Y-91988760D03*
X114627028Y-92933394D03*
X114627028Y-96133794D03*
X167400000Y-89715460D03*
X167400000Y-92915860D03*
X152496520Y-70617080D03*
X152496520Y-67416680D03*
X111426628Y-99080194D03*
X114627028Y-99080194D03*
D22*
X127000000Y-82296000D03*
X128500000Y-82296000D03*
X131646800Y-80462120D03*
X133146800Y-80462120D03*
D14*
X131638040Y-76962000D03*
X131638040Y-78462000D03*
D23*
X90498360Y-59060080D03*
X88998360Y-59060080D03*
D24*
X93327340Y-65706660D03*
X93327340Y-64206660D03*
D23*
X90189740Y-63991460D03*
X91689740Y-63991460D03*
D25*
X165420040Y-134625080D03*
X90779600Y-133649720D03*
D23*
X123317000Y-82296000D03*
X124817000Y-82296000D03*
X131765040Y-82224880D03*
X133265040Y-82224880D03*
X127822960Y-77119480D03*
X129322960Y-77119480D03*
D14*
X124714000Y-79018000D03*
X124714000Y-80518000D03*
D26*
X95046040Y-83068160D03*
X93046040Y-83068160D03*
D16*
X98618040Y-61325760D03*
X101818440Y-61325760D03*
X115065840Y-61318260D03*
X118266240Y-61318260D03*
X138838940Y-67421760D03*
X142039340Y-67421760D03*
D27*
X146395440Y-113141760D03*
D16*
X146395440Y-109941360D03*
D28*
X167426640Y-86065360D03*
X163591240Y-85963760D03*
X165470840Y-72349360D03*
D27*
X142204440Y-78775560D03*
D16*
X142204440Y-81975960D03*
D27*
X112166400Y-73685400D03*
D16*
X112166400Y-70485000D03*
X142160020Y-91991300D03*
X142160020Y-88790900D03*
D27*
X152501600Y-81239360D03*
D16*
X152501600Y-78038960D03*
D29*
X100366168Y-99059754D03*
D16*
X103566568Y-99059754D03*
X146400520Y-99222560D03*
X146400520Y-102422960D03*
D26*
X97530920Y-68539360D03*
X99530920Y-68539360D03*
D30*
X93753940Y-68539360D03*
X95658940Y-68539360D03*
X93753940Y-71130159D03*
X94706440Y-71130159D03*
X95658940Y-71130159D03*
D22*
X129056000Y-83820000D03*
X130556000Y-83820000D03*
D14*
X84475320Y-61205680D03*
X84475320Y-62705680D03*
D31*
X82758840Y-95099360D03*
X85558840Y-95099360D03*
X84658840Y-87699360D03*
X87458840Y-87699360D03*
D32*
X94958840Y-95099360D03*
X99058840Y-90649360D03*
D33*
X144653000Y-84328000D03*
D16*
X142189200Y-84328000D03*
D33*
X114620040Y-68828920D03*
D16*
X112156240Y-68828920D03*
D33*
X154970480Y-75041760D03*
D16*
X152506680Y-75041760D03*
D34*
X106968928Y-101543994D03*
D16*
X106968928Y-99080194D03*
D33*
X143931640Y-106776520D03*
D16*
X146395440Y-106776520D03*
D35*
X90733880Y-68572880D03*
X90733880Y-72572880D03*
D34*
X134613859Y-110869715D03*
D16*
X134613859Y-113333515D03*
D29*
X140984179Y-113308115D03*
D16*
X137783779Y-113308115D03*
X127019259Y-113313195D03*
X130219659Y-113313195D03*
X127019259Y-110971315D03*
X127019259Y-106805715D03*
D20*
X127019259Y-108888515D03*
D16*
X127024339Y-102254035D03*
X127024339Y-105454435D03*
D10*
G36*
X151515531Y-129291558D02*
X153311582Y-127495507D01*
X155107633Y-129291558D01*
X153311582Y-131087609D01*
X151515531Y-129291558D01*
X151515531Y-129291558D01*
G37*
G36*
X128292589Y-127980440D02*
X130088640Y-126184389D01*
X131884691Y-127980440D01*
X130088640Y-129776491D01*
X128292589Y-127980440D01*
X128292589Y-127980440D01*
G37*
D24*
X146364960Y-114945160D03*
X146364960Y-116445160D03*
X141086840Y-115553360D03*
X141086840Y-117053360D03*
D10*
G36*
X112105440Y-117411771D02*
X110309389Y-115615720D01*
X112105440Y-113819669D01*
X113901491Y-115615720D01*
X112105440Y-117411771D01*
X112105440Y-117411771D01*
G37*
G36*
X88864537Y-118740849D02*
X87068486Y-116944798D01*
X88864537Y-115148747D01*
X90660588Y-116944798D01*
X88864537Y-118740849D01*
X88864537Y-118740849D01*
G37*
D29*
X123784360Y-117434360D03*
D16*
X126984760Y-117434360D03*
X127000000Y-118135400D03*
X127000000Y-121335800D03*
D10*
G36*
X89522571Y-125689360D02*
X87726520Y-127485411D01*
X85930469Y-125689360D01*
X87726520Y-123893309D01*
X89522571Y-125689360D01*
X89522571Y-125689360D01*
G37*
G36*
X91785596Y-127952384D02*
X89989545Y-129748435D01*
X88193494Y-127952384D01*
X89989545Y-126156333D01*
X91785596Y-127952384D01*
X91785596Y-127952384D01*
G37*
D29*
X123794520Y-122138440D03*
D16*
X126994920Y-122138440D03*
X157734000Y-130271520D03*
X160934400Y-130271520D03*
D36*
X83840320Y-120380760D03*
D37*
X85365320Y-121830760D03*
D36*
X83840320Y-123280760D03*
D10*
G36*
X165601096Y-68320251D02*
X167156731Y-66764616D01*
X167899194Y-67507079D01*
X166343559Y-69062714D01*
X165601096Y-68320251D01*
X165601096Y-68320251D01*
G37*
G36*
X163921718Y-67984376D02*
X164664180Y-67241914D01*
X165371286Y-67949020D01*
X164628824Y-68691482D01*
X163921718Y-67984376D01*
X163921718Y-67984376D01*
G37*
G36*
X163550486Y-66269641D02*
X165106121Y-64714006D01*
X165848584Y-65456469D01*
X164292949Y-67012104D01*
X163550486Y-66269641D01*
X163550486Y-66269641D01*
G37*
D38*
X121454840Y-58506360D03*
D39*
X120004840Y-60031360D03*
D38*
X118554840Y-58506360D03*
X153644600Y-132831840D03*
D39*
X155094600Y-131306840D03*
D38*
X156544600Y-132831840D03*
D24*
X133604000Y-78486000D03*
X133604000Y-76986000D03*
D23*
X121412000Y-82296000D03*
X119912000Y-82296000D03*
X107988800Y-80416400D03*
X106488800Y-80416400D03*
D24*
X110591600Y-80999200D03*
X110591600Y-82499200D03*
X105105200Y-88747600D03*
X105105200Y-90247600D03*
D23*
X106476800Y-83261200D03*
X104976800Y-83261200D03*
D22*
X121412000Y-80721200D03*
X119912000Y-80721200D03*
D14*
X110591600Y-85750400D03*
X110591600Y-84250400D03*
X106832400Y-90298400D03*
X106832400Y-88798400D03*
D21*
X115925600Y-80975200D03*
X115925600Y-82880200D03*
X113334801Y-80975200D03*
X113334801Y-81927700D03*
X113334801Y-82880200D03*
D30*
X108839000Y-88138000D03*
X110744000Y-88138000D03*
X108839000Y-90728799D03*
X109791500Y-90728799D03*
X110744000Y-90728799D03*
D40*
X122234000Y-78414400D03*
X122234000Y-77764400D03*
X122234000Y-77114400D03*
X122234000Y-76464400D03*
X119634000Y-76464400D03*
X119634000Y-77114400D03*
X119634000Y-77764400D03*
X119634000Y-78414400D03*
M02*
