M48
;DRILL file {KiCad 4.0.7} date 11/10/17 16:03:11
;FORMAT={-:-/ absolute / inch / decimal}
FMAT,2
INCH,TZ
T1C0.015
T2C0.015
T3C0.016
T4C0.026
%
G90
G05
M72
T1
X5.017Y-2.996
X5.017Y-3.046
X5.067Y-2.996
X5.067Y-3.046
X5.117Y-2.996
X5.117Y-3.046
X5.167Y-2.996
X5.167Y-3.046
X5.451Y-3.855
X5.451Y-3.905
X5.501Y-3.855
X5.501Y-3.905
X5.551Y-3.855
X5.551Y-3.905
X5.601Y-3.855
X5.601Y-3.905
T2
X3.8966Y-2.992
X3.8966Y-3.042
X3.8976Y-2.752
X3.8976Y-2.802
X3.9466Y-2.992
X3.9466Y-3.042
X3.9476Y-2.752
X3.9476Y-2.802
X3.9966Y-2.992
X3.9966Y-3.042
X3.9976Y-2.752
X3.9976Y-2.802
X4.1541Y-4.329
X4.1541Y-4.379
X4.1541Y-4.429
X4.2041Y-4.329
X4.2041Y-4.379
X4.2041Y-4.429
X4.3941Y-4.33
X4.3941Y-4.38
X4.3941Y-4.43
X4.4441Y-4.33
X4.4441Y-4.38
X4.4441Y-4.43
X5.9326Y-3.227
X5.9326Y-3.277
X5.9336Y-2.987
X5.9336Y-3.037
X5.9826Y-3.227
X5.9826Y-3.277
X5.9836Y-2.987
X5.9836Y-3.037
X6.0326Y-3.227
X6.0326Y-3.277
X6.0336Y-2.987
X6.0336Y-3.037
X6.0391Y-4.0915
X6.0391Y-4.1415
X6.0401Y-3.8515
X6.0401Y-3.9015
X6.0891Y-4.0915
X6.0891Y-4.1415
X6.0901Y-3.8515
X6.0901Y-3.9015
X6.1391Y-4.0915
X6.1391Y-4.1415
X6.1401Y-3.8515
X6.1401Y-3.9015
X6.689Y-4.2036
X6.689Y-4.2536
X6.689Y-4.3036
X6.739Y-4.2036
X6.739Y-4.2536
X6.739Y-4.3036
X6.929Y-4.2046
X6.929Y-4.2546
X6.929Y-4.3046
X6.979Y-4.2046
X6.979Y-4.2546
X6.979Y-4.3046
T3
X3.3226Y-2.7709
X3.3506Y-2.6809
X3.4732Y-3.5932
X3.4751Y-2.5809
X3.5095Y-5.3165
X3.51Y-5.2115
X3.518Y-5.3505
X3.5245Y-5.171
X3.5265Y-3.188
X3.551Y-3.436
X3.5626Y-2.8054
X3.5905Y-2.5605
X3.5926Y-2.7325
X3.621Y-3.7995
X3.7295Y-3.261
X3.8065Y-3.483
X3.899Y-4.3035
X3.965Y-3.69
X3.995Y-4.382
X4.0045Y-3.1535
X4.085Y-4.287
X4.111Y-3.488
X4.188Y-3.4865
X4.278Y-3.053
X4.281Y-3.215
X4.338Y-3.138
X4.577Y-2.4695
X4.58Y-2.582
X4.6006Y-3.752
X4.642Y-2.623
X4.6475Y-2.43
X4.7606Y-3.572
X4.8006Y-3.452
X4.8816Y-2.367
X5.4406Y-3.197
X5.652Y-3.64
X5.709Y-3.728
X5.781Y-3.817
X6.252Y-5.212
X6.2635Y-5.327
X6.2665Y-5.1735
X6.271Y-5.367
X6.307Y-3.449
X6.308Y-3.295
X6.371Y-3.367
X6.4315Y-4.582
X6.5205Y-4.6415
X6.614Y-4.583
T4
X3.3436Y-3.289
X3.3436Y-3.414
X3.3436Y-3.539
X3.3436Y-3.659
X3.3442Y-3.1652
X3.3936Y-3.289
X3.3936Y-3.414
X3.3936Y-3.539
X3.3936Y-3.659
X3.3942Y-3.1652
X4.3654Y-3.522
X4.4154Y-3.522
T0
M30
