G04 #@! TF.FileFunction,Legend,Bot*
%FSLAX46Y46*%
G04 Gerber Fmt 4.6, Leading zero omitted, Abs format (unit mm)*
G04 Created by KiCad (PCBNEW 4.0.6) date 12/03/17 11:24:10*
%MOMM*%
%LPD*%
G01*
G04 APERTURE LIST*
%ADD10C,0.100000*%
%ADD11C,0.300000*%
%ADD12C,0.010000*%
G04 APERTURE END LIST*
D10*
D11*
X154390875Y-60796600D02*
X154632780Y-60675648D01*
X154995637Y-60675648D01*
X155358494Y-60796600D01*
X155600399Y-61038505D01*
X155721351Y-61280410D01*
X155842303Y-61764219D01*
X155842303Y-62127076D01*
X155721351Y-62610886D01*
X155600399Y-62852790D01*
X155358494Y-63094695D01*
X154995637Y-63215648D01*
X154753732Y-63215648D01*
X154390875Y-63094695D01*
X154269923Y-62973743D01*
X154269923Y-62127076D01*
X154753732Y-62127076D01*
X151729923Y-63215648D02*
X152576589Y-62006124D01*
X153181351Y-63215648D02*
X153181351Y-60675648D01*
X152213732Y-60675648D01*
X151971827Y-60796600D01*
X151850875Y-60917552D01*
X151729923Y-61159457D01*
X151729923Y-61522314D01*
X151850875Y-61764219D01*
X151971827Y-61885171D01*
X152213732Y-62006124D01*
X153181351Y-62006124D01*
X150157542Y-60675648D02*
X149673732Y-60675648D01*
X149431827Y-60796600D01*
X149189923Y-61038505D01*
X149068970Y-61522314D01*
X149068970Y-62368981D01*
X149189923Y-62852790D01*
X149431827Y-63094695D01*
X149673732Y-63215648D01*
X150157542Y-63215648D01*
X150399446Y-63094695D01*
X150641351Y-62852790D01*
X150762303Y-62368981D01*
X150762303Y-61522314D01*
X150641351Y-61038505D01*
X150399446Y-60796600D01*
X150157542Y-60675648D01*
X146045161Y-63215648D02*
X146045161Y-60675648D01*
X145440399Y-60675648D01*
X145077542Y-60796600D01*
X144835637Y-61038505D01*
X144714685Y-61280410D01*
X144593733Y-61764219D01*
X144593733Y-62127076D01*
X144714685Y-62610886D01*
X144835637Y-62852790D01*
X145077542Y-63094695D01*
X145440399Y-63215648D01*
X146045161Y-63215648D01*
X143142304Y-63215648D02*
X143384209Y-63094695D01*
X143505161Y-62973743D01*
X143626113Y-62731838D01*
X143626113Y-62006124D01*
X143505161Y-61764219D01*
X143384209Y-61643267D01*
X143142304Y-61522314D01*
X142779447Y-61522314D01*
X142537542Y-61643267D01*
X142416590Y-61764219D01*
X142295637Y-62006124D01*
X142295637Y-62731838D01*
X142416590Y-62973743D01*
X142537542Y-63094695D01*
X142779447Y-63215648D01*
X143142304Y-63215648D01*
X141207066Y-61522314D02*
X141207066Y-64062314D01*
X141207066Y-61643267D02*
X140965161Y-61522314D01*
X140481352Y-61522314D01*
X140239447Y-61643267D01*
X140118495Y-61764219D01*
X139997542Y-62006124D01*
X139997542Y-62731838D01*
X140118495Y-62973743D01*
X140239447Y-63094695D01*
X140481352Y-63215648D01*
X140965161Y-63215648D01*
X141207066Y-63094695D01*
X138908971Y-61522314D02*
X138908971Y-64062314D01*
X138908971Y-61643267D02*
X138667066Y-61522314D01*
X138183257Y-61522314D01*
X137941352Y-61643267D01*
X137820400Y-61764219D01*
X137699447Y-62006124D01*
X137699447Y-62731838D01*
X137820400Y-62973743D01*
X137941352Y-63094695D01*
X138183257Y-63215648D01*
X138667066Y-63215648D01*
X138908971Y-63094695D01*
X136248019Y-63215648D02*
X136489924Y-63094695D01*
X136610876Y-62852790D01*
X136610876Y-60675648D01*
X134312781Y-63094695D02*
X134554686Y-63215648D01*
X135038495Y-63215648D01*
X135280400Y-63094695D01*
X135401352Y-62852790D01*
X135401352Y-61885171D01*
X135280400Y-61643267D01*
X135038495Y-61522314D01*
X134554686Y-61522314D01*
X134312781Y-61643267D01*
X134191829Y-61885171D01*
X134191829Y-62127076D01*
X135401352Y-62368981D01*
X133103257Y-63215648D02*
X133103257Y-61522314D01*
X133103257Y-62006124D02*
X132982305Y-61764219D01*
X132861352Y-61643267D01*
X132619448Y-61522314D01*
X132377543Y-61522314D01*
X129716590Y-60554695D02*
X131893733Y-63820410D01*
X126088019Y-61885171D02*
X126934686Y-61885171D01*
X126934686Y-63215648D02*
X126934686Y-60675648D01*
X125725162Y-60675648D01*
X124757543Y-63215648D02*
X124757543Y-60675648D01*
X123910876Y-62489933D01*
X123064210Y-60675648D01*
X123064210Y-63215648D01*
X120403258Y-62973743D02*
X120524210Y-63094695D01*
X120887067Y-63215648D01*
X121128972Y-63215648D01*
X121491829Y-63094695D01*
X121733734Y-62852790D01*
X121854686Y-62610886D01*
X121975638Y-62127076D01*
X121975638Y-61764219D01*
X121854686Y-61280410D01*
X121733734Y-61038505D01*
X121491829Y-60796600D01*
X121128972Y-60675648D01*
X120887067Y-60675648D01*
X120524210Y-60796600D01*
X120403258Y-60917552D01*
X119556591Y-60675648D02*
X118951829Y-63215648D01*
X118468019Y-61401362D01*
X117984210Y-63215648D01*
X117379448Y-60675648D01*
X113025163Y-63215648D02*
X113871829Y-62006124D01*
X114476591Y-63215648D02*
X114476591Y-60675648D01*
X113508972Y-60675648D01*
X113267067Y-60796600D01*
X113146115Y-60917552D01*
X113025163Y-61159457D01*
X113025163Y-61522314D01*
X113146115Y-61764219D01*
X113267067Y-61885171D01*
X113508972Y-62006124D01*
X114476591Y-62006124D01*
X110848020Y-63215648D02*
X110848020Y-61885171D01*
X110968972Y-61643267D01*
X111210877Y-61522314D01*
X111694686Y-61522314D01*
X111936591Y-61643267D01*
X110848020Y-63094695D02*
X111089924Y-63215648D01*
X111694686Y-63215648D01*
X111936591Y-63094695D01*
X112057543Y-62852790D01*
X112057543Y-62610886D01*
X111936591Y-62368981D01*
X111694686Y-62248029D01*
X111089924Y-62248029D01*
X110848020Y-62127076D01*
X108549925Y-63215648D02*
X108549925Y-60675648D01*
X108549925Y-63094695D02*
X108791829Y-63215648D01*
X109275639Y-63215648D01*
X109517544Y-63094695D01*
X109638496Y-62973743D01*
X109759448Y-62731838D01*
X109759448Y-62006124D01*
X109638496Y-61764219D01*
X109517544Y-61643267D01*
X109275639Y-61522314D01*
X108791829Y-61522314D01*
X108549925Y-61643267D01*
X106251830Y-63215648D02*
X106251830Y-61885171D01*
X106372782Y-61643267D01*
X106614687Y-61522314D01*
X107098496Y-61522314D01*
X107340401Y-61643267D01*
X106251830Y-63094695D02*
X106493734Y-63215648D01*
X107098496Y-63215648D01*
X107340401Y-63094695D01*
X107461353Y-62852790D01*
X107461353Y-62610886D01*
X107340401Y-62368981D01*
X107098496Y-62248029D01*
X106493734Y-62248029D01*
X106251830Y-62127076D01*
X105042306Y-63215648D02*
X105042306Y-61522314D01*
X105042306Y-62006124D02*
X104921354Y-61764219D01*
X104800401Y-61643267D01*
X104558497Y-61522314D01*
X104316592Y-61522314D01*
X133647543Y-67325648D02*
X134494209Y-66116124D01*
X135098971Y-67325648D02*
X135098971Y-64785648D01*
X134131352Y-64785648D01*
X133889447Y-64906600D01*
X133768495Y-65027552D01*
X133647543Y-65269457D01*
X133647543Y-65632314D01*
X133768495Y-65874219D01*
X133889447Y-65995171D01*
X134131352Y-66116124D01*
X135098971Y-66116124D01*
X131591352Y-67204695D02*
X131833257Y-67325648D01*
X132317066Y-67325648D01*
X132558971Y-67204695D01*
X132679923Y-66962790D01*
X132679923Y-65995171D01*
X132558971Y-65753267D01*
X132317066Y-65632314D01*
X131833257Y-65632314D01*
X131591352Y-65753267D01*
X131470400Y-65995171D01*
X131470400Y-66237076D01*
X132679923Y-66478981D01*
X130623733Y-65632314D02*
X130018971Y-67325648D01*
X129414209Y-65632314D01*
X126632304Y-65027552D02*
X126511352Y-64906600D01*
X126269447Y-64785648D01*
X125664685Y-64785648D01*
X125422781Y-64906600D01*
X125301828Y-65027552D01*
X125180876Y-65269457D01*
X125180876Y-65511362D01*
X125301828Y-65874219D01*
X126753257Y-67325648D01*
X125180876Y-67325648D01*
X145319448Y-75545648D02*
X145319448Y-73005648D01*
X143868020Y-75545648D02*
X144956591Y-74094219D01*
X143868020Y-73005648D02*
X145319448Y-74457076D01*
X141690877Y-75545648D02*
X141690877Y-74215171D01*
X141811829Y-73973267D01*
X142053734Y-73852314D01*
X142537543Y-73852314D01*
X142779448Y-73973267D01*
X141690877Y-75424695D02*
X141932781Y-75545648D01*
X142537543Y-75545648D01*
X142779448Y-75424695D01*
X142900400Y-75182790D01*
X142900400Y-74940886D01*
X142779448Y-74698981D01*
X142537543Y-74578029D01*
X141932781Y-74578029D01*
X141690877Y-74457076D01*
X140844210Y-73852314D02*
X139876591Y-73852314D01*
X140481353Y-73005648D02*
X140481353Y-75182790D01*
X140360401Y-75424695D01*
X140118496Y-75545648D01*
X139876591Y-75545648D01*
X139029924Y-75545648D02*
X139029924Y-73852314D01*
X139029924Y-73005648D02*
X139150876Y-73126600D01*
X139029924Y-73247552D01*
X138908972Y-73126600D01*
X139029924Y-73005648D01*
X139029924Y-73247552D01*
X136852781Y-75424695D02*
X137094686Y-75545648D01*
X137578495Y-75545648D01*
X137820400Y-75424695D01*
X137941352Y-75182790D01*
X137941352Y-74215171D01*
X137820400Y-73973267D01*
X137578495Y-73852314D01*
X137094686Y-73852314D01*
X136852781Y-73973267D01*
X136731829Y-74215171D01*
X136731829Y-74457076D01*
X137941352Y-74698981D01*
X133708019Y-75545648D02*
X133708019Y-73005648D01*
X133103257Y-73005648D01*
X132740400Y-73126600D01*
X132498495Y-73368505D01*
X132377543Y-73610410D01*
X132256591Y-74094219D01*
X132256591Y-74457076D01*
X132377543Y-74940886D01*
X132498495Y-75182790D01*
X132740400Y-75424695D01*
X133103257Y-75545648D01*
X133708019Y-75545648D01*
X131168019Y-75545648D02*
X131168019Y-73005648D01*
X130079448Y-75545648D02*
X130079448Y-74215171D01*
X130200400Y-73973267D01*
X130442305Y-73852314D01*
X130805162Y-73852314D01*
X131047067Y-73973267D01*
X131168019Y-74094219D01*
X127781353Y-73852314D02*
X127781353Y-75545648D01*
X128869924Y-73852314D02*
X128869924Y-75182790D01*
X128748972Y-75424695D01*
X128507067Y-75545648D01*
X128144210Y-75545648D01*
X127902305Y-75424695D01*
X127781353Y-75303743D01*
X126813734Y-73852314D02*
X126208972Y-75545648D01*
X125604210Y-73852314D02*
X126208972Y-75545648D01*
X126450877Y-76150410D01*
X126571829Y-76271362D01*
X126813734Y-76392314D01*
X124878496Y-73852314D02*
X124273734Y-75545648D01*
X123668972Y-73852314D01*
X121733734Y-75424695D02*
X121975639Y-75545648D01*
X122459448Y-75545648D01*
X122701353Y-75424695D01*
X122822305Y-75182790D01*
X122822305Y-74215171D01*
X122701353Y-73973267D01*
X122459448Y-73852314D01*
X121975639Y-73852314D01*
X121733734Y-73973267D01*
X121612782Y-74215171D01*
X121612782Y-74457076D01*
X122822305Y-74698981D01*
X120887067Y-73852314D02*
X119919448Y-73852314D01*
X120524210Y-73005648D02*
X120524210Y-75182790D01*
X120403258Y-75424695D01*
X120161353Y-75545648D01*
X119919448Y-75545648D01*
X119435638Y-73852314D02*
X118468019Y-73852314D01*
X119072781Y-73005648D02*
X119072781Y-75182790D01*
X118951829Y-75424695D01*
X118709924Y-75545648D01*
X118468019Y-75545648D01*
X116653733Y-75424695D02*
X116895638Y-75545648D01*
X117379447Y-75545648D01*
X117621352Y-75424695D01*
X117742304Y-75182790D01*
X117742304Y-74215171D01*
X117621352Y-73973267D01*
X117379447Y-73852314D01*
X116895638Y-73852314D01*
X116653733Y-73973267D01*
X116532781Y-74215171D01*
X116532781Y-74457076D01*
X117742304Y-74698981D01*
X115444209Y-75545648D02*
X115444209Y-73852314D01*
X115444209Y-74336124D02*
X115323257Y-74094219D01*
X115202304Y-73973267D01*
X114960400Y-73852314D01*
X114718495Y-73852314D01*
X145258970Y-77115648D02*
X143807542Y-77115648D01*
X144533256Y-79655648D02*
X144533256Y-77115648D01*
X142960875Y-79655648D02*
X142960875Y-77115648D01*
X141872304Y-79655648D02*
X141872304Y-78325171D01*
X141993256Y-78083267D01*
X142235161Y-77962314D01*
X142598018Y-77962314D01*
X142839923Y-78083267D01*
X142960875Y-78204219D01*
X140299923Y-79655648D02*
X140541828Y-79534695D01*
X140662780Y-79413743D01*
X140783732Y-79171838D01*
X140783732Y-78446124D01*
X140662780Y-78204219D01*
X140541828Y-78083267D01*
X140299923Y-77962314D01*
X139937066Y-77962314D01*
X139695161Y-78083267D01*
X139574209Y-78204219D01*
X139453256Y-78446124D01*
X139453256Y-79171838D01*
X139574209Y-79413743D01*
X139695161Y-79534695D01*
X139937066Y-79655648D01*
X140299923Y-79655648D01*
X138364685Y-79655648D02*
X138364685Y-77962314D01*
X138364685Y-78204219D02*
X138243733Y-78083267D01*
X138001828Y-77962314D01*
X137638971Y-77962314D01*
X137397066Y-78083267D01*
X137276114Y-78325171D01*
X137276114Y-79655648D01*
X137276114Y-78325171D02*
X137155161Y-78083267D01*
X136913257Y-77962314D01*
X136550399Y-77962314D01*
X136308495Y-78083267D01*
X136187542Y-78325171D01*
X136187542Y-79655648D01*
X133889447Y-79655648D02*
X133889447Y-78325171D01*
X134010399Y-78083267D01*
X134252304Y-77962314D01*
X134736113Y-77962314D01*
X134978018Y-78083267D01*
X133889447Y-79534695D02*
X134131351Y-79655648D01*
X134736113Y-79655648D01*
X134978018Y-79534695D01*
X135098970Y-79292790D01*
X135098970Y-79050886D01*
X134978018Y-78808981D01*
X134736113Y-78688029D01*
X134131351Y-78688029D01*
X133889447Y-78567076D01*
X132800875Y-79534695D02*
X132558971Y-79655648D01*
X132075161Y-79655648D01*
X131833256Y-79534695D01*
X131712304Y-79292790D01*
X131712304Y-79171838D01*
X131833256Y-78929933D01*
X132075161Y-78808981D01*
X132438018Y-78808981D01*
X132679923Y-78688029D01*
X132800875Y-78446124D01*
X132800875Y-78325171D01*
X132679923Y-78083267D01*
X132438018Y-77962314D01*
X132075161Y-77962314D01*
X131833256Y-78083267D01*
X127358019Y-77236600D02*
X127599924Y-77115648D01*
X127962781Y-77115648D01*
X128325638Y-77236600D01*
X128567543Y-77478505D01*
X128688495Y-77720410D01*
X128809447Y-78204219D01*
X128809447Y-78567076D01*
X128688495Y-79050886D01*
X128567543Y-79292790D01*
X128325638Y-79534695D01*
X127962781Y-79655648D01*
X127720876Y-79655648D01*
X127358019Y-79534695D01*
X127237067Y-79413743D01*
X127237067Y-78567076D01*
X127720876Y-78567076D01*
X125785638Y-79655648D02*
X126027543Y-79534695D01*
X126148495Y-79413743D01*
X126269447Y-79171838D01*
X126269447Y-78446124D01*
X126148495Y-78204219D01*
X126027543Y-78083267D01*
X125785638Y-77962314D01*
X125422781Y-77962314D01*
X125180876Y-78083267D01*
X125059924Y-78204219D01*
X124938971Y-78446124D01*
X124938971Y-79171838D01*
X125059924Y-79413743D01*
X125180876Y-79534695D01*
X125422781Y-79655648D01*
X125785638Y-79655648D01*
X123850400Y-79655648D02*
X123850400Y-77962314D01*
X123850400Y-78446124D02*
X123729448Y-78204219D01*
X123608495Y-78083267D01*
X123366591Y-77962314D01*
X123124686Y-77962314D01*
X122278019Y-79655648D02*
X122278019Y-77115648D01*
X121189448Y-79655648D02*
X121189448Y-78325171D01*
X121310400Y-78083267D01*
X121552305Y-77962314D01*
X121915162Y-77962314D01*
X122157067Y-78083267D01*
X122278019Y-78204219D01*
X118891353Y-79655648D02*
X118891353Y-78325171D01*
X119012305Y-78083267D01*
X119254210Y-77962314D01*
X119738019Y-77962314D01*
X119979924Y-78083267D01*
X118891353Y-79534695D02*
X119133257Y-79655648D01*
X119738019Y-79655648D01*
X119979924Y-79534695D01*
X120100876Y-79292790D01*
X120100876Y-79050886D01*
X119979924Y-78808981D01*
X119738019Y-78688029D01*
X119133257Y-78688029D01*
X118891353Y-78567076D01*
X117681829Y-79655648D02*
X117681829Y-77962314D01*
X117681829Y-78204219D02*
X117560877Y-78083267D01*
X117318972Y-77962314D01*
X116956115Y-77962314D01*
X116714210Y-78083267D01*
X116593258Y-78325171D01*
X116593258Y-79655648D01*
X116593258Y-78325171D02*
X116472305Y-78083267D01*
X116230401Y-77962314D01*
X115867543Y-77962314D01*
X115625639Y-78083267D01*
X115504686Y-78325171D01*
X115504686Y-79655648D01*
X142598018Y-83765648D02*
X142598018Y-81225648D01*
X141146590Y-83765648D01*
X141146590Y-81225648D01*
X138848495Y-83765648D02*
X138848495Y-82435171D01*
X138969447Y-82193267D01*
X139211352Y-82072314D01*
X139695161Y-82072314D01*
X139937066Y-82193267D01*
X138848495Y-83644695D02*
X139090399Y-83765648D01*
X139695161Y-83765648D01*
X139937066Y-83644695D01*
X140058018Y-83402790D01*
X140058018Y-83160886D01*
X139937066Y-82918981D01*
X139695161Y-82798029D01*
X139090399Y-82798029D01*
X138848495Y-82677076D01*
X138001828Y-82072314D02*
X137034209Y-82072314D01*
X137638971Y-81225648D02*
X137638971Y-83402790D01*
X137518019Y-83644695D01*
X137276114Y-83765648D01*
X137034209Y-83765648D01*
X136187542Y-83765648D02*
X136187542Y-81225648D01*
X135098971Y-83765648D02*
X135098971Y-82435171D01*
X135219923Y-82193267D01*
X135461828Y-82072314D01*
X135824685Y-82072314D01*
X136066590Y-82193267D01*
X136187542Y-82314219D01*
X132800876Y-83765648D02*
X132800876Y-82435171D01*
X132921828Y-82193267D01*
X133163733Y-82072314D01*
X133647542Y-82072314D01*
X133889447Y-82193267D01*
X132800876Y-83644695D02*
X133042780Y-83765648D01*
X133647542Y-83765648D01*
X133889447Y-83644695D01*
X134010399Y-83402790D01*
X134010399Y-83160886D01*
X133889447Y-82918981D01*
X133647542Y-82798029D01*
X133042780Y-82798029D01*
X132800876Y-82677076D01*
X131591352Y-82072314D02*
X131591352Y-83765648D01*
X131591352Y-82314219D02*
X131470400Y-82193267D01*
X131228495Y-82072314D01*
X130865638Y-82072314D01*
X130623733Y-82193267D01*
X130502781Y-82435171D01*
X130502781Y-83765648D01*
X126632305Y-81225648D02*
X126632305Y-83039933D01*
X126753257Y-83402790D01*
X126995162Y-83644695D01*
X127358019Y-83765648D01*
X127599924Y-83765648D01*
X125059924Y-83765648D02*
X125301829Y-83644695D01*
X125422781Y-83523743D01*
X125543733Y-83281838D01*
X125543733Y-82556124D01*
X125422781Y-82314219D01*
X125301829Y-82193267D01*
X125059924Y-82072314D01*
X124697067Y-82072314D01*
X124455162Y-82193267D01*
X124334210Y-82314219D01*
X124213257Y-82556124D01*
X124213257Y-83281838D01*
X124334210Y-83523743D01*
X124455162Y-83644695D01*
X124697067Y-83765648D01*
X125059924Y-83765648D01*
X123124686Y-82072314D02*
X123124686Y-83765648D01*
X123124686Y-82314219D02*
X123003734Y-82193267D01*
X122761829Y-82072314D01*
X122398972Y-82072314D01*
X122157067Y-82193267D01*
X122036115Y-82435171D01*
X122036115Y-83765648D01*
X119858972Y-83644695D02*
X120100877Y-83765648D01*
X120584686Y-83765648D01*
X120826591Y-83644695D01*
X120947543Y-83402790D01*
X120947543Y-82435171D01*
X120826591Y-82193267D01*
X120584686Y-82072314D01*
X120100877Y-82072314D01*
X119858972Y-82193267D01*
X119738020Y-82435171D01*
X119738020Y-82677076D01*
X120947543Y-82918981D01*
X118770400Y-83644695D02*
X118528496Y-83765648D01*
X118044686Y-83765648D01*
X117802781Y-83644695D01*
X117681829Y-83402790D01*
X117681829Y-83281838D01*
X117802781Y-83039933D01*
X118044686Y-82918981D01*
X118407543Y-82918981D01*
X118649448Y-82798029D01*
X118770400Y-82556124D01*
X118770400Y-82435171D01*
X118649448Y-82193267D01*
X118407543Y-82072314D01*
X118044686Y-82072314D01*
X117802781Y-82193267D01*
X141872304Y-87875648D02*
X141872304Y-85335648D01*
X141267542Y-85335648D01*
X140904685Y-85456600D01*
X140662780Y-85698505D01*
X140541828Y-85940410D01*
X140420876Y-86424219D01*
X140420876Y-86787076D01*
X140541828Y-87270886D01*
X140662780Y-87512790D01*
X140904685Y-87754695D01*
X141267542Y-87875648D01*
X141872304Y-87875648D01*
X138243733Y-87875648D02*
X138243733Y-86545171D01*
X138364685Y-86303267D01*
X138606590Y-86182314D01*
X139090399Y-86182314D01*
X139332304Y-86303267D01*
X138243733Y-87754695D02*
X138485637Y-87875648D01*
X139090399Y-87875648D01*
X139332304Y-87754695D01*
X139453256Y-87512790D01*
X139453256Y-87270886D01*
X139332304Y-87028981D01*
X139090399Y-86908029D01*
X138485637Y-86908029D01*
X138243733Y-86787076D01*
X137034209Y-87875648D02*
X137034209Y-86182314D01*
X137034209Y-86424219D02*
X136913257Y-86303267D01*
X136671352Y-86182314D01*
X136308495Y-86182314D01*
X136066590Y-86303267D01*
X135945638Y-86545171D01*
X135945638Y-87875648D01*
X135945638Y-86545171D02*
X135824685Y-86303267D01*
X135582781Y-86182314D01*
X135219923Y-86182314D01*
X134978019Y-86303267D01*
X134857066Y-86545171D01*
X134857066Y-87875648D01*
X133647542Y-87875648D02*
X133647542Y-86182314D01*
X133647542Y-85335648D02*
X133768494Y-85456600D01*
X133647542Y-85577552D01*
X133526590Y-85456600D01*
X133647542Y-85335648D01*
X133647542Y-85577552D01*
X131349447Y-87875648D02*
X131349447Y-86545171D01*
X131470399Y-86303267D01*
X131712304Y-86182314D01*
X132196113Y-86182314D01*
X132438018Y-86303267D01*
X131349447Y-87754695D02*
X131591351Y-87875648D01*
X132196113Y-87875648D01*
X132438018Y-87754695D01*
X132558970Y-87512790D01*
X132558970Y-87270886D01*
X132438018Y-87028981D01*
X132196113Y-86908029D01*
X131591351Y-86908029D01*
X131349447Y-86787076D01*
X130139923Y-86182314D02*
X130139923Y-87875648D01*
X130139923Y-86424219D02*
X130018971Y-86303267D01*
X129777066Y-86182314D01*
X129414209Y-86182314D01*
X129172304Y-86303267D01*
X129051352Y-86545171D01*
X129051352Y-87875648D01*
X124697066Y-87875648D02*
X125906590Y-87875648D01*
X125906590Y-85335648D01*
X123487543Y-87875648D02*
X123729448Y-87754695D01*
X123850400Y-87633743D01*
X123971352Y-87391838D01*
X123971352Y-86666124D01*
X123850400Y-86424219D01*
X123729448Y-86303267D01*
X123487543Y-86182314D01*
X123124686Y-86182314D01*
X122882781Y-86303267D01*
X122761829Y-86424219D01*
X122640876Y-86666124D01*
X122640876Y-87391838D01*
X122761829Y-87633743D01*
X122882781Y-87754695D01*
X123124686Y-87875648D01*
X123487543Y-87875648D01*
X121794210Y-86182314D02*
X121189448Y-87875648D01*
X120584686Y-86182314D02*
X121189448Y-87875648D01*
X121431353Y-88480410D01*
X121552305Y-88601362D01*
X121794210Y-88722314D01*
X118528496Y-87875648D02*
X118528496Y-86545171D01*
X118649448Y-86303267D01*
X118891353Y-86182314D01*
X119375162Y-86182314D01*
X119617067Y-86303267D01*
X118528496Y-87754695D02*
X118770400Y-87875648D01*
X119375162Y-87875648D01*
X119617067Y-87754695D01*
X119738019Y-87512790D01*
X119738019Y-87270886D01*
X119617067Y-87028981D01*
X119375162Y-86908029D01*
X118770400Y-86908029D01*
X118528496Y-86787076D01*
D12*
G36*
X120122347Y-94785894D02*
X120072916Y-94882922D01*
X120035521Y-95049182D01*
X120008519Y-95296659D01*
X119990263Y-95637338D01*
X119979107Y-96083202D01*
X119973406Y-96646237D01*
X119971513Y-97338426D01*
X119971784Y-98171754D01*
X119972573Y-99158205D01*
X119972667Y-99544003D01*
X119972667Y-104337540D01*
X119782167Y-104291526D01*
X119605120Y-104249425D01*
X119323965Y-104183254D01*
X118999517Y-104107325D01*
X118999000Y-104107205D01*
X118678308Y-104027751D01*
X118405071Y-103951880D01*
X118237955Y-103895892D01*
X118237000Y-103895480D01*
X118091501Y-103846878D01*
X117820212Y-103768691D01*
X117461798Y-103671677D01*
X117054928Y-103566591D01*
X117051667Y-103565768D01*
X116628816Y-103457978D01*
X116238508Y-103356468D01*
X115925388Y-103272973D01*
X115739892Y-103220970D01*
X115493143Y-103153037D01*
X115366970Y-103145143D01*
X115321381Y-103203553D01*
X115316000Y-103287390D01*
X115352723Y-103381510D01*
X115483334Y-103460342D01*
X115738501Y-103539356D01*
X115887500Y-103575690D01*
X116271143Y-103668633D01*
X116671360Y-103770853D01*
X116924667Y-103839051D01*
X117251345Y-103928886D01*
X117652701Y-104037378D01*
X118025333Y-104136662D01*
X118454820Y-104250117D01*
X118759714Y-104331100D01*
X118979155Y-104390332D01*
X119152282Y-104438533D01*
X119318236Y-104486421D01*
X119516157Y-104544718D01*
X119528167Y-104548268D01*
X119972667Y-104679647D01*
X119972667Y-106242977D01*
X119655167Y-106295457D01*
X119481052Y-106310448D01*
X119166020Y-106323850D01*
X118738485Y-106335013D01*
X118226860Y-106343284D01*
X117659558Y-106348011D01*
X117326833Y-106348868D01*
X116693377Y-106349585D01*
X116209203Y-106352245D01*
X115854260Y-106358600D01*
X115608496Y-106370406D01*
X115451861Y-106389417D01*
X115364303Y-106417387D01*
X115325771Y-106456071D01*
X115316215Y-106507223D01*
X115316000Y-106524804D01*
X115320445Y-106581958D01*
X115347745Y-106624390D01*
X115418845Y-106653520D01*
X115554692Y-106670763D01*
X115776232Y-106677539D01*
X116104412Y-106675264D01*
X116560177Y-106665356D01*
X117157500Y-106649423D01*
X117733576Y-106632229D01*
X118283593Y-106613182D01*
X118773913Y-106593648D01*
X119170897Y-106574992D01*
X119440907Y-106558582D01*
X119485833Y-106554881D01*
X119972667Y-106510725D01*
X119972667Y-107402316D01*
X119975486Y-107800197D01*
X119966043Y-108063092D01*
X119917484Y-108224719D01*
X119802958Y-108318796D01*
X119595613Y-108379040D01*
X119268597Y-108439171D01*
X119126000Y-108465462D01*
X118787788Y-108531703D01*
X118382662Y-108614131D01*
X118067667Y-108680200D01*
X117682684Y-108758953D01*
X117224733Y-108847631D01*
X116787833Y-108928064D01*
X116755333Y-108933823D01*
X116218532Y-109032869D01*
X115828606Y-109116737D01*
X115564554Y-109192432D01*
X115405377Y-109266955D01*
X115330075Y-109347310D01*
X115316000Y-109413800D01*
X115347244Y-109526090D01*
X115392296Y-109529973D01*
X115466193Y-109501378D01*
X115621267Y-109460053D01*
X115869406Y-109403579D01*
X116222503Y-109329540D01*
X116692447Y-109235517D01*
X117291128Y-109119093D01*
X118030437Y-108977849D01*
X118922265Y-108809369D01*
X119107186Y-108774596D01*
X119438613Y-108708324D01*
X119707334Y-108647210D01*
X119868583Y-108601691D01*
X119890352Y-108592013D01*
X119937856Y-108638110D01*
X119966959Y-108827522D01*
X119973806Y-109032970D01*
X119974945Y-109524800D01*
X120995273Y-109905800D01*
X121435760Y-110070084D01*
X121869026Y-110231333D01*
X122243637Y-110370424D01*
X122496968Y-110464113D01*
X122993701Y-110649546D01*
X123357959Y-110791537D01*
X123617634Y-110901016D01*
X123655667Y-110918226D01*
X123876034Y-111003186D01*
X124036667Y-111052896D01*
X124271360Y-111131110D01*
X124502333Y-111225589D01*
X124685556Y-111302818D01*
X124982467Y-111421279D01*
X125348029Y-111563211D01*
X125645333Y-111676329D01*
X126372278Y-111950552D01*
X126956460Y-112171405D01*
X127413683Y-112344936D01*
X127759750Y-112477194D01*
X128010466Y-112574228D01*
X128181632Y-112642087D01*
X128289054Y-112686819D01*
X128312333Y-112697141D01*
X128619894Y-112804625D01*
X128880280Y-112802585D01*
X129159000Y-112699117D01*
X129392065Y-112598137D01*
X129572545Y-112539243D01*
X129611871Y-112533339D01*
X129763214Y-112497679D01*
X129976349Y-112414925D01*
X129992871Y-112407396D01*
X130190932Y-112322601D01*
X130513131Y-112191975D01*
X130924957Y-112028884D01*
X131391896Y-111846693D01*
X131879438Y-111658766D01*
X132353070Y-111478469D01*
X132778281Y-111319166D01*
X133120559Y-111194223D01*
X133180667Y-111172898D01*
X133469603Y-111065260D01*
X133696459Y-110969970D01*
X133811433Y-110908100D01*
X133965588Y-110841318D01*
X134010305Y-110837133D01*
X134164779Y-110803414D01*
X134379500Y-110721512D01*
X134395538Y-110714218D01*
X134619515Y-110619020D01*
X135001763Y-110466835D01*
X135541243Y-110258064D01*
X136236913Y-109993111D01*
X137033000Y-109692936D01*
X137541000Y-109502097D01*
X137566591Y-109068949D01*
X137576651Y-108927663D01*
X137244667Y-108927663D01*
X137244667Y-109300967D01*
X136757833Y-109476861D01*
X136471273Y-109585357D01*
X136233778Y-109683997D01*
X136123982Y-109736944D01*
X135956071Y-109808000D01*
X135882778Y-109821133D01*
X135745431Y-109852558D01*
X135538899Y-109928938D01*
X135521796Y-109936235D01*
X135118795Y-110107222D01*
X134769865Y-110246944D01*
X134389523Y-110389000D01*
X134154333Y-110473737D01*
X133821965Y-110595734D01*
X133518396Y-110712535D01*
X133308902Y-110799020D01*
X133307667Y-110799573D01*
X133060655Y-110903577D01*
X132711954Y-111041900D01*
X132308678Y-111196796D01*
X131897938Y-111350516D01*
X131526848Y-111485312D01*
X131242521Y-111583437D01*
X131148667Y-111612894D01*
X130929276Y-111690852D01*
X130782097Y-111767703D01*
X130771900Y-111776335D01*
X130617319Y-111849149D01*
X130576755Y-111853133D01*
X130433275Y-111885169D01*
X130206998Y-111965824D01*
X130106855Y-112007486D01*
X129750766Y-112161069D01*
X129519953Y-112256465D01*
X129384980Y-112304326D01*
X129316416Y-112315304D01*
X129288452Y-112303674D01*
X129304612Y-112231557D01*
X129331267Y-112208363D01*
X129427172Y-112109534D01*
X129577810Y-111924649D01*
X129664037Y-111810800D01*
X129829033Y-111595164D01*
X129964154Y-111432007D01*
X130006553Y-111387467D01*
X130063802Y-111328633D01*
X130155327Y-111222176D01*
X130297479Y-111047973D01*
X130506610Y-110785899D01*
X130799071Y-110415832D01*
X130894519Y-110294692D01*
X131027899Y-110130344D01*
X131210923Y-109910518D01*
X131279737Y-109829026D01*
X131455028Y-109616495D01*
X131689407Y-109324568D01*
X131938873Y-109008186D01*
X131998109Y-108932133D01*
X132238989Y-108629144D01*
X132471708Y-108348527D01*
X132655107Y-108139595D01*
X132692539Y-108100120D01*
X132842453Y-107926463D01*
X132922523Y-107793962D01*
X132926667Y-107773357D01*
X132949121Y-107733291D01*
X133032409Y-107719693D01*
X133200416Y-107735276D01*
X133477031Y-107782756D01*
X133886141Y-107864844D01*
X134069667Y-107903226D01*
X134413324Y-107973032D01*
X134855025Y-108059204D01*
X135326093Y-108148465D01*
X135593667Y-108197872D01*
X135981483Y-108270265D01*
X136314804Y-108335526D01*
X136553893Y-108385688D01*
X136652000Y-108410048D01*
X136829080Y-108459780D01*
X137011833Y-108503341D01*
X137157533Y-108552892D01*
X137225289Y-108651690D01*
X137244174Y-108852719D01*
X137244667Y-108927663D01*
X137576651Y-108927663D01*
X137583984Y-108824686D01*
X137600808Y-108668391D01*
X137608925Y-108637493D01*
X137715291Y-108655071D01*
X137951511Y-108697381D01*
X138281061Y-108757662D01*
X138667415Y-108829152D01*
X139074049Y-108905090D01*
X139464438Y-108978715D01*
X139802058Y-109043266D01*
X139827000Y-109048088D01*
X140291255Y-109137508D01*
X140792420Y-109233343D01*
X141244069Y-109319087D01*
X141374519Y-109343671D01*
X141705946Y-109409943D01*
X141974667Y-109471056D01*
X142135916Y-109516575D01*
X142157686Y-109526254D01*
X142223743Y-109500454D01*
X142240000Y-109412671D01*
X142230551Y-109332879D01*
X142185850Y-109269426D01*
X142081365Y-109213823D01*
X141892565Y-109157580D01*
X141594919Y-109092207D01*
X141163895Y-109009214D01*
X140970000Y-108973138D01*
X140505115Y-108885784D01*
X140011437Y-108791079D01*
X139568411Y-108704330D01*
X139403667Y-108671345D01*
X138988011Y-108588904D01*
X138547798Y-108504189D01*
X138177913Y-108435457D01*
X138176000Y-108435112D01*
X137625667Y-108335926D01*
X137622611Y-108220140D01*
X137244667Y-108220140D01*
X136969500Y-108171943D01*
X136716484Y-108125813D01*
X136400053Y-108065816D01*
X136271000Y-108040741D01*
X135974330Y-107982329D01*
X135590745Y-107906477D01*
X135199397Y-107828841D01*
X135170333Y-107823063D01*
X134749235Y-107740354D01*
X134298705Y-107653444D01*
X133919760Y-107581799D01*
X133627834Y-107523328D01*
X133408741Y-107471594D01*
X133308941Y-107437592D01*
X133308412Y-107437101D01*
X133334153Y-107354747D01*
X133438874Y-107177284D01*
X133585318Y-106963739D01*
X133900333Y-106528486D01*
X135572500Y-106523809D01*
X137244667Y-106519133D01*
X137244667Y-108220140D01*
X137622611Y-108220140D01*
X137601602Y-107424229D01*
X137577538Y-106512532D01*
X137982602Y-106555358D01*
X138185607Y-106570062D01*
X138527012Y-106587241D01*
X138975925Y-106605670D01*
X139501452Y-106624123D01*
X140072703Y-106641375D01*
X140313833Y-106647839D01*
X140932000Y-106663370D01*
X141401375Y-106673025D01*
X141742441Y-106675483D01*
X141975678Y-106669423D01*
X142121567Y-106653525D01*
X142200589Y-106626468D01*
X142233226Y-106586932D01*
X142239958Y-106533596D01*
X142240000Y-106523646D01*
X142234935Y-106468876D01*
X142206372Y-106427001D01*
X142134264Y-106396279D01*
X141998563Y-106374968D01*
X141779219Y-106361324D01*
X141456184Y-106353605D01*
X141009409Y-106350069D01*
X140418846Y-106348973D01*
X140229167Y-106348868D01*
X139643042Y-106346419D01*
X139096619Y-106340060D01*
X138618312Y-106330443D01*
X138236535Y-106318220D01*
X137979701Y-106304042D01*
X137900833Y-106295457D01*
X137583333Y-106242977D01*
X137583333Y-105493258D01*
X137244667Y-105493258D01*
X137244667Y-106265133D01*
X136538007Y-106265133D01*
X136099993Y-106258247D01*
X135593076Y-106240060D01*
X135117023Y-106214280D01*
X135054974Y-106210025D01*
X134278600Y-106154916D01*
X134421873Y-105936254D01*
X134694898Y-105583348D01*
X134976545Y-105363954D01*
X135255000Y-105257372D01*
X135627934Y-105162388D01*
X136033525Y-105056974D01*
X136427031Y-104952993D01*
X136763712Y-104862308D01*
X136998823Y-104796782D01*
X137054167Y-104780348D01*
X137143854Y-104759143D01*
X137199770Y-104783049D01*
X137229891Y-104881915D01*
X137242194Y-105085590D01*
X137244654Y-105423924D01*
X137244667Y-105493258D01*
X137583333Y-105493258D01*
X137583333Y-105459994D01*
X137586476Y-105072275D01*
X137614909Y-104816694D01*
X137697145Y-104656082D01*
X137861694Y-104553274D01*
X138137065Y-104471103D01*
X138387667Y-104411465D01*
X138595516Y-104359985D01*
X138924859Y-104275465D01*
X139333661Y-104168807D01*
X139779885Y-104050919D01*
X139869333Y-104027109D01*
X140351925Y-103900235D01*
X140838539Y-103775318D01*
X141274781Y-103666141D01*
X141606256Y-103586488D01*
X141626167Y-103581908D01*
X141951496Y-103499352D01*
X142140868Y-103426285D01*
X142225804Y-103347214D01*
X142240000Y-103280182D01*
X142214443Y-103174286D01*
X142106411Y-103151411D01*
X141964833Y-103173366D01*
X141697265Y-103237688D01*
X141478000Y-103305725D01*
X141285178Y-103366695D01*
X140995107Y-103447332D01*
X140716000Y-103518831D01*
X140346407Y-103610989D01*
X139968080Y-103707546D01*
X139742333Y-103766590D01*
X139385055Y-103861042D01*
X138988565Y-103964861D01*
X138586815Y-104069285D01*
X138213757Y-104165552D01*
X137903344Y-104244900D01*
X137689528Y-104298567D01*
X137606442Y-104317800D01*
X137602179Y-104235647D01*
X137598171Y-103999240D01*
X137594490Y-103623661D01*
X137593027Y-103400702D01*
X137244667Y-103400702D01*
X137243061Y-103843359D01*
X137224019Y-104148449D01*
X137166199Y-104347693D01*
X137048263Y-104472813D01*
X136848870Y-104555530D01*
X136546681Y-104627565D01*
X136398000Y-104659262D01*
X136060311Y-104739459D01*
X135728305Y-104830699D01*
X135593667Y-104872964D01*
X135350236Y-104953888D01*
X135239282Y-104979876D01*
X135232237Y-104948327D01*
X135300535Y-104856640D01*
X135308133Y-104846967D01*
X135419184Y-104710376D01*
X135467149Y-104656467D01*
X135538507Y-104568648D01*
X135672429Y-104392263D01*
X135759006Y-104275467D01*
X135914678Y-104070623D01*
X136032189Y-103928261D01*
X136066025Y-103894467D01*
X136139390Y-103814070D01*
X136292554Y-103629678D01*
X136501266Y-103370888D01*
X136684334Y-103139842D01*
X137244667Y-102427551D01*
X137244667Y-103400702D01*
X137593027Y-103400702D01*
X137591210Y-103123989D01*
X137588403Y-102515305D01*
X137586984Y-102074133D01*
X137162858Y-102074133D01*
X136819923Y-102497467D01*
X136590601Y-102780024D01*
X136361946Y-103060929D01*
X136234371Y-103217133D01*
X136056651Y-103435675D01*
X135823588Y-103724204D01*
X135585523Y-104020398D01*
X135584666Y-104021467D01*
X135384242Y-104269187D01*
X135224333Y-104462422D01*
X135134583Y-104565449D01*
X135128000Y-104571800D01*
X135055010Y-104654472D01*
X134907209Y-104834484D01*
X134714108Y-105075792D01*
X134677464Y-105122133D01*
X134461448Y-105394530D01*
X134268483Y-105635622D01*
X134137696Y-105796542D01*
X134130753Y-105804894D01*
X133989036Y-105979231D01*
X133804211Y-106211949D01*
X133731000Y-106305394D01*
X133517774Y-106574203D01*
X133275342Y-106873397D01*
X133180667Y-106988326D01*
X132950959Y-107267660D01*
X132715457Y-107557714D01*
X132630333Y-107663782D01*
X132461549Y-107872864D01*
X132328010Y-108034106D01*
X132291667Y-108076090D01*
X132193560Y-108196949D01*
X132040761Y-108396837D01*
X131957476Y-108508800D01*
X131802852Y-108713404D01*
X131688101Y-108855755D01*
X131656056Y-108889800D01*
X131586272Y-108968659D01*
X131433039Y-109153562D01*
X131218146Y-109417891D01*
X130963382Y-109735028D01*
X130931914Y-109774432D01*
X130659908Y-110113366D01*
X130411480Y-110419515D01*
X130213512Y-110659971D01*
X130092889Y-110801824D01*
X130090333Y-110804670D01*
X129968592Y-110950063D01*
X129775123Y-111192507D01*
X129540118Y-111493825D01*
X129370667Y-111714614D01*
X129141845Y-112009671D01*
X128950044Y-112247378D01*
X128818368Y-112399695D01*
X128772059Y-112441209D01*
X128695831Y-112383539D01*
X128648240Y-112331536D01*
X128208319Y-112331536D01*
X128197445Y-112361133D01*
X128074627Y-112299609D01*
X128062359Y-112282980D01*
X127952329Y-112211129D01*
X127755542Y-112148048D01*
X127755326Y-112148001D01*
X127481715Y-112064212D01*
X127269464Y-111972675D01*
X127057365Y-111885779D01*
X126899164Y-111853655D01*
X126750258Y-111815242D01*
X126710845Y-111780081D01*
X126608436Y-111715572D01*
X126400654Y-111635742D01*
X126280333Y-111599133D01*
X126042879Y-111520794D01*
X125882297Y-111445798D01*
X125849822Y-111418186D01*
X125735180Y-111352370D01*
X125674299Y-111345133D01*
X125510581Y-111311321D01*
X125290994Y-111229305D01*
X125277129Y-111223039D01*
X125097368Y-111147616D01*
X124798414Y-111029492D01*
X124420102Y-110884139D01*
X124002267Y-110727028D01*
X123952000Y-110708356D01*
X123532148Y-110551020D01*
X123147091Y-110403835D01*
X122836658Y-110282217D01*
X122640674Y-110201581D01*
X122626871Y-110195451D01*
X122419219Y-110113313D01*
X122273115Y-110075426D01*
X122265889Y-110075133D01*
X122116839Y-110037198D01*
X122024685Y-109994568D01*
X121759661Y-109867717D01*
X121408352Y-109723209D01*
X121046691Y-109591952D01*
X120988667Y-109572865D01*
X120632260Y-109451572D01*
X120408381Y-109349554D01*
X120286510Y-109240383D01*
X120236123Y-109097633D01*
X120226667Y-108913078D01*
X120238708Y-108682696D01*
X120295360Y-108567197D01*
X120427415Y-108512695D01*
X120459500Y-108505636D01*
X120699457Y-108453451D01*
X120986462Y-108388549D01*
X121031000Y-108378247D01*
X121276120Y-108324833D01*
X121621935Y-108253845D01*
X122002670Y-108178720D01*
X122089333Y-108162064D01*
X122519391Y-108079326D01*
X122978398Y-107990138D01*
X123372852Y-107912678D01*
X123401667Y-107906967D01*
X123740311Y-107839832D01*
X124047749Y-107778965D01*
X124248333Y-107739339D01*
X124419731Y-107726959D01*
X124557451Y-107791584D01*
X124717943Y-107963467D01*
X124756333Y-108011590D01*
X124935774Y-108233440D01*
X125091638Y-108416479D01*
X125137333Y-108466472D01*
X125263592Y-108612681D01*
X125436392Y-108829495D01*
X125516904Y-108934926D01*
X125821096Y-109331300D01*
X126049657Y-109609846D01*
X126113964Y-109682415D01*
X126202716Y-109788045D01*
X126368265Y-109991630D01*
X126582373Y-110258302D01*
X126706285Y-110413800D01*
X126931151Y-110693265D01*
X127119685Y-110921182D01*
X127245205Y-111065613D01*
X127277920Y-111098045D01*
X127367851Y-111194465D01*
X127503850Y-111369136D01*
X127532266Y-111408218D01*
X127701724Y-111634675D01*
X127912376Y-111904014D01*
X128001948Y-112015140D01*
X128143083Y-112205872D01*
X128208319Y-112331536D01*
X128648240Y-112331536D01*
X128557097Y-112231944D01*
X128475726Y-112132629D01*
X128190441Y-111774070D01*
X127891908Y-111401561D01*
X127607741Y-111049299D01*
X127365552Y-110751479D01*
X127192956Y-110542297D01*
X127159988Y-110503243D01*
X126992913Y-110298191D01*
X126801125Y-110050759D01*
X126759456Y-109995243D01*
X126613641Y-109802866D01*
X126511160Y-109673993D01*
X126491318Y-109651800D01*
X126419530Y-109569338D01*
X126272295Y-109392479D01*
X126080630Y-109158505D01*
X126068667Y-109143800D01*
X125875358Y-108907633D01*
X125724660Y-108726394D01*
X125647590Y-108637365D01*
X125646016Y-108635800D01*
X125573851Y-108548059D01*
X125439128Y-108371825D01*
X125351963Y-108254800D01*
X125186967Y-108039164D01*
X125051846Y-107876007D01*
X125009447Y-107831467D01*
X124910690Y-107723129D01*
X124746896Y-107526598D01*
X124682102Y-107445592D01*
X124275727Y-107445592D01*
X124273809Y-107450481D01*
X124184897Y-107465861D01*
X123970849Y-107506753D01*
X123672544Y-107565304D01*
X123571000Y-107585484D01*
X123135324Y-107672244D01*
X122656663Y-107767459D01*
X122258667Y-107846540D01*
X121846678Y-107928506D01*
X121405574Y-108016532D01*
X121073333Y-108083044D01*
X120693127Y-108160539D01*
X120447335Y-108193143D01*
X120306875Y-108156218D01*
X120242664Y-108025129D01*
X120225620Y-107775238D01*
X120226660Y-107381908D01*
X120226667Y-107365800D01*
X120226667Y-106519133D01*
X121877667Y-106519133D01*
X122453461Y-106520552D01*
X122883866Y-106526145D01*
X123192814Y-106537923D01*
X123404235Y-106557891D01*
X123542060Y-106588059D01*
X123630220Y-106630434D01*
X123676833Y-106670093D01*
X123800311Y-106808734D01*
X123954307Y-106997917D01*
X124106454Y-107195329D01*
X124224383Y-107358658D01*
X124275727Y-107445592D01*
X124682102Y-107445592D01*
X124584416Y-107323467D01*
X124391949Y-107082309D01*
X124228739Y-106884498D01*
X124144248Y-106788252D01*
X124052358Y-106663916D01*
X124036667Y-106616621D01*
X123984729Y-106521768D01*
X123855071Y-106357846D01*
X123803833Y-106299810D01*
X123635466Y-106106815D01*
X123190000Y-106106815D01*
X123122842Y-106147404D01*
X122916602Y-106181120D01*
X122564130Y-106208480D01*
X122058276Y-106230000D01*
X121391890Y-106246199D01*
X121221500Y-106249124D01*
X120226667Y-106265133D01*
X120226667Y-105503133D01*
X120230923Y-105167553D01*
X120242324Y-104907379D01*
X120258818Y-104760392D01*
X120268055Y-104741133D01*
X120363735Y-104761292D01*
X120581047Y-104814825D01*
X120878052Y-104891318D01*
X120966555Y-104914581D01*
X121524209Y-105062965D01*
X121943416Y-105179656D01*
X122249731Y-105275103D01*
X122468713Y-105359760D01*
X122625918Y-105444077D01*
X122746903Y-105538506D01*
X122857226Y-105653500D01*
X122903239Y-105706597D01*
X123065789Y-105908065D01*
X123169714Y-106059090D01*
X123190000Y-106106815D01*
X123635466Y-106106815D01*
X123483969Y-105933158D01*
X123112562Y-105486091D01*
X122736697Y-105015842D01*
X122615252Y-104858972D01*
X122174000Y-104858972D01*
X122171982Y-104889445D01*
X122145267Y-104902412D01*
X122062868Y-104893013D01*
X121893797Y-104856387D01*
X121607065Y-104787674D01*
X121402465Y-104737962D01*
X121045433Y-104647170D01*
X120725590Y-104558679D01*
X120498929Y-104488181D01*
X120459500Y-104473691D01*
X120226667Y-104381923D01*
X120226667Y-103418528D01*
X120229116Y-103037369D01*
X120235770Y-102727440D01*
X120245587Y-102522345D01*
X120256510Y-102455133D01*
X120318302Y-102517262D01*
X120455630Y-102682126D01*
X120641833Y-102917444D01*
X120693514Y-102984300D01*
X120898799Y-103246649D01*
X121072605Y-103460759D01*
X121182702Y-103587100D01*
X121193993Y-103598133D01*
X121299046Y-103712004D01*
X121463505Y-103909630D01*
X121658661Y-104154075D01*
X121855803Y-104408402D01*
X122026222Y-104635674D01*
X122141209Y-104798955D01*
X122174000Y-104858972D01*
X122615252Y-104858972D01*
X122563457Y-104792069D01*
X122383914Y-104561945D01*
X122242822Y-104389721D01*
X122176098Y-104317800D01*
X122102012Y-104236867D01*
X121949354Y-104053727D01*
X121743843Y-103799577D01*
X121606986Y-103627400D01*
X121362874Y-103322254D01*
X121137034Y-103046724D01*
X120963868Y-102842500D01*
X120908332Y-102780733D01*
X120721232Y-102552725D01*
X120582899Y-102349300D01*
X120461656Y-102186872D01*
X120359538Y-102114728D01*
X120356579Y-102114539D01*
X120362336Y-102083422D01*
X120489680Y-102009361D01*
X120523000Y-101993323D01*
X120864922Y-101836107D01*
X121183163Y-101695647D01*
X121439766Y-101588137D01*
X121596774Y-101529768D01*
X121623667Y-101523800D01*
X121728518Y-101491382D01*
X121971659Y-101392532D01*
X122358840Y-101224854D01*
X122639667Y-101100467D01*
X123103218Y-100896188D01*
X123422746Y-100760610D01*
X123607282Y-100689986D01*
X123659393Y-100677133D01*
X123767118Y-100645251D01*
X123956750Y-100567377D01*
X123981538Y-100556252D01*
X124489918Y-100328620D01*
X124846223Y-100175305D01*
X125050518Y-100096281D01*
X125098726Y-100084466D01*
X125206221Y-100052176D01*
X125395491Y-99973278D01*
X125420871Y-99961713D01*
X125654236Y-99858546D01*
X125985100Y-99717878D01*
X126385088Y-99551193D01*
X126825821Y-99369974D01*
X127278923Y-99185702D01*
X127716018Y-99009862D01*
X128108727Y-98853936D01*
X128428675Y-98729407D01*
X128647484Y-98647757D01*
X128735667Y-98620365D01*
X128833078Y-98651048D01*
X129058393Y-98735441D01*
X129383235Y-98862062D01*
X129779226Y-99019427D01*
X130217991Y-99196053D01*
X130671151Y-99380459D01*
X131110329Y-99561161D01*
X131507150Y-99726675D01*
X131833236Y-99865520D01*
X132050462Y-99961713D01*
X132246095Y-100044557D01*
X132369754Y-100083945D01*
X132376333Y-100084467D01*
X132486789Y-100116428D01*
X132677952Y-100194467D01*
X132702205Y-100205347D01*
X133196764Y-100426892D01*
X133550924Y-100579850D01*
X133760111Y-100662282D01*
X133815667Y-100677133D01*
X133920518Y-100709551D01*
X134163659Y-100808401D01*
X134550840Y-100976079D01*
X134831667Y-101100467D01*
X135301732Y-101307597D01*
X135624548Y-101444563D01*
X135805865Y-101513759D01*
X135847667Y-101523800D01*
X135904738Y-101537944D01*
X136032748Y-101586551D01*
X136254054Y-101678883D01*
X136591016Y-101824202D01*
X136928596Y-101971570D01*
X137162858Y-102074133D01*
X137586984Y-102074133D01*
X137586142Y-101812688D01*
X137584499Y-101031219D01*
X137583549Y-100185978D01*
X137583333Y-99534133D01*
X137583333Y-98432905D01*
X137244667Y-98432905D01*
X137244304Y-99273076D01*
X137242759Y-99959115D01*
X137239346Y-100506220D01*
X137233381Y-100929591D01*
X137224177Y-101244429D01*
X137211051Y-101465932D01*
X137193316Y-101609300D01*
X137170287Y-101689734D01*
X137141280Y-101722431D01*
X137105609Y-101722593D01*
X137096500Y-101719666D01*
X136923319Y-101641952D01*
X136863667Y-101605686D01*
X136721553Y-101535783D01*
X136567333Y-101481740D01*
X136337344Y-101400701D01*
X136007434Y-101268367D01*
X135630494Y-101106407D01*
X135424333Y-101013488D01*
X135297138Y-100959227D01*
X135039085Y-100852298D01*
X134676335Y-100703428D01*
X134235048Y-100523343D01*
X133741386Y-100322769D01*
X133604000Y-100267096D01*
X133029946Y-100034590D01*
X132434464Y-99793384D01*
X131862512Y-99561690D01*
X131359044Y-99357719D01*
X130979333Y-99203862D01*
X130588923Y-99044606D01*
X130243611Y-98901828D01*
X129980600Y-98791036D01*
X129837093Y-98727739D01*
X129836333Y-98727372D01*
X129647738Y-98646178D01*
X129392288Y-98547499D01*
X129328333Y-98524261D01*
X129152271Y-98450586D01*
X129152016Y-98450376D01*
X128467488Y-98450376D01*
X128220577Y-98511950D01*
X127955895Y-98595396D01*
X127719667Y-98690405D01*
X127525624Y-98775138D01*
X127227485Y-98900173D01*
X126878515Y-99043277D01*
X126746000Y-99096827D01*
X126378954Y-99245800D01*
X125886818Y-99447437D01*
X125300633Y-99688858D01*
X124651442Y-99957179D01*
X123970287Y-100239518D01*
X123288210Y-100522992D01*
X122636253Y-100794720D01*
X122045457Y-101041817D01*
X121546865Y-101251403D01*
X121200333Y-101398287D01*
X120850369Y-101546066D01*
X120558447Y-101666402D01*
X120359336Y-101745147D01*
X120290167Y-101768698D01*
X120276255Y-101689076D01*
X120263397Y-101458068D01*
X120251932Y-101093621D01*
X120242201Y-100613679D01*
X120234546Y-100036190D01*
X120229306Y-99379098D01*
X120226824Y-98660350D01*
X120226667Y-98424408D01*
X120227699Y-97551724D01*
X120231067Y-96835607D01*
X120237179Y-96263301D01*
X120246443Y-95822051D01*
X120259265Y-95499102D01*
X120276055Y-95281698D01*
X120297218Y-95157085D01*
X120323164Y-95112506D01*
X120332500Y-95113043D01*
X120564604Y-95206504D01*
X120900939Y-95343614D01*
X121310984Y-95511758D01*
X121764217Y-95698324D01*
X122230117Y-95890700D01*
X122678163Y-96076272D01*
X123077835Y-96242427D01*
X123398610Y-96376553D01*
X123609969Y-96466036D01*
X123668462Y-96491628D01*
X123864260Y-96573692D01*
X123987876Y-96612634D01*
X123994333Y-96613133D01*
X124104789Y-96645094D01*
X124295952Y-96723134D01*
X124320205Y-96734014D01*
X124828585Y-96961646D01*
X125184890Y-97114961D01*
X125389185Y-97193985D01*
X125437393Y-97205800D01*
X125544884Y-97238097D01*
X125734147Y-97317016D01*
X125759538Y-97328588D01*
X125947760Y-97409910D01*
X126248443Y-97533949D01*
X126616183Y-97682161D01*
X126915333Y-97800642D01*
X127312956Y-97958656D01*
X127687293Y-98110584D01*
X127989108Y-98236276D01*
X128135911Y-98300141D01*
X128467488Y-98450376D01*
X129152016Y-98450376D01*
X129094125Y-98402752D01*
X129116667Y-98394226D01*
X129268107Y-98353532D01*
X129495568Y-98262109D01*
X129582333Y-98221800D01*
X129802926Y-98121511D01*
X129958649Y-98062055D01*
X129989145Y-98055339D01*
X130089381Y-98026700D01*
X130305576Y-97941050D01*
X130651063Y-97792884D01*
X131021667Y-97629133D01*
X131485218Y-97424855D01*
X131804746Y-97289277D01*
X131989282Y-97218652D01*
X132041393Y-97205800D01*
X132149118Y-97173917D01*
X132338750Y-97096044D01*
X132363538Y-97084919D01*
X132871918Y-96857287D01*
X133228223Y-96703972D01*
X133432518Y-96624948D01*
X133480726Y-96613133D01*
X133588295Y-96580973D01*
X133777681Y-96502401D01*
X133802871Y-96490979D01*
X133975776Y-96416395D01*
X134270185Y-96294195D01*
X134650163Y-96139109D01*
X135079776Y-95965864D01*
X135255000Y-95895767D01*
X135683917Y-95723764D01*
X136067363Y-95568460D01*
X136372772Y-95443161D01*
X136567575Y-95361172D01*
X136609667Y-95342335D01*
X136820293Y-95251579D01*
X137011833Y-95177643D01*
X137244667Y-95093324D01*
X137244667Y-98432905D01*
X137583333Y-98432905D01*
X137583333Y-94750467D01*
X137392833Y-94753339D01*
X137198074Y-94791524D01*
X136943682Y-94883382D01*
X136863667Y-94919800D01*
X136643075Y-95020089D01*
X136487351Y-95079545D01*
X136456855Y-95086260D01*
X136342391Y-95120531D01*
X136094278Y-95221044D01*
X135705703Y-95390659D01*
X135326871Y-95560919D01*
X135130991Y-95642592D01*
X135007397Y-95681311D01*
X135001000Y-95681800D01*
X134890539Y-95713752D01*
X134699368Y-95791767D01*
X134675129Y-95802637D01*
X134536235Y-95862427D01*
X134260520Y-95978435D01*
X133867756Y-96142439D01*
X133377713Y-96346216D01*
X132810164Y-96581543D01*
X132184879Y-96840196D01*
X131595988Y-97083291D01*
X128783642Y-98243108D01*
X128082321Y-97966236D01*
X127652832Y-97795705D01*
X127315414Y-97658606D01*
X127004140Y-97527463D01*
X126653079Y-97374802D01*
X126475479Y-97296586D01*
X126239504Y-97196530D01*
X126071837Y-97133000D01*
X126026333Y-97121133D01*
X125937262Y-97094800D01*
X125731355Y-97012201D01*
X125395651Y-96867939D01*
X125010333Y-96698028D01*
X124864875Y-96637500D01*
X124601576Y-96531587D01*
X124260420Y-96396266D01*
X123952000Y-96275106D01*
X123563475Y-96121502D01*
X123207214Y-95977734D01*
X122928662Y-95862301D01*
X122796205Y-95804588D01*
X122601783Y-95721810D01*
X122480460Y-95682345D01*
X122474059Y-95681800D01*
X122355487Y-95644672D01*
X122084941Y-95533269D01*
X121662357Y-95347564D01*
X121356871Y-95210014D01*
X121156702Y-95127245D01*
X121025015Y-95086904D01*
X121018205Y-95086260D01*
X120903616Y-95050332D01*
X120700171Y-94963336D01*
X120607667Y-94919800D01*
X120473362Y-94850427D01*
X120359324Y-94790366D01*
X120263906Y-94751601D01*
X120185462Y-94746116D01*
X120122347Y-94785894D01*
X120122347Y-94785894D01*
G37*
X120122347Y-94785894D02*
X120072916Y-94882922D01*
X120035521Y-95049182D01*
X120008519Y-95296659D01*
X119990263Y-95637338D01*
X119979107Y-96083202D01*
X119973406Y-96646237D01*
X119971513Y-97338426D01*
X119971784Y-98171754D01*
X119972573Y-99158205D01*
X119972667Y-99544003D01*
X119972667Y-104337540D01*
X119782167Y-104291526D01*
X119605120Y-104249425D01*
X119323965Y-104183254D01*
X118999517Y-104107325D01*
X118999000Y-104107205D01*
X118678308Y-104027751D01*
X118405071Y-103951880D01*
X118237955Y-103895892D01*
X118237000Y-103895480D01*
X118091501Y-103846878D01*
X117820212Y-103768691D01*
X117461798Y-103671677D01*
X117054928Y-103566591D01*
X117051667Y-103565768D01*
X116628816Y-103457978D01*
X116238508Y-103356468D01*
X115925388Y-103272973D01*
X115739892Y-103220970D01*
X115493143Y-103153037D01*
X115366970Y-103145143D01*
X115321381Y-103203553D01*
X115316000Y-103287390D01*
X115352723Y-103381510D01*
X115483334Y-103460342D01*
X115738501Y-103539356D01*
X115887500Y-103575690D01*
X116271143Y-103668633D01*
X116671360Y-103770853D01*
X116924667Y-103839051D01*
X117251345Y-103928886D01*
X117652701Y-104037378D01*
X118025333Y-104136662D01*
X118454820Y-104250117D01*
X118759714Y-104331100D01*
X118979155Y-104390332D01*
X119152282Y-104438533D01*
X119318236Y-104486421D01*
X119516157Y-104544718D01*
X119528167Y-104548268D01*
X119972667Y-104679647D01*
X119972667Y-106242977D01*
X119655167Y-106295457D01*
X119481052Y-106310448D01*
X119166020Y-106323850D01*
X118738485Y-106335013D01*
X118226860Y-106343284D01*
X117659558Y-106348011D01*
X117326833Y-106348868D01*
X116693377Y-106349585D01*
X116209203Y-106352245D01*
X115854260Y-106358600D01*
X115608496Y-106370406D01*
X115451861Y-106389417D01*
X115364303Y-106417387D01*
X115325771Y-106456071D01*
X115316215Y-106507223D01*
X115316000Y-106524804D01*
X115320445Y-106581958D01*
X115347745Y-106624390D01*
X115418845Y-106653520D01*
X115554692Y-106670763D01*
X115776232Y-106677539D01*
X116104412Y-106675264D01*
X116560177Y-106665356D01*
X117157500Y-106649423D01*
X117733576Y-106632229D01*
X118283593Y-106613182D01*
X118773913Y-106593648D01*
X119170897Y-106574992D01*
X119440907Y-106558582D01*
X119485833Y-106554881D01*
X119972667Y-106510725D01*
X119972667Y-107402316D01*
X119975486Y-107800197D01*
X119966043Y-108063092D01*
X119917484Y-108224719D01*
X119802958Y-108318796D01*
X119595613Y-108379040D01*
X119268597Y-108439171D01*
X119126000Y-108465462D01*
X118787788Y-108531703D01*
X118382662Y-108614131D01*
X118067667Y-108680200D01*
X117682684Y-108758953D01*
X117224733Y-108847631D01*
X116787833Y-108928064D01*
X116755333Y-108933823D01*
X116218532Y-109032869D01*
X115828606Y-109116737D01*
X115564554Y-109192432D01*
X115405377Y-109266955D01*
X115330075Y-109347310D01*
X115316000Y-109413800D01*
X115347244Y-109526090D01*
X115392296Y-109529973D01*
X115466193Y-109501378D01*
X115621267Y-109460053D01*
X115869406Y-109403579D01*
X116222503Y-109329540D01*
X116692447Y-109235517D01*
X117291128Y-109119093D01*
X118030437Y-108977849D01*
X118922265Y-108809369D01*
X119107186Y-108774596D01*
X119438613Y-108708324D01*
X119707334Y-108647210D01*
X119868583Y-108601691D01*
X119890352Y-108592013D01*
X119937856Y-108638110D01*
X119966959Y-108827522D01*
X119973806Y-109032970D01*
X119974945Y-109524800D01*
X120995273Y-109905800D01*
X121435760Y-110070084D01*
X121869026Y-110231333D01*
X122243637Y-110370424D01*
X122496968Y-110464113D01*
X122993701Y-110649546D01*
X123357959Y-110791537D01*
X123617634Y-110901016D01*
X123655667Y-110918226D01*
X123876034Y-111003186D01*
X124036667Y-111052896D01*
X124271360Y-111131110D01*
X124502333Y-111225589D01*
X124685556Y-111302818D01*
X124982467Y-111421279D01*
X125348029Y-111563211D01*
X125645333Y-111676329D01*
X126372278Y-111950552D01*
X126956460Y-112171405D01*
X127413683Y-112344936D01*
X127759750Y-112477194D01*
X128010466Y-112574228D01*
X128181632Y-112642087D01*
X128289054Y-112686819D01*
X128312333Y-112697141D01*
X128619894Y-112804625D01*
X128880280Y-112802585D01*
X129159000Y-112699117D01*
X129392065Y-112598137D01*
X129572545Y-112539243D01*
X129611871Y-112533339D01*
X129763214Y-112497679D01*
X129976349Y-112414925D01*
X129992871Y-112407396D01*
X130190932Y-112322601D01*
X130513131Y-112191975D01*
X130924957Y-112028884D01*
X131391896Y-111846693D01*
X131879438Y-111658766D01*
X132353070Y-111478469D01*
X132778281Y-111319166D01*
X133120559Y-111194223D01*
X133180667Y-111172898D01*
X133469603Y-111065260D01*
X133696459Y-110969970D01*
X133811433Y-110908100D01*
X133965588Y-110841318D01*
X134010305Y-110837133D01*
X134164779Y-110803414D01*
X134379500Y-110721512D01*
X134395538Y-110714218D01*
X134619515Y-110619020D01*
X135001763Y-110466835D01*
X135541243Y-110258064D01*
X136236913Y-109993111D01*
X137033000Y-109692936D01*
X137541000Y-109502097D01*
X137566591Y-109068949D01*
X137576651Y-108927663D01*
X137244667Y-108927663D01*
X137244667Y-109300967D01*
X136757833Y-109476861D01*
X136471273Y-109585357D01*
X136233778Y-109683997D01*
X136123982Y-109736944D01*
X135956071Y-109808000D01*
X135882778Y-109821133D01*
X135745431Y-109852558D01*
X135538899Y-109928938D01*
X135521796Y-109936235D01*
X135118795Y-110107222D01*
X134769865Y-110246944D01*
X134389523Y-110389000D01*
X134154333Y-110473737D01*
X133821965Y-110595734D01*
X133518396Y-110712535D01*
X133308902Y-110799020D01*
X133307667Y-110799573D01*
X133060655Y-110903577D01*
X132711954Y-111041900D01*
X132308678Y-111196796D01*
X131897938Y-111350516D01*
X131526848Y-111485312D01*
X131242521Y-111583437D01*
X131148667Y-111612894D01*
X130929276Y-111690852D01*
X130782097Y-111767703D01*
X130771900Y-111776335D01*
X130617319Y-111849149D01*
X130576755Y-111853133D01*
X130433275Y-111885169D01*
X130206998Y-111965824D01*
X130106855Y-112007486D01*
X129750766Y-112161069D01*
X129519953Y-112256465D01*
X129384980Y-112304326D01*
X129316416Y-112315304D01*
X129288452Y-112303674D01*
X129304612Y-112231557D01*
X129331267Y-112208363D01*
X129427172Y-112109534D01*
X129577810Y-111924649D01*
X129664037Y-111810800D01*
X129829033Y-111595164D01*
X129964154Y-111432007D01*
X130006553Y-111387467D01*
X130063802Y-111328633D01*
X130155327Y-111222176D01*
X130297479Y-111047973D01*
X130506610Y-110785899D01*
X130799071Y-110415832D01*
X130894519Y-110294692D01*
X131027899Y-110130344D01*
X131210923Y-109910518D01*
X131279737Y-109829026D01*
X131455028Y-109616495D01*
X131689407Y-109324568D01*
X131938873Y-109008186D01*
X131998109Y-108932133D01*
X132238989Y-108629144D01*
X132471708Y-108348527D01*
X132655107Y-108139595D01*
X132692539Y-108100120D01*
X132842453Y-107926463D01*
X132922523Y-107793962D01*
X132926667Y-107773357D01*
X132949121Y-107733291D01*
X133032409Y-107719693D01*
X133200416Y-107735276D01*
X133477031Y-107782756D01*
X133886141Y-107864844D01*
X134069667Y-107903226D01*
X134413324Y-107973032D01*
X134855025Y-108059204D01*
X135326093Y-108148465D01*
X135593667Y-108197872D01*
X135981483Y-108270265D01*
X136314804Y-108335526D01*
X136553893Y-108385688D01*
X136652000Y-108410048D01*
X136829080Y-108459780D01*
X137011833Y-108503341D01*
X137157533Y-108552892D01*
X137225289Y-108651690D01*
X137244174Y-108852719D01*
X137244667Y-108927663D01*
X137576651Y-108927663D01*
X137583984Y-108824686D01*
X137600808Y-108668391D01*
X137608925Y-108637493D01*
X137715291Y-108655071D01*
X137951511Y-108697381D01*
X138281061Y-108757662D01*
X138667415Y-108829152D01*
X139074049Y-108905090D01*
X139464438Y-108978715D01*
X139802058Y-109043266D01*
X139827000Y-109048088D01*
X140291255Y-109137508D01*
X140792420Y-109233343D01*
X141244069Y-109319087D01*
X141374519Y-109343671D01*
X141705946Y-109409943D01*
X141974667Y-109471056D01*
X142135916Y-109516575D01*
X142157686Y-109526254D01*
X142223743Y-109500454D01*
X142240000Y-109412671D01*
X142230551Y-109332879D01*
X142185850Y-109269426D01*
X142081365Y-109213823D01*
X141892565Y-109157580D01*
X141594919Y-109092207D01*
X141163895Y-109009214D01*
X140970000Y-108973138D01*
X140505115Y-108885784D01*
X140011437Y-108791079D01*
X139568411Y-108704330D01*
X139403667Y-108671345D01*
X138988011Y-108588904D01*
X138547798Y-108504189D01*
X138177913Y-108435457D01*
X138176000Y-108435112D01*
X137625667Y-108335926D01*
X137622611Y-108220140D01*
X137244667Y-108220140D01*
X136969500Y-108171943D01*
X136716484Y-108125813D01*
X136400053Y-108065816D01*
X136271000Y-108040741D01*
X135974330Y-107982329D01*
X135590745Y-107906477D01*
X135199397Y-107828841D01*
X135170333Y-107823063D01*
X134749235Y-107740354D01*
X134298705Y-107653444D01*
X133919760Y-107581799D01*
X133627834Y-107523328D01*
X133408741Y-107471594D01*
X133308941Y-107437592D01*
X133308412Y-107437101D01*
X133334153Y-107354747D01*
X133438874Y-107177284D01*
X133585318Y-106963739D01*
X133900333Y-106528486D01*
X135572500Y-106523809D01*
X137244667Y-106519133D01*
X137244667Y-108220140D01*
X137622611Y-108220140D01*
X137601602Y-107424229D01*
X137577538Y-106512532D01*
X137982602Y-106555358D01*
X138185607Y-106570062D01*
X138527012Y-106587241D01*
X138975925Y-106605670D01*
X139501452Y-106624123D01*
X140072703Y-106641375D01*
X140313833Y-106647839D01*
X140932000Y-106663370D01*
X141401375Y-106673025D01*
X141742441Y-106675483D01*
X141975678Y-106669423D01*
X142121567Y-106653525D01*
X142200589Y-106626468D01*
X142233226Y-106586932D01*
X142239958Y-106533596D01*
X142240000Y-106523646D01*
X142234935Y-106468876D01*
X142206372Y-106427001D01*
X142134264Y-106396279D01*
X141998563Y-106374968D01*
X141779219Y-106361324D01*
X141456184Y-106353605D01*
X141009409Y-106350069D01*
X140418846Y-106348973D01*
X140229167Y-106348868D01*
X139643042Y-106346419D01*
X139096619Y-106340060D01*
X138618312Y-106330443D01*
X138236535Y-106318220D01*
X137979701Y-106304042D01*
X137900833Y-106295457D01*
X137583333Y-106242977D01*
X137583333Y-105493258D01*
X137244667Y-105493258D01*
X137244667Y-106265133D01*
X136538007Y-106265133D01*
X136099993Y-106258247D01*
X135593076Y-106240060D01*
X135117023Y-106214280D01*
X135054974Y-106210025D01*
X134278600Y-106154916D01*
X134421873Y-105936254D01*
X134694898Y-105583348D01*
X134976545Y-105363954D01*
X135255000Y-105257372D01*
X135627934Y-105162388D01*
X136033525Y-105056974D01*
X136427031Y-104952993D01*
X136763712Y-104862308D01*
X136998823Y-104796782D01*
X137054167Y-104780348D01*
X137143854Y-104759143D01*
X137199770Y-104783049D01*
X137229891Y-104881915D01*
X137242194Y-105085590D01*
X137244654Y-105423924D01*
X137244667Y-105493258D01*
X137583333Y-105493258D01*
X137583333Y-105459994D01*
X137586476Y-105072275D01*
X137614909Y-104816694D01*
X137697145Y-104656082D01*
X137861694Y-104553274D01*
X138137065Y-104471103D01*
X138387667Y-104411465D01*
X138595516Y-104359985D01*
X138924859Y-104275465D01*
X139333661Y-104168807D01*
X139779885Y-104050919D01*
X139869333Y-104027109D01*
X140351925Y-103900235D01*
X140838539Y-103775318D01*
X141274781Y-103666141D01*
X141606256Y-103586488D01*
X141626167Y-103581908D01*
X141951496Y-103499352D01*
X142140868Y-103426285D01*
X142225804Y-103347214D01*
X142240000Y-103280182D01*
X142214443Y-103174286D01*
X142106411Y-103151411D01*
X141964833Y-103173366D01*
X141697265Y-103237688D01*
X141478000Y-103305725D01*
X141285178Y-103366695D01*
X140995107Y-103447332D01*
X140716000Y-103518831D01*
X140346407Y-103610989D01*
X139968080Y-103707546D01*
X139742333Y-103766590D01*
X139385055Y-103861042D01*
X138988565Y-103964861D01*
X138586815Y-104069285D01*
X138213757Y-104165552D01*
X137903344Y-104244900D01*
X137689528Y-104298567D01*
X137606442Y-104317800D01*
X137602179Y-104235647D01*
X137598171Y-103999240D01*
X137594490Y-103623661D01*
X137593027Y-103400702D01*
X137244667Y-103400702D01*
X137243061Y-103843359D01*
X137224019Y-104148449D01*
X137166199Y-104347693D01*
X137048263Y-104472813D01*
X136848870Y-104555530D01*
X136546681Y-104627565D01*
X136398000Y-104659262D01*
X136060311Y-104739459D01*
X135728305Y-104830699D01*
X135593667Y-104872964D01*
X135350236Y-104953888D01*
X135239282Y-104979876D01*
X135232237Y-104948327D01*
X135300535Y-104856640D01*
X135308133Y-104846967D01*
X135419184Y-104710376D01*
X135467149Y-104656467D01*
X135538507Y-104568648D01*
X135672429Y-104392263D01*
X135759006Y-104275467D01*
X135914678Y-104070623D01*
X136032189Y-103928261D01*
X136066025Y-103894467D01*
X136139390Y-103814070D01*
X136292554Y-103629678D01*
X136501266Y-103370888D01*
X136684334Y-103139842D01*
X137244667Y-102427551D01*
X137244667Y-103400702D01*
X137593027Y-103400702D01*
X137591210Y-103123989D01*
X137588403Y-102515305D01*
X137586984Y-102074133D01*
X137162858Y-102074133D01*
X136819923Y-102497467D01*
X136590601Y-102780024D01*
X136361946Y-103060929D01*
X136234371Y-103217133D01*
X136056651Y-103435675D01*
X135823588Y-103724204D01*
X135585523Y-104020398D01*
X135584666Y-104021467D01*
X135384242Y-104269187D01*
X135224333Y-104462422D01*
X135134583Y-104565449D01*
X135128000Y-104571800D01*
X135055010Y-104654472D01*
X134907209Y-104834484D01*
X134714108Y-105075792D01*
X134677464Y-105122133D01*
X134461448Y-105394530D01*
X134268483Y-105635622D01*
X134137696Y-105796542D01*
X134130753Y-105804894D01*
X133989036Y-105979231D01*
X133804211Y-106211949D01*
X133731000Y-106305394D01*
X133517774Y-106574203D01*
X133275342Y-106873397D01*
X133180667Y-106988326D01*
X132950959Y-107267660D01*
X132715457Y-107557714D01*
X132630333Y-107663782D01*
X132461549Y-107872864D01*
X132328010Y-108034106D01*
X132291667Y-108076090D01*
X132193560Y-108196949D01*
X132040761Y-108396837D01*
X131957476Y-108508800D01*
X131802852Y-108713404D01*
X131688101Y-108855755D01*
X131656056Y-108889800D01*
X131586272Y-108968659D01*
X131433039Y-109153562D01*
X131218146Y-109417891D01*
X130963382Y-109735028D01*
X130931914Y-109774432D01*
X130659908Y-110113366D01*
X130411480Y-110419515D01*
X130213512Y-110659971D01*
X130092889Y-110801824D01*
X130090333Y-110804670D01*
X129968592Y-110950063D01*
X129775123Y-111192507D01*
X129540118Y-111493825D01*
X129370667Y-111714614D01*
X129141845Y-112009671D01*
X128950044Y-112247378D01*
X128818368Y-112399695D01*
X128772059Y-112441209D01*
X128695831Y-112383539D01*
X128648240Y-112331536D01*
X128208319Y-112331536D01*
X128197445Y-112361133D01*
X128074627Y-112299609D01*
X128062359Y-112282980D01*
X127952329Y-112211129D01*
X127755542Y-112148048D01*
X127755326Y-112148001D01*
X127481715Y-112064212D01*
X127269464Y-111972675D01*
X127057365Y-111885779D01*
X126899164Y-111853655D01*
X126750258Y-111815242D01*
X126710845Y-111780081D01*
X126608436Y-111715572D01*
X126400654Y-111635742D01*
X126280333Y-111599133D01*
X126042879Y-111520794D01*
X125882297Y-111445798D01*
X125849822Y-111418186D01*
X125735180Y-111352370D01*
X125674299Y-111345133D01*
X125510581Y-111311321D01*
X125290994Y-111229305D01*
X125277129Y-111223039D01*
X125097368Y-111147616D01*
X124798414Y-111029492D01*
X124420102Y-110884139D01*
X124002267Y-110727028D01*
X123952000Y-110708356D01*
X123532148Y-110551020D01*
X123147091Y-110403835D01*
X122836658Y-110282217D01*
X122640674Y-110201581D01*
X122626871Y-110195451D01*
X122419219Y-110113313D01*
X122273115Y-110075426D01*
X122265889Y-110075133D01*
X122116839Y-110037198D01*
X122024685Y-109994568D01*
X121759661Y-109867717D01*
X121408352Y-109723209D01*
X121046691Y-109591952D01*
X120988667Y-109572865D01*
X120632260Y-109451572D01*
X120408381Y-109349554D01*
X120286510Y-109240383D01*
X120236123Y-109097633D01*
X120226667Y-108913078D01*
X120238708Y-108682696D01*
X120295360Y-108567197D01*
X120427415Y-108512695D01*
X120459500Y-108505636D01*
X120699457Y-108453451D01*
X120986462Y-108388549D01*
X121031000Y-108378247D01*
X121276120Y-108324833D01*
X121621935Y-108253845D01*
X122002670Y-108178720D01*
X122089333Y-108162064D01*
X122519391Y-108079326D01*
X122978398Y-107990138D01*
X123372852Y-107912678D01*
X123401667Y-107906967D01*
X123740311Y-107839832D01*
X124047749Y-107778965D01*
X124248333Y-107739339D01*
X124419731Y-107726959D01*
X124557451Y-107791584D01*
X124717943Y-107963467D01*
X124756333Y-108011590D01*
X124935774Y-108233440D01*
X125091638Y-108416479D01*
X125137333Y-108466472D01*
X125263592Y-108612681D01*
X125436392Y-108829495D01*
X125516904Y-108934926D01*
X125821096Y-109331300D01*
X126049657Y-109609846D01*
X126113964Y-109682415D01*
X126202716Y-109788045D01*
X126368265Y-109991630D01*
X126582373Y-110258302D01*
X126706285Y-110413800D01*
X126931151Y-110693265D01*
X127119685Y-110921182D01*
X127245205Y-111065613D01*
X127277920Y-111098045D01*
X127367851Y-111194465D01*
X127503850Y-111369136D01*
X127532266Y-111408218D01*
X127701724Y-111634675D01*
X127912376Y-111904014D01*
X128001948Y-112015140D01*
X128143083Y-112205872D01*
X128208319Y-112331536D01*
X128648240Y-112331536D01*
X128557097Y-112231944D01*
X128475726Y-112132629D01*
X128190441Y-111774070D01*
X127891908Y-111401561D01*
X127607741Y-111049299D01*
X127365552Y-110751479D01*
X127192956Y-110542297D01*
X127159988Y-110503243D01*
X126992913Y-110298191D01*
X126801125Y-110050759D01*
X126759456Y-109995243D01*
X126613641Y-109802866D01*
X126511160Y-109673993D01*
X126491318Y-109651800D01*
X126419530Y-109569338D01*
X126272295Y-109392479D01*
X126080630Y-109158505D01*
X126068667Y-109143800D01*
X125875358Y-108907633D01*
X125724660Y-108726394D01*
X125647590Y-108637365D01*
X125646016Y-108635800D01*
X125573851Y-108548059D01*
X125439128Y-108371825D01*
X125351963Y-108254800D01*
X125186967Y-108039164D01*
X125051846Y-107876007D01*
X125009447Y-107831467D01*
X124910690Y-107723129D01*
X124746896Y-107526598D01*
X124682102Y-107445592D01*
X124275727Y-107445592D01*
X124273809Y-107450481D01*
X124184897Y-107465861D01*
X123970849Y-107506753D01*
X123672544Y-107565304D01*
X123571000Y-107585484D01*
X123135324Y-107672244D01*
X122656663Y-107767459D01*
X122258667Y-107846540D01*
X121846678Y-107928506D01*
X121405574Y-108016532D01*
X121073333Y-108083044D01*
X120693127Y-108160539D01*
X120447335Y-108193143D01*
X120306875Y-108156218D01*
X120242664Y-108025129D01*
X120225620Y-107775238D01*
X120226660Y-107381908D01*
X120226667Y-107365800D01*
X120226667Y-106519133D01*
X121877667Y-106519133D01*
X122453461Y-106520552D01*
X122883866Y-106526145D01*
X123192814Y-106537923D01*
X123404235Y-106557891D01*
X123542060Y-106588059D01*
X123630220Y-106630434D01*
X123676833Y-106670093D01*
X123800311Y-106808734D01*
X123954307Y-106997917D01*
X124106454Y-107195329D01*
X124224383Y-107358658D01*
X124275727Y-107445592D01*
X124682102Y-107445592D01*
X124584416Y-107323467D01*
X124391949Y-107082309D01*
X124228739Y-106884498D01*
X124144248Y-106788252D01*
X124052358Y-106663916D01*
X124036667Y-106616621D01*
X123984729Y-106521768D01*
X123855071Y-106357846D01*
X123803833Y-106299810D01*
X123635466Y-106106815D01*
X123190000Y-106106815D01*
X123122842Y-106147404D01*
X122916602Y-106181120D01*
X122564130Y-106208480D01*
X122058276Y-106230000D01*
X121391890Y-106246199D01*
X121221500Y-106249124D01*
X120226667Y-106265133D01*
X120226667Y-105503133D01*
X120230923Y-105167553D01*
X120242324Y-104907379D01*
X120258818Y-104760392D01*
X120268055Y-104741133D01*
X120363735Y-104761292D01*
X120581047Y-104814825D01*
X120878052Y-104891318D01*
X120966555Y-104914581D01*
X121524209Y-105062965D01*
X121943416Y-105179656D01*
X122249731Y-105275103D01*
X122468713Y-105359760D01*
X122625918Y-105444077D01*
X122746903Y-105538506D01*
X122857226Y-105653500D01*
X122903239Y-105706597D01*
X123065789Y-105908065D01*
X123169714Y-106059090D01*
X123190000Y-106106815D01*
X123635466Y-106106815D01*
X123483969Y-105933158D01*
X123112562Y-105486091D01*
X122736697Y-105015842D01*
X122615252Y-104858972D01*
X122174000Y-104858972D01*
X122171982Y-104889445D01*
X122145267Y-104902412D01*
X122062868Y-104893013D01*
X121893797Y-104856387D01*
X121607065Y-104787674D01*
X121402465Y-104737962D01*
X121045433Y-104647170D01*
X120725590Y-104558679D01*
X120498929Y-104488181D01*
X120459500Y-104473691D01*
X120226667Y-104381923D01*
X120226667Y-103418528D01*
X120229116Y-103037369D01*
X120235770Y-102727440D01*
X120245587Y-102522345D01*
X120256510Y-102455133D01*
X120318302Y-102517262D01*
X120455630Y-102682126D01*
X120641833Y-102917444D01*
X120693514Y-102984300D01*
X120898799Y-103246649D01*
X121072605Y-103460759D01*
X121182702Y-103587100D01*
X121193993Y-103598133D01*
X121299046Y-103712004D01*
X121463505Y-103909630D01*
X121658661Y-104154075D01*
X121855803Y-104408402D01*
X122026222Y-104635674D01*
X122141209Y-104798955D01*
X122174000Y-104858972D01*
X122615252Y-104858972D01*
X122563457Y-104792069D01*
X122383914Y-104561945D01*
X122242822Y-104389721D01*
X122176098Y-104317800D01*
X122102012Y-104236867D01*
X121949354Y-104053727D01*
X121743843Y-103799577D01*
X121606986Y-103627400D01*
X121362874Y-103322254D01*
X121137034Y-103046724D01*
X120963868Y-102842500D01*
X120908332Y-102780733D01*
X120721232Y-102552725D01*
X120582899Y-102349300D01*
X120461656Y-102186872D01*
X120359538Y-102114728D01*
X120356579Y-102114539D01*
X120362336Y-102083422D01*
X120489680Y-102009361D01*
X120523000Y-101993323D01*
X120864922Y-101836107D01*
X121183163Y-101695647D01*
X121439766Y-101588137D01*
X121596774Y-101529768D01*
X121623667Y-101523800D01*
X121728518Y-101491382D01*
X121971659Y-101392532D01*
X122358840Y-101224854D01*
X122639667Y-101100467D01*
X123103218Y-100896188D01*
X123422746Y-100760610D01*
X123607282Y-100689986D01*
X123659393Y-100677133D01*
X123767118Y-100645251D01*
X123956750Y-100567377D01*
X123981538Y-100556252D01*
X124489918Y-100328620D01*
X124846223Y-100175305D01*
X125050518Y-100096281D01*
X125098726Y-100084466D01*
X125206221Y-100052176D01*
X125395491Y-99973278D01*
X125420871Y-99961713D01*
X125654236Y-99858546D01*
X125985100Y-99717878D01*
X126385088Y-99551193D01*
X126825821Y-99369974D01*
X127278923Y-99185702D01*
X127716018Y-99009862D01*
X128108727Y-98853936D01*
X128428675Y-98729407D01*
X128647484Y-98647757D01*
X128735667Y-98620365D01*
X128833078Y-98651048D01*
X129058393Y-98735441D01*
X129383235Y-98862062D01*
X129779226Y-99019427D01*
X130217991Y-99196053D01*
X130671151Y-99380459D01*
X131110329Y-99561161D01*
X131507150Y-99726675D01*
X131833236Y-99865520D01*
X132050462Y-99961713D01*
X132246095Y-100044557D01*
X132369754Y-100083945D01*
X132376333Y-100084467D01*
X132486789Y-100116428D01*
X132677952Y-100194467D01*
X132702205Y-100205347D01*
X133196764Y-100426892D01*
X133550924Y-100579850D01*
X133760111Y-100662282D01*
X133815667Y-100677133D01*
X133920518Y-100709551D01*
X134163659Y-100808401D01*
X134550840Y-100976079D01*
X134831667Y-101100467D01*
X135301732Y-101307597D01*
X135624548Y-101444563D01*
X135805865Y-101513759D01*
X135847667Y-101523800D01*
X135904738Y-101537944D01*
X136032748Y-101586551D01*
X136254054Y-101678883D01*
X136591016Y-101824202D01*
X136928596Y-101971570D01*
X137162858Y-102074133D01*
X137586984Y-102074133D01*
X137586142Y-101812688D01*
X137584499Y-101031219D01*
X137583549Y-100185978D01*
X137583333Y-99534133D01*
X137583333Y-98432905D01*
X137244667Y-98432905D01*
X137244304Y-99273076D01*
X137242759Y-99959115D01*
X137239346Y-100506220D01*
X137233381Y-100929591D01*
X137224177Y-101244429D01*
X137211051Y-101465932D01*
X137193316Y-101609300D01*
X137170287Y-101689734D01*
X137141280Y-101722431D01*
X137105609Y-101722593D01*
X137096500Y-101719666D01*
X136923319Y-101641952D01*
X136863667Y-101605686D01*
X136721553Y-101535783D01*
X136567333Y-101481740D01*
X136337344Y-101400701D01*
X136007434Y-101268367D01*
X135630494Y-101106407D01*
X135424333Y-101013488D01*
X135297138Y-100959227D01*
X135039085Y-100852298D01*
X134676335Y-100703428D01*
X134235048Y-100523343D01*
X133741386Y-100322769D01*
X133604000Y-100267096D01*
X133029946Y-100034590D01*
X132434464Y-99793384D01*
X131862512Y-99561690D01*
X131359044Y-99357719D01*
X130979333Y-99203862D01*
X130588923Y-99044606D01*
X130243611Y-98901828D01*
X129980600Y-98791036D01*
X129837093Y-98727739D01*
X129836333Y-98727372D01*
X129647738Y-98646178D01*
X129392288Y-98547499D01*
X129328333Y-98524261D01*
X129152271Y-98450586D01*
X129152016Y-98450376D01*
X128467488Y-98450376D01*
X128220577Y-98511950D01*
X127955895Y-98595396D01*
X127719667Y-98690405D01*
X127525624Y-98775138D01*
X127227485Y-98900173D01*
X126878515Y-99043277D01*
X126746000Y-99096827D01*
X126378954Y-99245800D01*
X125886818Y-99447437D01*
X125300633Y-99688858D01*
X124651442Y-99957179D01*
X123970287Y-100239518D01*
X123288210Y-100522992D01*
X122636253Y-100794720D01*
X122045457Y-101041817D01*
X121546865Y-101251403D01*
X121200333Y-101398287D01*
X120850369Y-101546066D01*
X120558447Y-101666402D01*
X120359336Y-101745147D01*
X120290167Y-101768698D01*
X120276255Y-101689076D01*
X120263397Y-101458068D01*
X120251932Y-101093621D01*
X120242201Y-100613679D01*
X120234546Y-100036190D01*
X120229306Y-99379098D01*
X120226824Y-98660350D01*
X120226667Y-98424408D01*
X120227699Y-97551724D01*
X120231067Y-96835607D01*
X120237179Y-96263301D01*
X120246443Y-95822051D01*
X120259265Y-95499102D01*
X120276055Y-95281698D01*
X120297218Y-95157085D01*
X120323164Y-95112506D01*
X120332500Y-95113043D01*
X120564604Y-95206504D01*
X120900939Y-95343614D01*
X121310984Y-95511758D01*
X121764217Y-95698324D01*
X122230117Y-95890700D01*
X122678163Y-96076272D01*
X123077835Y-96242427D01*
X123398610Y-96376553D01*
X123609969Y-96466036D01*
X123668462Y-96491628D01*
X123864260Y-96573692D01*
X123987876Y-96612634D01*
X123994333Y-96613133D01*
X124104789Y-96645094D01*
X124295952Y-96723134D01*
X124320205Y-96734014D01*
X124828585Y-96961646D01*
X125184890Y-97114961D01*
X125389185Y-97193985D01*
X125437393Y-97205800D01*
X125544884Y-97238097D01*
X125734147Y-97317016D01*
X125759538Y-97328588D01*
X125947760Y-97409910D01*
X126248443Y-97533949D01*
X126616183Y-97682161D01*
X126915333Y-97800642D01*
X127312956Y-97958656D01*
X127687293Y-98110584D01*
X127989108Y-98236276D01*
X128135911Y-98300141D01*
X128467488Y-98450376D01*
X129152016Y-98450376D01*
X129094125Y-98402752D01*
X129116667Y-98394226D01*
X129268107Y-98353532D01*
X129495568Y-98262109D01*
X129582333Y-98221800D01*
X129802926Y-98121511D01*
X129958649Y-98062055D01*
X129989145Y-98055339D01*
X130089381Y-98026700D01*
X130305576Y-97941050D01*
X130651063Y-97792884D01*
X131021667Y-97629133D01*
X131485218Y-97424855D01*
X131804746Y-97289277D01*
X131989282Y-97218652D01*
X132041393Y-97205800D01*
X132149118Y-97173917D01*
X132338750Y-97096044D01*
X132363538Y-97084919D01*
X132871918Y-96857287D01*
X133228223Y-96703972D01*
X133432518Y-96624948D01*
X133480726Y-96613133D01*
X133588295Y-96580973D01*
X133777681Y-96502401D01*
X133802871Y-96490979D01*
X133975776Y-96416395D01*
X134270185Y-96294195D01*
X134650163Y-96139109D01*
X135079776Y-95965864D01*
X135255000Y-95895767D01*
X135683917Y-95723764D01*
X136067363Y-95568460D01*
X136372772Y-95443161D01*
X136567575Y-95361172D01*
X136609667Y-95342335D01*
X136820293Y-95251579D01*
X137011833Y-95177643D01*
X137244667Y-95093324D01*
X137244667Y-98432905D01*
X137583333Y-98432905D01*
X137583333Y-94750467D01*
X137392833Y-94753339D01*
X137198074Y-94791524D01*
X136943682Y-94883382D01*
X136863667Y-94919800D01*
X136643075Y-95020089D01*
X136487351Y-95079545D01*
X136456855Y-95086260D01*
X136342391Y-95120531D01*
X136094278Y-95221044D01*
X135705703Y-95390659D01*
X135326871Y-95560919D01*
X135130991Y-95642592D01*
X135007397Y-95681311D01*
X135001000Y-95681800D01*
X134890539Y-95713752D01*
X134699368Y-95791767D01*
X134675129Y-95802637D01*
X134536235Y-95862427D01*
X134260520Y-95978435D01*
X133867756Y-96142439D01*
X133377713Y-96346216D01*
X132810164Y-96581543D01*
X132184879Y-96840196D01*
X131595988Y-97083291D01*
X128783642Y-98243108D01*
X128082321Y-97966236D01*
X127652832Y-97795705D01*
X127315414Y-97658606D01*
X127004140Y-97527463D01*
X126653079Y-97374802D01*
X126475479Y-97296586D01*
X126239504Y-97196530D01*
X126071837Y-97133000D01*
X126026333Y-97121133D01*
X125937262Y-97094800D01*
X125731355Y-97012201D01*
X125395651Y-96867939D01*
X125010333Y-96698028D01*
X124864875Y-96637500D01*
X124601576Y-96531587D01*
X124260420Y-96396266D01*
X123952000Y-96275106D01*
X123563475Y-96121502D01*
X123207214Y-95977734D01*
X122928662Y-95862301D01*
X122796205Y-95804588D01*
X122601783Y-95721810D01*
X122480460Y-95682345D01*
X122474059Y-95681800D01*
X122355487Y-95644672D01*
X122084941Y-95533269D01*
X121662357Y-95347564D01*
X121356871Y-95210014D01*
X121156702Y-95127245D01*
X121025015Y-95086904D01*
X121018205Y-95086260D01*
X120903616Y-95050332D01*
X120700171Y-94963336D01*
X120607667Y-94919800D01*
X120473362Y-94850427D01*
X120359324Y-94790366D01*
X120263906Y-94751601D01*
X120185462Y-94746116D01*
X120122347Y-94785894D01*
M02*
