M48
;DRILL file {KiCad 4.0.6} date 12/03/17 11:27:25
;FORMAT={-:-/ absolute / inch / decimal}
FMAT,2
INCH,TZ
T1C0.015
T2C0.015
T3C0.016
T4C0.030
T5C0.039
T6C0.067
T7C0.118
%
G90
G05
M72
T1
X4.8094Y-2.5128
X4.8094Y-2.5628
X4.8594Y-2.5128
X4.8594Y-2.5628
X4.9094Y-2.5128
X4.9094Y-2.5628
X4.9594Y-2.5128
X4.9594Y-2.5628
X5.0094Y-2.5128
X5.0094Y-2.5628
T2
X4.1566Y-2.5094
X4.1566Y-2.5594
X4.1576Y-2.2694
X4.1576Y-2.3194
X4.2066Y-2.5094
X4.2066Y-2.5594
X4.2076Y-2.2694
X4.2076Y-2.3194
X4.2566Y-2.5094
X4.2566Y-2.5594
X4.2576Y-2.2694
X4.2576Y-2.3194
X4.3679Y-4.0488
X4.3679Y-4.0988
X4.3679Y-4.1488
X4.4179Y-4.0488
X4.4179Y-4.0988
X4.4179Y-4.1488
X4.6079Y-4.0498
X4.6079Y-4.0998
X4.6079Y-4.1498
X4.6579Y-4.0498
X4.6579Y-4.0998
X4.6579Y-4.1498
X4.8558Y-4.2359
X4.8558Y-4.2859
X4.8558Y-4.3359
X4.9058Y-4.2359
X4.9058Y-4.2859
X4.9058Y-4.3359
X5.0958Y-4.2369
X5.0958Y-4.2869
X5.0958Y-4.3369
X5.1458Y-4.2369
X5.1458Y-4.2869
X5.1458Y-4.3369
X5.7262Y-3.7166
X5.7262Y-3.7666
X5.7272Y-3.4766
X5.7272Y-3.5266
X5.7538Y-2.7492
X5.7538Y-2.7992
X5.7548Y-2.5092
X5.7548Y-2.5592
X5.7762Y-3.7166
X5.7762Y-3.7666
X5.7772Y-3.4766
X5.7772Y-3.5266
X5.8038Y-2.7492
X5.8038Y-2.7992
X5.8048Y-2.5092
X5.8048Y-2.5592
X5.8262Y-3.7166
X5.8262Y-3.7666
X5.8272Y-3.4766
X5.8272Y-3.5266
X5.8538Y-2.7492
X5.8538Y-2.7992
X5.8548Y-2.5092
X5.8548Y-2.5592
X5.9118Y-4.0014
X5.9118Y-4.0514
X5.9128Y-3.7614
X5.9128Y-3.8114
X5.9618Y-4.0014
X5.9618Y-4.0514
X5.9628Y-3.7614
X5.9628Y-3.8114
X6.0118Y-4.0014
X6.0118Y-4.0514
X6.0128Y-3.7614
X6.0128Y-3.8114
T3
X3.2508Y-3.347
X3.2596Y-3.6534
X3.325Y-2.5026
X3.4114Y-3.336
X3.4497Y-2.4358
X3.4546Y-3.7434
X3.5497Y-2.5603
X3.5586Y-2.4574
X3.5606Y-2.3994
X3.5656Y-3.1649
X3.5708Y-2.926
X3.6013Y-2.3183
X3.6096Y-3.2684
X3.6136Y-2.4124
X3.6397Y-2.5883
X3.6742Y-2.3483
X3.7296Y-2.7584
X3.9178Y-2.7502
X4.0231Y-2.9124
X4.029Y-3.594
X4.031Y-3.498
X4.115Y-2.93
X4.132Y-3.228
X4.14Y-3.17
X4.175Y-3.9978
X4.2Y-2.96
X4.21Y-4.0288
X4.2476Y-3.9998
X4.287Y-3.331
X4.322Y-3.619
X4.502Y-3.224
X4.5108Y-2.7494
X4.513Y-2.673
X4.5472Y-2.7094
X4.8204Y-4.6244
X4.821Y-4.8084
X4.855Y-3.285
X4.87Y-3.02
X4.873Y-4.552
X4.8734Y-4.734
X4.874Y-4.7008
X4.874Y-4.879
X5.05Y-3.17
X5.09Y-2.995
X5.095Y-3.24
X5.1377Y-3.4797
X5.1381Y-3.5301
X5.1838Y-3.5301
X5.1848Y-3.4801
X5.2352Y-3.5301
X5.2364Y-3.4801
X5.2551Y-2.7124
X5.2622Y-4.3658
X5.2877Y-3.4797
X5.2881Y-3.5301
X5.2996Y-4.3316
X5.3372Y-4.3638
X5.382Y-3.199
X5.5536Y-4.6454
X5.6334Y-4.2038
X5.6658Y-4.2416
X5.6682Y-4.166
X5.6932Y-3.2817
X5.6932Y-3.3563
X5.7246Y-3.3197
X5.762Y-4.6212
X6.101Y-2.9918
X6.1014Y-2.9172
X6.1332Y-2.9548
X6.318Y-2.852
T4
X3.2338Y-4.7385
X3.2338Y-4.8535
X3.3008Y-4.6945
X3.3008Y-4.8985
X4.6226Y-2.3034
X4.6676Y-2.2364
X4.7826Y-2.2364
X4.8266Y-2.3034
X6.0041Y-5.2296
X6.0481Y-5.2966
X6.1631Y-5.2966
X6.2081Y-5.2296
X6.4525Y-2.5613
X6.5317Y-2.5457
X6.5967Y-2.7055
X6.613Y-2.627
T5
X3.3056Y-2.7319
X3.3056Y-2.8319
X3.3056Y-2.9319
X3.3056Y-3.0319
X3.3056Y-3.1319
X3.3056Y-3.2319
X3.4056Y-2.7319
X3.4056Y-2.8319
X3.4056Y-2.9319
X3.4056Y-3.0319
X3.4056Y-3.1319
X3.4056Y-3.2319
X4.268Y-3.028
X4.368Y-3.028
X4.468Y-3.028
X4.568Y-3.028
T6
X3.4118Y-3.5984
X3.6874Y-3.5984
T7
X3.3388Y-4.0272
X6.8818Y-4.836
X6.883Y-2.2415
T0
M30
