G04 #@! TF.FileFunction,Soldermask,Top*
%FSLAX46Y46*%
G04 Gerber Fmt 4.6, Leading zero omitted, Abs format (unit mm)*
G04 Created by KiCad (PCBNEW 4.0.6) date 12/03/17 11:24:10*
%MOMM*%
%LPD*%
G01*
G04 APERTURE LIST*
%ADD10C,0.100000*%
%ADD11C,1.900000*%
%ADD12R,1.250000X1.250000*%
%ADD13R,2.400000X2.900000*%
%ADD14R,3.700000X2.000000*%
%ADD15R,1.600000X2.000000*%
%ADD16C,4.464000*%
%ADD17R,1.300000X0.900000*%
%ADD18R,1.750000X0.800000*%
%ADD19R,2.940000X2.940000*%
%ADD20R,1.924000X2.051000*%
%ADD21R,1.162000X2.559000*%
%ADD22R,1.670000X1.670000*%
%ADD23R,1.035000X3.956000*%
%ADD24R,3.956000X1.035000*%
%ADD25R,1.390600X1.085800*%
%ADD26R,0.900000X1.300000*%
%ADD27R,1.200000X1.150000*%
%ADD28R,1.150000X1.200000*%
%ADD29R,2.914600X2.914600*%
%ADD30R,1.400000X1.650000*%
%ADD31R,2.940000X1.924000*%
%ADD32R,1.924000X1.924000*%
%ADD33R,1.924000X2.940000*%
%ADD34R,1.085800X1.390600*%
%ADD35C,2.400000*%
%ADD36R,2.600000X3.200000*%
%ADD37R,3.200000X3.200000*%
%ADD38R,2.100000X2.100000*%
%ADD39O,2.100000X2.100000*%
%ADD40R,1.009600X1.289000*%
%ADD41R,1.289000X1.009600*%
%ADD42R,2.900000X2.400000*%
%ADD43R,2.600000X1.450000*%
%ADD44R,1.450000X1.400000*%
%ADD45R,1.450000X2.600000*%
%ADD46R,1.400000X1.450000*%
%ADD47R,1.500000X0.850000*%
G04 APERTURE END LIST*
D10*
D11*
X108839000Y-83261200D03*
X162255200Y-72415400D03*
D12*
X127238760Y-65095120D03*
X125968760Y-65095120D03*
X124698760Y-65095120D03*
X123428760Y-65095120D03*
X122158760Y-65095120D03*
X127238760Y-63825120D03*
X125968760Y-63825120D03*
X124698760Y-63825120D03*
X123428760Y-63825120D03*
D13*
X97786440Y-73987660D03*
X101786440Y-73987660D03*
D14*
X94274640Y-73988460D03*
D15*
X92024640Y-80388460D03*
X94274640Y-80388460D03*
X96624640Y-80388460D03*
D16*
X84805520Y-102290880D03*
X174797720Y-122834400D03*
D17*
X86070440Y-61210760D03*
X86070440Y-62710760D03*
D18*
X89009340Y-60562460D03*
X89009340Y-61212460D03*
X89009340Y-61862460D03*
X89009340Y-62512460D03*
X93309340Y-60562460D03*
X93309340Y-61212460D03*
X93309340Y-61862460D03*
X93309340Y-62512460D03*
D10*
G36*
X94632240Y-60387860D02*
X94632240Y-62057860D01*
X93597240Y-61549860D01*
X93597240Y-60895860D01*
X94632240Y-60387860D01*
X94632240Y-60387860D01*
G37*
D19*
X95638740Y-61324460D03*
X127803940Y-67414260D03*
D20*
X124781340Y-61394460D03*
X127321340Y-61394460D03*
X122241340Y-67363460D03*
X124781340Y-67363460D03*
D19*
X121758740Y-61369060D03*
D21*
X131766340Y-86476960D03*
D19*
X128337340Y-86299160D03*
D21*
X130496340Y-86476960D03*
X133036340Y-86476960D03*
X134306340Y-86476960D03*
X129226340Y-91810960D03*
X130496340Y-91810960D03*
X131766340Y-91810960D03*
X133036340Y-91810960D03*
D19*
X135195340Y-91988760D03*
X112170240Y-64518660D03*
X112170240Y-61318260D03*
D22*
X106847640Y-65008760D03*
X108117640Y-65008760D03*
X105577640Y-65008760D03*
X105577640Y-63738760D03*
X106847640Y-63738760D03*
X108117640Y-63738760D03*
X108143040Y-57642760D03*
X106873040Y-57642760D03*
X105603040Y-57642760D03*
X105603040Y-58912760D03*
X108143040Y-58912760D03*
D19*
X108955840Y-61325760D03*
X104790240Y-61325760D03*
D23*
X106873040Y-61325760D03*
D22*
X106873040Y-58912760D03*
X146739640Y-88305760D03*
X145469640Y-88305760D03*
X148009640Y-88305760D03*
X148009640Y-89575760D03*
X146739640Y-89575760D03*
X145469640Y-89575760D03*
X145444240Y-95671760D03*
X146714240Y-95671760D03*
X147984240Y-95671760D03*
X147984240Y-94401760D03*
X145444240Y-94401760D03*
D19*
X144631440Y-91988760D03*
X148797040Y-91988760D03*
D23*
X146714240Y-91988760D03*
D22*
X146714240Y-94401760D03*
X147416520Y-71099680D03*
X148686520Y-71099680D03*
X146146520Y-71099680D03*
X146146520Y-69829680D03*
X147416520Y-69829680D03*
X148686520Y-69829680D03*
X148711920Y-63733680D03*
X147441920Y-63733680D03*
X146171920Y-63733680D03*
X146171920Y-65003680D03*
X148711920Y-65003680D03*
D19*
X149524720Y-67416680D03*
X145359120Y-67416680D03*
D23*
X147441920Y-67416680D03*
D22*
X147441920Y-65003680D03*
X151455120Y-95539560D03*
X150185120Y-95539560D03*
X152725120Y-95539560D03*
X152725120Y-96809560D03*
X151455120Y-96809560D03*
X150185120Y-96809560D03*
X150159720Y-102905560D03*
X151429720Y-102905560D03*
X152699720Y-102905560D03*
X152699720Y-101635560D03*
X150159720Y-101635560D03*
D19*
X149346920Y-99222560D03*
X153512520Y-99222560D03*
D23*
X151429720Y-99222560D03*
D22*
X151429720Y-101635560D03*
X118310028Y-104134794D03*
X118310028Y-102864794D03*
X118310028Y-105404794D03*
X117040028Y-105404794D03*
X117040028Y-104134794D03*
X117040028Y-102864794D03*
X110944028Y-102839394D03*
X110944028Y-104109394D03*
X110944028Y-105379394D03*
X112214028Y-105379394D03*
X112214028Y-102839394D03*
D19*
X114627028Y-102026594D03*
X114627028Y-106192194D03*
D24*
X114627028Y-104109394D03*
D22*
X112214028Y-104109394D03*
D25*
X129382520Y-78557120D03*
X129382520Y-80462120D03*
X126791721Y-78557120D03*
X126791721Y-79509620D03*
X126791721Y-80462120D03*
D19*
X155468320Y-67406520D03*
X158668720Y-67406520D03*
X157509240Y-92001460D03*
X154308840Y-92001460D03*
X141519940Y-91988760D03*
X138319540Y-91988760D03*
X114627028Y-92933394D03*
X114627028Y-96133794D03*
X167400000Y-89715460D03*
X167400000Y-92915860D03*
X152496520Y-70617080D03*
X152496520Y-67416680D03*
X111426628Y-99080194D03*
X114627028Y-99080194D03*
D26*
X127000000Y-82296000D03*
X128500000Y-82296000D03*
X131646800Y-80462120D03*
X133146800Y-80462120D03*
D17*
X131638040Y-76962000D03*
X131638040Y-78462000D03*
D27*
X90498360Y-59060080D03*
X88998360Y-59060080D03*
D28*
X93327340Y-65706660D03*
X93327340Y-64206660D03*
D27*
X90189740Y-63991460D03*
X91689740Y-63991460D03*
D29*
X165420040Y-134625080D03*
X90779600Y-133649720D03*
D27*
X123317000Y-82296000D03*
X124817000Y-82296000D03*
X131765040Y-82224880D03*
X133265040Y-82224880D03*
X127822960Y-77119480D03*
X129322960Y-77119480D03*
D17*
X124714000Y-79018000D03*
X124714000Y-80518000D03*
D30*
X95046040Y-83068160D03*
X93046040Y-83068160D03*
D19*
X98618040Y-61325760D03*
X101818440Y-61325760D03*
X115065840Y-61318260D03*
X118266240Y-61318260D03*
X138838940Y-67421760D03*
X142039340Y-67421760D03*
D31*
X146395440Y-113141760D03*
D19*
X146395440Y-109941360D03*
D32*
X167426640Y-86065360D03*
X163591240Y-85963760D03*
X165470840Y-72349360D03*
D31*
X142204440Y-78775560D03*
D19*
X142204440Y-81975960D03*
D31*
X112166400Y-73685400D03*
D19*
X112166400Y-70485000D03*
X142160020Y-91991300D03*
X142160020Y-88790900D03*
D31*
X152501600Y-81239360D03*
D19*
X152501600Y-78038960D03*
D33*
X100366168Y-99059754D03*
D19*
X103566568Y-99059754D03*
X146400520Y-99222560D03*
X146400520Y-102422960D03*
D30*
X97530920Y-68539360D03*
X99530920Y-68539360D03*
D34*
X93753940Y-68539360D03*
X95658940Y-68539360D03*
X93753940Y-71130159D03*
X94706440Y-71130159D03*
X95658940Y-71130159D03*
D26*
X129056000Y-83820000D03*
X130556000Y-83820000D03*
D17*
X84475320Y-61205680D03*
X84475320Y-62705680D03*
D16*
X174828200Y-56934100D03*
D35*
X93658840Y-91399360D03*
X86658840Y-91399360D03*
D36*
X82758840Y-95099360D03*
X85558840Y-95099360D03*
X84658840Y-87699360D03*
X87458840Y-87699360D03*
D37*
X94958840Y-95099360D03*
X99058840Y-90649360D03*
D38*
X83962240Y-69390260D03*
D39*
X86502240Y-69390260D03*
X83962240Y-71930260D03*
X86502240Y-71930260D03*
X83962240Y-74470260D03*
X86502240Y-74470260D03*
X83962240Y-77010260D03*
X86502240Y-77010260D03*
X83962240Y-79550260D03*
X86502240Y-79550260D03*
X83962240Y-82090260D03*
X86502240Y-82090260D03*
D40*
X144653000Y-84328000D03*
D19*
X142189200Y-84328000D03*
D40*
X114620040Y-68828920D03*
D19*
X112156240Y-68828920D03*
D40*
X154970480Y-75041760D03*
D19*
X152506680Y-75041760D03*
D41*
X106968928Y-101543994D03*
D19*
X106968928Y-99080194D03*
D40*
X143931640Y-106776520D03*
D19*
X146395440Y-106776520D03*
D42*
X90733880Y-68572880D03*
X90733880Y-72572880D03*
D41*
X134613859Y-110869715D03*
D19*
X134613859Y-113333515D03*
D33*
X140984179Y-113308115D03*
D19*
X137783779Y-113308115D03*
X127019259Y-113313195D03*
X130219659Y-113313195D03*
D22*
X123336259Y-108863115D03*
X123336259Y-110133115D03*
X123336259Y-107593115D03*
X124606259Y-107593115D03*
X124606259Y-108863115D03*
X124606259Y-110133115D03*
X130702259Y-110158515D03*
X130702259Y-108888515D03*
X130702259Y-107618515D03*
X129432259Y-107618515D03*
X129432259Y-110158515D03*
D19*
X127019259Y-110971315D03*
X127019259Y-106805715D03*
D24*
X127019259Y-108888515D03*
D22*
X129432259Y-108888515D03*
D19*
X127024339Y-102254035D03*
X127024339Y-105454435D03*
D10*
G36*
X151232688Y-129291558D02*
X153311582Y-127212664D01*
X155390476Y-129291558D01*
X153311582Y-131370452D01*
X151232688Y-129291558D01*
X151232688Y-129291558D01*
G37*
G36*
X128009746Y-127980440D02*
X130088640Y-125901546D01*
X132167534Y-127980440D01*
X130088640Y-130059334D01*
X128009746Y-127980440D01*
X128009746Y-127980440D01*
G37*
D28*
X146364960Y-114945160D03*
X146364960Y-116445160D03*
X141086840Y-115553360D03*
X141086840Y-117053360D03*
D10*
G36*
X112105440Y-117694614D02*
X110026546Y-115615720D01*
X112105440Y-113536826D01*
X114184334Y-115615720D01*
X112105440Y-117694614D01*
X112105440Y-117694614D01*
G37*
G36*
X88864537Y-119023692D02*
X86785643Y-116944798D01*
X88864537Y-114865904D01*
X90943431Y-116944798D01*
X88864537Y-119023692D01*
X88864537Y-119023692D01*
G37*
D33*
X123784360Y-117434360D03*
D19*
X126984760Y-117434360D03*
X127000000Y-118135400D03*
X127000000Y-121335800D03*
D10*
G36*
X89805414Y-125689360D02*
X87726520Y-127768254D01*
X85647626Y-125689360D01*
X87726520Y-123610466D01*
X89805414Y-125689360D01*
X89805414Y-125689360D01*
G37*
G36*
X92068439Y-127952384D02*
X89989545Y-130031278D01*
X87910651Y-127952384D01*
X89989545Y-125873490D01*
X92068439Y-127952384D01*
X92068439Y-127952384D01*
G37*
D33*
X123794520Y-122138440D03*
D19*
X126994920Y-122138440D03*
X157734000Y-130271520D03*
X160934400Y-130271520D03*
D43*
X83840320Y-120380760D03*
D44*
X85365320Y-121830760D03*
D43*
X83840320Y-123280760D03*
D22*
X83840320Y-119239960D03*
X83840320Y-124421560D03*
X82138520Y-120357560D03*
X82138520Y-123278560D03*
D10*
G36*
X165318254Y-68320251D02*
X167156731Y-66481774D01*
X168182036Y-67507079D01*
X166343559Y-69345556D01*
X165318254Y-68320251D01*
X165318254Y-68320251D01*
G37*
G36*
X163638875Y-67984376D02*
X164664180Y-66959071D01*
X165654129Y-67949020D01*
X164628824Y-68974325D01*
X163638875Y-67984376D01*
X163638875Y-67984376D01*
G37*
G36*
X163267644Y-66269641D02*
X165106121Y-64431164D01*
X166131426Y-65456469D01*
X164292949Y-67294946D01*
X163267644Y-66269641D01*
X163267644Y-66269641D01*
G37*
G36*
X166375944Y-68720332D02*
X167556812Y-67539464D01*
X168737680Y-68720332D01*
X167556812Y-69901200D01*
X166375944Y-68720332D01*
X166375944Y-68720332D01*
G37*
G36*
X162712000Y-65056388D02*
X163892868Y-63875520D01*
X165073736Y-65056388D01*
X163892868Y-66237256D01*
X162712000Y-65056388D01*
X162712000Y-65056388D01*
G37*
G36*
X166789036Y-66726715D02*
X167969904Y-65545847D01*
X169150772Y-66726715D01*
X167969904Y-67907583D01*
X166789036Y-66726715D01*
X166789036Y-66726715D01*
G37*
G36*
X164723577Y-64661256D02*
X165904445Y-63480388D01*
X167085313Y-64661256D01*
X165904445Y-65842124D01*
X164723577Y-64661256D01*
X164723577Y-64661256D01*
G37*
D45*
X121454840Y-58506360D03*
D46*
X120004840Y-60031360D03*
D45*
X118554840Y-58506360D03*
D22*
X122595640Y-58506360D03*
X117414040Y-58506360D03*
X121478040Y-56804560D03*
X118557040Y-56804560D03*
D45*
X153644600Y-132831840D03*
D46*
X155094600Y-131306840D03*
D45*
X156544600Y-132831840D03*
D22*
X152503800Y-132831840D03*
X157685400Y-132831840D03*
X153621400Y-134533640D03*
X156542400Y-134533640D03*
D12*
X122158760Y-63825120D03*
D28*
X133604000Y-78486000D03*
X133604000Y-76986000D03*
D27*
X121412000Y-82296000D03*
X119912000Y-82296000D03*
X107988800Y-80416400D03*
X106488800Y-80416400D03*
D28*
X110591600Y-80999200D03*
X110591600Y-82499200D03*
X105105200Y-88747600D03*
X105105200Y-90247600D03*
D27*
X106476800Y-83261200D03*
X104976800Y-83261200D03*
D26*
X121412000Y-80721200D03*
X119912000Y-80721200D03*
D17*
X110591600Y-85750400D03*
X110591600Y-84250400D03*
X106832400Y-90298400D03*
X106832400Y-88798400D03*
D25*
X115925600Y-80975200D03*
X115925600Y-82880200D03*
X113334801Y-80975200D03*
X113334801Y-81927700D03*
X113334801Y-82880200D03*
D34*
X108839000Y-88138000D03*
X110744000Y-88138000D03*
X108839000Y-90728799D03*
X109791500Y-90728799D03*
X110744000Y-90728799D03*
D38*
X116027200Y-76911200D03*
D39*
X113487200Y-76911200D03*
X110947200Y-76911200D03*
X108407200Y-76911200D03*
D47*
X122234000Y-78414400D03*
X122234000Y-77764400D03*
X122234000Y-77114400D03*
X122234000Y-76464400D03*
X119634000Y-76464400D03*
X119634000Y-77114400D03*
X119634000Y-77764400D03*
X119634000Y-78414400D03*
D11*
X135356600Y-82118200D03*
M02*
