G04 #@! TF.FileFunction,Soldermask,Bot*
%FSLAX46Y46*%
G04 Gerber Fmt 4.6, Leading zero omitted, Abs format (unit mm)*
G04 Created by KiCad (PCBNEW 4.0.7) date 11/10/17 16:01:10*
%MOMM*%
%LPD*%
G01*
G04 APERTURE LIST*
%ADD10C,0.100000*%
%ADD11R,1.250000X1.250000*%
%ADD12R,1.670000X1.670000*%
%ADD13R,1.400000X1.400000*%
%ADD14O,1.400000X1.400000*%
G04 APERTURE END LIST*
D10*
D11*
X131241800Y-77368400D03*
X129971800Y-77368400D03*
X128701800Y-77368400D03*
X127431800Y-77368400D03*
X131241800Y-76098400D03*
X129971800Y-76098400D03*
X128701800Y-76098400D03*
X127431800Y-76098400D03*
X142265400Y-99187000D03*
X140995400Y-99187000D03*
X139725400Y-99187000D03*
X138455400Y-99187000D03*
X142265400Y-97917000D03*
X140995400Y-97917000D03*
X139725400Y-97917000D03*
D12*
X100243000Y-77266800D03*
X101513000Y-77266800D03*
X98973000Y-77266800D03*
X98973000Y-75996800D03*
X100243000Y-75996800D03*
X101513000Y-75996800D03*
X101538400Y-69900800D03*
X100268400Y-69900800D03*
X98998400Y-69900800D03*
X98998400Y-71170800D03*
X101538400Y-71170800D03*
X100268400Y-71170800D03*
X154687900Y-97828100D03*
X153417900Y-97828100D03*
X155957900Y-97828100D03*
X155957900Y-99098100D03*
X154687900Y-99098100D03*
X153417900Y-99098100D03*
X153392500Y-105194100D03*
X154662500Y-105194100D03*
X155932500Y-105194100D03*
X155932500Y-103924100D03*
X153392500Y-103924100D03*
X154662500Y-103924100D03*
X151957400Y-83235800D03*
X153227400Y-83235800D03*
X150687400Y-83235800D03*
X150687400Y-81965800D03*
X151957400Y-81965800D03*
X153227400Y-81965800D03*
X153252800Y-75869800D03*
X151982800Y-75869800D03*
X150712800Y-75869800D03*
X150712800Y-77139800D03*
X153252800Y-77139800D03*
X151982800Y-77139800D03*
X169899960Y-108041440D03*
X169899960Y-109311440D03*
X169899960Y-106771440D03*
X171169960Y-106771440D03*
X171169960Y-108041440D03*
X171169960Y-109311440D03*
X177265960Y-109336840D03*
X177265960Y-108066840D03*
X177265960Y-106796840D03*
X175995960Y-106796840D03*
X175995960Y-109336840D03*
X175995960Y-108066840D03*
X112879500Y-111252000D03*
X112879500Y-109982000D03*
X112879500Y-112522000D03*
X111609500Y-112522000D03*
X111609500Y-111252000D03*
X111609500Y-109982000D03*
X105513500Y-109956600D03*
X105513500Y-111226600D03*
X105513500Y-112496600D03*
X106783500Y-112496600D03*
X106783500Y-109956600D03*
X106783500Y-111226600D03*
D13*
X84926800Y-83540600D03*
D14*
X86196800Y-83540600D03*
D13*
X84926800Y-92938600D03*
D14*
X86196800Y-92938600D03*
D13*
X84926800Y-86715600D03*
D14*
X86196800Y-86715600D03*
D13*
X84926800Y-89890600D03*
D14*
X86196800Y-89890600D03*
D13*
X110880520Y-89458800D03*
D14*
X112150520Y-89458800D03*
D13*
X84942040Y-80396080D03*
D14*
X86212040Y-80396080D03*
D11*
X138455400Y-97917000D03*
M02*
