G04 #@! TF.FileFunction,Legend,Top*
%FSLAX46Y46*%
G04 Gerber Fmt 4.6, Leading zero omitted, Abs format (unit mm)*
G04 Created by KiCad (PCBNEW 4.0.6) date 12/03/17 11:24:10*
%MOMM*%
%LPD*%
G01*
G04 APERTURE LIST*
%ADD10C,0.100000*%
%ADD11C,0.300000*%
%ADD12C,0.120000*%
%ADD13C,0.150000*%
%ADD14C,0.010000*%
G04 APERTURE END LIST*
D10*
D11*
X111464115Y-148760571D02*
X110964115Y-148046286D01*
X110606972Y-148760571D02*
X110606972Y-147260571D01*
X111178400Y-147260571D01*
X111321258Y-147332000D01*
X111392686Y-147403429D01*
X111464115Y-147546286D01*
X111464115Y-147760571D01*
X111392686Y-147903429D01*
X111321258Y-147974857D01*
X111178400Y-148046286D01*
X110606972Y-148046286D01*
X112678400Y-148689143D02*
X112535543Y-148760571D01*
X112249829Y-148760571D01*
X112106972Y-148689143D01*
X112035543Y-148546286D01*
X112035543Y-147974857D01*
X112106972Y-147832000D01*
X112249829Y-147760571D01*
X112535543Y-147760571D01*
X112678400Y-147832000D01*
X112749829Y-147974857D01*
X112749829Y-148117714D01*
X112035543Y-148260571D01*
X113249829Y-147760571D02*
X113606972Y-148760571D01*
X113964114Y-147760571D01*
X115606971Y-147403429D02*
X115678400Y-147332000D01*
X115821257Y-147260571D01*
X116178400Y-147260571D01*
X116321257Y-147332000D01*
X116392686Y-147403429D01*
X116464114Y-147546286D01*
X116464114Y-147689143D01*
X116392686Y-147903429D01*
X115535543Y-148760571D01*
X116464114Y-148760571D01*
D12*
X100786440Y-72507660D02*
X98786440Y-72507660D01*
X98786440Y-75467660D02*
X100786440Y-75467660D01*
X87091520Y-102290880D02*
G75*
G03X87091520Y-102290880I-2286000J0D01*
G01*
X177083720Y-122834400D02*
G75*
G03X177083720Y-122834400I-2286000J0D01*
G01*
X85390440Y-62460760D02*
X85390440Y-61460760D01*
X86750440Y-61460760D02*
X86750440Y-62460760D01*
D13*
X90430325Y-60714860D02*
G75*
G03X90430325Y-60714860I-227185J0D01*
G01*
X89296740Y-60230860D02*
X89296740Y-62980860D01*
X89296740Y-62980860D02*
X93046740Y-62980860D01*
X93046740Y-62980860D02*
X93046740Y-60230860D01*
X93046740Y-60230860D02*
X89296740Y-60230860D01*
X122469940Y-62740660D02*
G75*
G03X122469940Y-62740660I-254000J0D01*
G01*
X121199940Y-61978660D02*
X128311940Y-61978660D01*
X128311940Y-61978660D02*
X128311940Y-66804660D01*
X128311940Y-66804660D02*
X121199940Y-66804660D01*
X121199940Y-66804660D02*
X121199940Y-61978660D01*
X134536092Y-88102560D02*
G75*
G03X134536092Y-88102560I-280552J0D01*
G01*
X135576340Y-92318960D02*
X131766340Y-92318960D01*
X127956340Y-89143960D02*
X127956340Y-85968960D01*
X127956340Y-85968960D02*
X131766340Y-85968960D01*
X131766340Y-85968960D02*
X135576340Y-85968960D01*
X135576340Y-85968960D02*
X135576340Y-92318960D01*
X135576340Y-92318960D02*
X131766340Y-92318960D01*
X131766340Y-92318960D02*
X127956340Y-92318960D01*
X127956340Y-92318960D02*
X127956340Y-89143960D01*
D12*
X128250000Y-82976000D02*
X127250000Y-82976000D01*
X127250000Y-81616000D02*
X128250000Y-81616000D01*
X132896800Y-81142120D02*
X131896800Y-81142120D01*
X131896800Y-79782120D02*
X132896800Y-79782120D01*
X130958040Y-78212000D02*
X130958040Y-77212000D01*
X132318040Y-77212000D02*
X132318040Y-78212000D01*
X90098360Y-59660080D02*
X89398360Y-59660080D01*
X89398360Y-58460080D02*
X90098360Y-58460080D01*
X92727340Y-65306660D02*
X92727340Y-64606660D01*
X93927340Y-64606660D02*
X93927340Y-65306660D01*
X90589740Y-63391460D02*
X91289740Y-63391460D01*
X91289740Y-64591460D02*
X90589740Y-64591460D01*
X123717000Y-81696000D02*
X124417000Y-81696000D01*
X124417000Y-82896000D02*
X123717000Y-82896000D01*
X132165040Y-81624880D02*
X132865040Y-81624880D01*
X132865040Y-82824880D02*
X132165040Y-82824880D01*
X128222960Y-76519480D02*
X128922960Y-76519480D01*
X128922960Y-77719480D02*
X128222960Y-77719480D01*
X124034000Y-80268000D02*
X124034000Y-79268000D01*
X125394000Y-79268000D02*
X125394000Y-80268000D01*
X93546040Y-83918160D02*
X94546040Y-83918160D01*
X94546040Y-82218160D02*
X93546040Y-82218160D01*
X99030920Y-67689360D02*
X98030920Y-67689360D01*
X98030920Y-69389360D02*
X99030920Y-69389360D01*
X130306000Y-84500000D02*
X129306000Y-84500000D01*
X129306000Y-83140000D02*
X130306000Y-83140000D01*
X83795320Y-62455680D02*
X83795320Y-61455680D01*
X85155320Y-61455680D02*
X85155320Y-62455680D01*
X177114200Y-56934100D02*
G75*
G03X177114200Y-56934100I-2286000J0D01*
G01*
D13*
X81158840Y-88399360D02*
X81158840Y-94399360D01*
X81158840Y-94399360D02*
X98158840Y-94399360D01*
X98158840Y-94399360D02*
X98158840Y-88399360D01*
X98158840Y-88399360D02*
X81158840Y-88399360D01*
D12*
X82632240Y-83420260D02*
X87832240Y-83420260D01*
X82632240Y-70660260D02*
X82632240Y-83420260D01*
X87832240Y-68060260D02*
X87832240Y-83420260D01*
X82632240Y-70660260D02*
X85232240Y-70660260D01*
X85232240Y-70660260D02*
X85232240Y-68060260D01*
X85232240Y-68060260D02*
X87832240Y-68060260D01*
X82632240Y-69390260D02*
X82632240Y-68060260D01*
X82632240Y-68060260D02*
X83962240Y-68060260D01*
X92213880Y-71572880D02*
X92213880Y-69572880D01*
X89253880Y-69572880D02*
X89253880Y-71572880D01*
X146964960Y-115345160D02*
X146964960Y-116045160D01*
X145764960Y-116045160D02*
X145764960Y-115345160D01*
X141686840Y-115953360D02*
X141686840Y-116653360D01*
X140486840Y-116653360D02*
X140486840Y-115953360D01*
X133004000Y-78086000D02*
X133004000Y-77386000D01*
X134204000Y-77386000D02*
X134204000Y-78086000D01*
X121012000Y-82896000D02*
X120312000Y-82896000D01*
X120312000Y-81696000D02*
X121012000Y-81696000D01*
X107588800Y-81016400D02*
X106888800Y-81016400D01*
X106888800Y-79816400D02*
X107588800Y-79816400D01*
X111191600Y-81399200D02*
X111191600Y-82099200D01*
X109991600Y-82099200D02*
X109991600Y-81399200D01*
X105705200Y-89147600D02*
X105705200Y-89847600D01*
X104505200Y-89847600D02*
X104505200Y-89147600D01*
X106076800Y-83861200D02*
X105376800Y-83861200D01*
X105376800Y-82661200D02*
X106076800Y-82661200D01*
X120162000Y-80041200D02*
X121162000Y-80041200D01*
X121162000Y-81401200D02*
X120162000Y-81401200D01*
X111271600Y-84500400D02*
X111271600Y-85500400D01*
X109911600Y-85500400D02*
X109911600Y-84500400D01*
X107512400Y-89048400D02*
X107512400Y-90048400D01*
X106152400Y-90048400D02*
X106152400Y-89048400D01*
X107077200Y-75581200D02*
X107077200Y-78241200D01*
X114757200Y-75581200D02*
X107077200Y-75581200D01*
X114757200Y-78241200D02*
X107077200Y-78241200D01*
X114757200Y-75581200D02*
X114757200Y-78241200D01*
X116027200Y-75581200D02*
X117357200Y-75581200D01*
X117357200Y-75581200D02*
X117357200Y-76911200D01*
D14*
G36*
X121939653Y-124656294D02*
X121989084Y-124753322D01*
X122026479Y-124919582D01*
X122053481Y-125167059D01*
X122071737Y-125507738D01*
X122082893Y-125953602D01*
X122088594Y-126516637D01*
X122090487Y-127208826D01*
X122090216Y-128042154D01*
X122089427Y-129028605D01*
X122089333Y-129414403D01*
X122089333Y-134207940D01*
X122279833Y-134161926D01*
X122456880Y-134119825D01*
X122738035Y-134053654D01*
X123062483Y-133977725D01*
X123063000Y-133977605D01*
X123383692Y-133898151D01*
X123656929Y-133822280D01*
X123824045Y-133766292D01*
X123825000Y-133765880D01*
X123970499Y-133717278D01*
X124241788Y-133639091D01*
X124600202Y-133542077D01*
X125007072Y-133436991D01*
X125010333Y-133436168D01*
X125433184Y-133328378D01*
X125823492Y-133226868D01*
X126136612Y-133143373D01*
X126322108Y-133091370D01*
X126568857Y-133023437D01*
X126695030Y-133015543D01*
X126740619Y-133073953D01*
X126746000Y-133157790D01*
X126709277Y-133251910D01*
X126578666Y-133330742D01*
X126323499Y-133409756D01*
X126174500Y-133446090D01*
X125790857Y-133539033D01*
X125390640Y-133641253D01*
X125137333Y-133709451D01*
X124810655Y-133799286D01*
X124409299Y-133907778D01*
X124036667Y-134007062D01*
X123607180Y-134120517D01*
X123302286Y-134201500D01*
X123082845Y-134260732D01*
X122909718Y-134308933D01*
X122743764Y-134356821D01*
X122545843Y-134415118D01*
X122533833Y-134418668D01*
X122089333Y-134550047D01*
X122089333Y-136113377D01*
X122406833Y-136165857D01*
X122580948Y-136180848D01*
X122895980Y-136194250D01*
X123323515Y-136205413D01*
X123835140Y-136213684D01*
X124402442Y-136218411D01*
X124735167Y-136219268D01*
X125368623Y-136219985D01*
X125852797Y-136222645D01*
X126207740Y-136229000D01*
X126453504Y-136240806D01*
X126610139Y-136259817D01*
X126697697Y-136287787D01*
X126736229Y-136326471D01*
X126745785Y-136377623D01*
X126746000Y-136395204D01*
X126741555Y-136452358D01*
X126714255Y-136494790D01*
X126643155Y-136523920D01*
X126507308Y-136541163D01*
X126285768Y-136547939D01*
X125957588Y-136545664D01*
X125501823Y-136535756D01*
X124904500Y-136519823D01*
X124328424Y-136502629D01*
X123778407Y-136483582D01*
X123288087Y-136464048D01*
X122891103Y-136445392D01*
X122621093Y-136428982D01*
X122576167Y-136425281D01*
X122089333Y-136381125D01*
X122089333Y-137272716D01*
X122086514Y-137670597D01*
X122095957Y-137933492D01*
X122144516Y-138095119D01*
X122259042Y-138189196D01*
X122466387Y-138249440D01*
X122793403Y-138309571D01*
X122936000Y-138335862D01*
X123274212Y-138402103D01*
X123679338Y-138484531D01*
X123994333Y-138550600D01*
X124379316Y-138629353D01*
X124837267Y-138718031D01*
X125274167Y-138798464D01*
X125306667Y-138804223D01*
X125843468Y-138903269D01*
X126233394Y-138987137D01*
X126497446Y-139062832D01*
X126656623Y-139137355D01*
X126731925Y-139217710D01*
X126746000Y-139284200D01*
X126714756Y-139396490D01*
X126669704Y-139400373D01*
X126595807Y-139371778D01*
X126440733Y-139330453D01*
X126192594Y-139273979D01*
X125839497Y-139199940D01*
X125369553Y-139105917D01*
X124770872Y-138989493D01*
X124031563Y-138848249D01*
X123139735Y-138679769D01*
X122954814Y-138644996D01*
X122623387Y-138578724D01*
X122354666Y-138517610D01*
X122193417Y-138472091D01*
X122171648Y-138462413D01*
X122124144Y-138508510D01*
X122095041Y-138697922D01*
X122088194Y-138903370D01*
X122087055Y-139395200D01*
X121066727Y-139776200D01*
X120626240Y-139940484D01*
X120192974Y-140101733D01*
X119818363Y-140240824D01*
X119565032Y-140334513D01*
X119068299Y-140519946D01*
X118704041Y-140661937D01*
X118444366Y-140771416D01*
X118406333Y-140788626D01*
X118185966Y-140873586D01*
X118025333Y-140923296D01*
X117790640Y-141001510D01*
X117559667Y-141095989D01*
X117376444Y-141173218D01*
X117079533Y-141291679D01*
X116713971Y-141433611D01*
X116416667Y-141546729D01*
X115689722Y-141820952D01*
X115105540Y-142041805D01*
X114648317Y-142215336D01*
X114302250Y-142347594D01*
X114051534Y-142444628D01*
X113880368Y-142512487D01*
X113772946Y-142557219D01*
X113749667Y-142567541D01*
X113442106Y-142675025D01*
X113181720Y-142672985D01*
X112903000Y-142569517D01*
X112669935Y-142468537D01*
X112489455Y-142409643D01*
X112450129Y-142403739D01*
X112298786Y-142368079D01*
X112085651Y-142285325D01*
X112069129Y-142277796D01*
X111871068Y-142193001D01*
X111548869Y-142062375D01*
X111137043Y-141899284D01*
X110670104Y-141717093D01*
X110182562Y-141529166D01*
X109708930Y-141348869D01*
X109283719Y-141189566D01*
X108941441Y-141064623D01*
X108881333Y-141043298D01*
X108592397Y-140935660D01*
X108365541Y-140840370D01*
X108250567Y-140778500D01*
X108096412Y-140711718D01*
X108051695Y-140707533D01*
X107897221Y-140673814D01*
X107682500Y-140591912D01*
X107666462Y-140584618D01*
X107442485Y-140489420D01*
X107060237Y-140337235D01*
X106520757Y-140128464D01*
X105825087Y-139863511D01*
X105029000Y-139563336D01*
X104521000Y-139372497D01*
X104495409Y-138939349D01*
X104485349Y-138798063D01*
X104817333Y-138798063D01*
X104817333Y-139171367D01*
X105304167Y-139347261D01*
X105590727Y-139455757D01*
X105828222Y-139554397D01*
X105938018Y-139607344D01*
X106105929Y-139678400D01*
X106179222Y-139691533D01*
X106316569Y-139722958D01*
X106523101Y-139799338D01*
X106540204Y-139806635D01*
X106943205Y-139977622D01*
X107292135Y-140117344D01*
X107672477Y-140259400D01*
X107907667Y-140344137D01*
X108240035Y-140466134D01*
X108543604Y-140582935D01*
X108753098Y-140669420D01*
X108754333Y-140669973D01*
X109001345Y-140773977D01*
X109350046Y-140912300D01*
X109753322Y-141067196D01*
X110164062Y-141220916D01*
X110535152Y-141355712D01*
X110819479Y-141453837D01*
X110913333Y-141483294D01*
X111132724Y-141561252D01*
X111279903Y-141638103D01*
X111290100Y-141646735D01*
X111444681Y-141719549D01*
X111485245Y-141723533D01*
X111628725Y-141755569D01*
X111855002Y-141836224D01*
X111955145Y-141877886D01*
X112311234Y-142031469D01*
X112542047Y-142126865D01*
X112677020Y-142174726D01*
X112745584Y-142185704D01*
X112773548Y-142174074D01*
X112757388Y-142101957D01*
X112730733Y-142078763D01*
X112634828Y-141979934D01*
X112484190Y-141795049D01*
X112397963Y-141681200D01*
X112232967Y-141465564D01*
X112097846Y-141302407D01*
X112055447Y-141257867D01*
X111998198Y-141199033D01*
X111906673Y-141092576D01*
X111764521Y-140918373D01*
X111555390Y-140656299D01*
X111262929Y-140286232D01*
X111167481Y-140165092D01*
X111034101Y-140000744D01*
X110851077Y-139780918D01*
X110782263Y-139699426D01*
X110606972Y-139486895D01*
X110372593Y-139194968D01*
X110123127Y-138878586D01*
X110063891Y-138802533D01*
X109823011Y-138499544D01*
X109590292Y-138218927D01*
X109406893Y-138009995D01*
X109369461Y-137970520D01*
X109219547Y-137796863D01*
X109139477Y-137664362D01*
X109135333Y-137643757D01*
X109112879Y-137603691D01*
X109029591Y-137590093D01*
X108861584Y-137605676D01*
X108584969Y-137653156D01*
X108175859Y-137735244D01*
X107992333Y-137773626D01*
X107648676Y-137843432D01*
X107206975Y-137929604D01*
X106735907Y-138018865D01*
X106468333Y-138068272D01*
X106080517Y-138140665D01*
X105747196Y-138205926D01*
X105508107Y-138256088D01*
X105410000Y-138280448D01*
X105232920Y-138330180D01*
X105050167Y-138373741D01*
X104904467Y-138423292D01*
X104836711Y-138522090D01*
X104817826Y-138723119D01*
X104817333Y-138798063D01*
X104485349Y-138798063D01*
X104478016Y-138695086D01*
X104461192Y-138538791D01*
X104453075Y-138507893D01*
X104346709Y-138525471D01*
X104110489Y-138567781D01*
X103780939Y-138628062D01*
X103394585Y-138699552D01*
X102987951Y-138775490D01*
X102597562Y-138849115D01*
X102259942Y-138913666D01*
X102235000Y-138918488D01*
X101770745Y-139007908D01*
X101269580Y-139103743D01*
X100817931Y-139189487D01*
X100687481Y-139214071D01*
X100356054Y-139280343D01*
X100087333Y-139341456D01*
X99926084Y-139386975D01*
X99904314Y-139396654D01*
X99838257Y-139370854D01*
X99822000Y-139283071D01*
X99831449Y-139203279D01*
X99876150Y-139139826D01*
X99980635Y-139084223D01*
X100169435Y-139027980D01*
X100467081Y-138962607D01*
X100898105Y-138879614D01*
X101092000Y-138843538D01*
X101556885Y-138756184D01*
X102050563Y-138661479D01*
X102493589Y-138574730D01*
X102658333Y-138541745D01*
X103073989Y-138459304D01*
X103514202Y-138374589D01*
X103884087Y-138305857D01*
X103886000Y-138305512D01*
X104436333Y-138206326D01*
X104439389Y-138090540D01*
X104817333Y-138090540D01*
X105092500Y-138042343D01*
X105345516Y-137996213D01*
X105661947Y-137936216D01*
X105791000Y-137911141D01*
X106087670Y-137852729D01*
X106471255Y-137776877D01*
X106862603Y-137699241D01*
X106891667Y-137693463D01*
X107312765Y-137610754D01*
X107763295Y-137523844D01*
X108142240Y-137452199D01*
X108434166Y-137393728D01*
X108653259Y-137341994D01*
X108753059Y-137307992D01*
X108753588Y-137307501D01*
X108727847Y-137225147D01*
X108623126Y-137047684D01*
X108476682Y-136834139D01*
X108161667Y-136398886D01*
X106489500Y-136394209D01*
X104817333Y-136389533D01*
X104817333Y-138090540D01*
X104439389Y-138090540D01*
X104460398Y-137294629D01*
X104484462Y-136382932D01*
X104079398Y-136425758D01*
X103876393Y-136440462D01*
X103534988Y-136457641D01*
X103086075Y-136476070D01*
X102560548Y-136494523D01*
X101989297Y-136511775D01*
X101748167Y-136518239D01*
X101130000Y-136533770D01*
X100660625Y-136543425D01*
X100319559Y-136545883D01*
X100086322Y-136539823D01*
X99940433Y-136523925D01*
X99861411Y-136496868D01*
X99828774Y-136457332D01*
X99822042Y-136403996D01*
X99822000Y-136394046D01*
X99827065Y-136339276D01*
X99855628Y-136297401D01*
X99927736Y-136266679D01*
X100063437Y-136245368D01*
X100282781Y-136231724D01*
X100605816Y-136224005D01*
X101052591Y-136220469D01*
X101643154Y-136219373D01*
X101832833Y-136219268D01*
X102418958Y-136216819D01*
X102965381Y-136210460D01*
X103443688Y-136200843D01*
X103825465Y-136188620D01*
X104082299Y-136174442D01*
X104161167Y-136165857D01*
X104478667Y-136113377D01*
X104478667Y-135363658D01*
X104817333Y-135363658D01*
X104817333Y-136135533D01*
X105523993Y-136135533D01*
X105962007Y-136128647D01*
X106468924Y-136110460D01*
X106944977Y-136084680D01*
X107007026Y-136080425D01*
X107783400Y-136025316D01*
X107640127Y-135806654D01*
X107367102Y-135453748D01*
X107085455Y-135234354D01*
X106807000Y-135127772D01*
X106434066Y-135032788D01*
X106028475Y-134927374D01*
X105634969Y-134823393D01*
X105298288Y-134732708D01*
X105063177Y-134667182D01*
X105007833Y-134650748D01*
X104918146Y-134629543D01*
X104862230Y-134653449D01*
X104832109Y-134752315D01*
X104819806Y-134955990D01*
X104817346Y-135294324D01*
X104817333Y-135363658D01*
X104478667Y-135363658D01*
X104478667Y-135330394D01*
X104475524Y-134942675D01*
X104447091Y-134687094D01*
X104364855Y-134526482D01*
X104200306Y-134423674D01*
X103924935Y-134341503D01*
X103674333Y-134281865D01*
X103466484Y-134230385D01*
X103137141Y-134145865D01*
X102728339Y-134039207D01*
X102282115Y-133921319D01*
X102192667Y-133897509D01*
X101710075Y-133770635D01*
X101223461Y-133645718D01*
X100787219Y-133536541D01*
X100455744Y-133456888D01*
X100435833Y-133452308D01*
X100110504Y-133369752D01*
X99921132Y-133296685D01*
X99836196Y-133217614D01*
X99822000Y-133150582D01*
X99847557Y-133044686D01*
X99955589Y-133021811D01*
X100097167Y-133043766D01*
X100364735Y-133108088D01*
X100584000Y-133176125D01*
X100776822Y-133237095D01*
X101066893Y-133317732D01*
X101346000Y-133389231D01*
X101715593Y-133481389D01*
X102093920Y-133577946D01*
X102319667Y-133636990D01*
X102676945Y-133731442D01*
X103073435Y-133835261D01*
X103475185Y-133939685D01*
X103848243Y-134035952D01*
X104158656Y-134115300D01*
X104372472Y-134168967D01*
X104455558Y-134188200D01*
X104459821Y-134106047D01*
X104463829Y-133869640D01*
X104467510Y-133494061D01*
X104468973Y-133271102D01*
X104817333Y-133271102D01*
X104818939Y-133713759D01*
X104837981Y-134018849D01*
X104895801Y-134218093D01*
X105013737Y-134343213D01*
X105213130Y-134425930D01*
X105515319Y-134497965D01*
X105664000Y-134529662D01*
X106001689Y-134609859D01*
X106333695Y-134701099D01*
X106468333Y-134743364D01*
X106711764Y-134824288D01*
X106822718Y-134850276D01*
X106829763Y-134818727D01*
X106761465Y-134727040D01*
X106753867Y-134717367D01*
X106642816Y-134580776D01*
X106594851Y-134526867D01*
X106523493Y-134439048D01*
X106389571Y-134262663D01*
X106302994Y-134145867D01*
X106147322Y-133941023D01*
X106029811Y-133798661D01*
X105995975Y-133764867D01*
X105922610Y-133684470D01*
X105769446Y-133500078D01*
X105560734Y-133241288D01*
X105377666Y-133010242D01*
X104817333Y-132297951D01*
X104817333Y-133271102D01*
X104468973Y-133271102D01*
X104470790Y-132994389D01*
X104473597Y-132385705D01*
X104475016Y-131944533D01*
X104899142Y-131944533D01*
X105242077Y-132367867D01*
X105471399Y-132650424D01*
X105700054Y-132931329D01*
X105827629Y-133087533D01*
X106005349Y-133306075D01*
X106238412Y-133594604D01*
X106476477Y-133890798D01*
X106477334Y-133891867D01*
X106677758Y-134139587D01*
X106837667Y-134332822D01*
X106927417Y-134435849D01*
X106934000Y-134442200D01*
X107006990Y-134524872D01*
X107154791Y-134704884D01*
X107347892Y-134946192D01*
X107384536Y-134992533D01*
X107600552Y-135264930D01*
X107793517Y-135506022D01*
X107924304Y-135666942D01*
X107931247Y-135675294D01*
X108072964Y-135849631D01*
X108257789Y-136082349D01*
X108331000Y-136175794D01*
X108544226Y-136444603D01*
X108786658Y-136743797D01*
X108881333Y-136858726D01*
X109111041Y-137138060D01*
X109346543Y-137428114D01*
X109431667Y-137534182D01*
X109600451Y-137743264D01*
X109733990Y-137904506D01*
X109770333Y-137946490D01*
X109868440Y-138067349D01*
X110021239Y-138267237D01*
X110104524Y-138379200D01*
X110259148Y-138583804D01*
X110373899Y-138726155D01*
X110405944Y-138760200D01*
X110475728Y-138839059D01*
X110628961Y-139023962D01*
X110843854Y-139288291D01*
X111098618Y-139605428D01*
X111130086Y-139644832D01*
X111402092Y-139983766D01*
X111650520Y-140289915D01*
X111848488Y-140530371D01*
X111969111Y-140672224D01*
X111971667Y-140675070D01*
X112093408Y-140820463D01*
X112286877Y-141062907D01*
X112521882Y-141364225D01*
X112691333Y-141585014D01*
X112920155Y-141880071D01*
X113111956Y-142117778D01*
X113243632Y-142270095D01*
X113289941Y-142311609D01*
X113366169Y-142253939D01*
X113413760Y-142201936D01*
X113853681Y-142201936D01*
X113864555Y-142231533D01*
X113987373Y-142170009D01*
X113999641Y-142153380D01*
X114109671Y-142081529D01*
X114306458Y-142018448D01*
X114306674Y-142018401D01*
X114580285Y-141934612D01*
X114792536Y-141843075D01*
X115004635Y-141756179D01*
X115162836Y-141724055D01*
X115311742Y-141685642D01*
X115351155Y-141650481D01*
X115453564Y-141585972D01*
X115661346Y-141506142D01*
X115781667Y-141469533D01*
X116019121Y-141391194D01*
X116179703Y-141316198D01*
X116212178Y-141288586D01*
X116326820Y-141222770D01*
X116387701Y-141215533D01*
X116551419Y-141181721D01*
X116771006Y-141099705D01*
X116784871Y-141093439D01*
X116964632Y-141018016D01*
X117263586Y-140899892D01*
X117641898Y-140754539D01*
X118059733Y-140597428D01*
X118110000Y-140578756D01*
X118529852Y-140421420D01*
X118914909Y-140274235D01*
X119225342Y-140152617D01*
X119421326Y-140071981D01*
X119435129Y-140065851D01*
X119642781Y-139983713D01*
X119788885Y-139945826D01*
X119796111Y-139945533D01*
X119945161Y-139907598D01*
X120037315Y-139864968D01*
X120302339Y-139738117D01*
X120653648Y-139593609D01*
X121015309Y-139462352D01*
X121073333Y-139443265D01*
X121429740Y-139321972D01*
X121653619Y-139219954D01*
X121775490Y-139110783D01*
X121825877Y-138968033D01*
X121835333Y-138783478D01*
X121823292Y-138553096D01*
X121766640Y-138437597D01*
X121634585Y-138383095D01*
X121602500Y-138376036D01*
X121362543Y-138323851D01*
X121075538Y-138258949D01*
X121031000Y-138248647D01*
X120785880Y-138195233D01*
X120440065Y-138124245D01*
X120059330Y-138049120D01*
X119972667Y-138032464D01*
X119542609Y-137949726D01*
X119083602Y-137860538D01*
X118689148Y-137783078D01*
X118660333Y-137777367D01*
X118321689Y-137710232D01*
X118014251Y-137649365D01*
X117813667Y-137609739D01*
X117642269Y-137597359D01*
X117504549Y-137661984D01*
X117344057Y-137833867D01*
X117305667Y-137881990D01*
X117126226Y-138103840D01*
X116970362Y-138286879D01*
X116924667Y-138336872D01*
X116798408Y-138483081D01*
X116625608Y-138699895D01*
X116545096Y-138805326D01*
X116240904Y-139201700D01*
X116012343Y-139480246D01*
X115948036Y-139552815D01*
X115859284Y-139658445D01*
X115693735Y-139862030D01*
X115479627Y-140128702D01*
X115355715Y-140284200D01*
X115130849Y-140563665D01*
X114942315Y-140791582D01*
X114816795Y-140936013D01*
X114784080Y-140968445D01*
X114694149Y-141064865D01*
X114558150Y-141239536D01*
X114529734Y-141278618D01*
X114360276Y-141505075D01*
X114149624Y-141774414D01*
X114060052Y-141885540D01*
X113918917Y-142076272D01*
X113853681Y-142201936D01*
X113413760Y-142201936D01*
X113504903Y-142102344D01*
X113586274Y-142003029D01*
X113871559Y-141644470D01*
X114170092Y-141271961D01*
X114454259Y-140919699D01*
X114696448Y-140621879D01*
X114869044Y-140412697D01*
X114902012Y-140373643D01*
X115069087Y-140168591D01*
X115260875Y-139921159D01*
X115302544Y-139865643D01*
X115448359Y-139673266D01*
X115550840Y-139544393D01*
X115570682Y-139522200D01*
X115642470Y-139439738D01*
X115789705Y-139262879D01*
X115981370Y-139028905D01*
X115993333Y-139014200D01*
X116186642Y-138778033D01*
X116337340Y-138596794D01*
X116414410Y-138507765D01*
X116415984Y-138506200D01*
X116488149Y-138418459D01*
X116622872Y-138242225D01*
X116710037Y-138125200D01*
X116875033Y-137909564D01*
X117010154Y-137746407D01*
X117052553Y-137701867D01*
X117151310Y-137593529D01*
X117315104Y-137396998D01*
X117379898Y-137315992D01*
X117786273Y-137315992D01*
X117788191Y-137320881D01*
X117877103Y-137336261D01*
X118091151Y-137377153D01*
X118389456Y-137435704D01*
X118491000Y-137455884D01*
X118926676Y-137542644D01*
X119405337Y-137637859D01*
X119803333Y-137716940D01*
X120215322Y-137798906D01*
X120656426Y-137886932D01*
X120988667Y-137953444D01*
X121368873Y-138030939D01*
X121614665Y-138063543D01*
X121755125Y-138026618D01*
X121819336Y-137895529D01*
X121836380Y-137645638D01*
X121835340Y-137252308D01*
X121835333Y-137236200D01*
X121835333Y-136389533D01*
X120184333Y-136389533D01*
X119608539Y-136390952D01*
X119178134Y-136396545D01*
X118869186Y-136408323D01*
X118657765Y-136428291D01*
X118519940Y-136458459D01*
X118431780Y-136500834D01*
X118385167Y-136540493D01*
X118261689Y-136679134D01*
X118107693Y-136868317D01*
X117955546Y-137065729D01*
X117837617Y-137229058D01*
X117786273Y-137315992D01*
X117379898Y-137315992D01*
X117477584Y-137193867D01*
X117670051Y-136952709D01*
X117833261Y-136754898D01*
X117917752Y-136658652D01*
X118009642Y-136534316D01*
X118025333Y-136487021D01*
X118077271Y-136392168D01*
X118206929Y-136228246D01*
X118258167Y-136170210D01*
X118426534Y-135977215D01*
X118872000Y-135977215D01*
X118939158Y-136017804D01*
X119145398Y-136051520D01*
X119497870Y-136078880D01*
X120003724Y-136100400D01*
X120670110Y-136116599D01*
X120840500Y-136119524D01*
X121835333Y-136135533D01*
X121835333Y-135373533D01*
X121831077Y-135037953D01*
X121819676Y-134777779D01*
X121803182Y-134630792D01*
X121793945Y-134611533D01*
X121698265Y-134631692D01*
X121480953Y-134685225D01*
X121183948Y-134761718D01*
X121095445Y-134784981D01*
X120537791Y-134933365D01*
X120118584Y-135050056D01*
X119812269Y-135145503D01*
X119593287Y-135230160D01*
X119436082Y-135314477D01*
X119315097Y-135408906D01*
X119204774Y-135523900D01*
X119158761Y-135576997D01*
X118996211Y-135778465D01*
X118892286Y-135929490D01*
X118872000Y-135977215D01*
X118426534Y-135977215D01*
X118578031Y-135803558D01*
X118949438Y-135356491D01*
X119325303Y-134886242D01*
X119446748Y-134729372D01*
X119888000Y-134729372D01*
X119890018Y-134759845D01*
X119916733Y-134772812D01*
X119999132Y-134763413D01*
X120168203Y-134726787D01*
X120454935Y-134658074D01*
X120659535Y-134608362D01*
X121016567Y-134517570D01*
X121336410Y-134429079D01*
X121563071Y-134358581D01*
X121602500Y-134344091D01*
X121835333Y-134252323D01*
X121835333Y-133288928D01*
X121832884Y-132907769D01*
X121826230Y-132597840D01*
X121816413Y-132392745D01*
X121805490Y-132325533D01*
X121743698Y-132387662D01*
X121606370Y-132552526D01*
X121420167Y-132787844D01*
X121368486Y-132854700D01*
X121163201Y-133117049D01*
X120989395Y-133331159D01*
X120879298Y-133457500D01*
X120868007Y-133468533D01*
X120762954Y-133582404D01*
X120598495Y-133780030D01*
X120403339Y-134024475D01*
X120206197Y-134278802D01*
X120035778Y-134506074D01*
X119920791Y-134669355D01*
X119888000Y-134729372D01*
X119446748Y-134729372D01*
X119498543Y-134662469D01*
X119678086Y-134432345D01*
X119819178Y-134260121D01*
X119885902Y-134188200D01*
X119959988Y-134107267D01*
X120112646Y-133924127D01*
X120318157Y-133669977D01*
X120455014Y-133497800D01*
X120699126Y-133192654D01*
X120924966Y-132917124D01*
X121098132Y-132712900D01*
X121153668Y-132651133D01*
X121340768Y-132423125D01*
X121479101Y-132219700D01*
X121600344Y-132057272D01*
X121702462Y-131985128D01*
X121705421Y-131984939D01*
X121699664Y-131953822D01*
X121572320Y-131879761D01*
X121539000Y-131863723D01*
X121197078Y-131706507D01*
X120878837Y-131566047D01*
X120622234Y-131458537D01*
X120465226Y-131400168D01*
X120438333Y-131394200D01*
X120333482Y-131361782D01*
X120090341Y-131262932D01*
X119703160Y-131095254D01*
X119422333Y-130970867D01*
X118958782Y-130766588D01*
X118639254Y-130631010D01*
X118454718Y-130560386D01*
X118402607Y-130547533D01*
X118294882Y-130515651D01*
X118105250Y-130437777D01*
X118080462Y-130426652D01*
X117572082Y-130199020D01*
X117215777Y-130045705D01*
X117011482Y-129966681D01*
X116963274Y-129954866D01*
X116855779Y-129922576D01*
X116666509Y-129843678D01*
X116641129Y-129832113D01*
X116407764Y-129728946D01*
X116076900Y-129588278D01*
X115676912Y-129421593D01*
X115236179Y-129240374D01*
X114783077Y-129056102D01*
X114345982Y-128880262D01*
X113953273Y-128724336D01*
X113633325Y-128599807D01*
X113414516Y-128518157D01*
X113326333Y-128490765D01*
X113228922Y-128521448D01*
X113003607Y-128605841D01*
X112678765Y-128732462D01*
X112282774Y-128889827D01*
X111844009Y-129066453D01*
X111390849Y-129250859D01*
X110951671Y-129431561D01*
X110554850Y-129597075D01*
X110228764Y-129735920D01*
X110011538Y-129832113D01*
X109815905Y-129914957D01*
X109692246Y-129954345D01*
X109685667Y-129954867D01*
X109575211Y-129986828D01*
X109384048Y-130064867D01*
X109359795Y-130075747D01*
X108865236Y-130297292D01*
X108511076Y-130450250D01*
X108301889Y-130532682D01*
X108246333Y-130547533D01*
X108141482Y-130579951D01*
X107898341Y-130678801D01*
X107511160Y-130846479D01*
X107230333Y-130970867D01*
X106760268Y-131177997D01*
X106437452Y-131314963D01*
X106256135Y-131384159D01*
X106214333Y-131394200D01*
X106157262Y-131408344D01*
X106029252Y-131456951D01*
X105807946Y-131549283D01*
X105470984Y-131694602D01*
X105133404Y-131841970D01*
X104899142Y-131944533D01*
X104475016Y-131944533D01*
X104475858Y-131683088D01*
X104477501Y-130901619D01*
X104478451Y-130056378D01*
X104478667Y-129404533D01*
X104478667Y-128303305D01*
X104817333Y-128303305D01*
X104817696Y-129143476D01*
X104819241Y-129829515D01*
X104822654Y-130376620D01*
X104828619Y-130799991D01*
X104837823Y-131114829D01*
X104850949Y-131336332D01*
X104868684Y-131479700D01*
X104891713Y-131560134D01*
X104920720Y-131592831D01*
X104956391Y-131592993D01*
X104965500Y-131590066D01*
X105138681Y-131512352D01*
X105198333Y-131476086D01*
X105340447Y-131406183D01*
X105494667Y-131352140D01*
X105724656Y-131271101D01*
X106054566Y-131138767D01*
X106431506Y-130976807D01*
X106637667Y-130883888D01*
X106764862Y-130829627D01*
X107022915Y-130722698D01*
X107385665Y-130573828D01*
X107826952Y-130393743D01*
X108320614Y-130193169D01*
X108458000Y-130137496D01*
X109032054Y-129904990D01*
X109627536Y-129663784D01*
X110199488Y-129432090D01*
X110702956Y-129228119D01*
X111082667Y-129074262D01*
X111473077Y-128915006D01*
X111818389Y-128772228D01*
X112081400Y-128661436D01*
X112224907Y-128598139D01*
X112225667Y-128597772D01*
X112414262Y-128516578D01*
X112669712Y-128417899D01*
X112733667Y-128394661D01*
X112909729Y-128320986D01*
X112909984Y-128320776D01*
X113594512Y-128320776D01*
X113841423Y-128382350D01*
X114106105Y-128465796D01*
X114342333Y-128560805D01*
X114536376Y-128645538D01*
X114834515Y-128770573D01*
X115183485Y-128913677D01*
X115316000Y-128967227D01*
X115683046Y-129116200D01*
X116175182Y-129317837D01*
X116761367Y-129559258D01*
X117410558Y-129827579D01*
X118091713Y-130109918D01*
X118773790Y-130393392D01*
X119425747Y-130665120D01*
X120016543Y-130912217D01*
X120515135Y-131121803D01*
X120861667Y-131268687D01*
X121211631Y-131416466D01*
X121503553Y-131536802D01*
X121702664Y-131615547D01*
X121771833Y-131639098D01*
X121785745Y-131559476D01*
X121798603Y-131328468D01*
X121810068Y-130964021D01*
X121819799Y-130484079D01*
X121827454Y-129906590D01*
X121832694Y-129249498D01*
X121835176Y-128530750D01*
X121835333Y-128294808D01*
X121834301Y-127422124D01*
X121830933Y-126706007D01*
X121824821Y-126133701D01*
X121815557Y-125692451D01*
X121802735Y-125369502D01*
X121785945Y-125152098D01*
X121764782Y-125027485D01*
X121738836Y-124982906D01*
X121729500Y-124983443D01*
X121497396Y-125076904D01*
X121161061Y-125214014D01*
X120751016Y-125382158D01*
X120297783Y-125568724D01*
X119831883Y-125761100D01*
X119383837Y-125946672D01*
X118984165Y-126112827D01*
X118663390Y-126246953D01*
X118452031Y-126336436D01*
X118393538Y-126362028D01*
X118197740Y-126444092D01*
X118074124Y-126483034D01*
X118067667Y-126483533D01*
X117957211Y-126515494D01*
X117766048Y-126593534D01*
X117741795Y-126604414D01*
X117233415Y-126832046D01*
X116877110Y-126985361D01*
X116672815Y-127064385D01*
X116624607Y-127076200D01*
X116517116Y-127108497D01*
X116327853Y-127187416D01*
X116302462Y-127198988D01*
X116114240Y-127280310D01*
X115813557Y-127404349D01*
X115445817Y-127552561D01*
X115146667Y-127671042D01*
X114749044Y-127829056D01*
X114374707Y-127980984D01*
X114072892Y-128106676D01*
X113926089Y-128170541D01*
X113594512Y-128320776D01*
X112909984Y-128320776D01*
X112967875Y-128273152D01*
X112945333Y-128264626D01*
X112793893Y-128223932D01*
X112566432Y-128132509D01*
X112479667Y-128092200D01*
X112259074Y-127991911D01*
X112103351Y-127932455D01*
X112072855Y-127925739D01*
X111972619Y-127897100D01*
X111756424Y-127811450D01*
X111410937Y-127663284D01*
X111040333Y-127499533D01*
X110576782Y-127295255D01*
X110257254Y-127159677D01*
X110072718Y-127089052D01*
X110020607Y-127076200D01*
X109912882Y-127044317D01*
X109723250Y-126966444D01*
X109698462Y-126955319D01*
X109190082Y-126727687D01*
X108833777Y-126574372D01*
X108629482Y-126495348D01*
X108581274Y-126483533D01*
X108473705Y-126451373D01*
X108284319Y-126372801D01*
X108259129Y-126361379D01*
X108086224Y-126286795D01*
X107791815Y-126164595D01*
X107411837Y-126009509D01*
X106982224Y-125836264D01*
X106807000Y-125766167D01*
X106378083Y-125594164D01*
X105994637Y-125438860D01*
X105689228Y-125313561D01*
X105494425Y-125231572D01*
X105452333Y-125212735D01*
X105241707Y-125121979D01*
X105050167Y-125048043D01*
X104817333Y-124963724D01*
X104817333Y-128303305D01*
X104478667Y-128303305D01*
X104478667Y-124620867D01*
X104669167Y-124623739D01*
X104863926Y-124661924D01*
X105118318Y-124753782D01*
X105198333Y-124790200D01*
X105418925Y-124890489D01*
X105574649Y-124949945D01*
X105605145Y-124956660D01*
X105719609Y-124990931D01*
X105967722Y-125091444D01*
X106356297Y-125261059D01*
X106735129Y-125431319D01*
X106931009Y-125512992D01*
X107054603Y-125551711D01*
X107061000Y-125552200D01*
X107171461Y-125584152D01*
X107362632Y-125662167D01*
X107386871Y-125673037D01*
X107525765Y-125732827D01*
X107801480Y-125848835D01*
X108194244Y-126012839D01*
X108684287Y-126216616D01*
X109251836Y-126451943D01*
X109877121Y-126710596D01*
X110466012Y-126953691D01*
X113278358Y-128113508D01*
X113979679Y-127836636D01*
X114409168Y-127666105D01*
X114746586Y-127529006D01*
X115057860Y-127397863D01*
X115408921Y-127245202D01*
X115586521Y-127166986D01*
X115822496Y-127066930D01*
X115990163Y-127003400D01*
X116035667Y-126991533D01*
X116124738Y-126965200D01*
X116330645Y-126882601D01*
X116666349Y-126738339D01*
X117051667Y-126568428D01*
X117197125Y-126507900D01*
X117460424Y-126401987D01*
X117801580Y-126266666D01*
X118110000Y-126145506D01*
X118498525Y-125991902D01*
X118854786Y-125848134D01*
X119133338Y-125732701D01*
X119265795Y-125674988D01*
X119460217Y-125592210D01*
X119581540Y-125552745D01*
X119587941Y-125552200D01*
X119706513Y-125515072D01*
X119977059Y-125403669D01*
X120399643Y-125217964D01*
X120705129Y-125080414D01*
X120905298Y-124997645D01*
X121036985Y-124957304D01*
X121043795Y-124956660D01*
X121158384Y-124920732D01*
X121361829Y-124833736D01*
X121454333Y-124790200D01*
X121588638Y-124720827D01*
X121702676Y-124660766D01*
X121798094Y-124622001D01*
X121876538Y-124616516D01*
X121939653Y-124656294D01*
X121939653Y-124656294D01*
G37*
X121939653Y-124656294D02*
X121989084Y-124753322D01*
X122026479Y-124919582D01*
X122053481Y-125167059D01*
X122071737Y-125507738D01*
X122082893Y-125953602D01*
X122088594Y-126516637D01*
X122090487Y-127208826D01*
X122090216Y-128042154D01*
X122089427Y-129028605D01*
X122089333Y-129414403D01*
X122089333Y-134207940D01*
X122279833Y-134161926D01*
X122456880Y-134119825D01*
X122738035Y-134053654D01*
X123062483Y-133977725D01*
X123063000Y-133977605D01*
X123383692Y-133898151D01*
X123656929Y-133822280D01*
X123824045Y-133766292D01*
X123825000Y-133765880D01*
X123970499Y-133717278D01*
X124241788Y-133639091D01*
X124600202Y-133542077D01*
X125007072Y-133436991D01*
X125010333Y-133436168D01*
X125433184Y-133328378D01*
X125823492Y-133226868D01*
X126136612Y-133143373D01*
X126322108Y-133091370D01*
X126568857Y-133023437D01*
X126695030Y-133015543D01*
X126740619Y-133073953D01*
X126746000Y-133157790D01*
X126709277Y-133251910D01*
X126578666Y-133330742D01*
X126323499Y-133409756D01*
X126174500Y-133446090D01*
X125790857Y-133539033D01*
X125390640Y-133641253D01*
X125137333Y-133709451D01*
X124810655Y-133799286D01*
X124409299Y-133907778D01*
X124036667Y-134007062D01*
X123607180Y-134120517D01*
X123302286Y-134201500D01*
X123082845Y-134260732D01*
X122909718Y-134308933D01*
X122743764Y-134356821D01*
X122545843Y-134415118D01*
X122533833Y-134418668D01*
X122089333Y-134550047D01*
X122089333Y-136113377D01*
X122406833Y-136165857D01*
X122580948Y-136180848D01*
X122895980Y-136194250D01*
X123323515Y-136205413D01*
X123835140Y-136213684D01*
X124402442Y-136218411D01*
X124735167Y-136219268D01*
X125368623Y-136219985D01*
X125852797Y-136222645D01*
X126207740Y-136229000D01*
X126453504Y-136240806D01*
X126610139Y-136259817D01*
X126697697Y-136287787D01*
X126736229Y-136326471D01*
X126745785Y-136377623D01*
X126746000Y-136395204D01*
X126741555Y-136452358D01*
X126714255Y-136494790D01*
X126643155Y-136523920D01*
X126507308Y-136541163D01*
X126285768Y-136547939D01*
X125957588Y-136545664D01*
X125501823Y-136535756D01*
X124904500Y-136519823D01*
X124328424Y-136502629D01*
X123778407Y-136483582D01*
X123288087Y-136464048D01*
X122891103Y-136445392D01*
X122621093Y-136428982D01*
X122576167Y-136425281D01*
X122089333Y-136381125D01*
X122089333Y-137272716D01*
X122086514Y-137670597D01*
X122095957Y-137933492D01*
X122144516Y-138095119D01*
X122259042Y-138189196D01*
X122466387Y-138249440D01*
X122793403Y-138309571D01*
X122936000Y-138335862D01*
X123274212Y-138402103D01*
X123679338Y-138484531D01*
X123994333Y-138550600D01*
X124379316Y-138629353D01*
X124837267Y-138718031D01*
X125274167Y-138798464D01*
X125306667Y-138804223D01*
X125843468Y-138903269D01*
X126233394Y-138987137D01*
X126497446Y-139062832D01*
X126656623Y-139137355D01*
X126731925Y-139217710D01*
X126746000Y-139284200D01*
X126714756Y-139396490D01*
X126669704Y-139400373D01*
X126595807Y-139371778D01*
X126440733Y-139330453D01*
X126192594Y-139273979D01*
X125839497Y-139199940D01*
X125369553Y-139105917D01*
X124770872Y-138989493D01*
X124031563Y-138848249D01*
X123139735Y-138679769D01*
X122954814Y-138644996D01*
X122623387Y-138578724D01*
X122354666Y-138517610D01*
X122193417Y-138472091D01*
X122171648Y-138462413D01*
X122124144Y-138508510D01*
X122095041Y-138697922D01*
X122088194Y-138903370D01*
X122087055Y-139395200D01*
X121066727Y-139776200D01*
X120626240Y-139940484D01*
X120192974Y-140101733D01*
X119818363Y-140240824D01*
X119565032Y-140334513D01*
X119068299Y-140519946D01*
X118704041Y-140661937D01*
X118444366Y-140771416D01*
X118406333Y-140788626D01*
X118185966Y-140873586D01*
X118025333Y-140923296D01*
X117790640Y-141001510D01*
X117559667Y-141095989D01*
X117376444Y-141173218D01*
X117079533Y-141291679D01*
X116713971Y-141433611D01*
X116416667Y-141546729D01*
X115689722Y-141820952D01*
X115105540Y-142041805D01*
X114648317Y-142215336D01*
X114302250Y-142347594D01*
X114051534Y-142444628D01*
X113880368Y-142512487D01*
X113772946Y-142557219D01*
X113749667Y-142567541D01*
X113442106Y-142675025D01*
X113181720Y-142672985D01*
X112903000Y-142569517D01*
X112669935Y-142468537D01*
X112489455Y-142409643D01*
X112450129Y-142403739D01*
X112298786Y-142368079D01*
X112085651Y-142285325D01*
X112069129Y-142277796D01*
X111871068Y-142193001D01*
X111548869Y-142062375D01*
X111137043Y-141899284D01*
X110670104Y-141717093D01*
X110182562Y-141529166D01*
X109708930Y-141348869D01*
X109283719Y-141189566D01*
X108941441Y-141064623D01*
X108881333Y-141043298D01*
X108592397Y-140935660D01*
X108365541Y-140840370D01*
X108250567Y-140778500D01*
X108096412Y-140711718D01*
X108051695Y-140707533D01*
X107897221Y-140673814D01*
X107682500Y-140591912D01*
X107666462Y-140584618D01*
X107442485Y-140489420D01*
X107060237Y-140337235D01*
X106520757Y-140128464D01*
X105825087Y-139863511D01*
X105029000Y-139563336D01*
X104521000Y-139372497D01*
X104495409Y-138939349D01*
X104485349Y-138798063D01*
X104817333Y-138798063D01*
X104817333Y-139171367D01*
X105304167Y-139347261D01*
X105590727Y-139455757D01*
X105828222Y-139554397D01*
X105938018Y-139607344D01*
X106105929Y-139678400D01*
X106179222Y-139691533D01*
X106316569Y-139722958D01*
X106523101Y-139799338D01*
X106540204Y-139806635D01*
X106943205Y-139977622D01*
X107292135Y-140117344D01*
X107672477Y-140259400D01*
X107907667Y-140344137D01*
X108240035Y-140466134D01*
X108543604Y-140582935D01*
X108753098Y-140669420D01*
X108754333Y-140669973D01*
X109001345Y-140773977D01*
X109350046Y-140912300D01*
X109753322Y-141067196D01*
X110164062Y-141220916D01*
X110535152Y-141355712D01*
X110819479Y-141453837D01*
X110913333Y-141483294D01*
X111132724Y-141561252D01*
X111279903Y-141638103D01*
X111290100Y-141646735D01*
X111444681Y-141719549D01*
X111485245Y-141723533D01*
X111628725Y-141755569D01*
X111855002Y-141836224D01*
X111955145Y-141877886D01*
X112311234Y-142031469D01*
X112542047Y-142126865D01*
X112677020Y-142174726D01*
X112745584Y-142185704D01*
X112773548Y-142174074D01*
X112757388Y-142101957D01*
X112730733Y-142078763D01*
X112634828Y-141979934D01*
X112484190Y-141795049D01*
X112397963Y-141681200D01*
X112232967Y-141465564D01*
X112097846Y-141302407D01*
X112055447Y-141257867D01*
X111998198Y-141199033D01*
X111906673Y-141092576D01*
X111764521Y-140918373D01*
X111555390Y-140656299D01*
X111262929Y-140286232D01*
X111167481Y-140165092D01*
X111034101Y-140000744D01*
X110851077Y-139780918D01*
X110782263Y-139699426D01*
X110606972Y-139486895D01*
X110372593Y-139194968D01*
X110123127Y-138878586D01*
X110063891Y-138802533D01*
X109823011Y-138499544D01*
X109590292Y-138218927D01*
X109406893Y-138009995D01*
X109369461Y-137970520D01*
X109219547Y-137796863D01*
X109139477Y-137664362D01*
X109135333Y-137643757D01*
X109112879Y-137603691D01*
X109029591Y-137590093D01*
X108861584Y-137605676D01*
X108584969Y-137653156D01*
X108175859Y-137735244D01*
X107992333Y-137773626D01*
X107648676Y-137843432D01*
X107206975Y-137929604D01*
X106735907Y-138018865D01*
X106468333Y-138068272D01*
X106080517Y-138140665D01*
X105747196Y-138205926D01*
X105508107Y-138256088D01*
X105410000Y-138280448D01*
X105232920Y-138330180D01*
X105050167Y-138373741D01*
X104904467Y-138423292D01*
X104836711Y-138522090D01*
X104817826Y-138723119D01*
X104817333Y-138798063D01*
X104485349Y-138798063D01*
X104478016Y-138695086D01*
X104461192Y-138538791D01*
X104453075Y-138507893D01*
X104346709Y-138525471D01*
X104110489Y-138567781D01*
X103780939Y-138628062D01*
X103394585Y-138699552D01*
X102987951Y-138775490D01*
X102597562Y-138849115D01*
X102259942Y-138913666D01*
X102235000Y-138918488D01*
X101770745Y-139007908D01*
X101269580Y-139103743D01*
X100817931Y-139189487D01*
X100687481Y-139214071D01*
X100356054Y-139280343D01*
X100087333Y-139341456D01*
X99926084Y-139386975D01*
X99904314Y-139396654D01*
X99838257Y-139370854D01*
X99822000Y-139283071D01*
X99831449Y-139203279D01*
X99876150Y-139139826D01*
X99980635Y-139084223D01*
X100169435Y-139027980D01*
X100467081Y-138962607D01*
X100898105Y-138879614D01*
X101092000Y-138843538D01*
X101556885Y-138756184D01*
X102050563Y-138661479D01*
X102493589Y-138574730D01*
X102658333Y-138541745D01*
X103073989Y-138459304D01*
X103514202Y-138374589D01*
X103884087Y-138305857D01*
X103886000Y-138305512D01*
X104436333Y-138206326D01*
X104439389Y-138090540D01*
X104817333Y-138090540D01*
X105092500Y-138042343D01*
X105345516Y-137996213D01*
X105661947Y-137936216D01*
X105791000Y-137911141D01*
X106087670Y-137852729D01*
X106471255Y-137776877D01*
X106862603Y-137699241D01*
X106891667Y-137693463D01*
X107312765Y-137610754D01*
X107763295Y-137523844D01*
X108142240Y-137452199D01*
X108434166Y-137393728D01*
X108653259Y-137341994D01*
X108753059Y-137307992D01*
X108753588Y-137307501D01*
X108727847Y-137225147D01*
X108623126Y-137047684D01*
X108476682Y-136834139D01*
X108161667Y-136398886D01*
X106489500Y-136394209D01*
X104817333Y-136389533D01*
X104817333Y-138090540D01*
X104439389Y-138090540D01*
X104460398Y-137294629D01*
X104484462Y-136382932D01*
X104079398Y-136425758D01*
X103876393Y-136440462D01*
X103534988Y-136457641D01*
X103086075Y-136476070D01*
X102560548Y-136494523D01*
X101989297Y-136511775D01*
X101748167Y-136518239D01*
X101130000Y-136533770D01*
X100660625Y-136543425D01*
X100319559Y-136545883D01*
X100086322Y-136539823D01*
X99940433Y-136523925D01*
X99861411Y-136496868D01*
X99828774Y-136457332D01*
X99822042Y-136403996D01*
X99822000Y-136394046D01*
X99827065Y-136339276D01*
X99855628Y-136297401D01*
X99927736Y-136266679D01*
X100063437Y-136245368D01*
X100282781Y-136231724D01*
X100605816Y-136224005D01*
X101052591Y-136220469D01*
X101643154Y-136219373D01*
X101832833Y-136219268D01*
X102418958Y-136216819D01*
X102965381Y-136210460D01*
X103443688Y-136200843D01*
X103825465Y-136188620D01*
X104082299Y-136174442D01*
X104161167Y-136165857D01*
X104478667Y-136113377D01*
X104478667Y-135363658D01*
X104817333Y-135363658D01*
X104817333Y-136135533D01*
X105523993Y-136135533D01*
X105962007Y-136128647D01*
X106468924Y-136110460D01*
X106944977Y-136084680D01*
X107007026Y-136080425D01*
X107783400Y-136025316D01*
X107640127Y-135806654D01*
X107367102Y-135453748D01*
X107085455Y-135234354D01*
X106807000Y-135127772D01*
X106434066Y-135032788D01*
X106028475Y-134927374D01*
X105634969Y-134823393D01*
X105298288Y-134732708D01*
X105063177Y-134667182D01*
X105007833Y-134650748D01*
X104918146Y-134629543D01*
X104862230Y-134653449D01*
X104832109Y-134752315D01*
X104819806Y-134955990D01*
X104817346Y-135294324D01*
X104817333Y-135363658D01*
X104478667Y-135363658D01*
X104478667Y-135330394D01*
X104475524Y-134942675D01*
X104447091Y-134687094D01*
X104364855Y-134526482D01*
X104200306Y-134423674D01*
X103924935Y-134341503D01*
X103674333Y-134281865D01*
X103466484Y-134230385D01*
X103137141Y-134145865D01*
X102728339Y-134039207D01*
X102282115Y-133921319D01*
X102192667Y-133897509D01*
X101710075Y-133770635D01*
X101223461Y-133645718D01*
X100787219Y-133536541D01*
X100455744Y-133456888D01*
X100435833Y-133452308D01*
X100110504Y-133369752D01*
X99921132Y-133296685D01*
X99836196Y-133217614D01*
X99822000Y-133150582D01*
X99847557Y-133044686D01*
X99955589Y-133021811D01*
X100097167Y-133043766D01*
X100364735Y-133108088D01*
X100584000Y-133176125D01*
X100776822Y-133237095D01*
X101066893Y-133317732D01*
X101346000Y-133389231D01*
X101715593Y-133481389D01*
X102093920Y-133577946D01*
X102319667Y-133636990D01*
X102676945Y-133731442D01*
X103073435Y-133835261D01*
X103475185Y-133939685D01*
X103848243Y-134035952D01*
X104158656Y-134115300D01*
X104372472Y-134168967D01*
X104455558Y-134188200D01*
X104459821Y-134106047D01*
X104463829Y-133869640D01*
X104467510Y-133494061D01*
X104468973Y-133271102D01*
X104817333Y-133271102D01*
X104818939Y-133713759D01*
X104837981Y-134018849D01*
X104895801Y-134218093D01*
X105013737Y-134343213D01*
X105213130Y-134425930D01*
X105515319Y-134497965D01*
X105664000Y-134529662D01*
X106001689Y-134609859D01*
X106333695Y-134701099D01*
X106468333Y-134743364D01*
X106711764Y-134824288D01*
X106822718Y-134850276D01*
X106829763Y-134818727D01*
X106761465Y-134727040D01*
X106753867Y-134717367D01*
X106642816Y-134580776D01*
X106594851Y-134526867D01*
X106523493Y-134439048D01*
X106389571Y-134262663D01*
X106302994Y-134145867D01*
X106147322Y-133941023D01*
X106029811Y-133798661D01*
X105995975Y-133764867D01*
X105922610Y-133684470D01*
X105769446Y-133500078D01*
X105560734Y-133241288D01*
X105377666Y-133010242D01*
X104817333Y-132297951D01*
X104817333Y-133271102D01*
X104468973Y-133271102D01*
X104470790Y-132994389D01*
X104473597Y-132385705D01*
X104475016Y-131944533D01*
X104899142Y-131944533D01*
X105242077Y-132367867D01*
X105471399Y-132650424D01*
X105700054Y-132931329D01*
X105827629Y-133087533D01*
X106005349Y-133306075D01*
X106238412Y-133594604D01*
X106476477Y-133890798D01*
X106477334Y-133891867D01*
X106677758Y-134139587D01*
X106837667Y-134332822D01*
X106927417Y-134435849D01*
X106934000Y-134442200D01*
X107006990Y-134524872D01*
X107154791Y-134704884D01*
X107347892Y-134946192D01*
X107384536Y-134992533D01*
X107600552Y-135264930D01*
X107793517Y-135506022D01*
X107924304Y-135666942D01*
X107931247Y-135675294D01*
X108072964Y-135849631D01*
X108257789Y-136082349D01*
X108331000Y-136175794D01*
X108544226Y-136444603D01*
X108786658Y-136743797D01*
X108881333Y-136858726D01*
X109111041Y-137138060D01*
X109346543Y-137428114D01*
X109431667Y-137534182D01*
X109600451Y-137743264D01*
X109733990Y-137904506D01*
X109770333Y-137946490D01*
X109868440Y-138067349D01*
X110021239Y-138267237D01*
X110104524Y-138379200D01*
X110259148Y-138583804D01*
X110373899Y-138726155D01*
X110405944Y-138760200D01*
X110475728Y-138839059D01*
X110628961Y-139023962D01*
X110843854Y-139288291D01*
X111098618Y-139605428D01*
X111130086Y-139644832D01*
X111402092Y-139983766D01*
X111650520Y-140289915D01*
X111848488Y-140530371D01*
X111969111Y-140672224D01*
X111971667Y-140675070D01*
X112093408Y-140820463D01*
X112286877Y-141062907D01*
X112521882Y-141364225D01*
X112691333Y-141585014D01*
X112920155Y-141880071D01*
X113111956Y-142117778D01*
X113243632Y-142270095D01*
X113289941Y-142311609D01*
X113366169Y-142253939D01*
X113413760Y-142201936D01*
X113853681Y-142201936D01*
X113864555Y-142231533D01*
X113987373Y-142170009D01*
X113999641Y-142153380D01*
X114109671Y-142081529D01*
X114306458Y-142018448D01*
X114306674Y-142018401D01*
X114580285Y-141934612D01*
X114792536Y-141843075D01*
X115004635Y-141756179D01*
X115162836Y-141724055D01*
X115311742Y-141685642D01*
X115351155Y-141650481D01*
X115453564Y-141585972D01*
X115661346Y-141506142D01*
X115781667Y-141469533D01*
X116019121Y-141391194D01*
X116179703Y-141316198D01*
X116212178Y-141288586D01*
X116326820Y-141222770D01*
X116387701Y-141215533D01*
X116551419Y-141181721D01*
X116771006Y-141099705D01*
X116784871Y-141093439D01*
X116964632Y-141018016D01*
X117263586Y-140899892D01*
X117641898Y-140754539D01*
X118059733Y-140597428D01*
X118110000Y-140578756D01*
X118529852Y-140421420D01*
X118914909Y-140274235D01*
X119225342Y-140152617D01*
X119421326Y-140071981D01*
X119435129Y-140065851D01*
X119642781Y-139983713D01*
X119788885Y-139945826D01*
X119796111Y-139945533D01*
X119945161Y-139907598D01*
X120037315Y-139864968D01*
X120302339Y-139738117D01*
X120653648Y-139593609D01*
X121015309Y-139462352D01*
X121073333Y-139443265D01*
X121429740Y-139321972D01*
X121653619Y-139219954D01*
X121775490Y-139110783D01*
X121825877Y-138968033D01*
X121835333Y-138783478D01*
X121823292Y-138553096D01*
X121766640Y-138437597D01*
X121634585Y-138383095D01*
X121602500Y-138376036D01*
X121362543Y-138323851D01*
X121075538Y-138258949D01*
X121031000Y-138248647D01*
X120785880Y-138195233D01*
X120440065Y-138124245D01*
X120059330Y-138049120D01*
X119972667Y-138032464D01*
X119542609Y-137949726D01*
X119083602Y-137860538D01*
X118689148Y-137783078D01*
X118660333Y-137777367D01*
X118321689Y-137710232D01*
X118014251Y-137649365D01*
X117813667Y-137609739D01*
X117642269Y-137597359D01*
X117504549Y-137661984D01*
X117344057Y-137833867D01*
X117305667Y-137881990D01*
X117126226Y-138103840D01*
X116970362Y-138286879D01*
X116924667Y-138336872D01*
X116798408Y-138483081D01*
X116625608Y-138699895D01*
X116545096Y-138805326D01*
X116240904Y-139201700D01*
X116012343Y-139480246D01*
X115948036Y-139552815D01*
X115859284Y-139658445D01*
X115693735Y-139862030D01*
X115479627Y-140128702D01*
X115355715Y-140284200D01*
X115130849Y-140563665D01*
X114942315Y-140791582D01*
X114816795Y-140936013D01*
X114784080Y-140968445D01*
X114694149Y-141064865D01*
X114558150Y-141239536D01*
X114529734Y-141278618D01*
X114360276Y-141505075D01*
X114149624Y-141774414D01*
X114060052Y-141885540D01*
X113918917Y-142076272D01*
X113853681Y-142201936D01*
X113413760Y-142201936D01*
X113504903Y-142102344D01*
X113586274Y-142003029D01*
X113871559Y-141644470D01*
X114170092Y-141271961D01*
X114454259Y-140919699D01*
X114696448Y-140621879D01*
X114869044Y-140412697D01*
X114902012Y-140373643D01*
X115069087Y-140168591D01*
X115260875Y-139921159D01*
X115302544Y-139865643D01*
X115448359Y-139673266D01*
X115550840Y-139544393D01*
X115570682Y-139522200D01*
X115642470Y-139439738D01*
X115789705Y-139262879D01*
X115981370Y-139028905D01*
X115993333Y-139014200D01*
X116186642Y-138778033D01*
X116337340Y-138596794D01*
X116414410Y-138507765D01*
X116415984Y-138506200D01*
X116488149Y-138418459D01*
X116622872Y-138242225D01*
X116710037Y-138125200D01*
X116875033Y-137909564D01*
X117010154Y-137746407D01*
X117052553Y-137701867D01*
X117151310Y-137593529D01*
X117315104Y-137396998D01*
X117379898Y-137315992D01*
X117786273Y-137315992D01*
X117788191Y-137320881D01*
X117877103Y-137336261D01*
X118091151Y-137377153D01*
X118389456Y-137435704D01*
X118491000Y-137455884D01*
X118926676Y-137542644D01*
X119405337Y-137637859D01*
X119803333Y-137716940D01*
X120215322Y-137798906D01*
X120656426Y-137886932D01*
X120988667Y-137953444D01*
X121368873Y-138030939D01*
X121614665Y-138063543D01*
X121755125Y-138026618D01*
X121819336Y-137895529D01*
X121836380Y-137645638D01*
X121835340Y-137252308D01*
X121835333Y-137236200D01*
X121835333Y-136389533D01*
X120184333Y-136389533D01*
X119608539Y-136390952D01*
X119178134Y-136396545D01*
X118869186Y-136408323D01*
X118657765Y-136428291D01*
X118519940Y-136458459D01*
X118431780Y-136500834D01*
X118385167Y-136540493D01*
X118261689Y-136679134D01*
X118107693Y-136868317D01*
X117955546Y-137065729D01*
X117837617Y-137229058D01*
X117786273Y-137315992D01*
X117379898Y-137315992D01*
X117477584Y-137193867D01*
X117670051Y-136952709D01*
X117833261Y-136754898D01*
X117917752Y-136658652D01*
X118009642Y-136534316D01*
X118025333Y-136487021D01*
X118077271Y-136392168D01*
X118206929Y-136228246D01*
X118258167Y-136170210D01*
X118426534Y-135977215D01*
X118872000Y-135977215D01*
X118939158Y-136017804D01*
X119145398Y-136051520D01*
X119497870Y-136078880D01*
X120003724Y-136100400D01*
X120670110Y-136116599D01*
X120840500Y-136119524D01*
X121835333Y-136135533D01*
X121835333Y-135373533D01*
X121831077Y-135037953D01*
X121819676Y-134777779D01*
X121803182Y-134630792D01*
X121793945Y-134611533D01*
X121698265Y-134631692D01*
X121480953Y-134685225D01*
X121183948Y-134761718D01*
X121095445Y-134784981D01*
X120537791Y-134933365D01*
X120118584Y-135050056D01*
X119812269Y-135145503D01*
X119593287Y-135230160D01*
X119436082Y-135314477D01*
X119315097Y-135408906D01*
X119204774Y-135523900D01*
X119158761Y-135576997D01*
X118996211Y-135778465D01*
X118892286Y-135929490D01*
X118872000Y-135977215D01*
X118426534Y-135977215D01*
X118578031Y-135803558D01*
X118949438Y-135356491D01*
X119325303Y-134886242D01*
X119446748Y-134729372D01*
X119888000Y-134729372D01*
X119890018Y-134759845D01*
X119916733Y-134772812D01*
X119999132Y-134763413D01*
X120168203Y-134726787D01*
X120454935Y-134658074D01*
X120659535Y-134608362D01*
X121016567Y-134517570D01*
X121336410Y-134429079D01*
X121563071Y-134358581D01*
X121602500Y-134344091D01*
X121835333Y-134252323D01*
X121835333Y-133288928D01*
X121832884Y-132907769D01*
X121826230Y-132597840D01*
X121816413Y-132392745D01*
X121805490Y-132325533D01*
X121743698Y-132387662D01*
X121606370Y-132552526D01*
X121420167Y-132787844D01*
X121368486Y-132854700D01*
X121163201Y-133117049D01*
X120989395Y-133331159D01*
X120879298Y-133457500D01*
X120868007Y-133468533D01*
X120762954Y-133582404D01*
X120598495Y-133780030D01*
X120403339Y-134024475D01*
X120206197Y-134278802D01*
X120035778Y-134506074D01*
X119920791Y-134669355D01*
X119888000Y-134729372D01*
X119446748Y-134729372D01*
X119498543Y-134662469D01*
X119678086Y-134432345D01*
X119819178Y-134260121D01*
X119885902Y-134188200D01*
X119959988Y-134107267D01*
X120112646Y-133924127D01*
X120318157Y-133669977D01*
X120455014Y-133497800D01*
X120699126Y-133192654D01*
X120924966Y-132917124D01*
X121098132Y-132712900D01*
X121153668Y-132651133D01*
X121340768Y-132423125D01*
X121479101Y-132219700D01*
X121600344Y-132057272D01*
X121702462Y-131985128D01*
X121705421Y-131984939D01*
X121699664Y-131953822D01*
X121572320Y-131879761D01*
X121539000Y-131863723D01*
X121197078Y-131706507D01*
X120878837Y-131566047D01*
X120622234Y-131458537D01*
X120465226Y-131400168D01*
X120438333Y-131394200D01*
X120333482Y-131361782D01*
X120090341Y-131262932D01*
X119703160Y-131095254D01*
X119422333Y-130970867D01*
X118958782Y-130766588D01*
X118639254Y-130631010D01*
X118454718Y-130560386D01*
X118402607Y-130547533D01*
X118294882Y-130515651D01*
X118105250Y-130437777D01*
X118080462Y-130426652D01*
X117572082Y-130199020D01*
X117215777Y-130045705D01*
X117011482Y-129966681D01*
X116963274Y-129954866D01*
X116855779Y-129922576D01*
X116666509Y-129843678D01*
X116641129Y-129832113D01*
X116407764Y-129728946D01*
X116076900Y-129588278D01*
X115676912Y-129421593D01*
X115236179Y-129240374D01*
X114783077Y-129056102D01*
X114345982Y-128880262D01*
X113953273Y-128724336D01*
X113633325Y-128599807D01*
X113414516Y-128518157D01*
X113326333Y-128490765D01*
X113228922Y-128521448D01*
X113003607Y-128605841D01*
X112678765Y-128732462D01*
X112282774Y-128889827D01*
X111844009Y-129066453D01*
X111390849Y-129250859D01*
X110951671Y-129431561D01*
X110554850Y-129597075D01*
X110228764Y-129735920D01*
X110011538Y-129832113D01*
X109815905Y-129914957D01*
X109692246Y-129954345D01*
X109685667Y-129954867D01*
X109575211Y-129986828D01*
X109384048Y-130064867D01*
X109359795Y-130075747D01*
X108865236Y-130297292D01*
X108511076Y-130450250D01*
X108301889Y-130532682D01*
X108246333Y-130547533D01*
X108141482Y-130579951D01*
X107898341Y-130678801D01*
X107511160Y-130846479D01*
X107230333Y-130970867D01*
X106760268Y-131177997D01*
X106437452Y-131314963D01*
X106256135Y-131384159D01*
X106214333Y-131394200D01*
X106157262Y-131408344D01*
X106029252Y-131456951D01*
X105807946Y-131549283D01*
X105470984Y-131694602D01*
X105133404Y-131841970D01*
X104899142Y-131944533D01*
X104475016Y-131944533D01*
X104475858Y-131683088D01*
X104477501Y-130901619D01*
X104478451Y-130056378D01*
X104478667Y-129404533D01*
X104478667Y-128303305D01*
X104817333Y-128303305D01*
X104817696Y-129143476D01*
X104819241Y-129829515D01*
X104822654Y-130376620D01*
X104828619Y-130799991D01*
X104837823Y-131114829D01*
X104850949Y-131336332D01*
X104868684Y-131479700D01*
X104891713Y-131560134D01*
X104920720Y-131592831D01*
X104956391Y-131592993D01*
X104965500Y-131590066D01*
X105138681Y-131512352D01*
X105198333Y-131476086D01*
X105340447Y-131406183D01*
X105494667Y-131352140D01*
X105724656Y-131271101D01*
X106054566Y-131138767D01*
X106431506Y-130976807D01*
X106637667Y-130883888D01*
X106764862Y-130829627D01*
X107022915Y-130722698D01*
X107385665Y-130573828D01*
X107826952Y-130393743D01*
X108320614Y-130193169D01*
X108458000Y-130137496D01*
X109032054Y-129904990D01*
X109627536Y-129663784D01*
X110199488Y-129432090D01*
X110702956Y-129228119D01*
X111082667Y-129074262D01*
X111473077Y-128915006D01*
X111818389Y-128772228D01*
X112081400Y-128661436D01*
X112224907Y-128598139D01*
X112225667Y-128597772D01*
X112414262Y-128516578D01*
X112669712Y-128417899D01*
X112733667Y-128394661D01*
X112909729Y-128320986D01*
X112909984Y-128320776D01*
X113594512Y-128320776D01*
X113841423Y-128382350D01*
X114106105Y-128465796D01*
X114342333Y-128560805D01*
X114536376Y-128645538D01*
X114834515Y-128770573D01*
X115183485Y-128913677D01*
X115316000Y-128967227D01*
X115683046Y-129116200D01*
X116175182Y-129317837D01*
X116761367Y-129559258D01*
X117410558Y-129827579D01*
X118091713Y-130109918D01*
X118773790Y-130393392D01*
X119425747Y-130665120D01*
X120016543Y-130912217D01*
X120515135Y-131121803D01*
X120861667Y-131268687D01*
X121211631Y-131416466D01*
X121503553Y-131536802D01*
X121702664Y-131615547D01*
X121771833Y-131639098D01*
X121785745Y-131559476D01*
X121798603Y-131328468D01*
X121810068Y-130964021D01*
X121819799Y-130484079D01*
X121827454Y-129906590D01*
X121832694Y-129249498D01*
X121835176Y-128530750D01*
X121835333Y-128294808D01*
X121834301Y-127422124D01*
X121830933Y-126706007D01*
X121824821Y-126133701D01*
X121815557Y-125692451D01*
X121802735Y-125369502D01*
X121785945Y-125152098D01*
X121764782Y-125027485D01*
X121738836Y-124982906D01*
X121729500Y-124983443D01*
X121497396Y-125076904D01*
X121161061Y-125214014D01*
X120751016Y-125382158D01*
X120297783Y-125568724D01*
X119831883Y-125761100D01*
X119383837Y-125946672D01*
X118984165Y-126112827D01*
X118663390Y-126246953D01*
X118452031Y-126336436D01*
X118393538Y-126362028D01*
X118197740Y-126444092D01*
X118074124Y-126483034D01*
X118067667Y-126483533D01*
X117957211Y-126515494D01*
X117766048Y-126593534D01*
X117741795Y-126604414D01*
X117233415Y-126832046D01*
X116877110Y-126985361D01*
X116672815Y-127064385D01*
X116624607Y-127076200D01*
X116517116Y-127108497D01*
X116327853Y-127187416D01*
X116302462Y-127198988D01*
X116114240Y-127280310D01*
X115813557Y-127404349D01*
X115445817Y-127552561D01*
X115146667Y-127671042D01*
X114749044Y-127829056D01*
X114374707Y-127980984D01*
X114072892Y-128106676D01*
X113926089Y-128170541D01*
X113594512Y-128320776D01*
X112909984Y-128320776D01*
X112967875Y-128273152D01*
X112945333Y-128264626D01*
X112793893Y-128223932D01*
X112566432Y-128132509D01*
X112479667Y-128092200D01*
X112259074Y-127991911D01*
X112103351Y-127932455D01*
X112072855Y-127925739D01*
X111972619Y-127897100D01*
X111756424Y-127811450D01*
X111410937Y-127663284D01*
X111040333Y-127499533D01*
X110576782Y-127295255D01*
X110257254Y-127159677D01*
X110072718Y-127089052D01*
X110020607Y-127076200D01*
X109912882Y-127044317D01*
X109723250Y-126966444D01*
X109698462Y-126955319D01*
X109190082Y-126727687D01*
X108833777Y-126574372D01*
X108629482Y-126495348D01*
X108581274Y-126483533D01*
X108473705Y-126451373D01*
X108284319Y-126372801D01*
X108259129Y-126361379D01*
X108086224Y-126286795D01*
X107791815Y-126164595D01*
X107411837Y-126009509D01*
X106982224Y-125836264D01*
X106807000Y-125766167D01*
X106378083Y-125594164D01*
X105994637Y-125438860D01*
X105689228Y-125313561D01*
X105494425Y-125231572D01*
X105452333Y-125212735D01*
X105241707Y-125121979D01*
X105050167Y-125048043D01*
X104817333Y-124963724D01*
X104817333Y-128303305D01*
X104478667Y-128303305D01*
X104478667Y-124620867D01*
X104669167Y-124623739D01*
X104863926Y-124661924D01*
X105118318Y-124753782D01*
X105198333Y-124790200D01*
X105418925Y-124890489D01*
X105574649Y-124949945D01*
X105605145Y-124956660D01*
X105719609Y-124990931D01*
X105967722Y-125091444D01*
X106356297Y-125261059D01*
X106735129Y-125431319D01*
X106931009Y-125512992D01*
X107054603Y-125551711D01*
X107061000Y-125552200D01*
X107171461Y-125584152D01*
X107362632Y-125662167D01*
X107386871Y-125673037D01*
X107525765Y-125732827D01*
X107801480Y-125848835D01*
X108194244Y-126012839D01*
X108684287Y-126216616D01*
X109251836Y-126451943D01*
X109877121Y-126710596D01*
X110466012Y-126953691D01*
X113278358Y-128113508D01*
X113979679Y-127836636D01*
X114409168Y-127666105D01*
X114746586Y-127529006D01*
X115057860Y-127397863D01*
X115408921Y-127245202D01*
X115586521Y-127166986D01*
X115822496Y-127066930D01*
X115990163Y-127003400D01*
X116035667Y-126991533D01*
X116124738Y-126965200D01*
X116330645Y-126882601D01*
X116666349Y-126738339D01*
X117051667Y-126568428D01*
X117197125Y-126507900D01*
X117460424Y-126401987D01*
X117801580Y-126266666D01*
X118110000Y-126145506D01*
X118498525Y-125991902D01*
X118854786Y-125848134D01*
X119133338Y-125732701D01*
X119265795Y-125674988D01*
X119460217Y-125592210D01*
X119581540Y-125552745D01*
X119587941Y-125552200D01*
X119706513Y-125515072D01*
X119977059Y-125403669D01*
X120399643Y-125217964D01*
X120705129Y-125080414D01*
X120905298Y-124997645D01*
X121036985Y-124957304D01*
X121043795Y-124956660D01*
X121158384Y-124920732D01*
X121361829Y-124833736D01*
X121454333Y-124790200D01*
X121588638Y-124720827D01*
X121702676Y-124660766D01*
X121798094Y-124622001D01*
X121876538Y-124616516D01*
X121939653Y-124656294D01*
D13*
X159850200Y-74185209D02*
X159802581Y-74280447D01*
X159802581Y-74423304D01*
X159850200Y-74566162D01*
X159945438Y-74661400D01*
X160040676Y-74709019D01*
X160231152Y-74756638D01*
X160374010Y-74756638D01*
X160564486Y-74709019D01*
X160659724Y-74661400D01*
X160754962Y-74566162D01*
X160802581Y-74423304D01*
X160802581Y-74328066D01*
X160754962Y-74185209D01*
X160707343Y-74137590D01*
X160374010Y-74137590D01*
X160374010Y-74328066D01*
X160802581Y-73709019D02*
X159802581Y-73709019D01*
X160802581Y-73137590D01*
X159802581Y-73137590D01*
X160802581Y-72661400D02*
X159802581Y-72661400D01*
X159802581Y-72423305D01*
X159850200Y-72280447D01*
X159945438Y-72185209D01*
X160040676Y-72137590D01*
X160231152Y-72089971D01*
X160374010Y-72089971D01*
X160564486Y-72137590D01*
X160659724Y-72185209D01*
X160754962Y-72280447D01*
X160802581Y-72423305D01*
X160802581Y-72661400D01*
X160897819Y-71899495D02*
X160897819Y-71137590D01*
X159802581Y-71042352D02*
X159802581Y-70470923D01*
X160802581Y-70756638D02*
X159802581Y-70756638D01*
X160802581Y-70137590D02*
X159802581Y-70137590D01*
X159802581Y-69756637D01*
X159850200Y-69661399D01*
X159897819Y-69613780D01*
X159993057Y-69566161D01*
X160135914Y-69566161D01*
X160231152Y-69613780D01*
X160278771Y-69661399D01*
X160326390Y-69756637D01*
X160326390Y-70137590D01*
X99143583Y-72094803D02*
X99095964Y-72142422D01*
X98953107Y-72190041D01*
X98857869Y-72190041D01*
X98715011Y-72142422D01*
X98619773Y-72047184D01*
X98572154Y-71951946D01*
X98524535Y-71761470D01*
X98524535Y-71618612D01*
X98572154Y-71428136D01*
X98619773Y-71332898D01*
X98715011Y-71237660D01*
X98857869Y-71190041D01*
X98953107Y-71190041D01*
X99095964Y-71237660D01*
X99143583Y-71285279D01*
X100095964Y-72190041D02*
X99524535Y-72190041D01*
X99810249Y-72190041D02*
X99810249Y-71190041D01*
X99715011Y-71332898D01*
X99619773Y-71428136D01*
X99524535Y-71475755D01*
X100572154Y-72190041D02*
X100762630Y-72190041D01*
X100857869Y-72142422D01*
X100905488Y-72094803D01*
X101000726Y-71951946D01*
X101048345Y-71761470D01*
X101048345Y-71380517D01*
X101000726Y-71285279D01*
X100953107Y-71237660D01*
X100857869Y-71190041D01*
X100667392Y-71190041D01*
X100572154Y-71237660D01*
X100524535Y-71285279D01*
X100476916Y-71380517D01*
X100476916Y-71618612D01*
X100524535Y-71713850D01*
X100572154Y-71761470D01*
X100667392Y-71809089D01*
X100857869Y-71809089D01*
X100953107Y-71761470D01*
X101000726Y-71713850D01*
X101048345Y-71618612D01*
X90109135Y-76018141D02*
X90109135Y-76827665D01*
X90156754Y-76922903D01*
X90204373Y-76970522D01*
X90299611Y-77018141D01*
X90490088Y-77018141D01*
X90585326Y-76970522D01*
X90632945Y-76922903D01*
X90680564Y-76827665D01*
X90680564Y-76018141D01*
X91632945Y-76018141D02*
X91156754Y-76018141D01*
X91109135Y-76494331D01*
X91156754Y-76446712D01*
X91251992Y-76399093D01*
X91490088Y-76399093D01*
X91585326Y-76446712D01*
X91632945Y-76494331D01*
X91680564Y-76589570D01*
X91680564Y-76827665D01*
X91632945Y-76922903D01*
X91585326Y-76970522D01*
X91490088Y-77018141D01*
X91251992Y-77018141D01*
X91156754Y-76970522D01*
X91109135Y-76922903D01*
X85488543Y-60447181D02*
X85155209Y-59970990D01*
X84917114Y-60447181D02*
X84917114Y-59447181D01*
X85298067Y-59447181D01*
X85393305Y-59494800D01*
X85440924Y-59542419D01*
X85488543Y-59637657D01*
X85488543Y-59780514D01*
X85440924Y-59875752D01*
X85393305Y-59923371D01*
X85298067Y-59970990D01*
X84917114Y-59970990D01*
X85869495Y-59542419D02*
X85917114Y-59494800D01*
X86012352Y-59447181D01*
X86250448Y-59447181D01*
X86345686Y-59494800D01*
X86393305Y-59542419D01*
X86440924Y-59637657D01*
X86440924Y-59732895D01*
X86393305Y-59875752D01*
X85821876Y-60447181D01*
X86440924Y-60447181D01*
X86821876Y-59542419D02*
X86869495Y-59494800D01*
X86964733Y-59447181D01*
X87202829Y-59447181D01*
X87298067Y-59494800D01*
X87345686Y-59542419D01*
X87393305Y-59637657D01*
X87393305Y-59732895D01*
X87345686Y-59875752D01*
X86774257Y-60447181D01*
X87393305Y-60447181D01*
X92056105Y-58024781D02*
X92056105Y-58834305D01*
X92103724Y-58929543D01*
X92151343Y-58977162D01*
X92246581Y-59024781D01*
X92437058Y-59024781D01*
X92532296Y-58977162D01*
X92579915Y-58929543D01*
X92627534Y-58834305D01*
X92627534Y-58024781D01*
X93627534Y-59024781D02*
X93056105Y-59024781D01*
X93341819Y-59024781D02*
X93341819Y-58024781D01*
X93246581Y-58167638D01*
X93151343Y-58262876D01*
X93056105Y-58310495D01*
X93960867Y-58024781D02*
X94627534Y-58024781D01*
X94198962Y-59024781D01*
X124832235Y-59170441D02*
X124832235Y-59979965D01*
X124879854Y-60075203D01*
X124927473Y-60122822D01*
X125022711Y-60170441D01*
X125213188Y-60170441D01*
X125308426Y-60122822D01*
X125356045Y-60075203D01*
X125403664Y-59979965D01*
X125403664Y-59170441D01*
X125784616Y-59170441D02*
X126451283Y-59170441D01*
X126022711Y-60170441D01*
X125628495Y-90587581D02*
X125628495Y-91397105D01*
X125676114Y-91492343D01*
X125723733Y-91539962D01*
X125818971Y-91587581D01*
X126009448Y-91587581D01*
X126104686Y-91539962D01*
X126152305Y-91492343D01*
X126199924Y-91397105D01*
X126199924Y-90587581D01*
X126628495Y-90682819D02*
X126676114Y-90635200D01*
X126771352Y-90587581D01*
X127009448Y-90587581D01*
X127104686Y-90635200D01*
X127152305Y-90682819D01*
X127199924Y-90778057D01*
X127199924Y-90873295D01*
X127152305Y-91016152D01*
X126580876Y-91587581D01*
X127199924Y-91587581D01*
X110637581Y-64073066D02*
X110161390Y-64406400D01*
X110637581Y-64644495D02*
X109637581Y-64644495D01*
X109637581Y-64263542D01*
X109685200Y-64168304D01*
X109732819Y-64120685D01*
X109828057Y-64073066D01*
X109970914Y-64073066D01*
X110066152Y-64120685D01*
X110113771Y-64168304D01*
X110161390Y-64263542D01*
X110161390Y-64644495D01*
X109637581Y-63739733D02*
X109637581Y-63073066D01*
X110637581Y-63501638D01*
X104409335Y-55317141D02*
X104409335Y-56126665D01*
X104456954Y-56221903D01*
X104504573Y-56269522D01*
X104599811Y-56317141D01*
X104790288Y-56317141D01*
X104885526Y-56269522D01*
X104933145Y-56221903D01*
X104980764Y-56126665D01*
X104980764Y-55317141D01*
X105885526Y-55317141D02*
X105695049Y-55317141D01*
X105599811Y-55364760D01*
X105552192Y-55412379D01*
X105456954Y-55555236D01*
X105409335Y-55745712D01*
X105409335Y-56126665D01*
X105456954Y-56221903D01*
X105504573Y-56269522D01*
X105599811Y-56317141D01*
X105790288Y-56317141D01*
X105885526Y-56269522D01*
X105933145Y-56221903D01*
X105980764Y-56126665D01*
X105980764Y-55888570D01*
X105933145Y-55793331D01*
X105885526Y-55745712D01*
X105790288Y-55698093D01*
X105599811Y-55698093D01*
X105504573Y-55745712D01*
X105456954Y-55793331D01*
X105409335Y-55888570D01*
X147218495Y-85939381D02*
X147218495Y-86748905D01*
X147266114Y-86844143D01*
X147313733Y-86891762D01*
X147408971Y-86939381D01*
X147599448Y-86939381D01*
X147694686Y-86891762D01*
X147742305Y-86844143D01*
X147789924Y-86748905D01*
X147789924Y-85939381D01*
X148789924Y-86939381D02*
X148218495Y-86939381D01*
X148504209Y-86939381D02*
X148504209Y-85939381D01*
X148408971Y-86082238D01*
X148313733Y-86177476D01*
X148218495Y-86225095D01*
X144602295Y-61199781D02*
X144602295Y-62009305D01*
X144649914Y-62104543D01*
X144697533Y-62152162D01*
X144792771Y-62199781D01*
X144983248Y-62199781D01*
X145078486Y-62152162D01*
X145126105Y-62104543D01*
X145173724Y-62009305D01*
X145173724Y-61199781D01*
X145792771Y-61628352D02*
X145697533Y-61580733D01*
X145649914Y-61533114D01*
X145602295Y-61437876D01*
X145602295Y-61390257D01*
X145649914Y-61295019D01*
X145697533Y-61247400D01*
X145792771Y-61199781D01*
X145983248Y-61199781D01*
X146078486Y-61247400D01*
X146126105Y-61295019D01*
X146173724Y-61390257D01*
X146173724Y-61437876D01*
X146126105Y-61533114D01*
X146078486Y-61580733D01*
X145983248Y-61628352D01*
X145792771Y-61628352D01*
X145697533Y-61675971D01*
X145649914Y-61723590D01*
X145602295Y-61818829D01*
X145602295Y-62009305D01*
X145649914Y-62104543D01*
X145697533Y-62152162D01*
X145792771Y-62199781D01*
X145983248Y-62199781D01*
X146078486Y-62152162D01*
X146126105Y-62104543D01*
X146173724Y-62009305D01*
X146173724Y-61818829D01*
X146126105Y-61723590D01*
X146078486Y-61675971D01*
X145983248Y-61628352D01*
X154108305Y-95057981D02*
X154108305Y-95867505D01*
X154155924Y-95962743D01*
X154203543Y-96010362D01*
X154298781Y-96057981D01*
X154489258Y-96057981D01*
X154584496Y-96010362D01*
X154632115Y-95962743D01*
X154679734Y-95867505D01*
X154679734Y-95057981D01*
X155679734Y-96057981D02*
X155108305Y-96057981D01*
X155394019Y-96057981D02*
X155394019Y-95057981D01*
X155298781Y-95200838D01*
X155203543Y-95296076D01*
X155108305Y-95343695D01*
X156298781Y-95057981D02*
X156394020Y-95057981D01*
X156489258Y-95105600D01*
X156536877Y-95153219D01*
X156584496Y-95248457D01*
X156632115Y-95438933D01*
X156632115Y-95677029D01*
X156584496Y-95867505D01*
X156536877Y-95962743D01*
X156489258Y-96010362D01*
X156394020Y-96057981D01*
X156298781Y-96057981D01*
X156203543Y-96010362D01*
X156155924Y-95962743D01*
X156108305Y-95867505D01*
X156060686Y-95677029D01*
X156060686Y-95438933D01*
X156108305Y-95248457D01*
X156155924Y-95153219D01*
X156203543Y-95105600D01*
X156298781Y-95057981D01*
X108723181Y-105155905D02*
X109532705Y-105155905D01*
X109627943Y-105108286D01*
X109675562Y-105060667D01*
X109723181Y-104965429D01*
X109723181Y-104774952D01*
X109675562Y-104679714D01*
X109627943Y-104632095D01*
X109532705Y-104584476D01*
X108723181Y-104584476D01*
X109723181Y-104060667D02*
X109723181Y-103870191D01*
X109675562Y-103774952D01*
X109627943Y-103727333D01*
X109485086Y-103632095D01*
X109294610Y-103584476D01*
X108913657Y-103584476D01*
X108818419Y-103632095D01*
X108770800Y-103679714D01*
X108723181Y-103774952D01*
X108723181Y-103965429D01*
X108770800Y-104060667D01*
X108818419Y-104108286D01*
X108913657Y-104155905D01*
X109151752Y-104155905D01*
X109246990Y-104108286D01*
X109294610Y-104060667D01*
X109342229Y-103965429D01*
X109342229Y-103774952D01*
X109294610Y-103679714D01*
X109246990Y-103632095D01*
X109151752Y-103584476D01*
X125247495Y-76871581D02*
X125247495Y-77681105D01*
X125295114Y-77776343D01*
X125342733Y-77823962D01*
X125437971Y-77871581D01*
X125628448Y-77871581D01*
X125723686Y-77823962D01*
X125771305Y-77776343D01*
X125818924Y-77681105D01*
X125818924Y-76871581D01*
X126723686Y-77204914D02*
X126723686Y-77871581D01*
X126485590Y-76823962D02*
X126247495Y-77538248D01*
X126866543Y-77538248D01*
X155062467Y-65279543D02*
X155110086Y-65327162D01*
X155062467Y-65374781D01*
X155014848Y-65327162D01*
X155062467Y-65279543D01*
X155062467Y-65374781D01*
X156062467Y-65374781D02*
X155491038Y-65374781D01*
X155776752Y-65374781D02*
X155776752Y-64374781D01*
X155681514Y-64517638D01*
X155586276Y-64612876D01*
X155491038Y-64660495D01*
X156919610Y-64708114D02*
X156919610Y-65374781D01*
X156491038Y-64708114D02*
X156491038Y-65231924D01*
X156538657Y-65327162D01*
X156633895Y-65374781D01*
X156776753Y-65374781D01*
X156871991Y-65327162D01*
X156919610Y-65279543D01*
X157729134Y-64850971D02*
X157395800Y-64850971D01*
X157395800Y-65374781D02*
X157395800Y-64374781D01*
X157871991Y-64374781D01*
X158681515Y-64708114D02*
X158681515Y-65374781D01*
X158443419Y-64327162D02*
X158205324Y-65041448D01*
X158824372Y-65041448D01*
X155738534Y-89841343D02*
X155690915Y-89888962D01*
X155548058Y-89936581D01*
X155452820Y-89936581D01*
X155309962Y-89888962D01*
X155214724Y-89793724D01*
X155167105Y-89698486D01*
X155119486Y-89508010D01*
X155119486Y-89365152D01*
X155167105Y-89174676D01*
X155214724Y-89079438D01*
X155309962Y-88984200D01*
X155452820Y-88936581D01*
X155548058Y-88936581D01*
X155690915Y-88984200D01*
X155738534Y-89031819D01*
X156690915Y-89936581D02*
X156119486Y-89936581D01*
X156405200Y-89936581D02*
X156405200Y-88936581D01*
X156309962Y-89079438D01*
X156214724Y-89174676D01*
X156119486Y-89222295D01*
X139355534Y-94972143D02*
X139307915Y-95019762D01*
X139165058Y-95067381D01*
X139069820Y-95067381D01*
X138926962Y-95019762D01*
X138831724Y-94924524D01*
X138784105Y-94829286D01*
X138736486Y-94638810D01*
X138736486Y-94495952D01*
X138784105Y-94305476D01*
X138831724Y-94210238D01*
X138926962Y-94115000D01*
X139069820Y-94067381D01*
X139165058Y-94067381D01*
X139307915Y-94115000D01*
X139355534Y-94162619D01*
X139688867Y-94067381D02*
X140307915Y-94067381D01*
X139974581Y-94448333D01*
X140117439Y-94448333D01*
X140212677Y-94495952D01*
X140260296Y-94543571D01*
X140307915Y-94638810D01*
X140307915Y-94876905D01*
X140260296Y-94972143D01*
X140212677Y-95019762D01*
X140117439Y-95067381D01*
X139831724Y-95067381D01*
X139736486Y-95019762D01*
X139688867Y-94972143D01*
X117578143Y-95232457D02*
X117625762Y-95280076D01*
X117673381Y-95422933D01*
X117673381Y-95518171D01*
X117625762Y-95661029D01*
X117530524Y-95756267D01*
X117435286Y-95803886D01*
X117244810Y-95851505D01*
X117101952Y-95851505D01*
X116911476Y-95803886D01*
X116816238Y-95756267D01*
X116721000Y-95661029D01*
X116673381Y-95518171D01*
X116673381Y-95422933D01*
X116721000Y-95280076D01*
X116768619Y-95232457D01*
X117673381Y-94280076D02*
X117673381Y-94851505D01*
X117673381Y-94565791D02*
X116673381Y-94565791D01*
X116816238Y-94661029D01*
X116911476Y-94756267D01*
X116959095Y-94851505D01*
X116673381Y-93661029D02*
X116673381Y-93565790D01*
X116721000Y-93470552D01*
X116768619Y-93422933D01*
X116863857Y-93375314D01*
X117054333Y-93327695D01*
X117292429Y-93327695D01*
X117482905Y-93375314D01*
X117578143Y-93422933D01*
X117625762Y-93470552D01*
X117673381Y-93565790D01*
X117673381Y-93661029D01*
X117625762Y-93756267D01*
X117578143Y-93803886D01*
X117482905Y-93851505D01*
X117292429Y-93899124D01*
X117054333Y-93899124D01*
X116863857Y-93851505D01*
X116768619Y-93803886D01*
X116721000Y-93756267D01*
X116673381Y-93661029D01*
X170587943Y-91625657D02*
X170635562Y-91673276D01*
X170683181Y-91816133D01*
X170683181Y-91911371D01*
X170635562Y-92054229D01*
X170540324Y-92149467D01*
X170445086Y-92197086D01*
X170254610Y-92244705D01*
X170111752Y-92244705D01*
X169921276Y-92197086D01*
X169826038Y-92149467D01*
X169730800Y-92054229D01*
X169683181Y-91911371D01*
X169683181Y-91816133D01*
X169730800Y-91673276D01*
X169778419Y-91625657D01*
X170683181Y-90673276D02*
X170683181Y-91244705D01*
X170683181Y-90958991D02*
X169683181Y-90958991D01*
X169826038Y-91054229D01*
X169921276Y-91149467D01*
X169968895Y-91244705D01*
X170683181Y-89720895D02*
X170683181Y-90292324D01*
X170683181Y-90006610D02*
X169683181Y-90006610D01*
X169826038Y-90101848D01*
X169921276Y-90197086D01*
X169968895Y-90292324D01*
X155214581Y-70823057D02*
X154738390Y-71156391D01*
X155214581Y-71394486D02*
X154214581Y-71394486D01*
X154214581Y-71013533D01*
X154262200Y-70918295D01*
X154309819Y-70870676D01*
X154405057Y-70823057D01*
X154547914Y-70823057D01*
X154643152Y-70870676D01*
X154690771Y-70918295D01*
X154738390Y-71013533D01*
X154738390Y-71394486D01*
X155214581Y-69870676D02*
X155214581Y-70442105D01*
X155214581Y-70156391D02*
X154214581Y-70156391D01*
X154357438Y-70251629D01*
X154452676Y-70346867D01*
X154500295Y-70442105D01*
X154214581Y-69537343D02*
X154214581Y-68918295D01*
X154595533Y-69251629D01*
X154595533Y-69108771D01*
X154643152Y-69013533D01*
X154690771Y-68965914D01*
X154786010Y-68918295D01*
X155024105Y-68918295D01*
X155119343Y-68965914D01*
X155166962Y-69013533D01*
X155214581Y-69108771D01*
X155214581Y-69394486D01*
X155166962Y-69489724D01*
X155119343Y-69537343D01*
X110329743Y-96870781D02*
X109996409Y-96394590D01*
X109758314Y-96870781D02*
X109758314Y-95870781D01*
X110139267Y-95870781D01*
X110234505Y-95918400D01*
X110282124Y-95966019D01*
X110329743Y-96061257D01*
X110329743Y-96204114D01*
X110282124Y-96299352D01*
X110234505Y-96346971D01*
X110139267Y-96394590D01*
X109758314Y-96394590D01*
X111282124Y-96870781D02*
X110710695Y-96870781D01*
X110996409Y-96870781D02*
X110996409Y-95870781D01*
X110901171Y-96013638D01*
X110805933Y-96108876D01*
X110710695Y-96156495D01*
X112139267Y-95870781D02*
X111948790Y-95870781D01*
X111853552Y-95918400D01*
X111805933Y-95966019D01*
X111710695Y-96108876D01*
X111663076Y-96299352D01*
X111663076Y-96680305D01*
X111710695Y-96775543D01*
X111758314Y-96823162D01*
X111853552Y-96870781D01*
X112044029Y-96870781D01*
X112139267Y-96823162D01*
X112186886Y-96775543D01*
X112234505Y-96680305D01*
X112234505Y-96442210D01*
X112186886Y-96346971D01*
X112139267Y-96299352D01*
X112044029Y-96251733D01*
X111853552Y-96251733D01*
X111758314Y-96299352D01*
X111710695Y-96346971D01*
X111663076Y-96442210D01*
X129678134Y-82748381D02*
X129344800Y-82272190D01*
X129106705Y-82748381D02*
X129106705Y-81748381D01*
X129487658Y-81748381D01*
X129582896Y-81796000D01*
X129630515Y-81843619D01*
X129678134Y-81938857D01*
X129678134Y-82081714D01*
X129630515Y-82176952D01*
X129582896Y-82224571D01*
X129487658Y-82272190D01*
X129106705Y-82272190D01*
X130535277Y-82081714D02*
X130535277Y-82748381D01*
X130297181Y-81700762D02*
X130059086Y-82415048D01*
X130678134Y-82415048D01*
X134224734Y-80919581D02*
X133891400Y-80443390D01*
X133653305Y-80919581D02*
X133653305Y-79919581D01*
X134034258Y-79919581D01*
X134129496Y-79967200D01*
X134177115Y-80014819D01*
X134224734Y-80110057D01*
X134224734Y-80252914D01*
X134177115Y-80348152D01*
X134129496Y-80395771D01*
X134034258Y-80443390D01*
X133653305Y-80443390D01*
X135129496Y-79919581D02*
X134653305Y-79919581D01*
X134605686Y-80395771D01*
X134653305Y-80348152D01*
X134748543Y-80300533D01*
X134986639Y-80300533D01*
X135081877Y-80348152D01*
X135129496Y-80395771D01*
X135177115Y-80491010D01*
X135177115Y-80729105D01*
X135129496Y-80824343D01*
X135081877Y-80871962D01*
X134986639Y-80919581D01*
X134748543Y-80919581D01*
X134653305Y-80871962D01*
X134605686Y-80824343D01*
X131608534Y-76347581D02*
X131275200Y-75871390D01*
X131037105Y-76347581D02*
X131037105Y-75347581D01*
X131418058Y-75347581D01*
X131513296Y-75395200D01*
X131560915Y-75442819D01*
X131608534Y-75538057D01*
X131608534Y-75680914D01*
X131560915Y-75776152D01*
X131513296Y-75823771D01*
X131418058Y-75871390D01*
X131037105Y-75871390D01*
X132465677Y-75347581D02*
X132275200Y-75347581D01*
X132179962Y-75395200D01*
X132132343Y-75442819D01*
X132037105Y-75585676D01*
X131989486Y-75776152D01*
X131989486Y-76157105D01*
X132037105Y-76252343D01*
X132084724Y-76299962D01*
X132179962Y-76347581D01*
X132370439Y-76347581D01*
X132465677Y-76299962D01*
X132513296Y-76252343D01*
X132560915Y-76157105D01*
X132560915Y-75919010D01*
X132513296Y-75823771D01*
X132465677Y-75776152D01*
X132370439Y-75728533D01*
X132179962Y-75728533D01*
X132084724Y-75776152D01*
X132037105Y-75823771D01*
X131989486Y-75919010D01*
X89571534Y-58091343D02*
X89523915Y-58138962D01*
X89381058Y-58186581D01*
X89285820Y-58186581D01*
X89142962Y-58138962D01*
X89047724Y-58043724D01*
X89000105Y-57948486D01*
X88952486Y-57758010D01*
X88952486Y-57615152D01*
X89000105Y-57424676D01*
X89047724Y-57329438D01*
X89142962Y-57234200D01*
X89285820Y-57186581D01*
X89381058Y-57186581D01*
X89523915Y-57234200D01*
X89571534Y-57281819D01*
X90476296Y-57186581D02*
X90000105Y-57186581D01*
X89952486Y-57662771D01*
X90000105Y-57615152D01*
X90095343Y-57567533D01*
X90333439Y-57567533D01*
X90428677Y-57615152D01*
X90476296Y-57662771D01*
X90523915Y-57758010D01*
X90523915Y-57996105D01*
X90476296Y-58091343D01*
X90428677Y-58138962D01*
X90333439Y-58186581D01*
X90095343Y-58186581D01*
X90000105Y-58138962D01*
X89952486Y-58091343D01*
X95184483Y-65123326D02*
X95232102Y-65170945D01*
X95279721Y-65313802D01*
X95279721Y-65409040D01*
X95232102Y-65551898D01*
X95136864Y-65647136D01*
X95041626Y-65694755D01*
X94851150Y-65742374D01*
X94708292Y-65742374D01*
X94517816Y-65694755D01*
X94422578Y-65647136D01*
X94327340Y-65551898D01*
X94279721Y-65409040D01*
X94279721Y-65313802D01*
X94327340Y-65170945D01*
X94374959Y-65123326D01*
X94279721Y-64266183D02*
X94279721Y-64456660D01*
X94327340Y-64551898D01*
X94374959Y-64599517D01*
X94517816Y-64694755D01*
X94708292Y-64742374D01*
X95089245Y-64742374D01*
X95184483Y-64694755D01*
X95232102Y-64647136D01*
X95279721Y-64551898D01*
X95279721Y-64361421D01*
X95232102Y-64266183D01*
X95184483Y-64218564D01*
X95089245Y-64170945D01*
X94851150Y-64170945D01*
X94755911Y-64218564D01*
X94708292Y-64266183D01*
X94660673Y-64361421D01*
X94660673Y-64551898D01*
X94708292Y-64647136D01*
X94755911Y-64694755D01*
X94851150Y-64742374D01*
X89952534Y-66219343D02*
X89904915Y-66266962D01*
X89762058Y-66314581D01*
X89666820Y-66314581D01*
X89523962Y-66266962D01*
X89428724Y-66171724D01*
X89381105Y-66076486D01*
X89333486Y-65886010D01*
X89333486Y-65743152D01*
X89381105Y-65552676D01*
X89428724Y-65457438D01*
X89523962Y-65362200D01*
X89666820Y-65314581D01*
X89762058Y-65314581D01*
X89904915Y-65362200D01*
X89952534Y-65409819D01*
X90285867Y-65314581D02*
X90952534Y-65314581D01*
X90523962Y-66314581D01*
X124242534Y-84024743D02*
X124194915Y-84072362D01*
X124052058Y-84119981D01*
X123956820Y-84119981D01*
X123813962Y-84072362D01*
X123718724Y-83977124D01*
X123671105Y-83881886D01*
X123623486Y-83691410D01*
X123623486Y-83548552D01*
X123671105Y-83358076D01*
X123718724Y-83262838D01*
X123813962Y-83167600D01*
X123956820Y-83119981D01*
X124052058Y-83119981D01*
X124194915Y-83167600D01*
X124242534Y-83215219D01*
X125099677Y-83453314D02*
X125099677Y-84119981D01*
X124861581Y-83072362D02*
X124623486Y-83786648D01*
X125242534Y-83786648D01*
X131894343Y-83846943D02*
X131846724Y-83894562D01*
X131703867Y-83942181D01*
X131608629Y-83942181D01*
X131465771Y-83894562D01*
X131370533Y-83799324D01*
X131322914Y-83704086D01*
X131275295Y-83513610D01*
X131275295Y-83370752D01*
X131322914Y-83180276D01*
X131370533Y-83085038D01*
X131465771Y-82989800D01*
X131608629Y-82942181D01*
X131703867Y-82942181D01*
X131846724Y-82989800D01*
X131894343Y-83037419D01*
X132846724Y-83942181D02*
X132275295Y-83942181D01*
X132561009Y-83942181D02*
X132561009Y-82942181D01*
X132465771Y-83085038D01*
X132370533Y-83180276D01*
X132275295Y-83227895D01*
X133751486Y-82942181D02*
X133275295Y-82942181D01*
X133227676Y-83418371D01*
X133275295Y-83370752D01*
X133370533Y-83323133D01*
X133608629Y-83323133D01*
X133703867Y-83370752D01*
X133751486Y-83418371D01*
X133799105Y-83513610D01*
X133799105Y-83751705D01*
X133751486Y-83846943D01*
X133703867Y-83894562D01*
X133608629Y-83942181D01*
X133370533Y-83942181D01*
X133275295Y-83894562D01*
X133227676Y-83846943D01*
X126890543Y-76226943D02*
X126842924Y-76274562D01*
X126700067Y-76322181D01*
X126604829Y-76322181D01*
X126461971Y-76274562D01*
X126366733Y-76179324D01*
X126319114Y-76084086D01*
X126271495Y-75893610D01*
X126271495Y-75750752D01*
X126319114Y-75560276D01*
X126366733Y-75465038D01*
X126461971Y-75369800D01*
X126604829Y-75322181D01*
X126700067Y-75322181D01*
X126842924Y-75369800D01*
X126890543Y-75417419D01*
X127842924Y-76322181D02*
X127271495Y-76322181D01*
X127557209Y-76322181D02*
X127557209Y-75322181D01*
X127461971Y-75465038D01*
X127366733Y-75560276D01*
X127271495Y-75607895D01*
X128700067Y-75322181D02*
X128509590Y-75322181D01*
X128414352Y-75369800D01*
X128366733Y-75417419D01*
X128271495Y-75560276D01*
X128223876Y-75750752D01*
X128223876Y-76131705D01*
X128271495Y-76226943D01*
X128319114Y-76274562D01*
X128414352Y-76322181D01*
X128604829Y-76322181D01*
X128700067Y-76274562D01*
X128747686Y-76226943D01*
X128795305Y-76131705D01*
X128795305Y-75893610D01*
X128747686Y-75798371D01*
X128700067Y-75750752D01*
X128604829Y-75703133D01*
X128414352Y-75703133D01*
X128319114Y-75750752D01*
X128271495Y-75798371D01*
X128223876Y-75893610D01*
X123896381Y-79973466D02*
X123420190Y-80306800D01*
X123896381Y-80544895D02*
X122896381Y-80544895D01*
X122896381Y-80163942D01*
X122944000Y-80068704D01*
X122991619Y-80021085D01*
X123086857Y-79973466D01*
X123229714Y-79973466D01*
X123324952Y-80021085D01*
X123372571Y-80068704D01*
X123420190Y-80163942D01*
X123420190Y-80544895D01*
X122896381Y-79640133D02*
X122896381Y-79021085D01*
X123277333Y-79354419D01*
X123277333Y-79211561D01*
X123324952Y-79116323D01*
X123372571Y-79068704D01*
X123467810Y-79021085D01*
X123705905Y-79021085D01*
X123801143Y-79068704D01*
X123848762Y-79116323D01*
X123896381Y-79211561D01*
X123896381Y-79497276D01*
X123848762Y-79592514D01*
X123801143Y-79640133D01*
X93403183Y-84925303D02*
X93355564Y-84972922D01*
X93212707Y-85020541D01*
X93117469Y-85020541D01*
X92974611Y-84972922D01*
X92879373Y-84877684D01*
X92831754Y-84782446D01*
X92784135Y-84591970D01*
X92784135Y-84449112D01*
X92831754Y-84258636D01*
X92879373Y-84163398D01*
X92974611Y-84068160D01*
X93117469Y-84020541D01*
X93212707Y-84020541D01*
X93355564Y-84068160D01*
X93403183Y-84115779D01*
X94355564Y-85020541D02*
X93784135Y-85020541D01*
X94069849Y-85020541D02*
X94069849Y-84020541D01*
X93974611Y-84163398D01*
X93879373Y-84258636D01*
X93784135Y-84306255D01*
X94688897Y-84020541D02*
X95355564Y-84020541D01*
X94926992Y-85020541D01*
X99626183Y-59409603D02*
X99578564Y-59457222D01*
X99435707Y-59504841D01*
X99340469Y-59504841D01*
X99197611Y-59457222D01*
X99102373Y-59361984D01*
X99054754Y-59266746D01*
X99007135Y-59076270D01*
X99007135Y-58933412D01*
X99054754Y-58742936D01*
X99102373Y-58647698D01*
X99197611Y-58552460D01*
X99340469Y-58504841D01*
X99435707Y-58504841D01*
X99578564Y-58552460D01*
X99626183Y-58600079D01*
X100578564Y-59504841D02*
X100007135Y-59504841D01*
X100292849Y-59504841D02*
X100292849Y-58504841D01*
X100197611Y-58647698D01*
X100102373Y-58742936D01*
X100007135Y-58790555D01*
X101149992Y-58933412D02*
X101054754Y-58885793D01*
X101007135Y-58838174D01*
X100959516Y-58742936D01*
X100959516Y-58695317D01*
X101007135Y-58600079D01*
X101054754Y-58552460D01*
X101149992Y-58504841D01*
X101340469Y-58504841D01*
X101435707Y-58552460D01*
X101483326Y-58600079D01*
X101530945Y-58695317D01*
X101530945Y-58742936D01*
X101483326Y-58838174D01*
X101435707Y-58885793D01*
X101340469Y-58933412D01*
X101149992Y-58933412D01*
X101054754Y-58981031D01*
X101007135Y-59028650D01*
X100959516Y-59123889D01*
X100959516Y-59314365D01*
X101007135Y-59409603D01*
X101054754Y-59457222D01*
X101149992Y-59504841D01*
X101340469Y-59504841D01*
X101435707Y-59457222D01*
X101483326Y-59409603D01*
X101530945Y-59314365D01*
X101530945Y-59123889D01*
X101483326Y-59028650D01*
X101435707Y-58981031D01*
X101340469Y-58933412D01*
X116755943Y-64009543D02*
X116708324Y-64057162D01*
X116565467Y-64104781D01*
X116470229Y-64104781D01*
X116327371Y-64057162D01*
X116232133Y-63961924D01*
X116184514Y-63866686D01*
X116136895Y-63676210D01*
X116136895Y-63533352D01*
X116184514Y-63342876D01*
X116232133Y-63247638D01*
X116327371Y-63152400D01*
X116470229Y-63104781D01*
X116565467Y-63104781D01*
X116708324Y-63152400D01*
X116755943Y-63200019D01*
X117136895Y-63200019D02*
X117184514Y-63152400D01*
X117279752Y-63104781D01*
X117517848Y-63104781D01*
X117613086Y-63152400D01*
X117660705Y-63200019D01*
X117708324Y-63295257D01*
X117708324Y-63390495D01*
X117660705Y-63533352D01*
X117089276Y-64104781D01*
X117708324Y-64104781D01*
X118327371Y-63104781D02*
X118422610Y-63104781D01*
X118517848Y-63152400D01*
X118565467Y-63200019D01*
X118613086Y-63295257D01*
X118660705Y-63485733D01*
X118660705Y-63723829D01*
X118613086Y-63914305D01*
X118565467Y-64009543D01*
X118517848Y-64057162D01*
X118422610Y-64104781D01*
X118327371Y-64104781D01*
X118232133Y-64057162D01*
X118184514Y-64009543D01*
X118136895Y-63914305D01*
X118089276Y-63723829D01*
X118089276Y-63485733D01*
X118136895Y-63295257D01*
X118184514Y-63200019D01*
X118232133Y-63152400D01*
X118327371Y-63104781D01*
X138983483Y-69836303D02*
X138935864Y-69883922D01*
X138793007Y-69931541D01*
X138697769Y-69931541D01*
X138554911Y-69883922D01*
X138459673Y-69788684D01*
X138412054Y-69693446D01*
X138364435Y-69502970D01*
X138364435Y-69360112D01*
X138412054Y-69169636D01*
X138459673Y-69074398D01*
X138554911Y-68979160D01*
X138697769Y-68931541D01*
X138793007Y-68931541D01*
X138935864Y-68979160D01*
X138983483Y-69026779D01*
X139364435Y-69026779D02*
X139412054Y-68979160D01*
X139507292Y-68931541D01*
X139745388Y-68931541D01*
X139840626Y-68979160D01*
X139888245Y-69026779D01*
X139935864Y-69122017D01*
X139935864Y-69217255D01*
X139888245Y-69360112D01*
X139316816Y-69931541D01*
X139935864Y-69931541D01*
X140888245Y-69931541D02*
X140316816Y-69931541D01*
X140602530Y-69931541D02*
X140602530Y-68931541D01*
X140507292Y-69074398D01*
X140412054Y-69169636D01*
X140316816Y-69217255D01*
X144216381Y-111844057D02*
X143740190Y-112177391D01*
X144216381Y-112415486D02*
X143216381Y-112415486D01*
X143216381Y-112034533D01*
X143264000Y-111939295D01*
X143311619Y-111891676D01*
X143406857Y-111844057D01*
X143549714Y-111844057D01*
X143644952Y-111891676D01*
X143692571Y-111939295D01*
X143740190Y-112034533D01*
X143740190Y-112415486D01*
X144216381Y-110891676D02*
X144216381Y-111463105D01*
X144216381Y-111177391D02*
X143216381Y-111177391D01*
X143359238Y-111272629D01*
X143454476Y-111367867D01*
X143502095Y-111463105D01*
X144216381Y-110415486D02*
X144216381Y-110225010D01*
X144168762Y-110129771D01*
X144121143Y-110082152D01*
X143978286Y-109986914D01*
X143787810Y-109939295D01*
X143406857Y-109939295D01*
X143311619Y-109986914D01*
X143264000Y-110034533D01*
X143216381Y-110129771D01*
X143216381Y-110320248D01*
X143264000Y-110415486D01*
X143311619Y-110463105D01*
X143406857Y-110510724D01*
X143644952Y-110510724D01*
X143740190Y-110463105D01*
X143787810Y-110415486D01*
X143835429Y-110320248D01*
X143835429Y-110129771D01*
X143787810Y-110034533D01*
X143740190Y-109986914D01*
X143644952Y-109939295D01*
X140243821Y-80532266D02*
X139767630Y-80865600D01*
X140243821Y-81103695D02*
X139243821Y-81103695D01*
X139243821Y-80722742D01*
X139291440Y-80627504D01*
X139339059Y-80579885D01*
X139434297Y-80532266D01*
X139577154Y-80532266D01*
X139672392Y-80579885D01*
X139720011Y-80627504D01*
X139767630Y-80722742D01*
X139767630Y-81103695D01*
X139339059Y-80151314D02*
X139291440Y-80103695D01*
X139243821Y-80008457D01*
X139243821Y-79770361D01*
X139291440Y-79675123D01*
X139339059Y-79627504D01*
X139434297Y-79579885D01*
X139529535Y-79579885D01*
X139672392Y-79627504D01*
X140243821Y-80198933D01*
X140243821Y-79579885D01*
X110283221Y-72132366D02*
X109807030Y-72465700D01*
X110283221Y-72703795D02*
X109283221Y-72703795D01*
X109283221Y-72322842D01*
X109330840Y-72227604D01*
X109378459Y-72179985D01*
X109473697Y-72132366D01*
X109616554Y-72132366D01*
X109711792Y-72179985D01*
X109759411Y-72227604D01*
X109807030Y-72322842D01*
X109807030Y-72703795D01*
X109711792Y-71560938D02*
X109664173Y-71656176D01*
X109616554Y-71703795D01*
X109521316Y-71751414D01*
X109473697Y-71751414D01*
X109378459Y-71703795D01*
X109330840Y-71656176D01*
X109283221Y-71560938D01*
X109283221Y-71370461D01*
X109330840Y-71275223D01*
X109378459Y-71227604D01*
X109473697Y-71179985D01*
X109521316Y-71179985D01*
X109616554Y-71227604D01*
X109664173Y-71275223D01*
X109711792Y-71370461D01*
X109711792Y-71560938D01*
X109759411Y-71656176D01*
X109807030Y-71703795D01*
X109902269Y-71751414D01*
X110092745Y-71751414D01*
X110187983Y-71703795D01*
X110235602Y-71656176D01*
X110283221Y-71560938D01*
X110283221Y-71370461D01*
X110235602Y-71275223D01*
X110187983Y-71227604D01*
X110092745Y-71179985D01*
X109902269Y-71179985D01*
X109807030Y-71227604D01*
X109759411Y-71275223D01*
X109711792Y-71370461D01*
X144669801Y-91370566D02*
X144193610Y-91703900D01*
X144669801Y-91941995D02*
X143669801Y-91941995D01*
X143669801Y-91561042D01*
X143717420Y-91465804D01*
X143765039Y-91418185D01*
X143860277Y-91370566D01*
X144003134Y-91370566D01*
X144098372Y-91418185D01*
X144145991Y-91465804D01*
X144193610Y-91561042D01*
X144193610Y-91941995D01*
X144669801Y-90418185D02*
X144669801Y-90989614D01*
X144669801Y-90703900D02*
X143669801Y-90703900D01*
X143812658Y-90799138D01*
X143907896Y-90894376D01*
X143955515Y-90989614D01*
X150820381Y-80094057D02*
X150344190Y-80427391D01*
X150820381Y-80665486D02*
X149820381Y-80665486D01*
X149820381Y-80284533D01*
X149868000Y-80189295D01*
X149915619Y-80141676D01*
X150010857Y-80094057D01*
X150153714Y-80094057D01*
X150248952Y-80141676D01*
X150296571Y-80189295D01*
X150344190Y-80284533D01*
X150344190Y-80665486D01*
X150820381Y-79141676D02*
X150820381Y-79713105D01*
X150820381Y-79427391D02*
X149820381Y-79427391D01*
X149963238Y-79522629D01*
X150058476Y-79617867D01*
X150106095Y-79713105D01*
X150153714Y-78284533D02*
X150820381Y-78284533D01*
X149772762Y-78522629D02*
X150487048Y-78760724D01*
X150487048Y-78141676D01*
X101160343Y-102357181D02*
X100827009Y-101880990D01*
X100588914Y-102357181D02*
X100588914Y-101357181D01*
X100969867Y-101357181D01*
X101065105Y-101404800D01*
X101112724Y-101452419D01*
X101160343Y-101547657D01*
X101160343Y-101690514D01*
X101112724Y-101785752D01*
X101065105Y-101833371D01*
X100969867Y-101880990D01*
X100588914Y-101880990D01*
X102112724Y-102357181D02*
X101541295Y-102357181D01*
X101827009Y-102357181D02*
X101827009Y-101357181D01*
X101731771Y-101500038D01*
X101636533Y-101595276D01*
X101541295Y-101642895D01*
X102446057Y-101357181D02*
X103112724Y-101357181D01*
X102684152Y-102357181D01*
X144749781Y-102522257D02*
X144273590Y-102855591D01*
X144749781Y-103093686D02*
X143749781Y-103093686D01*
X143749781Y-102712733D01*
X143797400Y-102617495D01*
X143845019Y-102569876D01*
X143940257Y-102522257D01*
X144083114Y-102522257D01*
X144178352Y-102569876D01*
X144225971Y-102617495D01*
X144273590Y-102712733D01*
X144273590Y-103093686D01*
X144749781Y-101569876D02*
X144749781Y-102141305D01*
X144749781Y-101855591D02*
X143749781Y-101855591D01*
X143892638Y-101950829D01*
X143987876Y-102046067D01*
X144035495Y-102141305D01*
X144178352Y-100998448D02*
X144130733Y-101093686D01*
X144083114Y-101141305D01*
X143987876Y-101188924D01*
X143940257Y-101188924D01*
X143845019Y-101141305D01*
X143797400Y-101093686D01*
X143749781Y-100998448D01*
X143749781Y-100807971D01*
X143797400Y-100712733D01*
X143845019Y-100665114D01*
X143940257Y-100617495D01*
X143987876Y-100617495D01*
X144083114Y-100665114D01*
X144130733Y-100712733D01*
X144178352Y-100807971D01*
X144178352Y-100998448D01*
X144225971Y-101093686D01*
X144273590Y-101141305D01*
X144368829Y-101188924D01*
X144559305Y-101188924D01*
X144654543Y-101141305D01*
X144702162Y-101093686D01*
X144749781Y-100998448D01*
X144749781Y-100807971D01*
X144702162Y-100712733D01*
X144654543Y-100665114D01*
X144559305Y-100617495D01*
X144368829Y-100617495D01*
X144273590Y-100665114D01*
X144225971Y-100712733D01*
X144178352Y-100807971D01*
X97888063Y-67396503D02*
X97840444Y-67444122D01*
X97697587Y-67491741D01*
X97602349Y-67491741D01*
X97459491Y-67444122D01*
X97364253Y-67348884D01*
X97316634Y-67253646D01*
X97269015Y-67063170D01*
X97269015Y-66920312D01*
X97316634Y-66729836D01*
X97364253Y-66634598D01*
X97459491Y-66539360D01*
X97602349Y-66491741D01*
X97697587Y-66491741D01*
X97840444Y-66539360D01*
X97888063Y-66586979D01*
X98269015Y-66586979D02*
X98316634Y-66539360D01*
X98411872Y-66491741D01*
X98649968Y-66491741D01*
X98745206Y-66539360D01*
X98792825Y-66586979D01*
X98840444Y-66682217D01*
X98840444Y-66777455D01*
X98792825Y-66920312D01*
X98221396Y-67491741D01*
X98840444Y-67491741D01*
X99173777Y-66491741D02*
X99792825Y-66491741D01*
X99459491Y-66872693D01*
X99602349Y-66872693D01*
X99697587Y-66920312D01*
X99745206Y-66967931D01*
X99792825Y-67063170D01*
X99792825Y-67301265D01*
X99745206Y-67396503D01*
X99697587Y-67444122D01*
X99602349Y-67491741D01*
X99316634Y-67491741D01*
X99221396Y-67444122D01*
X99173777Y-67396503D01*
X96749621Y-71034755D02*
X97559145Y-71034755D01*
X97654383Y-70987136D01*
X97702002Y-70939517D01*
X97749621Y-70844279D01*
X97749621Y-70653802D01*
X97702002Y-70558564D01*
X97654383Y-70510945D01*
X97559145Y-70463326D01*
X96749621Y-70463326D01*
X97749621Y-69463326D02*
X97749621Y-70034755D01*
X97749621Y-69749041D02*
X96749621Y-69749041D01*
X96892478Y-69844279D01*
X96987716Y-69939517D01*
X97035335Y-70034755D01*
X96749621Y-68606183D02*
X96749621Y-68796660D01*
X96797240Y-68891898D01*
X96844859Y-68939517D01*
X96987716Y-69034755D01*
X97178192Y-69082374D01*
X97559145Y-69082374D01*
X97654383Y-69034755D01*
X97702002Y-68987136D01*
X97749621Y-68891898D01*
X97749621Y-68701421D01*
X97702002Y-68606183D01*
X97654383Y-68558564D01*
X97559145Y-68510945D01*
X97321050Y-68510945D01*
X97225811Y-68558564D01*
X97178192Y-68606183D01*
X97130573Y-68701421D01*
X97130573Y-68891898D01*
X97178192Y-68987136D01*
X97225811Y-69034755D01*
X97321050Y-69082374D01*
X126661943Y-84475581D02*
X126328609Y-83999390D01*
X126090514Y-84475581D02*
X126090514Y-83475581D01*
X126471467Y-83475581D01*
X126566705Y-83523200D01*
X126614324Y-83570819D01*
X126661943Y-83666057D01*
X126661943Y-83808914D01*
X126614324Y-83904152D01*
X126566705Y-83951771D01*
X126471467Y-83999390D01*
X126090514Y-83999390D01*
X127042895Y-83570819D02*
X127090514Y-83523200D01*
X127185752Y-83475581D01*
X127423848Y-83475581D01*
X127519086Y-83523200D01*
X127566705Y-83570819D01*
X127614324Y-83666057D01*
X127614324Y-83761295D01*
X127566705Y-83904152D01*
X126995276Y-84475581D01*
X127614324Y-84475581D01*
X128566705Y-84475581D02*
X127995276Y-84475581D01*
X128280990Y-84475581D02*
X128280990Y-83475581D01*
X128185752Y-83618438D01*
X128090514Y-83713676D01*
X127995276Y-83761295D01*
X83561181Y-62872857D02*
X83084990Y-63206191D01*
X83561181Y-63444286D02*
X82561181Y-63444286D01*
X82561181Y-63063333D01*
X82608800Y-62968095D01*
X82656419Y-62920476D01*
X82751657Y-62872857D01*
X82894514Y-62872857D01*
X82989752Y-62920476D01*
X83037371Y-62968095D01*
X83084990Y-63063333D01*
X83084990Y-63444286D01*
X82656419Y-62491905D02*
X82608800Y-62444286D01*
X82561181Y-62349048D01*
X82561181Y-62110952D01*
X82608800Y-62015714D01*
X82656419Y-61968095D01*
X82751657Y-61920476D01*
X82846895Y-61920476D01*
X82989752Y-61968095D01*
X83561181Y-62539524D01*
X83561181Y-61920476D01*
X82561181Y-61587143D02*
X82561181Y-60968095D01*
X82942133Y-61301429D01*
X82942133Y-61158571D01*
X82989752Y-61063333D01*
X83037371Y-61015714D01*
X83132610Y-60968095D01*
X83370705Y-60968095D01*
X83465943Y-61015714D01*
X83513562Y-61063333D01*
X83561181Y-61158571D01*
X83561181Y-61444286D01*
X83513562Y-61539524D01*
X83465943Y-61587143D01*
X89825507Y-95851741D02*
X89825507Y-96566027D01*
X89777887Y-96708884D01*
X89682649Y-96804122D01*
X89539792Y-96851741D01*
X89444554Y-96851741D01*
X90825507Y-96851741D02*
X90254078Y-96851741D01*
X90539792Y-96851741D02*
X90539792Y-95851741D01*
X90444554Y-95994598D01*
X90349316Y-96089836D01*
X90254078Y-96137455D01*
X84898907Y-66512641D02*
X84898907Y-67226927D01*
X84851287Y-67369784D01*
X84756049Y-67465022D01*
X84613192Y-67512641D01*
X84517954Y-67512641D01*
X85327478Y-66607879D02*
X85375097Y-66560260D01*
X85470335Y-66512641D01*
X85708431Y-66512641D01*
X85803669Y-66560260D01*
X85851288Y-66607879D01*
X85898907Y-66703117D01*
X85898907Y-66798355D01*
X85851288Y-66941212D01*
X85279859Y-67512641D01*
X85898907Y-67512641D01*
X144460934Y-86691743D02*
X144413315Y-86739362D01*
X144270458Y-86786981D01*
X144175220Y-86786981D01*
X144032362Y-86739362D01*
X143937124Y-86644124D01*
X143889505Y-86548886D01*
X143841886Y-86358410D01*
X143841886Y-86215552D01*
X143889505Y-86025076D01*
X143937124Y-85929838D01*
X144032362Y-85834600D01*
X144175220Y-85786981D01*
X144270458Y-85786981D01*
X144413315Y-85834600D01*
X144460934Y-85882219D01*
X144841886Y-85882219D02*
X144889505Y-85834600D01*
X144984743Y-85786981D01*
X145222839Y-85786981D01*
X145318077Y-85834600D01*
X145365696Y-85882219D01*
X145413315Y-85977457D01*
X145413315Y-86072695D01*
X145365696Y-86215552D01*
X144794267Y-86786981D01*
X145413315Y-86786981D01*
X114488934Y-71248543D02*
X114441315Y-71296162D01*
X114298458Y-71343781D01*
X114203220Y-71343781D01*
X114060362Y-71296162D01*
X113965124Y-71200924D01*
X113917505Y-71105686D01*
X113869886Y-70915210D01*
X113869886Y-70772352D01*
X113917505Y-70581876D01*
X113965124Y-70486638D01*
X114060362Y-70391400D01*
X114203220Y-70343781D01*
X114298458Y-70343781D01*
X114441315Y-70391400D01*
X114488934Y-70439019D01*
X115060362Y-70772352D02*
X114965124Y-70724733D01*
X114917505Y-70677114D01*
X114869886Y-70581876D01*
X114869886Y-70534257D01*
X114917505Y-70439019D01*
X114965124Y-70391400D01*
X115060362Y-70343781D01*
X115250839Y-70343781D01*
X115346077Y-70391400D01*
X115393696Y-70439019D01*
X115441315Y-70534257D01*
X115441315Y-70581876D01*
X115393696Y-70677114D01*
X115346077Y-70724733D01*
X115250839Y-70772352D01*
X115060362Y-70772352D01*
X114965124Y-70819971D01*
X114917505Y-70867590D01*
X114869886Y-70962829D01*
X114869886Y-71153305D01*
X114917505Y-71248543D01*
X114965124Y-71296162D01*
X115060362Y-71343781D01*
X115250839Y-71343781D01*
X115346077Y-71296162D01*
X115393696Y-71248543D01*
X115441315Y-71153305D01*
X115441315Y-70962829D01*
X115393696Y-70867590D01*
X115346077Y-70819971D01*
X115250839Y-70772352D01*
X155890934Y-76963543D02*
X155843315Y-77011162D01*
X155700458Y-77058781D01*
X155605220Y-77058781D01*
X155462362Y-77011162D01*
X155367124Y-76915924D01*
X155319505Y-76820686D01*
X155271886Y-76630210D01*
X155271886Y-76487352D01*
X155319505Y-76296876D01*
X155367124Y-76201638D01*
X155462362Y-76106400D01*
X155605220Y-76058781D01*
X155700458Y-76058781D01*
X155843315Y-76106400D01*
X155890934Y-76154019D01*
X156367124Y-77058781D02*
X156557600Y-77058781D01*
X156652839Y-77011162D01*
X156700458Y-76963543D01*
X156795696Y-76820686D01*
X156843315Y-76630210D01*
X156843315Y-76249257D01*
X156795696Y-76154019D01*
X156748077Y-76106400D01*
X156652839Y-76058781D01*
X156462362Y-76058781D01*
X156367124Y-76106400D01*
X156319505Y-76154019D01*
X156271886Y-76249257D01*
X156271886Y-76487352D01*
X156319505Y-76582590D01*
X156367124Y-76630210D01*
X156462362Y-76677829D01*
X156652839Y-76677829D01*
X156748077Y-76630210D01*
X156795696Y-76582590D01*
X156843315Y-76487352D01*
X105157543Y-102877857D02*
X105205162Y-102925476D01*
X105252781Y-103068333D01*
X105252781Y-103163571D01*
X105205162Y-103306429D01*
X105109924Y-103401667D01*
X105014686Y-103449286D01*
X104824210Y-103496905D01*
X104681352Y-103496905D01*
X104490876Y-103449286D01*
X104395638Y-103401667D01*
X104300400Y-103306429D01*
X104252781Y-103163571D01*
X104252781Y-103068333D01*
X104300400Y-102925476D01*
X104348019Y-102877857D01*
X105252781Y-101925476D02*
X105252781Y-102496905D01*
X105252781Y-102211191D02*
X104252781Y-102211191D01*
X104395638Y-102306429D01*
X104490876Y-102401667D01*
X104538495Y-102496905D01*
X104348019Y-101544524D02*
X104300400Y-101496905D01*
X104252781Y-101401667D01*
X104252781Y-101163571D01*
X104300400Y-101068333D01*
X104348019Y-101020714D01*
X104443257Y-100973095D01*
X104538495Y-100973095D01*
X104681352Y-101020714D01*
X105252781Y-101592143D01*
X105252781Y-100973095D01*
X142867143Y-105208343D02*
X142819524Y-105255962D01*
X142676667Y-105303581D01*
X142581429Y-105303581D01*
X142438571Y-105255962D01*
X142343333Y-105160724D01*
X142295714Y-105065486D01*
X142248095Y-104875010D01*
X142248095Y-104732152D01*
X142295714Y-104541676D01*
X142343333Y-104446438D01*
X142438571Y-104351200D01*
X142581429Y-104303581D01*
X142676667Y-104303581D01*
X142819524Y-104351200D01*
X142867143Y-104398819D01*
X143819524Y-105303581D02*
X143248095Y-105303581D01*
X143533809Y-105303581D02*
X143533809Y-104303581D01*
X143438571Y-104446438D01*
X143343333Y-104541676D01*
X143248095Y-104589295D01*
X144152857Y-104303581D02*
X144771905Y-104303581D01*
X144438571Y-104684533D01*
X144581429Y-104684533D01*
X144676667Y-104732152D01*
X144724286Y-104779771D01*
X144771905Y-104875010D01*
X144771905Y-105113105D01*
X144724286Y-105208343D01*
X144676667Y-105255962D01*
X144581429Y-105303581D01*
X144295714Y-105303581D01*
X144200476Y-105255962D01*
X144152857Y-105208343D01*
X93341023Y-71215737D02*
X93388642Y-71263356D01*
X93436261Y-71406213D01*
X93436261Y-71501451D01*
X93388642Y-71644309D01*
X93293404Y-71739547D01*
X93198166Y-71787166D01*
X93007690Y-71834785D01*
X92864832Y-71834785D01*
X92674356Y-71787166D01*
X92579118Y-71739547D01*
X92483880Y-71644309D01*
X92436261Y-71501451D01*
X92436261Y-71406213D01*
X92483880Y-71263356D01*
X92531499Y-71215737D01*
X92531499Y-70834785D02*
X92483880Y-70787166D01*
X92436261Y-70691928D01*
X92436261Y-70453832D01*
X92483880Y-70358594D01*
X92531499Y-70310975D01*
X92626737Y-70263356D01*
X92721975Y-70263356D01*
X92864832Y-70310975D01*
X93436261Y-70882404D01*
X93436261Y-70263356D01*
X92531499Y-69882404D02*
X92483880Y-69834785D01*
X92436261Y-69739547D01*
X92436261Y-69501451D01*
X92483880Y-69406213D01*
X92531499Y-69358594D01*
X92626737Y-69310975D01*
X92721975Y-69310975D01*
X92864832Y-69358594D01*
X93436261Y-69930023D01*
X93436261Y-69310975D01*
X135755143Y-110085143D02*
X135707524Y-110132762D01*
X135564667Y-110180381D01*
X135469429Y-110180381D01*
X135326571Y-110132762D01*
X135231333Y-110037524D01*
X135183714Y-109942286D01*
X135136095Y-109751810D01*
X135136095Y-109608952D01*
X135183714Y-109418476D01*
X135231333Y-109323238D01*
X135326571Y-109228000D01*
X135469429Y-109180381D01*
X135564667Y-109180381D01*
X135707524Y-109228000D01*
X135755143Y-109275619D01*
X136707524Y-110180381D02*
X136136095Y-110180381D01*
X136421809Y-110180381D02*
X136421809Y-109180381D01*
X136326571Y-109323238D01*
X136231333Y-109418476D01*
X136136095Y-109466095D01*
X137564667Y-109513714D02*
X137564667Y-110180381D01*
X137326571Y-109132762D02*
X137088476Y-109847048D01*
X137707524Y-109847048D01*
X139609534Y-111551981D02*
X139276200Y-111075790D01*
X139038105Y-111551981D02*
X139038105Y-110551981D01*
X139419058Y-110551981D01*
X139514296Y-110599600D01*
X139561915Y-110647219D01*
X139609534Y-110742457D01*
X139609534Y-110885314D01*
X139561915Y-110980552D01*
X139514296Y-111028171D01*
X139419058Y-111075790D01*
X139038105Y-111075790D01*
X140085724Y-111551981D02*
X140276200Y-111551981D01*
X140371439Y-111504362D01*
X140419058Y-111456743D01*
X140514296Y-111313886D01*
X140561915Y-111123410D01*
X140561915Y-110742457D01*
X140514296Y-110647219D01*
X140466677Y-110599600D01*
X140371439Y-110551981D01*
X140180962Y-110551981D01*
X140085724Y-110599600D01*
X140038105Y-110647219D01*
X139990486Y-110742457D01*
X139990486Y-110980552D01*
X140038105Y-111075790D01*
X140085724Y-111123410D01*
X140180962Y-111171029D01*
X140371439Y-111171029D01*
X140466677Y-111123410D01*
X140514296Y-111075790D01*
X140561915Y-110980552D01*
X129557543Y-116479581D02*
X129224209Y-116003390D01*
X128986114Y-116479581D02*
X128986114Y-115479581D01*
X129367067Y-115479581D01*
X129462305Y-115527200D01*
X129509924Y-115574819D01*
X129557543Y-115670057D01*
X129557543Y-115812914D01*
X129509924Y-115908152D01*
X129462305Y-115955771D01*
X129367067Y-116003390D01*
X128986114Y-116003390D01*
X130509924Y-116479581D02*
X129938495Y-116479581D01*
X130224209Y-116479581D02*
X130224209Y-115479581D01*
X130128971Y-115622438D01*
X130033733Y-115717676D01*
X129938495Y-115765295D01*
X131128971Y-115479581D02*
X131224210Y-115479581D01*
X131319448Y-115527200D01*
X131367067Y-115574819D01*
X131414686Y-115670057D01*
X131462305Y-115860533D01*
X131462305Y-116098629D01*
X131414686Y-116289105D01*
X131367067Y-116384343D01*
X131319448Y-116431962D01*
X131224210Y-116479581D01*
X131128971Y-116479581D01*
X131033733Y-116431962D01*
X130986114Y-116384343D01*
X130938495Y-116289105D01*
X130890876Y-116098629D01*
X130890876Y-115860533D01*
X130938495Y-115670057D01*
X130986114Y-115574819D01*
X131033733Y-115527200D01*
X131128971Y-115479581D01*
X120813581Y-109823095D02*
X121623105Y-109823095D01*
X121718343Y-109775476D01*
X121765962Y-109727857D01*
X121813581Y-109632619D01*
X121813581Y-109442142D01*
X121765962Y-109346904D01*
X121718343Y-109299285D01*
X121623105Y-109251666D01*
X120813581Y-109251666D01*
X120908819Y-108823095D02*
X120861200Y-108775476D01*
X120813581Y-108680238D01*
X120813581Y-108442142D01*
X120861200Y-108346904D01*
X120908819Y-108299285D01*
X121004057Y-108251666D01*
X121099295Y-108251666D01*
X121242152Y-108299285D01*
X121813581Y-108870714D01*
X121813581Y-108251666D01*
X120813581Y-107632619D02*
X120813581Y-107537380D01*
X120861200Y-107442142D01*
X120908819Y-107394523D01*
X121004057Y-107346904D01*
X121194533Y-107299285D01*
X121432629Y-107299285D01*
X121623105Y-107346904D01*
X121718343Y-107394523D01*
X121765962Y-107442142D01*
X121813581Y-107537380D01*
X121813581Y-107632619D01*
X121765962Y-107727857D01*
X121718343Y-107775476D01*
X121623105Y-107823095D01*
X121432629Y-107870714D01*
X121194533Y-107870714D01*
X121004057Y-107823095D01*
X120908819Y-107775476D01*
X120861200Y-107727857D01*
X120813581Y-107632619D01*
X125299743Y-104376457D02*
X125347362Y-104424076D01*
X125394981Y-104566933D01*
X125394981Y-104662171D01*
X125347362Y-104805029D01*
X125252124Y-104900267D01*
X125156886Y-104947886D01*
X124966410Y-104995505D01*
X124823552Y-104995505D01*
X124633076Y-104947886D01*
X124537838Y-104900267D01*
X124442600Y-104805029D01*
X124394981Y-104662171D01*
X124394981Y-104566933D01*
X124442600Y-104424076D01*
X124490219Y-104376457D01*
X124490219Y-103995505D02*
X124442600Y-103947886D01*
X124394981Y-103852648D01*
X124394981Y-103614552D01*
X124442600Y-103519314D01*
X124490219Y-103471695D01*
X124585457Y-103424076D01*
X124680695Y-103424076D01*
X124823552Y-103471695D01*
X125394981Y-104043124D01*
X125394981Y-103424076D01*
X124728314Y-102566933D02*
X125394981Y-102566933D01*
X124347362Y-102805029D02*
X125061648Y-103043124D01*
X125061648Y-102424076D01*
X145222103Y-116338017D02*
X145269722Y-116385636D01*
X145317341Y-116528493D01*
X145317341Y-116623731D01*
X145269722Y-116766589D01*
X145174484Y-116861827D01*
X145079246Y-116909446D01*
X144888770Y-116957065D01*
X144745912Y-116957065D01*
X144555436Y-116909446D01*
X144460198Y-116861827D01*
X144364960Y-116766589D01*
X144317341Y-116623731D01*
X144317341Y-116528493D01*
X144364960Y-116385636D01*
X144412579Y-116338017D01*
X144412579Y-115957065D02*
X144364960Y-115909446D01*
X144317341Y-115814208D01*
X144317341Y-115576112D01*
X144364960Y-115480874D01*
X144412579Y-115433255D01*
X144507817Y-115385636D01*
X144603055Y-115385636D01*
X144745912Y-115433255D01*
X145317341Y-116004684D01*
X145317341Y-115385636D01*
X144317341Y-114480874D02*
X144317341Y-114957065D01*
X144793531Y-115004684D01*
X144745912Y-114957065D01*
X144698293Y-114861827D01*
X144698293Y-114623731D01*
X144745912Y-114528493D01*
X144793531Y-114480874D01*
X144888770Y-114433255D01*
X145126865Y-114433255D01*
X145222103Y-114480874D01*
X145269722Y-114528493D01*
X145317341Y-114623731D01*
X145317341Y-114861827D01*
X145269722Y-114957065D01*
X145222103Y-115004684D01*
X139943983Y-116946217D02*
X139991602Y-116993836D01*
X140039221Y-117136693D01*
X140039221Y-117231931D01*
X139991602Y-117374789D01*
X139896364Y-117470027D01*
X139801126Y-117517646D01*
X139610650Y-117565265D01*
X139467792Y-117565265D01*
X139277316Y-117517646D01*
X139182078Y-117470027D01*
X139086840Y-117374789D01*
X139039221Y-117231931D01*
X139039221Y-117136693D01*
X139086840Y-116993836D01*
X139134459Y-116946217D01*
X139134459Y-116565265D02*
X139086840Y-116517646D01*
X139039221Y-116422408D01*
X139039221Y-116184312D01*
X139086840Y-116089074D01*
X139134459Y-116041455D01*
X139229697Y-115993836D01*
X139324935Y-115993836D01*
X139467792Y-116041455D01*
X140039221Y-116612884D01*
X140039221Y-115993836D01*
X139039221Y-115136693D02*
X139039221Y-115327170D01*
X139086840Y-115422408D01*
X139134459Y-115470027D01*
X139277316Y-115565265D01*
X139467792Y-115612884D01*
X139848745Y-115612884D01*
X139943983Y-115565265D01*
X139991602Y-115517646D01*
X140039221Y-115422408D01*
X140039221Y-115231931D01*
X139991602Y-115136693D01*
X139943983Y-115089074D01*
X139848745Y-115041455D01*
X139610650Y-115041455D01*
X139515411Y-115089074D01*
X139467792Y-115136693D01*
X139420173Y-115231931D01*
X139420173Y-115422408D01*
X139467792Y-115517646D01*
X139515411Y-115565265D01*
X139610650Y-115612884D01*
X123055143Y-115057181D02*
X122721809Y-114580990D01*
X122483714Y-115057181D02*
X122483714Y-114057181D01*
X122864667Y-114057181D01*
X122959905Y-114104800D01*
X123007524Y-114152419D01*
X123055143Y-114247657D01*
X123055143Y-114390514D01*
X123007524Y-114485752D01*
X122959905Y-114533371D01*
X122864667Y-114580990D01*
X122483714Y-114580990D01*
X124007524Y-115057181D02*
X123436095Y-115057181D01*
X123721809Y-115057181D02*
X123721809Y-114057181D01*
X123626571Y-114200038D01*
X123531333Y-114295276D01*
X123436095Y-114342895D01*
X124959905Y-115057181D02*
X124388476Y-115057181D01*
X124674190Y-115057181D02*
X124674190Y-114057181D01*
X124578952Y-114200038D01*
X124483714Y-114295276D01*
X124388476Y-114342895D01*
X130093981Y-120099057D02*
X129617790Y-120432391D01*
X130093981Y-120670486D02*
X129093981Y-120670486D01*
X129093981Y-120289533D01*
X129141600Y-120194295D01*
X129189219Y-120146676D01*
X129284457Y-120099057D01*
X129427314Y-120099057D01*
X129522552Y-120146676D01*
X129570171Y-120194295D01*
X129617790Y-120289533D01*
X129617790Y-120670486D01*
X130093981Y-119146676D02*
X130093981Y-119718105D01*
X130093981Y-119432391D02*
X129093981Y-119432391D01*
X129236838Y-119527629D01*
X129332076Y-119622867D01*
X129379695Y-119718105D01*
X129189219Y-118765724D02*
X129141600Y-118718105D01*
X129093981Y-118622867D01*
X129093981Y-118384771D01*
X129141600Y-118289533D01*
X129189219Y-118241914D01*
X129284457Y-118194295D01*
X129379695Y-118194295D01*
X129522552Y-118241914D01*
X130093981Y-118813343D01*
X130093981Y-118194295D01*
X86093549Y-128465513D02*
X86194564Y-127893093D01*
X85689487Y-128061452D02*
X86396594Y-127354345D01*
X86665969Y-127623719D01*
X86699640Y-127724735D01*
X86699640Y-127792078D01*
X86665969Y-127893093D01*
X86564954Y-127994108D01*
X86463938Y-128027780D01*
X86396595Y-128027780D01*
X86295580Y-127994108D01*
X86026205Y-127724734D01*
X86766984Y-129138948D02*
X86362923Y-128734887D01*
X86564953Y-128936917D02*
X87272060Y-128229810D01*
X87103701Y-128263482D01*
X86969014Y-128263482D01*
X86867999Y-128229810D01*
X88113854Y-129071605D02*
X87777136Y-128734887D01*
X87406747Y-129037932D01*
X87474091Y-129037932D01*
X87575106Y-129071604D01*
X87743465Y-129239963D01*
X87777137Y-129340978D01*
X87777137Y-129408322D01*
X87743464Y-129509338D01*
X87575106Y-129677696D01*
X87474091Y-129711368D01*
X87406747Y-129711368D01*
X87305732Y-129677696D01*
X87137373Y-129509337D01*
X87103701Y-129408322D01*
X87103701Y-129340978D01*
X123283743Y-125318781D02*
X122950409Y-124842590D01*
X122712314Y-125318781D02*
X122712314Y-124318781D01*
X123093267Y-124318781D01*
X123188505Y-124366400D01*
X123236124Y-124414019D01*
X123283743Y-124509257D01*
X123283743Y-124652114D01*
X123236124Y-124747352D01*
X123188505Y-124794971D01*
X123093267Y-124842590D01*
X122712314Y-124842590D01*
X123664695Y-124414019D02*
X123712314Y-124366400D01*
X123807552Y-124318781D01*
X124045648Y-124318781D01*
X124140886Y-124366400D01*
X124188505Y-124414019D01*
X124236124Y-124509257D01*
X124236124Y-124604495D01*
X124188505Y-124747352D01*
X123617076Y-125318781D01*
X124236124Y-125318781D01*
X124855171Y-124318781D02*
X124950410Y-124318781D01*
X125045648Y-124366400D01*
X125093267Y-124414019D01*
X125140886Y-124509257D01*
X125188505Y-124699733D01*
X125188505Y-124937829D01*
X125140886Y-125128305D01*
X125093267Y-125223543D01*
X125045648Y-125271162D01*
X124950410Y-125318781D01*
X124855171Y-125318781D01*
X124759933Y-125271162D01*
X124712314Y-125223543D01*
X124664695Y-125128305D01*
X124617076Y-124937829D01*
X124617076Y-124699733D01*
X124664695Y-124509257D01*
X124712314Y-124414019D01*
X124759933Y-124366400D01*
X124855171Y-124318781D01*
X158996143Y-128569981D02*
X158662809Y-128093790D01*
X158424714Y-128569981D02*
X158424714Y-127569981D01*
X158805667Y-127569981D01*
X158900905Y-127617600D01*
X158948524Y-127665219D01*
X158996143Y-127760457D01*
X158996143Y-127903314D01*
X158948524Y-127998552D01*
X158900905Y-128046171D01*
X158805667Y-128093790D01*
X158424714Y-128093790D01*
X159377095Y-127665219D02*
X159424714Y-127617600D01*
X159519952Y-127569981D01*
X159758048Y-127569981D01*
X159853286Y-127617600D01*
X159900905Y-127665219D01*
X159948524Y-127760457D01*
X159948524Y-127855695D01*
X159900905Y-127998552D01*
X159329476Y-128569981D01*
X159948524Y-128569981D01*
X160805667Y-127903314D02*
X160805667Y-128569981D01*
X160567571Y-127522362D02*
X160329476Y-128236648D01*
X160948524Y-128236648D01*
X81819905Y-116800381D02*
X81819905Y-117609905D01*
X81867524Y-117705143D01*
X81915143Y-117752762D01*
X82010381Y-117800381D01*
X82200858Y-117800381D01*
X82296096Y-117752762D01*
X82343715Y-117705143D01*
X82391334Y-117609905D01*
X82391334Y-116800381D01*
X83391334Y-117800381D02*
X82819905Y-117800381D01*
X83105619Y-117800381D02*
X83105619Y-116800381D01*
X83010381Y-116943238D01*
X82915143Y-117038476D01*
X82819905Y-117086095D01*
X83772286Y-116895619D02*
X83819905Y-116848000D01*
X83915143Y-116800381D01*
X84153239Y-116800381D01*
X84248477Y-116848000D01*
X84296096Y-116895619D01*
X84343715Y-116990857D01*
X84343715Y-117086095D01*
X84296096Y-117228952D01*
X83724667Y-117800381D01*
X84343715Y-117800381D01*
X167710560Y-62796110D02*
X167138140Y-63368529D01*
X167104468Y-63469545D01*
X167104468Y-63536888D01*
X167138140Y-63637903D01*
X167272827Y-63772591D01*
X167373843Y-63806262D01*
X167441186Y-63806262D01*
X167542201Y-63772591D01*
X168114621Y-63200171D01*
X168114621Y-64614384D02*
X167710560Y-64210323D01*
X167912590Y-64412353D02*
X168619697Y-63705247D01*
X168451338Y-63738918D01*
X168316651Y-63738918D01*
X168215636Y-63705247D01*
X168451338Y-64951102D02*
X168586025Y-65085788D01*
X168687041Y-65119461D01*
X168754384Y-65119461D01*
X168922743Y-65085789D01*
X169091102Y-64984774D01*
X169360476Y-64715400D01*
X169394148Y-64614384D01*
X169394148Y-64547041D01*
X169360476Y-64446026D01*
X169225788Y-64311338D01*
X169124773Y-64277667D01*
X169057430Y-64277667D01*
X168956415Y-64311338D01*
X168788056Y-64479697D01*
X168754384Y-64580712D01*
X168754384Y-64648056D01*
X168788055Y-64749071D01*
X168922743Y-64883759D01*
X169023758Y-64917431D01*
X169091102Y-64917430D01*
X169192117Y-64883758D01*
X118573705Y-54748181D02*
X118573705Y-55557705D01*
X118621324Y-55652943D01*
X118668943Y-55700562D01*
X118764181Y-55748181D01*
X118954658Y-55748181D01*
X119049896Y-55700562D01*
X119097515Y-55652943D01*
X119145134Y-55557705D01*
X119145134Y-54748181D01*
X120145134Y-55748181D02*
X119573705Y-55748181D01*
X119859419Y-55748181D02*
X119859419Y-54748181D01*
X119764181Y-54891038D01*
X119668943Y-54986276D01*
X119573705Y-55033895D01*
X120716562Y-55176752D02*
X120621324Y-55129133D01*
X120573705Y-55081514D01*
X120526086Y-54986276D01*
X120526086Y-54938657D01*
X120573705Y-54843419D01*
X120621324Y-54795800D01*
X120716562Y-54748181D01*
X120907039Y-54748181D01*
X121002277Y-54795800D01*
X121049896Y-54843419D01*
X121097515Y-54938657D01*
X121097515Y-54986276D01*
X121049896Y-55081514D01*
X121002277Y-55129133D01*
X120907039Y-55176752D01*
X120716562Y-55176752D01*
X120621324Y-55224371D01*
X120573705Y-55271990D01*
X120526086Y-55367229D01*
X120526086Y-55557705D01*
X120573705Y-55652943D01*
X120621324Y-55700562D01*
X120716562Y-55748181D01*
X120907039Y-55748181D01*
X121002277Y-55700562D01*
X121049896Y-55652943D01*
X121097515Y-55557705D01*
X121097515Y-55367229D01*
X121049896Y-55271990D01*
X121002277Y-55224371D01*
X120907039Y-55176752D01*
X153651105Y-135850381D02*
X153651105Y-136659905D01*
X153698724Y-136755143D01*
X153746343Y-136802762D01*
X153841581Y-136850381D01*
X154032058Y-136850381D01*
X154127296Y-136802762D01*
X154174915Y-136755143D01*
X154222534Y-136659905D01*
X154222534Y-135850381D01*
X155222534Y-136850381D02*
X154651105Y-136850381D01*
X154936819Y-136850381D02*
X154936819Y-135850381D01*
X154841581Y-135993238D01*
X154746343Y-136088476D01*
X154651105Y-136136095D01*
X156127296Y-135850381D02*
X155651105Y-135850381D01*
X155603486Y-136326571D01*
X155651105Y-136278952D01*
X155746343Y-136231333D01*
X155984439Y-136231333D01*
X156079677Y-136278952D01*
X156127296Y-136326571D01*
X156174915Y-136421810D01*
X156174915Y-136659905D01*
X156127296Y-136755143D01*
X156079677Y-136802762D01*
X155984439Y-136850381D01*
X155746343Y-136850381D01*
X155651105Y-136802762D01*
X155603486Y-136755143D01*
X134866143Y-78093143D02*
X134818524Y-78140762D01*
X134675667Y-78188381D01*
X134580429Y-78188381D01*
X134437571Y-78140762D01*
X134342333Y-78045524D01*
X134294714Y-77950286D01*
X134247095Y-77759810D01*
X134247095Y-77616952D01*
X134294714Y-77426476D01*
X134342333Y-77331238D01*
X134437571Y-77236000D01*
X134580429Y-77188381D01*
X134675667Y-77188381D01*
X134818524Y-77236000D01*
X134866143Y-77283619D01*
X135247095Y-77283619D02*
X135294714Y-77236000D01*
X135389952Y-77188381D01*
X135628048Y-77188381D01*
X135723286Y-77236000D01*
X135770905Y-77283619D01*
X135818524Y-77378857D01*
X135818524Y-77474095D01*
X135770905Y-77616952D01*
X135199476Y-78188381D01*
X135818524Y-78188381D01*
X136151857Y-77188381D02*
X136818524Y-77188381D01*
X136389952Y-78188381D01*
X118822743Y-83091257D02*
X118870362Y-83138876D01*
X118917981Y-83281733D01*
X118917981Y-83376971D01*
X118870362Y-83519829D01*
X118775124Y-83615067D01*
X118679886Y-83662686D01*
X118489410Y-83710305D01*
X118346552Y-83710305D01*
X118156076Y-83662686D01*
X118060838Y-83615067D01*
X117965600Y-83519829D01*
X117917981Y-83376971D01*
X117917981Y-83281733D01*
X117965600Y-83138876D01*
X118013219Y-83091257D01*
X118013219Y-82710305D02*
X117965600Y-82662686D01*
X117917981Y-82567448D01*
X117917981Y-82329352D01*
X117965600Y-82234114D01*
X118013219Y-82186495D01*
X118108457Y-82138876D01*
X118203695Y-82138876D01*
X118346552Y-82186495D01*
X118917981Y-82757924D01*
X118917981Y-82138876D01*
X118346552Y-81567448D02*
X118298933Y-81662686D01*
X118251314Y-81710305D01*
X118156076Y-81757924D01*
X118108457Y-81757924D01*
X118013219Y-81710305D01*
X117965600Y-81662686D01*
X117917981Y-81567448D01*
X117917981Y-81376971D01*
X117965600Y-81281733D01*
X118013219Y-81234114D01*
X118108457Y-81186495D01*
X118156076Y-81186495D01*
X118251314Y-81234114D01*
X118298933Y-81281733D01*
X118346552Y-81376971D01*
X118346552Y-81567448D01*
X118394171Y-81662686D01*
X118441790Y-81710305D01*
X118537029Y-81757924D01*
X118727505Y-81757924D01*
X118822743Y-81710305D01*
X118870362Y-81662686D01*
X118917981Y-81567448D01*
X118917981Y-81376971D01*
X118870362Y-81281733D01*
X118822743Y-81234114D01*
X118727505Y-81186495D01*
X118537029Y-81186495D01*
X118441790Y-81234114D01*
X118394171Y-81281733D01*
X118346552Y-81376971D01*
X106545143Y-79401943D02*
X106497524Y-79449562D01*
X106354667Y-79497181D01*
X106259429Y-79497181D01*
X106116571Y-79449562D01*
X106021333Y-79354324D01*
X105973714Y-79259086D01*
X105926095Y-79068610D01*
X105926095Y-78925752D01*
X105973714Y-78735276D01*
X106021333Y-78640038D01*
X106116571Y-78544800D01*
X106259429Y-78497181D01*
X106354667Y-78497181D01*
X106497524Y-78544800D01*
X106545143Y-78592419D01*
X106926095Y-78592419D02*
X106973714Y-78544800D01*
X107068952Y-78497181D01*
X107307048Y-78497181D01*
X107402286Y-78544800D01*
X107449905Y-78592419D01*
X107497524Y-78687657D01*
X107497524Y-78782895D01*
X107449905Y-78925752D01*
X106878476Y-79497181D01*
X107497524Y-79497181D01*
X107973714Y-79497181D02*
X108164190Y-79497181D01*
X108259429Y-79449562D01*
X108307048Y-79401943D01*
X108402286Y-79259086D01*
X108449905Y-79068610D01*
X108449905Y-78687657D01*
X108402286Y-78592419D01*
X108354667Y-78544800D01*
X108259429Y-78497181D01*
X108068952Y-78497181D01*
X107973714Y-78544800D01*
X107926095Y-78592419D01*
X107878476Y-78687657D01*
X107878476Y-78925752D01*
X107926095Y-79020990D01*
X107973714Y-79068610D01*
X108068952Y-79116229D01*
X108259429Y-79116229D01*
X108354667Y-79068610D01*
X108402286Y-79020990D01*
X108449905Y-78925752D01*
X109897943Y-80087743D02*
X109850324Y-80135362D01*
X109707467Y-80182981D01*
X109612229Y-80182981D01*
X109469371Y-80135362D01*
X109374133Y-80040124D01*
X109326514Y-79944886D01*
X109278895Y-79754410D01*
X109278895Y-79611552D01*
X109326514Y-79421076D01*
X109374133Y-79325838D01*
X109469371Y-79230600D01*
X109612229Y-79182981D01*
X109707467Y-79182981D01*
X109850324Y-79230600D01*
X109897943Y-79278219D01*
X110231276Y-79182981D02*
X110850324Y-79182981D01*
X110516990Y-79563933D01*
X110659848Y-79563933D01*
X110755086Y-79611552D01*
X110802705Y-79659171D01*
X110850324Y-79754410D01*
X110850324Y-79992505D01*
X110802705Y-80087743D01*
X110755086Y-80135362D01*
X110659848Y-80182981D01*
X110374133Y-80182981D01*
X110278895Y-80135362D01*
X110231276Y-80087743D01*
X111469371Y-79182981D02*
X111564610Y-79182981D01*
X111659848Y-79230600D01*
X111707467Y-79278219D01*
X111755086Y-79373457D01*
X111802705Y-79563933D01*
X111802705Y-79802029D01*
X111755086Y-79992505D01*
X111707467Y-80087743D01*
X111659848Y-80135362D01*
X111564610Y-80182981D01*
X111469371Y-80182981D01*
X111374133Y-80135362D01*
X111326514Y-80087743D01*
X111278895Y-79992505D01*
X111231276Y-79802029D01*
X111231276Y-79563933D01*
X111278895Y-79373457D01*
X111326514Y-79278219D01*
X111374133Y-79230600D01*
X111469371Y-79182981D01*
X105462343Y-92794057D02*
X105509962Y-92841676D01*
X105557581Y-92984533D01*
X105557581Y-93079771D01*
X105509962Y-93222629D01*
X105414724Y-93317867D01*
X105319486Y-93365486D01*
X105129010Y-93413105D01*
X104986152Y-93413105D01*
X104795676Y-93365486D01*
X104700438Y-93317867D01*
X104605200Y-93222629D01*
X104557581Y-93079771D01*
X104557581Y-92984533D01*
X104605200Y-92841676D01*
X104652819Y-92794057D01*
X104557581Y-92460724D02*
X104557581Y-91841676D01*
X104938533Y-92175010D01*
X104938533Y-92032152D01*
X104986152Y-91936914D01*
X105033771Y-91889295D01*
X105129010Y-91841676D01*
X105367105Y-91841676D01*
X105462343Y-91889295D01*
X105509962Y-91936914D01*
X105557581Y-92032152D01*
X105557581Y-92317867D01*
X105509962Y-92413105D01*
X105462343Y-92460724D01*
X105557581Y-90889295D02*
X105557581Y-91460724D01*
X105557581Y-91175010D02*
X104557581Y-91175010D01*
X104700438Y-91270248D01*
X104795676Y-91365486D01*
X104843295Y-91460724D01*
X104792543Y-84939143D02*
X104744924Y-84986762D01*
X104602067Y-85034381D01*
X104506829Y-85034381D01*
X104363971Y-84986762D01*
X104268733Y-84891524D01*
X104221114Y-84796286D01*
X104173495Y-84605810D01*
X104173495Y-84462952D01*
X104221114Y-84272476D01*
X104268733Y-84177238D01*
X104363971Y-84082000D01*
X104506829Y-84034381D01*
X104602067Y-84034381D01*
X104744924Y-84082000D01*
X104792543Y-84129619D01*
X105125876Y-84034381D02*
X105744924Y-84034381D01*
X105411590Y-84415333D01*
X105554448Y-84415333D01*
X105649686Y-84462952D01*
X105697305Y-84510571D01*
X105744924Y-84605810D01*
X105744924Y-84843905D01*
X105697305Y-84939143D01*
X105649686Y-84986762D01*
X105554448Y-85034381D01*
X105268733Y-85034381D01*
X105173495Y-84986762D01*
X105125876Y-84939143D01*
X106125876Y-84129619D02*
X106173495Y-84082000D01*
X106268733Y-84034381D01*
X106506829Y-84034381D01*
X106602067Y-84082000D01*
X106649686Y-84129619D01*
X106697305Y-84224857D01*
X106697305Y-84320095D01*
X106649686Y-84462952D01*
X106078257Y-85034381D01*
X106697305Y-85034381D01*
X119082381Y-80856057D02*
X118606190Y-81189391D01*
X119082381Y-81427486D02*
X118082381Y-81427486D01*
X118082381Y-81046533D01*
X118130000Y-80951295D01*
X118177619Y-80903676D01*
X118272857Y-80856057D01*
X118415714Y-80856057D01*
X118510952Y-80903676D01*
X118558571Y-80951295D01*
X118606190Y-81046533D01*
X118606190Y-81427486D01*
X118177619Y-80475105D02*
X118130000Y-80427486D01*
X118082381Y-80332248D01*
X118082381Y-80094152D01*
X118130000Y-79998914D01*
X118177619Y-79951295D01*
X118272857Y-79903676D01*
X118368095Y-79903676D01*
X118510952Y-79951295D01*
X119082381Y-80522724D01*
X119082381Y-79903676D01*
X118082381Y-78998914D02*
X118082381Y-79475105D01*
X118558571Y-79522724D01*
X118510952Y-79475105D01*
X118463333Y-79379867D01*
X118463333Y-79141771D01*
X118510952Y-79046533D01*
X118558571Y-78998914D01*
X118653810Y-78951295D01*
X118891905Y-78951295D01*
X118987143Y-78998914D01*
X119034762Y-79046533D01*
X119082381Y-79141771D01*
X119082381Y-79379867D01*
X119034762Y-79475105D01*
X118987143Y-79522724D01*
X112313981Y-85605857D02*
X111837790Y-85939191D01*
X112313981Y-86177286D02*
X111313981Y-86177286D01*
X111313981Y-85796333D01*
X111361600Y-85701095D01*
X111409219Y-85653476D01*
X111504457Y-85605857D01*
X111647314Y-85605857D01*
X111742552Y-85653476D01*
X111790171Y-85701095D01*
X111837790Y-85796333D01*
X111837790Y-86177286D01*
X111409219Y-85224905D02*
X111361600Y-85177286D01*
X111313981Y-85082048D01*
X111313981Y-84843952D01*
X111361600Y-84748714D01*
X111409219Y-84701095D01*
X111504457Y-84653476D01*
X111599695Y-84653476D01*
X111742552Y-84701095D01*
X112313981Y-85272524D01*
X112313981Y-84653476D01*
X111313981Y-83796333D02*
X111313981Y-83986810D01*
X111361600Y-84082048D01*
X111409219Y-84129667D01*
X111552076Y-84224905D01*
X111742552Y-84272524D01*
X112123505Y-84272524D01*
X112218743Y-84224905D01*
X112266362Y-84177286D01*
X112313981Y-84082048D01*
X112313981Y-83891571D01*
X112266362Y-83796333D01*
X112218743Y-83748714D01*
X112123505Y-83701095D01*
X111885410Y-83701095D01*
X111790171Y-83748714D01*
X111742552Y-83796333D01*
X111694933Y-83891571D01*
X111694933Y-84082048D01*
X111742552Y-84177286D01*
X111790171Y-84224905D01*
X111885410Y-84272524D01*
X107208581Y-92768657D02*
X106732390Y-93101991D01*
X107208581Y-93340086D02*
X106208581Y-93340086D01*
X106208581Y-92959133D01*
X106256200Y-92863895D01*
X106303819Y-92816276D01*
X106399057Y-92768657D01*
X106541914Y-92768657D01*
X106637152Y-92816276D01*
X106684771Y-92863895D01*
X106732390Y-92959133D01*
X106732390Y-93340086D01*
X106303819Y-92387705D02*
X106256200Y-92340086D01*
X106208581Y-92244848D01*
X106208581Y-92006752D01*
X106256200Y-91911514D01*
X106303819Y-91863895D01*
X106399057Y-91816276D01*
X106494295Y-91816276D01*
X106637152Y-91863895D01*
X107208581Y-92435324D01*
X107208581Y-91816276D01*
X106208581Y-91482943D02*
X106208581Y-90816276D01*
X107208581Y-91244848D01*
X113290505Y-79259181D02*
X113290505Y-80068705D01*
X113338124Y-80163943D01*
X113385743Y-80211562D01*
X113480981Y-80259181D01*
X113671458Y-80259181D01*
X113766696Y-80211562D01*
X113814315Y-80163943D01*
X113861934Y-80068705D01*
X113861934Y-79259181D01*
X114290505Y-79354419D02*
X114338124Y-79306800D01*
X114433362Y-79259181D01*
X114671458Y-79259181D01*
X114766696Y-79306800D01*
X114814315Y-79354419D01*
X114861934Y-79449657D01*
X114861934Y-79544895D01*
X114814315Y-79687752D01*
X114242886Y-80259181D01*
X114861934Y-80259181D01*
X115242886Y-79354419D02*
X115290505Y-79306800D01*
X115385743Y-79259181D01*
X115623839Y-79259181D01*
X115719077Y-79306800D01*
X115766696Y-79354419D01*
X115814315Y-79449657D01*
X115814315Y-79544895D01*
X115766696Y-79687752D01*
X115195267Y-80259181D01*
X115814315Y-80259181D01*
X108540705Y-92390981D02*
X108540705Y-93200505D01*
X108588324Y-93295743D01*
X108635943Y-93343362D01*
X108731181Y-93390981D01*
X108921658Y-93390981D01*
X109016896Y-93343362D01*
X109064515Y-93295743D01*
X109112134Y-93200505D01*
X109112134Y-92390981D01*
X109540705Y-92486219D02*
X109588324Y-92438600D01*
X109683562Y-92390981D01*
X109921658Y-92390981D01*
X110016896Y-92438600D01*
X110064515Y-92486219D01*
X110112134Y-92581457D01*
X110112134Y-92676695D01*
X110064515Y-92819552D01*
X109493086Y-93390981D01*
X110112134Y-93390981D01*
X110445467Y-92390981D02*
X111064515Y-92390981D01*
X110731181Y-92771933D01*
X110874039Y-92771933D01*
X110969277Y-92819552D01*
X111016896Y-92867171D01*
X111064515Y-92962410D01*
X111064515Y-93200505D01*
X111016896Y-93295743D01*
X110969277Y-93343362D01*
X110874039Y-93390981D01*
X110588324Y-93390981D01*
X110493086Y-93343362D01*
X110445467Y-93295743D01*
X108556467Y-74483981D02*
X108556467Y-75198267D01*
X108508847Y-75341124D01*
X108413609Y-75436362D01*
X108270752Y-75483981D01*
X108175514Y-75483981D01*
X108937419Y-74483981D02*
X109556467Y-74483981D01*
X109223133Y-74864933D01*
X109365991Y-74864933D01*
X109461229Y-74912552D01*
X109508848Y-74960171D01*
X109556467Y-75055410D01*
X109556467Y-75293505D01*
X109508848Y-75388743D01*
X109461229Y-75436362D01*
X109365991Y-75483981D01*
X109080276Y-75483981D01*
X108985038Y-75436362D01*
X108937419Y-75388743D01*
X116576381Y-78677495D02*
X117385905Y-78677495D01*
X117481143Y-78629876D01*
X117528762Y-78582257D01*
X117576381Y-78487019D01*
X117576381Y-78296542D01*
X117528762Y-78201304D01*
X117481143Y-78153685D01*
X117385905Y-78106066D01*
X116576381Y-78106066D01*
X116671619Y-77677495D02*
X116624000Y-77629876D01*
X116576381Y-77534638D01*
X116576381Y-77296542D01*
X116624000Y-77201304D01*
X116671619Y-77153685D01*
X116766857Y-77106066D01*
X116862095Y-77106066D01*
X117004952Y-77153685D01*
X117576381Y-77725114D01*
X117576381Y-77106066D01*
X117576381Y-76153685D02*
X117576381Y-76725114D01*
X117576381Y-76439400D02*
X116576381Y-76439400D01*
X116719238Y-76534638D01*
X116814476Y-76629876D01*
X116862095Y-76725114D01*
X135694986Y-78904680D02*
X135661315Y-78803665D01*
X135560300Y-78702649D01*
X135425612Y-78635305D01*
X135290925Y-78635305D01*
X135189910Y-78668977D01*
X135021551Y-78769992D01*
X134920536Y-78871008D01*
X134819520Y-79039367D01*
X134785849Y-79140382D01*
X134785849Y-79275069D01*
X134853193Y-79409756D01*
X134920536Y-79477100D01*
X135055223Y-79544443D01*
X135122567Y-79544443D01*
X135358269Y-79308741D01*
X135223582Y-79174054D01*
X135358269Y-79914832D02*
X136065375Y-79207725D01*
X135762330Y-80318893D01*
X136469437Y-79611786D01*
X136099047Y-80655610D02*
X136806154Y-79948504D01*
X136974512Y-80116862D01*
X137041857Y-80251550D01*
X137041857Y-80386237D01*
X137008185Y-80487252D01*
X136907170Y-80655610D01*
X136806154Y-80756626D01*
X136637795Y-80857641D01*
X136536780Y-80891313D01*
X136402093Y-80891313D01*
X136267406Y-80823969D01*
X136099047Y-80655610D01*
X136570452Y-81261702D02*
X137109200Y-81800450D01*
X137950994Y-81093343D02*
X138355055Y-81497405D01*
X137445917Y-82002481D02*
X138153024Y-81295374D01*
X137883650Y-82440214D02*
X138590757Y-81733107D01*
X138860131Y-82002481D01*
X138893803Y-82103496D01*
X138893803Y-82170840D01*
X138860131Y-82271855D01*
X138759116Y-82372870D01*
X138658101Y-82406542D01*
X138590758Y-82406542D01*
X138489743Y-82372870D01*
X138220368Y-82103496D01*
X139196849Y-82473885D02*
X139264192Y-82473885D01*
X139365207Y-82507557D01*
X139533567Y-82675916D01*
X139567238Y-82776931D01*
X139567238Y-82844275D01*
X139533567Y-82945290D01*
X139466223Y-83012633D01*
X139331536Y-83079977D01*
X138523414Y-83079977D01*
X138961147Y-83517710D01*
M02*
