G04 #@! TF.FileFunction,Soldermask,Top*
%FSLAX46Y46*%
G04 Gerber Fmt 4.6, Leading zero omitted, Abs format (unit mm)*
G04 Created by KiCad (PCBNEW 4.0.7) date 11/10/17 16:01:10*
%MOMM*%
%LPD*%
G01*
G04 APERTURE LIST*
%ADD10C,0.100000*%
%ADD11R,1.250000X1.250000*%
%ADD12R,2.940000X2.940000*%
%ADD13R,0.800000X1.750000*%
%ADD14R,1.924000X2.051000*%
%ADD15R,1.162000X2.559000*%
%ADD16R,1.670000X1.670000*%
%ADD17R,1.035000X3.956000*%
%ADD18R,3.956000X1.035000*%
%ADD19R,1.390600X1.085800*%
%ADD20R,1.300000X0.900000*%
%ADD21R,0.900000X1.300000*%
%ADD22R,1.150000X1.200000*%
%ADD23R,1.200000X1.150000*%
%ADD24R,2.914600X2.914600*%
%ADD25R,1.400000X1.650000*%
%ADD26R,1.650000X1.400000*%
%ADD27R,1.400000X1.400000*%
%ADD28O,1.400000X1.400000*%
%ADD29R,2.600000X1.450000*%
%ADD30R,1.450000X1.400000*%
%ADD31R,3.700000X2.000000*%
%ADD32R,1.600000X2.000000*%
%ADD33R,1.924000X2.940000*%
%ADD34R,2.940000X1.924000*%
%ADD35R,1.924000X1.924000*%
%ADD36R,1.085800X1.390600*%
G04 APERTURE END LIST*
D10*
D11*
X131241800Y-77368400D03*
X129971800Y-77368400D03*
X128701800Y-77368400D03*
X127431800Y-77368400D03*
X131241800Y-76098400D03*
X129971800Y-76098400D03*
X128701800Y-76098400D03*
X127431800Y-76098400D03*
D12*
X109196500Y-116471700D03*
X93702500Y-133845300D03*
D13*
X89575000Y-66941700D03*
X88925000Y-66941700D03*
X88275000Y-66941700D03*
X87625000Y-66941700D03*
X89575000Y-71241700D03*
X88925000Y-71241700D03*
X88275000Y-71241700D03*
X87625000Y-71241700D03*
D10*
G36*
X89749600Y-72564600D02*
X88079600Y-72564600D01*
X88587600Y-71529600D01*
X89241600Y-71529600D01*
X89749600Y-72564600D01*
X89749600Y-72564600D01*
G37*
D12*
X88813000Y-73571100D03*
X132983600Y-79629000D03*
D14*
X129961000Y-73609200D03*
X132501000Y-73609200D03*
X127421000Y-79578200D03*
X129961000Y-79578200D03*
D12*
X126938400Y-73583800D03*
D11*
X142265400Y-99187000D03*
X140995400Y-99187000D03*
X139725400Y-99187000D03*
X138455400Y-99187000D03*
X142265400Y-97917000D03*
X140995400Y-97917000D03*
X139725400Y-97917000D03*
D15*
X139714600Y-95999300D03*
D12*
X136285600Y-95821500D03*
D15*
X138444600Y-95999300D03*
X140984600Y-95999300D03*
X142254600Y-95999300D03*
X137174600Y-101333300D03*
X138444600Y-101333300D03*
X139714600Y-101333300D03*
X140984600Y-101333300D03*
D12*
X143143600Y-101511100D03*
X123992000Y-60121800D03*
X120791600Y-60121800D03*
X105424600Y-76784200D03*
X105424600Y-73583800D03*
D16*
X100243000Y-77266800D03*
X101513000Y-77266800D03*
X98973000Y-77266800D03*
X98973000Y-75996800D03*
X100243000Y-75996800D03*
X101513000Y-75996800D03*
X101538400Y-69900800D03*
X100268400Y-69900800D03*
X98998400Y-69900800D03*
X98998400Y-71170800D03*
X101538400Y-71170800D03*
D12*
X102351200Y-73583800D03*
X98185600Y-73583800D03*
D17*
X100268400Y-73583800D03*
D16*
X100268400Y-71170800D03*
X154687900Y-97828100D03*
X153417900Y-97828100D03*
X155957900Y-97828100D03*
X155957900Y-99098100D03*
X154687900Y-99098100D03*
X153417900Y-99098100D03*
X153392500Y-105194100D03*
X154662500Y-105194100D03*
X155932500Y-105194100D03*
X155932500Y-103924100D03*
X153392500Y-103924100D03*
D12*
X152579700Y-101511100D03*
X156745300Y-101511100D03*
D17*
X154662500Y-101511100D03*
D16*
X154662500Y-103924100D03*
X151957400Y-83235800D03*
X153227400Y-83235800D03*
X150687400Y-83235800D03*
X150687400Y-81965800D03*
X151957400Y-81965800D03*
X153227400Y-81965800D03*
X153252800Y-75869800D03*
X151982800Y-75869800D03*
X150712800Y-75869800D03*
X150712800Y-77139800D03*
X153252800Y-77139800D03*
D12*
X154065600Y-79552800D03*
X149900000Y-79552800D03*
D17*
X151982800Y-79552800D03*
D16*
X151982800Y-77139800D03*
X169899960Y-108041440D03*
X169899960Y-109311440D03*
X169899960Y-106771440D03*
X171169960Y-106771440D03*
X171169960Y-108041440D03*
X171169960Y-109311440D03*
X177265960Y-109336840D03*
X177265960Y-108066840D03*
X177265960Y-106796840D03*
X175995960Y-106796840D03*
X175995960Y-109336840D03*
D12*
X173582960Y-110149640D03*
X173582960Y-105984040D03*
D18*
X173582960Y-108066840D03*
D16*
X175995960Y-108066840D03*
X112879500Y-111252000D03*
X112879500Y-109982000D03*
X112879500Y-112522000D03*
X111609500Y-112522000D03*
X111609500Y-111252000D03*
X111609500Y-109982000D03*
X105513500Y-109956600D03*
X105513500Y-111226600D03*
X105513500Y-112496600D03*
X106783500Y-112496600D03*
X106783500Y-109956600D03*
D12*
X109196500Y-109143800D03*
X109196500Y-113309400D03*
D18*
X109196500Y-111226600D03*
D16*
X106783500Y-111226600D03*
D19*
X124601600Y-89700100D03*
X124601600Y-91605100D03*
X122010801Y-89700100D03*
X122010801Y-90652600D03*
X122010801Y-91605100D03*
D12*
X159983800Y-79552800D03*
X163184200Y-79552800D03*
X165457500Y-101523800D03*
X162257100Y-101523800D03*
X149468200Y-101511100D03*
X146267800Y-101511100D03*
X109196500Y-100050600D03*
X109196500Y-103251000D03*
X173582960Y-99301300D03*
X173582960Y-102501700D03*
X173572800Y-116138960D03*
X173572800Y-119339360D03*
X114644800Y-73583800D03*
X117845200Y-73583800D03*
X120791600Y-67411600D03*
X120791600Y-70612000D03*
X120791600Y-73583800D03*
X123992000Y-73583800D03*
X157024700Y-82753200D03*
X157024700Y-79552800D03*
X105996100Y-106197400D03*
X109196500Y-106197400D03*
D20*
X119801000Y-92645800D03*
X119801000Y-94145800D03*
D21*
X127560000Y-91592400D03*
X129060000Y-91592400D03*
X124585943Y-94165200D03*
X123085943Y-94165200D03*
D22*
X91276800Y-68428300D03*
X91276800Y-66928300D03*
D23*
X84430800Y-71259700D03*
X85930800Y-71259700D03*
D22*
X86146000Y-68122100D03*
X86146000Y-69622100D03*
D12*
X163593140Y-134035800D03*
X173575340Y-123063000D03*
D24*
X163616000Y-136956800D03*
X93715200Y-136779000D03*
D22*
X116916600Y-94176276D03*
X116916600Y-92676276D03*
D23*
X133322124Y-91649800D03*
X131822124Y-91649800D03*
X123116124Y-87615800D03*
X124616124Y-87615800D03*
D21*
X118283743Y-91629800D03*
X119783743Y-91629800D03*
D25*
X97340540Y-93769180D03*
X99340540Y-93769180D03*
D12*
X91810200Y-73583800D03*
X95010600Y-73583800D03*
D26*
X92038800Y-93124780D03*
X92038800Y-95124780D03*
D12*
X108320200Y-73583800D03*
X111520600Y-73583800D03*
X143499200Y-79552800D03*
X146699600Y-79552800D03*
D27*
X84926800Y-83540600D03*
D28*
X86196800Y-83540600D03*
D27*
X84926800Y-92938600D03*
D28*
X86196800Y-92938600D03*
D27*
X84926800Y-86715600D03*
D28*
X86196800Y-86715600D03*
D27*
X84926800Y-89890600D03*
D28*
X86196800Y-89890600D03*
D20*
X89798520Y-94130560D03*
X89798520Y-92630560D03*
D29*
X90933900Y-132192100D03*
D30*
X92458900Y-133642100D03*
D29*
X90933900Y-135092100D03*
X160824540Y-132408000D03*
D30*
X162349540Y-133858000D03*
D29*
X160824540Y-135308000D03*
D31*
X92038800Y-84252600D03*
D32*
X89788800Y-90652600D03*
X92038800Y-90652600D03*
X94388800Y-90652600D03*
D33*
X146902800Y-94696280D03*
D12*
X150103200Y-94696280D03*
D33*
X108625000Y-79679800D03*
D12*
X105424600Y-79679800D03*
D33*
X160225100Y-85572600D03*
D12*
X157024700Y-85572600D03*
D34*
X101538400Y-109397800D03*
D12*
X101538400Y-106197400D03*
D33*
X159450400Y-113157000D03*
D12*
X162650800Y-113157000D03*
D29*
X118033800Y-62685000D03*
D30*
X119558800Y-64135000D03*
D29*
X118033800Y-65585000D03*
D27*
X110880520Y-89458800D03*
D28*
X112150520Y-89458800D03*
D35*
X173585500Y-97002600D03*
X169750100Y-96901000D03*
X171629700Y-83286600D03*
D34*
X165724200Y-116357400D03*
D12*
X165724200Y-113157000D03*
D33*
X146867240Y-91135200D03*
D12*
X150067640Y-91135200D03*
D34*
X105434760Y-85877400D03*
D12*
X105434760Y-82677000D03*
X150108280Y-101513640D03*
X150108280Y-98313240D03*
D34*
X157047560Y-92008960D03*
D12*
X157047560Y-88808560D03*
D33*
X94688020Y-106197400D03*
D12*
X97888420Y-106197400D03*
X173572800Y-113151920D03*
X170372400Y-113151920D03*
D27*
X84942040Y-80396080D03*
D28*
X86212040Y-80396080D03*
D25*
X91525600Y-79070200D03*
X89525600Y-79070200D03*
X98123500Y-80048100D03*
X100123500Y-80048100D03*
D36*
X93726000Y-79108300D03*
X95631000Y-79108300D03*
X93726000Y-81699099D03*
X94678500Y-81699099D03*
X95631000Y-81699099D03*
D21*
X142634400Y-92506800D03*
X141134400Y-92506800D03*
D11*
X138455400Y-97917000D03*
D21*
X89027700Y-62357000D03*
X87527700Y-62357000D03*
D20*
X91224100Y-62369000D03*
X91224100Y-63869000D03*
D12*
X133315600Y-164235401D03*
X130115200Y-164235401D03*
X133315600Y-164235401D03*
X130115200Y-164235401D03*
M02*
