G04 #@! TF.FileFunction,Copper,L1,Top,Signal*
%FSLAX46Y46*%
G04 Gerber Fmt 4.6, Leading zero omitted, Abs format (unit mm)*
G04 Created by KiCad (PCBNEW 4.0.6) date 12/03/17 11:24:10*
%MOMM*%
%LPD*%
G01*
G04 APERTURE LIST*
%ADD10C,0.100000*%
%ADD11C,0.010000*%
%ADD12C,1.500000*%
%ADD13R,0.850000X0.850000*%
%ADD14R,2.000000X2.500000*%
%ADD15R,3.300000X1.600000*%
%ADD16R,1.200000X1.600000*%
%ADD17C,4.064000*%
%ADD18R,0.900000X0.500000*%
%ADD19R,1.350000X0.400000*%
%ADD20R,2.540000X2.540000*%
%ADD21R,1.524000X1.651000*%
%ADD22R,0.762000X2.159000*%
%ADD23R,1.270000X1.270000*%
%ADD24R,0.635000X3.556000*%
%ADD25R,3.556000X0.635000*%
%ADD26R,0.990600X0.685800*%
%ADD27R,0.500000X0.900000*%
%ADD28R,0.800000X0.750000*%
%ADD29R,0.750000X0.800000*%
%ADD30R,2.514600X2.514600*%
%ADD31R,1.000000X1.250000*%
%ADD32R,2.540000X1.524000*%
%ADD33R,1.524000X1.524000*%
%ADD34R,1.524000X2.540000*%
%ADD35R,0.685800X0.990600*%
%ADD36C,2.000000*%
%ADD37R,2.200000X2.800000*%
%ADD38R,2.800000X2.800000*%
%ADD39R,1.700000X1.700000*%
%ADD40O,1.700000X1.700000*%
%ADD41R,0.609600X0.889000*%
%ADD42R,0.889000X0.609600*%
%ADD43R,2.500000X2.000000*%
%ADD44R,2.200000X1.050000*%
%ADD45R,1.050000X1.000000*%
%ADD46R,1.050000X2.200000*%
%ADD47R,1.000000X1.050000*%
%ADD48R,1.100000X0.450000*%
%ADD49C,0.600000*%
%ADD50C,0.381000*%
%ADD51C,2.540000*%
%ADD52C,0.508000*%
%ADD53C,0.762000*%
%ADD54C,0.254000*%
%ADD55C,0.250000*%
%ADD56C,0.025400*%
G04 APERTURE END LIST*
D10*
D11*
G36*
X160094507Y-146825547D02*
X160094507Y-134633547D01*
X163650507Y-134633547D01*
X163650507Y-139459547D01*
X164158507Y-139459547D01*
X164158507Y-133363547D01*
X166698507Y-133363547D01*
X166698507Y-139459547D01*
X167206507Y-139459547D01*
X167206507Y-134633547D01*
X170762507Y-134633547D01*
X170762507Y-146825547D01*
X160094507Y-146825547D01*
X160094507Y-146825547D01*
G37*
X160094507Y-146825547D02*
X160094507Y-134633547D01*
X163650507Y-134633547D01*
X163650507Y-139459547D01*
X164158507Y-139459547D01*
X164158507Y-133363547D01*
X166698507Y-133363547D01*
X166698507Y-139459547D01*
X167206507Y-139459547D01*
X167206507Y-134633547D01*
X170762507Y-134633547D01*
X170762507Y-146825547D01*
X160094507Y-146825547D01*
G36*
X85454067Y-145850187D02*
X85454067Y-133658187D01*
X89010067Y-133658187D01*
X89010067Y-138484187D01*
X89518067Y-138484187D01*
X89518067Y-132388187D01*
X92058067Y-132388187D01*
X92058067Y-138484187D01*
X92566067Y-138484187D01*
X92566067Y-133658187D01*
X96122067Y-133658187D01*
X96122067Y-145850187D01*
X85454067Y-145850187D01*
X85454067Y-145850187D01*
G37*
X85454067Y-145850187D02*
X85454067Y-133658187D01*
X89010067Y-133658187D01*
X89010067Y-138484187D01*
X89518067Y-138484187D01*
X89518067Y-132388187D01*
X92058067Y-132388187D01*
X92058067Y-138484187D01*
X92566067Y-138484187D01*
X92566067Y-133658187D01*
X96122067Y-133658187D01*
X96122067Y-145850187D01*
X85454067Y-145850187D01*
G36*
X170507947Y-79939969D02*
X170506068Y-80482287D01*
X170501006Y-80894638D01*
X170491184Y-81197273D01*
X170475021Y-81410443D01*
X170450939Y-81554400D01*
X170417359Y-81649396D01*
X170372701Y-81715680D01*
X170315389Y-81773506D01*
X170310950Y-81777677D01*
X170186418Y-81872361D01*
X170031749Y-81928508D01*
X169801393Y-81955565D01*
X169449800Y-81962977D01*
X169417252Y-81963005D01*
X168720826Y-81963005D01*
X168675672Y-87034481D01*
X167418457Y-87058069D01*
X166161242Y-87081656D01*
X166161242Y-80173072D01*
X168718289Y-80173072D01*
X168718289Y-78297904D01*
X162325672Y-78297904D01*
X162325672Y-80173072D01*
X164882719Y-80173072D01*
X164882719Y-87077099D01*
X162325672Y-87077099D01*
X162325672Y-81963005D01*
X161616033Y-81963005D01*
X161256608Y-81957914D01*
X161023306Y-81936145D01*
X160871919Y-81887954D01*
X160758242Y-81803597D01*
X160721066Y-81765733D01*
X160666746Y-81702806D01*
X160624229Y-81629814D01*
X160592071Y-81526591D01*
X160568827Y-81372969D01*
X160553052Y-81148782D01*
X160543301Y-80833864D01*
X160538128Y-80408047D01*
X160536089Y-79851165D01*
X160535739Y-79179279D01*
X160536445Y-78474835D01*
X160539371Y-77921242D01*
X160545723Y-77498885D01*
X160556710Y-77188149D01*
X160573542Y-76969416D01*
X160597425Y-76823073D01*
X160629569Y-76729503D01*
X160671182Y-76669091D01*
X160691611Y-76649034D01*
X160766772Y-76599678D01*
X160883473Y-76563109D01*
X161065359Y-76537506D01*
X161336075Y-76521048D01*
X161719265Y-76511917D01*
X162238574Y-76508291D01*
X162524162Y-76507971D01*
X164200840Y-76507971D01*
X164200840Y-71393877D01*
X166757887Y-71393877D01*
X166757887Y-76507971D01*
X168447727Y-76507971D01*
X169024820Y-76508609D01*
X169456039Y-76512249D01*
X169765983Y-76521478D01*
X169979246Y-76538884D01*
X170120426Y-76567055D01*
X170214120Y-76608577D01*
X170284922Y-76666039D01*
X170322895Y-76705243D01*
X170377672Y-76768772D01*
X170420434Y-76842494D01*
X170452669Y-76946796D01*
X170475862Y-77102066D01*
X170491499Y-77328691D01*
X170501067Y-77647059D01*
X170506053Y-78077558D01*
X170507941Y-78640576D01*
X170508222Y-79247432D01*
X170507947Y-79939969D01*
X170507947Y-79939969D01*
G37*
X170507947Y-79939969D02*
X170506068Y-80482287D01*
X170501006Y-80894638D01*
X170491184Y-81197273D01*
X170475021Y-81410443D01*
X170450939Y-81554400D01*
X170417359Y-81649396D01*
X170372701Y-81715680D01*
X170315389Y-81773506D01*
X170310950Y-81777677D01*
X170186418Y-81872361D01*
X170031749Y-81928508D01*
X169801393Y-81955565D01*
X169449800Y-81962977D01*
X169417252Y-81963005D01*
X168720826Y-81963005D01*
X168675672Y-87034481D01*
X167418457Y-87058069D01*
X166161242Y-87081656D01*
X166161242Y-80173072D01*
X168718289Y-80173072D01*
X168718289Y-78297904D01*
X162325672Y-78297904D01*
X162325672Y-80173072D01*
X164882719Y-80173072D01*
X164882719Y-87077099D01*
X162325672Y-87077099D01*
X162325672Y-81963005D01*
X161616033Y-81963005D01*
X161256608Y-81957914D01*
X161023306Y-81936145D01*
X160871919Y-81887954D01*
X160758242Y-81803597D01*
X160721066Y-81765733D01*
X160666746Y-81702806D01*
X160624229Y-81629814D01*
X160592071Y-81526591D01*
X160568827Y-81372969D01*
X160553052Y-81148782D01*
X160543301Y-80833864D01*
X160538128Y-80408047D01*
X160536089Y-79851165D01*
X160535739Y-79179279D01*
X160536445Y-78474835D01*
X160539371Y-77921242D01*
X160545723Y-77498885D01*
X160556710Y-77188149D01*
X160573542Y-76969416D01*
X160597425Y-76823073D01*
X160629569Y-76729503D01*
X160671182Y-76669091D01*
X160691611Y-76649034D01*
X160766772Y-76599678D01*
X160883473Y-76563109D01*
X161065359Y-76537506D01*
X161336075Y-76521048D01*
X161719265Y-76511917D01*
X162238574Y-76508291D01*
X162524162Y-76507971D01*
X164200840Y-76507971D01*
X164200840Y-71393877D01*
X166757887Y-71393877D01*
X166757887Y-76507971D01*
X168447727Y-76507971D01*
X169024820Y-76508609D01*
X169456039Y-76512249D01*
X169765983Y-76521478D01*
X169979246Y-76538884D01*
X170120426Y-76567055D01*
X170214120Y-76608577D01*
X170284922Y-76666039D01*
X170322895Y-76705243D01*
X170377672Y-76768772D01*
X170420434Y-76842494D01*
X170452669Y-76946796D01*
X170475862Y-77102066D01*
X170491499Y-77328691D01*
X170501067Y-77647059D01*
X170506053Y-78077558D01*
X170507941Y-78640576D01*
X170508222Y-79247432D01*
X170507947Y-79939969D01*
G36*
X130633442Y-136427868D02*
X128837391Y-134631817D01*
X131890678Y-131578530D01*
X128298576Y-127986427D01*
X130094627Y-126190376D01*
X133686729Y-129782478D01*
X138236726Y-125232482D01*
X140032777Y-127028533D01*
X130633442Y-136427868D01*
X130633442Y-136427868D01*
G37*
X130633442Y-136427868D02*
X128837391Y-134631817D01*
X131890678Y-131578530D01*
X128298576Y-127986427D01*
X130094627Y-126190376D01*
X133686729Y-129782478D01*
X138236726Y-125232482D01*
X140032777Y-127028533D01*
X130633442Y-136427868D01*
G36*
X138057121Y-134152870D02*
X136261070Y-132356819D01*
X145420931Y-123196958D01*
X147216982Y-124993009D01*
X138057121Y-134152870D01*
X138057121Y-134152870D01*
G37*
X138057121Y-134152870D02*
X136261070Y-132356819D01*
X145420931Y-123196958D01*
X147216982Y-124993009D01*
X138057121Y-134152870D01*
G36*
X151527505Y-125711429D02*
X155119608Y-129303532D01*
X153323556Y-131099583D01*
X149731454Y-127507480D01*
X145121589Y-132117345D01*
X144251619Y-131247375D01*
X143885502Y-130875081D01*
X143633454Y-130603129D01*
X143484118Y-130418095D01*
X143426136Y-130306558D01*
X143427921Y-130274006D01*
X143494003Y-130199266D01*
X143671110Y-130014683D01*
X143949967Y-129729584D01*
X144321297Y-129353297D01*
X144775826Y-128895148D01*
X145304278Y-128364464D01*
X145897378Y-127770574D01*
X146545849Y-127122802D01*
X147240417Y-126430479D01*
X147971805Y-125702929D01*
X148129467Y-125546283D01*
X152784741Y-120921959D01*
X153684367Y-121788450D01*
X154583993Y-122654941D01*
X151527505Y-125711429D01*
X151527505Y-125711429D01*
G37*
X151527505Y-125711429D02*
X155119608Y-129303532D01*
X153323556Y-131099583D01*
X149731454Y-127507480D01*
X145121589Y-132117345D01*
X144251619Y-131247375D01*
X143885502Y-130875081D01*
X143633454Y-130603129D01*
X143484118Y-130418095D01*
X143426136Y-130306558D01*
X143427921Y-130274006D01*
X143494003Y-130199266D01*
X143671110Y-130014683D01*
X143949967Y-129729584D01*
X144321297Y-129353297D01*
X144775826Y-128895148D01*
X145304278Y-128364464D01*
X145897378Y-127770574D01*
X146545849Y-127122802D01*
X147240417Y-126430479D01*
X147971805Y-125702929D01*
X148129467Y-125546283D01*
X152784741Y-120921959D01*
X153684367Y-121788450D01*
X154583993Y-122654941D01*
X151527505Y-125711429D01*
G36*
X108507351Y-117417758D02*
X112099454Y-113825655D01*
X113895505Y-115621707D01*
X110303403Y-119213809D01*
X113356690Y-122267096D01*
X111560638Y-124063147D01*
X102161303Y-114663812D01*
X103957355Y-112867761D01*
X108507351Y-117417758D01*
X108507351Y-117417758D01*
G37*
X108507351Y-117417758D02*
X112099454Y-113825655D01*
X113895505Y-115621707D01*
X110303403Y-119213809D01*
X113356690Y-122267096D01*
X111560638Y-124063147D01*
X102161303Y-114663812D01*
X103957355Y-112867761D01*
X108507351Y-117417758D01*
G36*
X105933011Y-119992098D02*
X104136960Y-121788149D01*
X94977099Y-112628288D01*
X96773150Y-110832237D01*
X105933011Y-119992098D01*
X105933011Y-119992098D01*
G37*
X105933011Y-119992098D02*
X104136960Y-121788149D01*
X94977099Y-112628288D01*
X96773150Y-110832237D01*
X105933011Y-119992098D01*
G36*
X88509713Y-109423730D02*
X89409340Y-108557238D01*
X98808675Y-117956573D01*
X97942183Y-118856200D01*
X97075693Y-119755825D01*
X92462627Y-115142760D01*
X88870524Y-118734862D01*
X87074473Y-116938811D01*
X90666576Y-113346709D01*
X87610087Y-110290220D01*
X88509713Y-109423730D01*
X88509713Y-109423730D01*
G37*
X88509713Y-109423730D02*
X89409340Y-108557238D01*
X98808675Y-117956573D01*
X97942183Y-118856200D01*
X97075693Y-119755825D01*
X92462627Y-115142760D01*
X88870524Y-118734862D01*
X87074473Y-116938811D01*
X90666576Y-113346709D01*
X87610087Y-110290220D01*
X88509713Y-109423730D01*
D12*
X108839000Y-83261200D03*
X162255200Y-72415400D03*
D13*
X127238760Y-65095120D03*
X125968760Y-65095120D03*
X124698760Y-65095120D03*
X123428760Y-65095120D03*
X122158760Y-65095120D03*
X127238760Y-63825120D03*
X125968760Y-63825120D03*
X124698760Y-63825120D03*
X123428760Y-63825120D03*
D14*
X97786440Y-73987660D03*
X101786440Y-73987660D03*
D15*
X94274640Y-73988460D03*
D16*
X92024640Y-80388460D03*
X94274640Y-80388460D03*
X96624640Y-80388460D03*
D17*
X84805520Y-102290880D03*
X174797720Y-122834400D03*
D18*
X86070440Y-61210760D03*
X86070440Y-62710760D03*
D19*
X89009340Y-60562460D03*
X89009340Y-61212460D03*
X89009340Y-61862460D03*
X89009340Y-62512460D03*
X93309340Y-60562460D03*
X93309340Y-61212460D03*
X93309340Y-61862460D03*
X93309340Y-62512460D03*
D10*
G36*
X94432240Y-60587860D02*
X94432240Y-61857860D01*
X93797240Y-61349860D01*
X93797240Y-61095860D01*
X94432240Y-60587860D01*
X94432240Y-60587860D01*
G37*
D20*
X95638740Y-61324460D03*
X127803940Y-67414260D03*
D21*
X124781340Y-61394460D03*
X127321340Y-61394460D03*
X122241340Y-67363460D03*
X124781340Y-67363460D03*
D20*
X121758740Y-61369060D03*
D22*
X131766340Y-86476960D03*
D20*
X128337340Y-86299160D03*
D22*
X130496340Y-86476960D03*
X133036340Y-86476960D03*
X134306340Y-86476960D03*
X129226340Y-91810960D03*
X130496340Y-91810960D03*
X131766340Y-91810960D03*
X133036340Y-91810960D03*
D20*
X135195340Y-91988760D03*
X112170240Y-64518660D03*
X112170240Y-61318260D03*
D23*
X106847640Y-65008760D03*
X108117640Y-65008760D03*
X105577640Y-65008760D03*
X105577640Y-63738760D03*
X106847640Y-63738760D03*
X108117640Y-63738760D03*
X108143040Y-57642760D03*
X106873040Y-57642760D03*
X105603040Y-57642760D03*
X105603040Y-58912760D03*
X108143040Y-58912760D03*
D20*
X108955840Y-61325760D03*
X104790240Y-61325760D03*
D24*
X106873040Y-61325760D03*
D23*
X106873040Y-58912760D03*
X146739640Y-88305760D03*
X145469640Y-88305760D03*
X148009640Y-88305760D03*
X148009640Y-89575760D03*
X146739640Y-89575760D03*
X145469640Y-89575760D03*
X145444240Y-95671760D03*
X146714240Y-95671760D03*
X147984240Y-95671760D03*
X147984240Y-94401760D03*
X145444240Y-94401760D03*
D20*
X144631440Y-91988760D03*
X148797040Y-91988760D03*
D24*
X146714240Y-91988760D03*
D23*
X146714240Y-94401760D03*
X147416520Y-71099680D03*
X148686520Y-71099680D03*
X146146520Y-71099680D03*
X146146520Y-69829680D03*
X147416520Y-69829680D03*
X148686520Y-69829680D03*
X148711920Y-63733680D03*
X147441920Y-63733680D03*
X146171920Y-63733680D03*
X146171920Y-65003680D03*
X148711920Y-65003680D03*
D20*
X149524720Y-67416680D03*
X145359120Y-67416680D03*
D24*
X147441920Y-67416680D03*
D23*
X147441920Y-65003680D03*
X151455120Y-95539560D03*
X150185120Y-95539560D03*
X152725120Y-95539560D03*
X152725120Y-96809560D03*
X151455120Y-96809560D03*
X150185120Y-96809560D03*
X150159720Y-102905560D03*
X151429720Y-102905560D03*
X152699720Y-102905560D03*
X152699720Y-101635560D03*
X150159720Y-101635560D03*
D20*
X149346920Y-99222560D03*
X153512520Y-99222560D03*
D24*
X151429720Y-99222560D03*
D23*
X151429720Y-101635560D03*
X118310028Y-104134794D03*
X118310028Y-102864794D03*
X118310028Y-105404794D03*
X117040028Y-105404794D03*
X117040028Y-104134794D03*
X117040028Y-102864794D03*
X110944028Y-102839394D03*
X110944028Y-104109394D03*
X110944028Y-105379394D03*
X112214028Y-105379394D03*
X112214028Y-102839394D03*
D20*
X114627028Y-102026594D03*
X114627028Y-106192194D03*
D25*
X114627028Y-104109394D03*
D23*
X112214028Y-104109394D03*
D26*
X129382520Y-78557120D03*
X129382520Y-80462120D03*
X126791721Y-78557120D03*
X126791721Y-79509620D03*
X126791721Y-80462120D03*
D20*
X155468320Y-67406520D03*
X158668720Y-67406520D03*
X157509240Y-92001460D03*
X154308840Y-92001460D03*
X141519940Y-91988760D03*
X138319540Y-91988760D03*
X114627028Y-92933394D03*
X114627028Y-96133794D03*
X167400000Y-89715460D03*
X167400000Y-92915860D03*
X152496520Y-70617080D03*
X152496520Y-67416680D03*
X111426628Y-99080194D03*
X114627028Y-99080194D03*
D27*
X127000000Y-82296000D03*
X128500000Y-82296000D03*
X131646800Y-80462120D03*
X133146800Y-80462120D03*
D18*
X131638040Y-76962000D03*
X131638040Y-78462000D03*
D28*
X90498360Y-59060080D03*
X88998360Y-59060080D03*
D29*
X93327340Y-65706660D03*
X93327340Y-64206660D03*
D28*
X90189740Y-63991460D03*
X91689740Y-63991460D03*
D30*
X165420040Y-134625080D03*
X90779600Y-133649720D03*
D28*
X123317000Y-82296000D03*
X124817000Y-82296000D03*
X131765040Y-82224880D03*
X133265040Y-82224880D03*
X127822960Y-77119480D03*
X129322960Y-77119480D03*
D18*
X124714000Y-79018000D03*
X124714000Y-80518000D03*
D31*
X95046040Y-83068160D03*
X93046040Y-83068160D03*
D20*
X98618040Y-61325760D03*
X101818440Y-61325760D03*
X115065840Y-61318260D03*
X118266240Y-61318260D03*
X138838940Y-67421760D03*
X142039340Y-67421760D03*
D32*
X146395440Y-113141760D03*
D20*
X146395440Y-109941360D03*
D33*
X167426640Y-86065360D03*
X163591240Y-85963760D03*
X165470840Y-72349360D03*
D32*
X142204440Y-78775560D03*
D20*
X142204440Y-81975960D03*
D32*
X112166400Y-73685400D03*
D20*
X112166400Y-70485000D03*
X142160020Y-91991300D03*
X142160020Y-88790900D03*
D32*
X152501600Y-81239360D03*
D20*
X152501600Y-78038960D03*
D34*
X100366168Y-99059754D03*
D20*
X103566568Y-99059754D03*
X146400520Y-99222560D03*
X146400520Y-102422960D03*
D31*
X97530920Y-68539360D03*
X99530920Y-68539360D03*
D35*
X93753940Y-68539360D03*
X95658940Y-68539360D03*
X93753940Y-71130159D03*
X94706440Y-71130159D03*
X95658940Y-71130159D03*
D27*
X129056000Y-83820000D03*
X130556000Y-83820000D03*
D18*
X84475320Y-61205680D03*
X84475320Y-62705680D03*
D17*
X174828200Y-56934100D03*
D36*
X93658840Y-91399360D03*
X86658840Y-91399360D03*
D37*
X82758840Y-95099360D03*
X85558840Y-95099360D03*
X84658840Y-87699360D03*
X87458840Y-87699360D03*
D38*
X94958840Y-95099360D03*
X99058840Y-90649360D03*
D39*
X83962240Y-69390260D03*
D40*
X86502240Y-69390260D03*
X83962240Y-71930260D03*
X86502240Y-71930260D03*
X83962240Y-74470260D03*
X86502240Y-74470260D03*
X83962240Y-77010260D03*
X86502240Y-77010260D03*
X83962240Y-79550260D03*
X86502240Y-79550260D03*
X83962240Y-82090260D03*
X86502240Y-82090260D03*
D41*
X144653000Y-84328000D03*
D20*
X142189200Y-84328000D03*
D41*
X114620040Y-68828920D03*
D20*
X112156240Y-68828920D03*
D41*
X154970480Y-75041760D03*
D20*
X152506680Y-75041760D03*
D42*
X106968928Y-101543994D03*
D20*
X106968928Y-99080194D03*
D41*
X143931640Y-106776520D03*
D20*
X146395440Y-106776520D03*
D43*
X90733880Y-68572880D03*
X90733880Y-72572880D03*
D42*
X134613859Y-110869715D03*
D20*
X134613859Y-113333515D03*
D34*
X140984179Y-113308115D03*
D20*
X137783779Y-113308115D03*
X127019259Y-113313195D03*
X130219659Y-113313195D03*
D23*
X123336259Y-108863115D03*
X123336259Y-110133115D03*
X123336259Y-107593115D03*
X124606259Y-107593115D03*
X124606259Y-108863115D03*
X124606259Y-110133115D03*
X130702259Y-110158515D03*
X130702259Y-108888515D03*
X130702259Y-107618515D03*
X129432259Y-107618515D03*
X129432259Y-110158515D03*
D20*
X127019259Y-110971315D03*
X127019259Y-106805715D03*
D25*
X127019259Y-108888515D03*
D23*
X129432259Y-108888515D03*
D20*
X127024339Y-102254035D03*
X127024339Y-105454435D03*
D10*
G36*
X151515531Y-129291558D02*
X153311582Y-127495507D01*
X155107633Y-129291558D01*
X153311582Y-131087609D01*
X151515531Y-129291558D01*
X151515531Y-129291558D01*
G37*
G36*
X128292589Y-127980440D02*
X130088640Y-126184389D01*
X131884691Y-127980440D01*
X130088640Y-129776491D01*
X128292589Y-127980440D01*
X128292589Y-127980440D01*
G37*
D29*
X146364960Y-114945160D03*
X146364960Y-116445160D03*
X141086840Y-115553360D03*
X141086840Y-117053360D03*
D10*
G36*
X112105440Y-117411771D02*
X110309389Y-115615720D01*
X112105440Y-113819669D01*
X113901491Y-115615720D01*
X112105440Y-117411771D01*
X112105440Y-117411771D01*
G37*
G36*
X88864537Y-118740849D02*
X87068486Y-116944798D01*
X88864537Y-115148747D01*
X90660588Y-116944798D01*
X88864537Y-118740849D01*
X88864537Y-118740849D01*
G37*
D34*
X123784360Y-117434360D03*
D20*
X126984760Y-117434360D03*
X127000000Y-118135400D03*
X127000000Y-121335800D03*
D10*
G36*
X89522571Y-125689360D02*
X87726520Y-127485411D01*
X85930469Y-125689360D01*
X87726520Y-123893309D01*
X89522571Y-125689360D01*
X89522571Y-125689360D01*
G37*
G36*
X91785596Y-127952384D02*
X89989545Y-129748435D01*
X88193494Y-127952384D01*
X89989545Y-126156333D01*
X91785596Y-127952384D01*
X91785596Y-127952384D01*
G37*
D34*
X123794520Y-122138440D03*
D20*
X126994920Y-122138440D03*
X157734000Y-130271520D03*
X160934400Y-130271520D03*
D44*
X83840320Y-120380760D03*
D45*
X85365320Y-121830760D03*
D44*
X83840320Y-123280760D03*
D23*
X83840320Y-119239960D03*
X83840320Y-124421560D03*
X82138520Y-120357560D03*
X82138520Y-123278560D03*
D10*
G36*
X165601096Y-68320251D02*
X167156731Y-66764616D01*
X167899194Y-67507079D01*
X166343559Y-69062714D01*
X165601096Y-68320251D01*
X165601096Y-68320251D01*
G37*
G36*
X163921718Y-67984376D02*
X164664180Y-67241914D01*
X165371286Y-67949020D01*
X164628824Y-68691482D01*
X163921718Y-67984376D01*
X163921718Y-67984376D01*
G37*
G36*
X163550486Y-66269641D02*
X165106121Y-64714006D01*
X165848584Y-65456469D01*
X164292949Y-67012104D01*
X163550486Y-66269641D01*
X163550486Y-66269641D01*
G37*
G36*
X166658786Y-68720332D02*
X167556812Y-67822306D01*
X168454838Y-68720332D01*
X167556812Y-69618358D01*
X166658786Y-68720332D01*
X166658786Y-68720332D01*
G37*
G36*
X162994842Y-65056388D02*
X163892868Y-64158362D01*
X164790894Y-65056388D01*
X163892868Y-65954414D01*
X162994842Y-65056388D01*
X162994842Y-65056388D01*
G37*
G36*
X167071878Y-66726715D02*
X167969904Y-65828689D01*
X168867930Y-66726715D01*
X167969904Y-67624741D01*
X167071878Y-66726715D01*
X167071878Y-66726715D01*
G37*
G36*
X165006419Y-64661256D02*
X165904445Y-63763230D01*
X166802471Y-64661256D01*
X165904445Y-65559282D01*
X165006419Y-64661256D01*
X165006419Y-64661256D01*
G37*
D46*
X121454840Y-58506360D03*
D47*
X120004840Y-60031360D03*
D46*
X118554840Y-58506360D03*
D23*
X122595640Y-58506360D03*
X117414040Y-58506360D03*
X121478040Y-56804560D03*
X118557040Y-56804560D03*
D46*
X153644600Y-132831840D03*
D47*
X155094600Y-131306840D03*
D46*
X156544600Y-132831840D03*
D23*
X152503800Y-132831840D03*
X157685400Y-132831840D03*
X153621400Y-134533640D03*
X156542400Y-134533640D03*
D13*
X122158760Y-63825120D03*
D29*
X133604000Y-78486000D03*
X133604000Y-76986000D03*
D28*
X121412000Y-82296000D03*
X119912000Y-82296000D03*
X107988800Y-80416400D03*
X106488800Y-80416400D03*
D29*
X110591600Y-80999200D03*
X110591600Y-82499200D03*
X105105200Y-88747600D03*
X105105200Y-90247600D03*
D28*
X106476800Y-83261200D03*
X104976800Y-83261200D03*
D27*
X121412000Y-80721200D03*
X119912000Y-80721200D03*
D18*
X110591600Y-85750400D03*
X110591600Y-84250400D03*
X106832400Y-90298400D03*
X106832400Y-88798400D03*
D26*
X115925600Y-80975200D03*
X115925600Y-82880200D03*
X113334801Y-80975200D03*
X113334801Y-81927700D03*
X113334801Y-82880200D03*
D35*
X108839000Y-88138000D03*
X110744000Y-88138000D03*
X108839000Y-90728799D03*
X109791500Y-90728799D03*
X110744000Y-90728799D03*
D39*
X116027200Y-76911200D03*
D40*
X113487200Y-76911200D03*
X110947200Y-76911200D03*
X108407200Y-76911200D03*
D48*
X122234000Y-78414400D03*
X122234000Y-77764400D03*
X122234000Y-77114400D03*
X122234000Y-76464400D03*
X119634000Y-76464400D03*
X119634000Y-77114400D03*
X119634000Y-77764400D03*
X119634000Y-78414400D03*
D12*
X135356600Y-82118200D03*
D49*
X136702800Y-81254600D03*
X108889800Y-84607400D03*
X160477200Y-72440800D03*
X109778800Y-91922600D03*
X105156000Y-80518000D03*
X104952800Y-81991200D03*
X114350800Y-81889600D03*
X123698000Y-76708000D03*
X128270000Y-80518000D03*
X129286000Y-76073000D03*
X123317000Y-83439000D03*
X129413000Y-82296000D03*
X133004560Y-88394660D03*
X132974080Y-89664660D03*
X131668520Y-89664660D03*
X131693920Y-88394660D03*
X99512120Y-69855080D03*
X114574320Y-69834760D03*
X115498880Y-68818760D03*
X114630200Y-67894200D03*
X90698320Y-74320400D03*
X134317140Y-89664660D03*
X134306340Y-88383860D03*
X130496340Y-88383860D03*
X130507140Y-89664660D03*
X107889040Y-101594920D03*
X106934000Y-102331520D03*
X106045000Y-101544120D03*
X143911320Y-107736640D03*
X143972280Y-105816400D03*
X143088360Y-106776520D03*
X123774200Y-115620800D03*
X122438160Y-117459760D03*
X123799600Y-119400320D03*
X123784360Y-120243600D03*
X123799600Y-123926600D03*
X122453400Y-122133360D03*
X146354800Y-117378480D03*
X141061440Y-117993160D03*
X135564880Y-110840520D03*
X134609840Y-110022640D03*
X133659880Y-110891320D03*
X144607986Y-83354848D03*
X145405546Y-84320048D03*
X144607986Y-85249688D03*
X154975560Y-74096880D03*
X154965400Y-75991720D03*
X155783280Y-75051920D03*
X84455000Y-63566040D03*
X102186740Y-73974960D03*
X91683840Y-83017360D03*
X87746840Y-95082360D03*
X82793840Y-92796360D03*
X94731840Y-70063360D03*
X90566240Y-80388460D03*
X133479540Y-68894960D03*
X90439240Y-60944760D03*
X91785440Y-61274960D03*
X90388440Y-62417960D03*
X93324800Y-59648060D03*
X87622500Y-61870560D03*
X91473140Y-58886060D03*
X90162500Y-65032860D03*
X92448500Y-65744060D03*
X106680000Y-75184000D03*
X104521000Y-74422000D03*
X102336600Y-91287600D03*
X102387400Y-88849200D03*
X82570320Y-85013800D03*
X86649560Y-84734400D03*
D50*
X149524720Y-67416680D02*
X152496520Y-67416680D01*
D51*
X149524720Y-67416680D02*
X155458160Y-67416680D01*
X155458160Y-67416680D02*
X155468320Y-67406520D01*
X148797040Y-91988760D02*
X154296140Y-91988760D01*
X154296140Y-91988760D02*
X154308840Y-92001460D01*
D50*
X142204440Y-81975960D02*
X142204440Y-84312760D01*
X142204440Y-84312760D02*
X142189200Y-84328000D01*
D51*
X142160020Y-88790900D02*
X142160020Y-82020380D01*
X142160020Y-82020380D02*
X142204440Y-81975960D01*
X142154940Y-88785820D02*
X142160020Y-88790900D01*
D52*
X135356600Y-82118200D02*
X135839200Y-82118200D01*
X135839200Y-82118200D02*
X136702800Y-81254600D01*
X135356600Y-82118200D02*
X135356600Y-82092800D01*
X108839000Y-83261200D02*
X108839000Y-84556600D01*
X108839000Y-84556600D02*
X108889800Y-84607400D01*
X162255200Y-72415400D02*
X160502600Y-72415400D01*
X160502600Y-72415400D02*
X160477200Y-72440800D01*
X157685400Y-132831840D02*
X156544600Y-132831840D01*
D50*
X123505100Y-77114400D02*
X123505100Y-76900900D01*
X123505100Y-76900900D02*
X123698000Y-76708000D01*
X127019259Y-108888515D02*
X129432259Y-108888515D01*
X127321340Y-61394460D02*
X127321340Y-63742540D01*
X127321340Y-63742540D02*
X127238760Y-63825120D01*
X124781340Y-67363460D02*
X124781340Y-65177700D01*
X124781340Y-65177700D02*
X124698760Y-65095120D01*
X122241340Y-67363460D02*
X122241340Y-65177700D01*
X122241340Y-65177700D02*
X122158760Y-65095120D01*
X124781340Y-61394460D02*
X124781340Y-63742540D01*
X124781340Y-63742540D02*
X124698760Y-63825120D01*
X153644600Y-132831840D02*
X152503800Y-132831840D01*
X156544600Y-134531440D02*
X156542400Y-134533640D01*
X153644600Y-132831840D02*
X153644600Y-134510440D01*
X153644600Y-134510440D02*
X153621400Y-134533640D01*
X106873040Y-61325760D02*
X106873040Y-64983360D01*
X106873040Y-64983360D02*
X106847640Y-65008760D01*
X114627028Y-104109394D02*
X117014628Y-104109394D01*
X117014628Y-104109394D02*
X117040028Y-104134794D01*
X147441920Y-67416680D02*
X147441920Y-69804280D01*
X147441920Y-69804280D02*
X147416520Y-69829680D01*
X151429720Y-99222560D02*
X151429720Y-96834960D01*
X151429720Y-96834960D02*
X151455120Y-96809560D01*
X146714240Y-91988760D02*
X146714240Y-89601160D01*
X146714240Y-89601160D02*
X146739640Y-89575760D01*
X166750145Y-67913665D02*
X167556812Y-68720332D01*
X164699535Y-65863055D02*
X163892868Y-65056388D01*
X118557040Y-56804560D02*
X118557040Y-58504160D01*
X118557040Y-58504160D02*
X118554840Y-58506360D01*
X121454840Y-58506360D02*
X121454840Y-56827760D01*
X121454840Y-56827760D02*
X121478040Y-56804560D01*
X121454840Y-58506360D02*
X122595640Y-58506360D01*
X118554840Y-58506360D02*
X117414040Y-58506360D01*
X83840320Y-120380760D02*
X82161720Y-120380760D01*
X82161720Y-120380760D02*
X82138520Y-120357560D01*
X83840320Y-120380760D02*
X83840320Y-119239960D01*
X83840320Y-123280760D02*
X82140720Y-123280760D01*
X82140720Y-123280760D02*
X82138520Y-123278560D01*
X83840320Y-123280760D02*
X83840320Y-124421560D01*
X109791500Y-90728799D02*
X109791500Y-91909900D01*
X109791500Y-91909900D02*
X109778800Y-91922600D01*
X106488800Y-80416400D02*
X105257600Y-80416400D01*
X105257600Y-80416400D02*
X105156000Y-80518000D01*
X104976800Y-83261200D02*
X104976800Y-82015200D01*
X104976800Y-82015200D02*
X104952800Y-81991200D01*
X113334801Y-81927700D02*
X114312700Y-81927700D01*
X114312700Y-81927700D02*
X114350800Y-81889600D01*
X122234000Y-77114400D02*
X123505100Y-77114400D01*
D52*
X129413000Y-83185000D02*
X129413000Y-82296000D01*
X129056000Y-83542000D02*
X129413000Y-83185000D01*
X129056000Y-83820000D02*
X129056000Y-83542000D01*
X126791721Y-79509620D02*
X127494623Y-79509620D01*
X127494623Y-79509620D02*
X128270000Y-80284997D01*
X128270000Y-80284997D02*
X128270000Y-80518000D01*
X129322960Y-77119480D02*
X129322960Y-76109960D01*
X129322960Y-76109960D02*
X129286000Y-76073000D01*
X123317000Y-82296000D02*
X123317000Y-83439000D01*
X128500000Y-82296000D02*
X129413000Y-82296000D01*
X125968760Y-63825120D02*
X127238760Y-63825120D01*
X127238760Y-65095120D02*
X127238760Y-63825120D01*
X125968760Y-65095120D02*
X127238760Y-65095120D01*
X125968760Y-63825120D02*
X125968760Y-65095120D01*
X124698760Y-65095120D02*
X125968760Y-65095120D01*
X124698760Y-65095120D02*
X124698760Y-63825120D01*
X123428760Y-65095120D02*
X124698760Y-65095120D01*
X122158760Y-65095120D02*
X123428760Y-65095120D01*
X123428760Y-65095120D02*
X123428760Y-63825120D01*
X122158760Y-65095120D02*
X122158760Y-63825120D01*
X124698760Y-63825120D02*
X123428760Y-63825120D01*
X124698760Y-63825120D02*
X125968760Y-63825120D01*
X122158760Y-63825120D02*
X123428760Y-63825120D01*
D53*
X130496340Y-91810960D02*
X130496340Y-89675460D01*
X130496340Y-89675460D02*
X130507140Y-89664660D01*
X131766340Y-91810960D02*
X131766340Y-89762480D01*
X131766340Y-89762480D02*
X131668520Y-89664660D01*
X133036340Y-91810960D02*
X133036340Y-89726920D01*
X133036340Y-89726920D02*
X132974080Y-89664660D01*
X133004560Y-88394660D02*
X133004560Y-86508740D01*
X133004560Y-86508740D02*
X133036340Y-86476960D01*
D52*
X132974080Y-89664660D02*
X132974080Y-88425140D01*
X132974080Y-88425140D02*
X133004560Y-88394660D01*
X131693920Y-88394660D02*
X131693920Y-89639260D01*
X131693920Y-89639260D02*
X131668520Y-89664660D01*
X133004560Y-88394660D02*
X134317140Y-88394660D01*
X131693920Y-88394660D02*
X133004560Y-88394660D01*
X132974080Y-89664660D02*
X131668520Y-89664660D01*
X134317140Y-89664660D02*
X132974080Y-89664660D01*
X131668520Y-89664660D02*
X130507140Y-89664660D01*
X130507140Y-88394660D02*
X131693920Y-88394660D01*
D54*
X130496340Y-88383860D02*
X131683120Y-88383860D01*
X131683120Y-88383860D02*
X131693920Y-88394660D01*
D50*
X99530920Y-68539360D02*
X99530920Y-69836280D01*
X99530920Y-69836280D02*
X99512120Y-69855080D01*
X114620040Y-68828920D02*
X114620040Y-69789040D01*
X114620040Y-69789040D02*
X114574320Y-69834760D01*
X114620040Y-68828920D02*
X115488720Y-68828920D01*
X115488720Y-68828920D02*
X115498880Y-68818760D01*
X114620040Y-68828920D02*
X114620040Y-67904360D01*
X114620040Y-67904360D02*
X114630200Y-67894200D01*
X90733880Y-72572880D02*
X90733880Y-74284840D01*
X90733880Y-74284840D02*
X90698320Y-74320400D01*
X106968928Y-101543994D02*
X107838114Y-101543994D01*
X107838114Y-101543994D02*
X107889040Y-101594920D01*
X106968928Y-101543994D02*
X106968928Y-102296592D01*
X106968928Y-102296592D02*
X106934000Y-102331520D01*
X106968928Y-101543994D02*
X106045126Y-101543994D01*
X106045126Y-101543994D02*
X106045000Y-101544120D01*
X143931640Y-106776520D02*
X143931640Y-107716320D01*
X143931640Y-107716320D02*
X143911320Y-107736640D01*
X143931640Y-106776520D02*
X143931640Y-105857040D01*
X143931640Y-105857040D02*
X143972280Y-105816400D01*
X143931640Y-106776520D02*
X143088360Y-106776520D01*
D52*
X123784360Y-117434360D02*
X123784360Y-115630960D01*
X123784360Y-115630960D02*
X123774200Y-115620800D01*
X123784360Y-117434360D02*
X122463560Y-117434360D01*
X122463560Y-117434360D02*
X122438160Y-117459760D01*
X123784360Y-117434360D02*
X123784360Y-119385080D01*
X123784360Y-119385080D02*
X123799600Y-119400320D01*
X123794520Y-122138440D02*
X123794520Y-120253760D01*
X123794520Y-120253760D02*
X123784360Y-120243600D01*
X123794520Y-122138440D02*
X123794520Y-123921520D01*
X123794520Y-123921520D02*
X123799600Y-123926600D01*
X123794520Y-122138440D02*
X122458480Y-122138440D01*
X122458480Y-122138440D02*
X122453400Y-122133360D01*
X146364960Y-116445160D02*
X146364960Y-117368320D01*
X146364960Y-117368320D02*
X146354800Y-117378480D01*
X141086840Y-117053360D02*
X141086840Y-117967760D01*
X141086840Y-117967760D02*
X141061440Y-117993160D01*
X134613859Y-110869715D02*
X135535685Y-110869715D01*
X135535685Y-110869715D02*
X135564880Y-110840520D01*
X134613859Y-110869715D02*
X134613859Y-110026659D01*
X134613859Y-110026659D02*
X134609840Y-110022640D01*
X134613859Y-110869715D02*
X133681485Y-110869715D01*
X133681485Y-110869715D02*
X133659880Y-110891320D01*
X144597826Y-84304808D02*
X144597826Y-83365008D01*
X144597826Y-83365008D02*
X144607986Y-83354848D01*
X144597826Y-84304808D02*
X145390306Y-84304808D01*
X145390306Y-84304808D02*
X145405546Y-84320048D01*
X144597826Y-84304808D02*
X144597826Y-85239528D01*
X144597826Y-85239528D02*
X144607986Y-85249688D01*
X154970480Y-75041760D02*
X154970480Y-74101960D01*
X154970480Y-74101960D02*
X154975560Y-74096880D01*
X154970480Y-75041760D02*
X154970480Y-75986640D01*
X154970480Y-75986640D02*
X154965400Y-75991720D01*
X154970480Y-75041760D02*
X155773120Y-75041760D01*
X155773120Y-75041760D02*
X155783280Y-75051920D01*
D54*
X84475320Y-62705680D02*
X84475320Y-63545720D01*
X84475320Y-63545720D02*
X84455000Y-63566040D01*
D52*
X102174040Y-73987660D02*
X102186740Y-73974960D01*
X93046040Y-83068160D02*
X91734640Y-83068160D01*
X91734640Y-83068160D02*
X91683840Y-83017360D01*
X85558840Y-95099360D02*
X87729840Y-95099360D01*
X87729840Y-95099360D02*
X87746840Y-95082360D01*
X82758840Y-95099360D02*
X82758840Y-92831360D01*
X82758840Y-92831360D02*
X82793840Y-92796360D01*
X94706440Y-71130159D02*
X94706440Y-70088760D01*
X94706440Y-70088760D02*
X94731840Y-70063360D01*
X92024640Y-80388460D02*
X90566240Y-80388460D01*
D54*
X133441440Y-67414260D02*
X133504940Y-68869560D01*
X133504940Y-68869560D02*
X133479540Y-68894960D01*
D51*
X127803940Y-67414260D02*
X133441440Y-67414260D01*
X133441440Y-67414260D02*
X138831440Y-67414260D01*
X138831440Y-67414260D02*
X138838940Y-67421760D01*
D55*
X90814570Y-61320090D02*
X90439240Y-60944760D01*
X91546800Y-60587860D02*
X91546800Y-61036320D01*
X91546800Y-61036320D02*
X91785440Y-61274960D01*
X90246800Y-61887860D02*
X90246800Y-62276320D01*
X90246800Y-62276320D02*
X90388440Y-62417960D01*
X93319500Y-60587860D02*
X93319500Y-59653360D01*
X93319500Y-59653360D02*
X93324800Y-59648060D01*
X87589000Y-61811660D02*
X87571700Y-61794360D01*
X89019500Y-61887860D02*
X87639800Y-61887860D01*
X89019500Y-61887860D02*
X90246800Y-61887860D01*
X91546800Y-60587860D02*
X93319500Y-60587860D01*
X90246800Y-61887860D02*
X90814570Y-61320090D01*
X90814570Y-61320090D02*
X91546800Y-60587860D01*
D52*
X130507140Y-88394660D02*
X130507140Y-89664660D01*
X134317140Y-88394660D02*
X134317140Y-89664660D01*
X134306340Y-86476960D02*
X134306340Y-88383860D01*
X134306340Y-88383860D02*
X134317140Y-88394660D01*
X130496340Y-86476960D02*
X130496340Y-88383860D01*
X130496340Y-88383860D02*
X130507140Y-88394660D01*
X129226340Y-91810960D02*
X129226340Y-90005660D01*
X129226340Y-90005660D02*
X129567340Y-89664660D01*
X129567340Y-89664660D02*
X130507140Y-89664660D01*
D54*
X90495940Y-58860660D02*
X91447740Y-58860660D01*
X91447740Y-58860660D02*
X91473140Y-58886060D01*
X90199900Y-64016860D02*
X90199900Y-64995460D01*
X90199900Y-64995460D02*
X90162500Y-65032860D01*
X93286700Y-65655860D02*
X92409700Y-65655860D01*
X92409700Y-65655860D02*
X92397700Y-65667860D01*
D51*
X141525020Y-91983680D02*
X141519940Y-91988760D01*
X141519940Y-91988760D02*
X144631440Y-91988760D01*
X135195340Y-91988760D02*
X138319540Y-91988760D01*
D54*
X89006100Y-58886060D02*
X89006100Y-60574460D01*
X89006100Y-60574460D02*
X89019500Y-60587860D01*
D50*
X107403900Y-85305900D02*
X108839000Y-86741000D01*
X108839000Y-86741000D02*
X108839000Y-88138000D01*
X107403900Y-84163300D02*
X107403900Y-85305900D01*
X107403900Y-84163300D02*
X106501800Y-83261200D01*
X106501800Y-83261200D02*
X106476800Y-83261200D01*
X107988800Y-80416400D02*
X107988800Y-81749200D01*
X107988800Y-81749200D02*
X106476800Y-83261200D01*
X109220000Y-79966200D02*
X114764200Y-79966200D01*
X114764200Y-79966200D02*
X115773200Y-80975200D01*
X115773200Y-80975200D02*
X115925600Y-80975200D01*
X107988800Y-80416400D02*
X108769800Y-80416400D01*
X108769800Y-80416400D02*
X109220000Y-79966200D01*
X106680000Y-75184000D02*
X106380001Y-75483999D01*
X106380001Y-75483999D02*
X106380001Y-78832601D01*
X106380001Y-78832601D02*
X107963800Y-80416400D01*
X107963800Y-80416400D02*
X107988800Y-80416400D01*
X125854520Y-77119480D02*
X125209600Y-77764400D01*
X125209600Y-77764400D02*
X122234000Y-77764400D01*
X106680000Y-75184000D02*
X115918531Y-75184000D01*
X115918531Y-75184000D02*
X116385241Y-74717290D01*
X116385241Y-74717290D02*
X123452330Y-74717290D01*
X123452330Y-74717290D02*
X125854520Y-77119480D01*
D52*
X127822960Y-77119480D02*
X129260600Y-78557120D01*
X129260600Y-78557120D02*
X129382520Y-78557120D01*
X124714000Y-79018000D02*
X124714000Y-78260000D01*
X124714000Y-78260000D02*
X125854520Y-77119480D01*
X125854520Y-77119480D02*
X126914960Y-77119480D01*
X126914960Y-77119480D02*
X127822960Y-77119480D01*
X104521000Y-68326000D02*
X104521000Y-74422000D01*
X102743000Y-66548000D02*
X104521000Y-68326000D01*
X95592900Y-66548000D02*
X102743000Y-66548000D01*
X93753940Y-68539360D02*
X93753940Y-68386960D01*
X93753940Y-68386960D02*
X95592900Y-66548000D01*
D50*
X93753940Y-68539360D02*
X90767400Y-68539360D01*
X90767400Y-68539360D02*
X90733880Y-68572880D01*
X88823800Y-71333360D02*
X88823800Y-74688700D01*
X88823800Y-74688700D02*
X86502240Y-77010260D01*
X89748360Y-70408800D02*
X88823800Y-71333360D01*
X90278960Y-70408800D02*
X89748360Y-70408800D01*
X90733880Y-68572880D02*
X90733880Y-69953880D01*
X90733880Y-69953880D02*
X90278960Y-70408800D01*
D52*
X91255340Y-68539360D02*
X93753940Y-68539360D01*
X91239340Y-68555360D02*
X91239340Y-66672460D01*
X91689740Y-66222060D02*
X91689740Y-63991460D01*
X91239340Y-66672460D02*
X91689740Y-66222060D01*
X86502240Y-77010260D02*
X86743540Y-77010260D01*
D50*
X93309340Y-61862460D02*
X92257840Y-61862460D01*
X91689740Y-62430560D02*
X91689740Y-63991460D01*
X92257840Y-61862460D02*
X91689740Y-62430560D01*
D52*
X93327340Y-64206660D02*
X92920240Y-64206660D01*
X92705040Y-63991460D02*
X91689740Y-63991460D01*
X92920240Y-64206660D02*
X92705040Y-63991460D01*
D50*
X93319500Y-62537860D02*
X93319500Y-64214060D01*
X93319500Y-64214060D02*
X93337500Y-64232060D01*
D54*
X93337500Y-62555860D02*
X93319500Y-62537860D01*
D50*
X91699900Y-64016860D02*
X91699900Y-64169960D01*
X112156240Y-68828920D02*
X112156240Y-70474840D01*
X112156240Y-70474840D02*
X112166400Y-70485000D01*
D51*
X112170240Y-64518660D02*
X112170240Y-70481160D01*
X112170240Y-70481160D02*
X112166400Y-70485000D01*
D50*
X152506680Y-75041760D02*
X152506680Y-78033880D01*
X152506680Y-78033880D02*
X152501600Y-78038960D01*
D51*
X152501600Y-78038960D02*
X152501600Y-70622160D01*
X152501600Y-70622160D02*
X152496520Y-70617080D01*
X114627028Y-102026594D02*
X114627028Y-99080194D01*
X114627028Y-96133794D02*
X114627028Y-102026594D01*
X167400000Y-92915860D02*
X167400000Y-96725860D01*
X167400000Y-96725860D02*
X164903300Y-99222560D01*
X164903300Y-99222560D02*
X153512520Y-99222560D01*
D53*
X102336600Y-91287600D02*
X102336600Y-91711864D01*
X102336600Y-91711864D02*
X100366168Y-93682296D01*
X100366168Y-93682296D02*
X100366168Y-96275552D01*
X103113840Y-87208360D02*
X102387400Y-87934800D01*
X102387400Y-87934800D02*
X102387400Y-88849200D01*
X103113840Y-84386336D02*
X103113840Y-87208360D01*
X103113840Y-77419200D02*
X106847640Y-73685400D01*
D50*
X146395440Y-113141760D02*
X141150534Y-113141760D01*
X141150534Y-113141760D02*
X140984179Y-113308115D01*
D53*
X103113840Y-84386336D02*
X103113840Y-77419200D01*
X100366168Y-99059754D02*
X100366168Y-96275552D01*
X142204440Y-78775560D02*
X142712440Y-78775560D01*
X142712440Y-78775560D02*
X145176240Y-81239360D01*
X145176240Y-81239360D02*
X150469600Y-81239360D01*
X150469600Y-81239360D02*
X152501600Y-81239360D01*
X112694720Y-73705720D02*
X135102600Y-73705720D01*
X135102600Y-73705720D02*
X140172440Y-78775560D01*
X140172440Y-78775560D02*
X142204440Y-78775560D01*
X112166400Y-73685400D02*
X112674400Y-73685400D01*
X112674400Y-73685400D02*
X112694720Y-73705720D01*
X106847640Y-73685400D02*
X112166400Y-73685400D01*
X98031900Y-77419200D02*
X103113840Y-77419200D01*
X96624640Y-80388460D02*
X96624640Y-78826460D01*
X96624640Y-78826460D02*
X98031900Y-77419200D01*
X141086840Y-115553360D02*
X141086840Y-113410776D01*
X141086840Y-113410776D02*
X140984179Y-113308115D01*
X146364960Y-114945160D02*
X146364960Y-113172240D01*
X146364960Y-113172240D02*
X146395440Y-113141760D01*
X160056845Y-113308115D02*
X140984179Y-113308115D01*
X82570320Y-85013800D02*
X82270321Y-84713801D01*
X82270321Y-84713801D02*
X81731841Y-84713801D01*
X88331040Y-54305200D02*
X163178442Y-54305200D01*
X163178442Y-54305200D02*
X176062640Y-67189398D01*
X81731841Y-84713801D02*
X81731841Y-62203357D01*
X81742280Y-62192918D02*
X81742280Y-60878720D01*
X81742280Y-60878720D02*
X86194241Y-56426759D01*
X81731841Y-62203357D02*
X81742280Y-62192918D01*
X86194241Y-56426759D02*
X86209481Y-56426759D01*
X86209481Y-56426759D02*
X88331040Y-54305200D01*
X176088040Y-90706342D02*
X176088040Y-105897680D01*
X176062640Y-67189398D02*
X176062640Y-90680942D01*
X176062640Y-90680942D02*
X176088040Y-90706342D01*
X176088040Y-105897680D02*
X168677605Y-113308115D01*
X168677605Y-113308115D02*
X160056845Y-113308115D01*
X86502240Y-82090260D02*
X86502240Y-84587080D01*
X86502240Y-84587080D02*
X86649560Y-84734400D01*
X86502240Y-82090260D02*
X88432640Y-82090260D01*
X95046040Y-84239860D02*
X95046040Y-83068160D01*
X94325440Y-84960460D02*
X95046040Y-84239860D01*
X91302840Y-84960460D02*
X94325440Y-84960460D01*
X88432640Y-82090260D02*
X91302840Y-84960460D01*
X95046040Y-83068160D02*
X96624640Y-81489560D01*
X96624640Y-81489560D02*
X96624640Y-80388460D01*
D51*
X106968928Y-99080194D02*
X103587008Y-99080194D01*
X103587008Y-99080194D02*
X103566568Y-99059754D01*
X111426628Y-99080194D02*
X106968928Y-99080194D01*
X163591240Y-85963760D02*
X163591240Y-88833960D01*
X160423740Y-92001460D02*
X157509240Y-92001460D01*
X163591240Y-88833960D02*
X160423740Y-92001460D01*
X167426640Y-86065360D02*
X167426640Y-89688820D01*
X167426640Y-89688820D02*
X167400000Y-89715460D01*
X167402540Y-89712920D02*
X167400000Y-89715460D01*
X115844320Y-89047320D02*
X121779180Y-89047320D01*
X121779180Y-89047320D02*
X124527340Y-86299160D01*
X114627028Y-90264612D02*
X115844320Y-89047320D01*
X114627028Y-92933394D02*
X114627028Y-90264612D01*
X128337340Y-86299160D02*
X124527340Y-86299160D01*
D50*
X164646502Y-67966698D02*
X159228898Y-67966698D01*
X159228898Y-67966698D02*
X158668720Y-67406520D01*
D51*
X165455600Y-70383400D02*
X165455600Y-72334120D01*
X165455600Y-72334120D02*
X165470840Y-72349360D01*
X158668720Y-67406520D02*
X162478720Y-67406520D01*
X162478720Y-67406520D02*
X165455600Y-70383400D01*
D52*
X133265040Y-81576040D02*
X133146800Y-81457800D01*
X133146800Y-81457800D02*
X133146800Y-80462120D01*
X133265040Y-82224880D02*
X133265040Y-81576040D01*
D50*
X94114740Y-61222860D02*
X93319740Y-61222860D01*
X93319740Y-61222860D02*
X93309340Y-61212460D01*
X93309340Y-61212460D02*
X95526740Y-61212460D01*
X95526740Y-61212460D02*
X95638740Y-61324460D01*
D51*
X95638740Y-61324460D02*
X98616740Y-61324460D01*
X98616740Y-61324460D02*
X98618040Y-61325760D01*
X101818440Y-61325760D02*
X104790240Y-61325760D01*
D52*
X94274640Y-73988460D02*
X97785640Y-73988460D01*
X97785640Y-73988460D02*
X97786440Y-73987660D01*
D53*
X86502240Y-79550260D02*
X87670640Y-79550260D01*
X90261440Y-76959460D02*
X94274640Y-76959460D01*
X87670640Y-79550260D02*
X90261440Y-76959460D01*
X94274640Y-73988460D02*
X94274640Y-76959460D01*
X94274640Y-76959460D02*
X94274640Y-80388460D01*
D52*
X95658940Y-71130159D02*
X95658940Y-72616060D01*
X95100940Y-73162160D02*
X94274640Y-73988460D01*
X95112840Y-73162160D02*
X95100940Y-73162160D01*
X95658940Y-72616060D02*
X95112840Y-73162160D01*
X93753940Y-71130159D02*
X93753940Y-73467760D01*
X93753940Y-73467760D02*
X94274640Y-73988460D01*
D50*
X115065840Y-61318260D02*
X112170240Y-61318260D01*
D51*
X108955840Y-61325760D02*
X115058340Y-61325760D01*
X115058340Y-61325760D02*
X115065840Y-61318260D01*
D50*
X121758740Y-61369060D02*
X121342540Y-61369060D01*
X121342540Y-61369060D02*
X120004840Y-60031360D01*
D51*
X118266240Y-61318260D02*
X121707940Y-61318260D01*
X121707940Y-61318260D02*
X121758740Y-61369060D01*
X142039340Y-67421760D02*
X145354040Y-67421760D01*
X145354040Y-67421760D02*
X145359120Y-67416680D01*
X114627028Y-113126239D02*
X114627028Y-106192194D01*
X112105440Y-115615720D02*
X113074175Y-114646985D01*
X113106282Y-114646985D02*
X114627028Y-113126239D01*
X113074175Y-114646985D02*
X113106282Y-114646985D01*
D50*
X146395440Y-109941360D02*
X146395440Y-106776520D01*
D51*
X146400520Y-102422960D02*
X146400520Y-109936280D01*
X146400520Y-109936280D02*
X146395440Y-109941360D01*
D50*
X95658940Y-68539360D02*
X97530920Y-68539360D01*
D55*
X86070440Y-61210760D02*
X84541360Y-61210760D01*
X84541360Y-61210760D02*
X84505800Y-61175200D01*
X86070440Y-61210760D02*
X89007640Y-61210760D01*
X89007640Y-61210760D02*
X89009340Y-61212460D01*
D54*
X86502240Y-69390260D02*
X86502240Y-66558160D01*
X86070440Y-66126360D02*
X86070440Y-62710760D01*
X86502240Y-66558160D02*
X86070440Y-66126360D01*
X86502240Y-71930260D02*
X87378540Y-71930260D01*
X89009340Y-65155960D02*
X89009340Y-62512460D01*
X88229440Y-65935860D02*
X89009340Y-65155960D01*
X88229440Y-71079360D02*
X88229440Y-65935860D01*
X87378540Y-71930260D02*
X88229440Y-71079360D01*
D50*
X82575400Y-82956400D02*
X84658840Y-85039840D01*
X84658840Y-85039840D02*
X84658840Y-87699360D01*
X82575400Y-76561158D02*
X82575400Y-82956400D01*
X85261739Y-75710761D02*
X83425797Y-75710761D01*
X83425797Y-75710761D02*
X82575400Y-76561158D01*
X105105200Y-90247600D02*
X99460600Y-90247600D01*
X99460600Y-90247600D02*
X99058840Y-90649360D01*
X106832400Y-90298400D02*
X105156000Y-90298400D01*
X105156000Y-90298400D02*
X105105200Y-90247600D01*
X108839000Y-90728799D02*
X108115100Y-90728799D01*
X108115100Y-90728799D02*
X107684701Y-90298400D01*
X107684701Y-90298400D02*
X106832400Y-90298400D01*
X86502240Y-74470260D02*
X85261739Y-75710761D01*
X84658840Y-85918360D02*
X84658840Y-87699360D01*
D52*
X94958840Y-95099360D02*
X98016840Y-95099360D01*
X98016840Y-95099360D02*
X99058840Y-94057360D01*
X99058840Y-90649360D02*
X99058840Y-88868360D01*
X99058840Y-88868360D02*
X97889840Y-87699360D01*
X97889840Y-87699360D02*
X87458840Y-87699360D01*
X99058840Y-94057360D02*
X99058840Y-90649360D01*
X84658840Y-87699360D02*
X87458840Y-87699360D01*
D54*
X86502240Y-74470260D02*
X86133940Y-74470260D01*
D50*
X137783779Y-113308115D02*
X134639259Y-113308115D01*
X134639259Y-113308115D02*
X134613859Y-113333515D01*
D51*
X136067800Y-113308115D02*
X130224739Y-113308115D01*
D50*
X137783779Y-113308115D02*
X136067800Y-113308115D01*
D51*
X130224739Y-113308115D02*
X130219659Y-113313195D01*
D50*
X127019259Y-110971315D02*
X127019259Y-113313195D01*
D51*
X127019259Y-110971315D02*
X127019259Y-118116141D01*
X127019259Y-118116141D02*
X127000000Y-118135400D01*
X149346920Y-99222560D02*
X146400520Y-99222560D01*
X127024339Y-100122781D02*
X127924560Y-99222560D01*
X127924560Y-99222560D02*
X142590520Y-99222560D01*
X127024339Y-102254035D02*
X127024339Y-100122781D01*
X146400520Y-99222560D02*
X142590520Y-99222560D01*
X142590520Y-99222560D02*
X142585440Y-99227640D01*
X127024339Y-102254035D02*
X127024339Y-102200501D01*
D50*
X127019259Y-106805715D02*
X127019259Y-105459515D01*
X127019259Y-105459515D02*
X127024339Y-105454435D01*
X85365320Y-121830760D02*
X86271320Y-121830760D01*
X86271320Y-121830760D02*
X86446360Y-121655720D01*
X86446360Y-121655720D02*
X86446360Y-119362975D01*
D51*
X87726520Y-125689360D02*
X86446360Y-124409200D01*
X86446360Y-124409200D02*
X86446360Y-119362975D01*
X86446360Y-119362975D02*
X88864537Y-116944798D01*
D50*
X155094600Y-131306840D02*
X155094600Y-131074576D01*
X155094600Y-131074576D02*
X153311582Y-129291558D01*
D51*
X157734000Y-130271520D02*
X154291544Y-130271520D01*
X154291544Y-130271520D02*
X153311582Y-129291558D01*
X126994920Y-122138440D02*
X126994920Y-124886720D01*
X126994920Y-124886720D02*
X130088640Y-127980440D01*
X164064032Y-130271520D02*
X165420040Y-131627528D01*
X165420040Y-131627528D02*
X165420040Y-134625080D01*
X160934400Y-130271520D02*
X164064032Y-130271520D01*
X90779600Y-133649720D02*
X90779600Y-128742439D01*
X90779600Y-128742439D02*
X89989545Y-127952384D01*
D50*
X114736502Y-84129501D02*
X113380899Y-84129501D01*
X113380899Y-84129501D02*
X112318800Y-85191600D01*
X112318800Y-85191600D02*
X112318800Y-88277699D01*
X112318800Y-88277699D02*
X110744000Y-89852499D01*
X110744000Y-89852499D02*
X110744000Y-90728799D01*
X124817000Y-82296000D02*
X124817000Y-83052000D01*
X124817000Y-83052000D02*
X123739499Y-84129501D01*
X113487201Y-82880200D02*
X113334801Y-82880200D01*
X123739499Y-84129501D02*
X114736502Y-84129501D01*
X114736502Y-84129501D02*
X113487201Y-82880200D01*
D52*
X124817000Y-82296000D02*
X124817000Y-80621000D01*
X124817000Y-80621000D02*
X124714000Y-80518000D01*
X127000000Y-82296000D02*
X124817000Y-82296000D01*
X126791721Y-81071721D02*
X127000000Y-81280000D01*
X127000000Y-81280000D02*
X127000000Y-82296000D01*
X126791721Y-80462120D02*
X126791721Y-81071721D01*
X131766340Y-83896200D02*
X137845800Y-83896200D01*
X130556000Y-83820000D02*
X131720620Y-83820000D01*
X131720620Y-83820000D02*
X131781580Y-83880960D01*
D53*
X131766340Y-86476960D02*
X131766340Y-83896200D01*
X131766340Y-83896200D02*
X131766340Y-82226180D01*
X131781580Y-83880960D02*
X131766340Y-83896200D01*
X131766340Y-82226180D02*
X131765040Y-82224880D01*
D52*
X131638040Y-78462000D02*
X133580000Y-78462000D01*
X133580000Y-78462000D02*
X133604000Y-78486000D01*
X131646800Y-80462120D02*
X129382520Y-80462120D01*
X131646800Y-80462120D02*
X131646800Y-78470760D01*
X131646800Y-78470760D02*
X131638040Y-78462000D01*
D50*
X122682000Y-81051000D02*
X122682000Y-80492200D01*
X122682000Y-80492200D02*
X123296701Y-79877499D01*
X121412000Y-82296000D02*
X121437000Y-82296000D01*
X121437000Y-82296000D02*
X122682000Y-81051000D01*
X125401200Y-79780000D02*
X124588400Y-79780000D01*
X124588400Y-79780000D02*
X124490901Y-79877499D01*
X124490901Y-79877499D02*
X123296701Y-79877499D01*
X125780800Y-78979439D02*
X125780800Y-79400400D01*
X125780800Y-79400400D02*
X125401200Y-79780000D01*
X126791721Y-78557120D02*
X126203119Y-78557120D01*
X126203119Y-78557120D02*
X125780800Y-78979439D01*
D52*
X133604000Y-76986000D02*
X131662040Y-76986000D01*
X131662040Y-76986000D02*
X131638040Y-76962000D01*
X126791721Y-78557120D02*
X126690120Y-78557120D01*
X130175000Y-79629000D02*
X128866901Y-79629000D01*
X128866901Y-79629000D02*
X127795021Y-78557120D01*
X127795021Y-78557120D02*
X126791721Y-78557120D01*
X130429000Y-77213040D02*
X130429000Y-79375000D01*
X130429000Y-79375000D02*
X130175000Y-79629000D01*
X131638040Y-76962000D02*
X130680040Y-76962000D01*
X130680040Y-76962000D02*
X130429000Y-77213040D01*
D50*
X119912000Y-82296000D02*
X119131000Y-82296000D01*
X119131000Y-82296000D02*
X118922800Y-82087800D01*
X118922800Y-82087800D02*
X118922800Y-81079400D01*
X118922800Y-81079400D02*
X119281000Y-80721200D01*
X119281000Y-80721200D02*
X119912000Y-80721200D01*
X113334801Y-80975200D02*
X110615600Y-80975200D01*
X110615600Y-80975200D02*
X110591600Y-80999200D01*
X116603102Y-81838800D02*
X115321942Y-81838800D01*
X114458342Y-80975200D02*
X114211101Y-80975200D01*
X115321942Y-81838800D02*
X114458342Y-80975200D01*
X114211101Y-80975200D02*
X113334801Y-80975200D01*
X119634000Y-78414400D02*
X119309000Y-78414400D01*
X119309000Y-78414400D02*
X116811401Y-80911999D01*
X116811401Y-80911999D02*
X116811401Y-81630501D01*
X116811401Y-81630501D02*
X116603102Y-81838800D01*
X110591600Y-82499200D02*
X110591600Y-84250400D01*
X106832400Y-88798400D02*
X105156000Y-88798400D01*
X105156000Y-88798400D02*
X105105200Y-88747600D01*
X108534200Y-89382600D02*
X107950000Y-88798400D01*
X107950000Y-88798400D02*
X106832400Y-88798400D01*
X109651800Y-89382600D02*
X108534200Y-89382600D01*
X110744000Y-88138000D02*
X110744000Y-88290400D01*
X110744000Y-88290400D02*
X109651800Y-89382600D01*
X110591600Y-85750400D02*
X110591600Y-86944200D01*
X110591600Y-86944200D02*
X110744000Y-87096600D01*
X110744000Y-87096600D02*
X110744000Y-88138000D01*
X117602000Y-82194400D02*
X116916200Y-82880200D01*
X116916200Y-82880200D02*
X115925600Y-82880200D01*
X117602000Y-81229200D02*
X117602000Y-82194400D01*
X119329200Y-79502000D02*
X117602000Y-81229200D01*
X121767600Y-79502000D02*
X122234000Y-79035600D01*
X121412000Y-79857600D02*
X121767600Y-79502000D01*
X121767600Y-79502000D02*
X119329200Y-79502000D01*
X121412000Y-80721200D02*
X121412000Y-79857600D01*
X122234000Y-79035600D02*
X122234000Y-78414400D01*
X121412000Y-80721200D02*
X121412000Y-80416400D01*
D54*
X116027200Y-76911200D02*
X116027200Y-75807200D01*
X116027200Y-75807200D02*
X116599600Y-75234800D01*
X116599600Y-75234800D02*
X120200400Y-75234800D01*
X120200400Y-75234800D02*
X121430000Y-76464400D01*
X121430000Y-76464400D02*
X122234000Y-76464400D01*
X117703600Y-76860400D02*
X118099600Y-76464400D01*
X118099600Y-76464400D02*
X119634000Y-76464400D01*
X117703600Y-77724000D02*
X117703600Y-76860400D01*
X116941600Y-78486000D02*
X117703600Y-77724000D01*
X113859919Y-78486000D02*
X116941600Y-78486000D01*
X113487200Y-76911200D02*
X113487200Y-78113281D01*
X113487200Y-78113281D02*
X113859919Y-78486000D01*
X110947200Y-76911200D02*
X112979200Y-78943200D01*
X112979200Y-78943200D02*
X117297200Y-78943200D01*
X117297200Y-78943200D02*
X118211600Y-78028800D01*
X118211600Y-78028800D02*
X118211600Y-77419200D01*
X118211600Y-77419200D02*
X118516400Y-77114400D01*
X118516400Y-77114400D02*
X118719600Y-77114400D01*
X118719600Y-77114400D02*
X119634000Y-77114400D01*
D56*
G36*
X134712740Y-66156960D02*
X134713741Y-66161901D01*
X134716585Y-66166063D01*
X134720824Y-66168791D01*
X134725440Y-66169660D01*
X137252740Y-66169660D01*
X137252740Y-68684260D01*
X134725440Y-68684260D01*
X134720499Y-68685261D01*
X134716337Y-68688105D01*
X134713609Y-68692344D01*
X134712740Y-68696960D01*
X134712740Y-68938260D01*
X132198140Y-68938260D01*
X132198140Y-68696960D01*
X132197139Y-68692019D01*
X132194295Y-68687857D01*
X132190056Y-68685129D01*
X132185440Y-68684260D01*
X129658140Y-68684260D01*
X129658140Y-66169660D01*
X132185440Y-66169660D01*
X132190381Y-66168659D01*
X132194543Y-66165815D01*
X132197271Y-66161576D01*
X132198140Y-66156960D01*
X132198140Y-61343660D01*
X134712740Y-61343660D01*
X134712740Y-66156960D01*
X134712740Y-66156960D01*
G37*
X134712740Y-66156960D02*
X134713741Y-66161901D01*
X134716585Y-66166063D01*
X134720824Y-66168791D01*
X134725440Y-66169660D01*
X137252740Y-66169660D01*
X137252740Y-68684260D01*
X134725440Y-68684260D01*
X134720499Y-68685261D01*
X134716337Y-68688105D01*
X134713609Y-68692344D01*
X134712740Y-68696960D01*
X134712740Y-68938260D01*
X132198140Y-68938260D01*
X132198140Y-68696960D01*
X132197139Y-68692019D01*
X132194295Y-68687857D01*
X132190056Y-68685129D01*
X132185440Y-68684260D01*
X129658140Y-68684260D01*
X129658140Y-66169660D01*
X132185440Y-66169660D01*
X132190381Y-66168659D01*
X132194543Y-66165815D01*
X132197271Y-66161576D01*
X132198140Y-66156960D01*
X132198140Y-61343660D01*
X134712740Y-61343660D01*
X134712740Y-66156960D01*
M02*
