G04 #@! TF.FileFunction,Soldermask,Bot*
%FSLAX46Y46*%
G04 Gerber Fmt 4.6, Leading zero omitted, Abs format (unit mm)*
G04 Created by KiCad (PCBNEW 4.0.6) date 12/03/17 11:24:10*
%MOMM*%
%LPD*%
G01*
G04 APERTURE LIST*
%ADD10C,0.100000*%
%ADD11R,1.250000X1.250000*%
%ADD12C,4.464000*%
%ADD13R,1.670000X1.670000*%
%ADD14C,2.400000*%
%ADD15R,2.100000X2.100000*%
%ADD16O,2.100000X2.100000*%
G04 APERTURE END LIST*
D10*
D11*
X127238760Y-65095120D03*
X125968760Y-65095120D03*
X124698760Y-65095120D03*
X123428760Y-65095120D03*
X122158760Y-65095120D03*
X127238760Y-63825120D03*
X125968760Y-63825120D03*
X124698760Y-63825120D03*
X123428760Y-63825120D03*
D12*
X84805520Y-102290880D03*
X174797720Y-122834400D03*
D13*
X106847640Y-65008760D03*
X108117640Y-65008760D03*
X105577640Y-65008760D03*
X105577640Y-63738760D03*
X106847640Y-63738760D03*
X108117640Y-63738760D03*
X108143040Y-57642760D03*
X106873040Y-57642760D03*
X105603040Y-57642760D03*
X105603040Y-58912760D03*
X108143040Y-58912760D03*
X106873040Y-58912760D03*
X146739640Y-88305760D03*
X145469640Y-88305760D03*
X148009640Y-88305760D03*
X148009640Y-89575760D03*
X146739640Y-89575760D03*
X145469640Y-89575760D03*
X145444240Y-95671760D03*
X146714240Y-95671760D03*
X147984240Y-95671760D03*
X147984240Y-94401760D03*
X145444240Y-94401760D03*
X146714240Y-94401760D03*
X147416520Y-71099680D03*
X148686520Y-71099680D03*
X146146520Y-71099680D03*
X146146520Y-69829680D03*
X147416520Y-69829680D03*
X148686520Y-69829680D03*
X148711920Y-63733680D03*
X147441920Y-63733680D03*
X146171920Y-63733680D03*
X146171920Y-65003680D03*
X148711920Y-65003680D03*
X147441920Y-65003680D03*
X151455120Y-95539560D03*
X150185120Y-95539560D03*
X152725120Y-95539560D03*
X152725120Y-96809560D03*
X151455120Y-96809560D03*
X150185120Y-96809560D03*
X150159720Y-102905560D03*
X151429720Y-102905560D03*
X152699720Y-102905560D03*
X152699720Y-101635560D03*
X150159720Y-101635560D03*
X151429720Y-101635560D03*
X118310028Y-104134794D03*
X118310028Y-102864794D03*
X118310028Y-105404794D03*
X117040028Y-105404794D03*
X117040028Y-104134794D03*
X117040028Y-102864794D03*
X110944028Y-102839394D03*
X110944028Y-104109394D03*
X110944028Y-105379394D03*
X112214028Y-105379394D03*
X112214028Y-102839394D03*
X112214028Y-104109394D03*
D12*
X174828200Y-56934100D03*
D14*
X93658840Y-91399360D03*
X86658840Y-91399360D03*
D15*
X83962240Y-69390260D03*
D16*
X86502240Y-69390260D03*
X83962240Y-71930260D03*
X86502240Y-71930260D03*
X83962240Y-74470260D03*
X86502240Y-74470260D03*
X83962240Y-77010260D03*
X86502240Y-77010260D03*
X83962240Y-79550260D03*
X86502240Y-79550260D03*
X83962240Y-82090260D03*
X86502240Y-82090260D03*
D13*
X123336259Y-108863115D03*
X123336259Y-110133115D03*
X123336259Y-107593115D03*
X124606259Y-107593115D03*
X124606259Y-108863115D03*
X124606259Y-110133115D03*
X130702259Y-110158515D03*
X130702259Y-108888515D03*
X130702259Y-107618515D03*
X129432259Y-107618515D03*
X129432259Y-110158515D03*
X129432259Y-108888515D03*
X83840320Y-119239960D03*
X83840320Y-124421560D03*
X82138520Y-120357560D03*
X82138520Y-123278560D03*
D10*
G36*
X166375944Y-68720332D02*
X167556812Y-67539464D01*
X168737680Y-68720332D01*
X167556812Y-69901200D01*
X166375944Y-68720332D01*
X166375944Y-68720332D01*
G37*
G36*
X162712000Y-65056388D02*
X163892868Y-63875520D01*
X165073736Y-65056388D01*
X163892868Y-66237256D01*
X162712000Y-65056388D01*
X162712000Y-65056388D01*
G37*
G36*
X166789036Y-66726715D02*
X167969904Y-65545847D01*
X169150772Y-66726715D01*
X167969904Y-67907583D01*
X166789036Y-66726715D01*
X166789036Y-66726715D01*
G37*
G36*
X164723577Y-64661256D02*
X165904445Y-63480388D01*
X167085313Y-64661256D01*
X165904445Y-65842124D01*
X164723577Y-64661256D01*
X164723577Y-64661256D01*
G37*
D13*
X122595640Y-58506360D03*
X117414040Y-58506360D03*
X121478040Y-56804560D03*
X118557040Y-56804560D03*
X152503800Y-132831840D03*
X157685400Y-132831840D03*
X153621400Y-134533640D03*
X156542400Y-134533640D03*
D11*
X122158760Y-63825120D03*
D15*
X116027200Y-76911200D03*
D16*
X113487200Y-76911200D03*
X110947200Y-76911200D03*
X108407200Y-76911200D03*
M02*
